%TF.GenerationSoftware,KiCad,Pcbnew,7.0.11-7.0.11~ubuntu22.04.1*%
%TF.CreationDate,2024-10-25T19:20:44+02:00*%
%TF.ProjectId,PowerBoard-Elec,506f7765-7242-46f6-9172-642d456c6563,rev?*%
%TF.SameCoordinates,Original*%
%TF.FileFunction,Copper,L2,Bot*%
%TF.FilePolarity,Positive*%
%FSLAX46Y46*%
G04 Gerber Fmt 4.6, Leading zero omitted, Abs format (unit mm)*
G04 Created by KiCad (PCBNEW 7.0.11-7.0.11~ubuntu22.04.1) date 2024-10-25 19:20:44*
%MOMM*%
%LPD*%
G01*
G04 APERTURE LIST*
G04 Aperture macros list*
%AMRoundRect*
0 Rectangle with rounded corners*
0 $1 Rounding radius*
0 $2 $3 $4 $5 $6 $7 $8 $9 X,Y pos of 4 corners*
0 Add a 4 corners polygon primitive as box body*
4,1,4,$2,$3,$4,$5,$6,$7,$8,$9,$2,$3,0*
0 Add four circle primitives for the rounded corners*
1,1,$1+$1,$2,$3*
1,1,$1+$1,$4,$5*
1,1,$1+$1,$6,$7*
1,1,$1+$1,$8,$9*
0 Add four rect primitives between the rounded corners*
20,1,$1+$1,$2,$3,$4,$5,0*
20,1,$1+$1,$4,$5,$6,$7,0*
20,1,$1+$1,$6,$7,$8,$9,0*
20,1,$1+$1,$8,$9,$2,$3,0*%
G04 Aperture macros list end*
%TA.AperFunction,ComponentPad*%
%ADD10C,2.300000*%
%TD*%
%TA.AperFunction,ComponentPad*%
%ADD11R,3.000000X3.000000*%
%TD*%
%TA.AperFunction,ComponentPad*%
%ADD12C,3.000000*%
%TD*%
%TA.AperFunction,ComponentPad*%
%ADD13C,1.800000*%
%TD*%
%TA.AperFunction,ComponentPad*%
%ADD14R,1.500000X1.500000*%
%TD*%
%TA.AperFunction,ComponentPad*%
%ADD15C,1.500000*%
%TD*%
%TA.AperFunction,ComponentPad*%
%ADD16R,3.450000X3.480000*%
%TD*%
%TA.AperFunction,ComponentPad*%
%ADD17R,3.430000X3.450000*%
%TD*%
%TA.AperFunction,ComponentPad*%
%ADD18R,3.440000X3.440000*%
%TD*%
%TA.AperFunction,ComponentPad*%
%ADD19R,3.430000X3.410000*%
%TD*%
%TA.AperFunction,ComponentPad*%
%ADD20C,1.600000*%
%TD*%
%TA.AperFunction,ComponentPad*%
%ADD21O,1.600000X1.600000*%
%TD*%
%TA.AperFunction,ComponentPad*%
%ADD22R,1.308000X1.308000*%
%TD*%
%TA.AperFunction,ComponentPad*%
%ADD23C,1.308000*%
%TD*%
%TA.AperFunction,ComponentPad*%
%ADD24C,1.549400*%
%TD*%
%TA.AperFunction,ComponentPad*%
%ADD25R,2.550000X2.550000*%
%TD*%
%TA.AperFunction,ComponentPad*%
%ADD26C,2.550000*%
%TD*%
%TA.AperFunction,ComponentPad*%
%ADD27R,2.640000X2.640000*%
%TD*%
%TA.AperFunction,ComponentPad*%
%ADD28C,2.640000*%
%TD*%
%TA.AperFunction,ComponentPad*%
%ADD29R,2.000000X0.900000*%
%TD*%
%TA.AperFunction,ComponentPad*%
%ADD30RoundRect,1.025000X-1.025000X1.025000X-1.025000X-1.025000X1.025000X-1.025000X1.025000X1.025000X0*%
%TD*%
%TA.AperFunction,ComponentPad*%
%ADD31C,4.100000*%
%TD*%
%TA.AperFunction,ComponentPad*%
%ADD32R,1.300000X2.300000*%
%TD*%
%TA.AperFunction,ComponentPad*%
%ADD33C,2.500000*%
%TD*%
%TA.AperFunction,Conductor*%
%ADD34C,3.500000*%
%TD*%
%TA.AperFunction,Conductor*%
%ADD35C,1.000000*%
%TD*%
%TA.AperFunction,Conductor*%
%ADD36C,5.300000*%
%TD*%
%TA.AperFunction,Conductor*%
%ADD37C,0.250000*%
%TD*%
%TA.AperFunction,Conductor*%
%ADD38C,3.000000*%
%TD*%
%TA.AperFunction,Conductor*%
%ADD39C,1.500000*%
%TD*%
G04 APERTURE END LIST*
D10*
%TO.P,F7,1*%
%TO.N,Net-(U4-IN+)*%
X84382652Y-39850000D03*
%TO.P,F7,2*%
%TO.N,V_BAU*%
X74382652Y-39850000D03*
%TD*%
D11*
%TO.P,J6,1,1*%
%TO.N,GND*%
X98350000Y-31642500D03*
D12*
%TO.P,J6,2,2*%
%TO.N,V_BAT*%
X94390000Y-31642500D03*
%TO.P,J6,3,3*%
%TO.N,V_BAU*%
X90430000Y-31642500D03*
%TD*%
D13*
%TO.P,U14,1,IN+*%
%TO.N,V_BAU*%
X78284652Y-52616465D03*
X78284652Y-50081465D03*
%TO.P,U14,2,IN-*%
%TO.N,GND*%
X78284652Y-63291465D03*
X78284652Y-60751465D03*
%TO.P,U14,3,OUT+*%
%TO.N,Net-(U14-OUT+)*%
X59834652Y-52621465D03*
X59833652Y-50081465D03*
%TO.P,U14,4,OUT-*%
%TO.N,Net-(U14-OUT-)*%
X59834652Y-60751465D03*
X59832652Y-63291465D03*
%TD*%
D14*
%TO.P,PS1,1,IN*%
%TO.N,V_LOGIQUE*%
X108652652Y-62214999D03*
D15*
%TO.P,PS1,2,COM/GND*%
%TO.N,GND*%
X108652652Y-59674999D03*
%TO.P,PS1,3,OUT*%
%TO.N,Net-(PS1-OUT)*%
X108652652Y-57134999D03*
%TD*%
D16*
%TO.P,U3,1,IN+*%
%TO.N,Net-(U3-IN+)*%
X82637718Y-67329797D03*
D17*
%TO.P,U3,2,IN-*%
%TO.N,GND*%
X82617718Y-87824797D03*
D18*
%TO.P,U3,3,OUT+*%
%TO.N,Net-(U3-OUT+)*%
X132712718Y-67319797D03*
D19*
%TO.P,U3,4,OUT-*%
%TO.N,Net-(U3-OUT-)*%
X132707718Y-87814797D03*
%TD*%
D20*
%TO.P,R7,1*%
%TO.N,Net-(J2-Pad3)*%
X125310000Y-27220000D03*
D21*
%TO.P,R7,2*%
%TO.N,V_LOGIQUE*%
X117690000Y-27220000D03*
%TD*%
D10*
%TO.P,F8,1*%
%TO.N,Net-(J1-+)*%
X114140000Y-39850000D03*
%TO.P,F8,2*%
%TO.N,V_BAT*%
X104140000Y-39850000D03*
%TD*%
D20*
%TO.P,R3,1*%
%TO.N,Net-(U1-OUT+)*%
X121132652Y-46970000D03*
D21*
%TO.P,R3,2*%
%TO.N,Net-(Switch3-A)*%
X121132652Y-39350000D03*
%TD*%
D22*
%TO.P,U16,1,1*%
%TO.N,Net-(U1-OUT-)*%
X138965152Y-60645202D03*
D23*
%TO.P,U16,2,2*%
%TO.N,Net-(U1-OUT+)*%
X138965152Y-62645202D03*
%TD*%
D24*
%TO.P,U7,1,1*%
%TO.N,GND*%
X135646920Y-18808000D03*
%TO.P,U7,2,2*%
%TO.N,S1*%
X135646920Y-21348000D03*
%TO.P,U7,3,3*%
%TO.N,S2*%
X135646920Y-23888000D03*
%TO.P,U7,4,4*%
%TO.N,S3*%
X135646920Y-26430000D03*
%TO.P,U7,5,5*%
%TO.N,S4*%
X135646920Y-28968000D03*
%TD*%
D20*
%TO.P,R5,1*%
%TO.N,Net-(U4-OUT+)*%
X18491652Y-43550000D03*
D21*
%TO.P,R5,2*%
%TO.N,Net-(Switch2-A)*%
X26111652Y-43550000D03*
%TD*%
D20*
%TO.P,R1,1*%
%TO.N,Net-(Switch1-A)*%
X111462652Y-49420000D03*
D21*
%TO.P,R1,2*%
%TO.N,Net-(PS1-OUT)*%
X103842652Y-49420000D03*
%TD*%
D20*
%TO.P,R2,1*%
%TO.N,Net-(U9-OUT+)*%
X103842652Y-52580000D03*
D21*
%TO.P,R2,2*%
%TO.N,Net-(Switch7-A)*%
X111462652Y-52580000D03*
%TD*%
D13*
%TO.P,U9,1,IN+*%
%TO.N,V_LOGIQUE*%
X82352652Y-60783805D03*
X82352652Y-63318805D03*
%TO.P,U9,2,IN-*%
%TO.N,GND*%
X82352652Y-50108805D03*
X82352652Y-52648805D03*
%TO.P,U9,3,OUT+*%
%TO.N,Net-(U9-OUT+)*%
X100802652Y-60778805D03*
X100803652Y-63318805D03*
%TO.P,U9,4,OUT-*%
%TO.N,Net-(U9-OUT-)*%
X100802652Y-52648805D03*
X100804652Y-50108805D03*
%TD*%
D10*
%TO.P,F2,1*%
%TO.N,Net-(U3-IN+)*%
X114140000Y-25140000D03*
%TO.P,F2,2*%
%TO.N,V_LOGIQUE*%
X104140000Y-25140000D03*
%TD*%
D25*
%TO.P,U12,1,1*%
%TO.N,Net-(U3-OUT+)*%
X139665152Y-75589898D03*
D26*
%TO.P,U12,2,2*%
%TO.N,Net-(U3-OUT-)*%
X139665152Y-79549898D03*
%TD*%
D25*
%TO.P,U13,1,1*%
%TO.N,Net-(U10-OUT+)*%
X21491152Y-79549898D03*
D26*
%TO.P,U13,2,2*%
%TO.N,Net-(U10-OUT-)*%
X21491152Y-75589898D03*
%TD*%
D27*
%TO.P,J2,1,1*%
%TO.N,GND*%
X118840000Y-20281000D03*
D28*
%TO.P,J2,2,2*%
%TO.N,V_LOGIQUE*%
X122800000Y-20281000D03*
%TO.P,J2,3,3*%
%TO.N,Net-(J2-Pad3)*%
X126760000Y-20281000D03*
%TO.P,J2,4,4*%
%TO.N,V_BAT*%
X130720000Y-20281000D03*
%TD*%
D24*
%TO.P,J5,1,1*%
%TO.N,Net-(U11-OUT+)*%
X22938451Y-50790000D03*
%TO.P,J5,2,2*%
%TO.N,Net-(U11-OUT-)*%
X22938451Y-48290000D03*
%TD*%
D16*
%TO.P,U10,1,IN+*%
%TO.N,V_BAU*%
X78527586Y-87810000D03*
D17*
%TO.P,U10,2,IN-*%
%TO.N,GND*%
X78547586Y-67315000D03*
D18*
%TO.P,U10,3,OUT+*%
%TO.N,Net-(U10-OUT+)*%
X28452586Y-87820000D03*
D19*
%TO.P,U10,4,OUT-*%
%TO.N,Net-(U10-OUT-)*%
X28457586Y-67325000D03*
%TD*%
D22*
%TO.P,U15,1,1*%
%TO.N,GND*%
X138965152Y-52315202D03*
D23*
%TO.P,U15,2,2*%
%TO.N,Net-(PS1-OUT)*%
X138965152Y-54315202D03*
%TD*%
D22*
%TO.P,U17,1,1*%
%TO.N,Net-(U9-OUT-)*%
X138965152Y-68890000D03*
D23*
%TO.P,U17,2,2*%
%TO.N,Net-(U9-OUT+)*%
X138965152Y-70890000D03*
%TD*%
D22*
%TO.P,U18,1,1*%
%TO.N,Net-(U14-OUT-)*%
X22242852Y-58190000D03*
D23*
%TO.P,U18,2,2*%
%TO.N,Net-(U14-OUT+)*%
X22242852Y-56190000D03*
%TD*%
D11*
%TO.P,U4,1,IN+*%
%TO.N,Net-(U4-IN+)*%
X69167506Y-44930000D03*
%TO.P,U4,2,IN-*%
%TO.N,GND*%
X69167601Y-27130000D03*
%TO.P,U4,3,OUT+*%
%TO.N,Net-(U4-OUT+)*%
X29167601Y-44930000D03*
%TO.P,U4,4,OUT-*%
%TO.N,Net-(U4-OUT-)*%
X29167601Y-27130000D03*
%TD*%
D24*
%TO.P,J3,1,1*%
%TO.N,Net-(U4-OUT+)*%
X22938451Y-37300155D03*
%TO.P,J3,2,2*%
%TO.N,Net-(U4-OUT-)*%
X22938451Y-34800155D03*
%TD*%
D29*
%TO.P,J1,*%
%TO.N,*%
X132672652Y-33100000D03*
X132672652Y-46600000D03*
D30*
%TO.P,J1,1,-*%
%TO.N,GND*%
X126672652Y-36250000D03*
D31*
%TO.P,J1,2,+*%
%TO.N,Net-(J1-+)*%
X126672652Y-43450000D03*
D32*
%TO.P,J1,3*%
%TO.N,N/C*%
X130322652Y-39850000D03*
%TD*%
D22*
%TO.P,J4,1,1*%
%TO.N,GND*%
X28932652Y-18281000D03*
D23*
%TO.P,J4,2,2*%
%TO.N,S1*%
X30932652Y-18281000D03*
%TO.P,J4,3,3*%
%TO.N,S2*%
X32932652Y-18281000D03*
%TO.P,J4,4,4*%
%TO.N,S3*%
X34932652Y-18281000D03*
%TO.P,J4,5,5*%
%TO.N,S4*%
X36932652Y-18281000D03*
%TD*%
D20*
%TO.P,R6,1*%
%TO.N,Net-(U14-OUT+)*%
X18491652Y-63730000D03*
D21*
%TO.P,R6,2*%
%TO.N,Net-(Switch5-A)*%
X26111652Y-63730000D03*
%TD*%
D11*
%TO.P,U11,1,IN+*%
%TO.N,V_BAU*%
X55522652Y-63100000D03*
X55522652Y-60560000D03*
D33*
%TO.P,U11,2,IN-*%
%TO.N,GND*%
X55522652Y-51640000D03*
X55522652Y-49100000D03*
D11*
%TO.P,U11,3,OUT+*%
%TO.N,Net-(U11-OUT+)*%
X29522652Y-63100000D03*
X29522652Y-60560000D03*
D33*
%TO.P,U11,4,OUT-*%
%TO.N,Net-(U11-OUT-)*%
X29522652Y-51640000D03*
X29522652Y-49100000D03*
%TD*%
D25*
%TO.P,U8,1,1*%
%TO.N,GND*%
X21491152Y-22599500D03*
D26*
%TO.P,U8,2,2*%
%TO.N,Net-(F1-Pad2)*%
X21491152Y-18639500D03*
%TD*%
D10*
%TO.P,F1,1*%
%TO.N,V_BAU*%
X84382652Y-25140000D03*
%TO.P,F1,2*%
%TO.N,Net-(F1-Pad2)*%
X74382652Y-25140000D03*
%TD*%
D13*
%TO.P,U1,1,IN+*%
%TO.N,V_LOGIQUE*%
X114462652Y-60783805D03*
X114462652Y-63318805D03*
%TO.P,U1,2,IN-*%
%TO.N,GND*%
X114462652Y-50108805D03*
X114462652Y-52648805D03*
%TO.P,U1,3,OUT+*%
%TO.N,Net-(U1-OUT+)*%
X132912652Y-60778805D03*
X132913652Y-63318805D03*
%TO.P,U1,4,OUT-*%
%TO.N,Net-(U1-OUT-)*%
X132912652Y-52648805D03*
X132914652Y-50108805D03*
%TD*%
D34*
%TO.N,V_BAU*%
X74382652Y-46580000D02*
X78284652Y-50482000D01*
X78284652Y-50482000D02*
X78284652Y-52616465D01*
D35*
%TO.N,Net-(U4-OUT+)*%
X22938451Y-37300155D02*
X21359845Y-37300155D01*
X21359845Y-37300155D02*
X18491652Y-40168348D01*
X18491652Y-40168348D02*
X18491652Y-43550000D01*
D34*
%TO.N,V_BAU*%
X55522652Y-59960000D02*
X55522652Y-63100000D01*
X70592652Y-56590000D02*
X70012652Y-57170000D01*
X84382652Y-29850000D02*
X86175152Y-31642500D01*
X84382652Y-25140000D02*
X84382652Y-29850000D01*
X84382652Y-29850000D02*
X74382652Y-39850000D01*
X67482652Y-76150066D02*
X78752586Y-87420000D01*
X70592652Y-56590000D02*
X67482652Y-59700000D01*
X74382652Y-39850000D02*
X74382652Y-52040000D01*
X70012652Y-57170000D02*
X58312652Y-57170000D01*
X86175152Y-31642500D02*
X90430000Y-31642500D01*
X74382652Y-52040000D02*
X74382652Y-52800000D01*
X74382652Y-52800000D02*
X70592652Y-56590000D01*
X58312652Y-57170000D02*
X55522652Y-59960000D01*
X67482652Y-59700000D02*
X67482652Y-76150066D01*
%TO.N,Net-(F1-Pad2)*%
X74382652Y-25140000D02*
X71842152Y-22599500D01*
X23462152Y-18639500D02*
X21491152Y-18639500D01*
X71842152Y-22599500D02*
X27422152Y-22599500D01*
X27422152Y-22599500D02*
X23462152Y-18639500D01*
D36*
%TO.N,Net-(J1-+)*%
X126672652Y-43450000D02*
X126382652Y-43160000D01*
X117450000Y-43160000D02*
X114140000Y-39850000D01*
X126382652Y-43160000D02*
X117450000Y-43160000D01*
%TO.N,V_BAT*%
X94390000Y-35360000D02*
X98880000Y-39850000D01*
X98880000Y-39850000D02*
X104140000Y-39850000D01*
X109790000Y-34200000D02*
X120850000Y-34200000D01*
X124180000Y-30870000D02*
X127891880Y-30870000D01*
X104140000Y-39850000D02*
X109790000Y-34200000D01*
D34*
X94390000Y-35360000D02*
X94390000Y-31642500D01*
D36*
X127891880Y-30870000D02*
X131090000Y-27671880D01*
X120850000Y-34200000D02*
X124180000Y-30870000D01*
X131090000Y-27671880D02*
X131090000Y-21495000D01*
%TO.N,V_LOGIQUE*%
X104140000Y-25140000D02*
X107480000Y-28480000D01*
D34*
X104030000Y-67700000D02*
X108652652Y-63077348D01*
X82352652Y-60783805D02*
X82352652Y-63318805D01*
X122850000Y-22060000D02*
X122850000Y-20645000D01*
X117690000Y-27220000D02*
X122850000Y-22060000D01*
X110081457Y-67700000D02*
X114462652Y-63318805D01*
X102830000Y-67700000D02*
X110081457Y-67700000D01*
X117690000Y-27220000D02*
X116430000Y-28480000D01*
X97150000Y-67700000D02*
X102830000Y-67700000D01*
X122850000Y-20645000D02*
X122800000Y-20595000D01*
X114462652Y-60783805D02*
X114462652Y-63318805D01*
X84887652Y-63318805D02*
X92768805Y-63318805D01*
X116430000Y-28480000D02*
X107480000Y-28480000D01*
X92768805Y-63318805D02*
X97150000Y-67700000D01*
X82352652Y-60783805D02*
X84887652Y-63318805D01*
X108652652Y-63077348D02*
X108652652Y-62374999D01*
D37*
%TO.N,S1*%
X38015444Y-20390000D02*
X39885444Y-18520000D01*
X132726256Y-18520000D02*
X135554256Y-21348000D01*
X39885444Y-18520000D02*
X132726256Y-18520000D01*
X135554256Y-21348000D02*
X135646920Y-21348000D01*
X33041652Y-20390000D02*
X38015444Y-20390000D01*
X30932652Y-18281000D02*
X33041652Y-20390000D01*
%TO.N,S2*%
X137032652Y-22502268D02*
X135646920Y-23888000D01*
X134892652Y-20050000D02*
X136522652Y-20050000D01*
X137032652Y-20560000D02*
X137032652Y-22502268D01*
X32932652Y-18281000D02*
X34591652Y-19940000D01*
X37829048Y-19940000D02*
X39699048Y-18070000D01*
X39699048Y-18070000D02*
X132912652Y-18070000D01*
X136522652Y-20050000D02*
X137032652Y-20560000D01*
X34591652Y-19940000D02*
X37829048Y-19940000D01*
X132912652Y-18070000D02*
X134892652Y-20050000D01*
X135270652Y-23888000D02*
X135646920Y-23888000D01*
%TO.N,S3*%
X39512652Y-17620000D02*
X37642652Y-19490000D01*
X137482652Y-18826396D02*
X136276256Y-17620000D01*
X37642652Y-19490000D02*
X36141652Y-19490000D01*
X137482652Y-24594268D02*
X137482652Y-18826396D01*
X135646920Y-26430000D02*
X137482652Y-24594268D01*
X36141652Y-19490000D02*
X34932652Y-18281000D01*
X136276256Y-17620000D02*
X39512652Y-17620000D01*
%TO.N,S4*%
X36932652Y-18281000D02*
X38043652Y-17170000D01*
X137932652Y-28230000D02*
X137194652Y-28968000D01*
X136462652Y-17170000D02*
X137932652Y-18640000D01*
X137194652Y-28968000D02*
X135646920Y-28968000D01*
X38043652Y-17170000D02*
X136462652Y-17170000D01*
X137932652Y-18640000D02*
X137932652Y-28230000D01*
D34*
%TO.N,Net-(U4-OUT+)*%
X25468107Y-38275455D02*
X22938451Y-38275455D01*
X29167601Y-44930000D02*
X29167601Y-41974949D01*
X29167601Y-41974949D02*
X25468107Y-38275455D01*
%TO.N,Net-(U4-OUT-)*%
X22938451Y-33359150D02*
X22938451Y-34575455D01*
D35*
X22938451Y-34800155D02*
X21812497Y-34800155D01*
D34*
X29167601Y-27130000D02*
X22938451Y-33359150D01*
D38*
%TO.N,Net-(U11-OUT-)*%
X22938451Y-48290000D02*
X26172652Y-48290000D01*
X29522652Y-49100000D02*
X29522652Y-51640000D01*
X26172652Y-48290000D02*
X29522652Y-51640000D01*
D39*
%TO.N,Net-(PS1-OUT)*%
X108652652Y-57134999D02*
X120297653Y-57134999D01*
X136222652Y-50401500D02*
X136222652Y-53230000D01*
X137307854Y-54315202D02*
X138965152Y-54315202D01*
X106562652Y-51480000D02*
X104502652Y-49420000D01*
X108652652Y-57134999D02*
X106562652Y-55044999D01*
X134001152Y-48180000D02*
X136222652Y-50401500D01*
X129252652Y-48180000D02*
X134001152Y-48180000D01*
X104502652Y-49420000D02*
X103842652Y-49420000D01*
X106562652Y-55044999D02*
X106562652Y-51480000D01*
X136222652Y-53230000D02*
X137307854Y-54315202D01*
X120297653Y-57134999D02*
X129252652Y-48180000D01*
%TO.N,Net-(U9-OUT+)*%
X100802652Y-60778805D02*
X100802652Y-58690000D01*
X103842652Y-55650000D02*
X103842652Y-52580000D01*
X100802652Y-58690000D02*
X103842652Y-55650000D01*
%TO.N,Net-(U1-OUT+)*%
X134105446Y-63318805D02*
X134779049Y-62645202D01*
X132913652Y-60779805D02*
X132912652Y-60778805D01*
X132912652Y-60778805D02*
X134779049Y-62645202D01*
X132913652Y-63318805D02*
X132913652Y-60779805D01*
X132913652Y-63318805D02*
X134105446Y-63318805D01*
X134779049Y-62645202D02*
X138965152Y-62645202D01*
D35*
%TO.N,Net-(U14-OUT+)*%
X22242852Y-56190000D02*
X21222652Y-56190000D01*
D39*
X42932652Y-56190000D02*
X45232652Y-53890000D01*
X45232652Y-53890000D02*
X58566117Y-53890000D01*
X22242852Y-56190000D02*
X42932652Y-56190000D01*
D35*
X19212652Y-58200000D02*
X19212652Y-63009000D01*
D39*
X58566117Y-53890000D02*
X59834652Y-52621465D01*
X59833652Y-52620465D02*
X59834652Y-52621465D01*
D35*
X19212652Y-63009000D02*
X18491652Y-63730000D01*
X21222652Y-56190000D02*
X19212652Y-58200000D01*
D39*
X59833652Y-50081465D02*
X59833652Y-52620465D01*
%TO.N,Net-(U1-OUT-)*%
X132912652Y-52648805D02*
X132912652Y-55920000D01*
X132914652Y-52646805D02*
X132912652Y-52648805D01*
X132914652Y-50108805D02*
X132914652Y-52646805D01*
X137637854Y-60645202D02*
X138965152Y-60645202D01*
X132912652Y-55920000D02*
X137637854Y-60645202D01*
D34*
%TO.N,Net-(U3-OUT+)*%
X132912652Y-67419797D02*
X132912652Y-72652652D01*
X135849898Y-75589898D02*
X139665152Y-75589898D01*
X132912652Y-72652652D02*
X135849898Y-75589898D01*
D38*
%TO.N,Net-(U3-OUT-)*%
X132912652Y-86302398D02*
X139665152Y-79549898D01*
X132912652Y-87419797D02*
X132912652Y-86302398D01*
D39*
%TO.N,Net-(U9-OUT-)*%
X100804652Y-50108805D02*
X100804652Y-52646805D01*
X100804652Y-52646805D02*
X100802652Y-52648805D01*
D38*
%TO.N,Net-(U10-OUT+)*%
X28252652Y-86311398D02*
X28252652Y-87670000D01*
X21491152Y-79549898D02*
X28252652Y-86311398D01*
%TO.N,Net-(U10-OUT-)*%
X28252652Y-68828398D02*
X21491152Y-75589898D01*
X28252652Y-67720000D02*
X28252652Y-68828398D01*
D39*
%TO.N,Net-(U14-OUT-)*%
X59832652Y-64540000D02*
X58082652Y-66290000D01*
X59834652Y-60751465D02*
X59834652Y-63289465D01*
X42222652Y-66290000D02*
X33822652Y-57890000D01*
X22542852Y-57890000D02*
X22242852Y-58190000D01*
X58082652Y-66290000D02*
X42222652Y-66290000D01*
X59832652Y-63291465D02*
X59832652Y-64540000D01*
X59834652Y-63289465D02*
X59832652Y-63291465D01*
X33822652Y-57890000D02*
X22542852Y-57890000D01*
D35*
%TO.N,Net-(J2-Pad3)*%
X126760000Y-25770000D02*
X126760000Y-20281000D01*
X125310000Y-27220000D02*
X126760000Y-25770000D01*
%TD*%
M02*
