%TF.GenerationSoftware,KiCad,Pcbnew,7.0.11-7.0.11~ubuntu22.04.1*%
%TF.CreationDate,2024-10-25T19:20:32+02:00*%
%TF.ProjectId,PowerBoard-Elec,506f7765-7242-46f6-9172-642d456c6563,rev?*%
%TF.SameCoordinates,Original*%
%TF.FileFunction,Drillmap*%
%TF.FilePolarity,Positive*%
%FSLAX45Y45*%
G04 Gerber Fmt 4.5, Leading zero omitted, Abs format (unit mm)*
G04 Created by KiCad (PCBNEW 7.0.11-7.0.11~ubuntu22.04.1) date 2024-10-25 19:20:32*
%MOMM*%
%LPD*%
G01*
G04 APERTURE LIST*
%ADD10C,0.050000*%
%ADD11C,0.200000*%
G04 APERTURE END LIST*
D10*
X2354265Y-8576000D02*
G75*
G03*
X2054265Y-8576000I-150000J0D01*
G01*
X2054265Y-8576000D02*
G75*
G03*
X2354265Y-8576000I150000J0D01*
G01*
X14060265Y-8576000D02*
G75*
G03*
X13760265Y-8576000I-150000J0D01*
G01*
X13760265Y-8576000D02*
G75*
G03*
X14060265Y-8576000I150000J0D01*
G01*
X1745265Y-1637000D02*
X14365265Y-1637000D01*
X14365265Y-8987000D01*
X1745265Y-8987000D01*
X1745265Y-1637000D01*
X2354265Y-2863000D02*
G75*
G03*
X2054265Y-2863000I-150000J0D01*
G01*
X2054265Y-2863000D02*
G75*
G03*
X2354265Y-2863000I150000J0D01*
G01*
X9169536Y-6842243D02*
G75*
G03*
X8813008Y-6842243I-178264J0D01*
G01*
X8813008Y-6842243D02*
G75*
G03*
X9169536Y-6842243I178264J0D01*
G01*
X12569536Y-8690980D02*
G75*
G03*
X12213008Y-8690980I-178264J0D01*
G01*
X12213008Y-8690980D02*
G75*
G03*
X12569536Y-8690980I178264J0D01*
G01*
X7303522Y-8671736D02*
G75*
G03*
X6946995Y-8671736I-178264J0D01*
G01*
X6946995Y-8671736D02*
G75*
G03*
X7303522Y-8671736I178264J0D01*
G01*
X3903522Y-6823000D02*
G75*
G03*
X3546995Y-6823000I-178264J0D01*
G01*
X3546995Y-6823000D02*
G75*
G03*
X3903522Y-6823000I178264J0D01*
G01*
X6585864Y-4403565D02*
G75*
G03*
X6265864Y-4403565I-160000J0D01*
G01*
X6265864Y-4403565D02*
G75*
G03*
X6585864Y-4403565I160000J0D01*
G01*
X3565864Y-2802565D02*
G75*
G03*
X3245864Y-2802565I-160000J0D01*
G01*
X3245864Y-2802565D02*
G75*
G03*
X3565864Y-2802565I160000J0D01*
G01*
D11*
X2003542Y-9300984D02*
X2003542Y-9100984D01*
X2003542Y-9100984D02*
X2051161Y-9100984D01*
X2051161Y-9100984D02*
X2079732Y-9110508D01*
X2079732Y-9110508D02*
X2098780Y-9129555D01*
X2098780Y-9129555D02*
X2108304Y-9148603D01*
X2108304Y-9148603D02*
X2117828Y-9186698D01*
X2117828Y-9186698D02*
X2117828Y-9215270D01*
X2117828Y-9215270D02*
X2108304Y-9253365D01*
X2108304Y-9253365D02*
X2098780Y-9272412D01*
X2098780Y-9272412D02*
X2079732Y-9291460D01*
X2079732Y-9291460D02*
X2051161Y-9300984D01*
X2051161Y-9300984D02*
X2003542Y-9300984D01*
X2203542Y-9300984D02*
X2203542Y-9167650D01*
X2203542Y-9205746D02*
X2213066Y-9186698D01*
X2213066Y-9186698D02*
X2222590Y-9177174D01*
X2222590Y-9177174D02*
X2241637Y-9167650D01*
X2241637Y-9167650D02*
X2260685Y-9167650D01*
X2327352Y-9300984D02*
X2327352Y-9167650D01*
X2327352Y-9100984D02*
X2317828Y-9110508D01*
X2317828Y-9110508D02*
X2327352Y-9120031D01*
X2327352Y-9120031D02*
X2336875Y-9110508D01*
X2336875Y-9110508D02*
X2327352Y-9100984D01*
X2327352Y-9100984D02*
X2327352Y-9120031D01*
X2451161Y-9300984D02*
X2432113Y-9291460D01*
X2432113Y-9291460D02*
X2422590Y-9272412D01*
X2422590Y-9272412D02*
X2422590Y-9100984D01*
X2555923Y-9300984D02*
X2536875Y-9291460D01*
X2536875Y-9291460D02*
X2527352Y-9272412D01*
X2527352Y-9272412D02*
X2527352Y-9100984D01*
X2784494Y-9300984D02*
X2784494Y-9100984D01*
X2784494Y-9100984D02*
X2851161Y-9243841D01*
X2851161Y-9243841D02*
X2917828Y-9100984D01*
X2917828Y-9100984D02*
X2917828Y-9300984D01*
X3098780Y-9300984D02*
X3098780Y-9196222D01*
X3098780Y-9196222D02*
X3089256Y-9177174D01*
X3089256Y-9177174D02*
X3070209Y-9167650D01*
X3070209Y-9167650D02*
X3032113Y-9167650D01*
X3032113Y-9167650D02*
X3013066Y-9177174D01*
X3098780Y-9291460D02*
X3079732Y-9300984D01*
X3079732Y-9300984D02*
X3032113Y-9300984D01*
X3032113Y-9300984D02*
X3013066Y-9291460D01*
X3013066Y-9291460D02*
X3003542Y-9272412D01*
X3003542Y-9272412D02*
X3003542Y-9253365D01*
X3003542Y-9253365D02*
X3013066Y-9234317D01*
X3013066Y-9234317D02*
X3032113Y-9224793D01*
X3032113Y-9224793D02*
X3079732Y-9224793D01*
X3079732Y-9224793D02*
X3098780Y-9215270D01*
X3194018Y-9167650D02*
X3194018Y-9367650D01*
X3194018Y-9177174D02*
X3213066Y-9167650D01*
X3213066Y-9167650D02*
X3251161Y-9167650D01*
X3251161Y-9167650D02*
X3270209Y-9177174D01*
X3270209Y-9177174D02*
X3279732Y-9186698D01*
X3279732Y-9186698D02*
X3289256Y-9205746D01*
X3289256Y-9205746D02*
X3289256Y-9262889D01*
X3289256Y-9262889D02*
X3279732Y-9281936D01*
X3279732Y-9281936D02*
X3270209Y-9291460D01*
X3270209Y-9291460D02*
X3251161Y-9300984D01*
X3251161Y-9300984D02*
X3213066Y-9300984D01*
X3213066Y-9300984D02*
X3194018Y-9291460D01*
X3374971Y-9281936D02*
X3384494Y-9291460D01*
X3384494Y-9291460D02*
X3374971Y-9300984D01*
X3374971Y-9300984D02*
X3365447Y-9291460D01*
X3365447Y-9291460D02*
X3374971Y-9281936D01*
X3374971Y-9281936D02*
X3374971Y-9300984D01*
X3374971Y-9177174D02*
X3384494Y-9186698D01*
X3384494Y-9186698D02*
X3374971Y-9196222D01*
X3374971Y-9196222D02*
X3365447Y-9186698D01*
X3365447Y-9186698D02*
X3374971Y-9177174D01*
X3374971Y-9177174D02*
X3374971Y-9196222D01*
M02*
