%TF.GenerationSoftware,KiCad,Pcbnew,7.0.11-7.0.11~ubuntu22.04.1*%
%TF.CreationDate,2024-10-25T19:20:32+02:00*%
%TF.ProjectId,PowerBoard-Elec,506f7765-7242-46f6-9172-642d456c6563,rev?*%
%TF.SameCoordinates,Original*%
%TF.FileFunction,Drillmap*%
%TF.FilePolarity,Positive*%
%FSLAX45Y45*%
G04 Gerber Fmt 4.5, Leading zero omitted, Abs format (unit mm)*
G04 Created by KiCad (PCBNEW 7.0.11-7.0.11~ubuntu22.04.1) date 2024-10-25 19:20:32*
%MOMM*%
%LPD*%
G01*
G04 APERTURE LIST*
%ADD10C,0.050000*%
%ADD11C,0.200000*%
%ADD12C,0.100000*%
%ADD13C,0.104140*%
%ADD14C,0.120000*%
%ADD15C,0.130000*%
%ADD16C,0.150000*%
%ADD17C,0.170000*%
%ADD18C,0.176000*%
%ADD19C,0.270000*%
G04 APERTURE END LIST*
D10*
X2354265Y-8576000D02*
G75*
G03*
X2054265Y-8576000I-150000J0D01*
G01*
X2054265Y-8576000D02*
G75*
G03*
X2354265Y-8576000I150000J0D01*
G01*
X14060265Y-8576000D02*
G75*
G03*
X13760265Y-8576000I-150000J0D01*
G01*
X13760265Y-8576000D02*
G75*
G03*
X14060265Y-8576000I150000J0D01*
G01*
X1745265Y-1637000D02*
X14365265Y-1637000D01*
X14365265Y-8987000D01*
X1745265Y-8987000D01*
X1745265Y-1637000D01*
X2354265Y-2863000D02*
G75*
G03*
X2054265Y-2863000I-150000J0D01*
G01*
X2054265Y-2863000D02*
G75*
G03*
X2354265Y-2863000I150000J0D01*
G01*
X9169536Y-6842243D02*
G75*
G03*
X8813008Y-6842243I-178264J0D01*
G01*
X8813008Y-6842243D02*
G75*
G03*
X9169536Y-6842243I178264J0D01*
G01*
X12569536Y-8690980D02*
G75*
G03*
X12213008Y-8690980I-178264J0D01*
G01*
X12213008Y-8690980D02*
G75*
G03*
X12569536Y-8690980I178264J0D01*
G01*
X7303522Y-8671736D02*
G75*
G03*
X6946995Y-8671736I-178264J0D01*
G01*
X6946995Y-8671736D02*
G75*
G03*
X7303522Y-8671736I178264J0D01*
G01*
X3903522Y-6823000D02*
G75*
G03*
X3546995Y-6823000I-178264J0D01*
G01*
X3546995Y-6823000D02*
G75*
G03*
X3903522Y-6823000I178264J0D01*
G01*
X6585864Y-4403565D02*
G75*
G03*
X6265864Y-4403565I-160000J0D01*
G01*
X6265864Y-4403565D02*
G75*
G03*
X6585864Y-4403565I160000J0D01*
G01*
X3565864Y-2802565D02*
G75*
G03*
X3245864Y-2802565I-160000J0D01*
G01*
X3245864Y-2802565D02*
G75*
G03*
X3565864Y-2802565I160000J0D01*
G01*
D11*
D12*
X13237265Y-3280000D02*
X13297265Y-3340000D01*
X13297265Y-3280000D02*
X13237265Y-3340000D01*
X13322265Y-3280000D02*
X13212265Y-3280000D01*
X13212265Y-3280000D02*
G75*
G03*
X13212265Y-3340000I0J-30000D01*
G01*
X13212265Y-3340000D02*
X13322265Y-3340000D01*
X13322265Y-3340000D02*
G75*
G03*
X13322265Y-3280000I0J30000D01*
G01*
X13237265Y-4630000D02*
X13297265Y-4690000D01*
X13297265Y-4630000D02*
X13237265Y-4690000D01*
X13322265Y-4630000D02*
X13212265Y-4630000D01*
X13212265Y-4630000D02*
G75*
G03*
X13212265Y-4690000I0J-30000D01*
G01*
X13212265Y-4690000D02*
X13322265Y-4690000D01*
X13322265Y-4690000D02*
G75*
G03*
X13322265Y-4630000I0J30000D01*
G01*
X1889165Y-4355000D02*
G75*
G03*
X1809165Y-4355000I-40000J0D01*
G01*
X1809165Y-4355000D02*
G75*
G03*
X1889165Y-4355000I40000J0D01*
G01*
X1889165Y-6373000D02*
G75*
G03*
X1809165Y-6373000I-40000J0D01*
G01*
X1809165Y-6373000D02*
G75*
G03*
X1889165Y-6373000I40000J0D01*
G01*
X2264285Y-5619000D02*
G75*
G03*
X2184285Y-5619000I-40000J0D01*
G01*
X2184285Y-5619000D02*
G75*
G03*
X2264285Y-5619000I40000J0D01*
G01*
X2264285Y-5819000D02*
G75*
G03*
X2184285Y-5819000I-40000J0D01*
G01*
X2184285Y-5819000D02*
G75*
G03*
X2264285Y-5819000I40000J0D01*
G01*
X2651165Y-4355000D02*
G75*
G03*
X2571165Y-4355000I-40000J0D01*
G01*
X2571165Y-4355000D02*
G75*
G03*
X2651165Y-4355000I40000J0D01*
G01*
X2651165Y-6373000D02*
G75*
G03*
X2571165Y-6373000I-40000J0D01*
G01*
X2571165Y-6373000D02*
G75*
G03*
X2651165Y-6373000I40000J0D01*
G01*
X2933265Y-1828100D02*
G75*
G03*
X2853265Y-1828100I-40000J0D01*
G01*
X2853265Y-1828100D02*
G75*
G03*
X2933265Y-1828100I40000J0D01*
G01*
X3133265Y-1828100D02*
G75*
G03*
X3053265Y-1828100I-40000J0D01*
G01*
X3053265Y-1828100D02*
G75*
G03*
X3133265Y-1828100I40000J0D01*
G01*
X3333265Y-1828100D02*
G75*
G03*
X3253265Y-1828100I-40000J0D01*
G01*
X3253265Y-1828100D02*
G75*
G03*
X3333265Y-1828100I40000J0D01*
G01*
X3533265Y-1828100D02*
G75*
G03*
X3453265Y-1828100I-40000J0D01*
G01*
X3453265Y-1828100D02*
G75*
G03*
X3533265Y-1828100I40000J0D01*
G01*
X3733265Y-1828100D02*
G75*
G03*
X3653265Y-1828100I-40000J0D01*
G01*
X3653265Y-1828100D02*
G75*
G03*
X3733265Y-1828100I40000J0D01*
G01*
X10424265Y-4942000D02*
G75*
G03*
X10344265Y-4942000I-40000J0D01*
G01*
X10344265Y-4942000D02*
G75*
G03*
X10424265Y-4942000I40000J0D01*
G01*
X10424265Y-5258000D02*
G75*
G03*
X10344265Y-5258000I-40000J0D01*
G01*
X10344265Y-5258000D02*
G75*
G03*
X10424265Y-5258000I40000J0D01*
G01*
X11186265Y-4942000D02*
G75*
G03*
X11106265Y-4942000I-40000J0D01*
G01*
X11106265Y-4942000D02*
G75*
G03*
X11186265Y-4942000I40000J0D01*
G01*
X11186265Y-5258000D02*
G75*
G03*
X11106265Y-5258000I-40000J0D01*
G01*
X11106265Y-5258000D02*
G75*
G03*
X11186265Y-5258000I40000J0D01*
G01*
X11809000Y-2722000D02*
G75*
G03*
X11729000Y-2722000I-40000J0D01*
G01*
X11729000Y-2722000D02*
G75*
G03*
X11809000Y-2722000I40000J0D01*
G01*
X12153265Y-3935000D02*
G75*
G03*
X12073265Y-3935000I-40000J0D01*
G01*
X12073265Y-3935000D02*
G75*
G03*
X12153265Y-3935000I40000J0D01*
G01*
X12153265Y-4697000D02*
G75*
G03*
X12073265Y-4697000I-40000J0D01*
G01*
X12073265Y-4697000D02*
G75*
G03*
X12153265Y-4697000I40000J0D01*
G01*
X12571000Y-2722000D02*
G75*
G03*
X12491000Y-2722000I-40000J0D01*
G01*
X12491000Y-2722000D02*
G75*
G03*
X12571000Y-2722000I40000J0D01*
G01*
X13936515Y-5231520D02*
G75*
G03*
X13856515Y-5231520I-40000J0D01*
G01*
X13856515Y-5231520D02*
G75*
G03*
X13936515Y-5231520I40000J0D01*
G01*
X13936515Y-5431520D02*
G75*
G03*
X13856515Y-5431520I-40000J0D01*
G01*
X13856515Y-5431520D02*
G75*
G03*
X13936515Y-5431520I40000J0D01*
G01*
X13936515Y-6064520D02*
G75*
G03*
X13856515Y-6064520I-40000J0D01*
G01*
X13856515Y-6064520D02*
G75*
G03*
X13936515Y-6064520I40000J0D01*
G01*
X13936515Y-6264520D02*
G75*
G03*
X13856515Y-6264520I-40000J0D01*
G01*
X13856515Y-6264520D02*
G75*
G03*
X13936515Y-6264520I40000J0D01*
G01*
X13936515Y-6889000D02*
G75*
G03*
X13856515Y-6889000I-40000J0D01*
G01*
X13856515Y-6889000D02*
G75*
G03*
X13936515Y-6889000I40000J0D01*
G01*
X13936515Y-7089000D02*
G75*
G03*
X13856515Y-7089000I-40000J0D01*
G01*
X13856515Y-7089000D02*
G75*
G03*
X13936515Y-7089000I40000J0D01*
G01*
X5983265Y-6279146D02*
X5983265Y-6379146D01*
X5933265Y-6329146D02*
X6033265Y-6329146D01*
X5983365Y-4958147D02*
X5983365Y-5058147D01*
X5933365Y-5008147D02*
X6033365Y-5008147D01*
X5983465Y-5212147D02*
X5983465Y-5312147D01*
X5933465Y-5262147D02*
X6033465Y-5262147D01*
X5983465Y-6025146D02*
X5983465Y-6125146D01*
X5933465Y-6075146D02*
X6033465Y-6075146D01*
X7828465Y-4958147D02*
X7828465Y-5058147D01*
X7778465Y-5008147D02*
X7878465Y-5008147D01*
X7828465Y-5211647D02*
X7828465Y-5311647D01*
X7778465Y-5261647D02*
X7878465Y-5261647D01*
X7828465Y-6025146D02*
X7828465Y-6125146D01*
X7778465Y-6075146D02*
X7878465Y-6075146D01*
X7828465Y-6279146D02*
X7828465Y-6379146D01*
X7778465Y-6329146D02*
X7878465Y-6329146D01*
X8235265Y-4960881D02*
X8235265Y-5060881D01*
X8185265Y-5010881D02*
X8285265Y-5010881D01*
X8235265Y-5214881D02*
X8235265Y-5314881D01*
X8185265Y-5264881D02*
X8285265Y-5264881D01*
X8235265Y-6028380D02*
X8235265Y-6128380D01*
X8185265Y-6078380D02*
X8285265Y-6078380D01*
X8235265Y-6281880D02*
X8235265Y-6381880D01*
X8185265Y-6331880D02*
X8285265Y-6331880D01*
X10080265Y-5214881D02*
X10080265Y-5314881D01*
X10030265Y-5264881D02*
X10130265Y-5264881D01*
X10080265Y-6027880D02*
X10080265Y-6127880D01*
X10030265Y-6077880D02*
X10130265Y-6077880D01*
X10080365Y-6281880D02*
X10080365Y-6381880D01*
X10030365Y-6331880D02*
X10130365Y-6331880D01*
X10080465Y-4960881D02*
X10080465Y-5060881D01*
X10030465Y-5010881D02*
X10130465Y-5010881D01*
X10865265Y-5663500D02*
X10865265Y-5763500D01*
X10815265Y-5713500D02*
X10915265Y-5713500D01*
X10865265Y-5917500D02*
X10865265Y-6017500D01*
X10815265Y-5967500D02*
X10915265Y-5967500D01*
X10865265Y-6171500D02*
X10865265Y-6271500D01*
X10815265Y-6221500D02*
X10915265Y-6221500D01*
X11446265Y-4960881D02*
X11446265Y-5060881D01*
X11396265Y-5010881D02*
X11496265Y-5010881D01*
X11446265Y-5214881D02*
X11446265Y-5314881D01*
X11396265Y-5264881D02*
X11496265Y-5264881D01*
X11446265Y-6028380D02*
X11446265Y-6128380D01*
X11396265Y-6078380D02*
X11496265Y-6078380D01*
X11446265Y-6281880D02*
X11446265Y-6381880D01*
X11396265Y-6331880D02*
X11496265Y-6331880D01*
X13032265Y-3935000D02*
X13032265Y-4035000D01*
X12982265Y-3985000D02*
X13082265Y-3985000D01*
X12982265Y-3935000D02*
X12982265Y-4035000D01*
X12982265Y-4035000D02*
G75*
G03*
X13082265Y-4035000I50000J0D01*
G01*
X13082265Y-4035000D02*
X13082265Y-3935000D01*
X13082265Y-3935000D02*
G75*
G03*
X12982265Y-3935000I-50000J0D01*
G01*
X13291265Y-5214881D02*
X13291265Y-5314881D01*
X13241265Y-5264881D02*
X13341265Y-5264881D01*
X13291265Y-6027880D02*
X13291265Y-6127880D01*
X13241265Y-6077880D02*
X13341265Y-6077880D01*
X13291365Y-6281880D02*
X13291365Y-6381880D01*
X13241365Y-6331880D02*
X13341365Y-6331880D01*
X13291465Y-4960881D02*
X13291465Y-5060881D01*
X13241465Y-5010881D02*
X13341465Y-5010881D01*
D13*
X2330665Y-3516835D02*
X2330665Y-3443196D01*
X2257026Y-3443196D01*
X2257026Y-3516835D01*
X2330665Y-3516835D01*
X2330665Y-3766835D02*
X2330665Y-3693196D01*
X2257026Y-3693196D01*
X2257026Y-3766835D01*
X2330665Y-3766835D01*
X2330665Y-4865819D02*
X2330665Y-4792181D01*
X2257026Y-4792181D01*
X2257026Y-4865819D01*
X2330665Y-4865819D01*
X2330665Y-5115819D02*
X2330665Y-5042181D01*
X2257026Y-5042181D01*
X2257026Y-5115819D01*
X2330665Y-5115819D01*
X13601511Y-1917619D02*
X13601511Y-1843981D01*
X13527873Y-1843981D01*
X13527873Y-1917619D01*
X13601511Y-1917619D01*
X13601511Y-2171619D02*
X13601511Y-2097981D01*
X13527873Y-2097981D01*
X13527873Y-2171619D01*
X13601511Y-2171619D01*
X13601511Y-2425619D02*
X13601511Y-2351981D01*
X13527873Y-2351981D01*
X13527873Y-2425619D01*
X13601511Y-2425619D01*
X13601511Y-2679819D02*
X13601511Y-2606181D01*
X13527873Y-2606181D01*
X13527873Y-2679819D01*
X13601511Y-2679819D01*
X13601511Y-2933619D02*
X13601511Y-2859981D01*
X13527873Y-2859981D01*
X13527873Y-2933619D01*
X13601511Y-2933619D01*
D14*
X2916760Y-2773000D02*
X2976760Y-2713000D01*
X2916760Y-2653000D01*
X2856760Y-2713000D01*
X2916760Y-2773000D01*
X2916760Y-4553000D02*
X2976760Y-4493000D01*
X2916760Y-4433000D01*
X2856760Y-4493000D01*
X2916760Y-4553000D01*
X6916751Y-4553000D02*
X6976751Y-4493000D01*
X6916751Y-4433000D01*
X6856751Y-4493000D01*
X6916751Y-4553000D01*
X6916760Y-2773000D02*
X6976760Y-2713000D01*
X6916760Y-2653000D01*
X6856760Y-2713000D01*
X6916760Y-2773000D01*
D15*
X7373265Y-2449000D02*
X7503265Y-2579000D01*
X7503265Y-2449000D02*
X7373265Y-2579000D01*
X7503265Y-2514000D02*
G75*
G03*
X7373265Y-2514000I-65000J0D01*
G01*
X7373265Y-2514000D02*
G75*
G03*
X7503265Y-2514000I65000J0D01*
G01*
X7373265Y-3920000D02*
X7503265Y-4050000D01*
X7503265Y-3920000D02*
X7373265Y-4050000D01*
X7503265Y-3985000D02*
G75*
G03*
X7373265Y-3985000I-65000J0D01*
G01*
X7373265Y-3985000D02*
G75*
G03*
X7503265Y-3985000I65000J0D01*
G01*
X8373265Y-2449000D02*
X8503265Y-2579000D01*
X8503265Y-2449000D02*
X8373265Y-2579000D01*
X8503265Y-2514000D02*
G75*
G03*
X8373265Y-2514000I-65000J0D01*
G01*
X8373265Y-2514000D02*
G75*
G03*
X8503265Y-2514000I65000J0D01*
G01*
X8373265Y-3920000D02*
X8503265Y-4050000D01*
X8503265Y-3920000D02*
X8373265Y-4050000D01*
X8503265Y-3985000D02*
G75*
G03*
X8373265Y-3985000I-65000J0D01*
G01*
X8373265Y-3985000D02*
G75*
G03*
X8503265Y-3985000I65000J0D01*
G01*
X10349000Y-2449000D02*
X10479000Y-2579000D01*
X10479000Y-2449000D02*
X10349000Y-2579000D01*
X10479000Y-2514000D02*
G75*
G03*
X10349000Y-2514000I-65000J0D01*
G01*
X10349000Y-2514000D02*
G75*
G03*
X10479000Y-2514000I65000J0D01*
G01*
X10349000Y-3920000D02*
X10479000Y-4050000D01*
X10479000Y-3920000D02*
X10349000Y-4050000D01*
X10479000Y-3985000D02*
G75*
G03*
X10349000Y-3985000I-65000J0D01*
G01*
X10349000Y-3985000D02*
G75*
G03*
X10479000Y-3985000I65000J0D01*
G01*
X11349000Y-2449000D02*
X11479000Y-2579000D01*
X11479000Y-2449000D02*
X11349000Y-2579000D01*
X11479000Y-2514000D02*
G75*
G03*
X11349000Y-2514000I-65000J0D01*
G01*
X11349000Y-2514000D02*
G75*
G03*
X11479000Y-2514000I65000J0D01*
G01*
X11349000Y-3920000D02*
X11479000Y-4050000D01*
X11479000Y-3920000D02*
X11349000Y-4050000D01*
X11479000Y-3985000D02*
G75*
G03*
X11349000Y-3985000I-65000J0D01*
G01*
X11349000Y-3985000D02*
G75*
G03*
X11479000Y-3985000I65000J0D01*
G01*
D16*
X2750265Y-6697000D02*
X2900265Y-6847000D01*
X2900265Y-6697000D02*
X2750265Y-6847000D01*
X2825265Y-6697000D02*
X2825265Y-6847000D01*
X2750265Y-6772000D02*
X2900265Y-6772000D01*
X2750265Y-8697000D02*
X2900265Y-8847000D01*
X2900265Y-8697000D02*
X2750265Y-8847000D01*
X2825265Y-8697000D02*
X2825265Y-8847000D01*
X2750265Y-8772000D02*
X2900265Y-8772000D01*
X2877265Y-4835000D02*
X3027265Y-4985000D01*
X3027265Y-4835000D02*
X2877265Y-4985000D01*
X2952265Y-4835000D02*
X2952265Y-4985000D01*
X2877265Y-4910000D02*
X3027265Y-4910000D01*
X2877265Y-5089000D02*
X3027265Y-5239000D01*
X3027265Y-5089000D02*
X2877265Y-5239000D01*
X2952265Y-5089000D02*
X2952265Y-5239000D01*
X2877265Y-5164000D02*
X3027265Y-5164000D01*
X2877265Y-5981000D02*
X3027265Y-6131000D01*
X3027265Y-5981000D02*
X2877265Y-6131000D01*
X2952265Y-5981000D02*
X2952265Y-6131000D01*
X2877265Y-6056000D02*
X3027265Y-6056000D01*
X2877265Y-6235000D02*
X3027265Y-6385000D01*
X3027265Y-6235000D02*
X2877265Y-6385000D01*
X2952265Y-6235000D02*
X2952265Y-6385000D01*
X2877265Y-6310000D02*
X3027265Y-6310000D01*
X5477265Y-4835000D02*
X5627265Y-4985000D01*
X5627265Y-4835000D02*
X5477265Y-4985000D01*
X5552265Y-4835000D02*
X5552265Y-4985000D01*
X5477265Y-4910000D02*
X5627265Y-4910000D01*
X5477265Y-5089000D02*
X5627265Y-5239000D01*
X5627265Y-5089000D02*
X5477265Y-5239000D01*
X5552265Y-5089000D02*
X5552265Y-5239000D01*
X5477265Y-5164000D02*
X5627265Y-5164000D01*
X5477265Y-5981000D02*
X5627265Y-6131000D01*
X5627265Y-5981000D02*
X5477265Y-6131000D01*
X5552265Y-5981000D02*
X5552265Y-6131000D01*
X5477265Y-6056000D02*
X5627265Y-6056000D01*
X5477265Y-6235000D02*
X5627265Y-6385000D01*
X5627265Y-6235000D02*
X5477265Y-6385000D01*
X5552265Y-6235000D02*
X5552265Y-6385000D01*
X5477265Y-6310000D02*
X5627265Y-6310000D01*
X7800259Y-8697000D02*
X7950259Y-8847000D01*
X7950259Y-8697000D02*
X7800259Y-8847000D01*
X7875259Y-8697000D02*
X7875259Y-8847000D01*
X7800259Y-8772000D02*
X7950259Y-8772000D01*
X7800265Y-6697000D02*
X7950265Y-6847000D01*
X7950265Y-6697000D02*
X7800265Y-6847000D01*
X7875265Y-6697000D02*
X7875265Y-6847000D01*
X7800265Y-6772000D02*
X7950265Y-6772000D01*
X8166265Y-8666980D02*
X8316265Y-8816980D01*
X8316265Y-8666980D02*
X8166265Y-8816980D01*
X8241265Y-8666980D02*
X8241265Y-8816980D01*
X8166265Y-8741980D02*
X8316265Y-8741980D01*
X8166272Y-6666980D02*
X8316272Y-6816980D01*
X8316272Y-6666980D02*
X8166272Y-6816980D01*
X8241272Y-6666980D02*
X8241272Y-6816980D01*
X8166272Y-6741980D02*
X8316272Y-6741980D01*
X13216265Y-6666980D02*
X13366265Y-6816980D01*
X13366265Y-6666980D02*
X13216265Y-6816980D01*
X13291265Y-6666980D02*
X13291265Y-6816980D01*
X13216265Y-6741980D02*
X13366265Y-6741980D01*
X13216265Y-8666980D02*
X13366265Y-8816980D01*
X13366265Y-8666980D02*
X13216265Y-8816980D01*
X13291265Y-8666980D02*
X13291265Y-8816980D01*
X13216265Y-8741980D02*
X13366265Y-8741980D01*
D17*
X2064115Y-1778950D02*
X2234115Y-1948950D01*
X2234115Y-1778950D02*
X2064115Y-1948950D01*
X2209220Y-1924055D02*
X2209220Y-1803845D01*
X2089010Y-1803845D01*
X2089010Y-1924055D01*
X2209220Y-1924055D01*
X2064115Y-2174950D02*
X2234115Y-2344950D01*
X2234115Y-2174950D02*
X2064115Y-2344950D01*
X2209220Y-2320055D02*
X2209220Y-2199845D01*
X2089010Y-2199845D01*
X2089010Y-2320055D01*
X2209220Y-2320055D01*
X2064115Y-7473990D02*
X2234115Y-7643990D01*
X2234115Y-7473990D02*
X2064115Y-7643990D01*
X2209220Y-7619094D02*
X2209220Y-7498885D01*
X2089010Y-7498885D01*
X2089010Y-7619094D01*
X2209220Y-7619094D01*
X2064115Y-7869990D02*
X2234115Y-8039990D01*
X2234115Y-7869990D02*
X2064115Y-8039990D01*
X2209220Y-8015094D02*
X2209220Y-7894885D01*
X2089010Y-7894885D01*
X2089010Y-8015094D01*
X2209220Y-8015094D01*
X8958000Y-3079250D02*
X9128000Y-3249250D01*
X9128000Y-3079250D02*
X8958000Y-3249250D01*
X9103105Y-3224355D02*
X9103105Y-3104145D01*
X8982895Y-3104145D01*
X8982895Y-3224355D01*
X9103105Y-3224355D01*
X9354000Y-3079250D02*
X9524000Y-3249250D01*
X9524000Y-3079250D02*
X9354000Y-3249250D01*
X9499105Y-3224355D02*
X9499105Y-3104145D01*
X9378895Y-3104145D01*
X9378895Y-3224355D01*
X9499105Y-3224355D01*
X9750000Y-3079250D02*
X9920000Y-3249250D01*
X9920000Y-3079250D02*
X9750000Y-3249250D01*
X9895105Y-3224355D02*
X9895105Y-3104145D01*
X9774895Y-3104145D01*
X9774895Y-3224355D01*
X9895105Y-3224355D01*
X13881515Y-7473990D02*
X14051515Y-7643990D01*
X14051515Y-7473990D02*
X13881515Y-7643990D01*
X14026620Y-7619094D02*
X14026620Y-7498885D01*
X13906410Y-7498885D01*
X13906410Y-7619094D01*
X14026620Y-7619094D01*
X13881515Y-7869990D02*
X14051515Y-8039990D01*
X14051515Y-7869990D02*
X13881515Y-8039990D01*
X14026620Y-8015094D02*
X14026620Y-7894885D01*
X13906410Y-7894885D01*
X13906410Y-8015094D01*
X14026620Y-8015094D01*
D18*
X11796000Y-1940100D02*
X11972000Y-2116100D01*
X11972000Y-1940100D02*
X11796000Y-2116100D01*
X11884000Y-2116100D02*
X11972000Y-2028100D01*
X11884000Y-1940100D01*
X11796000Y-2028100D01*
X11884000Y-2116100D01*
X12192000Y-1940100D02*
X12368000Y-2116100D01*
X12368000Y-1940100D02*
X12192000Y-2116100D01*
X12280000Y-2116100D02*
X12368000Y-2028100D01*
X12280000Y-1940100D01*
X12192000Y-2028100D01*
X12280000Y-2116100D01*
X12588000Y-1940100D02*
X12764000Y-2116100D01*
X12764000Y-1940100D02*
X12588000Y-2116100D01*
X12676000Y-2116100D02*
X12764000Y-2028100D01*
X12676000Y-1940100D01*
X12588000Y-2028100D01*
X12676000Y-2116100D01*
X12984000Y-1940100D02*
X13160000Y-2116100D01*
X13160000Y-1940100D02*
X12984000Y-2116100D01*
X13072000Y-2116100D02*
X13160000Y-2028100D01*
X13072000Y-1940100D01*
X12984000Y-2028100D01*
X13072000Y-2116100D01*
D19*
X12667265Y-3490000D02*
X12667265Y-3760000D01*
X12532265Y-3625000D02*
X12802265Y-3625000D01*
X12802265Y-3625000D02*
G75*
G03*
X12532265Y-3625000I-135000J0D01*
G01*
X12532265Y-3625000D02*
G75*
G03*
X12802265Y-3625000I135000J0D01*
G01*
X12667265Y-4210000D02*
X12667265Y-4480000D01*
X12532265Y-4345000D02*
X12802265Y-4345000D01*
X12802265Y-4345000D02*
G75*
G03*
X12532265Y-4345000I-135000J0D01*
G01*
X12532265Y-4345000D02*
G75*
G03*
X12802265Y-4345000I135000J0D01*
G01*
D11*
X2003542Y-9300984D02*
X2003542Y-9100984D01*
X2003542Y-9100984D02*
X2051161Y-9100984D01*
X2051161Y-9100984D02*
X2079732Y-9110508D01*
X2079732Y-9110508D02*
X2098780Y-9129555D01*
X2098780Y-9129555D02*
X2108304Y-9148603D01*
X2108304Y-9148603D02*
X2117828Y-9186698D01*
X2117828Y-9186698D02*
X2117828Y-9215270D01*
X2117828Y-9215270D02*
X2108304Y-9253365D01*
X2108304Y-9253365D02*
X2098780Y-9272412D01*
X2098780Y-9272412D02*
X2079732Y-9291460D01*
X2079732Y-9291460D02*
X2051161Y-9300984D01*
X2051161Y-9300984D02*
X2003542Y-9300984D01*
X2203542Y-9300984D02*
X2203542Y-9167650D01*
X2203542Y-9205746D02*
X2213066Y-9186698D01*
X2213066Y-9186698D02*
X2222590Y-9177174D01*
X2222590Y-9177174D02*
X2241637Y-9167650D01*
X2241637Y-9167650D02*
X2260685Y-9167650D01*
X2327352Y-9300984D02*
X2327352Y-9167650D01*
X2327352Y-9100984D02*
X2317828Y-9110508D01*
X2317828Y-9110508D02*
X2327352Y-9120031D01*
X2327352Y-9120031D02*
X2336875Y-9110508D01*
X2336875Y-9110508D02*
X2327352Y-9100984D01*
X2327352Y-9100984D02*
X2327352Y-9120031D01*
X2451161Y-9300984D02*
X2432113Y-9291460D01*
X2432113Y-9291460D02*
X2422590Y-9272412D01*
X2422590Y-9272412D02*
X2422590Y-9100984D01*
X2555923Y-9300984D02*
X2536875Y-9291460D01*
X2536875Y-9291460D02*
X2527352Y-9272412D01*
X2527352Y-9272412D02*
X2527352Y-9100984D01*
X2784494Y-9300984D02*
X2784494Y-9100984D01*
X2784494Y-9100984D02*
X2851161Y-9243841D01*
X2851161Y-9243841D02*
X2917828Y-9100984D01*
X2917828Y-9100984D02*
X2917828Y-9300984D01*
X3098780Y-9300984D02*
X3098780Y-9196222D01*
X3098780Y-9196222D02*
X3089256Y-9177174D01*
X3089256Y-9177174D02*
X3070209Y-9167650D01*
X3070209Y-9167650D02*
X3032113Y-9167650D01*
X3032113Y-9167650D02*
X3013066Y-9177174D01*
X3098780Y-9291460D02*
X3079732Y-9300984D01*
X3079732Y-9300984D02*
X3032113Y-9300984D01*
X3032113Y-9300984D02*
X3013066Y-9291460D01*
X3013066Y-9291460D02*
X3003542Y-9272412D01*
X3003542Y-9272412D02*
X3003542Y-9253365D01*
X3003542Y-9253365D02*
X3013066Y-9234317D01*
X3013066Y-9234317D02*
X3032113Y-9224793D01*
X3032113Y-9224793D02*
X3079732Y-9224793D01*
X3079732Y-9224793D02*
X3098780Y-9215270D01*
X3194018Y-9167650D02*
X3194018Y-9367650D01*
X3194018Y-9177174D02*
X3213066Y-9167650D01*
X3213066Y-9167650D02*
X3251161Y-9167650D01*
X3251161Y-9167650D02*
X3270209Y-9177174D01*
X3270209Y-9177174D02*
X3279732Y-9186698D01*
X3279732Y-9186698D02*
X3289256Y-9205746D01*
X3289256Y-9205746D02*
X3289256Y-9262889D01*
X3289256Y-9262889D02*
X3279732Y-9281936D01*
X3279732Y-9281936D02*
X3270209Y-9291460D01*
X3270209Y-9291460D02*
X3251161Y-9300984D01*
X3251161Y-9300984D02*
X3213066Y-9300984D01*
X3213066Y-9300984D02*
X3194018Y-9291460D01*
X3374971Y-9281936D02*
X3384494Y-9291460D01*
X3384494Y-9291460D02*
X3374971Y-9300984D01*
X3374971Y-9300984D02*
X3365447Y-9291460D01*
X3365447Y-9291460D02*
X3374971Y-9281936D01*
X3374971Y-9281936D02*
X3374971Y-9300984D01*
X3374971Y-9177174D02*
X3384494Y-9186698D01*
X3384494Y-9186698D02*
X3374971Y-9196222D01*
X3374971Y-9196222D02*
X3365447Y-9186698D01*
X3365447Y-9186698D02*
X3374971Y-9177174D01*
X3374971Y-9177174D02*
X3374971Y-9196222D01*
D12*
X1682765Y-9599500D02*
X1742765Y-9659500D01*
X1742765Y-9599500D02*
X1682765Y-9659500D01*
D11*
X2041637Y-9520984D02*
X2060685Y-9520984D01*
X2060685Y-9520984D02*
X2079732Y-9530508D01*
X2079732Y-9530508D02*
X2089256Y-9540031D01*
X2089256Y-9540031D02*
X2098780Y-9559079D01*
X2098780Y-9559079D02*
X2108304Y-9597174D01*
X2108304Y-9597174D02*
X2108304Y-9644793D01*
X2108304Y-9644793D02*
X2098780Y-9682889D01*
X2098780Y-9682889D02*
X2089256Y-9701936D01*
X2089256Y-9701936D02*
X2079732Y-9711460D01*
X2079732Y-9711460D02*
X2060685Y-9720984D01*
X2060685Y-9720984D02*
X2041637Y-9720984D01*
X2041637Y-9720984D02*
X2022590Y-9711460D01*
X2022590Y-9711460D02*
X2013066Y-9701936D01*
X2013066Y-9701936D02*
X2003542Y-9682889D01*
X2003542Y-9682889D02*
X1994018Y-9644793D01*
X1994018Y-9644793D02*
X1994018Y-9597174D01*
X1994018Y-9597174D02*
X2003542Y-9559079D01*
X2003542Y-9559079D02*
X2013066Y-9540031D01*
X2013066Y-9540031D02*
X2022590Y-9530508D01*
X2022590Y-9530508D02*
X2041637Y-9520984D01*
X2194018Y-9701936D02*
X2203542Y-9711460D01*
X2203542Y-9711460D02*
X2194018Y-9720984D01*
X2194018Y-9720984D02*
X2184494Y-9711460D01*
X2184494Y-9711460D02*
X2194018Y-9701936D01*
X2194018Y-9701936D02*
X2194018Y-9720984D01*
X2374971Y-9520984D02*
X2336875Y-9520984D01*
X2336875Y-9520984D02*
X2317828Y-9530508D01*
X2317828Y-9530508D02*
X2308304Y-9540031D01*
X2308304Y-9540031D02*
X2289256Y-9568603D01*
X2289256Y-9568603D02*
X2279733Y-9606698D01*
X2279733Y-9606698D02*
X2279733Y-9682889D01*
X2279733Y-9682889D02*
X2289256Y-9701936D01*
X2289256Y-9701936D02*
X2298780Y-9711460D01*
X2298780Y-9711460D02*
X2317828Y-9720984D01*
X2317828Y-9720984D02*
X2355923Y-9720984D01*
X2355923Y-9720984D02*
X2374971Y-9711460D01*
X2374971Y-9711460D02*
X2384494Y-9701936D01*
X2384494Y-9701936D02*
X2394018Y-9682889D01*
X2394018Y-9682889D02*
X2394018Y-9635270D01*
X2394018Y-9635270D02*
X2384494Y-9616222D01*
X2384494Y-9616222D02*
X2374971Y-9606698D01*
X2374971Y-9606698D02*
X2355923Y-9597174D01*
X2355923Y-9597174D02*
X2317828Y-9597174D01*
X2317828Y-9597174D02*
X2298780Y-9606698D01*
X2298780Y-9606698D02*
X2289256Y-9616222D01*
X2289256Y-9616222D02*
X2279733Y-9635270D01*
X2517828Y-9520984D02*
X2536875Y-9520984D01*
X2536875Y-9520984D02*
X2555923Y-9530508D01*
X2555923Y-9530508D02*
X2565447Y-9540031D01*
X2565447Y-9540031D02*
X2574971Y-9559079D01*
X2574971Y-9559079D02*
X2584494Y-9597174D01*
X2584494Y-9597174D02*
X2584494Y-9644793D01*
X2584494Y-9644793D02*
X2574971Y-9682889D01*
X2574971Y-9682889D02*
X2565447Y-9701936D01*
X2565447Y-9701936D02*
X2555923Y-9711460D01*
X2555923Y-9711460D02*
X2536875Y-9720984D01*
X2536875Y-9720984D02*
X2517828Y-9720984D01*
X2517828Y-9720984D02*
X2498780Y-9711460D01*
X2498780Y-9711460D02*
X2489256Y-9701936D01*
X2489256Y-9701936D02*
X2479733Y-9682889D01*
X2479733Y-9682889D02*
X2470209Y-9644793D01*
X2470209Y-9644793D02*
X2470209Y-9597174D01*
X2470209Y-9597174D02*
X2479733Y-9559079D01*
X2479733Y-9559079D02*
X2489256Y-9540031D01*
X2489256Y-9540031D02*
X2498780Y-9530508D01*
X2498780Y-9530508D02*
X2517828Y-9520984D01*
X2708304Y-9520984D02*
X2727352Y-9520984D01*
X2727352Y-9520984D02*
X2746399Y-9530508D01*
X2746399Y-9530508D02*
X2755923Y-9540031D01*
X2755923Y-9540031D02*
X2765447Y-9559079D01*
X2765447Y-9559079D02*
X2774971Y-9597174D01*
X2774971Y-9597174D02*
X2774971Y-9644793D01*
X2774971Y-9644793D02*
X2765447Y-9682889D01*
X2765447Y-9682889D02*
X2755923Y-9701936D01*
X2755923Y-9701936D02*
X2746399Y-9711460D01*
X2746399Y-9711460D02*
X2727352Y-9720984D01*
X2727352Y-9720984D02*
X2708304Y-9720984D01*
X2708304Y-9720984D02*
X2689256Y-9711460D01*
X2689256Y-9711460D02*
X2679733Y-9701936D01*
X2679733Y-9701936D02*
X2670209Y-9682889D01*
X2670209Y-9682889D02*
X2660685Y-9644793D01*
X2660685Y-9644793D02*
X2660685Y-9597174D01*
X2660685Y-9597174D02*
X2670209Y-9559079D01*
X2670209Y-9559079D02*
X2679733Y-9540031D01*
X2679733Y-9540031D02*
X2689256Y-9530508D01*
X2689256Y-9530508D02*
X2708304Y-9520984D01*
X2860685Y-9720984D02*
X2860685Y-9587650D01*
X2860685Y-9606698D02*
X2870209Y-9597174D01*
X2870209Y-9597174D02*
X2889256Y-9587650D01*
X2889256Y-9587650D02*
X2917828Y-9587650D01*
X2917828Y-9587650D02*
X2936875Y-9597174D01*
X2936875Y-9597174D02*
X2946399Y-9616222D01*
X2946399Y-9616222D02*
X2946399Y-9720984D01*
X2946399Y-9616222D02*
X2955923Y-9597174D01*
X2955923Y-9597174D02*
X2974971Y-9587650D01*
X2974971Y-9587650D02*
X3003542Y-9587650D01*
X3003542Y-9587650D02*
X3022590Y-9597174D01*
X3022590Y-9597174D02*
X3032113Y-9616222D01*
X3032113Y-9616222D02*
X3032113Y-9720984D01*
X3127352Y-9720984D02*
X3127352Y-9587650D01*
X3127352Y-9606698D02*
X3136875Y-9597174D01*
X3136875Y-9597174D02*
X3155923Y-9587650D01*
X3155923Y-9587650D02*
X3184494Y-9587650D01*
X3184494Y-9587650D02*
X3203542Y-9597174D01*
X3203542Y-9597174D02*
X3213066Y-9616222D01*
X3213066Y-9616222D02*
X3213066Y-9720984D01*
X3213066Y-9616222D02*
X3222590Y-9597174D01*
X3222590Y-9597174D02*
X3241637Y-9587650D01*
X3241637Y-9587650D02*
X3270209Y-9587650D01*
X3270209Y-9587650D02*
X3289256Y-9597174D01*
X3289256Y-9597174D02*
X3298780Y-9616222D01*
X3298780Y-9616222D02*
X3298780Y-9720984D01*
X3689256Y-9511460D02*
X3517828Y-9768603D01*
X3946399Y-9520984D02*
X3965447Y-9520984D01*
X3965447Y-9520984D02*
X3984495Y-9530508D01*
X3984495Y-9530508D02*
X3994018Y-9540031D01*
X3994018Y-9540031D02*
X4003542Y-9559079D01*
X4003542Y-9559079D02*
X4013066Y-9597174D01*
X4013066Y-9597174D02*
X4013066Y-9644793D01*
X4013066Y-9644793D02*
X4003542Y-9682889D01*
X4003542Y-9682889D02*
X3994018Y-9701936D01*
X3994018Y-9701936D02*
X3984495Y-9711460D01*
X3984495Y-9711460D02*
X3965447Y-9720984D01*
X3965447Y-9720984D02*
X3946399Y-9720984D01*
X3946399Y-9720984D02*
X3927352Y-9711460D01*
X3927352Y-9711460D02*
X3917828Y-9701936D01*
X3917828Y-9701936D02*
X3908304Y-9682889D01*
X3908304Y-9682889D02*
X3898780Y-9644793D01*
X3898780Y-9644793D02*
X3898780Y-9597174D01*
X3898780Y-9597174D02*
X3908304Y-9559079D01*
X3908304Y-9559079D02*
X3917828Y-9540031D01*
X3917828Y-9540031D02*
X3927352Y-9530508D01*
X3927352Y-9530508D02*
X3946399Y-9520984D01*
X4098780Y-9701936D02*
X4108304Y-9711460D01*
X4108304Y-9711460D02*
X4098780Y-9720984D01*
X4098780Y-9720984D02*
X4089256Y-9711460D01*
X4089256Y-9711460D02*
X4098780Y-9701936D01*
X4098780Y-9701936D02*
X4098780Y-9720984D01*
X4232114Y-9520984D02*
X4251161Y-9520984D01*
X4251161Y-9520984D02*
X4270209Y-9530508D01*
X4270209Y-9530508D02*
X4279733Y-9540031D01*
X4279733Y-9540031D02*
X4289257Y-9559079D01*
X4289257Y-9559079D02*
X4298780Y-9597174D01*
X4298780Y-9597174D02*
X4298780Y-9644793D01*
X4298780Y-9644793D02*
X4289257Y-9682889D01*
X4289257Y-9682889D02*
X4279733Y-9701936D01*
X4279733Y-9701936D02*
X4270209Y-9711460D01*
X4270209Y-9711460D02*
X4251161Y-9720984D01*
X4251161Y-9720984D02*
X4232114Y-9720984D01*
X4232114Y-9720984D02*
X4213066Y-9711460D01*
X4213066Y-9711460D02*
X4203542Y-9701936D01*
X4203542Y-9701936D02*
X4194018Y-9682889D01*
X4194018Y-9682889D02*
X4184495Y-9644793D01*
X4184495Y-9644793D02*
X4184495Y-9597174D01*
X4184495Y-9597174D02*
X4194018Y-9559079D01*
X4194018Y-9559079D02*
X4203542Y-9540031D01*
X4203542Y-9540031D02*
X4213066Y-9530508D01*
X4213066Y-9530508D02*
X4232114Y-9520984D01*
X4374971Y-9540031D02*
X4384495Y-9530508D01*
X4384495Y-9530508D02*
X4403542Y-9520984D01*
X4403542Y-9520984D02*
X4451161Y-9520984D01*
X4451161Y-9520984D02*
X4470209Y-9530508D01*
X4470209Y-9530508D02*
X4479733Y-9540031D01*
X4479733Y-9540031D02*
X4489257Y-9559079D01*
X4489257Y-9559079D02*
X4489257Y-9578127D01*
X4489257Y-9578127D02*
X4479733Y-9606698D01*
X4479733Y-9606698D02*
X4365447Y-9720984D01*
X4365447Y-9720984D02*
X4489257Y-9720984D01*
X4555923Y-9520984D02*
X4679733Y-9520984D01*
X4679733Y-9520984D02*
X4613066Y-9597174D01*
X4613066Y-9597174D02*
X4641638Y-9597174D01*
X4641638Y-9597174D02*
X4660685Y-9606698D01*
X4660685Y-9606698D02*
X4670209Y-9616222D01*
X4670209Y-9616222D02*
X4679733Y-9635270D01*
X4679733Y-9635270D02*
X4679733Y-9682889D01*
X4679733Y-9682889D02*
X4670209Y-9701936D01*
X4670209Y-9701936D02*
X4660685Y-9711460D01*
X4660685Y-9711460D02*
X4641638Y-9720984D01*
X4641638Y-9720984D02*
X4584495Y-9720984D01*
X4584495Y-9720984D02*
X4565447Y-9711460D01*
X4565447Y-9711460D02*
X4555923Y-9701936D01*
X4851161Y-9520984D02*
X4813066Y-9520984D01*
X4813066Y-9520984D02*
X4794018Y-9530508D01*
X4794018Y-9530508D02*
X4784495Y-9540031D01*
X4784495Y-9540031D02*
X4765447Y-9568603D01*
X4765447Y-9568603D02*
X4755923Y-9606698D01*
X4755923Y-9606698D02*
X4755923Y-9682889D01*
X4755923Y-9682889D02*
X4765447Y-9701936D01*
X4765447Y-9701936D02*
X4774971Y-9711460D01*
X4774971Y-9711460D02*
X4794018Y-9720984D01*
X4794018Y-9720984D02*
X4832114Y-9720984D01*
X4832114Y-9720984D02*
X4851161Y-9711460D01*
X4851161Y-9711460D02*
X4860685Y-9701936D01*
X4860685Y-9701936D02*
X4870209Y-9682889D01*
X4870209Y-9682889D02*
X4870209Y-9635270D01*
X4870209Y-9635270D02*
X4860685Y-9616222D01*
X4860685Y-9616222D02*
X4851161Y-9606698D01*
X4851161Y-9606698D02*
X4832114Y-9597174D01*
X4832114Y-9597174D02*
X4794018Y-9597174D01*
X4794018Y-9597174D02*
X4774971Y-9606698D01*
X4774971Y-9606698D02*
X4765447Y-9616222D01*
X4765447Y-9616222D02*
X4755923Y-9635270D01*
X4946399Y-9520984D02*
X4946399Y-9559079D01*
X5022590Y-9520984D02*
X5022590Y-9559079D01*
X5317828Y-9797174D02*
X5308304Y-9787650D01*
X5308304Y-9787650D02*
X5289257Y-9759079D01*
X5289257Y-9759079D02*
X5279733Y-9740031D01*
X5279733Y-9740031D02*
X5270209Y-9711460D01*
X5270209Y-9711460D02*
X5260685Y-9663841D01*
X5260685Y-9663841D02*
X5260685Y-9625746D01*
X5260685Y-9625746D02*
X5270209Y-9578127D01*
X5270209Y-9578127D02*
X5279733Y-9549555D01*
X5279733Y-9549555D02*
X5289257Y-9530508D01*
X5289257Y-9530508D02*
X5308304Y-9501936D01*
X5308304Y-9501936D02*
X5317828Y-9492412D01*
X5432114Y-9520984D02*
X5451161Y-9520984D01*
X5451161Y-9520984D02*
X5470209Y-9530508D01*
X5470209Y-9530508D02*
X5479733Y-9540031D01*
X5479733Y-9540031D02*
X5489257Y-9559079D01*
X5489257Y-9559079D02*
X5498780Y-9597174D01*
X5498780Y-9597174D02*
X5498780Y-9644793D01*
X5498780Y-9644793D02*
X5489257Y-9682889D01*
X5489257Y-9682889D02*
X5479733Y-9701936D01*
X5479733Y-9701936D02*
X5470209Y-9711460D01*
X5470209Y-9711460D02*
X5451161Y-9720984D01*
X5451161Y-9720984D02*
X5432114Y-9720984D01*
X5432114Y-9720984D02*
X5413066Y-9711460D01*
X5413066Y-9711460D02*
X5403542Y-9701936D01*
X5403542Y-9701936D02*
X5394019Y-9682889D01*
X5394019Y-9682889D02*
X5384495Y-9644793D01*
X5384495Y-9644793D02*
X5384495Y-9597174D01*
X5384495Y-9597174D02*
X5394019Y-9559079D01*
X5394019Y-9559079D02*
X5403542Y-9540031D01*
X5403542Y-9540031D02*
X5413066Y-9530508D01*
X5413066Y-9530508D02*
X5432114Y-9520984D01*
X5736876Y-9720984D02*
X5736876Y-9520984D01*
X5822590Y-9720984D02*
X5822590Y-9616222D01*
X5822590Y-9616222D02*
X5813066Y-9597174D01*
X5813066Y-9597174D02*
X5794019Y-9587650D01*
X5794019Y-9587650D02*
X5765447Y-9587650D01*
X5765447Y-9587650D02*
X5746399Y-9597174D01*
X5746399Y-9597174D02*
X5736876Y-9606698D01*
X5946399Y-9720984D02*
X5927352Y-9711460D01*
X5927352Y-9711460D02*
X5917828Y-9701936D01*
X5917828Y-9701936D02*
X5908304Y-9682889D01*
X5908304Y-9682889D02*
X5908304Y-9625746D01*
X5908304Y-9625746D02*
X5917828Y-9606698D01*
X5917828Y-9606698D02*
X5927352Y-9597174D01*
X5927352Y-9597174D02*
X5946399Y-9587650D01*
X5946399Y-9587650D02*
X5974971Y-9587650D01*
X5974971Y-9587650D02*
X5994019Y-9597174D01*
X5994019Y-9597174D02*
X6003542Y-9606698D01*
X6003542Y-9606698D02*
X6013066Y-9625746D01*
X6013066Y-9625746D02*
X6013066Y-9682889D01*
X6013066Y-9682889D02*
X6003542Y-9701936D01*
X6003542Y-9701936D02*
X5994019Y-9711460D01*
X5994019Y-9711460D02*
X5974971Y-9720984D01*
X5974971Y-9720984D02*
X5946399Y-9720984D01*
X6127352Y-9720984D02*
X6108304Y-9711460D01*
X6108304Y-9711460D02*
X6098780Y-9692412D01*
X6098780Y-9692412D02*
X6098780Y-9520984D01*
X6279733Y-9711460D02*
X6260685Y-9720984D01*
X6260685Y-9720984D02*
X6222590Y-9720984D01*
X6222590Y-9720984D02*
X6203542Y-9711460D01*
X6203542Y-9711460D02*
X6194019Y-9692412D01*
X6194019Y-9692412D02*
X6194019Y-9616222D01*
X6194019Y-9616222D02*
X6203542Y-9597174D01*
X6203542Y-9597174D02*
X6222590Y-9587650D01*
X6222590Y-9587650D02*
X6260685Y-9587650D01*
X6260685Y-9587650D02*
X6279733Y-9597174D01*
X6279733Y-9597174D02*
X6289257Y-9616222D01*
X6289257Y-9616222D02*
X6289257Y-9635270D01*
X6289257Y-9635270D02*
X6194019Y-9654317D01*
X6365447Y-9711460D02*
X6384495Y-9720984D01*
X6384495Y-9720984D02*
X6422590Y-9720984D01*
X6422590Y-9720984D02*
X6441638Y-9711460D01*
X6441638Y-9711460D02*
X6451161Y-9692412D01*
X6451161Y-9692412D02*
X6451161Y-9682889D01*
X6451161Y-9682889D02*
X6441638Y-9663841D01*
X6441638Y-9663841D02*
X6422590Y-9654317D01*
X6422590Y-9654317D02*
X6394019Y-9654317D01*
X6394019Y-9654317D02*
X6374971Y-9644793D01*
X6374971Y-9644793D02*
X6365447Y-9625746D01*
X6365447Y-9625746D02*
X6365447Y-9616222D01*
X6365447Y-9616222D02*
X6374971Y-9597174D01*
X6374971Y-9597174D02*
X6394019Y-9587650D01*
X6394019Y-9587650D02*
X6422590Y-9587650D01*
X6422590Y-9587650D02*
X6441638Y-9597174D01*
X6689257Y-9644793D02*
X6841638Y-9644793D01*
X6765447Y-9720984D02*
X6765447Y-9568603D01*
X7079733Y-9540031D02*
X7089257Y-9530508D01*
X7089257Y-9530508D02*
X7108304Y-9520984D01*
X7108304Y-9520984D02*
X7155923Y-9520984D01*
X7155923Y-9520984D02*
X7174971Y-9530508D01*
X7174971Y-9530508D02*
X7184495Y-9540031D01*
X7184495Y-9540031D02*
X7194019Y-9559079D01*
X7194019Y-9559079D02*
X7194019Y-9578127D01*
X7194019Y-9578127D02*
X7184495Y-9606698D01*
X7184495Y-9606698D02*
X7070209Y-9720984D01*
X7070209Y-9720984D02*
X7194019Y-9720984D01*
X7422590Y-9711460D02*
X7441638Y-9720984D01*
X7441638Y-9720984D02*
X7479733Y-9720984D01*
X7479733Y-9720984D02*
X7498781Y-9711460D01*
X7498781Y-9711460D02*
X7508304Y-9692412D01*
X7508304Y-9692412D02*
X7508304Y-9682889D01*
X7508304Y-9682889D02*
X7498781Y-9663841D01*
X7498781Y-9663841D02*
X7479733Y-9654317D01*
X7479733Y-9654317D02*
X7451162Y-9654317D01*
X7451162Y-9654317D02*
X7432114Y-9644793D01*
X7432114Y-9644793D02*
X7422590Y-9625746D01*
X7422590Y-9625746D02*
X7422590Y-9616222D01*
X7422590Y-9616222D02*
X7432114Y-9597174D01*
X7432114Y-9597174D02*
X7451162Y-9587650D01*
X7451162Y-9587650D02*
X7479733Y-9587650D01*
X7479733Y-9587650D02*
X7498781Y-9597174D01*
X7622590Y-9720984D02*
X7603543Y-9711460D01*
X7603543Y-9711460D02*
X7594019Y-9692412D01*
X7594019Y-9692412D02*
X7594019Y-9520984D01*
X7727352Y-9720984D02*
X7708304Y-9711460D01*
X7708304Y-9711460D02*
X7698781Y-9701936D01*
X7698781Y-9701936D02*
X7689257Y-9682889D01*
X7689257Y-9682889D02*
X7689257Y-9625746D01*
X7689257Y-9625746D02*
X7698781Y-9606698D01*
X7698781Y-9606698D02*
X7708304Y-9597174D01*
X7708304Y-9597174D02*
X7727352Y-9587650D01*
X7727352Y-9587650D02*
X7755924Y-9587650D01*
X7755924Y-9587650D02*
X7774971Y-9597174D01*
X7774971Y-9597174D02*
X7784495Y-9606698D01*
X7784495Y-9606698D02*
X7794019Y-9625746D01*
X7794019Y-9625746D02*
X7794019Y-9682889D01*
X7794019Y-9682889D02*
X7784495Y-9701936D01*
X7784495Y-9701936D02*
X7774971Y-9711460D01*
X7774971Y-9711460D02*
X7755924Y-9720984D01*
X7755924Y-9720984D02*
X7727352Y-9720984D01*
X7851162Y-9587650D02*
X7927352Y-9587650D01*
X7879733Y-9520984D02*
X7879733Y-9692412D01*
X7879733Y-9692412D02*
X7889257Y-9711460D01*
X7889257Y-9711460D02*
X7908304Y-9720984D01*
X7908304Y-9720984D02*
X7927352Y-9720984D01*
X7984495Y-9711460D02*
X8003543Y-9720984D01*
X8003543Y-9720984D02*
X8041638Y-9720984D01*
X8041638Y-9720984D02*
X8060685Y-9711460D01*
X8060685Y-9711460D02*
X8070209Y-9692412D01*
X8070209Y-9692412D02*
X8070209Y-9682889D01*
X8070209Y-9682889D02*
X8060685Y-9663841D01*
X8060685Y-9663841D02*
X8041638Y-9654317D01*
X8041638Y-9654317D02*
X8013066Y-9654317D01*
X8013066Y-9654317D02*
X7994019Y-9644793D01*
X7994019Y-9644793D02*
X7984495Y-9625746D01*
X7984495Y-9625746D02*
X7984495Y-9616222D01*
X7984495Y-9616222D02*
X7994019Y-9597174D01*
X7994019Y-9597174D02*
X8013066Y-9587650D01*
X8013066Y-9587650D02*
X8041638Y-9587650D01*
X8041638Y-9587650D02*
X8060685Y-9597174D01*
X8136876Y-9797174D02*
X8146400Y-9787650D01*
X8146400Y-9787650D02*
X8165447Y-9759079D01*
X8165447Y-9759079D02*
X8174971Y-9740031D01*
X8174971Y-9740031D02*
X8184495Y-9711460D01*
X8184495Y-9711460D02*
X8194019Y-9663841D01*
X8194019Y-9663841D02*
X8194019Y-9625746D01*
X8194019Y-9625746D02*
X8184495Y-9578127D01*
X8184495Y-9578127D02*
X8174971Y-9549555D01*
X8174971Y-9549555D02*
X8165447Y-9530508D01*
X8165447Y-9530508D02*
X8146400Y-9501936D01*
X8146400Y-9501936D02*
X8136876Y-9492412D01*
D12*
X1742765Y-9893500D02*
G75*
G03*
X1662765Y-9893500I-40000J0D01*
G01*
X1662765Y-9893500D02*
G75*
G03*
X1742765Y-9893500I40000J0D01*
G01*
D11*
X2041637Y-9784984D02*
X2060685Y-9784984D01*
X2060685Y-9784984D02*
X2079732Y-9794508D01*
X2079732Y-9794508D02*
X2089256Y-9804031D01*
X2089256Y-9804031D02*
X2098780Y-9823079D01*
X2098780Y-9823079D02*
X2108304Y-9861174D01*
X2108304Y-9861174D02*
X2108304Y-9908793D01*
X2108304Y-9908793D02*
X2098780Y-9946889D01*
X2098780Y-9946889D02*
X2089256Y-9965936D01*
X2089256Y-9965936D02*
X2079732Y-9975460D01*
X2079732Y-9975460D02*
X2060685Y-9984984D01*
X2060685Y-9984984D02*
X2041637Y-9984984D01*
X2041637Y-9984984D02*
X2022590Y-9975460D01*
X2022590Y-9975460D02*
X2013066Y-9965936D01*
X2013066Y-9965936D02*
X2003542Y-9946889D01*
X2003542Y-9946889D02*
X1994018Y-9908793D01*
X1994018Y-9908793D02*
X1994018Y-9861174D01*
X1994018Y-9861174D02*
X2003542Y-9823079D01*
X2003542Y-9823079D02*
X2013066Y-9804031D01*
X2013066Y-9804031D02*
X2022590Y-9794508D01*
X2022590Y-9794508D02*
X2041637Y-9784984D01*
X2194018Y-9965936D02*
X2203542Y-9975460D01*
X2203542Y-9975460D02*
X2194018Y-9984984D01*
X2194018Y-9984984D02*
X2184494Y-9975460D01*
X2184494Y-9975460D02*
X2194018Y-9965936D01*
X2194018Y-9965936D02*
X2194018Y-9984984D01*
X2317828Y-9870698D02*
X2298780Y-9861174D01*
X2298780Y-9861174D02*
X2289256Y-9851650D01*
X2289256Y-9851650D02*
X2279733Y-9832603D01*
X2279733Y-9832603D02*
X2279733Y-9823079D01*
X2279733Y-9823079D02*
X2289256Y-9804031D01*
X2289256Y-9804031D02*
X2298780Y-9794508D01*
X2298780Y-9794508D02*
X2317828Y-9784984D01*
X2317828Y-9784984D02*
X2355923Y-9784984D01*
X2355923Y-9784984D02*
X2374971Y-9794508D01*
X2374971Y-9794508D02*
X2384494Y-9804031D01*
X2384494Y-9804031D02*
X2394018Y-9823079D01*
X2394018Y-9823079D02*
X2394018Y-9832603D01*
X2394018Y-9832603D02*
X2384494Y-9851650D01*
X2384494Y-9851650D02*
X2374971Y-9861174D01*
X2374971Y-9861174D02*
X2355923Y-9870698D01*
X2355923Y-9870698D02*
X2317828Y-9870698D01*
X2317828Y-9870698D02*
X2298780Y-9880222D01*
X2298780Y-9880222D02*
X2289256Y-9889746D01*
X2289256Y-9889746D02*
X2279733Y-9908793D01*
X2279733Y-9908793D02*
X2279733Y-9946889D01*
X2279733Y-9946889D02*
X2289256Y-9965936D01*
X2289256Y-9965936D02*
X2298780Y-9975460D01*
X2298780Y-9975460D02*
X2317828Y-9984984D01*
X2317828Y-9984984D02*
X2355923Y-9984984D01*
X2355923Y-9984984D02*
X2374971Y-9975460D01*
X2374971Y-9975460D02*
X2384494Y-9965936D01*
X2384494Y-9965936D02*
X2394018Y-9946889D01*
X2394018Y-9946889D02*
X2394018Y-9908793D01*
X2394018Y-9908793D02*
X2384494Y-9889746D01*
X2384494Y-9889746D02*
X2374971Y-9880222D01*
X2374971Y-9880222D02*
X2355923Y-9870698D01*
X2517828Y-9784984D02*
X2536875Y-9784984D01*
X2536875Y-9784984D02*
X2555923Y-9794508D01*
X2555923Y-9794508D02*
X2565447Y-9804031D01*
X2565447Y-9804031D02*
X2574971Y-9823079D01*
X2574971Y-9823079D02*
X2584494Y-9861174D01*
X2584494Y-9861174D02*
X2584494Y-9908793D01*
X2584494Y-9908793D02*
X2574971Y-9946889D01*
X2574971Y-9946889D02*
X2565447Y-9965936D01*
X2565447Y-9965936D02*
X2555923Y-9975460D01*
X2555923Y-9975460D02*
X2536875Y-9984984D01*
X2536875Y-9984984D02*
X2517828Y-9984984D01*
X2517828Y-9984984D02*
X2498780Y-9975460D01*
X2498780Y-9975460D02*
X2489256Y-9965936D01*
X2489256Y-9965936D02*
X2479733Y-9946889D01*
X2479733Y-9946889D02*
X2470209Y-9908793D01*
X2470209Y-9908793D02*
X2470209Y-9861174D01*
X2470209Y-9861174D02*
X2479733Y-9823079D01*
X2479733Y-9823079D02*
X2489256Y-9804031D01*
X2489256Y-9804031D02*
X2498780Y-9794508D01*
X2498780Y-9794508D02*
X2517828Y-9784984D01*
X2708304Y-9784984D02*
X2727352Y-9784984D01*
X2727352Y-9784984D02*
X2746399Y-9794508D01*
X2746399Y-9794508D02*
X2755923Y-9804031D01*
X2755923Y-9804031D02*
X2765447Y-9823079D01*
X2765447Y-9823079D02*
X2774971Y-9861174D01*
X2774971Y-9861174D02*
X2774971Y-9908793D01*
X2774971Y-9908793D02*
X2765447Y-9946889D01*
X2765447Y-9946889D02*
X2755923Y-9965936D01*
X2755923Y-9965936D02*
X2746399Y-9975460D01*
X2746399Y-9975460D02*
X2727352Y-9984984D01*
X2727352Y-9984984D02*
X2708304Y-9984984D01*
X2708304Y-9984984D02*
X2689256Y-9975460D01*
X2689256Y-9975460D02*
X2679733Y-9965936D01*
X2679733Y-9965936D02*
X2670209Y-9946889D01*
X2670209Y-9946889D02*
X2660685Y-9908793D01*
X2660685Y-9908793D02*
X2660685Y-9861174D01*
X2660685Y-9861174D02*
X2670209Y-9823079D01*
X2670209Y-9823079D02*
X2679733Y-9804031D01*
X2679733Y-9804031D02*
X2689256Y-9794508D01*
X2689256Y-9794508D02*
X2708304Y-9784984D01*
X2860685Y-9984984D02*
X2860685Y-9851650D01*
X2860685Y-9870698D02*
X2870209Y-9861174D01*
X2870209Y-9861174D02*
X2889256Y-9851650D01*
X2889256Y-9851650D02*
X2917828Y-9851650D01*
X2917828Y-9851650D02*
X2936875Y-9861174D01*
X2936875Y-9861174D02*
X2946399Y-9880222D01*
X2946399Y-9880222D02*
X2946399Y-9984984D01*
X2946399Y-9880222D02*
X2955923Y-9861174D01*
X2955923Y-9861174D02*
X2974971Y-9851650D01*
X2974971Y-9851650D02*
X3003542Y-9851650D01*
X3003542Y-9851650D02*
X3022590Y-9861174D01*
X3022590Y-9861174D02*
X3032113Y-9880222D01*
X3032113Y-9880222D02*
X3032113Y-9984984D01*
X3127352Y-9984984D02*
X3127352Y-9851650D01*
X3127352Y-9870698D02*
X3136875Y-9861174D01*
X3136875Y-9861174D02*
X3155923Y-9851650D01*
X3155923Y-9851650D02*
X3184494Y-9851650D01*
X3184494Y-9851650D02*
X3203542Y-9861174D01*
X3203542Y-9861174D02*
X3213066Y-9880222D01*
X3213066Y-9880222D02*
X3213066Y-9984984D01*
X3213066Y-9880222D02*
X3222590Y-9861174D01*
X3222590Y-9861174D02*
X3241637Y-9851650D01*
X3241637Y-9851650D02*
X3270209Y-9851650D01*
X3270209Y-9851650D02*
X3289256Y-9861174D01*
X3289256Y-9861174D02*
X3298780Y-9880222D01*
X3298780Y-9880222D02*
X3298780Y-9984984D01*
X3689256Y-9775460D02*
X3517828Y-10032603D01*
X3946399Y-9784984D02*
X3965447Y-9784984D01*
X3965447Y-9784984D02*
X3984495Y-9794508D01*
X3984495Y-9794508D02*
X3994018Y-9804031D01*
X3994018Y-9804031D02*
X4003542Y-9823079D01*
X4003542Y-9823079D02*
X4013066Y-9861174D01*
X4013066Y-9861174D02*
X4013066Y-9908793D01*
X4013066Y-9908793D02*
X4003542Y-9946889D01*
X4003542Y-9946889D02*
X3994018Y-9965936D01*
X3994018Y-9965936D02*
X3984495Y-9975460D01*
X3984495Y-9975460D02*
X3965447Y-9984984D01*
X3965447Y-9984984D02*
X3946399Y-9984984D01*
X3946399Y-9984984D02*
X3927352Y-9975460D01*
X3927352Y-9975460D02*
X3917828Y-9965936D01*
X3917828Y-9965936D02*
X3908304Y-9946889D01*
X3908304Y-9946889D02*
X3898780Y-9908793D01*
X3898780Y-9908793D02*
X3898780Y-9861174D01*
X3898780Y-9861174D02*
X3908304Y-9823079D01*
X3908304Y-9823079D02*
X3917828Y-9804031D01*
X3917828Y-9804031D02*
X3927352Y-9794508D01*
X3927352Y-9794508D02*
X3946399Y-9784984D01*
X4098780Y-9965936D02*
X4108304Y-9975460D01*
X4108304Y-9975460D02*
X4098780Y-9984984D01*
X4098780Y-9984984D02*
X4089256Y-9975460D01*
X4089256Y-9975460D02*
X4098780Y-9965936D01*
X4098780Y-9965936D02*
X4098780Y-9984984D01*
X4232114Y-9784984D02*
X4251161Y-9784984D01*
X4251161Y-9784984D02*
X4270209Y-9794508D01*
X4270209Y-9794508D02*
X4279733Y-9804031D01*
X4279733Y-9804031D02*
X4289257Y-9823079D01*
X4289257Y-9823079D02*
X4298780Y-9861174D01*
X4298780Y-9861174D02*
X4298780Y-9908793D01*
X4298780Y-9908793D02*
X4289257Y-9946889D01*
X4289257Y-9946889D02*
X4279733Y-9965936D01*
X4279733Y-9965936D02*
X4270209Y-9975460D01*
X4270209Y-9975460D02*
X4251161Y-9984984D01*
X4251161Y-9984984D02*
X4232114Y-9984984D01*
X4232114Y-9984984D02*
X4213066Y-9975460D01*
X4213066Y-9975460D02*
X4203542Y-9965936D01*
X4203542Y-9965936D02*
X4194018Y-9946889D01*
X4194018Y-9946889D02*
X4184495Y-9908793D01*
X4184495Y-9908793D02*
X4184495Y-9861174D01*
X4184495Y-9861174D02*
X4194018Y-9823079D01*
X4194018Y-9823079D02*
X4203542Y-9804031D01*
X4203542Y-9804031D02*
X4213066Y-9794508D01*
X4213066Y-9794508D02*
X4232114Y-9784984D01*
X4365447Y-9784984D02*
X4489257Y-9784984D01*
X4489257Y-9784984D02*
X4422590Y-9861174D01*
X4422590Y-9861174D02*
X4451161Y-9861174D01*
X4451161Y-9861174D02*
X4470209Y-9870698D01*
X4470209Y-9870698D02*
X4479733Y-9880222D01*
X4479733Y-9880222D02*
X4489257Y-9899270D01*
X4489257Y-9899270D02*
X4489257Y-9946889D01*
X4489257Y-9946889D02*
X4479733Y-9965936D01*
X4479733Y-9965936D02*
X4470209Y-9975460D01*
X4470209Y-9975460D02*
X4451161Y-9984984D01*
X4451161Y-9984984D02*
X4394018Y-9984984D01*
X4394018Y-9984984D02*
X4374971Y-9975460D01*
X4374971Y-9975460D02*
X4365447Y-9965936D01*
X4679733Y-9984984D02*
X4565447Y-9984984D01*
X4622590Y-9984984D02*
X4622590Y-9784984D01*
X4622590Y-9784984D02*
X4603542Y-9813555D01*
X4603542Y-9813555D02*
X4584495Y-9832603D01*
X4584495Y-9832603D02*
X4565447Y-9842127D01*
X4860685Y-9784984D02*
X4765447Y-9784984D01*
X4765447Y-9784984D02*
X4755923Y-9880222D01*
X4755923Y-9880222D02*
X4765447Y-9870698D01*
X4765447Y-9870698D02*
X4784495Y-9861174D01*
X4784495Y-9861174D02*
X4832114Y-9861174D01*
X4832114Y-9861174D02*
X4851161Y-9870698D01*
X4851161Y-9870698D02*
X4860685Y-9880222D01*
X4860685Y-9880222D02*
X4870209Y-9899270D01*
X4870209Y-9899270D02*
X4870209Y-9946889D01*
X4870209Y-9946889D02*
X4860685Y-9965936D01*
X4860685Y-9965936D02*
X4851161Y-9975460D01*
X4851161Y-9975460D02*
X4832114Y-9984984D01*
X4832114Y-9984984D02*
X4784495Y-9984984D01*
X4784495Y-9984984D02*
X4765447Y-9975460D01*
X4765447Y-9975460D02*
X4755923Y-9965936D01*
X4946399Y-9784984D02*
X4946399Y-9823079D01*
X5022590Y-9784984D02*
X5022590Y-9823079D01*
X5317828Y-10061174D02*
X5308304Y-10051650D01*
X5308304Y-10051650D02*
X5289257Y-10023079D01*
X5289257Y-10023079D02*
X5279733Y-10004031D01*
X5279733Y-10004031D02*
X5270209Y-9975460D01*
X5270209Y-9975460D02*
X5260685Y-9927841D01*
X5260685Y-9927841D02*
X5260685Y-9889746D01*
X5260685Y-9889746D02*
X5270209Y-9842127D01*
X5270209Y-9842127D02*
X5279733Y-9813555D01*
X5279733Y-9813555D02*
X5289257Y-9794508D01*
X5289257Y-9794508D02*
X5308304Y-9765936D01*
X5308304Y-9765936D02*
X5317828Y-9756412D01*
X5384495Y-9804031D02*
X5394019Y-9794508D01*
X5394019Y-9794508D02*
X5413066Y-9784984D01*
X5413066Y-9784984D02*
X5460685Y-9784984D01*
X5460685Y-9784984D02*
X5479733Y-9794508D01*
X5479733Y-9794508D02*
X5489257Y-9804031D01*
X5489257Y-9804031D02*
X5498780Y-9823079D01*
X5498780Y-9823079D02*
X5498780Y-9842127D01*
X5498780Y-9842127D02*
X5489257Y-9870698D01*
X5489257Y-9870698D02*
X5374971Y-9984984D01*
X5374971Y-9984984D02*
X5498780Y-9984984D01*
X5679733Y-9784984D02*
X5584495Y-9784984D01*
X5584495Y-9784984D02*
X5574971Y-9880222D01*
X5574971Y-9880222D02*
X5584495Y-9870698D01*
X5584495Y-9870698D02*
X5603542Y-9861174D01*
X5603542Y-9861174D02*
X5651161Y-9861174D01*
X5651161Y-9861174D02*
X5670209Y-9870698D01*
X5670209Y-9870698D02*
X5679733Y-9880222D01*
X5679733Y-9880222D02*
X5689257Y-9899270D01*
X5689257Y-9899270D02*
X5689257Y-9946889D01*
X5689257Y-9946889D02*
X5679733Y-9965936D01*
X5679733Y-9965936D02*
X5670209Y-9975460D01*
X5670209Y-9975460D02*
X5651161Y-9984984D01*
X5651161Y-9984984D02*
X5603542Y-9984984D01*
X5603542Y-9984984D02*
X5584495Y-9975460D01*
X5584495Y-9975460D02*
X5574971Y-9965936D01*
X5927352Y-9984984D02*
X5927352Y-9784984D01*
X6013066Y-9984984D02*
X6013066Y-9880222D01*
X6013066Y-9880222D02*
X6003542Y-9861174D01*
X6003542Y-9861174D02*
X5984495Y-9851650D01*
X5984495Y-9851650D02*
X5955923Y-9851650D01*
X5955923Y-9851650D02*
X5936876Y-9861174D01*
X5936876Y-9861174D02*
X5927352Y-9870698D01*
X6136876Y-9984984D02*
X6117828Y-9975460D01*
X6117828Y-9975460D02*
X6108304Y-9965936D01*
X6108304Y-9965936D02*
X6098780Y-9946889D01*
X6098780Y-9946889D02*
X6098780Y-9889746D01*
X6098780Y-9889746D02*
X6108304Y-9870698D01*
X6108304Y-9870698D02*
X6117828Y-9861174D01*
X6117828Y-9861174D02*
X6136876Y-9851650D01*
X6136876Y-9851650D02*
X6165447Y-9851650D01*
X6165447Y-9851650D02*
X6184495Y-9861174D01*
X6184495Y-9861174D02*
X6194019Y-9870698D01*
X6194019Y-9870698D02*
X6203542Y-9889746D01*
X6203542Y-9889746D02*
X6203542Y-9946889D01*
X6203542Y-9946889D02*
X6194019Y-9965936D01*
X6194019Y-9965936D02*
X6184495Y-9975460D01*
X6184495Y-9975460D02*
X6165447Y-9984984D01*
X6165447Y-9984984D02*
X6136876Y-9984984D01*
X6317828Y-9984984D02*
X6298780Y-9975460D01*
X6298780Y-9975460D02*
X6289257Y-9956412D01*
X6289257Y-9956412D02*
X6289257Y-9784984D01*
X6470209Y-9975460D02*
X6451161Y-9984984D01*
X6451161Y-9984984D02*
X6413066Y-9984984D01*
X6413066Y-9984984D02*
X6394019Y-9975460D01*
X6394019Y-9975460D02*
X6384495Y-9956412D01*
X6384495Y-9956412D02*
X6384495Y-9880222D01*
X6384495Y-9880222D02*
X6394019Y-9861174D01*
X6394019Y-9861174D02*
X6413066Y-9851650D01*
X6413066Y-9851650D02*
X6451161Y-9851650D01*
X6451161Y-9851650D02*
X6470209Y-9861174D01*
X6470209Y-9861174D02*
X6479733Y-9880222D01*
X6479733Y-9880222D02*
X6479733Y-9899270D01*
X6479733Y-9899270D02*
X6384495Y-9918317D01*
X6555923Y-9975460D02*
X6574971Y-9984984D01*
X6574971Y-9984984D02*
X6613066Y-9984984D01*
X6613066Y-9984984D02*
X6632114Y-9975460D01*
X6632114Y-9975460D02*
X6641638Y-9956412D01*
X6641638Y-9956412D02*
X6641638Y-9946889D01*
X6641638Y-9946889D02*
X6632114Y-9927841D01*
X6632114Y-9927841D02*
X6613066Y-9918317D01*
X6613066Y-9918317D02*
X6584495Y-9918317D01*
X6584495Y-9918317D02*
X6565447Y-9908793D01*
X6565447Y-9908793D02*
X6555923Y-9889746D01*
X6555923Y-9889746D02*
X6555923Y-9880222D01*
X6555923Y-9880222D02*
X6565447Y-9861174D01*
X6565447Y-9861174D02*
X6584495Y-9851650D01*
X6584495Y-9851650D02*
X6613066Y-9851650D01*
X6613066Y-9851650D02*
X6632114Y-9861174D01*
X6708304Y-10061174D02*
X6717828Y-10051650D01*
X6717828Y-10051650D02*
X6736876Y-10023079D01*
X6736876Y-10023079D02*
X6746400Y-10004031D01*
X6746400Y-10004031D02*
X6755923Y-9975460D01*
X6755923Y-9975460D02*
X6765447Y-9927841D01*
X6765447Y-9927841D02*
X6765447Y-9889746D01*
X6765447Y-9889746D02*
X6755923Y-9842127D01*
X6755923Y-9842127D02*
X6746400Y-9813555D01*
X6746400Y-9813555D02*
X6736876Y-9794508D01*
X6736876Y-9794508D02*
X6717828Y-9765936D01*
X6717828Y-9765936D02*
X6708304Y-9756412D01*
D12*
X1692765Y-10107500D02*
X1692765Y-10207500D01*
X1642765Y-10157500D02*
X1742765Y-10157500D01*
D11*
X2108304Y-10248984D02*
X1994018Y-10248984D01*
X2051161Y-10248984D02*
X2051161Y-10048984D01*
X2051161Y-10048984D02*
X2032113Y-10077555D01*
X2032113Y-10077555D02*
X2013066Y-10096603D01*
X2013066Y-10096603D02*
X1994018Y-10106127D01*
X2194018Y-10229936D02*
X2203542Y-10239460D01*
X2203542Y-10239460D02*
X2194018Y-10248984D01*
X2194018Y-10248984D02*
X2184494Y-10239460D01*
X2184494Y-10239460D02*
X2194018Y-10229936D01*
X2194018Y-10229936D02*
X2194018Y-10248984D01*
X2327352Y-10048984D02*
X2346399Y-10048984D01*
X2346399Y-10048984D02*
X2365447Y-10058508D01*
X2365447Y-10058508D02*
X2374971Y-10068031D01*
X2374971Y-10068031D02*
X2384494Y-10087079D01*
X2384494Y-10087079D02*
X2394018Y-10125174D01*
X2394018Y-10125174D02*
X2394018Y-10172793D01*
X2394018Y-10172793D02*
X2384494Y-10210889D01*
X2384494Y-10210889D02*
X2374971Y-10229936D01*
X2374971Y-10229936D02*
X2365447Y-10239460D01*
X2365447Y-10239460D02*
X2346399Y-10248984D01*
X2346399Y-10248984D02*
X2327352Y-10248984D01*
X2327352Y-10248984D02*
X2308304Y-10239460D01*
X2308304Y-10239460D02*
X2298780Y-10229936D01*
X2298780Y-10229936D02*
X2289256Y-10210889D01*
X2289256Y-10210889D02*
X2279733Y-10172793D01*
X2279733Y-10172793D02*
X2279733Y-10125174D01*
X2279733Y-10125174D02*
X2289256Y-10087079D01*
X2289256Y-10087079D02*
X2298780Y-10068031D01*
X2298780Y-10068031D02*
X2308304Y-10058508D01*
X2308304Y-10058508D02*
X2327352Y-10048984D01*
X2517828Y-10048984D02*
X2536875Y-10048984D01*
X2536875Y-10048984D02*
X2555923Y-10058508D01*
X2555923Y-10058508D02*
X2565447Y-10068031D01*
X2565447Y-10068031D02*
X2574971Y-10087079D01*
X2574971Y-10087079D02*
X2584494Y-10125174D01*
X2584494Y-10125174D02*
X2584494Y-10172793D01*
X2584494Y-10172793D02*
X2574971Y-10210889D01*
X2574971Y-10210889D02*
X2565447Y-10229936D01*
X2565447Y-10229936D02*
X2555923Y-10239460D01*
X2555923Y-10239460D02*
X2536875Y-10248984D01*
X2536875Y-10248984D02*
X2517828Y-10248984D01*
X2517828Y-10248984D02*
X2498780Y-10239460D01*
X2498780Y-10239460D02*
X2489256Y-10229936D01*
X2489256Y-10229936D02*
X2479733Y-10210889D01*
X2479733Y-10210889D02*
X2470209Y-10172793D01*
X2470209Y-10172793D02*
X2470209Y-10125174D01*
X2470209Y-10125174D02*
X2479733Y-10087079D01*
X2479733Y-10087079D02*
X2489256Y-10068031D01*
X2489256Y-10068031D02*
X2498780Y-10058508D01*
X2498780Y-10058508D02*
X2517828Y-10048984D01*
X2708304Y-10048984D02*
X2727352Y-10048984D01*
X2727352Y-10048984D02*
X2746399Y-10058508D01*
X2746399Y-10058508D02*
X2755923Y-10068031D01*
X2755923Y-10068031D02*
X2765447Y-10087079D01*
X2765447Y-10087079D02*
X2774971Y-10125174D01*
X2774971Y-10125174D02*
X2774971Y-10172793D01*
X2774971Y-10172793D02*
X2765447Y-10210889D01*
X2765447Y-10210889D02*
X2755923Y-10229936D01*
X2755923Y-10229936D02*
X2746399Y-10239460D01*
X2746399Y-10239460D02*
X2727352Y-10248984D01*
X2727352Y-10248984D02*
X2708304Y-10248984D01*
X2708304Y-10248984D02*
X2689256Y-10239460D01*
X2689256Y-10239460D02*
X2679733Y-10229936D01*
X2679733Y-10229936D02*
X2670209Y-10210889D01*
X2670209Y-10210889D02*
X2660685Y-10172793D01*
X2660685Y-10172793D02*
X2660685Y-10125174D01*
X2660685Y-10125174D02*
X2670209Y-10087079D01*
X2670209Y-10087079D02*
X2679733Y-10068031D01*
X2679733Y-10068031D02*
X2689256Y-10058508D01*
X2689256Y-10058508D02*
X2708304Y-10048984D01*
X2860685Y-10248984D02*
X2860685Y-10115650D01*
X2860685Y-10134698D02*
X2870209Y-10125174D01*
X2870209Y-10125174D02*
X2889256Y-10115650D01*
X2889256Y-10115650D02*
X2917828Y-10115650D01*
X2917828Y-10115650D02*
X2936875Y-10125174D01*
X2936875Y-10125174D02*
X2946399Y-10144222D01*
X2946399Y-10144222D02*
X2946399Y-10248984D01*
X2946399Y-10144222D02*
X2955923Y-10125174D01*
X2955923Y-10125174D02*
X2974971Y-10115650D01*
X2974971Y-10115650D02*
X3003542Y-10115650D01*
X3003542Y-10115650D02*
X3022590Y-10125174D01*
X3022590Y-10125174D02*
X3032113Y-10144222D01*
X3032113Y-10144222D02*
X3032113Y-10248984D01*
X3127352Y-10248984D02*
X3127352Y-10115650D01*
X3127352Y-10134698D02*
X3136875Y-10125174D01*
X3136875Y-10125174D02*
X3155923Y-10115650D01*
X3155923Y-10115650D02*
X3184494Y-10115650D01*
X3184494Y-10115650D02*
X3203542Y-10125174D01*
X3203542Y-10125174D02*
X3213066Y-10144222D01*
X3213066Y-10144222D02*
X3213066Y-10248984D01*
X3213066Y-10144222D02*
X3222590Y-10125174D01*
X3222590Y-10125174D02*
X3241637Y-10115650D01*
X3241637Y-10115650D02*
X3270209Y-10115650D01*
X3270209Y-10115650D02*
X3289256Y-10125174D01*
X3289256Y-10125174D02*
X3298780Y-10144222D01*
X3298780Y-10144222D02*
X3298780Y-10248984D01*
X3689256Y-10039460D02*
X3517828Y-10296603D01*
X3946399Y-10048984D02*
X3965447Y-10048984D01*
X3965447Y-10048984D02*
X3984495Y-10058508D01*
X3984495Y-10058508D02*
X3994018Y-10068031D01*
X3994018Y-10068031D02*
X4003542Y-10087079D01*
X4003542Y-10087079D02*
X4013066Y-10125174D01*
X4013066Y-10125174D02*
X4013066Y-10172793D01*
X4013066Y-10172793D02*
X4003542Y-10210889D01*
X4003542Y-10210889D02*
X3994018Y-10229936D01*
X3994018Y-10229936D02*
X3984495Y-10239460D01*
X3984495Y-10239460D02*
X3965447Y-10248984D01*
X3965447Y-10248984D02*
X3946399Y-10248984D01*
X3946399Y-10248984D02*
X3927352Y-10239460D01*
X3927352Y-10239460D02*
X3917828Y-10229936D01*
X3917828Y-10229936D02*
X3908304Y-10210889D01*
X3908304Y-10210889D02*
X3898780Y-10172793D01*
X3898780Y-10172793D02*
X3898780Y-10125174D01*
X3898780Y-10125174D02*
X3908304Y-10087079D01*
X3908304Y-10087079D02*
X3917828Y-10068031D01*
X3917828Y-10068031D02*
X3927352Y-10058508D01*
X3927352Y-10058508D02*
X3946399Y-10048984D01*
X4098780Y-10229936D02*
X4108304Y-10239460D01*
X4108304Y-10239460D02*
X4098780Y-10248984D01*
X4098780Y-10248984D02*
X4089256Y-10239460D01*
X4089256Y-10239460D02*
X4098780Y-10229936D01*
X4098780Y-10229936D02*
X4098780Y-10248984D01*
X4232114Y-10048984D02*
X4251161Y-10048984D01*
X4251161Y-10048984D02*
X4270209Y-10058508D01*
X4270209Y-10058508D02*
X4279733Y-10068031D01*
X4279733Y-10068031D02*
X4289257Y-10087079D01*
X4289257Y-10087079D02*
X4298780Y-10125174D01*
X4298780Y-10125174D02*
X4298780Y-10172793D01*
X4298780Y-10172793D02*
X4289257Y-10210889D01*
X4289257Y-10210889D02*
X4279733Y-10229936D01*
X4279733Y-10229936D02*
X4270209Y-10239460D01*
X4270209Y-10239460D02*
X4251161Y-10248984D01*
X4251161Y-10248984D02*
X4232114Y-10248984D01*
X4232114Y-10248984D02*
X4213066Y-10239460D01*
X4213066Y-10239460D02*
X4203542Y-10229936D01*
X4203542Y-10229936D02*
X4194018Y-10210889D01*
X4194018Y-10210889D02*
X4184495Y-10172793D01*
X4184495Y-10172793D02*
X4184495Y-10125174D01*
X4184495Y-10125174D02*
X4194018Y-10087079D01*
X4194018Y-10087079D02*
X4203542Y-10068031D01*
X4203542Y-10068031D02*
X4213066Y-10058508D01*
X4213066Y-10058508D02*
X4232114Y-10048984D01*
X4365447Y-10048984D02*
X4489257Y-10048984D01*
X4489257Y-10048984D02*
X4422590Y-10125174D01*
X4422590Y-10125174D02*
X4451161Y-10125174D01*
X4451161Y-10125174D02*
X4470209Y-10134698D01*
X4470209Y-10134698D02*
X4479733Y-10144222D01*
X4479733Y-10144222D02*
X4489257Y-10163270D01*
X4489257Y-10163270D02*
X4489257Y-10210889D01*
X4489257Y-10210889D02*
X4479733Y-10229936D01*
X4479733Y-10229936D02*
X4470209Y-10239460D01*
X4470209Y-10239460D02*
X4451161Y-10248984D01*
X4451161Y-10248984D02*
X4394018Y-10248984D01*
X4394018Y-10248984D02*
X4374971Y-10239460D01*
X4374971Y-10239460D02*
X4365447Y-10229936D01*
X4584495Y-10248984D02*
X4622590Y-10248984D01*
X4622590Y-10248984D02*
X4641638Y-10239460D01*
X4641638Y-10239460D02*
X4651161Y-10229936D01*
X4651161Y-10229936D02*
X4670209Y-10201365D01*
X4670209Y-10201365D02*
X4679733Y-10163270D01*
X4679733Y-10163270D02*
X4679733Y-10087079D01*
X4679733Y-10087079D02*
X4670209Y-10068031D01*
X4670209Y-10068031D02*
X4660685Y-10058508D01*
X4660685Y-10058508D02*
X4641638Y-10048984D01*
X4641638Y-10048984D02*
X4603542Y-10048984D01*
X4603542Y-10048984D02*
X4584495Y-10058508D01*
X4584495Y-10058508D02*
X4574971Y-10068031D01*
X4574971Y-10068031D02*
X4565447Y-10087079D01*
X4565447Y-10087079D02*
X4565447Y-10134698D01*
X4565447Y-10134698D02*
X4574971Y-10153746D01*
X4574971Y-10153746D02*
X4584495Y-10163270D01*
X4584495Y-10163270D02*
X4603542Y-10172793D01*
X4603542Y-10172793D02*
X4641638Y-10172793D01*
X4641638Y-10172793D02*
X4660685Y-10163270D01*
X4660685Y-10163270D02*
X4670209Y-10153746D01*
X4670209Y-10153746D02*
X4679733Y-10134698D01*
X4851161Y-10115650D02*
X4851161Y-10248984D01*
X4803542Y-10039460D02*
X4755923Y-10182317D01*
X4755923Y-10182317D02*
X4879733Y-10182317D01*
X4946399Y-10048984D02*
X4946399Y-10087079D01*
X5022590Y-10048984D02*
X5022590Y-10087079D01*
X5317828Y-10325174D02*
X5308304Y-10315650D01*
X5308304Y-10315650D02*
X5289257Y-10287079D01*
X5289257Y-10287079D02*
X5279733Y-10268031D01*
X5279733Y-10268031D02*
X5270209Y-10239460D01*
X5270209Y-10239460D02*
X5260685Y-10191841D01*
X5260685Y-10191841D02*
X5260685Y-10153746D01*
X5260685Y-10153746D02*
X5270209Y-10106127D01*
X5270209Y-10106127D02*
X5279733Y-10077555D01*
X5279733Y-10077555D02*
X5289257Y-10058508D01*
X5289257Y-10058508D02*
X5308304Y-10029936D01*
X5308304Y-10029936D02*
X5317828Y-10020412D01*
X5384495Y-10068031D02*
X5394019Y-10058508D01*
X5394019Y-10058508D02*
X5413066Y-10048984D01*
X5413066Y-10048984D02*
X5460685Y-10048984D01*
X5460685Y-10048984D02*
X5479733Y-10058508D01*
X5479733Y-10058508D02*
X5489257Y-10068031D01*
X5489257Y-10068031D02*
X5498780Y-10087079D01*
X5498780Y-10087079D02*
X5498780Y-10106127D01*
X5498780Y-10106127D02*
X5489257Y-10134698D01*
X5489257Y-10134698D02*
X5374971Y-10248984D01*
X5374971Y-10248984D02*
X5498780Y-10248984D01*
X5565447Y-10048984D02*
X5698780Y-10048984D01*
X5698780Y-10048984D02*
X5613066Y-10248984D01*
X5927352Y-10248984D02*
X5927352Y-10048984D01*
X6013066Y-10248984D02*
X6013066Y-10144222D01*
X6013066Y-10144222D02*
X6003542Y-10125174D01*
X6003542Y-10125174D02*
X5984495Y-10115650D01*
X5984495Y-10115650D02*
X5955923Y-10115650D01*
X5955923Y-10115650D02*
X5936876Y-10125174D01*
X5936876Y-10125174D02*
X5927352Y-10134698D01*
X6136876Y-10248984D02*
X6117828Y-10239460D01*
X6117828Y-10239460D02*
X6108304Y-10229936D01*
X6108304Y-10229936D02*
X6098780Y-10210889D01*
X6098780Y-10210889D02*
X6098780Y-10153746D01*
X6098780Y-10153746D02*
X6108304Y-10134698D01*
X6108304Y-10134698D02*
X6117828Y-10125174D01*
X6117828Y-10125174D02*
X6136876Y-10115650D01*
X6136876Y-10115650D02*
X6165447Y-10115650D01*
X6165447Y-10115650D02*
X6184495Y-10125174D01*
X6184495Y-10125174D02*
X6194019Y-10134698D01*
X6194019Y-10134698D02*
X6203542Y-10153746D01*
X6203542Y-10153746D02*
X6203542Y-10210889D01*
X6203542Y-10210889D02*
X6194019Y-10229936D01*
X6194019Y-10229936D02*
X6184495Y-10239460D01*
X6184495Y-10239460D02*
X6165447Y-10248984D01*
X6165447Y-10248984D02*
X6136876Y-10248984D01*
X6317828Y-10248984D02*
X6298780Y-10239460D01*
X6298780Y-10239460D02*
X6289257Y-10220412D01*
X6289257Y-10220412D02*
X6289257Y-10048984D01*
X6470209Y-10239460D02*
X6451161Y-10248984D01*
X6451161Y-10248984D02*
X6413066Y-10248984D01*
X6413066Y-10248984D02*
X6394019Y-10239460D01*
X6394019Y-10239460D02*
X6384495Y-10220412D01*
X6384495Y-10220412D02*
X6384495Y-10144222D01*
X6384495Y-10144222D02*
X6394019Y-10125174D01*
X6394019Y-10125174D02*
X6413066Y-10115650D01*
X6413066Y-10115650D02*
X6451161Y-10115650D01*
X6451161Y-10115650D02*
X6470209Y-10125174D01*
X6470209Y-10125174D02*
X6479733Y-10144222D01*
X6479733Y-10144222D02*
X6479733Y-10163270D01*
X6479733Y-10163270D02*
X6384495Y-10182317D01*
X6555923Y-10239460D02*
X6574971Y-10248984D01*
X6574971Y-10248984D02*
X6613066Y-10248984D01*
X6613066Y-10248984D02*
X6632114Y-10239460D01*
X6632114Y-10239460D02*
X6641638Y-10220412D01*
X6641638Y-10220412D02*
X6641638Y-10210889D01*
X6641638Y-10210889D02*
X6632114Y-10191841D01*
X6632114Y-10191841D02*
X6613066Y-10182317D01*
X6613066Y-10182317D02*
X6584495Y-10182317D01*
X6584495Y-10182317D02*
X6565447Y-10172793D01*
X6565447Y-10172793D02*
X6555923Y-10153746D01*
X6555923Y-10153746D02*
X6555923Y-10144222D01*
X6555923Y-10144222D02*
X6565447Y-10125174D01*
X6565447Y-10125174D02*
X6584495Y-10115650D01*
X6584495Y-10115650D02*
X6613066Y-10115650D01*
X6613066Y-10115650D02*
X6632114Y-10125174D01*
X6879733Y-10172793D02*
X7032114Y-10172793D01*
X6955923Y-10248984D02*
X6955923Y-10096603D01*
X7384495Y-10248984D02*
X7270209Y-10248984D01*
X7327352Y-10248984D02*
X7327352Y-10048984D01*
X7327352Y-10048984D02*
X7308304Y-10077555D01*
X7308304Y-10077555D02*
X7289257Y-10096603D01*
X7289257Y-10096603D02*
X7270209Y-10106127D01*
X7613066Y-10239460D02*
X7632114Y-10248984D01*
X7632114Y-10248984D02*
X7670209Y-10248984D01*
X7670209Y-10248984D02*
X7689257Y-10239460D01*
X7689257Y-10239460D02*
X7698781Y-10220412D01*
X7698781Y-10220412D02*
X7698781Y-10210889D01*
X7698781Y-10210889D02*
X7689257Y-10191841D01*
X7689257Y-10191841D02*
X7670209Y-10182317D01*
X7670209Y-10182317D02*
X7641638Y-10182317D01*
X7641638Y-10182317D02*
X7622590Y-10172793D01*
X7622590Y-10172793D02*
X7613066Y-10153746D01*
X7613066Y-10153746D02*
X7613066Y-10144222D01*
X7613066Y-10144222D02*
X7622590Y-10125174D01*
X7622590Y-10125174D02*
X7641638Y-10115650D01*
X7641638Y-10115650D02*
X7670209Y-10115650D01*
X7670209Y-10115650D02*
X7689257Y-10125174D01*
X7813066Y-10248984D02*
X7794019Y-10239460D01*
X7794019Y-10239460D02*
X7784495Y-10220412D01*
X7784495Y-10220412D02*
X7784495Y-10048984D01*
X7917828Y-10248984D02*
X7898781Y-10239460D01*
X7898781Y-10239460D02*
X7889257Y-10229936D01*
X7889257Y-10229936D02*
X7879733Y-10210889D01*
X7879733Y-10210889D02*
X7879733Y-10153746D01*
X7879733Y-10153746D02*
X7889257Y-10134698D01*
X7889257Y-10134698D02*
X7898781Y-10125174D01*
X7898781Y-10125174D02*
X7917828Y-10115650D01*
X7917828Y-10115650D02*
X7946400Y-10115650D01*
X7946400Y-10115650D02*
X7965447Y-10125174D01*
X7965447Y-10125174D02*
X7974971Y-10134698D01*
X7974971Y-10134698D02*
X7984495Y-10153746D01*
X7984495Y-10153746D02*
X7984495Y-10210889D01*
X7984495Y-10210889D02*
X7974971Y-10229936D01*
X7974971Y-10229936D02*
X7965447Y-10239460D01*
X7965447Y-10239460D02*
X7946400Y-10248984D01*
X7946400Y-10248984D02*
X7917828Y-10248984D01*
X8041638Y-10115650D02*
X8117828Y-10115650D01*
X8070209Y-10048984D02*
X8070209Y-10220412D01*
X8070209Y-10220412D02*
X8079733Y-10239460D01*
X8079733Y-10239460D02*
X8098781Y-10248984D01*
X8098781Y-10248984D02*
X8117828Y-10248984D01*
X8165447Y-10325174D02*
X8174971Y-10315650D01*
X8174971Y-10315650D02*
X8194019Y-10287079D01*
X8194019Y-10287079D02*
X8203543Y-10268031D01*
X8203543Y-10268031D02*
X8213066Y-10239460D01*
X8213066Y-10239460D02*
X8222590Y-10191841D01*
X8222590Y-10191841D02*
X8222590Y-10153746D01*
X8222590Y-10153746D02*
X8213066Y-10106127D01*
X8213066Y-10106127D02*
X8203543Y-10077555D01*
X8203543Y-10077555D02*
X8194019Y-10058508D01*
X8194019Y-10058508D02*
X8174971Y-10029936D01*
X8174971Y-10029936D02*
X8165447Y-10020412D01*
D13*
X1727515Y-10458319D02*
X1727515Y-10384681D01*
X1653876Y-10384681D01*
X1653876Y-10458319D01*
X1727515Y-10458319D01*
D11*
X2108304Y-10512984D02*
X1994018Y-10512984D01*
X2051161Y-10512984D02*
X2051161Y-10312984D01*
X2051161Y-10312984D02*
X2032113Y-10341555D01*
X2032113Y-10341555D02*
X2013066Y-10360603D01*
X2013066Y-10360603D02*
X1994018Y-10370127D01*
X2194018Y-10493936D02*
X2203542Y-10503460D01*
X2203542Y-10503460D02*
X2194018Y-10512984D01*
X2194018Y-10512984D02*
X2184494Y-10503460D01*
X2184494Y-10503460D02*
X2194018Y-10493936D01*
X2194018Y-10493936D02*
X2194018Y-10512984D01*
X2327352Y-10312984D02*
X2346399Y-10312984D01*
X2346399Y-10312984D02*
X2365447Y-10322508D01*
X2365447Y-10322508D02*
X2374971Y-10332031D01*
X2374971Y-10332031D02*
X2384494Y-10351079D01*
X2384494Y-10351079D02*
X2394018Y-10389174D01*
X2394018Y-10389174D02*
X2394018Y-10436793D01*
X2394018Y-10436793D02*
X2384494Y-10474889D01*
X2384494Y-10474889D02*
X2374971Y-10493936D01*
X2374971Y-10493936D02*
X2365447Y-10503460D01*
X2365447Y-10503460D02*
X2346399Y-10512984D01*
X2346399Y-10512984D02*
X2327352Y-10512984D01*
X2327352Y-10512984D02*
X2308304Y-10503460D01*
X2308304Y-10503460D02*
X2298780Y-10493936D01*
X2298780Y-10493936D02*
X2289256Y-10474889D01*
X2289256Y-10474889D02*
X2279733Y-10436793D01*
X2279733Y-10436793D02*
X2279733Y-10389174D01*
X2279733Y-10389174D02*
X2289256Y-10351079D01*
X2289256Y-10351079D02*
X2298780Y-10332031D01*
X2298780Y-10332031D02*
X2308304Y-10322508D01*
X2308304Y-10322508D02*
X2327352Y-10312984D01*
X2565447Y-10379650D02*
X2565447Y-10512984D01*
X2517828Y-10303460D02*
X2470209Y-10446317D01*
X2470209Y-10446317D02*
X2594018Y-10446317D01*
X2774971Y-10512984D02*
X2660685Y-10512984D01*
X2717828Y-10512984D02*
X2717828Y-10312984D01*
X2717828Y-10312984D02*
X2698780Y-10341555D01*
X2698780Y-10341555D02*
X2679733Y-10360603D01*
X2679733Y-10360603D02*
X2660685Y-10370127D01*
X2860685Y-10512984D02*
X2860685Y-10379650D01*
X2860685Y-10398698D02*
X2870209Y-10389174D01*
X2870209Y-10389174D02*
X2889256Y-10379650D01*
X2889256Y-10379650D02*
X2917828Y-10379650D01*
X2917828Y-10379650D02*
X2936875Y-10389174D01*
X2936875Y-10389174D02*
X2946399Y-10408222D01*
X2946399Y-10408222D02*
X2946399Y-10512984D01*
X2946399Y-10408222D02*
X2955923Y-10389174D01*
X2955923Y-10389174D02*
X2974971Y-10379650D01*
X2974971Y-10379650D02*
X3003542Y-10379650D01*
X3003542Y-10379650D02*
X3022590Y-10389174D01*
X3022590Y-10389174D02*
X3032113Y-10408222D01*
X3032113Y-10408222D02*
X3032113Y-10512984D01*
X3127352Y-10512984D02*
X3127352Y-10379650D01*
X3127352Y-10398698D02*
X3136875Y-10389174D01*
X3136875Y-10389174D02*
X3155923Y-10379650D01*
X3155923Y-10379650D02*
X3184494Y-10379650D01*
X3184494Y-10379650D02*
X3203542Y-10389174D01*
X3203542Y-10389174D02*
X3213066Y-10408222D01*
X3213066Y-10408222D02*
X3213066Y-10512984D01*
X3213066Y-10408222D02*
X3222590Y-10389174D01*
X3222590Y-10389174D02*
X3241637Y-10379650D01*
X3241637Y-10379650D02*
X3270209Y-10379650D01*
X3270209Y-10379650D02*
X3289256Y-10389174D01*
X3289256Y-10389174D02*
X3298780Y-10408222D01*
X3298780Y-10408222D02*
X3298780Y-10512984D01*
X3689256Y-10303460D02*
X3517828Y-10560603D01*
X3946399Y-10312984D02*
X3965447Y-10312984D01*
X3965447Y-10312984D02*
X3984495Y-10322508D01*
X3984495Y-10322508D02*
X3994018Y-10332031D01*
X3994018Y-10332031D02*
X4003542Y-10351079D01*
X4003542Y-10351079D02*
X4013066Y-10389174D01*
X4013066Y-10389174D02*
X4013066Y-10436793D01*
X4013066Y-10436793D02*
X4003542Y-10474889D01*
X4003542Y-10474889D02*
X3994018Y-10493936D01*
X3994018Y-10493936D02*
X3984495Y-10503460D01*
X3984495Y-10503460D02*
X3965447Y-10512984D01*
X3965447Y-10512984D02*
X3946399Y-10512984D01*
X3946399Y-10512984D02*
X3927352Y-10503460D01*
X3927352Y-10503460D02*
X3917828Y-10493936D01*
X3917828Y-10493936D02*
X3908304Y-10474889D01*
X3908304Y-10474889D02*
X3898780Y-10436793D01*
X3898780Y-10436793D02*
X3898780Y-10389174D01*
X3898780Y-10389174D02*
X3908304Y-10351079D01*
X3908304Y-10351079D02*
X3917828Y-10332031D01*
X3917828Y-10332031D02*
X3927352Y-10322508D01*
X3927352Y-10322508D02*
X3946399Y-10312984D01*
X4098780Y-10493936D02*
X4108304Y-10503460D01*
X4108304Y-10503460D02*
X4098780Y-10512984D01*
X4098780Y-10512984D02*
X4089256Y-10503460D01*
X4089256Y-10503460D02*
X4098780Y-10493936D01*
X4098780Y-10493936D02*
X4098780Y-10512984D01*
X4232114Y-10312984D02*
X4251161Y-10312984D01*
X4251161Y-10312984D02*
X4270209Y-10322508D01*
X4270209Y-10322508D02*
X4279733Y-10332031D01*
X4279733Y-10332031D02*
X4289257Y-10351079D01*
X4289257Y-10351079D02*
X4298780Y-10389174D01*
X4298780Y-10389174D02*
X4298780Y-10436793D01*
X4298780Y-10436793D02*
X4289257Y-10474889D01*
X4289257Y-10474889D02*
X4279733Y-10493936D01*
X4279733Y-10493936D02*
X4270209Y-10503460D01*
X4270209Y-10503460D02*
X4251161Y-10512984D01*
X4251161Y-10512984D02*
X4232114Y-10512984D01*
X4232114Y-10512984D02*
X4213066Y-10503460D01*
X4213066Y-10503460D02*
X4203542Y-10493936D01*
X4203542Y-10493936D02*
X4194018Y-10474889D01*
X4194018Y-10474889D02*
X4184495Y-10436793D01*
X4184495Y-10436793D02*
X4184495Y-10389174D01*
X4184495Y-10389174D02*
X4194018Y-10351079D01*
X4194018Y-10351079D02*
X4203542Y-10332031D01*
X4203542Y-10332031D02*
X4213066Y-10322508D01*
X4213066Y-10322508D02*
X4232114Y-10312984D01*
X4470209Y-10379650D02*
X4470209Y-10512984D01*
X4422590Y-10303460D02*
X4374971Y-10446317D01*
X4374971Y-10446317D02*
X4498780Y-10446317D01*
X4679733Y-10512984D02*
X4565447Y-10512984D01*
X4622590Y-10512984D02*
X4622590Y-10312984D01*
X4622590Y-10312984D02*
X4603542Y-10341555D01*
X4603542Y-10341555D02*
X4584495Y-10360603D01*
X4584495Y-10360603D02*
X4565447Y-10370127D01*
X4803542Y-10312984D02*
X4822590Y-10312984D01*
X4822590Y-10312984D02*
X4841638Y-10322508D01*
X4841638Y-10322508D02*
X4851161Y-10332031D01*
X4851161Y-10332031D02*
X4860685Y-10351079D01*
X4860685Y-10351079D02*
X4870209Y-10389174D01*
X4870209Y-10389174D02*
X4870209Y-10436793D01*
X4870209Y-10436793D02*
X4860685Y-10474889D01*
X4860685Y-10474889D02*
X4851161Y-10493936D01*
X4851161Y-10493936D02*
X4841638Y-10503460D01*
X4841638Y-10503460D02*
X4822590Y-10512984D01*
X4822590Y-10512984D02*
X4803542Y-10512984D01*
X4803542Y-10512984D02*
X4784495Y-10503460D01*
X4784495Y-10503460D02*
X4774971Y-10493936D01*
X4774971Y-10493936D02*
X4765447Y-10474889D01*
X4765447Y-10474889D02*
X4755923Y-10436793D01*
X4755923Y-10436793D02*
X4755923Y-10389174D01*
X4755923Y-10389174D02*
X4765447Y-10351079D01*
X4765447Y-10351079D02*
X4774971Y-10332031D01*
X4774971Y-10332031D02*
X4784495Y-10322508D01*
X4784495Y-10322508D02*
X4803542Y-10312984D01*
X4946399Y-10312984D02*
X4946399Y-10351079D01*
X5022590Y-10312984D02*
X5022590Y-10351079D01*
X5317828Y-10589174D02*
X5308304Y-10579650D01*
X5308304Y-10579650D02*
X5289257Y-10551079D01*
X5289257Y-10551079D02*
X5279733Y-10532031D01*
X5279733Y-10532031D02*
X5270209Y-10503460D01*
X5270209Y-10503460D02*
X5260685Y-10455841D01*
X5260685Y-10455841D02*
X5260685Y-10417746D01*
X5260685Y-10417746D02*
X5270209Y-10370127D01*
X5270209Y-10370127D02*
X5279733Y-10341555D01*
X5279733Y-10341555D02*
X5289257Y-10322508D01*
X5289257Y-10322508D02*
X5308304Y-10293936D01*
X5308304Y-10293936D02*
X5317828Y-10284412D01*
X5403542Y-10512984D02*
X5441638Y-10512984D01*
X5441638Y-10512984D02*
X5460685Y-10503460D01*
X5460685Y-10503460D02*
X5470209Y-10493936D01*
X5470209Y-10493936D02*
X5489257Y-10465365D01*
X5489257Y-10465365D02*
X5498780Y-10427270D01*
X5498780Y-10427270D02*
X5498780Y-10351079D01*
X5498780Y-10351079D02*
X5489257Y-10332031D01*
X5489257Y-10332031D02*
X5479733Y-10322508D01*
X5479733Y-10322508D02*
X5460685Y-10312984D01*
X5460685Y-10312984D02*
X5422590Y-10312984D01*
X5422590Y-10312984D02*
X5403542Y-10322508D01*
X5403542Y-10322508D02*
X5394019Y-10332031D01*
X5394019Y-10332031D02*
X5384495Y-10351079D01*
X5384495Y-10351079D02*
X5384495Y-10398698D01*
X5384495Y-10398698D02*
X5394019Y-10417746D01*
X5394019Y-10417746D02*
X5403542Y-10427270D01*
X5403542Y-10427270D02*
X5422590Y-10436793D01*
X5422590Y-10436793D02*
X5460685Y-10436793D01*
X5460685Y-10436793D02*
X5479733Y-10427270D01*
X5479733Y-10427270D02*
X5489257Y-10417746D01*
X5489257Y-10417746D02*
X5498780Y-10398698D01*
X5736876Y-10512984D02*
X5736876Y-10312984D01*
X5822590Y-10512984D02*
X5822590Y-10408222D01*
X5822590Y-10408222D02*
X5813066Y-10389174D01*
X5813066Y-10389174D02*
X5794019Y-10379650D01*
X5794019Y-10379650D02*
X5765447Y-10379650D01*
X5765447Y-10379650D02*
X5746399Y-10389174D01*
X5746399Y-10389174D02*
X5736876Y-10398698D01*
X5946399Y-10512984D02*
X5927352Y-10503460D01*
X5927352Y-10503460D02*
X5917828Y-10493936D01*
X5917828Y-10493936D02*
X5908304Y-10474889D01*
X5908304Y-10474889D02*
X5908304Y-10417746D01*
X5908304Y-10417746D02*
X5917828Y-10398698D01*
X5917828Y-10398698D02*
X5927352Y-10389174D01*
X5927352Y-10389174D02*
X5946399Y-10379650D01*
X5946399Y-10379650D02*
X5974971Y-10379650D01*
X5974971Y-10379650D02*
X5994019Y-10389174D01*
X5994019Y-10389174D02*
X6003542Y-10398698D01*
X6003542Y-10398698D02*
X6013066Y-10417746D01*
X6013066Y-10417746D02*
X6013066Y-10474889D01*
X6013066Y-10474889D02*
X6003542Y-10493936D01*
X6003542Y-10493936D02*
X5994019Y-10503460D01*
X5994019Y-10503460D02*
X5974971Y-10512984D01*
X5974971Y-10512984D02*
X5946399Y-10512984D01*
X6127352Y-10512984D02*
X6108304Y-10503460D01*
X6108304Y-10503460D02*
X6098780Y-10484412D01*
X6098780Y-10484412D02*
X6098780Y-10312984D01*
X6279733Y-10503460D02*
X6260685Y-10512984D01*
X6260685Y-10512984D02*
X6222590Y-10512984D01*
X6222590Y-10512984D02*
X6203542Y-10503460D01*
X6203542Y-10503460D02*
X6194019Y-10484412D01*
X6194019Y-10484412D02*
X6194019Y-10408222D01*
X6194019Y-10408222D02*
X6203542Y-10389174D01*
X6203542Y-10389174D02*
X6222590Y-10379650D01*
X6222590Y-10379650D02*
X6260685Y-10379650D01*
X6260685Y-10379650D02*
X6279733Y-10389174D01*
X6279733Y-10389174D02*
X6289257Y-10408222D01*
X6289257Y-10408222D02*
X6289257Y-10427270D01*
X6289257Y-10427270D02*
X6194019Y-10446317D01*
X6365447Y-10503460D02*
X6384495Y-10512984D01*
X6384495Y-10512984D02*
X6422590Y-10512984D01*
X6422590Y-10512984D02*
X6441638Y-10503460D01*
X6441638Y-10503460D02*
X6451161Y-10484412D01*
X6451161Y-10484412D02*
X6451161Y-10474889D01*
X6451161Y-10474889D02*
X6441638Y-10455841D01*
X6441638Y-10455841D02*
X6422590Y-10446317D01*
X6422590Y-10446317D02*
X6394019Y-10446317D01*
X6394019Y-10446317D02*
X6374971Y-10436793D01*
X6374971Y-10436793D02*
X6365447Y-10417746D01*
X6365447Y-10417746D02*
X6365447Y-10408222D01*
X6365447Y-10408222D02*
X6374971Y-10389174D01*
X6374971Y-10389174D02*
X6394019Y-10379650D01*
X6394019Y-10379650D02*
X6422590Y-10379650D01*
X6422590Y-10379650D02*
X6441638Y-10389174D01*
X6517828Y-10589174D02*
X6527352Y-10579650D01*
X6527352Y-10579650D02*
X6546400Y-10551079D01*
X6546400Y-10551079D02*
X6555923Y-10532031D01*
X6555923Y-10532031D02*
X6565447Y-10503460D01*
X6565447Y-10503460D02*
X6574971Y-10455841D01*
X6574971Y-10455841D02*
X6574971Y-10417746D01*
X6574971Y-10417746D02*
X6565447Y-10370127D01*
X6565447Y-10370127D02*
X6555923Y-10341555D01*
X6555923Y-10341555D02*
X6546400Y-10322508D01*
X6546400Y-10322508D02*
X6527352Y-10293936D01*
X6527352Y-10293936D02*
X6517828Y-10284412D01*
D14*
X1682765Y-10745500D02*
X1742765Y-10685500D01*
X1682765Y-10625500D01*
X1622765Y-10685500D01*
X1682765Y-10745500D01*
D11*
X2108304Y-10776984D02*
X1994018Y-10776984D01*
X2051161Y-10776984D02*
X2051161Y-10576984D01*
X2051161Y-10576984D02*
X2032113Y-10605555D01*
X2032113Y-10605555D02*
X2013066Y-10624603D01*
X2013066Y-10624603D02*
X1994018Y-10634127D01*
X2194018Y-10757936D02*
X2203542Y-10767460D01*
X2203542Y-10767460D02*
X2194018Y-10776984D01*
X2194018Y-10776984D02*
X2184494Y-10767460D01*
X2184494Y-10767460D02*
X2194018Y-10757936D01*
X2194018Y-10757936D02*
X2194018Y-10776984D01*
X2279733Y-10596031D02*
X2289256Y-10586508D01*
X2289256Y-10586508D02*
X2308304Y-10576984D01*
X2308304Y-10576984D02*
X2355923Y-10576984D01*
X2355923Y-10576984D02*
X2374971Y-10586508D01*
X2374971Y-10586508D02*
X2384494Y-10596031D01*
X2384494Y-10596031D02*
X2394018Y-10615079D01*
X2394018Y-10615079D02*
X2394018Y-10634127D01*
X2394018Y-10634127D02*
X2384494Y-10662698D01*
X2384494Y-10662698D02*
X2270209Y-10776984D01*
X2270209Y-10776984D02*
X2394018Y-10776984D01*
X2517828Y-10576984D02*
X2536875Y-10576984D01*
X2536875Y-10576984D02*
X2555923Y-10586508D01*
X2555923Y-10586508D02*
X2565447Y-10596031D01*
X2565447Y-10596031D02*
X2574971Y-10615079D01*
X2574971Y-10615079D02*
X2584494Y-10653174D01*
X2584494Y-10653174D02*
X2584494Y-10700793D01*
X2584494Y-10700793D02*
X2574971Y-10738889D01*
X2574971Y-10738889D02*
X2565447Y-10757936D01*
X2565447Y-10757936D02*
X2555923Y-10767460D01*
X2555923Y-10767460D02*
X2536875Y-10776984D01*
X2536875Y-10776984D02*
X2517828Y-10776984D01*
X2517828Y-10776984D02*
X2498780Y-10767460D01*
X2498780Y-10767460D02*
X2489256Y-10757936D01*
X2489256Y-10757936D02*
X2479733Y-10738889D01*
X2479733Y-10738889D02*
X2470209Y-10700793D01*
X2470209Y-10700793D02*
X2470209Y-10653174D01*
X2470209Y-10653174D02*
X2479733Y-10615079D01*
X2479733Y-10615079D02*
X2489256Y-10596031D01*
X2489256Y-10596031D02*
X2498780Y-10586508D01*
X2498780Y-10586508D02*
X2517828Y-10576984D01*
X2708304Y-10576984D02*
X2727352Y-10576984D01*
X2727352Y-10576984D02*
X2746399Y-10586508D01*
X2746399Y-10586508D02*
X2755923Y-10596031D01*
X2755923Y-10596031D02*
X2765447Y-10615079D01*
X2765447Y-10615079D02*
X2774971Y-10653174D01*
X2774971Y-10653174D02*
X2774971Y-10700793D01*
X2774971Y-10700793D02*
X2765447Y-10738889D01*
X2765447Y-10738889D02*
X2755923Y-10757936D01*
X2755923Y-10757936D02*
X2746399Y-10767460D01*
X2746399Y-10767460D02*
X2727352Y-10776984D01*
X2727352Y-10776984D02*
X2708304Y-10776984D01*
X2708304Y-10776984D02*
X2689256Y-10767460D01*
X2689256Y-10767460D02*
X2679733Y-10757936D01*
X2679733Y-10757936D02*
X2670209Y-10738889D01*
X2670209Y-10738889D02*
X2660685Y-10700793D01*
X2660685Y-10700793D02*
X2660685Y-10653174D01*
X2660685Y-10653174D02*
X2670209Y-10615079D01*
X2670209Y-10615079D02*
X2679733Y-10596031D01*
X2679733Y-10596031D02*
X2689256Y-10586508D01*
X2689256Y-10586508D02*
X2708304Y-10576984D01*
X2860685Y-10776984D02*
X2860685Y-10643650D01*
X2860685Y-10662698D02*
X2870209Y-10653174D01*
X2870209Y-10653174D02*
X2889256Y-10643650D01*
X2889256Y-10643650D02*
X2917828Y-10643650D01*
X2917828Y-10643650D02*
X2936875Y-10653174D01*
X2936875Y-10653174D02*
X2946399Y-10672222D01*
X2946399Y-10672222D02*
X2946399Y-10776984D01*
X2946399Y-10672222D02*
X2955923Y-10653174D01*
X2955923Y-10653174D02*
X2974971Y-10643650D01*
X2974971Y-10643650D02*
X3003542Y-10643650D01*
X3003542Y-10643650D02*
X3022590Y-10653174D01*
X3022590Y-10653174D02*
X3032113Y-10672222D01*
X3032113Y-10672222D02*
X3032113Y-10776984D01*
X3127352Y-10776984D02*
X3127352Y-10643650D01*
X3127352Y-10662698D02*
X3136875Y-10653174D01*
X3136875Y-10653174D02*
X3155923Y-10643650D01*
X3155923Y-10643650D02*
X3184494Y-10643650D01*
X3184494Y-10643650D02*
X3203542Y-10653174D01*
X3203542Y-10653174D02*
X3213066Y-10672222D01*
X3213066Y-10672222D02*
X3213066Y-10776984D01*
X3213066Y-10672222D02*
X3222590Y-10653174D01*
X3222590Y-10653174D02*
X3241637Y-10643650D01*
X3241637Y-10643650D02*
X3270209Y-10643650D01*
X3270209Y-10643650D02*
X3289256Y-10653174D01*
X3289256Y-10653174D02*
X3298780Y-10672222D01*
X3298780Y-10672222D02*
X3298780Y-10776984D01*
X3689256Y-10567460D02*
X3517828Y-10824603D01*
X3946399Y-10576984D02*
X3965447Y-10576984D01*
X3965447Y-10576984D02*
X3984495Y-10586508D01*
X3984495Y-10586508D02*
X3994018Y-10596031D01*
X3994018Y-10596031D02*
X4003542Y-10615079D01*
X4003542Y-10615079D02*
X4013066Y-10653174D01*
X4013066Y-10653174D02*
X4013066Y-10700793D01*
X4013066Y-10700793D02*
X4003542Y-10738889D01*
X4003542Y-10738889D02*
X3994018Y-10757936D01*
X3994018Y-10757936D02*
X3984495Y-10767460D01*
X3984495Y-10767460D02*
X3965447Y-10776984D01*
X3965447Y-10776984D02*
X3946399Y-10776984D01*
X3946399Y-10776984D02*
X3927352Y-10767460D01*
X3927352Y-10767460D02*
X3917828Y-10757936D01*
X3917828Y-10757936D02*
X3908304Y-10738889D01*
X3908304Y-10738889D02*
X3898780Y-10700793D01*
X3898780Y-10700793D02*
X3898780Y-10653174D01*
X3898780Y-10653174D02*
X3908304Y-10615079D01*
X3908304Y-10615079D02*
X3917828Y-10596031D01*
X3917828Y-10596031D02*
X3927352Y-10586508D01*
X3927352Y-10586508D02*
X3946399Y-10576984D01*
X4098780Y-10757936D02*
X4108304Y-10767460D01*
X4108304Y-10767460D02*
X4098780Y-10776984D01*
X4098780Y-10776984D02*
X4089256Y-10767460D01*
X4089256Y-10767460D02*
X4098780Y-10757936D01*
X4098780Y-10757936D02*
X4098780Y-10776984D01*
X4232114Y-10576984D02*
X4251161Y-10576984D01*
X4251161Y-10576984D02*
X4270209Y-10586508D01*
X4270209Y-10586508D02*
X4279733Y-10596031D01*
X4279733Y-10596031D02*
X4289257Y-10615079D01*
X4289257Y-10615079D02*
X4298780Y-10653174D01*
X4298780Y-10653174D02*
X4298780Y-10700793D01*
X4298780Y-10700793D02*
X4289257Y-10738889D01*
X4289257Y-10738889D02*
X4279733Y-10757936D01*
X4279733Y-10757936D02*
X4270209Y-10767460D01*
X4270209Y-10767460D02*
X4251161Y-10776984D01*
X4251161Y-10776984D02*
X4232114Y-10776984D01*
X4232114Y-10776984D02*
X4213066Y-10767460D01*
X4213066Y-10767460D02*
X4203542Y-10757936D01*
X4203542Y-10757936D02*
X4194018Y-10738889D01*
X4194018Y-10738889D02*
X4184495Y-10700793D01*
X4184495Y-10700793D02*
X4184495Y-10653174D01*
X4184495Y-10653174D02*
X4194018Y-10615079D01*
X4194018Y-10615079D02*
X4203542Y-10596031D01*
X4203542Y-10596031D02*
X4213066Y-10586508D01*
X4213066Y-10586508D02*
X4232114Y-10576984D01*
X4470209Y-10643650D02*
X4470209Y-10776984D01*
X4422590Y-10567460D02*
X4374971Y-10710317D01*
X4374971Y-10710317D02*
X4498780Y-10710317D01*
X4555923Y-10576984D02*
X4689257Y-10576984D01*
X4689257Y-10576984D02*
X4603542Y-10776984D01*
X4755923Y-10596031D02*
X4765447Y-10586508D01*
X4765447Y-10586508D02*
X4784495Y-10576984D01*
X4784495Y-10576984D02*
X4832114Y-10576984D01*
X4832114Y-10576984D02*
X4851161Y-10586508D01*
X4851161Y-10586508D02*
X4860685Y-10596031D01*
X4860685Y-10596031D02*
X4870209Y-10615079D01*
X4870209Y-10615079D02*
X4870209Y-10634127D01*
X4870209Y-10634127D02*
X4860685Y-10662698D01*
X4860685Y-10662698D02*
X4746399Y-10776984D01*
X4746399Y-10776984D02*
X4870209Y-10776984D01*
X4946399Y-10576984D02*
X4946399Y-10615079D01*
X5022590Y-10576984D02*
X5022590Y-10615079D01*
X5317828Y-10853174D02*
X5308304Y-10843650D01*
X5308304Y-10843650D02*
X5289257Y-10815079D01*
X5289257Y-10815079D02*
X5279733Y-10796031D01*
X5279733Y-10796031D02*
X5270209Y-10767460D01*
X5270209Y-10767460D02*
X5260685Y-10719841D01*
X5260685Y-10719841D02*
X5260685Y-10681746D01*
X5260685Y-10681746D02*
X5270209Y-10634127D01*
X5270209Y-10634127D02*
X5279733Y-10605555D01*
X5279733Y-10605555D02*
X5289257Y-10586508D01*
X5289257Y-10586508D02*
X5308304Y-10557936D01*
X5308304Y-10557936D02*
X5317828Y-10548412D01*
X5479733Y-10643650D02*
X5479733Y-10776984D01*
X5432114Y-10567460D02*
X5384495Y-10710317D01*
X5384495Y-10710317D02*
X5508304Y-10710317D01*
X5736876Y-10776984D02*
X5736876Y-10576984D01*
X5822590Y-10776984D02*
X5822590Y-10672222D01*
X5822590Y-10672222D02*
X5813066Y-10653174D01*
X5813066Y-10653174D02*
X5794019Y-10643650D01*
X5794019Y-10643650D02*
X5765447Y-10643650D01*
X5765447Y-10643650D02*
X5746399Y-10653174D01*
X5746399Y-10653174D02*
X5736876Y-10662698D01*
X5946399Y-10776984D02*
X5927352Y-10767460D01*
X5927352Y-10767460D02*
X5917828Y-10757936D01*
X5917828Y-10757936D02*
X5908304Y-10738889D01*
X5908304Y-10738889D02*
X5908304Y-10681746D01*
X5908304Y-10681746D02*
X5917828Y-10662698D01*
X5917828Y-10662698D02*
X5927352Y-10653174D01*
X5927352Y-10653174D02*
X5946399Y-10643650D01*
X5946399Y-10643650D02*
X5974971Y-10643650D01*
X5974971Y-10643650D02*
X5994019Y-10653174D01*
X5994019Y-10653174D02*
X6003542Y-10662698D01*
X6003542Y-10662698D02*
X6013066Y-10681746D01*
X6013066Y-10681746D02*
X6013066Y-10738889D01*
X6013066Y-10738889D02*
X6003542Y-10757936D01*
X6003542Y-10757936D02*
X5994019Y-10767460D01*
X5994019Y-10767460D02*
X5974971Y-10776984D01*
X5974971Y-10776984D02*
X5946399Y-10776984D01*
X6127352Y-10776984D02*
X6108304Y-10767460D01*
X6108304Y-10767460D02*
X6098780Y-10748412D01*
X6098780Y-10748412D02*
X6098780Y-10576984D01*
X6279733Y-10767460D02*
X6260685Y-10776984D01*
X6260685Y-10776984D02*
X6222590Y-10776984D01*
X6222590Y-10776984D02*
X6203542Y-10767460D01*
X6203542Y-10767460D02*
X6194019Y-10748412D01*
X6194019Y-10748412D02*
X6194019Y-10672222D01*
X6194019Y-10672222D02*
X6203542Y-10653174D01*
X6203542Y-10653174D02*
X6222590Y-10643650D01*
X6222590Y-10643650D02*
X6260685Y-10643650D01*
X6260685Y-10643650D02*
X6279733Y-10653174D01*
X6279733Y-10653174D02*
X6289257Y-10672222D01*
X6289257Y-10672222D02*
X6289257Y-10691270D01*
X6289257Y-10691270D02*
X6194019Y-10710317D01*
X6365447Y-10767460D02*
X6384495Y-10776984D01*
X6384495Y-10776984D02*
X6422590Y-10776984D01*
X6422590Y-10776984D02*
X6441638Y-10767460D01*
X6441638Y-10767460D02*
X6451161Y-10748412D01*
X6451161Y-10748412D02*
X6451161Y-10738889D01*
X6451161Y-10738889D02*
X6441638Y-10719841D01*
X6441638Y-10719841D02*
X6422590Y-10710317D01*
X6422590Y-10710317D02*
X6394019Y-10710317D01*
X6394019Y-10710317D02*
X6374971Y-10700793D01*
X6374971Y-10700793D02*
X6365447Y-10681746D01*
X6365447Y-10681746D02*
X6365447Y-10672222D01*
X6365447Y-10672222D02*
X6374971Y-10653174D01*
X6374971Y-10653174D02*
X6394019Y-10643650D01*
X6394019Y-10643650D02*
X6422590Y-10643650D01*
X6422590Y-10643650D02*
X6441638Y-10653174D01*
X6517828Y-10853174D02*
X6527352Y-10843650D01*
X6527352Y-10843650D02*
X6546400Y-10815079D01*
X6546400Y-10815079D02*
X6555923Y-10796031D01*
X6555923Y-10796031D02*
X6565447Y-10767460D01*
X6565447Y-10767460D02*
X6574971Y-10719841D01*
X6574971Y-10719841D02*
X6574971Y-10681746D01*
X6574971Y-10681746D02*
X6565447Y-10634127D01*
X6565447Y-10634127D02*
X6555923Y-10605555D01*
X6555923Y-10605555D02*
X6546400Y-10586508D01*
X6546400Y-10586508D02*
X6527352Y-10557936D01*
X6527352Y-10557936D02*
X6517828Y-10548412D01*
D15*
X1612765Y-10884500D02*
X1742765Y-11014500D01*
X1742765Y-10884500D02*
X1612765Y-11014500D01*
X1742765Y-10949500D02*
G75*
G03*
X1612765Y-10949500I-65000J0D01*
G01*
X1612765Y-10949500D02*
G75*
G03*
X1742765Y-10949500I65000J0D01*
G01*
D11*
X2108304Y-11040984D02*
X1994018Y-11040984D01*
X2051161Y-11040984D02*
X2051161Y-10840984D01*
X2051161Y-10840984D02*
X2032113Y-10869555D01*
X2032113Y-10869555D02*
X2013066Y-10888603D01*
X2013066Y-10888603D02*
X1994018Y-10898127D01*
X2194018Y-11021936D02*
X2203542Y-11031460D01*
X2203542Y-11031460D02*
X2194018Y-11040984D01*
X2194018Y-11040984D02*
X2184494Y-11031460D01*
X2184494Y-11031460D02*
X2194018Y-11021936D01*
X2194018Y-11021936D02*
X2194018Y-11040984D01*
X2270209Y-10840984D02*
X2394018Y-10840984D01*
X2394018Y-10840984D02*
X2327352Y-10917174D01*
X2327352Y-10917174D02*
X2355923Y-10917174D01*
X2355923Y-10917174D02*
X2374971Y-10926698D01*
X2374971Y-10926698D02*
X2384494Y-10936222D01*
X2384494Y-10936222D02*
X2394018Y-10955270D01*
X2394018Y-10955270D02*
X2394018Y-11002889D01*
X2394018Y-11002889D02*
X2384494Y-11021936D01*
X2384494Y-11021936D02*
X2374971Y-11031460D01*
X2374971Y-11031460D02*
X2355923Y-11040984D01*
X2355923Y-11040984D02*
X2298780Y-11040984D01*
X2298780Y-11040984D02*
X2279733Y-11031460D01*
X2279733Y-11031460D02*
X2270209Y-11021936D01*
X2517828Y-10840984D02*
X2536875Y-10840984D01*
X2536875Y-10840984D02*
X2555923Y-10850508D01*
X2555923Y-10850508D02*
X2565447Y-10860031D01*
X2565447Y-10860031D02*
X2574971Y-10879079D01*
X2574971Y-10879079D02*
X2584494Y-10917174D01*
X2584494Y-10917174D02*
X2584494Y-10964793D01*
X2584494Y-10964793D02*
X2574971Y-11002889D01*
X2574971Y-11002889D02*
X2565447Y-11021936D01*
X2565447Y-11021936D02*
X2555923Y-11031460D01*
X2555923Y-11031460D02*
X2536875Y-11040984D01*
X2536875Y-11040984D02*
X2517828Y-11040984D01*
X2517828Y-11040984D02*
X2498780Y-11031460D01*
X2498780Y-11031460D02*
X2489256Y-11021936D01*
X2489256Y-11021936D02*
X2479733Y-11002889D01*
X2479733Y-11002889D02*
X2470209Y-10964793D01*
X2470209Y-10964793D02*
X2470209Y-10917174D01*
X2470209Y-10917174D02*
X2479733Y-10879079D01*
X2479733Y-10879079D02*
X2489256Y-10860031D01*
X2489256Y-10860031D02*
X2498780Y-10850508D01*
X2498780Y-10850508D02*
X2517828Y-10840984D01*
X2708304Y-10840984D02*
X2727352Y-10840984D01*
X2727352Y-10840984D02*
X2746399Y-10850508D01*
X2746399Y-10850508D02*
X2755923Y-10860031D01*
X2755923Y-10860031D02*
X2765447Y-10879079D01*
X2765447Y-10879079D02*
X2774971Y-10917174D01*
X2774971Y-10917174D02*
X2774971Y-10964793D01*
X2774971Y-10964793D02*
X2765447Y-11002889D01*
X2765447Y-11002889D02*
X2755923Y-11021936D01*
X2755923Y-11021936D02*
X2746399Y-11031460D01*
X2746399Y-11031460D02*
X2727352Y-11040984D01*
X2727352Y-11040984D02*
X2708304Y-11040984D01*
X2708304Y-11040984D02*
X2689256Y-11031460D01*
X2689256Y-11031460D02*
X2679733Y-11021936D01*
X2679733Y-11021936D02*
X2670209Y-11002889D01*
X2670209Y-11002889D02*
X2660685Y-10964793D01*
X2660685Y-10964793D02*
X2660685Y-10917174D01*
X2660685Y-10917174D02*
X2670209Y-10879079D01*
X2670209Y-10879079D02*
X2679733Y-10860031D01*
X2679733Y-10860031D02*
X2689256Y-10850508D01*
X2689256Y-10850508D02*
X2708304Y-10840984D01*
X2860685Y-11040984D02*
X2860685Y-10907650D01*
X2860685Y-10926698D02*
X2870209Y-10917174D01*
X2870209Y-10917174D02*
X2889256Y-10907650D01*
X2889256Y-10907650D02*
X2917828Y-10907650D01*
X2917828Y-10907650D02*
X2936875Y-10917174D01*
X2936875Y-10917174D02*
X2946399Y-10936222D01*
X2946399Y-10936222D02*
X2946399Y-11040984D01*
X2946399Y-10936222D02*
X2955923Y-10917174D01*
X2955923Y-10917174D02*
X2974971Y-10907650D01*
X2974971Y-10907650D02*
X3003542Y-10907650D01*
X3003542Y-10907650D02*
X3022590Y-10917174D01*
X3022590Y-10917174D02*
X3032113Y-10936222D01*
X3032113Y-10936222D02*
X3032113Y-11040984D01*
X3127352Y-11040984D02*
X3127352Y-10907650D01*
X3127352Y-10926698D02*
X3136875Y-10917174D01*
X3136875Y-10917174D02*
X3155923Y-10907650D01*
X3155923Y-10907650D02*
X3184494Y-10907650D01*
X3184494Y-10907650D02*
X3203542Y-10917174D01*
X3203542Y-10917174D02*
X3213066Y-10936222D01*
X3213066Y-10936222D02*
X3213066Y-11040984D01*
X3213066Y-10936222D02*
X3222590Y-10917174D01*
X3222590Y-10917174D02*
X3241637Y-10907650D01*
X3241637Y-10907650D02*
X3270209Y-10907650D01*
X3270209Y-10907650D02*
X3289256Y-10917174D01*
X3289256Y-10917174D02*
X3298780Y-10936222D01*
X3298780Y-10936222D02*
X3298780Y-11040984D01*
X3689256Y-10831460D02*
X3517828Y-11088603D01*
X3946399Y-10840984D02*
X3965447Y-10840984D01*
X3965447Y-10840984D02*
X3984495Y-10850508D01*
X3984495Y-10850508D02*
X3994018Y-10860031D01*
X3994018Y-10860031D02*
X4003542Y-10879079D01*
X4003542Y-10879079D02*
X4013066Y-10917174D01*
X4013066Y-10917174D02*
X4013066Y-10964793D01*
X4013066Y-10964793D02*
X4003542Y-11002889D01*
X4003542Y-11002889D02*
X3994018Y-11021936D01*
X3994018Y-11021936D02*
X3984495Y-11031460D01*
X3984495Y-11031460D02*
X3965447Y-11040984D01*
X3965447Y-11040984D02*
X3946399Y-11040984D01*
X3946399Y-11040984D02*
X3927352Y-11031460D01*
X3927352Y-11031460D02*
X3917828Y-11021936D01*
X3917828Y-11021936D02*
X3908304Y-11002889D01*
X3908304Y-11002889D02*
X3898780Y-10964793D01*
X3898780Y-10964793D02*
X3898780Y-10917174D01*
X3898780Y-10917174D02*
X3908304Y-10879079D01*
X3908304Y-10879079D02*
X3917828Y-10860031D01*
X3917828Y-10860031D02*
X3927352Y-10850508D01*
X3927352Y-10850508D02*
X3946399Y-10840984D01*
X4098780Y-11021936D02*
X4108304Y-11031460D01*
X4108304Y-11031460D02*
X4098780Y-11040984D01*
X4098780Y-11040984D02*
X4089256Y-11031460D01*
X4089256Y-11031460D02*
X4098780Y-11021936D01*
X4098780Y-11021936D02*
X4098780Y-11040984D01*
X4232114Y-10840984D02*
X4251161Y-10840984D01*
X4251161Y-10840984D02*
X4270209Y-10850508D01*
X4270209Y-10850508D02*
X4279733Y-10860031D01*
X4279733Y-10860031D02*
X4289257Y-10879079D01*
X4289257Y-10879079D02*
X4298780Y-10917174D01*
X4298780Y-10917174D02*
X4298780Y-10964793D01*
X4298780Y-10964793D02*
X4289257Y-11002889D01*
X4289257Y-11002889D02*
X4279733Y-11021936D01*
X4279733Y-11021936D02*
X4270209Y-11031460D01*
X4270209Y-11031460D02*
X4251161Y-11040984D01*
X4251161Y-11040984D02*
X4232114Y-11040984D01*
X4232114Y-11040984D02*
X4213066Y-11031460D01*
X4213066Y-11031460D02*
X4203542Y-11021936D01*
X4203542Y-11021936D02*
X4194018Y-11002889D01*
X4194018Y-11002889D02*
X4184495Y-10964793D01*
X4184495Y-10964793D02*
X4184495Y-10917174D01*
X4184495Y-10917174D02*
X4194018Y-10879079D01*
X4194018Y-10879079D02*
X4203542Y-10860031D01*
X4203542Y-10860031D02*
X4213066Y-10850508D01*
X4213066Y-10850508D02*
X4232114Y-10840984D01*
X4479733Y-10840984D02*
X4384495Y-10840984D01*
X4384495Y-10840984D02*
X4374971Y-10936222D01*
X4374971Y-10936222D02*
X4384495Y-10926698D01*
X4384495Y-10926698D02*
X4403542Y-10917174D01*
X4403542Y-10917174D02*
X4451161Y-10917174D01*
X4451161Y-10917174D02*
X4470209Y-10926698D01*
X4470209Y-10926698D02*
X4479733Y-10936222D01*
X4479733Y-10936222D02*
X4489257Y-10955270D01*
X4489257Y-10955270D02*
X4489257Y-11002889D01*
X4489257Y-11002889D02*
X4479733Y-11021936D01*
X4479733Y-11021936D02*
X4470209Y-11031460D01*
X4470209Y-11031460D02*
X4451161Y-11040984D01*
X4451161Y-11040984D02*
X4403542Y-11040984D01*
X4403542Y-11040984D02*
X4384495Y-11031460D01*
X4384495Y-11031460D02*
X4374971Y-11021936D01*
X4679733Y-11040984D02*
X4565447Y-11040984D01*
X4622590Y-11040984D02*
X4622590Y-10840984D01*
X4622590Y-10840984D02*
X4603542Y-10869555D01*
X4603542Y-10869555D02*
X4584495Y-10888603D01*
X4584495Y-10888603D02*
X4565447Y-10898127D01*
X4755923Y-10860031D02*
X4765447Y-10850508D01*
X4765447Y-10850508D02*
X4784495Y-10840984D01*
X4784495Y-10840984D02*
X4832114Y-10840984D01*
X4832114Y-10840984D02*
X4851161Y-10850508D01*
X4851161Y-10850508D02*
X4860685Y-10860031D01*
X4860685Y-10860031D02*
X4870209Y-10879079D01*
X4870209Y-10879079D02*
X4870209Y-10898127D01*
X4870209Y-10898127D02*
X4860685Y-10926698D01*
X4860685Y-10926698D02*
X4746399Y-11040984D01*
X4746399Y-11040984D02*
X4870209Y-11040984D01*
X4946399Y-10840984D02*
X4946399Y-10879079D01*
X5022590Y-10840984D02*
X5022590Y-10879079D01*
X5317828Y-11117174D02*
X5308304Y-11107650D01*
X5308304Y-11107650D02*
X5289257Y-11079079D01*
X5289257Y-11079079D02*
X5279733Y-11060031D01*
X5279733Y-11060031D02*
X5270209Y-11031460D01*
X5270209Y-11031460D02*
X5260685Y-10983841D01*
X5260685Y-10983841D02*
X5260685Y-10945746D01*
X5260685Y-10945746D02*
X5270209Y-10898127D01*
X5270209Y-10898127D02*
X5279733Y-10869555D01*
X5279733Y-10869555D02*
X5289257Y-10850508D01*
X5289257Y-10850508D02*
X5308304Y-10821936D01*
X5308304Y-10821936D02*
X5317828Y-10812412D01*
X5422590Y-10926698D02*
X5403542Y-10917174D01*
X5403542Y-10917174D02*
X5394019Y-10907650D01*
X5394019Y-10907650D02*
X5384495Y-10888603D01*
X5384495Y-10888603D02*
X5384495Y-10879079D01*
X5384495Y-10879079D02*
X5394019Y-10860031D01*
X5394019Y-10860031D02*
X5403542Y-10850508D01*
X5403542Y-10850508D02*
X5422590Y-10840984D01*
X5422590Y-10840984D02*
X5460685Y-10840984D01*
X5460685Y-10840984D02*
X5479733Y-10850508D01*
X5479733Y-10850508D02*
X5489257Y-10860031D01*
X5489257Y-10860031D02*
X5498780Y-10879079D01*
X5498780Y-10879079D02*
X5498780Y-10888603D01*
X5498780Y-10888603D02*
X5489257Y-10907650D01*
X5489257Y-10907650D02*
X5479733Y-10917174D01*
X5479733Y-10917174D02*
X5460685Y-10926698D01*
X5460685Y-10926698D02*
X5422590Y-10926698D01*
X5422590Y-10926698D02*
X5403542Y-10936222D01*
X5403542Y-10936222D02*
X5394019Y-10945746D01*
X5394019Y-10945746D02*
X5384495Y-10964793D01*
X5384495Y-10964793D02*
X5384495Y-11002889D01*
X5384495Y-11002889D02*
X5394019Y-11021936D01*
X5394019Y-11021936D02*
X5403542Y-11031460D01*
X5403542Y-11031460D02*
X5422590Y-11040984D01*
X5422590Y-11040984D02*
X5460685Y-11040984D01*
X5460685Y-11040984D02*
X5479733Y-11031460D01*
X5479733Y-11031460D02*
X5489257Y-11021936D01*
X5489257Y-11021936D02*
X5498780Y-11002889D01*
X5498780Y-11002889D02*
X5498780Y-10964793D01*
X5498780Y-10964793D02*
X5489257Y-10945746D01*
X5489257Y-10945746D02*
X5479733Y-10936222D01*
X5479733Y-10936222D02*
X5460685Y-10926698D01*
X5736876Y-11040984D02*
X5736876Y-10840984D01*
X5822590Y-11040984D02*
X5822590Y-10936222D01*
X5822590Y-10936222D02*
X5813066Y-10917174D01*
X5813066Y-10917174D02*
X5794019Y-10907650D01*
X5794019Y-10907650D02*
X5765447Y-10907650D01*
X5765447Y-10907650D02*
X5746399Y-10917174D01*
X5746399Y-10917174D02*
X5736876Y-10926698D01*
X5946399Y-11040984D02*
X5927352Y-11031460D01*
X5927352Y-11031460D02*
X5917828Y-11021936D01*
X5917828Y-11021936D02*
X5908304Y-11002889D01*
X5908304Y-11002889D02*
X5908304Y-10945746D01*
X5908304Y-10945746D02*
X5917828Y-10926698D01*
X5917828Y-10926698D02*
X5927352Y-10917174D01*
X5927352Y-10917174D02*
X5946399Y-10907650D01*
X5946399Y-10907650D02*
X5974971Y-10907650D01*
X5974971Y-10907650D02*
X5994019Y-10917174D01*
X5994019Y-10917174D02*
X6003542Y-10926698D01*
X6003542Y-10926698D02*
X6013066Y-10945746D01*
X6013066Y-10945746D02*
X6013066Y-11002889D01*
X6013066Y-11002889D02*
X6003542Y-11021936D01*
X6003542Y-11021936D02*
X5994019Y-11031460D01*
X5994019Y-11031460D02*
X5974971Y-11040984D01*
X5974971Y-11040984D02*
X5946399Y-11040984D01*
X6127352Y-11040984D02*
X6108304Y-11031460D01*
X6108304Y-11031460D02*
X6098780Y-11012412D01*
X6098780Y-11012412D02*
X6098780Y-10840984D01*
X6279733Y-11031460D02*
X6260685Y-11040984D01*
X6260685Y-11040984D02*
X6222590Y-11040984D01*
X6222590Y-11040984D02*
X6203542Y-11031460D01*
X6203542Y-11031460D02*
X6194019Y-11012412D01*
X6194019Y-11012412D02*
X6194019Y-10936222D01*
X6194019Y-10936222D02*
X6203542Y-10917174D01*
X6203542Y-10917174D02*
X6222590Y-10907650D01*
X6222590Y-10907650D02*
X6260685Y-10907650D01*
X6260685Y-10907650D02*
X6279733Y-10917174D01*
X6279733Y-10917174D02*
X6289257Y-10936222D01*
X6289257Y-10936222D02*
X6289257Y-10955270D01*
X6289257Y-10955270D02*
X6194019Y-10974317D01*
X6365447Y-11031460D02*
X6384495Y-11040984D01*
X6384495Y-11040984D02*
X6422590Y-11040984D01*
X6422590Y-11040984D02*
X6441638Y-11031460D01*
X6441638Y-11031460D02*
X6451161Y-11012412D01*
X6451161Y-11012412D02*
X6451161Y-11002889D01*
X6451161Y-11002889D02*
X6441638Y-10983841D01*
X6441638Y-10983841D02*
X6422590Y-10974317D01*
X6422590Y-10974317D02*
X6394019Y-10974317D01*
X6394019Y-10974317D02*
X6374971Y-10964793D01*
X6374971Y-10964793D02*
X6365447Y-10945746D01*
X6365447Y-10945746D02*
X6365447Y-10936222D01*
X6365447Y-10936222D02*
X6374971Y-10917174D01*
X6374971Y-10917174D02*
X6394019Y-10907650D01*
X6394019Y-10907650D02*
X6422590Y-10907650D01*
X6422590Y-10907650D02*
X6441638Y-10917174D01*
X6517828Y-11117174D02*
X6527352Y-11107650D01*
X6527352Y-11107650D02*
X6546400Y-11079079D01*
X6546400Y-11079079D02*
X6555923Y-11060031D01*
X6555923Y-11060031D02*
X6565447Y-11031460D01*
X6565447Y-11031460D02*
X6574971Y-10983841D01*
X6574971Y-10983841D02*
X6574971Y-10945746D01*
X6574971Y-10945746D02*
X6565447Y-10898127D01*
X6565447Y-10898127D02*
X6555923Y-10869555D01*
X6555923Y-10869555D02*
X6546400Y-10850508D01*
X6546400Y-10850508D02*
X6527352Y-10821936D01*
X6527352Y-10821936D02*
X6517828Y-10812412D01*
D16*
X1592765Y-11138500D02*
X1742765Y-11288500D01*
X1742765Y-11138500D02*
X1592765Y-11288500D01*
X1667765Y-11138500D02*
X1667765Y-11288500D01*
X1592765Y-11213500D02*
X1742765Y-11213500D01*
D11*
X2108304Y-11304984D02*
X1994018Y-11304984D01*
X2051161Y-11304984D02*
X2051161Y-11104984D01*
X2051161Y-11104984D02*
X2032113Y-11133555D01*
X2032113Y-11133555D02*
X2013066Y-11152603D01*
X2013066Y-11152603D02*
X1994018Y-11162127D01*
X2194018Y-11285936D02*
X2203542Y-11295460D01*
X2203542Y-11295460D02*
X2194018Y-11304984D01*
X2194018Y-11304984D02*
X2184494Y-11295460D01*
X2184494Y-11295460D02*
X2194018Y-11285936D01*
X2194018Y-11285936D02*
X2194018Y-11304984D01*
X2384494Y-11104984D02*
X2289256Y-11104984D01*
X2289256Y-11104984D02*
X2279733Y-11200222D01*
X2279733Y-11200222D02*
X2289256Y-11190698D01*
X2289256Y-11190698D02*
X2308304Y-11181174D01*
X2308304Y-11181174D02*
X2355923Y-11181174D01*
X2355923Y-11181174D02*
X2374971Y-11190698D01*
X2374971Y-11190698D02*
X2384494Y-11200222D01*
X2384494Y-11200222D02*
X2394018Y-11219269D01*
X2394018Y-11219269D02*
X2394018Y-11266888D01*
X2394018Y-11266888D02*
X2384494Y-11285936D01*
X2384494Y-11285936D02*
X2374971Y-11295460D01*
X2374971Y-11295460D02*
X2355923Y-11304984D01*
X2355923Y-11304984D02*
X2308304Y-11304984D01*
X2308304Y-11304984D02*
X2289256Y-11295460D01*
X2289256Y-11295460D02*
X2279733Y-11285936D01*
X2517828Y-11104984D02*
X2536875Y-11104984D01*
X2536875Y-11104984D02*
X2555923Y-11114508D01*
X2555923Y-11114508D02*
X2565447Y-11124031D01*
X2565447Y-11124031D02*
X2574971Y-11143079D01*
X2574971Y-11143079D02*
X2584494Y-11181174D01*
X2584494Y-11181174D02*
X2584494Y-11228793D01*
X2584494Y-11228793D02*
X2574971Y-11266888D01*
X2574971Y-11266888D02*
X2565447Y-11285936D01*
X2565447Y-11285936D02*
X2555923Y-11295460D01*
X2555923Y-11295460D02*
X2536875Y-11304984D01*
X2536875Y-11304984D02*
X2517828Y-11304984D01*
X2517828Y-11304984D02*
X2498780Y-11295460D01*
X2498780Y-11295460D02*
X2489256Y-11285936D01*
X2489256Y-11285936D02*
X2479733Y-11266888D01*
X2479733Y-11266888D02*
X2470209Y-11228793D01*
X2470209Y-11228793D02*
X2470209Y-11181174D01*
X2470209Y-11181174D02*
X2479733Y-11143079D01*
X2479733Y-11143079D02*
X2489256Y-11124031D01*
X2489256Y-11124031D02*
X2498780Y-11114508D01*
X2498780Y-11114508D02*
X2517828Y-11104984D01*
X2708304Y-11104984D02*
X2727352Y-11104984D01*
X2727352Y-11104984D02*
X2746399Y-11114508D01*
X2746399Y-11114508D02*
X2755923Y-11124031D01*
X2755923Y-11124031D02*
X2765447Y-11143079D01*
X2765447Y-11143079D02*
X2774971Y-11181174D01*
X2774971Y-11181174D02*
X2774971Y-11228793D01*
X2774971Y-11228793D02*
X2765447Y-11266888D01*
X2765447Y-11266888D02*
X2755923Y-11285936D01*
X2755923Y-11285936D02*
X2746399Y-11295460D01*
X2746399Y-11295460D02*
X2727352Y-11304984D01*
X2727352Y-11304984D02*
X2708304Y-11304984D01*
X2708304Y-11304984D02*
X2689256Y-11295460D01*
X2689256Y-11295460D02*
X2679733Y-11285936D01*
X2679733Y-11285936D02*
X2670209Y-11266888D01*
X2670209Y-11266888D02*
X2660685Y-11228793D01*
X2660685Y-11228793D02*
X2660685Y-11181174D01*
X2660685Y-11181174D02*
X2670209Y-11143079D01*
X2670209Y-11143079D02*
X2679733Y-11124031D01*
X2679733Y-11124031D02*
X2689256Y-11114508D01*
X2689256Y-11114508D02*
X2708304Y-11104984D01*
X2860685Y-11304984D02*
X2860685Y-11171650D01*
X2860685Y-11190698D02*
X2870209Y-11181174D01*
X2870209Y-11181174D02*
X2889256Y-11171650D01*
X2889256Y-11171650D02*
X2917828Y-11171650D01*
X2917828Y-11171650D02*
X2936875Y-11181174D01*
X2936875Y-11181174D02*
X2946399Y-11200222D01*
X2946399Y-11200222D02*
X2946399Y-11304984D01*
X2946399Y-11200222D02*
X2955923Y-11181174D01*
X2955923Y-11181174D02*
X2974971Y-11171650D01*
X2974971Y-11171650D02*
X3003542Y-11171650D01*
X3003542Y-11171650D02*
X3022590Y-11181174D01*
X3022590Y-11181174D02*
X3032113Y-11200222D01*
X3032113Y-11200222D02*
X3032113Y-11304984D01*
X3127352Y-11304984D02*
X3127352Y-11171650D01*
X3127352Y-11190698D02*
X3136875Y-11181174D01*
X3136875Y-11181174D02*
X3155923Y-11171650D01*
X3155923Y-11171650D02*
X3184494Y-11171650D01*
X3184494Y-11171650D02*
X3203542Y-11181174D01*
X3203542Y-11181174D02*
X3213066Y-11200222D01*
X3213066Y-11200222D02*
X3213066Y-11304984D01*
X3213066Y-11200222D02*
X3222590Y-11181174D01*
X3222590Y-11181174D02*
X3241637Y-11171650D01*
X3241637Y-11171650D02*
X3270209Y-11171650D01*
X3270209Y-11171650D02*
X3289256Y-11181174D01*
X3289256Y-11181174D02*
X3298780Y-11200222D01*
X3298780Y-11200222D02*
X3298780Y-11304984D01*
X3689256Y-11095460D02*
X3517828Y-11352603D01*
X3946399Y-11104984D02*
X3965447Y-11104984D01*
X3965447Y-11104984D02*
X3984495Y-11114508D01*
X3984495Y-11114508D02*
X3994018Y-11124031D01*
X3994018Y-11124031D02*
X4003542Y-11143079D01*
X4003542Y-11143079D02*
X4013066Y-11181174D01*
X4013066Y-11181174D02*
X4013066Y-11228793D01*
X4013066Y-11228793D02*
X4003542Y-11266888D01*
X4003542Y-11266888D02*
X3994018Y-11285936D01*
X3994018Y-11285936D02*
X3984495Y-11295460D01*
X3984495Y-11295460D02*
X3965447Y-11304984D01*
X3965447Y-11304984D02*
X3946399Y-11304984D01*
X3946399Y-11304984D02*
X3927352Y-11295460D01*
X3927352Y-11295460D02*
X3917828Y-11285936D01*
X3917828Y-11285936D02*
X3908304Y-11266888D01*
X3908304Y-11266888D02*
X3898780Y-11228793D01*
X3898780Y-11228793D02*
X3898780Y-11181174D01*
X3898780Y-11181174D02*
X3908304Y-11143079D01*
X3908304Y-11143079D02*
X3917828Y-11124031D01*
X3917828Y-11124031D02*
X3927352Y-11114508D01*
X3927352Y-11114508D02*
X3946399Y-11104984D01*
X4098780Y-11285936D02*
X4108304Y-11295460D01*
X4108304Y-11295460D02*
X4098780Y-11304984D01*
X4098780Y-11304984D02*
X4089256Y-11295460D01*
X4089256Y-11295460D02*
X4098780Y-11285936D01*
X4098780Y-11285936D02*
X4098780Y-11304984D01*
X4232114Y-11104984D02*
X4251161Y-11104984D01*
X4251161Y-11104984D02*
X4270209Y-11114508D01*
X4270209Y-11114508D02*
X4279733Y-11124031D01*
X4279733Y-11124031D02*
X4289257Y-11143079D01*
X4289257Y-11143079D02*
X4298780Y-11181174D01*
X4298780Y-11181174D02*
X4298780Y-11228793D01*
X4298780Y-11228793D02*
X4289257Y-11266888D01*
X4289257Y-11266888D02*
X4279733Y-11285936D01*
X4279733Y-11285936D02*
X4270209Y-11295460D01*
X4270209Y-11295460D02*
X4251161Y-11304984D01*
X4251161Y-11304984D02*
X4232114Y-11304984D01*
X4232114Y-11304984D02*
X4213066Y-11295460D01*
X4213066Y-11295460D02*
X4203542Y-11285936D01*
X4203542Y-11285936D02*
X4194018Y-11266888D01*
X4194018Y-11266888D02*
X4184495Y-11228793D01*
X4184495Y-11228793D02*
X4184495Y-11181174D01*
X4184495Y-11181174D02*
X4194018Y-11143079D01*
X4194018Y-11143079D02*
X4203542Y-11124031D01*
X4203542Y-11124031D02*
X4213066Y-11114508D01*
X4213066Y-11114508D02*
X4232114Y-11104984D01*
X4479733Y-11104984D02*
X4384495Y-11104984D01*
X4384495Y-11104984D02*
X4374971Y-11200222D01*
X4374971Y-11200222D02*
X4384495Y-11190698D01*
X4384495Y-11190698D02*
X4403542Y-11181174D01*
X4403542Y-11181174D02*
X4451161Y-11181174D01*
X4451161Y-11181174D02*
X4470209Y-11190698D01*
X4470209Y-11190698D02*
X4479733Y-11200222D01*
X4479733Y-11200222D02*
X4489257Y-11219269D01*
X4489257Y-11219269D02*
X4489257Y-11266888D01*
X4489257Y-11266888D02*
X4479733Y-11285936D01*
X4479733Y-11285936D02*
X4470209Y-11295460D01*
X4470209Y-11295460D02*
X4451161Y-11304984D01*
X4451161Y-11304984D02*
X4403542Y-11304984D01*
X4403542Y-11304984D02*
X4384495Y-11295460D01*
X4384495Y-11295460D02*
X4374971Y-11285936D01*
X4584495Y-11304984D02*
X4622590Y-11304984D01*
X4622590Y-11304984D02*
X4641638Y-11295460D01*
X4641638Y-11295460D02*
X4651161Y-11285936D01*
X4651161Y-11285936D02*
X4670209Y-11257365D01*
X4670209Y-11257365D02*
X4679733Y-11219269D01*
X4679733Y-11219269D02*
X4679733Y-11143079D01*
X4679733Y-11143079D02*
X4670209Y-11124031D01*
X4670209Y-11124031D02*
X4660685Y-11114508D01*
X4660685Y-11114508D02*
X4641638Y-11104984D01*
X4641638Y-11104984D02*
X4603542Y-11104984D01*
X4603542Y-11104984D02*
X4584495Y-11114508D01*
X4584495Y-11114508D02*
X4574971Y-11124031D01*
X4574971Y-11124031D02*
X4565447Y-11143079D01*
X4565447Y-11143079D02*
X4565447Y-11190698D01*
X4565447Y-11190698D02*
X4574971Y-11209746D01*
X4574971Y-11209746D02*
X4584495Y-11219269D01*
X4584495Y-11219269D02*
X4603542Y-11228793D01*
X4603542Y-11228793D02*
X4641638Y-11228793D01*
X4641638Y-11228793D02*
X4660685Y-11219269D01*
X4660685Y-11219269D02*
X4670209Y-11209746D01*
X4670209Y-11209746D02*
X4679733Y-11190698D01*
X4870209Y-11304984D02*
X4755923Y-11304984D01*
X4813066Y-11304984D02*
X4813066Y-11104984D01*
X4813066Y-11104984D02*
X4794018Y-11133555D01*
X4794018Y-11133555D02*
X4774971Y-11152603D01*
X4774971Y-11152603D02*
X4755923Y-11162127D01*
X4946399Y-11104984D02*
X4946399Y-11143079D01*
X5022590Y-11104984D02*
X5022590Y-11143079D01*
X5317828Y-11381174D02*
X5308304Y-11371650D01*
X5308304Y-11371650D02*
X5289257Y-11343079D01*
X5289257Y-11343079D02*
X5279733Y-11324031D01*
X5279733Y-11324031D02*
X5270209Y-11295460D01*
X5270209Y-11295460D02*
X5260685Y-11247841D01*
X5260685Y-11247841D02*
X5260685Y-11209746D01*
X5260685Y-11209746D02*
X5270209Y-11162127D01*
X5270209Y-11162127D02*
X5279733Y-11133555D01*
X5279733Y-11133555D02*
X5289257Y-11114508D01*
X5289257Y-11114508D02*
X5308304Y-11085936D01*
X5308304Y-11085936D02*
X5317828Y-11076412D01*
X5498780Y-11304984D02*
X5384495Y-11304984D01*
X5441638Y-11304984D02*
X5441638Y-11104984D01*
X5441638Y-11104984D02*
X5422590Y-11133555D01*
X5422590Y-11133555D02*
X5403542Y-11152603D01*
X5403542Y-11152603D02*
X5384495Y-11162127D01*
X5670209Y-11104984D02*
X5632114Y-11104984D01*
X5632114Y-11104984D02*
X5613066Y-11114508D01*
X5613066Y-11114508D02*
X5603542Y-11124031D01*
X5603542Y-11124031D02*
X5584495Y-11152603D01*
X5584495Y-11152603D02*
X5574971Y-11190698D01*
X5574971Y-11190698D02*
X5574971Y-11266888D01*
X5574971Y-11266888D02*
X5584495Y-11285936D01*
X5584495Y-11285936D02*
X5594018Y-11295460D01*
X5594018Y-11295460D02*
X5613066Y-11304984D01*
X5613066Y-11304984D02*
X5651161Y-11304984D01*
X5651161Y-11304984D02*
X5670209Y-11295460D01*
X5670209Y-11295460D02*
X5679733Y-11285936D01*
X5679733Y-11285936D02*
X5689257Y-11266888D01*
X5689257Y-11266888D02*
X5689257Y-11219269D01*
X5689257Y-11219269D02*
X5679733Y-11200222D01*
X5679733Y-11200222D02*
X5670209Y-11190698D01*
X5670209Y-11190698D02*
X5651161Y-11181174D01*
X5651161Y-11181174D02*
X5613066Y-11181174D01*
X5613066Y-11181174D02*
X5594018Y-11190698D01*
X5594018Y-11190698D02*
X5584495Y-11200222D01*
X5584495Y-11200222D02*
X5574971Y-11219269D01*
X5927352Y-11304984D02*
X5927352Y-11104984D01*
X6013066Y-11304984D02*
X6013066Y-11200222D01*
X6013066Y-11200222D02*
X6003542Y-11181174D01*
X6003542Y-11181174D02*
X5984495Y-11171650D01*
X5984495Y-11171650D02*
X5955923Y-11171650D01*
X5955923Y-11171650D02*
X5936876Y-11181174D01*
X5936876Y-11181174D02*
X5927352Y-11190698D01*
X6136876Y-11304984D02*
X6117828Y-11295460D01*
X6117828Y-11295460D02*
X6108304Y-11285936D01*
X6108304Y-11285936D02*
X6098780Y-11266888D01*
X6098780Y-11266888D02*
X6098780Y-11209746D01*
X6098780Y-11209746D02*
X6108304Y-11190698D01*
X6108304Y-11190698D02*
X6117828Y-11181174D01*
X6117828Y-11181174D02*
X6136876Y-11171650D01*
X6136876Y-11171650D02*
X6165447Y-11171650D01*
X6165447Y-11171650D02*
X6184495Y-11181174D01*
X6184495Y-11181174D02*
X6194019Y-11190698D01*
X6194019Y-11190698D02*
X6203542Y-11209746D01*
X6203542Y-11209746D02*
X6203542Y-11266888D01*
X6203542Y-11266888D02*
X6194019Y-11285936D01*
X6194019Y-11285936D02*
X6184495Y-11295460D01*
X6184495Y-11295460D02*
X6165447Y-11304984D01*
X6165447Y-11304984D02*
X6136876Y-11304984D01*
X6317828Y-11304984D02*
X6298780Y-11295460D01*
X6298780Y-11295460D02*
X6289257Y-11276412D01*
X6289257Y-11276412D02*
X6289257Y-11104984D01*
X6470209Y-11295460D02*
X6451161Y-11304984D01*
X6451161Y-11304984D02*
X6413066Y-11304984D01*
X6413066Y-11304984D02*
X6394019Y-11295460D01*
X6394019Y-11295460D02*
X6384495Y-11276412D01*
X6384495Y-11276412D02*
X6384495Y-11200222D01*
X6384495Y-11200222D02*
X6394019Y-11181174D01*
X6394019Y-11181174D02*
X6413066Y-11171650D01*
X6413066Y-11171650D02*
X6451161Y-11171650D01*
X6451161Y-11171650D02*
X6470209Y-11181174D01*
X6470209Y-11181174D02*
X6479733Y-11200222D01*
X6479733Y-11200222D02*
X6479733Y-11219269D01*
X6479733Y-11219269D02*
X6384495Y-11238317D01*
X6555923Y-11295460D02*
X6574971Y-11304984D01*
X6574971Y-11304984D02*
X6613066Y-11304984D01*
X6613066Y-11304984D02*
X6632114Y-11295460D01*
X6632114Y-11295460D02*
X6641638Y-11276412D01*
X6641638Y-11276412D02*
X6641638Y-11266888D01*
X6641638Y-11266888D02*
X6632114Y-11247841D01*
X6632114Y-11247841D02*
X6613066Y-11238317D01*
X6613066Y-11238317D02*
X6584495Y-11238317D01*
X6584495Y-11238317D02*
X6565447Y-11228793D01*
X6565447Y-11228793D02*
X6555923Y-11209746D01*
X6555923Y-11209746D02*
X6555923Y-11200222D01*
X6555923Y-11200222D02*
X6565447Y-11181174D01*
X6565447Y-11181174D02*
X6584495Y-11171650D01*
X6584495Y-11171650D02*
X6613066Y-11171650D01*
X6613066Y-11171650D02*
X6632114Y-11181174D01*
X6708304Y-11381174D02*
X6717828Y-11371650D01*
X6717828Y-11371650D02*
X6736876Y-11343079D01*
X6736876Y-11343079D02*
X6746400Y-11324031D01*
X6746400Y-11324031D02*
X6755923Y-11295460D01*
X6755923Y-11295460D02*
X6765447Y-11247841D01*
X6765447Y-11247841D02*
X6765447Y-11209746D01*
X6765447Y-11209746D02*
X6755923Y-11162127D01*
X6755923Y-11162127D02*
X6746400Y-11133555D01*
X6746400Y-11133555D02*
X6736876Y-11114508D01*
X6736876Y-11114508D02*
X6717828Y-11085936D01*
X6717828Y-11085936D02*
X6708304Y-11076412D01*
D17*
X1572765Y-11398500D02*
X1742765Y-11568500D01*
X1742765Y-11398500D02*
X1572765Y-11568500D01*
X1717870Y-11543605D02*
X1717870Y-11423395D01*
X1597660Y-11423395D01*
X1597660Y-11543605D01*
X1717870Y-11543605D01*
D11*
X2108304Y-11574984D02*
X1994018Y-11574984D01*
X2051161Y-11574984D02*
X2051161Y-11374984D01*
X2051161Y-11374984D02*
X2032113Y-11403555D01*
X2032113Y-11403555D02*
X2013066Y-11422603D01*
X2013066Y-11422603D02*
X1994018Y-11432127D01*
X2194018Y-11555936D02*
X2203542Y-11565460D01*
X2203542Y-11565460D02*
X2194018Y-11574984D01*
X2194018Y-11574984D02*
X2184494Y-11565460D01*
X2184494Y-11565460D02*
X2194018Y-11555936D01*
X2194018Y-11555936D02*
X2194018Y-11574984D01*
X2270209Y-11374984D02*
X2403542Y-11374984D01*
X2403542Y-11374984D02*
X2317828Y-11574984D01*
X2517828Y-11374984D02*
X2536875Y-11374984D01*
X2536875Y-11374984D02*
X2555923Y-11384508D01*
X2555923Y-11384508D02*
X2565447Y-11394031D01*
X2565447Y-11394031D02*
X2574971Y-11413079D01*
X2574971Y-11413079D02*
X2584494Y-11451174D01*
X2584494Y-11451174D02*
X2584494Y-11498793D01*
X2584494Y-11498793D02*
X2574971Y-11536888D01*
X2574971Y-11536888D02*
X2565447Y-11555936D01*
X2565447Y-11555936D02*
X2555923Y-11565460D01*
X2555923Y-11565460D02*
X2536875Y-11574984D01*
X2536875Y-11574984D02*
X2517828Y-11574984D01*
X2517828Y-11574984D02*
X2498780Y-11565460D01*
X2498780Y-11565460D02*
X2489256Y-11555936D01*
X2489256Y-11555936D02*
X2479733Y-11536888D01*
X2479733Y-11536888D02*
X2470209Y-11498793D01*
X2470209Y-11498793D02*
X2470209Y-11451174D01*
X2470209Y-11451174D02*
X2479733Y-11413079D01*
X2479733Y-11413079D02*
X2489256Y-11394031D01*
X2489256Y-11394031D02*
X2498780Y-11384508D01*
X2498780Y-11384508D02*
X2517828Y-11374984D01*
X2708304Y-11374984D02*
X2727352Y-11374984D01*
X2727352Y-11374984D02*
X2746399Y-11384508D01*
X2746399Y-11384508D02*
X2755923Y-11394031D01*
X2755923Y-11394031D02*
X2765447Y-11413079D01*
X2765447Y-11413079D02*
X2774971Y-11451174D01*
X2774971Y-11451174D02*
X2774971Y-11498793D01*
X2774971Y-11498793D02*
X2765447Y-11536888D01*
X2765447Y-11536888D02*
X2755923Y-11555936D01*
X2755923Y-11555936D02*
X2746399Y-11565460D01*
X2746399Y-11565460D02*
X2727352Y-11574984D01*
X2727352Y-11574984D02*
X2708304Y-11574984D01*
X2708304Y-11574984D02*
X2689256Y-11565460D01*
X2689256Y-11565460D02*
X2679733Y-11555936D01*
X2679733Y-11555936D02*
X2670209Y-11536888D01*
X2670209Y-11536888D02*
X2660685Y-11498793D01*
X2660685Y-11498793D02*
X2660685Y-11451174D01*
X2660685Y-11451174D02*
X2670209Y-11413079D01*
X2670209Y-11413079D02*
X2679733Y-11394031D01*
X2679733Y-11394031D02*
X2689256Y-11384508D01*
X2689256Y-11384508D02*
X2708304Y-11374984D01*
X2860685Y-11574984D02*
X2860685Y-11441650D01*
X2860685Y-11460698D02*
X2870209Y-11451174D01*
X2870209Y-11451174D02*
X2889256Y-11441650D01*
X2889256Y-11441650D02*
X2917828Y-11441650D01*
X2917828Y-11441650D02*
X2936875Y-11451174D01*
X2936875Y-11451174D02*
X2946399Y-11470222D01*
X2946399Y-11470222D02*
X2946399Y-11574984D01*
X2946399Y-11470222D02*
X2955923Y-11451174D01*
X2955923Y-11451174D02*
X2974971Y-11441650D01*
X2974971Y-11441650D02*
X3003542Y-11441650D01*
X3003542Y-11441650D02*
X3022590Y-11451174D01*
X3022590Y-11451174D02*
X3032113Y-11470222D01*
X3032113Y-11470222D02*
X3032113Y-11574984D01*
X3127352Y-11574984D02*
X3127352Y-11441650D01*
X3127352Y-11460698D02*
X3136875Y-11451174D01*
X3136875Y-11451174D02*
X3155923Y-11441650D01*
X3155923Y-11441650D02*
X3184494Y-11441650D01*
X3184494Y-11441650D02*
X3203542Y-11451174D01*
X3203542Y-11451174D02*
X3213066Y-11470222D01*
X3213066Y-11470222D02*
X3213066Y-11574984D01*
X3213066Y-11470222D02*
X3222590Y-11451174D01*
X3222590Y-11451174D02*
X3241637Y-11441650D01*
X3241637Y-11441650D02*
X3270209Y-11441650D01*
X3270209Y-11441650D02*
X3289256Y-11451174D01*
X3289256Y-11451174D02*
X3298780Y-11470222D01*
X3298780Y-11470222D02*
X3298780Y-11574984D01*
X3689256Y-11365460D02*
X3517828Y-11622603D01*
X3946399Y-11374984D02*
X3965447Y-11374984D01*
X3965447Y-11374984D02*
X3984495Y-11384508D01*
X3984495Y-11384508D02*
X3994018Y-11394031D01*
X3994018Y-11394031D02*
X4003542Y-11413079D01*
X4003542Y-11413079D02*
X4013066Y-11451174D01*
X4013066Y-11451174D02*
X4013066Y-11498793D01*
X4013066Y-11498793D02*
X4003542Y-11536888D01*
X4003542Y-11536888D02*
X3994018Y-11555936D01*
X3994018Y-11555936D02*
X3984495Y-11565460D01*
X3984495Y-11565460D02*
X3965447Y-11574984D01*
X3965447Y-11574984D02*
X3946399Y-11574984D01*
X3946399Y-11574984D02*
X3927352Y-11565460D01*
X3927352Y-11565460D02*
X3917828Y-11555936D01*
X3917828Y-11555936D02*
X3908304Y-11536888D01*
X3908304Y-11536888D02*
X3898780Y-11498793D01*
X3898780Y-11498793D02*
X3898780Y-11451174D01*
X3898780Y-11451174D02*
X3908304Y-11413079D01*
X3908304Y-11413079D02*
X3917828Y-11394031D01*
X3917828Y-11394031D02*
X3927352Y-11384508D01*
X3927352Y-11384508D02*
X3946399Y-11374984D01*
X4098780Y-11555936D02*
X4108304Y-11565460D01*
X4108304Y-11565460D02*
X4098780Y-11574984D01*
X4098780Y-11574984D02*
X4089256Y-11565460D01*
X4089256Y-11565460D02*
X4098780Y-11555936D01*
X4098780Y-11555936D02*
X4098780Y-11574984D01*
X4232114Y-11374984D02*
X4251161Y-11374984D01*
X4251161Y-11374984D02*
X4270209Y-11384508D01*
X4270209Y-11384508D02*
X4279733Y-11394031D01*
X4279733Y-11394031D02*
X4289257Y-11413079D01*
X4289257Y-11413079D02*
X4298780Y-11451174D01*
X4298780Y-11451174D02*
X4298780Y-11498793D01*
X4298780Y-11498793D02*
X4289257Y-11536888D01*
X4289257Y-11536888D02*
X4279733Y-11555936D01*
X4279733Y-11555936D02*
X4270209Y-11565460D01*
X4270209Y-11565460D02*
X4251161Y-11574984D01*
X4251161Y-11574984D02*
X4232114Y-11574984D01*
X4232114Y-11574984D02*
X4213066Y-11565460D01*
X4213066Y-11565460D02*
X4203542Y-11555936D01*
X4203542Y-11555936D02*
X4194018Y-11536888D01*
X4194018Y-11536888D02*
X4184495Y-11498793D01*
X4184495Y-11498793D02*
X4184495Y-11451174D01*
X4184495Y-11451174D02*
X4194018Y-11413079D01*
X4194018Y-11413079D02*
X4203542Y-11394031D01*
X4203542Y-11394031D02*
X4213066Y-11384508D01*
X4213066Y-11384508D02*
X4232114Y-11374984D01*
X4470209Y-11374984D02*
X4432114Y-11374984D01*
X4432114Y-11374984D02*
X4413066Y-11384508D01*
X4413066Y-11384508D02*
X4403542Y-11394031D01*
X4403542Y-11394031D02*
X4384495Y-11422603D01*
X4384495Y-11422603D02*
X4374971Y-11460698D01*
X4374971Y-11460698D02*
X4374971Y-11536888D01*
X4374971Y-11536888D02*
X4384495Y-11555936D01*
X4384495Y-11555936D02*
X4394018Y-11565460D01*
X4394018Y-11565460D02*
X4413066Y-11574984D01*
X4413066Y-11574984D02*
X4451161Y-11574984D01*
X4451161Y-11574984D02*
X4470209Y-11565460D01*
X4470209Y-11565460D02*
X4479733Y-11555936D01*
X4479733Y-11555936D02*
X4489257Y-11536888D01*
X4489257Y-11536888D02*
X4489257Y-11489269D01*
X4489257Y-11489269D02*
X4479733Y-11470222D01*
X4479733Y-11470222D02*
X4470209Y-11460698D01*
X4470209Y-11460698D02*
X4451161Y-11451174D01*
X4451161Y-11451174D02*
X4413066Y-11451174D01*
X4413066Y-11451174D02*
X4394018Y-11460698D01*
X4394018Y-11460698D02*
X4384495Y-11470222D01*
X4384495Y-11470222D02*
X4374971Y-11489269D01*
X4660685Y-11374984D02*
X4622590Y-11374984D01*
X4622590Y-11374984D02*
X4603542Y-11384508D01*
X4603542Y-11384508D02*
X4594018Y-11394031D01*
X4594018Y-11394031D02*
X4574971Y-11422603D01*
X4574971Y-11422603D02*
X4565447Y-11460698D01*
X4565447Y-11460698D02*
X4565447Y-11536888D01*
X4565447Y-11536888D02*
X4574971Y-11555936D01*
X4574971Y-11555936D02*
X4584495Y-11565460D01*
X4584495Y-11565460D02*
X4603542Y-11574984D01*
X4603542Y-11574984D02*
X4641638Y-11574984D01*
X4641638Y-11574984D02*
X4660685Y-11565460D01*
X4660685Y-11565460D02*
X4670209Y-11555936D01*
X4670209Y-11555936D02*
X4679733Y-11536888D01*
X4679733Y-11536888D02*
X4679733Y-11489269D01*
X4679733Y-11489269D02*
X4670209Y-11470222D01*
X4670209Y-11470222D02*
X4660685Y-11460698D01*
X4660685Y-11460698D02*
X4641638Y-11451174D01*
X4641638Y-11451174D02*
X4603542Y-11451174D01*
X4603542Y-11451174D02*
X4584495Y-11460698D01*
X4584495Y-11460698D02*
X4574971Y-11470222D01*
X4574971Y-11470222D02*
X4565447Y-11489269D01*
X4774971Y-11574984D02*
X4813066Y-11574984D01*
X4813066Y-11574984D02*
X4832114Y-11565460D01*
X4832114Y-11565460D02*
X4841638Y-11555936D01*
X4841638Y-11555936D02*
X4860685Y-11527365D01*
X4860685Y-11527365D02*
X4870209Y-11489269D01*
X4870209Y-11489269D02*
X4870209Y-11413079D01*
X4870209Y-11413079D02*
X4860685Y-11394031D01*
X4860685Y-11394031D02*
X4851161Y-11384508D01*
X4851161Y-11384508D02*
X4832114Y-11374984D01*
X4832114Y-11374984D02*
X4794018Y-11374984D01*
X4794018Y-11374984D02*
X4774971Y-11384508D01*
X4774971Y-11384508D02*
X4765447Y-11394031D01*
X4765447Y-11394031D02*
X4755923Y-11413079D01*
X4755923Y-11413079D02*
X4755923Y-11460698D01*
X4755923Y-11460698D02*
X4765447Y-11479746D01*
X4765447Y-11479746D02*
X4774971Y-11489269D01*
X4774971Y-11489269D02*
X4794018Y-11498793D01*
X4794018Y-11498793D02*
X4832114Y-11498793D01*
X4832114Y-11498793D02*
X4851161Y-11489269D01*
X4851161Y-11489269D02*
X4860685Y-11479746D01*
X4860685Y-11479746D02*
X4870209Y-11460698D01*
X4946399Y-11374984D02*
X4946399Y-11413079D01*
X5022590Y-11374984D02*
X5022590Y-11413079D01*
X5317828Y-11651174D02*
X5308304Y-11641650D01*
X5308304Y-11641650D02*
X5289257Y-11613079D01*
X5289257Y-11613079D02*
X5279733Y-11594031D01*
X5279733Y-11594031D02*
X5270209Y-11565460D01*
X5270209Y-11565460D02*
X5260685Y-11517841D01*
X5260685Y-11517841D02*
X5260685Y-11479746D01*
X5260685Y-11479746D02*
X5270209Y-11432127D01*
X5270209Y-11432127D02*
X5279733Y-11403555D01*
X5279733Y-11403555D02*
X5289257Y-11384508D01*
X5289257Y-11384508D02*
X5308304Y-11355936D01*
X5308304Y-11355936D02*
X5317828Y-11346412D01*
X5403542Y-11574984D02*
X5441638Y-11574984D01*
X5441638Y-11574984D02*
X5460685Y-11565460D01*
X5460685Y-11565460D02*
X5470209Y-11555936D01*
X5470209Y-11555936D02*
X5489257Y-11527365D01*
X5489257Y-11527365D02*
X5498780Y-11489269D01*
X5498780Y-11489269D02*
X5498780Y-11413079D01*
X5498780Y-11413079D02*
X5489257Y-11394031D01*
X5489257Y-11394031D02*
X5479733Y-11384508D01*
X5479733Y-11384508D02*
X5460685Y-11374984D01*
X5460685Y-11374984D02*
X5422590Y-11374984D01*
X5422590Y-11374984D02*
X5403542Y-11384508D01*
X5403542Y-11384508D02*
X5394019Y-11394031D01*
X5394019Y-11394031D02*
X5384495Y-11413079D01*
X5384495Y-11413079D02*
X5384495Y-11460698D01*
X5384495Y-11460698D02*
X5394019Y-11479746D01*
X5394019Y-11479746D02*
X5403542Y-11489269D01*
X5403542Y-11489269D02*
X5422590Y-11498793D01*
X5422590Y-11498793D02*
X5460685Y-11498793D01*
X5460685Y-11498793D02*
X5479733Y-11489269D01*
X5479733Y-11489269D02*
X5489257Y-11479746D01*
X5489257Y-11479746D02*
X5498780Y-11460698D01*
X5736876Y-11574984D02*
X5736876Y-11374984D01*
X5822590Y-11574984D02*
X5822590Y-11470222D01*
X5822590Y-11470222D02*
X5813066Y-11451174D01*
X5813066Y-11451174D02*
X5794019Y-11441650D01*
X5794019Y-11441650D02*
X5765447Y-11441650D01*
X5765447Y-11441650D02*
X5746399Y-11451174D01*
X5746399Y-11451174D02*
X5736876Y-11460698D01*
X5946399Y-11574984D02*
X5927352Y-11565460D01*
X5927352Y-11565460D02*
X5917828Y-11555936D01*
X5917828Y-11555936D02*
X5908304Y-11536888D01*
X5908304Y-11536888D02*
X5908304Y-11479746D01*
X5908304Y-11479746D02*
X5917828Y-11460698D01*
X5917828Y-11460698D02*
X5927352Y-11451174D01*
X5927352Y-11451174D02*
X5946399Y-11441650D01*
X5946399Y-11441650D02*
X5974971Y-11441650D01*
X5974971Y-11441650D02*
X5994019Y-11451174D01*
X5994019Y-11451174D02*
X6003542Y-11460698D01*
X6003542Y-11460698D02*
X6013066Y-11479746D01*
X6013066Y-11479746D02*
X6013066Y-11536888D01*
X6013066Y-11536888D02*
X6003542Y-11555936D01*
X6003542Y-11555936D02*
X5994019Y-11565460D01*
X5994019Y-11565460D02*
X5974971Y-11574984D01*
X5974971Y-11574984D02*
X5946399Y-11574984D01*
X6127352Y-11574984D02*
X6108304Y-11565460D01*
X6108304Y-11565460D02*
X6098780Y-11546412D01*
X6098780Y-11546412D02*
X6098780Y-11374984D01*
X6279733Y-11565460D02*
X6260685Y-11574984D01*
X6260685Y-11574984D02*
X6222590Y-11574984D01*
X6222590Y-11574984D02*
X6203542Y-11565460D01*
X6203542Y-11565460D02*
X6194019Y-11546412D01*
X6194019Y-11546412D02*
X6194019Y-11470222D01*
X6194019Y-11470222D02*
X6203542Y-11451174D01*
X6203542Y-11451174D02*
X6222590Y-11441650D01*
X6222590Y-11441650D02*
X6260685Y-11441650D01*
X6260685Y-11441650D02*
X6279733Y-11451174D01*
X6279733Y-11451174D02*
X6289257Y-11470222D01*
X6289257Y-11470222D02*
X6289257Y-11489269D01*
X6289257Y-11489269D02*
X6194019Y-11508317D01*
X6365447Y-11565460D02*
X6384495Y-11574984D01*
X6384495Y-11574984D02*
X6422590Y-11574984D01*
X6422590Y-11574984D02*
X6441638Y-11565460D01*
X6441638Y-11565460D02*
X6451161Y-11546412D01*
X6451161Y-11546412D02*
X6451161Y-11536888D01*
X6451161Y-11536888D02*
X6441638Y-11517841D01*
X6441638Y-11517841D02*
X6422590Y-11508317D01*
X6422590Y-11508317D02*
X6394019Y-11508317D01*
X6394019Y-11508317D02*
X6374971Y-11498793D01*
X6374971Y-11498793D02*
X6365447Y-11479746D01*
X6365447Y-11479746D02*
X6365447Y-11470222D01*
X6365447Y-11470222D02*
X6374971Y-11451174D01*
X6374971Y-11451174D02*
X6394019Y-11441650D01*
X6394019Y-11441650D02*
X6422590Y-11441650D01*
X6422590Y-11441650D02*
X6441638Y-11451174D01*
X6517828Y-11651174D02*
X6527352Y-11641650D01*
X6527352Y-11641650D02*
X6546400Y-11613079D01*
X6546400Y-11613079D02*
X6555923Y-11594031D01*
X6555923Y-11594031D02*
X6565447Y-11565460D01*
X6565447Y-11565460D02*
X6574971Y-11517841D01*
X6574971Y-11517841D02*
X6574971Y-11479746D01*
X6574971Y-11479746D02*
X6565447Y-11432127D01*
X6565447Y-11432127D02*
X6555923Y-11403555D01*
X6555923Y-11403555D02*
X6546400Y-11384508D01*
X6546400Y-11384508D02*
X6527352Y-11355936D01*
X6527352Y-11355936D02*
X6517828Y-11346412D01*
D18*
X1566765Y-11685500D02*
X1742765Y-11861500D01*
X1742765Y-11685500D02*
X1566765Y-11861500D01*
X1654765Y-11861500D02*
X1742765Y-11773500D01*
X1654765Y-11685500D01*
X1566765Y-11773500D01*
X1654765Y-11861500D01*
D11*
X2108304Y-11864984D02*
X1994018Y-11864984D01*
X2051161Y-11864984D02*
X2051161Y-11664984D01*
X2051161Y-11664984D02*
X2032113Y-11693555D01*
X2032113Y-11693555D02*
X2013066Y-11712603D01*
X2013066Y-11712603D02*
X1994018Y-11722127D01*
X2194018Y-11845936D02*
X2203542Y-11855460D01*
X2203542Y-11855460D02*
X2194018Y-11864984D01*
X2194018Y-11864984D02*
X2184494Y-11855460D01*
X2184494Y-11855460D02*
X2194018Y-11845936D01*
X2194018Y-11845936D02*
X2194018Y-11864984D01*
X2270209Y-11664984D02*
X2403542Y-11664984D01*
X2403542Y-11664984D02*
X2317828Y-11864984D01*
X2565447Y-11664984D02*
X2527352Y-11664984D01*
X2527352Y-11664984D02*
X2508304Y-11674508D01*
X2508304Y-11674508D02*
X2498780Y-11684031D01*
X2498780Y-11684031D02*
X2479733Y-11712603D01*
X2479733Y-11712603D02*
X2470209Y-11750698D01*
X2470209Y-11750698D02*
X2470209Y-11826888D01*
X2470209Y-11826888D02*
X2479733Y-11845936D01*
X2479733Y-11845936D02*
X2489256Y-11855460D01*
X2489256Y-11855460D02*
X2508304Y-11864984D01*
X2508304Y-11864984D02*
X2546399Y-11864984D01*
X2546399Y-11864984D02*
X2565447Y-11855460D01*
X2565447Y-11855460D02*
X2574971Y-11845936D01*
X2574971Y-11845936D02*
X2584494Y-11826888D01*
X2584494Y-11826888D02*
X2584494Y-11779269D01*
X2584494Y-11779269D02*
X2574971Y-11760222D01*
X2574971Y-11760222D02*
X2565447Y-11750698D01*
X2565447Y-11750698D02*
X2546399Y-11741174D01*
X2546399Y-11741174D02*
X2508304Y-11741174D01*
X2508304Y-11741174D02*
X2489256Y-11750698D01*
X2489256Y-11750698D02*
X2479733Y-11760222D01*
X2479733Y-11760222D02*
X2470209Y-11779269D01*
X2708304Y-11664984D02*
X2727352Y-11664984D01*
X2727352Y-11664984D02*
X2746399Y-11674508D01*
X2746399Y-11674508D02*
X2755923Y-11684031D01*
X2755923Y-11684031D02*
X2765447Y-11703079D01*
X2765447Y-11703079D02*
X2774971Y-11741174D01*
X2774971Y-11741174D02*
X2774971Y-11788793D01*
X2774971Y-11788793D02*
X2765447Y-11826888D01*
X2765447Y-11826888D02*
X2755923Y-11845936D01*
X2755923Y-11845936D02*
X2746399Y-11855460D01*
X2746399Y-11855460D02*
X2727352Y-11864984D01*
X2727352Y-11864984D02*
X2708304Y-11864984D01*
X2708304Y-11864984D02*
X2689256Y-11855460D01*
X2689256Y-11855460D02*
X2679733Y-11845936D01*
X2679733Y-11845936D02*
X2670209Y-11826888D01*
X2670209Y-11826888D02*
X2660685Y-11788793D01*
X2660685Y-11788793D02*
X2660685Y-11741174D01*
X2660685Y-11741174D02*
X2670209Y-11703079D01*
X2670209Y-11703079D02*
X2679733Y-11684031D01*
X2679733Y-11684031D02*
X2689256Y-11674508D01*
X2689256Y-11674508D02*
X2708304Y-11664984D01*
X2860685Y-11864984D02*
X2860685Y-11731650D01*
X2860685Y-11750698D02*
X2870209Y-11741174D01*
X2870209Y-11741174D02*
X2889256Y-11731650D01*
X2889256Y-11731650D02*
X2917828Y-11731650D01*
X2917828Y-11731650D02*
X2936875Y-11741174D01*
X2936875Y-11741174D02*
X2946399Y-11760222D01*
X2946399Y-11760222D02*
X2946399Y-11864984D01*
X2946399Y-11760222D02*
X2955923Y-11741174D01*
X2955923Y-11741174D02*
X2974971Y-11731650D01*
X2974971Y-11731650D02*
X3003542Y-11731650D01*
X3003542Y-11731650D02*
X3022590Y-11741174D01*
X3022590Y-11741174D02*
X3032113Y-11760222D01*
X3032113Y-11760222D02*
X3032113Y-11864984D01*
X3127352Y-11864984D02*
X3127352Y-11731650D01*
X3127352Y-11750698D02*
X3136875Y-11741174D01*
X3136875Y-11741174D02*
X3155923Y-11731650D01*
X3155923Y-11731650D02*
X3184494Y-11731650D01*
X3184494Y-11731650D02*
X3203542Y-11741174D01*
X3203542Y-11741174D02*
X3213066Y-11760222D01*
X3213066Y-11760222D02*
X3213066Y-11864984D01*
X3213066Y-11760222D02*
X3222590Y-11741174D01*
X3222590Y-11741174D02*
X3241637Y-11731650D01*
X3241637Y-11731650D02*
X3270209Y-11731650D01*
X3270209Y-11731650D02*
X3289256Y-11741174D01*
X3289256Y-11741174D02*
X3298780Y-11760222D01*
X3298780Y-11760222D02*
X3298780Y-11864984D01*
X3689256Y-11655460D02*
X3517828Y-11912603D01*
X3946399Y-11664984D02*
X3965447Y-11664984D01*
X3965447Y-11664984D02*
X3984495Y-11674508D01*
X3984495Y-11674508D02*
X3994018Y-11684031D01*
X3994018Y-11684031D02*
X4003542Y-11703079D01*
X4003542Y-11703079D02*
X4013066Y-11741174D01*
X4013066Y-11741174D02*
X4013066Y-11788793D01*
X4013066Y-11788793D02*
X4003542Y-11826888D01*
X4003542Y-11826888D02*
X3994018Y-11845936D01*
X3994018Y-11845936D02*
X3984495Y-11855460D01*
X3984495Y-11855460D02*
X3965447Y-11864984D01*
X3965447Y-11864984D02*
X3946399Y-11864984D01*
X3946399Y-11864984D02*
X3927352Y-11855460D01*
X3927352Y-11855460D02*
X3917828Y-11845936D01*
X3917828Y-11845936D02*
X3908304Y-11826888D01*
X3908304Y-11826888D02*
X3898780Y-11788793D01*
X3898780Y-11788793D02*
X3898780Y-11741174D01*
X3898780Y-11741174D02*
X3908304Y-11703079D01*
X3908304Y-11703079D02*
X3917828Y-11684031D01*
X3917828Y-11684031D02*
X3927352Y-11674508D01*
X3927352Y-11674508D02*
X3946399Y-11664984D01*
X4098780Y-11845936D02*
X4108304Y-11855460D01*
X4108304Y-11855460D02*
X4098780Y-11864984D01*
X4098780Y-11864984D02*
X4089256Y-11855460D01*
X4089256Y-11855460D02*
X4098780Y-11845936D01*
X4098780Y-11845936D02*
X4098780Y-11864984D01*
X4232114Y-11664984D02*
X4251161Y-11664984D01*
X4251161Y-11664984D02*
X4270209Y-11674508D01*
X4270209Y-11674508D02*
X4279733Y-11684031D01*
X4279733Y-11684031D02*
X4289257Y-11703079D01*
X4289257Y-11703079D02*
X4298780Y-11741174D01*
X4298780Y-11741174D02*
X4298780Y-11788793D01*
X4298780Y-11788793D02*
X4289257Y-11826888D01*
X4289257Y-11826888D02*
X4279733Y-11845936D01*
X4279733Y-11845936D02*
X4270209Y-11855460D01*
X4270209Y-11855460D02*
X4251161Y-11864984D01*
X4251161Y-11864984D02*
X4232114Y-11864984D01*
X4232114Y-11864984D02*
X4213066Y-11855460D01*
X4213066Y-11855460D02*
X4203542Y-11845936D01*
X4203542Y-11845936D02*
X4194018Y-11826888D01*
X4194018Y-11826888D02*
X4184495Y-11788793D01*
X4184495Y-11788793D02*
X4184495Y-11741174D01*
X4184495Y-11741174D02*
X4194018Y-11703079D01*
X4194018Y-11703079D02*
X4203542Y-11684031D01*
X4203542Y-11684031D02*
X4213066Y-11674508D01*
X4213066Y-11674508D02*
X4232114Y-11664984D01*
X4470209Y-11664984D02*
X4432114Y-11664984D01*
X4432114Y-11664984D02*
X4413066Y-11674508D01*
X4413066Y-11674508D02*
X4403542Y-11684031D01*
X4403542Y-11684031D02*
X4384495Y-11712603D01*
X4384495Y-11712603D02*
X4374971Y-11750698D01*
X4374971Y-11750698D02*
X4374971Y-11826888D01*
X4374971Y-11826888D02*
X4384495Y-11845936D01*
X4384495Y-11845936D02*
X4394018Y-11855460D01*
X4394018Y-11855460D02*
X4413066Y-11864984D01*
X4413066Y-11864984D02*
X4451161Y-11864984D01*
X4451161Y-11864984D02*
X4470209Y-11855460D01*
X4470209Y-11855460D02*
X4479733Y-11845936D01*
X4479733Y-11845936D02*
X4489257Y-11826888D01*
X4489257Y-11826888D02*
X4489257Y-11779269D01*
X4489257Y-11779269D02*
X4479733Y-11760222D01*
X4479733Y-11760222D02*
X4470209Y-11750698D01*
X4470209Y-11750698D02*
X4451161Y-11741174D01*
X4451161Y-11741174D02*
X4413066Y-11741174D01*
X4413066Y-11741174D02*
X4394018Y-11750698D01*
X4394018Y-11750698D02*
X4384495Y-11760222D01*
X4384495Y-11760222D02*
X4374971Y-11779269D01*
X4584495Y-11864984D02*
X4622590Y-11864984D01*
X4622590Y-11864984D02*
X4641638Y-11855460D01*
X4641638Y-11855460D02*
X4651161Y-11845936D01*
X4651161Y-11845936D02*
X4670209Y-11817365D01*
X4670209Y-11817365D02*
X4679733Y-11779269D01*
X4679733Y-11779269D02*
X4679733Y-11703079D01*
X4679733Y-11703079D02*
X4670209Y-11684031D01*
X4670209Y-11684031D02*
X4660685Y-11674508D01*
X4660685Y-11674508D02*
X4641638Y-11664984D01*
X4641638Y-11664984D02*
X4603542Y-11664984D01*
X4603542Y-11664984D02*
X4584495Y-11674508D01*
X4584495Y-11674508D02*
X4574971Y-11684031D01*
X4574971Y-11684031D02*
X4565447Y-11703079D01*
X4565447Y-11703079D02*
X4565447Y-11750698D01*
X4565447Y-11750698D02*
X4574971Y-11769746D01*
X4574971Y-11769746D02*
X4584495Y-11779269D01*
X4584495Y-11779269D02*
X4603542Y-11788793D01*
X4603542Y-11788793D02*
X4641638Y-11788793D01*
X4641638Y-11788793D02*
X4660685Y-11779269D01*
X4660685Y-11779269D02*
X4670209Y-11769746D01*
X4670209Y-11769746D02*
X4679733Y-11750698D01*
X4746399Y-11664984D02*
X4870209Y-11664984D01*
X4870209Y-11664984D02*
X4803542Y-11741174D01*
X4803542Y-11741174D02*
X4832114Y-11741174D01*
X4832114Y-11741174D02*
X4851161Y-11750698D01*
X4851161Y-11750698D02*
X4860685Y-11760222D01*
X4860685Y-11760222D02*
X4870209Y-11779269D01*
X4870209Y-11779269D02*
X4870209Y-11826888D01*
X4870209Y-11826888D02*
X4860685Y-11845936D01*
X4860685Y-11845936D02*
X4851161Y-11855460D01*
X4851161Y-11855460D02*
X4832114Y-11864984D01*
X4832114Y-11864984D02*
X4774971Y-11864984D01*
X4774971Y-11864984D02*
X4755923Y-11855460D01*
X4755923Y-11855460D02*
X4746399Y-11845936D01*
X4946399Y-11664984D02*
X4946399Y-11703079D01*
X5022590Y-11664984D02*
X5022590Y-11703079D01*
X5317828Y-11941174D02*
X5308304Y-11931650D01*
X5308304Y-11931650D02*
X5289257Y-11903079D01*
X5289257Y-11903079D02*
X5279733Y-11884031D01*
X5279733Y-11884031D02*
X5270209Y-11855460D01*
X5270209Y-11855460D02*
X5260685Y-11807841D01*
X5260685Y-11807841D02*
X5260685Y-11769746D01*
X5260685Y-11769746D02*
X5270209Y-11722127D01*
X5270209Y-11722127D02*
X5279733Y-11693555D01*
X5279733Y-11693555D02*
X5289257Y-11674508D01*
X5289257Y-11674508D02*
X5308304Y-11645936D01*
X5308304Y-11645936D02*
X5317828Y-11636412D01*
X5479733Y-11731650D02*
X5479733Y-11864984D01*
X5432114Y-11655460D02*
X5384495Y-11798317D01*
X5384495Y-11798317D02*
X5508304Y-11798317D01*
X5736876Y-11864984D02*
X5736876Y-11664984D01*
X5822590Y-11864984D02*
X5822590Y-11760222D01*
X5822590Y-11760222D02*
X5813066Y-11741174D01*
X5813066Y-11741174D02*
X5794019Y-11731650D01*
X5794019Y-11731650D02*
X5765447Y-11731650D01*
X5765447Y-11731650D02*
X5746399Y-11741174D01*
X5746399Y-11741174D02*
X5736876Y-11750698D01*
X5946399Y-11864984D02*
X5927352Y-11855460D01*
X5927352Y-11855460D02*
X5917828Y-11845936D01*
X5917828Y-11845936D02*
X5908304Y-11826888D01*
X5908304Y-11826888D02*
X5908304Y-11769746D01*
X5908304Y-11769746D02*
X5917828Y-11750698D01*
X5917828Y-11750698D02*
X5927352Y-11741174D01*
X5927352Y-11741174D02*
X5946399Y-11731650D01*
X5946399Y-11731650D02*
X5974971Y-11731650D01*
X5974971Y-11731650D02*
X5994019Y-11741174D01*
X5994019Y-11741174D02*
X6003542Y-11750698D01*
X6003542Y-11750698D02*
X6013066Y-11769746D01*
X6013066Y-11769746D02*
X6013066Y-11826888D01*
X6013066Y-11826888D02*
X6003542Y-11845936D01*
X6003542Y-11845936D02*
X5994019Y-11855460D01*
X5994019Y-11855460D02*
X5974971Y-11864984D01*
X5974971Y-11864984D02*
X5946399Y-11864984D01*
X6127352Y-11864984D02*
X6108304Y-11855460D01*
X6108304Y-11855460D02*
X6098780Y-11836412D01*
X6098780Y-11836412D02*
X6098780Y-11664984D01*
X6279733Y-11855460D02*
X6260685Y-11864984D01*
X6260685Y-11864984D02*
X6222590Y-11864984D01*
X6222590Y-11864984D02*
X6203542Y-11855460D01*
X6203542Y-11855460D02*
X6194019Y-11836412D01*
X6194019Y-11836412D02*
X6194019Y-11760222D01*
X6194019Y-11760222D02*
X6203542Y-11741174D01*
X6203542Y-11741174D02*
X6222590Y-11731650D01*
X6222590Y-11731650D02*
X6260685Y-11731650D01*
X6260685Y-11731650D02*
X6279733Y-11741174D01*
X6279733Y-11741174D02*
X6289257Y-11760222D01*
X6289257Y-11760222D02*
X6289257Y-11779269D01*
X6289257Y-11779269D02*
X6194019Y-11798317D01*
X6365447Y-11855460D02*
X6384495Y-11864984D01*
X6384495Y-11864984D02*
X6422590Y-11864984D01*
X6422590Y-11864984D02*
X6441638Y-11855460D01*
X6441638Y-11855460D02*
X6451161Y-11836412D01*
X6451161Y-11836412D02*
X6451161Y-11826888D01*
X6451161Y-11826888D02*
X6441638Y-11807841D01*
X6441638Y-11807841D02*
X6422590Y-11798317D01*
X6422590Y-11798317D02*
X6394019Y-11798317D01*
X6394019Y-11798317D02*
X6374971Y-11788793D01*
X6374971Y-11788793D02*
X6365447Y-11769746D01*
X6365447Y-11769746D02*
X6365447Y-11760222D01*
X6365447Y-11760222D02*
X6374971Y-11741174D01*
X6374971Y-11741174D02*
X6394019Y-11731650D01*
X6394019Y-11731650D02*
X6422590Y-11731650D01*
X6422590Y-11731650D02*
X6441638Y-11741174D01*
X6517828Y-11941174D02*
X6527352Y-11931650D01*
X6527352Y-11931650D02*
X6546400Y-11903079D01*
X6546400Y-11903079D02*
X6555923Y-11884031D01*
X6555923Y-11884031D02*
X6565447Y-11855460D01*
X6565447Y-11855460D02*
X6574971Y-11807841D01*
X6574971Y-11807841D02*
X6574971Y-11769746D01*
X6574971Y-11769746D02*
X6565447Y-11722127D01*
X6565447Y-11722127D02*
X6555923Y-11693555D01*
X6555923Y-11693555D02*
X6546400Y-11674508D01*
X6546400Y-11674508D02*
X6527352Y-11645936D01*
X6527352Y-11645936D02*
X6517828Y-11636412D01*
X1642765Y-11969500D02*
X1642765Y-12169500D01*
X1542765Y-12069500D02*
X1742765Y-12069500D01*
X1742765Y-12069500D02*
G75*
G03*
X1542765Y-12069500I-100000J0D01*
G01*
X1542765Y-12069500D02*
G75*
G03*
X1742765Y-12069500I100000J0D01*
G01*
X1994018Y-11980031D02*
X2003542Y-11970508D01*
X2003542Y-11970508D02*
X2022590Y-11960984D01*
X2022590Y-11960984D02*
X2070209Y-11960984D01*
X2070209Y-11960984D02*
X2089256Y-11970508D01*
X2089256Y-11970508D02*
X2098780Y-11980031D01*
X2098780Y-11980031D02*
X2108304Y-11999079D01*
X2108304Y-11999079D02*
X2108304Y-12018127D01*
X2108304Y-12018127D02*
X2098780Y-12046698D01*
X2098780Y-12046698D02*
X1984494Y-12160984D01*
X1984494Y-12160984D02*
X2108304Y-12160984D01*
X2194018Y-12141936D02*
X2203542Y-12151460D01*
X2203542Y-12151460D02*
X2194018Y-12160984D01*
X2194018Y-12160984D02*
X2184494Y-12151460D01*
X2184494Y-12151460D02*
X2194018Y-12141936D01*
X2194018Y-12141936D02*
X2194018Y-12160984D01*
X2270209Y-11960984D02*
X2403542Y-11960984D01*
X2403542Y-11960984D02*
X2317828Y-12160984D01*
X2517828Y-11960984D02*
X2536875Y-11960984D01*
X2536875Y-11960984D02*
X2555923Y-11970508D01*
X2555923Y-11970508D02*
X2565447Y-11980031D01*
X2565447Y-11980031D02*
X2574971Y-11999079D01*
X2574971Y-11999079D02*
X2584494Y-12037174D01*
X2584494Y-12037174D02*
X2584494Y-12084793D01*
X2584494Y-12084793D02*
X2574971Y-12122888D01*
X2574971Y-12122888D02*
X2565447Y-12141936D01*
X2565447Y-12141936D02*
X2555923Y-12151460D01*
X2555923Y-12151460D02*
X2536875Y-12160984D01*
X2536875Y-12160984D02*
X2517828Y-12160984D01*
X2517828Y-12160984D02*
X2498780Y-12151460D01*
X2498780Y-12151460D02*
X2489256Y-12141936D01*
X2489256Y-12141936D02*
X2479733Y-12122888D01*
X2479733Y-12122888D02*
X2470209Y-12084793D01*
X2470209Y-12084793D02*
X2470209Y-12037174D01*
X2470209Y-12037174D02*
X2479733Y-11999079D01*
X2479733Y-11999079D02*
X2489256Y-11980031D01*
X2489256Y-11980031D02*
X2498780Y-11970508D01*
X2498780Y-11970508D02*
X2517828Y-11960984D01*
X2708304Y-11960984D02*
X2727352Y-11960984D01*
X2727352Y-11960984D02*
X2746399Y-11970508D01*
X2746399Y-11970508D02*
X2755923Y-11980031D01*
X2755923Y-11980031D02*
X2765447Y-11999079D01*
X2765447Y-11999079D02*
X2774971Y-12037174D01*
X2774971Y-12037174D02*
X2774971Y-12084793D01*
X2774971Y-12084793D02*
X2765447Y-12122888D01*
X2765447Y-12122888D02*
X2755923Y-12141936D01*
X2755923Y-12141936D02*
X2746399Y-12151460D01*
X2746399Y-12151460D02*
X2727352Y-12160984D01*
X2727352Y-12160984D02*
X2708304Y-12160984D01*
X2708304Y-12160984D02*
X2689256Y-12151460D01*
X2689256Y-12151460D02*
X2679733Y-12141936D01*
X2679733Y-12141936D02*
X2670209Y-12122888D01*
X2670209Y-12122888D02*
X2660685Y-12084793D01*
X2660685Y-12084793D02*
X2660685Y-12037174D01*
X2660685Y-12037174D02*
X2670209Y-11999079D01*
X2670209Y-11999079D02*
X2679733Y-11980031D01*
X2679733Y-11980031D02*
X2689256Y-11970508D01*
X2689256Y-11970508D02*
X2708304Y-11960984D01*
X2860685Y-12160984D02*
X2860685Y-12027650D01*
X2860685Y-12046698D02*
X2870209Y-12037174D01*
X2870209Y-12037174D02*
X2889256Y-12027650D01*
X2889256Y-12027650D02*
X2917828Y-12027650D01*
X2917828Y-12027650D02*
X2936875Y-12037174D01*
X2936875Y-12037174D02*
X2946399Y-12056222D01*
X2946399Y-12056222D02*
X2946399Y-12160984D01*
X2946399Y-12056222D02*
X2955923Y-12037174D01*
X2955923Y-12037174D02*
X2974971Y-12027650D01*
X2974971Y-12027650D02*
X3003542Y-12027650D01*
X3003542Y-12027650D02*
X3022590Y-12037174D01*
X3022590Y-12037174D02*
X3032113Y-12056222D01*
X3032113Y-12056222D02*
X3032113Y-12160984D01*
X3127352Y-12160984D02*
X3127352Y-12027650D01*
X3127352Y-12046698D02*
X3136875Y-12037174D01*
X3136875Y-12037174D02*
X3155923Y-12027650D01*
X3155923Y-12027650D02*
X3184494Y-12027650D01*
X3184494Y-12027650D02*
X3203542Y-12037174D01*
X3203542Y-12037174D02*
X3213066Y-12056222D01*
X3213066Y-12056222D02*
X3213066Y-12160984D01*
X3213066Y-12056222D02*
X3222590Y-12037174D01*
X3222590Y-12037174D02*
X3241637Y-12027650D01*
X3241637Y-12027650D02*
X3270209Y-12027650D01*
X3270209Y-12027650D02*
X3289256Y-12037174D01*
X3289256Y-12037174D02*
X3298780Y-12056222D01*
X3298780Y-12056222D02*
X3298780Y-12160984D01*
X3689256Y-11951460D02*
X3517828Y-12208603D01*
X3946399Y-11960984D02*
X3965447Y-11960984D01*
X3965447Y-11960984D02*
X3984495Y-11970508D01*
X3984495Y-11970508D02*
X3994018Y-11980031D01*
X3994018Y-11980031D02*
X4003542Y-11999079D01*
X4003542Y-11999079D02*
X4013066Y-12037174D01*
X4013066Y-12037174D02*
X4013066Y-12084793D01*
X4013066Y-12084793D02*
X4003542Y-12122888D01*
X4003542Y-12122888D02*
X3994018Y-12141936D01*
X3994018Y-12141936D02*
X3984495Y-12151460D01*
X3984495Y-12151460D02*
X3965447Y-12160984D01*
X3965447Y-12160984D02*
X3946399Y-12160984D01*
X3946399Y-12160984D02*
X3927352Y-12151460D01*
X3927352Y-12151460D02*
X3917828Y-12141936D01*
X3917828Y-12141936D02*
X3908304Y-12122888D01*
X3908304Y-12122888D02*
X3898780Y-12084793D01*
X3898780Y-12084793D02*
X3898780Y-12037174D01*
X3898780Y-12037174D02*
X3908304Y-11999079D01*
X3908304Y-11999079D02*
X3917828Y-11980031D01*
X3917828Y-11980031D02*
X3927352Y-11970508D01*
X3927352Y-11970508D02*
X3946399Y-11960984D01*
X4098780Y-12141936D02*
X4108304Y-12151460D01*
X4108304Y-12151460D02*
X4098780Y-12160984D01*
X4098780Y-12160984D02*
X4089256Y-12151460D01*
X4089256Y-12151460D02*
X4098780Y-12141936D01*
X4098780Y-12141936D02*
X4098780Y-12160984D01*
X4298780Y-12160984D02*
X4184495Y-12160984D01*
X4241637Y-12160984D02*
X4241637Y-11960984D01*
X4241637Y-11960984D02*
X4222590Y-11989555D01*
X4222590Y-11989555D02*
X4203542Y-12008603D01*
X4203542Y-12008603D02*
X4184495Y-12018127D01*
X4422590Y-11960984D02*
X4441638Y-11960984D01*
X4441638Y-11960984D02*
X4460685Y-11970508D01*
X4460685Y-11970508D02*
X4470209Y-11980031D01*
X4470209Y-11980031D02*
X4479733Y-11999079D01*
X4479733Y-11999079D02*
X4489257Y-12037174D01*
X4489257Y-12037174D02*
X4489257Y-12084793D01*
X4489257Y-12084793D02*
X4479733Y-12122888D01*
X4479733Y-12122888D02*
X4470209Y-12141936D01*
X4470209Y-12141936D02*
X4460685Y-12151460D01*
X4460685Y-12151460D02*
X4441638Y-12160984D01*
X4441638Y-12160984D02*
X4422590Y-12160984D01*
X4422590Y-12160984D02*
X4403542Y-12151460D01*
X4403542Y-12151460D02*
X4394018Y-12141936D01*
X4394018Y-12141936D02*
X4384495Y-12122888D01*
X4384495Y-12122888D02*
X4374971Y-12084793D01*
X4374971Y-12084793D02*
X4374971Y-12037174D01*
X4374971Y-12037174D02*
X4384495Y-11999079D01*
X4384495Y-11999079D02*
X4394018Y-11980031D01*
X4394018Y-11980031D02*
X4403542Y-11970508D01*
X4403542Y-11970508D02*
X4422590Y-11960984D01*
X4660685Y-11960984D02*
X4622590Y-11960984D01*
X4622590Y-11960984D02*
X4603542Y-11970508D01*
X4603542Y-11970508D02*
X4594018Y-11980031D01*
X4594018Y-11980031D02*
X4574971Y-12008603D01*
X4574971Y-12008603D02*
X4565447Y-12046698D01*
X4565447Y-12046698D02*
X4565447Y-12122888D01*
X4565447Y-12122888D02*
X4574971Y-12141936D01*
X4574971Y-12141936D02*
X4584495Y-12151460D01*
X4584495Y-12151460D02*
X4603542Y-12160984D01*
X4603542Y-12160984D02*
X4641638Y-12160984D01*
X4641638Y-12160984D02*
X4660685Y-12151460D01*
X4660685Y-12151460D02*
X4670209Y-12141936D01*
X4670209Y-12141936D02*
X4679733Y-12122888D01*
X4679733Y-12122888D02*
X4679733Y-12075269D01*
X4679733Y-12075269D02*
X4670209Y-12056222D01*
X4670209Y-12056222D02*
X4660685Y-12046698D01*
X4660685Y-12046698D02*
X4641638Y-12037174D01*
X4641638Y-12037174D02*
X4603542Y-12037174D01*
X4603542Y-12037174D02*
X4584495Y-12046698D01*
X4584495Y-12046698D02*
X4574971Y-12056222D01*
X4574971Y-12056222D02*
X4565447Y-12075269D01*
X4746399Y-11960984D02*
X4870209Y-11960984D01*
X4870209Y-11960984D02*
X4803542Y-12037174D01*
X4803542Y-12037174D02*
X4832114Y-12037174D01*
X4832114Y-12037174D02*
X4851161Y-12046698D01*
X4851161Y-12046698D02*
X4860685Y-12056222D01*
X4860685Y-12056222D02*
X4870209Y-12075269D01*
X4870209Y-12075269D02*
X4870209Y-12122888D01*
X4870209Y-12122888D02*
X4860685Y-12141936D01*
X4860685Y-12141936D02*
X4851161Y-12151460D01*
X4851161Y-12151460D02*
X4832114Y-12160984D01*
X4832114Y-12160984D02*
X4774971Y-12160984D01*
X4774971Y-12160984D02*
X4755923Y-12151460D01*
X4755923Y-12151460D02*
X4746399Y-12141936D01*
X4946399Y-11960984D02*
X4946399Y-11999079D01*
X5022590Y-11960984D02*
X5022590Y-11999079D01*
X5317828Y-12237174D02*
X5308304Y-12227650D01*
X5308304Y-12227650D02*
X5289257Y-12199079D01*
X5289257Y-12199079D02*
X5279733Y-12180031D01*
X5279733Y-12180031D02*
X5270209Y-12151460D01*
X5270209Y-12151460D02*
X5260685Y-12103841D01*
X5260685Y-12103841D02*
X5260685Y-12065746D01*
X5260685Y-12065746D02*
X5270209Y-12018127D01*
X5270209Y-12018127D02*
X5279733Y-11989555D01*
X5279733Y-11989555D02*
X5289257Y-11970508D01*
X5289257Y-11970508D02*
X5308304Y-11941936D01*
X5308304Y-11941936D02*
X5317828Y-11932412D01*
X5384495Y-11980031D02*
X5394019Y-11970508D01*
X5394019Y-11970508D02*
X5413066Y-11960984D01*
X5413066Y-11960984D02*
X5460685Y-11960984D01*
X5460685Y-11960984D02*
X5479733Y-11970508D01*
X5479733Y-11970508D02*
X5489257Y-11980031D01*
X5489257Y-11980031D02*
X5498780Y-11999079D01*
X5498780Y-11999079D02*
X5498780Y-12018127D01*
X5498780Y-12018127D02*
X5489257Y-12046698D01*
X5489257Y-12046698D02*
X5374971Y-12160984D01*
X5374971Y-12160984D02*
X5498780Y-12160984D01*
X5736876Y-12160984D02*
X5736876Y-11960984D01*
X5822590Y-12160984D02*
X5822590Y-12056222D01*
X5822590Y-12056222D02*
X5813066Y-12037174D01*
X5813066Y-12037174D02*
X5794019Y-12027650D01*
X5794019Y-12027650D02*
X5765447Y-12027650D01*
X5765447Y-12027650D02*
X5746399Y-12037174D01*
X5746399Y-12037174D02*
X5736876Y-12046698D01*
X5946399Y-12160984D02*
X5927352Y-12151460D01*
X5927352Y-12151460D02*
X5917828Y-12141936D01*
X5917828Y-12141936D02*
X5908304Y-12122888D01*
X5908304Y-12122888D02*
X5908304Y-12065746D01*
X5908304Y-12065746D02*
X5917828Y-12046698D01*
X5917828Y-12046698D02*
X5927352Y-12037174D01*
X5927352Y-12037174D02*
X5946399Y-12027650D01*
X5946399Y-12027650D02*
X5974971Y-12027650D01*
X5974971Y-12027650D02*
X5994019Y-12037174D01*
X5994019Y-12037174D02*
X6003542Y-12046698D01*
X6003542Y-12046698D02*
X6013066Y-12065746D01*
X6013066Y-12065746D02*
X6013066Y-12122888D01*
X6013066Y-12122888D02*
X6003542Y-12141936D01*
X6003542Y-12141936D02*
X5994019Y-12151460D01*
X5994019Y-12151460D02*
X5974971Y-12160984D01*
X5974971Y-12160984D02*
X5946399Y-12160984D01*
X6127352Y-12160984D02*
X6108304Y-12151460D01*
X6108304Y-12151460D02*
X6098780Y-12132412D01*
X6098780Y-12132412D02*
X6098780Y-11960984D01*
X6279733Y-12151460D02*
X6260685Y-12160984D01*
X6260685Y-12160984D02*
X6222590Y-12160984D01*
X6222590Y-12160984D02*
X6203542Y-12151460D01*
X6203542Y-12151460D02*
X6194019Y-12132412D01*
X6194019Y-12132412D02*
X6194019Y-12056222D01*
X6194019Y-12056222D02*
X6203542Y-12037174D01*
X6203542Y-12037174D02*
X6222590Y-12027650D01*
X6222590Y-12027650D02*
X6260685Y-12027650D01*
X6260685Y-12027650D02*
X6279733Y-12037174D01*
X6279733Y-12037174D02*
X6289257Y-12056222D01*
X6289257Y-12056222D02*
X6289257Y-12075269D01*
X6289257Y-12075269D02*
X6194019Y-12094317D01*
X6365447Y-12151460D02*
X6384495Y-12160984D01*
X6384495Y-12160984D02*
X6422590Y-12160984D01*
X6422590Y-12160984D02*
X6441638Y-12151460D01*
X6441638Y-12151460D02*
X6451161Y-12132412D01*
X6451161Y-12132412D02*
X6451161Y-12122888D01*
X6451161Y-12122888D02*
X6441638Y-12103841D01*
X6441638Y-12103841D02*
X6422590Y-12094317D01*
X6422590Y-12094317D02*
X6394019Y-12094317D01*
X6394019Y-12094317D02*
X6374971Y-12084793D01*
X6374971Y-12084793D02*
X6365447Y-12065746D01*
X6365447Y-12065746D02*
X6365447Y-12056222D01*
X6365447Y-12056222D02*
X6374971Y-12037174D01*
X6374971Y-12037174D02*
X6394019Y-12027650D01*
X6394019Y-12027650D02*
X6422590Y-12027650D01*
X6422590Y-12027650D02*
X6441638Y-12037174D01*
X6517828Y-12237174D02*
X6527352Y-12227650D01*
X6527352Y-12227650D02*
X6546400Y-12199079D01*
X6546400Y-12199079D02*
X6555923Y-12180031D01*
X6555923Y-12180031D02*
X6565447Y-12151460D01*
X6565447Y-12151460D02*
X6574971Y-12103841D01*
X6574971Y-12103841D02*
X6574971Y-12065746D01*
X6574971Y-12065746D02*
X6565447Y-12018127D01*
X6565447Y-12018127D02*
X6555923Y-11989555D01*
X6555923Y-11989555D02*
X6546400Y-11970508D01*
X6546400Y-11970508D02*
X6527352Y-11941936D01*
X6527352Y-11941936D02*
X6517828Y-11932412D01*
M02*
