M48
; DRILL file {KiCad 7.0.11-7.0.11~ubuntu22.04.1} date Fri 18 Oct 2024 05:24:36 PM CEST
; FORMAT={-:-/ absolute / inch / decimal}
; #@! TF.CreationDate,2024-10-18T17:24:36+02:00
; #@! TF.GenerationSoftware,Kicad,Pcbnew,7.0.11-7.0.11~ubuntu22.04.1
; #@! TF.FileFunction,Plated,1,2,PTH
FMAT,2
INCH
; #@! TA.AperFunction,Plated,PTH,ComponentDrill
T1C0.0236
; #@! TA.AperFunction,Plated,PTH,ComponentDrill
T2C0.0315
; #@! TA.AperFunction,Plated,PTH,ComponentDrill
T3C0.0394
; #@! TA.AperFunction,Plated,PTH,ComponentDrill
T4C0.0410
; #@! TA.AperFunction,Plated,PTH,ComponentDrill
T5C0.0472
; #@! TA.AperFunction,Plated,PTH,ComponentDrill
T6C0.0512
; #@! TA.AperFunction,Plated,PTH,ComponentDrill
T7C0.0591
; #@! TA.AperFunction,Plated,PTH,ComponentDrill
T8C0.0669
; #@! TA.AperFunction,Plated,PTH,ComponentDrill
T9C0.0693
; #@! TA.AperFunction,Plated,PTH,ComponentDrill
T10C0.1063
%
G90
G05
T2
X1.6846Y-1.9201
X1.6846Y-2.7146
X1.8323Y-2.4177
X1.8323Y-2.4965
X1.9846Y-1.9201
X1.9846Y-2.7146
X2.0957Y-0.9252
X2.1744Y-0.9252
X2.2531Y-0.9252
X2.3319Y-0.9252
X2.4106Y-0.9252
X4.9776Y-1.0807
X4.9776Y-1.3807
X5.0449Y-2.1512
X5.0449Y-2.2756
X5.3449Y-2.1512
X5.3449Y-2.2756
X5.7256Y-1.7547
X5.7256Y-2.0547
X6.4277Y-2.2652
X6.4277Y-2.3439
X6.4277Y-2.5931
X6.4277Y-2.6719
X6.4277Y-2.9177
X6.4277Y-2.9965
T3
X3.3122Y-2.6973
X3.3122Y-2.1772
X3.3123Y-2.2772
X3.3123Y-2.5973
X4.0387Y-2.1772
X4.0387Y-2.277
X4.0387Y-2.5973
X4.0387Y-2.6973
X4.1988Y-2.1783
X4.1988Y-2.2783
X4.1988Y-2.5986
X4.1988Y-2.6984
X4.9252Y-2.2783
X4.9252Y-2.5984
X4.9252Y-2.6984
X4.9253Y-2.1783
X5.2343Y-2.4549
X5.2343Y-2.5549
X5.2343Y-2.6549
X5.463Y-2.1783
X5.463Y-2.2783
X5.463Y-2.5986
X5.463Y-2.6984
X6.1894Y-2.2783
X6.1894Y-2.5984
X6.1894Y-2.6984
X6.1894Y-2.1783
T4
X1.8597Y-1.5756
X1.8597Y-1.674
X1.8597Y-2.1067
X1.8597Y-2.2051
X6.297Y-0.946
X6.297Y-1.046
X6.297Y-1.146
X6.297Y-1.2461
X6.297Y-1.346
T5
X2.1049Y-1.2736
X2.1049Y-1.9744
X3.6797Y-1.9744
X3.6797Y-1.2736
T6
X3.885Y-1.1953
X3.885Y-1.7744
X4.2787Y-1.1953
X4.2787Y-1.7744
X4.5071Y-1.7744
X4.9008Y-1.7744
X5.1315Y-1.7744
X5.5252Y-1.7744
T7
X2.0689Y-2.8717
X2.0689Y-3.6591
X2.1189Y-2.1386
X2.1189Y-2.2386
X2.1189Y-2.5898
X2.1189Y-2.6898
X3.1425Y-2.1386
X3.1425Y-2.2386
X3.1425Y-2.5898
X3.1425Y-2.6898
X4.0571Y-3.6591
X4.0571Y-2.8717
X4.2012Y-3.6472
X4.2012Y-2.8598
X6.1894Y-2.8598
X6.1894Y-3.6472
T8
X1.8027Y-0.9394
X1.8027Y-1.0953
X1.8027Y-3.1815
X1.8027Y-3.3374
X4.5095Y-1.1984
X4.6654Y-1.1984
X4.8213Y-1.1984
X6.4552Y-3.1815
X6.4552Y-3.3374
T9
X5.128Y-1.1949
X5.2839Y-1.1949
X5.4398Y-1.1949
X5.5957Y-1.1949
T10
X5.9437Y-1.6327
X5.9437Y-1.9161
T1
G00X6.2016Y-1.5087
M15
G01X6.1583Y-1.5087
M16
G05
G00X6.2016Y-2.0402
M15
G01X6.1583Y-2.0402
M16
G05
T3
G00X6.0874Y-1.7547
M15
G01X6.0874Y-1.7941
M16
G05
M30
