%TF.GenerationSoftware,KiCad,Pcbnew,7.0.11-7.0.11~ubuntu22.04.1*%
%TF.CreationDate,2024-10-18T17:24:44+02:00*%
%TF.ProjectId,PowerBoard-Elec,506f7765-7242-46f6-9172-642d456c6563,rev?*%
%TF.SameCoordinates,Original*%
%TF.FileFunction,Soldermask,Bot*%
%TF.FilePolarity,Negative*%
%FSLAX46Y46*%
G04 Gerber Fmt 4.6, Leading zero omitted, Abs format (unit mm)*
G04 Created by KiCad (PCBNEW 7.0.11-7.0.11~ubuntu22.04.1) date 2024-10-18 17:24:44*
%MOMM*%
%LPD*%
G01*
G04 APERTURE LIST*
G04 Aperture macros list*
%AMRoundRect*
0 Rectangle with rounded corners*
0 $1 Rounding radius*
0 $2 $3 $4 $5 $6 $7 $8 $9 X,Y pos of 4 corners*
0 Add a 4 corners polygon primitive as box body*
4,1,4,$2,$3,$4,$5,$6,$7,$8,$9,$2,$3,0*
0 Add four circle primitives for the rounded corners*
1,1,$1+$1,$2,$3*
1,1,$1+$1,$4,$5*
1,1,$1+$1,$6,$7*
1,1,$1+$1,$8,$9*
0 Add four rect primitives between the rounded corners*
20,1,$1+$1,$2,$3,$4,$5,0*
20,1,$1+$1,$4,$5,$6,$7,0*
20,1,$1+$1,$6,$7,$8,$9,0*
20,1,$1+$1,$8,$9,$2,$3,0*%
G04 Aperture macros list end*
%ADD10R,3.000000X3.000000*%
%ADD11C,2.300000*%
%ADD12C,1.800000*%
%ADD13RoundRect,0.102000X0.750000X-0.750000X0.750000X0.750000X-0.750000X0.750000X-0.750000X-0.750000X0*%
%ADD14C,1.704000*%
%ADD15R,3.450000X3.480000*%
%ADD16R,3.430000X3.450000*%
%ADD17R,3.440000X3.440000*%
%ADD18R,3.430000X3.410000*%
%ADD19C,1.600000*%
%ADD20O,1.600000X1.600000*%
%ADD21RoundRect,0.102000X0.654000X-0.654000X0.654000X0.654000X-0.654000X0.654000X-0.654000X-0.654000X0*%
%ADD22C,1.512000*%
%ADD23C,1.549400*%
%ADD24C,2.754000*%
%ADD25RoundRect,0.102000X-1.275000X1.275000X-1.275000X-1.275000X1.275000X-1.275000X1.275000X1.275000X0*%
%ADD26RoundRect,0.102000X1.275000X-1.275000X1.275000X1.275000X-1.275000X1.275000X-1.275000X-1.275000X0*%
%ADD27RoundRect,0.102000X-1.320000X-1.320000X1.320000X-1.320000X1.320000X1.320000X-1.320000X1.320000X0*%
%ADD28C,2.844000*%
%ADD29RoundRect,0.102000X-1.275000X-1.275000X1.275000X-1.275000X1.275000X1.275000X-1.275000X1.275000X0*%
%ADD30RoundRect,0.102000X-0.654000X0.654000X-0.654000X-0.654000X0.654000X-0.654000X0.654000X0.654000X0*%
%ADD31R,2.000000X0.900000*%
%ADD32RoundRect,1.025000X-1.025000X1.025000X-1.025000X-1.025000X1.025000X-1.025000X1.025000X1.025000X0*%
%ADD33C,4.100000*%
%ADD34R,1.300000X2.300000*%
%ADD35RoundRect,0.102000X0.654000X0.654000X-0.654000X0.654000X-0.654000X-0.654000X0.654000X-0.654000X0*%
%ADD36C,2.500000*%
G04 APERTURE END LIST*
D10*
%TO.C,U4*%
X93464854Y-50150000D03*
X93464949Y-32350000D03*
X53464949Y-50150000D03*
X53464949Y-32350000D03*
%TD*%
D11*
%TO.C,F7*%
X108680000Y-45070000D03*
X98680000Y-45070000D03*
%TD*%
D12*
%TO.C,U14*%
X102582000Y-57836465D03*
X102582000Y-55301465D03*
X102582000Y-68511465D03*
X102582000Y-65971465D03*
X84132000Y-57841465D03*
X84131000Y-55301465D03*
X84132000Y-65971465D03*
X84130000Y-68511465D03*
%TD*%
D13*
%TO.C,PS1*%
X132950000Y-67434999D03*
D14*
X132950000Y-64894999D03*
X132950000Y-62354999D03*
%TD*%
D15*
%TO.C,U3*%
X106935066Y-72549797D03*
D16*
X106915066Y-93044797D03*
D17*
X157010066Y-72539797D03*
D18*
X157005066Y-93034797D03*
%TD*%
D19*
%TO.C,R7*%
X126430000Y-35070000D03*
D20*
X126430000Y-27450000D03*
%TD*%
D11*
%TO.C,F8*%
X140340000Y-45070000D03*
X130340000Y-45070000D03*
%TD*%
D19*
%TO.C,R3*%
X145430000Y-52190000D03*
D20*
X145430000Y-44570000D03*
%TD*%
D21*
%TO.C,U16*%
X163262500Y-65865202D03*
D22*
X163262500Y-67865202D03*
%TD*%
D23*
%TO.C,U7*%
X159944268Y-24028000D03*
X159944268Y-26568000D03*
X159944268Y-29108000D03*
X159944268Y-31650000D03*
X159944268Y-34188000D03*
%TD*%
D19*
%TO.C,R5*%
X42789000Y-48770000D03*
D20*
X50409000Y-48770000D03*
%TD*%
D19*
%TO.C,R1*%
X135760000Y-54640000D03*
D20*
X128140000Y-54640000D03*
%TD*%
D19*
%TO.C,R2*%
X128140000Y-57800000D03*
D20*
X135760000Y-57800000D03*
%TD*%
D12*
%TO.C,U9*%
X106650000Y-66003805D03*
X106650000Y-68538805D03*
X106650000Y-55328805D03*
X106650000Y-57868805D03*
X125100000Y-65998805D03*
X125101000Y-68538805D03*
X125100000Y-57868805D03*
X125102000Y-55328805D03*
%TD*%
D11*
%TO.C,F2*%
X124480000Y-45070000D03*
X114480000Y-45070000D03*
%TD*%
D24*
%TO.C,U12*%
X163962500Y-84769898D03*
D25*
X163962500Y-80809898D03*
%TD*%
D26*
%TO.C,U13*%
X45788500Y-84769898D03*
D24*
X45788500Y-80809898D03*
%TD*%
D23*
%TO.C,J5*%
X47235799Y-56010000D03*
X47235799Y-53510000D03*
%TD*%
D15*
%TO.C,U10*%
X102824934Y-93030000D03*
D16*
X102844934Y-72535000D03*
D17*
X52749934Y-93040000D03*
D18*
X52754934Y-72545000D03*
%TD*%
D27*
%TO.C,J2*%
X130250000Y-30350000D03*
D28*
X134210000Y-30350000D03*
X138170000Y-30350000D03*
X142130000Y-30350000D03*
%TD*%
D21*
%TO.C,U15*%
X163262500Y-57535202D03*
D22*
X163262500Y-59535202D03*
%TD*%
D21*
%TO.C,U17*%
X163262500Y-74110000D03*
D22*
X163262500Y-76110000D03*
%TD*%
D29*
%TO.C,U6*%
X114541500Y-30438500D03*
D24*
X118501500Y-30438500D03*
X122461500Y-30438500D03*
%TD*%
D22*
%TO.C,U18*%
X46540200Y-61410000D03*
D30*
X46540200Y-63410000D03*
%TD*%
D23*
%TO.C,J3*%
X47235799Y-42520155D03*
X47235799Y-40020155D03*
%TD*%
D31*
%TO.C,J1*%
X156970000Y-38320000D03*
X156970000Y-51820000D03*
D32*
X150970000Y-41470000D03*
D33*
X150970000Y-48670000D03*
D34*
X154620000Y-45070000D03*
%TD*%
D35*
%TO.C,J4*%
X53230000Y-23501000D03*
D22*
X55230000Y-23501000D03*
X57230000Y-23501000D03*
X59230000Y-23501000D03*
X61230000Y-23501000D03*
%TD*%
D19*
%TO.C,R6*%
X42789000Y-68950000D03*
D20*
X50409000Y-68950000D03*
%TD*%
D10*
%TO.C,U11*%
X79820000Y-68320000D03*
X79820000Y-65780000D03*
D36*
X79820000Y-56860000D03*
X79820000Y-54320000D03*
D10*
X53820000Y-68320000D03*
X53820000Y-65780000D03*
D36*
X53820000Y-56860000D03*
X53820000Y-54320000D03*
%TD*%
D26*
%TO.C,U8*%
X45788500Y-27819500D03*
D24*
X45788500Y-23859500D03*
%TD*%
D11*
%TO.C,F1*%
X108680000Y-30360000D03*
X98680000Y-30360000D03*
%TD*%
D12*
%TO.C,U1*%
X138760000Y-66003805D03*
X138760000Y-68538805D03*
X138760000Y-55328805D03*
X138760000Y-57868805D03*
X157210000Y-65998805D03*
X157211000Y-68538805D03*
X157210000Y-57868805D03*
X157212000Y-55328805D03*
%TD*%
M02*
