%TF.GenerationSoftware,KiCad,Pcbnew,7.0.11-7.0.11~ubuntu22.04.1*%
%TF.CreationDate,2024-10-18T17:24:37+02:00*%
%TF.ProjectId,PowerBoard-Elec,506f7765-7242-46f6-9172-642d456c6563,rev?*%
%TF.SameCoordinates,Original*%
%TF.FileFunction,Drillmap*%
%TF.FilePolarity,Positive*%
%FSLAX45Y45*%
G04 Gerber Fmt 4.5, Leading zero omitted, Abs format (unit mm)*
G04 Created by KiCad (PCBNEW 7.0.11-7.0.11~ubuntu22.04.1) date 2024-10-18 17:24:37*
%MOMM*%
%LPD*%
G01*
G04 APERTURE LIST*
%ADD10C,0.050000*%
%ADD11C,0.200000*%
%ADD12C,0.100000*%
%ADD13C,0.104140*%
%ADD14C,0.120000*%
%ADD15C,0.130000*%
%ADD16C,0.150000*%
%ADD17C,0.170000*%
%ADD18C,0.176000*%
%ADD19C,0.270000*%
G04 APERTURE END LIST*
D10*
X14972000Y-3385000D02*
G75*
G03*
X14672000Y-3385000I-150000J0D01*
G01*
X14672000Y-3385000D02*
G75*
G03*
X14972000Y-3385000I150000J0D01*
G01*
X4784000Y-9098000D02*
G75*
G03*
X4484000Y-9098000I-150000J0D01*
G01*
X4484000Y-9098000D02*
G75*
G03*
X4784000Y-9098000I150000J0D01*
G01*
X16490000Y-9098000D02*
G75*
G03*
X16190000Y-9098000I-150000J0D01*
G01*
X16190000Y-9098000D02*
G75*
G03*
X16490000Y-9098000I150000J0D01*
G01*
X4175000Y-2159000D02*
X16795000Y-2159000D01*
X16795000Y-9509000D01*
X4175000Y-9509000D01*
X4175000Y-2159000D01*
X4784000Y-3385000D02*
G75*
G03*
X4484000Y-3385000I-150000J0D01*
G01*
X4484000Y-3385000D02*
G75*
G03*
X4784000Y-3385000I150000J0D01*
G01*
X9015599Y-4925565D02*
G75*
G03*
X8695599Y-4925565I-160000J0D01*
G01*
X8695599Y-4925565D02*
G75*
G03*
X9015599Y-4925565I160000J0D01*
G01*
X5995599Y-3324565D02*
G75*
G03*
X5675599Y-3324565I-160000J0D01*
G01*
X5675599Y-3324565D02*
G75*
G03*
X5995599Y-3324565I160000J0D01*
G01*
X11599270Y-7364243D02*
G75*
G03*
X11242743Y-7364243I-178264J0D01*
G01*
X11242743Y-7364243D02*
G75*
G03*
X11599270Y-7364243I178264J0D01*
G01*
X14999270Y-9212980D02*
G75*
G03*
X14642743Y-9212980I-178264J0D01*
G01*
X14642743Y-9212980D02*
G75*
G03*
X14999270Y-9212980I178264J0D01*
G01*
X9733257Y-9193736D02*
G75*
G03*
X9376730Y-9193736I-178264J0D01*
G01*
X9376730Y-9193736D02*
G75*
G03*
X9733257Y-9193736I178264J0D01*
G01*
X6333257Y-7345000D02*
G75*
G03*
X5976730Y-7345000I-178264J0D01*
G01*
X5976730Y-7345000D02*
G75*
G03*
X6333257Y-7345000I178264J0D01*
G01*
D11*
D12*
X15667000Y-3802000D02*
X15727000Y-3862000D01*
X15727000Y-3802000D02*
X15667000Y-3862000D01*
X15752000Y-3802000D02*
X15642000Y-3802000D01*
X15642000Y-3802000D02*
G75*
G03*
X15642000Y-3862000I0J-30000D01*
G01*
X15642000Y-3862000D02*
X15752000Y-3862000D01*
X15752000Y-3862000D02*
G75*
G03*
X15752000Y-3802000I0J30000D01*
G01*
X15667000Y-5152000D02*
X15727000Y-5212000D01*
X15727000Y-5152000D02*
X15667000Y-5212000D01*
X15752000Y-5152000D02*
X15642000Y-5152000D01*
X15642000Y-5152000D02*
G75*
G03*
X15642000Y-5212000I0J-30000D01*
G01*
X15642000Y-5212000D02*
X15752000Y-5212000D01*
X15752000Y-5212000D02*
G75*
G03*
X15752000Y-5152000I0J30000D01*
G01*
X4318900Y-4877000D02*
G75*
G03*
X4238900Y-4877000I-40000J0D01*
G01*
X4238900Y-4877000D02*
G75*
G03*
X4318900Y-4877000I40000J0D01*
G01*
X4318900Y-6895000D02*
G75*
G03*
X4238900Y-6895000I-40000J0D01*
G01*
X4238900Y-6895000D02*
G75*
G03*
X4318900Y-6895000I40000J0D01*
G01*
X4694020Y-6141000D02*
G75*
G03*
X4614020Y-6141000I-40000J0D01*
G01*
X4614020Y-6141000D02*
G75*
G03*
X4694020Y-6141000I40000J0D01*
G01*
X4694020Y-6341000D02*
G75*
G03*
X4614020Y-6341000I-40000J0D01*
G01*
X4614020Y-6341000D02*
G75*
G03*
X4694020Y-6341000I40000J0D01*
G01*
X5080900Y-4877000D02*
G75*
G03*
X5000900Y-4877000I-40000J0D01*
G01*
X5000900Y-4877000D02*
G75*
G03*
X5080900Y-4877000I40000J0D01*
G01*
X5080900Y-6895000D02*
G75*
G03*
X5000900Y-6895000I-40000J0D01*
G01*
X5000900Y-6895000D02*
G75*
G03*
X5080900Y-6895000I40000J0D01*
G01*
X5363000Y-2350100D02*
G75*
G03*
X5283000Y-2350100I-40000J0D01*
G01*
X5283000Y-2350100D02*
G75*
G03*
X5363000Y-2350100I40000J0D01*
G01*
X5563000Y-2350100D02*
G75*
G03*
X5483000Y-2350100I-40000J0D01*
G01*
X5483000Y-2350100D02*
G75*
G03*
X5563000Y-2350100I40000J0D01*
G01*
X5763000Y-2350100D02*
G75*
G03*
X5683000Y-2350100I-40000J0D01*
G01*
X5683000Y-2350100D02*
G75*
G03*
X5763000Y-2350100I40000J0D01*
G01*
X5963000Y-2350100D02*
G75*
G03*
X5883000Y-2350100I-40000J0D01*
G01*
X5883000Y-2350100D02*
G75*
G03*
X5963000Y-2350100I40000J0D01*
G01*
X6163000Y-2350100D02*
G75*
G03*
X6083000Y-2350100I-40000J0D01*
G01*
X6083000Y-2350100D02*
G75*
G03*
X6163000Y-2350100I40000J0D01*
G01*
X12683000Y-2745000D02*
G75*
G03*
X12603000Y-2745000I-40000J0D01*
G01*
X12603000Y-2745000D02*
G75*
G03*
X12683000Y-2745000I40000J0D01*
G01*
X12683000Y-3507000D02*
G75*
G03*
X12603000Y-3507000I-40000J0D01*
G01*
X12603000Y-3507000D02*
G75*
G03*
X12683000Y-3507000I40000J0D01*
G01*
X12854000Y-5464000D02*
G75*
G03*
X12774000Y-5464000I-40000J0D01*
G01*
X12774000Y-5464000D02*
G75*
G03*
X12854000Y-5464000I40000J0D01*
G01*
X12854000Y-5780000D02*
G75*
G03*
X12774000Y-5780000I-40000J0D01*
G01*
X12774000Y-5780000D02*
G75*
G03*
X12854000Y-5780000I40000J0D01*
G01*
X13616000Y-5464000D02*
G75*
G03*
X13536000Y-5464000I-40000J0D01*
G01*
X13536000Y-5464000D02*
G75*
G03*
X13616000Y-5464000I40000J0D01*
G01*
X13616000Y-5780000D02*
G75*
G03*
X13536000Y-5780000I-40000J0D01*
G01*
X13536000Y-5780000D02*
G75*
G03*
X13616000Y-5780000I40000J0D01*
G01*
X14583000Y-4457000D02*
G75*
G03*
X14503000Y-4457000I-40000J0D01*
G01*
X14503000Y-4457000D02*
G75*
G03*
X14583000Y-4457000I40000J0D01*
G01*
X14583000Y-5219000D02*
G75*
G03*
X14503000Y-5219000I-40000J0D01*
G01*
X14503000Y-5219000D02*
G75*
G03*
X14583000Y-5219000I40000J0D01*
G01*
X16366250Y-5753520D02*
G75*
G03*
X16286250Y-5753520I-40000J0D01*
G01*
X16286250Y-5753520D02*
G75*
G03*
X16366250Y-5753520I40000J0D01*
G01*
X16366250Y-5953520D02*
G75*
G03*
X16286250Y-5953520I-40000J0D01*
G01*
X16286250Y-5953520D02*
G75*
G03*
X16366250Y-5953520I40000J0D01*
G01*
X16366250Y-6586520D02*
G75*
G03*
X16286250Y-6586520I-40000J0D01*
G01*
X16286250Y-6586520D02*
G75*
G03*
X16366250Y-6586520I40000J0D01*
G01*
X16366250Y-6786520D02*
G75*
G03*
X16286250Y-6786520I-40000J0D01*
G01*
X16286250Y-6786520D02*
G75*
G03*
X16366250Y-6786520I40000J0D01*
G01*
X16366250Y-7411000D02*
G75*
G03*
X16286250Y-7411000I-40000J0D01*
G01*
X16286250Y-7411000D02*
G75*
G03*
X16366250Y-7411000I40000J0D01*
G01*
X16366250Y-7611000D02*
G75*
G03*
X16286250Y-7611000I-40000J0D01*
G01*
X16286250Y-7611000D02*
G75*
G03*
X16366250Y-7611000I40000J0D01*
G01*
X8413000Y-6801146D02*
X8413000Y-6901146D01*
X8363000Y-6851146D02*
X8463000Y-6851146D01*
X8413100Y-5480147D02*
X8413100Y-5580147D01*
X8363100Y-5530147D02*
X8463100Y-5530147D01*
X8413200Y-5734146D02*
X8413200Y-5834146D01*
X8363200Y-5784146D02*
X8463200Y-5784146D01*
X8413200Y-6547146D02*
X8413200Y-6647146D01*
X8363200Y-6597146D02*
X8463200Y-6597146D01*
X10258200Y-5480147D02*
X10258200Y-5580147D01*
X10208200Y-5530147D02*
X10308200Y-5530147D01*
X10258200Y-5733646D02*
X10258200Y-5833646D01*
X10208200Y-5783646D02*
X10308200Y-5783646D01*
X10258200Y-6547146D02*
X10258200Y-6647146D01*
X10208200Y-6597146D02*
X10308200Y-6597146D01*
X10258200Y-6801146D02*
X10258200Y-6901146D01*
X10208200Y-6851146D02*
X10308200Y-6851146D01*
X10665000Y-5482881D02*
X10665000Y-5582881D01*
X10615000Y-5532881D02*
X10715000Y-5532881D01*
X10665000Y-5736880D02*
X10665000Y-5836880D01*
X10615000Y-5786880D02*
X10715000Y-5786880D01*
X10665000Y-6550380D02*
X10665000Y-6650380D01*
X10615000Y-6600380D02*
X10715000Y-6600380D01*
X10665000Y-6803880D02*
X10665000Y-6903880D01*
X10615000Y-6853880D02*
X10715000Y-6853880D01*
X12510000Y-5736880D02*
X12510000Y-5836880D01*
X12460000Y-5786880D02*
X12560000Y-5786880D01*
X12510000Y-6549880D02*
X12510000Y-6649880D01*
X12460000Y-6599880D02*
X12560000Y-6599880D01*
X12510100Y-6803880D02*
X12510100Y-6903880D01*
X12460100Y-6853880D02*
X12560100Y-6853880D01*
X12510200Y-5482881D02*
X12510200Y-5582881D01*
X12460200Y-5532881D02*
X12560200Y-5532881D01*
X13295000Y-6185500D02*
X13295000Y-6285500D01*
X13245000Y-6235500D02*
X13345000Y-6235500D01*
X13295000Y-6439500D02*
X13295000Y-6539500D01*
X13245000Y-6489500D02*
X13345000Y-6489500D01*
X13295000Y-6693500D02*
X13295000Y-6793500D01*
X13245000Y-6743500D02*
X13345000Y-6743500D01*
X13876000Y-5482881D02*
X13876000Y-5582881D01*
X13826000Y-5532881D02*
X13926000Y-5532881D01*
X13876000Y-5736880D02*
X13876000Y-5836880D01*
X13826000Y-5786880D02*
X13926000Y-5786880D01*
X13876000Y-6550380D02*
X13876000Y-6650380D01*
X13826000Y-6600380D02*
X13926000Y-6600380D01*
X13876000Y-6803880D02*
X13876000Y-6903880D01*
X13826000Y-6853880D02*
X13926000Y-6853880D01*
X15462000Y-4457000D02*
X15462000Y-4557000D01*
X15412000Y-4507000D02*
X15512000Y-4507000D01*
X15412000Y-4457000D02*
X15412000Y-4557000D01*
X15412000Y-4557000D02*
G75*
G03*
X15512000Y-4557000I50000J0D01*
G01*
X15512000Y-4557000D02*
X15512000Y-4457000D01*
X15512000Y-4457000D02*
G75*
G03*
X15412000Y-4457000I-50000J0D01*
G01*
X15721000Y-5736880D02*
X15721000Y-5836880D01*
X15671000Y-5786880D02*
X15771000Y-5786880D01*
X15721000Y-6549880D02*
X15721000Y-6649880D01*
X15671000Y-6599880D02*
X15771000Y-6599880D01*
X15721100Y-6803880D02*
X15721100Y-6903880D01*
X15671100Y-6853880D02*
X15771100Y-6853880D01*
X15721200Y-5482881D02*
X15721200Y-5582881D01*
X15671200Y-5532881D02*
X15771200Y-5532881D01*
D13*
X4760399Y-4038835D02*
X4760399Y-3965196D01*
X4686761Y-3965196D01*
X4686761Y-4038835D01*
X4760399Y-4038835D01*
X4760399Y-4288835D02*
X4760399Y-4215196D01*
X4686761Y-4215196D01*
X4686761Y-4288835D01*
X4760399Y-4288835D01*
X4760399Y-5387819D02*
X4760399Y-5314181D01*
X4686761Y-5314181D01*
X4686761Y-5387819D01*
X4760399Y-5387819D01*
X4760399Y-5637819D02*
X4760399Y-5564181D01*
X4686761Y-5564181D01*
X4686761Y-5637819D01*
X4760399Y-5637819D01*
X16031246Y-2439619D02*
X16031246Y-2365981D01*
X15957607Y-2365981D01*
X15957607Y-2439619D01*
X16031246Y-2439619D01*
X16031246Y-2693619D02*
X16031246Y-2619981D01*
X15957607Y-2619981D01*
X15957607Y-2693619D01*
X16031246Y-2693619D01*
X16031246Y-2947619D02*
X16031246Y-2873981D01*
X15957607Y-2873981D01*
X15957607Y-2947619D01*
X16031246Y-2947619D01*
X16031246Y-3201819D02*
X16031246Y-3128181D01*
X15957607Y-3128181D01*
X15957607Y-3201819D01*
X16031246Y-3201819D01*
X16031246Y-3455619D02*
X16031246Y-3381981D01*
X15957607Y-3381981D01*
X15957607Y-3455619D01*
X16031246Y-3455619D01*
D14*
X5346495Y-3295000D02*
X5406495Y-3235000D01*
X5346495Y-3175000D01*
X5286495Y-3235000D01*
X5346495Y-3295000D01*
X5346495Y-5075000D02*
X5406495Y-5015000D01*
X5346495Y-4955000D01*
X5286495Y-5015000D01*
X5346495Y-5075000D01*
X9346485Y-5075000D02*
X9406485Y-5015000D01*
X9346485Y-4955000D01*
X9286485Y-5015000D01*
X9346485Y-5075000D01*
X9346495Y-3295000D02*
X9406495Y-3235000D01*
X9346495Y-3175000D01*
X9286495Y-3235000D01*
X9346495Y-3295000D01*
D15*
X9803000Y-2971000D02*
X9933000Y-3101000D01*
X9933000Y-2971000D02*
X9803000Y-3101000D01*
X9933000Y-3036000D02*
G75*
G03*
X9803000Y-3036000I-65000J0D01*
G01*
X9803000Y-3036000D02*
G75*
G03*
X9933000Y-3036000I65000J0D01*
G01*
X9803000Y-4442000D02*
X9933000Y-4572000D01*
X9933000Y-4442000D02*
X9803000Y-4572000D01*
X9933000Y-4507000D02*
G75*
G03*
X9803000Y-4507000I-65000J0D01*
G01*
X9803000Y-4507000D02*
G75*
G03*
X9933000Y-4507000I65000J0D01*
G01*
X10803000Y-2971000D02*
X10933000Y-3101000D01*
X10933000Y-2971000D02*
X10803000Y-3101000D01*
X10933000Y-3036000D02*
G75*
G03*
X10803000Y-3036000I-65000J0D01*
G01*
X10803000Y-3036000D02*
G75*
G03*
X10933000Y-3036000I65000J0D01*
G01*
X10803000Y-4442000D02*
X10933000Y-4572000D01*
X10933000Y-4442000D02*
X10803000Y-4572000D01*
X10933000Y-4507000D02*
G75*
G03*
X10803000Y-4507000I-65000J0D01*
G01*
X10803000Y-4507000D02*
G75*
G03*
X10933000Y-4507000I65000J0D01*
G01*
X11383000Y-4442000D02*
X11513000Y-4572000D01*
X11513000Y-4442000D02*
X11383000Y-4572000D01*
X11513000Y-4507000D02*
G75*
G03*
X11383000Y-4507000I-65000J0D01*
G01*
X11383000Y-4507000D02*
G75*
G03*
X11513000Y-4507000I65000J0D01*
G01*
X12383000Y-4442000D02*
X12513000Y-4572000D01*
X12513000Y-4442000D02*
X12383000Y-4572000D01*
X12513000Y-4507000D02*
G75*
G03*
X12383000Y-4507000I-65000J0D01*
G01*
X12383000Y-4507000D02*
G75*
G03*
X12513000Y-4507000I65000J0D01*
G01*
X12969000Y-4442000D02*
X13099000Y-4572000D01*
X13099000Y-4442000D02*
X12969000Y-4572000D01*
X13099000Y-4507000D02*
G75*
G03*
X12969000Y-4507000I-65000J0D01*
G01*
X12969000Y-4507000D02*
G75*
G03*
X13099000Y-4507000I65000J0D01*
G01*
X13969000Y-4442000D02*
X14099000Y-4572000D01*
X14099000Y-4442000D02*
X13969000Y-4572000D01*
X14099000Y-4507000D02*
G75*
G03*
X13969000Y-4507000I-65000J0D01*
G01*
X13969000Y-4507000D02*
G75*
G03*
X14099000Y-4507000I65000J0D01*
G01*
D16*
X5180000Y-7219000D02*
X5330000Y-7369000D01*
X5330000Y-7219000D02*
X5180000Y-7369000D01*
X5255000Y-7219000D02*
X5255000Y-7369000D01*
X5180000Y-7294000D02*
X5330000Y-7294000D01*
X5180000Y-9219000D02*
X5330000Y-9369000D01*
X5330000Y-9219000D02*
X5180000Y-9369000D01*
X5255000Y-9219000D02*
X5255000Y-9369000D01*
X5180000Y-9294000D02*
X5330000Y-9294000D01*
X5307000Y-5357000D02*
X5457000Y-5507000D01*
X5457000Y-5357000D02*
X5307000Y-5507000D01*
X5382000Y-5357000D02*
X5382000Y-5507000D01*
X5307000Y-5432000D02*
X5457000Y-5432000D01*
X5307000Y-5611000D02*
X5457000Y-5761000D01*
X5457000Y-5611000D02*
X5307000Y-5761000D01*
X5382000Y-5611000D02*
X5382000Y-5761000D01*
X5307000Y-5686000D02*
X5457000Y-5686000D01*
X5307000Y-6503000D02*
X5457000Y-6653000D01*
X5457000Y-6503000D02*
X5307000Y-6653000D01*
X5382000Y-6503000D02*
X5382000Y-6653000D01*
X5307000Y-6578000D02*
X5457000Y-6578000D01*
X5307000Y-6757000D02*
X5457000Y-6907000D01*
X5457000Y-6757000D02*
X5307000Y-6907000D01*
X5382000Y-6757000D02*
X5382000Y-6907000D01*
X5307000Y-6832000D02*
X5457000Y-6832000D01*
X7907000Y-5357000D02*
X8057000Y-5507000D01*
X8057000Y-5357000D02*
X7907000Y-5507000D01*
X7982000Y-5357000D02*
X7982000Y-5507000D01*
X7907000Y-5432000D02*
X8057000Y-5432000D01*
X7907000Y-5611000D02*
X8057000Y-5761000D01*
X8057000Y-5611000D02*
X7907000Y-5761000D01*
X7982000Y-5611000D02*
X7982000Y-5761000D01*
X7907000Y-5686000D02*
X8057000Y-5686000D01*
X7907000Y-6503000D02*
X8057000Y-6653000D01*
X8057000Y-6503000D02*
X7907000Y-6653000D01*
X7982000Y-6503000D02*
X7982000Y-6653000D01*
X7907000Y-6578000D02*
X8057000Y-6578000D01*
X7907000Y-6757000D02*
X8057000Y-6907000D01*
X8057000Y-6757000D02*
X7907000Y-6907000D01*
X7982000Y-6757000D02*
X7982000Y-6907000D01*
X7907000Y-6832000D02*
X8057000Y-6832000D01*
X10229993Y-9219000D02*
X10379993Y-9369000D01*
X10379993Y-9219000D02*
X10229993Y-9369000D01*
X10304993Y-9219000D02*
X10304993Y-9369000D01*
X10229993Y-9294000D02*
X10379993Y-9294000D01*
X10230000Y-7219000D02*
X10380000Y-7369000D01*
X10380000Y-7219000D02*
X10230000Y-7369000D01*
X10305000Y-7219000D02*
X10305000Y-7369000D01*
X10230000Y-7294000D02*
X10380000Y-7294000D01*
X10596000Y-9188980D02*
X10746000Y-9338980D01*
X10746000Y-9188980D02*
X10596000Y-9338980D01*
X10671000Y-9188980D02*
X10671000Y-9338980D01*
X10596000Y-9263980D02*
X10746000Y-9263980D01*
X10596007Y-7188980D02*
X10746007Y-7338980D01*
X10746007Y-7188980D02*
X10596007Y-7338980D01*
X10671007Y-7188980D02*
X10671007Y-7338980D01*
X10596007Y-7263980D02*
X10746007Y-7263980D01*
X15646000Y-7188980D02*
X15796000Y-7338980D01*
X15796000Y-7188980D02*
X15646000Y-7338980D01*
X15721000Y-7188980D02*
X15721000Y-7338980D01*
X15646000Y-7263980D02*
X15796000Y-7263980D01*
X15646000Y-9188980D02*
X15796000Y-9338980D01*
X15796000Y-9188980D02*
X15646000Y-9338980D01*
X15721000Y-9188980D02*
X15721000Y-9338980D01*
X15646000Y-9263980D02*
X15796000Y-9263980D01*
D17*
X4493850Y-2300950D02*
X4663850Y-2470950D01*
X4663850Y-2300950D02*
X4493850Y-2470950D01*
X4638955Y-2446055D02*
X4638955Y-2325845D01*
X4518745Y-2325845D01*
X4518745Y-2446055D01*
X4638955Y-2446055D01*
X4493850Y-2696950D02*
X4663850Y-2866950D01*
X4663850Y-2696950D02*
X4493850Y-2866950D01*
X4638955Y-2842055D02*
X4638955Y-2721845D01*
X4518745Y-2721845D01*
X4518745Y-2842055D01*
X4638955Y-2842055D01*
X4493850Y-7995990D02*
X4663850Y-8165990D01*
X4663850Y-7995990D02*
X4493850Y-8165990D01*
X4638955Y-8141094D02*
X4638955Y-8020885D01*
X4518745Y-8020885D01*
X4518745Y-8141094D01*
X4638955Y-8141094D01*
X4493850Y-8391990D02*
X4663850Y-8561990D01*
X4663850Y-8391990D02*
X4493850Y-8561990D01*
X4638955Y-8537095D02*
X4638955Y-8416885D01*
X4518745Y-8416885D01*
X4518745Y-8537095D01*
X4638955Y-8537095D01*
X11369150Y-2958850D02*
X11539150Y-3128850D01*
X11539150Y-2958850D02*
X11369150Y-3128850D01*
X11514255Y-3103955D02*
X11514255Y-2983745D01*
X11394045Y-2983745D01*
X11394045Y-3103955D01*
X11514255Y-3103955D01*
X11765150Y-2958850D02*
X11935150Y-3128850D01*
X11935150Y-2958850D02*
X11765150Y-3128850D01*
X11910255Y-3103955D02*
X11910255Y-2983745D01*
X11790045Y-2983745D01*
X11790045Y-3103955D01*
X11910255Y-3103955D01*
X12161150Y-2958850D02*
X12331150Y-3128850D01*
X12331150Y-2958850D02*
X12161150Y-3128850D01*
X12306255Y-3103955D02*
X12306255Y-2983745D01*
X12186045Y-2983745D01*
X12186045Y-3103955D01*
X12306255Y-3103955D01*
X16311250Y-7995990D02*
X16481250Y-8165990D01*
X16481250Y-7995990D02*
X16311250Y-8165990D01*
X16456355Y-8141094D02*
X16456355Y-8020885D01*
X16336145Y-8020885D01*
X16336145Y-8141094D01*
X16456355Y-8141094D01*
X16311250Y-8391990D02*
X16481250Y-8561990D01*
X16481250Y-8391990D02*
X16311250Y-8561990D01*
X16456355Y-8537095D02*
X16456355Y-8416885D01*
X16336145Y-8416885D01*
X16336145Y-8537095D01*
X16456355Y-8537095D01*
D18*
X12937000Y-2947000D02*
X13113000Y-3123000D01*
X13113000Y-2947000D02*
X12937000Y-3123000D01*
X13025000Y-3123000D02*
X13113000Y-3035000D01*
X13025000Y-2947000D01*
X12937000Y-3035000D01*
X13025000Y-3123000D01*
X13333000Y-2947000D02*
X13509000Y-3123000D01*
X13509000Y-2947000D02*
X13333000Y-3123000D01*
X13421000Y-3123000D02*
X13509000Y-3035000D01*
X13421000Y-2947000D01*
X13333000Y-3035000D01*
X13421000Y-3123000D01*
X13729000Y-2947000D02*
X13905000Y-3123000D01*
X13905000Y-2947000D02*
X13729000Y-3123000D01*
X13817000Y-3123000D02*
X13905000Y-3035000D01*
X13817000Y-2947000D01*
X13729000Y-3035000D01*
X13817000Y-3123000D01*
X14125000Y-2947000D02*
X14301000Y-3123000D01*
X14301000Y-2947000D02*
X14125000Y-3123000D01*
X14213000Y-3123000D02*
X14301000Y-3035000D01*
X14213000Y-2947000D01*
X14125000Y-3035000D01*
X14213000Y-3123000D01*
D19*
X15097000Y-4012000D02*
X15097000Y-4282000D01*
X14962000Y-4147000D02*
X15232000Y-4147000D01*
X15232000Y-4147000D02*
G75*
G03*
X14962000Y-4147000I-135000J0D01*
G01*
X14962000Y-4147000D02*
G75*
G03*
X15232000Y-4147000I135000J0D01*
G01*
X15097000Y-4732000D02*
X15097000Y-5002000D01*
X14962000Y-4867000D02*
X15232000Y-4867000D01*
X15232000Y-4867000D02*
G75*
G03*
X14962000Y-4867000I-135000J0D01*
G01*
X14962000Y-4867000D02*
G75*
G03*
X15232000Y-4867000I135000J0D01*
G01*
D11*
X4433277Y-9822984D02*
X4433277Y-9622984D01*
X4433277Y-9622984D02*
X4480896Y-9622984D01*
X4480896Y-9622984D02*
X4509467Y-9632508D01*
X4509467Y-9632508D02*
X4528515Y-9651555D01*
X4528515Y-9651555D02*
X4538039Y-9670603D01*
X4538039Y-9670603D02*
X4547563Y-9708698D01*
X4547563Y-9708698D02*
X4547563Y-9737270D01*
X4547563Y-9737270D02*
X4538039Y-9775365D01*
X4538039Y-9775365D02*
X4528515Y-9794412D01*
X4528515Y-9794412D02*
X4509467Y-9813460D01*
X4509467Y-9813460D02*
X4480896Y-9822984D01*
X4480896Y-9822984D02*
X4433277Y-9822984D01*
X4633277Y-9822984D02*
X4633277Y-9689650D01*
X4633277Y-9727746D02*
X4642801Y-9708698D01*
X4642801Y-9708698D02*
X4652324Y-9699174D01*
X4652324Y-9699174D02*
X4671372Y-9689650D01*
X4671372Y-9689650D02*
X4690420Y-9689650D01*
X4757086Y-9822984D02*
X4757086Y-9689650D01*
X4757086Y-9622984D02*
X4747563Y-9632508D01*
X4747563Y-9632508D02*
X4757086Y-9642031D01*
X4757086Y-9642031D02*
X4766610Y-9632508D01*
X4766610Y-9632508D02*
X4757086Y-9622984D01*
X4757086Y-9622984D02*
X4757086Y-9642031D01*
X4880896Y-9822984D02*
X4861848Y-9813460D01*
X4861848Y-9813460D02*
X4852324Y-9794412D01*
X4852324Y-9794412D02*
X4852324Y-9622984D01*
X4985658Y-9822984D02*
X4966610Y-9813460D01*
X4966610Y-9813460D02*
X4957086Y-9794412D01*
X4957086Y-9794412D02*
X4957086Y-9622984D01*
X5214229Y-9822984D02*
X5214229Y-9622984D01*
X5214229Y-9622984D02*
X5280896Y-9765841D01*
X5280896Y-9765841D02*
X5347563Y-9622984D01*
X5347563Y-9622984D02*
X5347563Y-9822984D01*
X5528515Y-9822984D02*
X5528515Y-9718222D01*
X5528515Y-9718222D02*
X5518991Y-9699174D01*
X5518991Y-9699174D02*
X5499944Y-9689650D01*
X5499944Y-9689650D02*
X5461848Y-9689650D01*
X5461848Y-9689650D02*
X5442801Y-9699174D01*
X5528515Y-9813460D02*
X5509467Y-9822984D01*
X5509467Y-9822984D02*
X5461848Y-9822984D01*
X5461848Y-9822984D02*
X5442801Y-9813460D01*
X5442801Y-9813460D02*
X5433277Y-9794412D01*
X5433277Y-9794412D02*
X5433277Y-9775365D01*
X5433277Y-9775365D02*
X5442801Y-9756317D01*
X5442801Y-9756317D02*
X5461848Y-9746793D01*
X5461848Y-9746793D02*
X5509467Y-9746793D01*
X5509467Y-9746793D02*
X5528515Y-9737270D01*
X5623753Y-9689650D02*
X5623753Y-9889650D01*
X5623753Y-9699174D02*
X5642801Y-9689650D01*
X5642801Y-9689650D02*
X5680896Y-9689650D01*
X5680896Y-9689650D02*
X5699943Y-9699174D01*
X5699943Y-9699174D02*
X5709467Y-9708698D01*
X5709467Y-9708698D02*
X5718991Y-9727746D01*
X5718991Y-9727746D02*
X5718991Y-9784889D01*
X5718991Y-9784889D02*
X5709467Y-9803936D01*
X5709467Y-9803936D02*
X5699943Y-9813460D01*
X5699943Y-9813460D02*
X5680896Y-9822984D01*
X5680896Y-9822984D02*
X5642801Y-9822984D01*
X5642801Y-9822984D02*
X5623753Y-9813460D01*
X5804705Y-9803936D02*
X5814229Y-9813460D01*
X5814229Y-9813460D02*
X5804705Y-9822984D01*
X5804705Y-9822984D02*
X5795182Y-9813460D01*
X5795182Y-9813460D02*
X5804705Y-9803936D01*
X5804705Y-9803936D02*
X5804705Y-9822984D01*
X5804705Y-9699174D02*
X5814229Y-9708698D01*
X5814229Y-9708698D02*
X5804705Y-9718222D01*
X5804705Y-9718222D02*
X5795182Y-9708698D01*
X5795182Y-9708698D02*
X5804705Y-9699174D01*
X5804705Y-9699174D02*
X5804705Y-9718222D01*
D12*
X4112500Y-10121500D02*
X4172500Y-10181500D01*
X4172500Y-10121500D02*
X4112500Y-10181500D01*
D11*
X4471372Y-10042984D02*
X4490420Y-10042984D01*
X4490420Y-10042984D02*
X4509467Y-10052508D01*
X4509467Y-10052508D02*
X4518991Y-10062031D01*
X4518991Y-10062031D02*
X4528515Y-10081079D01*
X4528515Y-10081079D02*
X4538039Y-10119174D01*
X4538039Y-10119174D02*
X4538039Y-10166793D01*
X4538039Y-10166793D02*
X4528515Y-10204889D01*
X4528515Y-10204889D02*
X4518991Y-10223936D01*
X4518991Y-10223936D02*
X4509467Y-10233460D01*
X4509467Y-10233460D02*
X4490420Y-10242984D01*
X4490420Y-10242984D02*
X4471372Y-10242984D01*
X4471372Y-10242984D02*
X4452324Y-10233460D01*
X4452324Y-10233460D02*
X4442801Y-10223936D01*
X4442801Y-10223936D02*
X4433277Y-10204889D01*
X4433277Y-10204889D02*
X4423753Y-10166793D01*
X4423753Y-10166793D02*
X4423753Y-10119174D01*
X4423753Y-10119174D02*
X4433277Y-10081079D01*
X4433277Y-10081079D02*
X4442801Y-10062031D01*
X4442801Y-10062031D02*
X4452324Y-10052508D01*
X4452324Y-10052508D02*
X4471372Y-10042984D01*
X4623753Y-10223936D02*
X4633277Y-10233460D01*
X4633277Y-10233460D02*
X4623753Y-10242984D01*
X4623753Y-10242984D02*
X4614229Y-10233460D01*
X4614229Y-10233460D02*
X4623753Y-10223936D01*
X4623753Y-10223936D02*
X4623753Y-10242984D01*
X4804705Y-10042984D02*
X4766610Y-10042984D01*
X4766610Y-10042984D02*
X4747563Y-10052508D01*
X4747563Y-10052508D02*
X4738039Y-10062031D01*
X4738039Y-10062031D02*
X4718991Y-10090603D01*
X4718991Y-10090603D02*
X4709467Y-10128698D01*
X4709467Y-10128698D02*
X4709467Y-10204889D01*
X4709467Y-10204889D02*
X4718991Y-10223936D01*
X4718991Y-10223936D02*
X4728515Y-10233460D01*
X4728515Y-10233460D02*
X4747563Y-10242984D01*
X4747563Y-10242984D02*
X4785658Y-10242984D01*
X4785658Y-10242984D02*
X4804705Y-10233460D01*
X4804705Y-10233460D02*
X4814229Y-10223936D01*
X4814229Y-10223936D02*
X4823753Y-10204889D01*
X4823753Y-10204889D02*
X4823753Y-10157270D01*
X4823753Y-10157270D02*
X4814229Y-10138222D01*
X4814229Y-10138222D02*
X4804705Y-10128698D01*
X4804705Y-10128698D02*
X4785658Y-10119174D01*
X4785658Y-10119174D02*
X4747563Y-10119174D01*
X4747563Y-10119174D02*
X4728515Y-10128698D01*
X4728515Y-10128698D02*
X4718991Y-10138222D01*
X4718991Y-10138222D02*
X4709467Y-10157270D01*
X4947563Y-10042984D02*
X4966610Y-10042984D01*
X4966610Y-10042984D02*
X4985658Y-10052508D01*
X4985658Y-10052508D02*
X4995182Y-10062031D01*
X4995182Y-10062031D02*
X5004705Y-10081079D01*
X5004705Y-10081079D02*
X5014229Y-10119174D01*
X5014229Y-10119174D02*
X5014229Y-10166793D01*
X5014229Y-10166793D02*
X5004705Y-10204889D01*
X5004705Y-10204889D02*
X4995182Y-10223936D01*
X4995182Y-10223936D02*
X4985658Y-10233460D01*
X4985658Y-10233460D02*
X4966610Y-10242984D01*
X4966610Y-10242984D02*
X4947563Y-10242984D01*
X4947563Y-10242984D02*
X4928515Y-10233460D01*
X4928515Y-10233460D02*
X4918991Y-10223936D01*
X4918991Y-10223936D02*
X4909467Y-10204889D01*
X4909467Y-10204889D02*
X4899944Y-10166793D01*
X4899944Y-10166793D02*
X4899944Y-10119174D01*
X4899944Y-10119174D02*
X4909467Y-10081079D01*
X4909467Y-10081079D02*
X4918991Y-10062031D01*
X4918991Y-10062031D02*
X4928515Y-10052508D01*
X4928515Y-10052508D02*
X4947563Y-10042984D01*
X5138039Y-10042984D02*
X5157086Y-10042984D01*
X5157086Y-10042984D02*
X5176134Y-10052508D01*
X5176134Y-10052508D02*
X5185658Y-10062031D01*
X5185658Y-10062031D02*
X5195182Y-10081079D01*
X5195182Y-10081079D02*
X5204705Y-10119174D01*
X5204705Y-10119174D02*
X5204705Y-10166793D01*
X5204705Y-10166793D02*
X5195182Y-10204889D01*
X5195182Y-10204889D02*
X5185658Y-10223936D01*
X5185658Y-10223936D02*
X5176134Y-10233460D01*
X5176134Y-10233460D02*
X5157086Y-10242984D01*
X5157086Y-10242984D02*
X5138039Y-10242984D01*
X5138039Y-10242984D02*
X5118991Y-10233460D01*
X5118991Y-10233460D02*
X5109467Y-10223936D01*
X5109467Y-10223936D02*
X5099944Y-10204889D01*
X5099944Y-10204889D02*
X5090420Y-10166793D01*
X5090420Y-10166793D02*
X5090420Y-10119174D01*
X5090420Y-10119174D02*
X5099944Y-10081079D01*
X5099944Y-10081079D02*
X5109467Y-10062031D01*
X5109467Y-10062031D02*
X5118991Y-10052508D01*
X5118991Y-10052508D02*
X5138039Y-10042984D01*
X5290420Y-10242984D02*
X5290420Y-10109650D01*
X5290420Y-10128698D02*
X5299944Y-10119174D01*
X5299944Y-10119174D02*
X5318991Y-10109650D01*
X5318991Y-10109650D02*
X5347563Y-10109650D01*
X5347563Y-10109650D02*
X5366610Y-10119174D01*
X5366610Y-10119174D02*
X5376134Y-10138222D01*
X5376134Y-10138222D02*
X5376134Y-10242984D01*
X5376134Y-10138222D02*
X5385658Y-10119174D01*
X5385658Y-10119174D02*
X5404705Y-10109650D01*
X5404705Y-10109650D02*
X5433277Y-10109650D01*
X5433277Y-10109650D02*
X5452325Y-10119174D01*
X5452325Y-10119174D02*
X5461848Y-10138222D01*
X5461848Y-10138222D02*
X5461848Y-10242984D01*
X5557086Y-10242984D02*
X5557086Y-10109650D01*
X5557086Y-10128698D02*
X5566610Y-10119174D01*
X5566610Y-10119174D02*
X5585658Y-10109650D01*
X5585658Y-10109650D02*
X5614229Y-10109650D01*
X5614229Y-10109650D02*
X5633277Y-10119174D01*
X5633277Y-10119174D02*
X5642801Y-10138222D01*
X5642801Y-10138222D02*
X5642801Y-10242984D01*
X5642801Y-10138222D02*
X5652324Y-10119174D01*
X5652324Y-10119174D02*
X5671372Y-10109650D01*
X5671372Y-10109650D02*
X5699943Y-10109650D01*
X5699943Y-10109650D02*
X5718991Y-10119174D01*
X5718991Y-10119174D02*
X5728515Y-10138222D01*
X5728515Y-10138222D02*
X5728515Y-10242984D01*
X6118991Y-10033460D02*
X5947563Y-10290603D01*
X6376134Y-10042984D02*
X6395182Y-10042984D01*
X6395182Y-10042984D02*
X6414229Y-10052508D01*
X6414229Y-10052508D02*
X6423753Y-10062031D01*
X6423753Y-10062031D02*
X6433277Y-10081079D01*
X6433277Y-10081079D02*
X6442801Y-10119174D01*
X6442801Y-10119174D02*
X6442801Y-10166793D01*
X6442801Y-10166793D02*
X6433277Y-10204889D01*
X6433277Y-10204889D02*
X6423753Y-10223936D01*
X6423753Y-10223936D02*
X6414229Y-10233460D01*
X6414229Y-10233460D02*
X6395182Y-10242984D01*
X6395182Y-10242984D02*
X6376134Y-10242984D01*
X6376134Y-10242984D02*
X6357086Y-10233460D01*
X6357086Y-10233460D02*
X6347563Y-10223936D01*
X6347563Y-10223936D02*
X6338039Y-10204889D01*
X6338039Y-10204889D02*
X6328515Y-10166793D01*
X6328515Y-10166793D02*
X6328515Y-10119174D01*
X6328515Y-10119174D02*
X6338039Y-10081079D01*
X6338039Y-10081079D02*
X6347563Y-10062031D01*
X6347563Y-10062031D02*
X6357086Y-10052508D01*
X6357086Y-10052508D02*
X6376134Y-10042984D01*
X6528515Y-10223936D02*
X6538039Y-10233460D01*
X6538039Y-10233460D02*
X6528515Y-10242984D01*
X6528515Y-10242984D02*
X6518991Y-10233460D01*
X6518991Y-10233460D02*
X6528515Y-10223936D01*
X6528515Y-10223936D02*
X6528515Y-10242984D01*
X6661848Y-10042984D02*
X6680896Y-10042984D01*
X6680896Y-10042984D02*
X6699944Y-10052508D01*
X6699944Y-10052508D02*
X6709467Y-10062031D01*
X6709467Y-10062031D02*
X6718991Y-10081079D01*
X6718991Y-10081079D02*
X6728515Y-10119174D01*
X6728515Y-10119174D02*
X6728515Y-10166793D01*
X6728515Y-10166793D02*
X6718991Y-10204889D01*
X6718991Y-10204889D02*
X6709467Y-10223936D01*
X6709467Y-10223936D02*
X6699944Y-10233460D01*
X6699944Y-10233460D02*
X6680896Y-10242984D01*
X6680896Y-10242984D02*
X6661848Y-10242984D01*
X6661848Y-10242984D02*
X6642801Y-10233460D01*
X6642801Y-10233460D02*
X6633277Y-10223936D01*
X6633277Y-10223936D02*
X6623753Y-10204889D01*
X6623753Y-10204889D02*
X6614229Y-10166793D01*
X6614229Y-10166793D02*
X6614229Y-10119174D01*
X6614229Y-10119174D02*
X6623753Y-10081079D01*
X6623753Y-10081079D02*
X6633277Y-10062031D01*
X6633277Y-10062031D02*
X6642801Y-10052508D01*
X6642801Y-10052508D02*
X6661848Y-10042984D01*
X6804706Y-10062031D02*
X6814229Y-10052508D01*
X6814229Y-10052508D02*
X6833277Y-10042984D01*
X6833277Y-10042984D02*
X6880896Y-10042984D01*
X6880896Y-10042984D02*
X6899944Y-10052508D01*
X6899944Y-10052508D02*
X6909467Y-10062031D01*
X6909467Y-10062031D02*
X6918991Y-10081079D01*
X6918991Y-10081079D02*
X6918991Y-10100127D01*
X6918991Y-10100127D02*
X6909467Y-10128698D01*
X6909467Y-10128698D02*
X6795182Y-10242984D01*
X6795182Y-10242984D02*
X6918991Y-10242984D01*
X6985658Y-10042984D02*
X7109467Y-10042984D01*
X7109467Y-10042984D02*
X7042801Y-10119174D01*
X7042801Y-10119174D02*
X7071372Y-10119174D01*
X7071372Y-10119174D02*
X7090420Y-10128698D01*
X7090420Y-10128698D02*
X7099944Y-10138222D01*
X7099944Y-10138222D02*
X7109467Y-10157270D01*
X7109467Y-10157270D02*
X7109467Y-10204889D01*
X7109467Y-10204889D02*
X7099944Y-10223936D01*
X7099944Y-10223936D02*
X7090420Y-10233460D01*
X7090420Y-10233460D02*
X7071372Y-10242984D01*
X7071372Y-10242984D02*
X7014229Y-10242984D01*
X7014229Y-10242984D02*
X6995182Y-10233460D01*
X6995182Y-10233460D02*
X6985658Y-10223936D01*
X7280896Y-10042984D02*
X7242801Y-10042984D01*
X7242801Y-10042984D02*
X7223753Y-10052508D01*
X7223753Y-10052508D02*
X7214229Y-10062031D01*
X7214229Y-10062031D02*
X7195182Y-10090603D01*
X7195182Y-10090603D02*
X7185658Y-10128698D01*
X7185658Y-10128698D02*
X7185658Y-10204889D01*
X7185658Y-10204889D02*
X7195182Y-10223936D01*
X7195182Y-10223936D02*
X7204706Y-10233460D01*
X7204706Y-10233460D02*
X7223753Y-10242984D01*
X7223753Y-10242984D02*
X7261848Y-10242984D01*
X7261848Y-10242984D02*
X7280896Y-10233460D01*
X7280896Y-10233460D02*
X7290420Y-10223936D01*
X7290420Y-10223936D02*
X7299944Y-10204889D01*
X7299944Y-10204889D02*
X7299944Y-10157270D01*
X7299944Y-10157270D02*
X7290420Y-10138222D01*
X7290420Y-10138222D02*
X7280896Y-10128698D01*
X7280896Y-10128698D02*
X7261848Y-10119174D01*
X7261848Y-10119174D02*
X7223753Y-10119174D01*
X7223753Y-10119174D02*
X7204706Y-10128698D01*
X7204706Y-10128698D02*
X7195182Y-10138222D01*
X7195182Y-10138222D02*
X7185658Y-10157270D01*
X7376134Y-10042984D02*
X7376134Y-10081079D01*
X7452325Y-10042984D02*
X7452325Y-10081079D01*
X7747563Y-10319174D02*
X7738039Y-10309650D01*
X7738039Y-10309650D02*
X7718991Y-10281079D01*
X7718991Y-10281079D02*
X7709468Y-10262031D01*
X7709468Y-10262031D02*
X7699944Y-10233460D01*
X7699944Y-10233460D02*
X7690420Y-10185841D01*
X7690420Y-10185841D02*
X7690420Y-10147746D01*
X7690420Y-10147746D02*
X7699944Y-10100127D01*
X7699944Y-10100127D02*
X7709468Y-10071555D01*
X7709468Y-10071555D02*
X7718991Y-10052508D01*
X7718991Y-10052508D02*
X7738039Y-10023936D01*
X7738039Y-10023936D02*
X7747563Y-10014412D01*
X7861848Y-10042984D02*
X7880896Y-10042984D01*
X7880896Y-10042984D02*
X7899944Y-10052508D01*
X7899944Y-10052508D02*
X7909468Y-10062031D01*
X7909468Y-10062031D02*
X7918991Y-10081079D01*
X7918991Y-10081079D02*
X7928515Y-10119174D01*
X7928515Y-10119174D02*
X7928515Y-10166793D01*
X7928515Y-10166793D02*
X7918991Y-10204889D01*
X7918991Y-10204889D02*
X7909468Y-10223936D01*
X7909468Y-10223936D02*
X7899944Y-10233460D01*
X7899944Y-10233460D02*
X7880896Y-10242984D01*
X7880896Y-10242984D02*
X7861848Y-10242984D01*
X7861848Y-10242984D02*
X7842801Y-10233460D01*
X7842801Y-10233460D02*
X7833277Y-10223936D01*
X7833277Y-10223936D02*
X7823753Y-10204889D01*
X7823753Y-10204889D02*
X7814229Y-10166793D01*
X7814229Y-10166793D02*
X7814229Y-10119174D01*
X7814229Y-10119174D02*
X7823753Y-10081079D01*
X7823753Y-10081079D02*
X7833277Y-10062031D01*
X7833277Y-10062031D02*
X7842801Y-10052508D01*
X7842801Y-10052508D02*
X7861848Y-10042984D01*
X8166610Y-10242984D02*
X8166610Y-10042984D01*
X8252325Y-10242984D02*
X8252325Y-10138222D01*
X8252325Y-10138222D02*
X8242801Y-10119174D01*
X8242801Y-10119174D02*
X8223753Y-10109650D01*
X8223753Y-10109650D02*
X8195182Y-10109650D01*
X8195182Y-10109650D02*
X8176134Y-10119174D01*
X8176134Y-10119174D02*
X8166610Y-10128698D01*
X8376134Y-10242984D02*
X8357087Y-10233460D01*
X8357087Y-10233460D02*
X8347563Y-10223936D01*
X8347563Y-10223936D02*
X8338039Y-10204889D01*
X8338039Y-10204889D02*
X8338039Y-10147746D01*
X8338039Y-10147746D02*
X8347563Y-10128698D01*
X8347563Y-10128698D02*
X8357087Y-10119174D01*
X8357087Y-10119174D02*
X8376134Y-10109650D01*
X8376134Y-10109650D02*
X8404706Y-10109650D01*
X8404706Y-10109650D02*
X8423753Y-10119174D01*
X8423753Y-10119174D02*
X8433277Y-10128698D01*
X8433277Y-10128698D02*
X8442801Y-10147746D01*
X8442801Y-10147746D02*
X8442801Y-10204889D01*
X8442801Y-10204889D02*
X8433277Y-10223936D01*
X8433277Y-10223936D02*
X8423753Y-10233460D01*
X8423753Y-10233460D02*
X8404706Y-10242984D01*
X8404706Y-10242984D02*
X8376134Y-10242984D01*
X8557087Y-10242984D02*
X8538039Y-10233460D01*
X8538039Y-10233460D02*
X8528515Y-10214412D01*
X8528515Y-10214412D02*
X8528515Y-10042984D01*
X8709468Y-10233460D02*
X8690420Y-10242984D01*
X8690420Y-10242984D02*
X8652325Y-10242984D01*
X8652325Y-10242984D02*
X8633277Y-10233460D01*
X8633277Y-10233460D02*
X8623753Y-10214412D01*
X8623753Y-10214412D02*
X8623753Y-10138222D01*
X8623753Y-10138222D02*
X8633277Y-10119174D01*
X8633277Y-10119174D02*
X8652325Y-10109650D01*
X8652325Y-10109650D02*
X8690420Y-10109650D01*
X8690420Y-10109650D02*
X8709468Y-10119174D01*
X8709468Y-10119174D02*
X8718992Y-10138222D01*
X8718992Y-10138222D02*
X8718992Y-10157270D01*
X8718992Y-10157270D02*
X8623753Y-10176317D01*
X8795182Y-10233460D02*
X8814230Y-10242984D01*
X8814230Y-10242984D02*
X8852325Y-10242984D01*
X8852325Y-10242984D02*
X8871373Y-10233460D01*
X8871373Y-10233460D02*
X8880896Y-10214412D01*
X8880896Y-10214412D02*
X8880896Y-10204889D01*
X8880896Y-10204889D02*
X8871373Y-10185841D01*
X8871373Y-10185841D02*
X8852325Y-10176317D01*
X8852325Y-10176317D02*
X8823753Y-10176317D01*
X8823753Y-10176317D02*
X8804706Y-10166793D01*
X8804706Y-10166793D02*
X8795182Y-10147746D01*
X8795182Y-10147746D02*
X8795182Y-10138222D01*
X8795182Y-10138222D02*
X8804706Y-10119174D01*
X8804706Y-10119174D02*
X8823753Y-10109650D01*
X8823753Y-10109650D02*
X8852325Y-10109650D01*
X8852325Y-10109650D02*
X8871373Y-10119174D01*
X9118992Y-10166793D02*
X9271373Y-10166793D01*
X9195182Y-10242984D02*
X9195182Y-10090603D01*
X9509468Y-10062031D02*
X9518992Y-10052508D01*
X9518992Y-10052508D02*
X9538039Y-10042984D01*
X9538039Y-10042984D02*
X9585658Y-10042984D01*
X9585658Y-10042984D02*
X9604706Y-10052508D01*
X9604706Y-10052508D02*
X9614230Y-10062031D01*
X9614230Y-10062031D02*
X9623754Y-10081079D01*
X9623754Y-10081079D02*
X9623754Y-10100127D01*
X9623754Y-10100127D02*
X9614230Y-10128698D01*
X9614230Y-10128698D02*
X9499944Y-10242984D01*
X9499944Y-10242984D02*
X9623754Y-10242984D01*
X9852325Y-10233460D02*
X9871373Y-10242984D01*
X9871373Y-10242984D02*
X9909468Y-10242984D01*
X9909468Y-10242984D02*
X9928516Y-10233460D01*
X9928516Y-10233460D02*
X9938039Y-10214412D01*
X9938039Y-10214412D02*
X9938039Y-10204889D01*
X9938039Y-10204889D02*
X9928516Y-10185841D01*
X9928516Y-10185841D02*
X9909468Y-10176317D01*
X9909468Y-10176317D02*
X9880896Y-10176317D01*
X9880896Y-10176317D02*
X9861849Y-10166793D01*
X9861849Y-10166793D02*
X9852325Y-10147746D01*
X9852325Y-10147746D02*
X9852325Y-10138222D01*
X9852325Y-10138222D02*
X9861849Y-10119174D01*
X9861849Y-10119174D02*
X9880896Y-10109650D01*
X9880896Y-10109650D02*
X9909468Y-10109650D01*
X9909468Y-10109650D02*
X9928516Y-10119174D01*
X10052325Y-10242984D02*
X10033277Y-10233460D01*
X10033277Y-10233460D02*
X10023754Y-10214412D01*
X10023754Y-10214412D02*
X10023754Y-10042984D01*
X10157087Y-10242984D02*
X10138039Y-10233460D01*
X10138039Y-10233460D02*
X10128516Y-10223936D01*
X10128516Y-10223936D02*
X10118992Y-10204889D01*
X10118992Y-10204889D02*
X10118992Y-10147746D01*
X10118992Y-10147746D02*
X10128516Y-10128698D01*
X10128516Y-10128698D02*
X10138039Y-10119174D01*
X10138039Y-10119174D02*
X10157087Y-10109650D01*
X10157087Y-10109650D02*
X10185658Y-10109650D01*
X10185658Y-10109650D02*
X10204706Y-10119174D01*
X10204706Y-10119174D02*
X10214230Y-10128698D01*
X10214230Y-10128698D02*
X10223754Y-10147746D01*
X10223754Y-10147746D02*
X10223754Y-10204889D01*
X10223754Y-10204889D02*
X10214230Y-10223936D01*
X10214230Y-10223936D02*
X10204706Y-10233460D01*
X10204706Y-10233460D02*
X10185658Y-10242984D01*
X10185658Y-10242984D02*
X10157087Y-10242984D01*
X10280897Y-10109650D02*
X10357087Y-10109650D01*
X10309468Y-10042984D02*
X10309468Y-10214412D01*
X10309468Y-10214412D02*
X10318992Y-10233460D01*
X10318992Y-10233460D02*
X10338039Y-10242984D01*
X10338039Y-10242984D02*
X10357087Y-10242984D01*
X10414230Y-10233460D02*
X10433277Y-10242984D01*
X10433277Y-10242984D02*
X10471373Y-10242984D01*
X10471373Y-10242984D02*
X10490420Y-10233460D01*
X10490420Y-10233460D02*
X10499944Y-10214412D01*
X10499944Y-10214412D02*
X10499944Y-10204889D01*
X10499944Y-10204889D02*
X10490420Y-10185841D01*
X10490420Y-10185841D02*
X10471373Y-10176317D01*
X10471373Y-10176317D02*
X10442801Y-10176317D01*
X10442801Y-10176317D02*
X10423754Y-10166793D01*
X10423754Y-10166793D02*
X10414230Y-10147746D01*
X10414230Y-10147746D02*
X10414230Y-10138222D01*
X10414230Y-10138222D02*
X10423754Y-10119174D01*
X10423754Y-10119174D02*
X10442801Y-10109650D01*
X10442801Y-10109650D02*
X10471373Y-10109650D01*
X10471373Y-10109650D02*
X10490420Y-10119174D01*
X10566611Y-10319174D02*
X10576135Y-10309650D01*
X10576135Y-10309650D02*
X10595182Y-10281079D01*
X10595182Y-10281079D02*
X10604706Y-10262031D01*
X10604706Y-10262031D02*
X10614230Y-10233460D01*
X10614230Y-10233460D02*
X10623754Y-10185841D01*
X10623754Y-10185841D02*
X10623754Y-10147746D01*
X10623754Y-10147746D02*
X10614230Y-10100127D01*
X10614230Y-10100127D02*
X10604706Y-10071555D01*
X10604706Y-10071555D02*
X10595182Y-10052508D01*
X10595182Y-10052508D02*
X10576135Y-10023936D01*
X10576135Y-10023936D02*
X10566611Y-10014412D01*
D12*
X4172500Y-10415500D02*
G75*
G03*
X4092500Y-10415500I-40000J0D01*
G01*
X4092500Y-10415500D02*
G75*
G03*
X4172500Y-10415500I40000J0D01*
G01*
D11*
X4471372Y-10306984D02*
X4490420Y-10306984D01*
X4490420Y-10306984D02*
X4509467Y-10316508D01*
X4509467Y-10316508D02*
X4518991Y-10326031D01*
X4518991Y-10326031D02*
X4528515Y-10345079D01*
X4528515Y-10345079D02*
X4538039Y-10383174D01*
X4538039Y-10383174D02*
X4538039Y-10430793D01*
X4538039Y-10430793D02*
X4528515Y-10468889D01*
X4528515Y-10468889D02*
X4518991Y-10487936D01*
X4518991Y-10487936D02*
X4509467Y-10497460D01*
X4509467Y-10497460D02*
X4490420Y-10506984D01*
X4490420Y-10506984D02*
X4471372Y-10506984D01*
X4471372Y-10506984D02*
X4452324Y-10497460D01*
X4452324Y-10497460D02*
X4442801Y-10487936D01*
X4442801Y-10487936D02*
X4433277Y-10468889D01*
X4433277Y-10468889D02*
X4423753Y-10430793D01*
X4423753Y-10430793D02*
X4423753Y-10383174D01*
X4423753Y-10383174D02*
X4433277Y-10345079D01*
X4433277Y-10345079D02*
X4442801Y-10326031D01*
X4442801Y-10326031D02*
X4452324Y-10316508D01*
X4452324Y-10316508D02*
X4471372Y-10306984D01*
X4623753Y-10487936D02*
X4633277Y-10497460D01*
X4633277Y-10497460D02*
X4623753Y-10506984D01*
X4623753Y-10506984D02*
X4614229Y-10497460D01*
X4614229Y-10497460D02*
X4623753Y-10487936D01*
X4623753Y-10487936D02*
X4623753Y-10506984D01*
X4747563Y-10392698D02*
X4728515Y-10383174D01*
X4728515Y-10383174D02*
X4718991Y-10373650D01*
X4718991Y-10373650D02*
X4709467Y-10354603D01*
X4709467Y-10354603D02*
X4709467Y-10345079D01*
X4709467Y-10345079D02*
X4718991Y-10326031D01*
X4718991Y-10326031D02*
X4728515Y-10316508D01*
X4728515Y-10316508D02*
X4747563Y-10306984D01*
X4747563Y-10306984D02*
X4785658Y-10306984D01*
X4785658Y-10306984D02*
X4804705Y-10316508D01*
X4804705Y-10316508D02*
X4814229Y-10326031D01*
X4814229Y-10326031D02*
X4823753Y-10345079D01*
X4823753Y-10345079D02*
X4823753Y-10354603D01*
X4823753Y-10354603D02*
X4814229Y-10373650D01*
X4814229Y-10373650D02*
X4804705Y-10383174D01*
X4804705Y-10383174D02*
X4785658Y-10392698D01*
X4785658Y-10392698D02*
X4747563Y-10392698D01*
X4747563Y-10392698D02*
X4728515Y-10402222D01*
X4728515Y-10402222D02*
X4718991Y-10411746D01*
X4718991Y-10411746D02*
X4709467Y-10430793D01*
X4709467Y-10430793D02*
X4709467Y-10468889D01*
X4709467Y-10468889D02*
X4718991Y-10487936D01*
X4718991Y-10487936D02*
X4728515Y-10497460D01*
X4728515Y-10497460D02*
X4747563Y-10506984D01*
X4747563Y-10506984D02*
X4785658Y-10506984D01*
X4785658Y-10506984D02*
X4804705Y-10497460D01*
X4804705Y-10497460D02*
X4814229Y-10487936D01*
X4814229Y-10487936D02*
X4823753Y-10468889D01*
X4823753Y-10468889D02*
X4823753Y-10430793D01*
X4823753Y-10430793D02*
X4814229Y-10411746D01*
X4814229Y-10411746D02*
X4804705Y-10402222D01*
X4804705Y-10402222D02*
X4785658Y-10392698D01*
X4947563Y-10306984D02*
X4966610Y-10306984D01*
X4966610Y-10306984D02*
X4985658Y-10316508D01*
X4985658Y-10316508D02*
X4995182Y-10326031D01*
X4995182Y-10326031D02*
X5004705Y-10345079D01*
X5004705Y-10345079D02*
X5014229Y-10383174D01*
X5014229Y-10383174D02*
X5014229Y-10430793D01*
X5014229Y-10430793D02*
X5004705Y-10468889D01*
X5004705Y-10468889D02*
X4995182Y-10487936D01*
X4995182Y-10487936D02*
X4985658Y-10497460D01*
X4985658Y-10497460D02*
X4966610Y-10506984D01*
X4966610Y-10506984D02*
X4947563Y-10506984D01*
X4947563Y-10506984D02*
X4928515Y-10497460D01*
X4928515Y-10497460D02*
X4918991Y-10487936D01*
X4918991Y-10487936D02*
X4909467Y-10468889D01*
X4909467Y-10468889D02*
X4899944Y-10430793D01*
X4899944Y-10430793D02*
X4899944Y-10383174D01*
X4899944Y-10383174D02*
X4909467Y-10345079D01*
X4909467Y-10345079D02*
X4918991Y-10326031D01*
X4918991Y-10326031D02*
X4928515Y-10316508D01*
X4928515Y-10316508D02*
X4947563Y-10306984D01*
X5138039Y-10306984D02*
X5157086Y-10306984D01*
X5157086Y-10306984D02*
X5176134Y-10316508D01*
X5176134Y-10316508D02*
X5185658Y-10326031D01*
X5185658Y-10326031D02*
X5195182Y-10345079D01*
X5195182Y-10345079D02*
X5204705Y-10383174D01*
X5204705Y-10383174D02*
X5204705Y-10430793D01*
X5204705Y-10430793D02*
X5195182Y-10468889D01*
X5195182Y-10468889D02*
X5185658Y-10487936D01*
X5185658Y-10487936D02*
X5176134Y-10497460D01*
X5176134Y-10497460D02*
X5157086Y-10506984D01*
X5157086Y-10506984D02*
X5138039Y-10506984D01*
X5138039Y-10506984D02*
X5118991Y-10497460D01*
X5118991Y-10497460D02*
X5109467Y-10487936D01*
X5109467Y-10487936D02*
X5099944Y-10468889D01*
X5099944Y-10468889D02*
X5090420Y-10430793D01*
X5090420Y-10430793D02*
X5090420Y-10383174D01*
X5090420Y-10383174D02*
X5099944Y-10345079D01*
X5099944Y-10345079D02*
X5109467Y-10326031D01*
X5109467Y-10326031D02*
X5118991Y-10316508D01*
X5118991Y-10316508D02*
X5138039Y-10306984D01*
X5290420Y-10506984D02*
X5290420Y-10373650D01*
X5290420Y-10392698D02*
X5299944Y-10383174D01*
X5299944Y-10383174D02*
X5318991Y-10373650D01*
X5318991Y-10373650D02*
X5347563Y-10373650D01*
X5347563Y-10373650D02*
X5366610Y-10383174D01*
X5366610Y-10383174D02*
X5376134Y-10402222D01*
X5376134Y-10402222D02*
X5376134Y-10506984D01*
X5376134Y-10402222D02*
X5385658Y-10383174D01*
X5385658Y-10383174D02*
X5404705Y-10373650D01*
X5404705Y-10373650D02*
X5433277Y-10373650D01*
X5433277Y-10373650D02*
X5452325Y-10383174D01*
X5452325Y-10383174D02*
X5461848Y-10402222D01*
X5461848Y-10402222D02*
X5461848Y-10506984D01*
X5557086Y-10506984D02*
X5557086Y-10373650D01*
X5557086Y-10392698D02*
X5566610Y-10383174D01*
X5566610Y-10383174D02*
X5585658Y-10373650D01*
X5585658Y-10373650D02*
X5614229Y-10373650D01*
X5614229Y-10373650D02*
X5633277Y-10383174D01*
X5633277Y-10383174D02*
X5642801Y-10402222D01*
X5642801Y-10402222D02*
X5642801Y-10506984D01*
X5642801Y-10402222D02*
X5652324Y-10383174D01*
X5652324Y-10383174D02*
X5671372Y-10373650D01*
X5671372Y-10373650D02*
X5699943Y-10373650D01*
X5699943Y-10373650D02*
X5718991Y-10383174D01*
X5718991Y-10383174D02*
X5728515Y-10402222D01*
X5728515Y-10402222D02*
X5728515Y-10506984D01*
X6118991Y-10297460D02*
X5947563Y-10554603D01*
X6376134Y-10306984D02*
X6395182Y-10306984D01*
X6395182Y-10306984D02*
X6414229Y-10316508D01*
X6414229Y-10316508D02*
X6423753Y-10326031D01*
X6423753Y-10326031D02*
X6433277Y-10345079D01*
X6433277Y-10345079D02*
X6442801Y-10383174D01*
X6442801Y-10383174D02*
X6442801Y-10430793D01*
X6442801Y-10430793D02*
X6433277Y-10468889D01*
X6433277Y-10468889D02*
X6423753Y-10487936D01*
X6423753Y-10487936D02*
X6414229Y-10497460D01*
X6414229Y-10497460D02*
X6395182Y-10506984D01*
X6395182Y-10506984D02*
X6376134Y-10506984D01*
X6376134Y-10506984D02*
X6357086Y-10497460D01*
X6357086Y-10497460D02*
X6347563Y-10487936D01*
X6347563Y-10487936D02*
X6338039Y-10468889D01*
X6338039Y-10468889D02*
X6328515Y-10430793D01*
X6328515Y-10430793D02*
X6328515Y-10383174D01*
X6328515Y-10383174D02*
X6338039Y-10345079D01*
X6338039Y-10345079D02*
X6347563Y-10326031D01*
X6347563Y-10326031D02*
X6357086Y-10316508D01*
X6357086Y-10316508D02*
X6376134Y-10306984D01*
X6528515Y-10487936D02*
X6538039Y-10497460D01*
X6538039Y-10497460D02*
X6528515Y-10506984D01*
X6528515Y-10506984D02*
X6518991Y-10497460D01*
X6518991Y-10497460D02*
X6528515Y-10487936D01*
X6528515Y-10487936D02*
X6528515Y-10506984D01*
X6661848Y-10306984D02*
X6680896Y-10306984D01*
X6680896Y-10306984D02*
X6699944Y-10316508D01*
X6699944Y-10316508D02*
X6709467Y-10326031D01*
X6709467Y-10326031D02*
X6718991Y-10345079D01*
X6718991Y-10345079D02*
X6728515Y-10383174D01*
X6728515Y-10383174D02*
X6728515Y-10430793D01*
X6728515Y-10430793D02*
X6718991Y-10468889D01*
X6718991Y-10468889D02*
X6709467Y-10487936D01*
X6709467Y-10487936D02*
X6699944Y-10497460D01*
X6699944Y-10497460D02*
X6680896Y-10506984D01*
X6680896Y-10506984D02*
X6661848Y-10506984D01*
X6661848Y-10506984D02*
X6642801Y-10497460D01*
X6642801Y-10497460D02*
X6633277Y-10487936D01*
X6633277Y-10487936D02*
X6623753Y-10468889D01*
X6623753Y-10468889D02*
X6614229Y-10430793D01*
X6614229Y-10430793D02*
X6614229Y-10383174D01*
X6614229Y-10383174D02*
X6623753Y-10345079D01*
X6623753Y-10345079D02*
X6633277Y-10326031D01*
X6633277Y-10326031D02*
X6642801Y-10316508D01*
X6642801Y-10316508D02*
X6661848Y-10306984D01*
X6795182Y-10306984D02*
X6918991Y-10306984D01*
X6918991Y-10306984D02*
X6852325Y-10383174D01*
X6852325Y-10383174D02*
X6880896Y-10383174D01*
X6880896Y-10383174D02*
X6899944Y-10392698D01*
X6899944Y-10392698D02*
X6909467Y-10402222D01*
X6909467Y-10402222D02*
X6918991Y-10421270D01*
X6918991Y-10421270D02*
X6918991Y-10468889D01*
X6918991Y-10468889D02*
X6909467Y-10487936D01*
X6909467Y-10487936D02*
X6899944Y-10497460D01*
X6899944Y-10497460D02*
X6880896Y-10506984D01*
X6880896Y-10506984D02*
X6823753Y-10506984D01*
X6823753Y-10506984D02*
X6804706Y-10497460D01*
X6804706Y-10497460D02*
X6795182Y-10487936D01*
X7109467Y-10506984D02*
X6995182Y-10506984D01*
X7052325Y-10506984D02*
X7052325Y-10306984D01*
X7052325Y-10306984D02*
X7033277Y-10335555D01*
X7033277Y-10335555D02*
X7014229Y-10354603D01*
X7014229Y-10354603D02*
X6995182Y-10364127D01*
X7290420Y-10306984D02*
X7195182Y-10306984D01*
X7195182Y-10306984D02*
X7185658Y-10402222D01*
X7185658Y-10402222D02*
X7195182Y-10392698D01*
X7195182Y-10392698D02*
X7214229Y-10383174D01*
X7214229Y-10383174D02*
X7261848Y-10383174D01*
X7261848Y-10383174D02*
X7280896Y-10392698D01*
X7280896Y-10392698D02*
X7290420Y-10402222D01*
X7290420Y-10402222D02*
X7299944Y-10421270D01*
X7299944Y-10421270D02*
X7299944Y-10468889D01*
X7299944Y-10468889D02*
X7290420Y-10487936D01*
X7290420Y-10487936D02*
X7280896Y-10497460D01*
X7280896Y-10497460D02*
X7261848Y-10506984D01*
X7261848Y-10506984D02*
X7214229Y-10506984D01*
X7214229Y-10506984D02*
X7195182Y-10497460D01*
X7195182Y-10497460D02*
X7185658Y-10487936D01*
X7376134Y-10306984D02*
X7376134Y-10345079D01*
X7452325Y-10306984D02*
X7452325Y-10345079D01*
X7747563Y-10583174D02*
X7738039Y-10573650D01*
X7738039Y-10573650D02*
X7718991Y-10545079D01*
X7718991Y-10545079D02*
X7709468Y-10526031D01*
X7709468Y-10526031D02*
X7699944Y-10497460D01*
X7699944Y-10497460D02*
X7690420Y-10449841D01*
X7690420Y-10449841D02*
X7690420Y-10411746D01*
X7690420Y-10411746D02*
X7699944Y-10364127D01*
X7699944Y-10364127D02*
X7709468Y-10335555D01*
X7709468Y-10335555D02*
X7718991Y-10316508D01*
X7718991Y-10316508D02*
X7738039Y-10287936D01*
X7738039Y-10287936D02*
X7747563Y-10278412D01*
X7814229Y-10326031D02*
X7823753Y-10316508D01*
X7823753Y-10316508D02*
X7842801Y-10306984D01*
X7842801Y-10306984D02*
X7890420Y-10306984D01*
X7890420Y-10306984D02*
X7909468Y-10316508D01*
X7909468Y-10316508D02*
X7918991Y-10326031D01*
X7918991Y-10326031D02*
X7928515Y-10345079D01*
X7928515Y-10345079D02*
X7928515Y-10364127D01*
X7928515Y-10364127D02*
X7918991Y-10392698D01*
X7918991Y-10392698D02*
X7804706Y-10506984D01*
X7804706Y-10506984D02*
X7928515Y-10506984D01*
X8109468Y-10306984D02*
X8014229Y-10306984D01*
X8014229Y-10306984D02*
X8004706Y-10402222D01*
X8004706Y-10402222D02*
X8014229Y-10392698D01*
X8014229Y-10392698D02*
X8033277Y-10383174D01*
X8033277Y-10383174D02*
X8080896Y-10383174D01*
X8080896Y-10383174D02*
X8099944Y-10392698D01*
X8099944Y-10392698D02*
X8109468Y-10402222D01*
X8109468Y-10402222D02*
X8118991Y-10421270D01*
X8118991Y-10421270D02*
X8118991Y-10468889D01*
X8118991Y-10468889D02*
X8109468Y-10487936D01*
X8109468Y-10487936D02*
X8099944Y-10497460D01*
X8099944Y-10497460D02*
X8080896Y-10506984D01*
X8080896Y-10506984D02*
X8033277Y-10506984D01*
X8033277Y-10506984D02*
X8014229Y-10497460D01*
X8014229Y-10497460D02*
X8004706Y-10487936D01*
X8357087Y-10506984D02*
X8357087Y-10306984D01*
X8442801Y-10506984D02*
X8442801Y-10402222D01*
X8442801Y-10402222D02*
X8433277Y-10383174D01*
X8433277Y-10383174D02*
X8414230Y-10373650D01*
X8414230Y-10373650D02*
X8385658Y-10373650D01*
X8385658Y-10373650D02*
X8366610Y-10383174D01*
X8366610Y-10383174D02*
X8357087Y-10392698D01*
X8566611Y-10506984D02*
X8547563Y-10497460D01*
X8547563Y-10497460D02*
X8538039Y-10487936D01*
X8538039Y-10487936D02*
X8528515Y-10468889D01*
X8528515Y-10468889D02*
X8528515Y-10411746D01*
X8528515Y-10411746D02*
X8538039Y-10392698D01*
X8538039Y-10392698D02*
X8547563Y-10383174D01*
X8547563Y-10383174D02*
X8566611Y-10373650D01*
X8566611Y-10373650D02*
X8595182Y-10373650D01*
X8595182Y-10373650D02*
X8614230Y-10383174D01*
X8614230Y-10383174D02*
X8623753Y-10392698D01*
X8623753Y-10392698D02*
X8633277Y-10411746D01*
X8633277Y-10411746D02*
X8633277Y-10468889D01*
X8633277Y-10468889D02*
X8623753Y-10487936D01*
X8623753Y-10487936D02*
X8614230Y-10497460D01*
X8614230Y-10497460D02*
X8595182Y-10506984D01*
X8595182Y-10506984D02*
X8566611Y-10506984D01*
X8747563Y-10506984D02*
X8728515Y-10497460D01*
X8728515Y-10497460D02*
X8718992Y-10478412D01*
X8718992Y-10478412D02*
X8718992Y-10306984D01*
X8899944Y-10497460D02*
X8880896Y-10506984D01*
X8880896Y-10506984D02*
X8842801Y-10506984D01*
X8842801Y-10506984D02*
X8823753Y-10497460D01*
X8823753Y-10497460D02*
X8814230Y-10478412D01*
X8814230Y-10478412D02*
X8814230Y-10402222D01*
X8814230Y-10402222D02*
X8823753Y-10383174D01*
X8823753Y-10383174D02*
X8842801Y-10373650D01*
X8842801Y-10373650D02*
X8880896Y-10373650D01*
X8880896Y-10373650D02*
X8899944Y-10383174D01*
X8899944Y-10383174D02*
X8909468Y-10402222D01*
X8909468Y-10402222D02*
X8909468Y-10421270D01*
X8909468Y-10421270D02*
X8814230Y-10440317D01*
X8985658Y-10497460D02*
X9004706Y-10506984D01*
X9004706Y-10506984D02*
X9042801Y-10506984D01*
X9042801Y-10506984D02*
X9061849Y-10497460D01*
X9061849Y-10497460D02*
X9071373Y-10478412D01*
X9071373Y-10478412D02*
X9071373Y-10468889D01*
X9071373Y-10468889D02*
X9061849Y-10449841D01*
X9061849Y-10449841D02*
X9042801Y-10440317D01*
X9042801Y-10440317D02*
X9014230Y-10440317D01*
X9014230Y-10440317D02*
X8995182Y-10430793D01*
X8995182Y-10430793D02*
X8985658Y-10411746D01*
X8985658Y-10411746D02*
X8985658Y-10402222D01*
X8985658Y-10402222D02*
X8995182Y-10383174D01*
X8995182Y-10383174D02*
X9014230Y-10373650D01*
X9014230Y-10373650D02*
X9042801Y-10373650D01*
X9042801Y-10373650D02*
X9061849Y-10383174D01*
X9138039Y-10583174D02*
X9147563Y-10573650D01*
X9147563Y-10573650D02*
X9166611Y-10545079D01*
X9166611Y-10545079D02*
X9176134Y-10526031D01*
X9176134Y-10526031D02*
X9185658Y-10497460D01*
X9185658Y-10497460D02*
X9195182Y-10449841D01*
X9195182Y-10449841D02*
X9195182Y-10411746D01*
X9195182Y-10411746D02*
X9185658Y-10364127D01*
X9185658Y-10364127D02*
X9176134Y-10335555D01*
X9176134Y-10335555D02*
X9166611Y-10316508D01*
X9166611Y-10316508D02*
X9147563Y-10287936D01*
X9147563Y-10287936D02*
X9138039Y-10278412D01*
D12*
X4122500Y-10629500D02*
X4122500Y-10729500D01*
X4072500Y-10679500D02*
X4172500Y-10679500D01*
D11*
X4538039Y-10770984D02*
X4423753Y-10770984D01*
X4480896Y-10770984D02*
X4480896Y-10570984D01*
X4480896Y-10570984D02*
X4461848Y-10599555D01*
X4461848Y-10599555D02*
X4442801Y-10618603D01*
X4442801Y-10618603D02*
X4423753Y-10628127D01*
X4623753Y-10751936D02*
X4633277Y-10761460D01*
X4633277Y-10761460D02*
X4623753Y-10770984D01*
X4623753Y-10770984D02*
X4614229Y-10761460D01*
X4614229Y-10761460D02*
X4623753Y-10751936D01*
X4623753Y-10751936D02*
X4623753Y-10770984D01*
X4757086Y-10570984D02*
X4776134Y-10570984D01*
X4776134Y-10570984D02*
X4795182Y-10580508D01*
X4795182Y-10580508D02*
X4804705Y-10590031D01*
X4804705Y-10590031D02*
X4814229Y-10609079D01*
X4814229Y-10609079D02*
X4823753Y-10647174D01*
X4823753Y-10647174D02*
X4823753Y-10694793D01*
X4823753Y-10694793D02*
X4814229Y-10732889D01*
X4814229Y-10732889D02*
X4804705Y-10751936D01*
X4804705Y-10751936D02*
X4795182Y-10761460D01*
X4795182Y-10761460D02*
X4776134Y-10770984D01*
X4776134Y-10770984D02*
X4757086Y-10770984D01*
X4757086Y-10770984D02*
X4738039Y-10761460D01*
X4738039Y-10761460D02*
X4728515Y-10751936D01*
X4728515Y-10751936D02*
X4718991Y-10732889D01*
X4718991Y-10732889D02*
X4709467Y-10694793D01*
X4709467Y-10694793D02*
X4709467Y-10647174D01*
X4709467Y-10647174D02*
X4718991Y-10609079D01*
X4718991Y-10609079D02*
X4728515Y-10590031D01*
X4728515Y-10590031D02*
X4738039Y-10580508D01*
X4738039Y-10580508D02*
X4757086Y-10570984D01*
X4947563Y-10570984D02*
X4966610Y-10570984D01*
X4966610Y-10570984D02*
X4985658Y-10580508D01*
X4985658Y-10580508D02*
X4995182Y-10590031D01*
X4995182Y-10590031D02*
X5004705Y-10609079D01*
X5004705Y-10609079D02*
X5014229Y-10647174D01*
X5014229Y-10647174D02*
X5014229Y-10694793D01*
X5014229Y-10694793D02*
X5004705Y-10732889D01*
X5004705Y-10732889D02*
X4995182Y-10751936D01*
X4995182Y-10751936D02*
X4985658Y-10761460D01*
X4985658Y-10761460D02*
X4966610Y-10770984D01*
X4966610Y-10770984D02*
X4947563Y-10770984D01*
X4947563Y-10770984D02*
X4928515Y-10761460D01*
X4928515Y-10761460D02*
X4918991Y-10751936D01*
X4918991Y-10751936D02*
X4909467Y-10732889D01*
X4909467Y-10732889D02*
X4899944Y-10694793D01*
X4899944Y-10694793D02*
X4899944Y-10647174D01*
X4899944Y-10647174D02*
X4909467Y-10609079D01*
X4909467Y-10609079D02*
X4918991Y-10590031D01*
X4918991Y-10590031D02*
X4928515Y-10580508D01*
X4928515Y-10580508D02*
X4947563Y-10570984D01*
X5138039Y-10570984D02*
X5157086Y-10570984D01*
X5157086Y-10570984D02*
X5176134Y-10580508D01*
X5176134Y-10580508D02*
X5185658Y-10590031D01*
X5185658Y-10590031D02*
X5195182Y-10609079D01*
X5195182Y-10609079D02*
X5204705Y-10647174D01*
X5204705Y-10647174D02*
X5204705Y-10694793D01*
X5204705Y-10694793D02*
X5195182Y-10732889D01*
X5195182Y-10732889D02*
X5185658Y-10751936D01*
X5185658Y-10751936D02*
X5176134Y-10761460D01*
X5176134Y-10761460D02*
X5157086Y-10770984D01*
X5157086Y-10770984D02*
X5138039Y-10770984D01*
X5138039Y-10770984D02*
X5118991Y-10761460D01*
X5118991Y-10761460D02*
X5109467Y-10751936D01*
X5109467Y-10751936D02*
X5099944Y-10732889D01*
X5099944Y-10732889D02*
X5090420Y-10694793D01*
X5090420Y-10694793D02*
X5090420Y-10647174D01*
X5090420Y-10647174D02*
X5099944Y-10609079D01*
X5099944Y-10609079D02*
X5109467Y-10590031D01*
X5109467Y-10590031D02*
X5118991Y-10580508D01*
X5118991Y-10580508D02*
X5138039Y-10570984D01*
X5290420Y-10770984D02*
X5290420Y-10637650D01*
X5290420Y-10656698D02*
X5299944Y-10647174D01*
X5299944Y-10647174D02*
X5318991Y-10637650D01*
X5318991Y-10637650D02*
X5347563Y-10637650D01*
X5347563Y-10637650D02*
X5366610Y-10647174D01*
X5366610Y-10647174D02*
X5376134Y-10666222D01*
X5376134Y-10666222D02*
X5376134Y-10770984D01*
X5376134Y-10666222D02*
X5385658Y-10647174D01*
X5385658Y-10647174D02*
X5404705Y-10637650D01*
X5404705Y-10637650D02*
X5433277Y-10637650D01*
X5433277Y-10637650D02*
X5452325Y-10647174D01*
X5452325Y-10647174D02*
X5461848Y-10666222D01*
X5461848Y-10666222D02*
X5461848Y-10770984D01*
X5557086Y-10770984D02*
X5557086Y-10637650D01*
X5557086Y-10656698D02*
X5566610Y-10647174D01*
X5566610Y-10647174D02*
X5585658Y-10637650D01*
X5585658Y-10637650D02*
X5614229Y-10637650D01*
X5614229Y-10637650D02*
X5633277Y-10647174D01*
X5633277Y-10647174D02*
X5642801Y-10666222D01*
X5642801Y-10666222D02*
X5642801Y-10770984D01*
X5642801Y-10666222D02*
X5652324Y-10647174D01*
X5652324Y-10647174D02*
X5671372Y-10637650D01*
X5671372Y-10637650D02*
X5699943Y-10637650D01*
X5699943Y-10637650D02*
X5718991Y-10647174D01*
X5718991Y-10647174D02*
X5728515Y-10666222D01*
X5728515Y-10666222D02*
X5728515Y-10770984D01*
X6118991Y-10561460D02*
X5947563Y-10818603D01*
X6376134Y-10570984D02*
X6395182Y-10570984D01*
X6395182Y-10570984D02*
X6414229Y-10580508D01*
X6414229Y-10580508D02*
X6423753Y-10590031D01*
X6423753Y-10590031D02*
X6433277Y-10609079D01*
X6433277Y-10609079D02*
X6442801Y-10647174D01*
X6442801Y-10647174D02*
X6442801Y-10694793D01*
X6442801Y-10694793D02*
X6433277Y-10732889D01*
X6433277Y-10732889D02*
X6423753Y-10751936D01*
X6423753Y-10751936D02*
X6414229Y-10761460D01*
X6414229Y-10761460D02*
X6395182Y-10770984D01*
X6395182Y-10770984D02*
X6376134Y-10770984D01*
X6376134Y-10770984D02*
X6357086Y-10761460D01*
X6357086Y-10761460D02*
X6347563Y-10751936D01*
X6347563Y-10751936D02*
X6338039Y-10732889D01*
X6338039Y-10732889D02*
X6328515Y-10694793D01*
X6328515Y-10694793D02*
X6328515Y-10647174D01*
X6328515Y-10647174D02*
X6338039Y-10609079D01*
X6338039Y-10609079D02*
X6347563Y-10590031D01*
X6347563Y-10590031D02*
X6357086Y-10580508D01*
X6357086Y-10580508D02*
X6376134Y-10570984D01*
X6528515Y-10751936D02*
X6538039Y-10761460D01*
X6538039Y-10761460D02*
X6528515Y-10770984D01*
X6528515Y-10770984D02*
X6518991Y-10761460D01*
X6518991Y-10761460D02*
X6528515Y-10751936D01*
X6528515Y-10751936D02*
X6528515Y-10770984D01*
X6661848Y-10570984D02*
X6680896Y-10570984D01*
X6680896Y-10570984D02*
X6699944Y-10580508D01*
X6699944Y-10580508D02*
X6709467Y-10590031D01*
X6709467Y-10590031D02*
X6718991Y-10609079D01*
X6718991Y-10609079D02*
X6728515Y-10647174D01*
X6728515Y-10647174D02*
X6728515Y-10694793D01*
X6728515Y-10694793D02*
X6718991Y-10732889D01*
X6718991Y-10732889D02*
X6709467Y-10751936D01*
X6709467Y-10751936D02*
X6699944Y-10761460D01*
X6699944Y-10761460D02*
X6680896Y-10770984D01*
X6680896Y-10770984D02*
X6661848Y-10770984D01*
X6661848Y-10770984D02*
X6642801Y-10761460D01*
X6642801Y-10761460D02*
X6633277Y-10751936D01*
X6633277Y-10751936D02*
X6623753Y-10732889D01*
X6623753Y-10732889D02*
X6614229Y-10694793D01*
X6614229Y-10694793D02*
X6614229Y-10647174D01*
X6614229Y-10647174D02*
X6623753Y-10609079D01*
X6623753Y-10609079D02*
X6633277Y-10590031D01*
X6633277Y-10590031D02*
X6642801Y-10580508D01*
X6642801Y-10580508D02*
X6661848Y-10570984D01*
X6795182Y-10570984D02*
X6918991Y-10570984D01*
X6918991Y-10570984D02*
X6852325Y-10647174D01*
X6852325Y-10647174D02*
X6880896Y-10647174D01*
X6880896Y-10647174D02*
X6899944Y-10656698D01*
X6899944Y-10656698D02*
X6909467Y-10666222D01*
X6909467Y-10666222D02*
X6918991Y-10685270D01*
X6918991Y-10685270D02*
X6918991Y-10732889D01*
X6918991Y-10732889D02*
X6909467Y-10751936D01*
X6909467Y-10751936D02*
X6899944Y-10761460D01*
X6899944Y-10761460D02*
X6880896Y-10770984D01*
X6880896Y-10770984D02*
X6823753Y-10770984D01*
X6823753Y-10770984D02*
X6804706Y-10761460D01*
X6804706Y-10761460D02*
X6795182Y-10751936D01*
X7014229Y-10770984D02*
X7052325Y-10770984D01*
X7052325Y-10770984D02*
X7071372Y-10761460D01*
X7071372Y-10761460D02*
X7080896Y-10751936D01*
X7080896Y-10751936D02*
X7099944Y-10723365D01*
X7099944Y-10723365D02*
X7109467Y-10685270D01*
X7109467Y-10685270D02*
X7109467Y-10609079D01*
X7109467Y-10609079D02*
X7099944Y-10590031D01*
X7099944Y-10590031D02*
X7090420Y-10580508D01*
X7090420Y-10580508D02*
X7071372Y-10570984D01*
X7071372Y-10570984D02*
X7033277Y-10570984D01*
X7033277Y-10570984D02*
X7014229Y-10580508D01*
X7014229Y-10580508D02*
X7004706Y-10590031D01*
X7004706Y-10590031D02*
X6995182Y-10609079D01*
X6995182Y-10609079D02*
X6995182Y-10656698D01*
X6995182Y-10656698D02*
X7004706Y-10675746D01*
X7004706Y-10675746D02*
X7014229Y-10685270D01*
X7014229Y-10685270D02*
X7033277Y-10694793D01*
X7033277Y-10694793D02*
X7071372Y-10694793D01*
X7071372Y-10694793D02*
X7090420Y-10685270D01*
X7090420Y-10685270D02*
X7099944Y-10675746D01*
X7099944Y-10675746D02*
X7109467Y-10656698D01*
X7280896Y-10637650D02*
X7280896Y-10770984D01*
X7233277Y-10561460D02*
X7185658Y-10704317D01*
X7185658Y-10704317D02*
X7309467Y-10704317D01*
X7376134Y-10570984D02*
X7376134Y-10609079D01*
X7452325Y-10570984D02*
X7452325Y-10609079D01*
X7747563Y-10847174D02*
X7738039Y-10837650D01*
X7738039Y-10837650D02*
X7718991Y-10809079D01*
X7718991Y-10809079D02*
X7709468Y-10790031D01*
X7709468Y-10790031D02*
X7699944Y-10761460D01*
X7699944Y-10761460D02*
X7690420Y-10713841D01*
X7690420Y-10713841D02*
X7690420Y-10675746D01*
X7690420Y-10675746D02*
X7699944Y-10628127D01*
X7699944Y-10628127D02*
X7709468Y-10599555D01*
X7709468Y-10599555D02*
X7718991Y-10580508D01*
X7718991Y-10580508D02*
X7738039Y-10551936D01*
X7738039Y-10551936D02*
X7747563Y-10542412D01*
X7814229Y-10590031D02*
X7823753Y-10580508D01*
X7823753Y-10580508D02*
X7842801Y-10570984D01*
X7842801Y-10570984D02*
X7890420Y-10570984D01*
X7890420Y-10570984D02*
X7909468Y-10580508D01*
X7909468Y-10580508D02*
X7918991Y-10590031D01*
X7918991Y-10590031D02*
X7928515Y-10609079D01*
X7928515Y-10609079D02*
X7928515Y-10628127D01*
X7928515Y-10628127D02*
X7918991Y-10656698D01*
X7918991Y-10656698D02*
X7804706Y-10770984D01*
X7804706Y-10770984D02*
X7928515Y-10770984D01*
X7995182Y-10570984D02*
X8128515Y-10570984D01*
X8128515Y-10570984D02*
X8042801Y-10770984D01*
X8357087Y-10770984D02*
X8357087Y-10570984D01*
X8442801Y-10770984D02*
X8442801Y-10666222D01*
X8442801Y-10666222D02*
X8433277Y-10647174D01*
X8433277Y-10647174D02*
X8414230Y-10637650D01*
X8414230Y-10637650D02*
X8385658Y-10637650D01*
X8385658Y-10637650D02*
X8366610Y-10647174D01*
X8366610Y-10647174D02*
X8357087Y-10656698D01*
X8566611Y-10770984D02*
X8547563Y-10761460D01*
X8547563Y-10761460D02*
X8538039Y-10751936D01*
X8538039Y-10751936D02*
X8528515Y-10732889D01*
X8528515Y-10732889D02*
X8528515Y-10675746D01*
X8528515Y-10675746D02*
X8538039Y-10656698D01*
X8538039Y-10656698D02*
X8547563Y-10647174D01*
X8547563Y-10647174D02*
X8566611Y-10637650D01*
X8566611Y-10637650D02*
X8595182Y-10637650D01*
X8595182Y-10637650D02*
X8614230Y-10647174D01*
X8614230Y-10647174D02*
X8623753Y-10656698D01*
X8623753Y-10656698D02*
X8633277Y-10675746D01*
X8633277Y-10675746D02*
X8633277Y-10732889D01*
X8633277Y-10732889D02*
X8623753Y-10751936D01*
X8623753Y-10751936D02*
X8614230Y-10761460D01*
X8614230Y-10761460D02*
X8595182Y-10770984D01*
X8595182Y-10770984D02*
X8566611Y-10770984D01*
X8747563Y-10770984D02*
X8728515Y-10761460D01*
X8728515Y-10761460D02*
X8718992Y-10742412D01*
X8718992Y-10742412D02*
X8718992Y-10570984D01*
X8899944Y-10761460D02*
X8880896Y-10770984D01*
X8880896Y-10770984D02*
X8842801Y-10770984D01*
X8842801Y-10770984D02*
X8823753Y-10761460D01*
X8823753Y-10761460D02*
X8814230Y-10742412D01*
X8814230Y-10742412D02*
X8814230Y-10666222D01*
X8814230Y-10666222D02*
X8823753Y-10647174D01*
X8823753Y-10647174D02*
X8842801Y-10637650D01*
X8842801Y-10637650D02*
X8880896Y-10637650D01*
X8880896Y-10637650D02*
X8899944Y-10647174D01*
X8899944Y-10647174D02*
X8909468Y-10666222D01*
X8909468Y-10666222D02*
X8909468Y-10685270D01*
X8909468Y-10685270D02*
X8814230Y-10704317D01*
X8985658Y-10761460D02*
X9004706Y-10770984D01*
X9004706Y-10770984D02*
X9042801Y-10770984D01*
X9042801Y-10770984D02*
X9061849Y-10761460D01*
X9061849Y-10761460D02*
X9071373Y-10742412D01*
X9071373Y-10742412D02*
X9071373Y-10732889D01*
X9071373Y-10732889D02*
X9061849Y-10713841D01*
X9061849Y-10713841D02*
X9042801Y-10704317D01*
X9042801Y-10704317D02*
X9014230Y-10704317D01*
X9014230Y-10704317D02*
X8995182Y-10694793D01*
X8995182Y-10694793D02*
X8985658Y-10675746D01*
X8985658Y-10675746D02*
X8985658Y-10666222D01*
X8985658Y-10666222D02*
X8995182Y-10647174D01*
X8995182Y-10647174D02*
X9014230Y-10637650D01*
X9014230Y-10637650D02*
X9042801Y-10637650D01*
X9042801Y-10637650D02*
X9061849Y-10647174D01*
X9309468Y-10694793D02*
X9461849Y-10694793D01*
X9385658Y-10770984D02*
X9385658Y-10618603D01*
X9814230Y-10770984D02*
X9699944Y-10770984D01*
X9757087Y-10770984D02*
X9757087Y-10570984D01*
X9757087Y-10570984D02*
X9738039Y-10599555D01*
X9738039Y-10599555D02*
X9718992Y-10618603D01*
X9718992Y-10618603D02*
X9699944Y-10628127D01*
X10042801Y-10761460D02*
X10061849Y-10770984D01*
X10061849Y-10770984D02*
X10099944Y-10770984D01*
X10099944Y-10770984D02*
X10118992Y-10761460D01*
X10118992Y-10761460D02*
X10128516Y-10742412D01*
X10128516Y-10742412D02*
X10128516Y-10732889D01*
X10128516Y-10732889D02*
X10118992Y-10713841D01*
X10118992Y-10713841D02*
X10099944Y-10704317D01*
X10099944Y-10704317D02*
X10071373Y-10704317D01*
X10071373Y-10704317D02*
X10052325Y-10694793D01*
X10052325Y-10694793D02*
X10042801Y-10675746D01*
X10042801Y-10675746D02*
X10042801Y-10666222D01*
X10042801Y-10666222D02*
X10052325Y-10647174D01*
X10052325Y-10647174D02*
X10071373Y-10637650D01*
X10071373Y-10637650D02*
X10099944Y-10637650D01*
X10099944Y-10637650D02*
X10118992Y-10647174D01*
X10242801Y-10770984D02*
X10223754Y-10761460D01*
X10223754Y-10761460D02*
X10214230Y-10742412D01*
X10214230Y-10742412D02*
X10214230Y-10570984D01*
X10347563Y-10770984D02*
X10328516Y-10761460D01*
X10328516Y-10761460D02*
X10318992Y-10751936D01*
X10318992Y-10751936D02*
X10309468Y-10732889D01*
X10309468Y-10732889D02*
X10309468Y-10675746D01*
X10309468Y-10675746D02*
X10318992Y-10656698D01*
X10318992Y-10656698D02*
X10328516Y-10647174D01*
X10328516Y-10647174D02*
X10347563Y-10637650D01*
X10347563Y-10637650D02*
X10376135Y-10637650D01*
X10376135Y-10637650D02*
X10395182Y-10647174D01*
X10395182Y-10647174D02*
X10404706Y-10656698D01*
X10404706Y-10656698D02*
X10414230Y-10675746D01*
X10414230Y-10675746D02*
X10414230Y-10732889D01*
X10414230Y-10732889D02*
X10404706Y-10751936D01*
X10404706Y-10751936D02*
X10395182Y-10761460D01*
X10395182Y-10761460D02*
X10376135Y-10770984D01*
X10376135Y-10770984D02*
X10347563Y-10770984D01*
X10471373Y-10637650D02*
X10547563Y-10637650D01*
X10499944Y-10570984D02*
X10499944Y-10742412D01*
X10499944Y-10742412D02*
X10509468Y-10761460D01*
X10509468Y-10761460D02*
X10528516Y-10770984D01*
X10528516Y-10770984D02*
X10547563Y-10770984D01*
X10595182Y-10847174D02*
X10604706Y-10837650D01*
X10604706Y-10837650D02*
X10623754Y-10809079D01*
X10623754Y-10809079D02*
X10633277Y-10790031D01*
X10633277Y-10790031D02*
X10642801Y-10761460D01*
X10642801Y-10761460D02*
X10652325Y-10713841D01*
X10652325Y-10713841D02*
X10652325Y-10675746D01*
X10652325Y-10675746D02*
X10642801Y-10628127D01*
X10642801Y-10628127D02*
X10633277Y-10599555D01*
X10633277Y-10599555D02*
X10623754Y-10580508D01*
X10623754Y-10580508D02*
X10604706Y-10551936D01*
X10604706Y-10551936D02*
X10595182Y-10542412D01*
D13*
X4157249Y-10980319D02*
X4157249Y-10906681D01*
X4083611Y-10906681D01*
X4083611Y-10980319D01*
X4157249Y-10980319D01*
D11*
X4538039Y-11034984D02*
X4423753Y-11034984D01*
X4480896Y-11034984D02*
X4480896Y-10834984D01*
X4480896Y-10834984D02*
X4461848Y-10863555D01*
X4461848Y-10863555D02*
X4442801Y-10882603D01*
X4442801Y-10882603D02*
X4423753Y-10892127D01*
X4623753Y-11015936D02*
X4633277Y-11025460D01*
X4633277Y-11025460D02*
X4623753Y-11034984D01*
X4623753Y-11034984D02*
X4614229Y-11025460D01*
X4614229Y-11025460D02*
X4623753Y-11015936D01*
X4623753Y-11015936D02*
X4623753Y-11034984D01*
X4757086Y-10834984D02*
X4776134Y-10834984D01*
X4776134Y-10834984D02*
X4795182Y-10844508D01*
X4795182Y-10844508D02*
X4804705Y-10854031D01*
X4804705Y-10854031D02*
X4814229Y-10873079D01*
X4814229Y-10873079D02*
X4823753Y-10911174D01*
X4823753Y-10911174D02*
X4823753Y-10958793D01*
X4823753Y-10958793D02*
X4814229Y-10996889D01*
X4814229Y-10996889D02*
X4804705Y-11015936D01*
X4804705Y-11015936D02*
X4795182Y-11025460D01*
X4795182Y-11025460D02*
X4776134Y-11034984D01*
X4776134Y-11034984D02*
X4757086Y-11034984D01*
X4757086Y-11034984D02*
X4738039Y-11025460D01*
X4738039Y-11025460D02*
X4728515Y-11015936D01*
X4728515Y-11015936D02*
X4718991Y-10996889D01*
X4718991Y-10996889D02*
X4709467Y-10958793D01*
X4709467Y-10958793D02*
X4709467Y-10911174D01*
X4709467Y-10911174D02*
X4718991Y-10873079D01*
X4718991Y-10873079D02*
X4728515Y-10854031D01*
X4728515Y-10854031D02*
X4738039Y-10844508D01*
X4738039Y-10844508D02*
X4757086Y-10834984D01*
X4995182Y-10901650D02*
X4995182Y-11034984D01*
X4947563Y-10825460D02*
X4899944Y-10968317D01*
X4899944Y-10968317D02*
X5023753Y-10968317D01*
X5204705Y-11034984D02*
X5090420Y-11034984D01*
X5147563Y-11034984D02*
X5147563Y-10834984D01*
X5147563Y-10834984D02*
X5128515Y-10863555D01*
X5128515Y-10863555D02*
X5109467Y-10882603D01*
X5109467Y-10882603D02*
X5090420Y-10892127D01*
X5290420Y-11034984D02*
X5290420Y-10901650D01*
X5290420Y-10920698D02*
X5299944Y-10911174D01*
X5299944Y-10911174D02*
X5318991Y-10901650D01*
X5318991Y-10901650D02*
X5347563Y-10901650D01*
X5347563Y-10901650D02*
X5366610Y-10911174D01*
X5366610Y-10911174D02*
X5376134Y-10930222D01*
X5376134Y-10930222D02*
X5376134Y-11034984D01*
X5376134Y-10930222D02*
X5385658Y-10911174D01*
X5385658Y-10911174D02*
X5404705Y-10901650D01*
X5404705Y-10901650D02*
X5433277Y-10901650D01*
X5433277Y-10901650D02*
X5452325Y-10911174D01*
X5452325Y-10911174D02*
X5461848Y-10930222D01*
X5461848Y-10930222D02*
X5461848Y-11034984D01*
X5557086Y-11034984D02*
X5557086Y-10901650D01*
X5557086Y-10920698D02*
X5566610Y-10911174D01*
X5566610Y-10911174D02*
X5585658Y-10901650D01*
X5585658Y-10901650D02*
X5614229Y-10901650D01*
X5614229Y-10901650D02*
X5633277Y-10911174D01*
X5633277Y-10911174D02*
X5642801Y-10930222D01*
X5642801Y-10930222D02*
X5642801Y-11034984D01*
X5642801Y-10930222D02*
X5652324Y-10911174D01*
X5652324Y-10911174D02*
X5671372Y-10901650D01*
X5671372Y-10901650D02*
X5699943Y-10901650D01*
X5699943Y-10901650D02*
X5718991Y-10911174D01*
X5718991Y-10911174D02*
X5728515Y-10930222D01*
X5728515Y-10930222D02*
X5728515Y-11034984D01*
X6118991Y-10825460D02*
X5947563Y-11082603D01*
X6376134Y-10834984D02*
X6395182Y-10834984D01*
X6395182Y-10834984D02*
X6414229Y-10844508D01*
X6414229Y-10844508D02*
X6423753Y-10854031D01*
X6423753Y-10854031D02*
X6433277Y-10873079D01*
X6433277Y-10873079D02*
X6442801Y-10911174D01*
X6442801Y-10911174D02*
X6442801Y-10958793D01*
X6442801Y-10958793D02*
X6433277Y-10996889D01*
X6433277Y-10996889D02*
X6423753Y-11015936D01*
X6423753Y-11015936D02*
X6414229Y-11025460D01*
X6414229Y-11025460D02*
X6395182Y-11034984D01*
X6395182Y-11034984D02*
X6376134Y-11034984D01*
X6376134Y-11034984D02*
X6357086Y-11025460D01*
X6357086Y-11025460D02*
X6347563Y-11015936D01*
X6347563Y-11015936D02*
X6338039Y-10996889D01*
X6338039Y-10996889D02*
X6328515Y-10958793D01*
X6328515Y-10958793D02*
X6328515Y-10911174D01*
X6328515Y-10911174D02*
X6338039Y-10873079D01*
X6338039Y-10873079D02*
X6347563Y-10854031D01*
X6347563Y-10854031D02*
X6357086Y-10844508D01*
X6357086Y-10844508D02*
X6376134Y-10834984D01*
X6528515Y-11015936D02*
X6538039Y-11025460D01*
X6538039Y-11025460D02*
X6528515Y-11034984D01*
X6528515Y-11034984D02*
X6518991Y-11025460D01*
X6518991Y-11025460D02*
X6528515Y-11015936D01*
X6528515Y-11015936D02*
X6528515Y-11034984D01*
X6661848Y-10834984D02*
X6680896Y-10834984D01*
X6680896Y-10834984D02*
X6699944Y-10844508D01*
X6699944Y-10844508D02*
X6709467Y-10854031D01*
X6709467Y-10854031D02*
X6718991Y-10873079D01*
X6718991Y-10873079D02*
X6728515Y-10911174D01*
X6728515Y-10911174D02*
X6728515Y-10958793D01*
X6728515Y-10958793D02*
X6718991Y-10996889D01*
X6718991Y-10996889D02*
X6709467Y-11015936D01*
X6709467Y-11015936D02*
X6699944Y-11025460D01*
X6699944Y-11025460D02*
X6680896Y-11034984D01*
X6680896Y-11034984D02*
X6661848Y-11034984D01*
X6661848Y-11034984D02*
X6642801Y-11025460D01*
X6642801Y-11025460D02*
X6633277Y-11015936D01*
X6633277Y-11015936D02*
X6623753Y-10996889D01*
X6623753Y-10996889D02*
X6614229Y-10958793D01*
X6614229Y-10958793D02*
X6614229Y-10911174D01*
X6614229Y-10911174D02*
X6623753Y-10873079D01*
X6623753Y-10873079D02*
X6633277Y-10854031D01*
X6633277Y-10854031D02*
X6642801Y-10844508D01*
X6642801Y-10844508D02*
X6661848Y-10834984D01*
X6899944Y-10901650D02*
X6899944Y-11034984D01*
X6852325Y-10825460D02*
X6804706Y-10968317D01*
X6804706Y-10968317D02*
X6928515Y-10968317D01*
X7109467Y-11034984D02*
X6995182Y-11034984D01*
X7052325Y-11034984D02*
X7052325Y-10834984D01*
X7052325Y-10834984D02*
X7033277Y-10863555D01*
X7033277Y-10863555D02*
X7014229Y-10882603D01*
X7014229Y-10882603D02*
X6995182Y-10892127D01*
X7233277Y-10834984D02*
X7252325Y-10834984D01*
X7252325Y-10834984D02*
X7271372Y-10844508D01*
X7271372Y-10844508D02*
X7280896Y-10854031D01*
X7280896Y-10854031D02*
X7290420Y-10873079D01*
X7290420Y-10873079D02*
X7299944Y-10911174D01*
X7299944Y-10911174D02*
X7299944Y-10958793D01*
X7299944Y-10958793D02*
X7290420Y-10996889D01*
X7290420Y-10996889D02*
X7280896Y-11015936D01*
X7280896Y-11015936D02*
X7271372Y-11025460D01*
X7271372Y-11025460D02*
X7252325Y-11034984D01*
X7252325Y-11034984D02*
X7233277Y-11034984D01*
X7233277Y-11034984D02*
X7214229Y-11025460D01*
X7214229Y-11025460D02*
X7204706Y-11015936D01*
X7204706Y-11015936D02*
X7195182Y-10996889D01*
X7195182Y-10996889D02*
X7185658Y-10958793D01*
X7185658Y-10958793D02*
X7185658Y-10911174D01*
X7185658Y-10911174D02*
X7195182Y-10873079D01*
X7195182Y-10873079D02*
X7204706Y-10854031D01*
X7204706Y-10854031D02*
X7214229Y-10844508D01*
X7214229Y-10844508D02*
X7233277Y-10834984D01*
X7376134Y-10834984D02*
X7376134Y-10873079D01*
X7452325Y-10834984D02*
X7452325Y-10873079D01*
X7747563Y-11111174D02*
X7738039Y-11101650D01*
X7738039Y-11101650D02*
X7718991Y-11073079D01*
X7718991Y-11073079D02*
X7709468Y-11054031D01*
X7709468Y-11054031D02*
X7699944Y-11025460D01*
X7699944Y-11025460D02*
X7690420Y-10977841D01*
X7690420Y-10977841D02*
X7690420Y-10939746D01*
X7690420Y-10939746D02*
X7699944Y-10892127D01*
X7699944Y-10892127D02*
X7709468Y-10863555D01*
X7709468Y-10863555D02*
X7718991Y-10844508D01*
X7718991Y-10844508D02*
X7738039Y-10815936D01*
X7738039Y-10815936D02*
X7747563Y-10806412D01*
X7833277Y-11034984D02*
X7871372Y-11034984D01*
X7871372Y-11034984D02*
X7890420Y-11025460D01*
X7890420Y-11025460D02*
X7899944Y-11015936D01*
X7899944Y-11015936D02*
X7918991Y-10987365D01*
X7918991Y-10987365D02*
X7928515Y-10949270D01*
X7928515Y-10949270D02*
X7928515Y-10873079D01*
X7928515Y-10873079D02*
X7918991Y-10854031D01*
X7918991Y-10854031D02*
X7909468Y-10844508D01*
X7909468Y-10844508D02*
X7890420Y-10834984D01*
X7890420Y-10834984D02*
X7852325Y-10834984D01*
X7852325Y-10834984D02*
X7833277Y-10844508D01*
X7833277Y-10844508D02*
X7823753Y-10854031D01*
X7823753Y-10854031D02*
X7814229Y-10873079D01*
X7814229Y-10873079D02*
X7814229Y-10920698D01*
X7814229Y-10920698D02*
X7823753Y-10939746D01*
X7823753Y-10939746D02*
X7833277Y-10949270D01*
X7833277Y-10949270D02*
X7852325Y-10958793D01*
X7852325Y-10958793D02*
X7890420Y-10958793D01*
X7890420Y-10958793D02*
X7909468Y-10949270D01*
X7909468Y-10949270D02*
X7918991Y-10939746D01*
X7918991Y-10939746D02*
X7928515Y-10920698D01*
X8166610Y-11034984D02*
X8166610Y-10834984D01*
X8252325Y-11034984D02*
X8252325Y-10930222D01*
X8252325Y-10930222D02*
X8242801Y-10911174D01*
X8242801Y-10911174D02*
X8223753Y-10901650D01*
X8223753Y-10901650D02*
X8195182Y-10901650D01*
X8195182Y-10901650D02*
X8176134Y-10911174D01*
X8176134Y-10911174D02*
X8166610Y-10920698D01*
X8376134Y-11034984D02*
X8357087Y-11025460D01*
X8357087Y-11025460D02*
X8347563Y-11015936D01*
X8347563Y-11015936D02*
X8338039Y-10996889D01*
X8338039Y-10996889D02*
X8338039Y-10939746D01*
X8338039Y-10939746D02*
X8347563Y-10920698D01*
X8347563Y-10920698D02*
X8357087Y-10911174D01*
X8357087Y-10911174D02*
X8376134Y-10901650D01*
X8376134Y-10901650D02*
X8404706Y-10901650D01*
X8404706Y-10901650D02*
X8423753Y-10911174D01*
X8423753Y-10911174D02*
X8433277Y-10920698D01*
X8433277Y-10920698D02*
X8442801Y-10939746D01*
X8442801Y-10939746D02*
X8442801Y-10996889D01*
X8442801Y-10996889D02*
X8433277Y-11015936D01*
X8433277Y-11015936D02*
X8423753Y-11025460D01*
X8423753Y-11025460D02*
X8404706Y-11034984D01*
X8404706Y-11034984D02*
X8376134Y-11034984D01*
X8557087Y-11034984D02*
X8538039Y-11025460D01*
X8538039Y-11025460D02*
X8528515Y-11006412D01*
X8528515Y-11006412D02*
X8528515Y-10834984D01*
X8709468Y-11025460D02*
X8690420Y-11034984D01*
X8690420Y-11034984D02*
X8652325Y-11034984D01*
X8652325Y-11034984D02*
X8633277Y-11025460D01*
X8633277Y-11025460D02*
X8623753Y-11006412D01*
X8623753Y-11006412D02*
X8623753Y-10930222D01*
X8623753Y-10930222D02*
X8633277Y-10911174D01*
X8633277Y-10911174D02*
X8652325Y-10901650D01*
X8652325Y-10901650D02*
X8690420Y-10901650D01*
X8690420Y-10901650D02*
X8709468Y-10911174D01*
X8709468Y-10911174D02*
X8718992Y-10930222D01*
X8718992Y-10930222D02*
X8718992Y-10949270D01*
X8718992Y-10949270D02*
X8623753Y-10968317D01*
X8795182Y-11025460D02*
X8814230Y-11034984D01*
X8814230Y-11034984D02*
X8852325Y-11034984D01*
X8852325Y-11034984D02*
X8871373Y-11025460D01*
X8871373Y-11025460D02*
X8880896Y-11006412D01*
X8880896Y-11006412D02*
X8880896Y-10996889D01*
X8880896Y-10996889D02*
X8871373Y-10977841D01*
X8871373Y-10977841D02*
X8852325Y-10968317D01*
X8852325Y-10968317D02*
X8823753Y-10968317D01*
X8823753Y-10968317D02*
X8804706Y-10958793D01*
X8804706Y-10958793D02*
X8795182Y-10939746D01*
X8795182Y-10939746D02*
X8795182Y-10930222D01*
X8795182Y-10930222D02*
X8804706Y-10911174D01*
X8804706Y-10911174D02*
X8823753Y-10901650D01*
X8823753Y-10901650D02*
X8852325Y-10901650D01*
X8852325Y-10901650D02*
X8871373Y-10911174D01*
X8947563Y-11111174D02*
X8957087Y-11101650D01*
X8957087Y-11101650D02*
X8976134Y-11073079D01*
X8976134Y-11073079D02*
X8985658Y-11054031D01*
X8985658Y-11054031D02*
X8995182Y-11025460D01*
X8995182Y-11025460D02*
X9004706Y-10977841D01*
X9004706Y-10977841D02*
X9004706Y-10939746D01*
X9004706Y-10939746D02*
X8995182Y-10892127D01*
X8995182Y-10892127D02*
X8985658Y-10863555D01*
X8985658Y-10863555D02*
X8976134Y-10844508D01*
X8976134Y-10844508D02*
X8957087Y-10815936D01*
X8957087Y-10815936D02*
X8947563Y-10806412D01*
D14*
X4112500Y-11267500D02*
X4172500Y-11207500D01*
X4112500Y-11147500D01*
X4052500Y-11207500D01*
X4112500Y-11267500D01*
D11*
X4538039Y-11298984D02*
X4423753Y-11298984D01*
X4480896Y-11298984D02*
X4480896Y-11098984D01*
X4480896Y-11098984D02*
X4461848Y-11127555D01*
X4461848Y-11127555D02*
X4442801Y-11146603D01*
X4442801Y-11146603D02*
X4423753Y-11156127D01*
X4623753Y-11279936D02*
X4633277Y-11289460D01*
X4633277Y-11289460D02*
X4623753Y-11298984D01*
X4623753Y-11298984D02*
X4614229Y-11289460D01*
X4614229Y-11289460D02*
X4623753Y-11279936D01*
X4623753Y-11279936D02*
X4623753Y-11298984D01*
X4709467Y-11118031D02*
X4718991Y-11108508D01*
X4718991Y-11108508D02*
X4738039Y-11098984D01*
X4738039Y-11098984D02*
X4785658Y-11098984D01*
X4785658Y-11098984D02*
X4804705Y-11108508D01*
X4804705Y-11108508D02*
X4814229Y-11118031D01*
X4814229Y-11118031D02*
X4823753Y-11137079D01*
X4823753Y-11137079D02*
X4823753Y-11156127D01*
X4823753Y-11156127D02*
X4814229Y-11184698D01*
X4814229Y-11184698D02*
X4699944Y-11298984D01*
X4699944Y-11298984D02*
X4823753Y-11298984D01*
X4947563Y-11098984D02*
X4966610Y-11098984D01*
X4966610Y-11098984D02*
X4985658Y-11108508D01*
X4985658Y-11108508D02*
X4995182Y-11118031D01*
X4995182Y-11118031D02*
X5004705Y-11137079D01*
X5004705Y-11137079D02*
X5014229Y-11175174D01*
X5014229Y-11175174D02*
X5014229Y-11222793D01*
X5014229Y-11222793D02*
X5004705Y-11260888D01*
X5004705Y-11260888D02*
X4995182Y-11279936D01*
X4995182Y-11279936D02*
X4985658Y-11289460D01*
X4985658Y-11289460D02*
X4966610Y-11298984D01*
X4966610Y-11298984D02*
X4947563Y-11298984D01*
X4947563Y-11298984D02*
X4928515Y-11289460D01*
X4928515Y-11289460D02*
X4918991Y-11279936D01*
X4918991Y-11279936D02*
X4909467Y-11260888D01*
X4909467Y-11260888D02*
X4899944Y-11222793D01*
X4899944Y-11222793D02*
X4899944Y-11175174D01*
X4899944Y-11175174D02*
X4909467Y-11137079D01*
X4909467Y-11137079D02*
X4918991Y-11118031D01*
X4918991Y-11118031D02*
X4928515Y-11108508D01*
X4928515Y-11108508D02*
X4947563Y-11098984D01*
X5138039Y-11098984D02*
X5157086Y-11098984D01*
X5157086Y-11098984D02*
X5176134Y-11108508D01*
X5176134Y-11108508D02*
X5185658Y-11118031D01*
X5185658Y-11118031D02*
X5195182Y-11137079D01*
X5195182Y-11137079D02*
X5204705Y-11175174D01*
X5204705Y-11175174D02*
X5204705Y-11222793D01*
X5204705Y-11222793D02*
X5195182Y-11260888D01*
X5195182Y-11260888D02*
X5185658Y-11279936D01*
X5185658Y-11279936D02*
X5176134Y-11289460D01*
X5176134Y-11289460D02*
X5157086Y-11298984D01*
X5157086Y-11298984D02*
X5138039Y-11298984D01*
X5138039Y-11298984D02*
X5118991Y-11289460D01*
X5118991Y-11289460D02*
X5109467Y-11279936D01*
X5109467Y-11279936D02*
X5099944Y-11260888D01*
X5099944Y-11260888D02*
X5090420Y-11222793D01*
X5090420Y-11222793D02*
X5090420Y-11175174D01*
X5090420Y-11175174D02*
X5099944Y-11137079D01*
X5099944Y-11137079D02*
X5109467Y-11118031D01*
X5109467Y-11118031D02*
X5118991Y-11108508D01*
X5118991Y-11108508D02*
X5138039Y-11098984D01*
X5290420Y-11298984D02*
X5290420Y-11165650D01*
X5290420Y-11184698D02*
X5299944Y-11175174D01*
X5299944Y-11175174D02*
X5318991Y-11165650D01*
X5318991Y-11165650D02*
X5347563Y-11165650D01*
X5347563Y-11165650D02*
X5366610Y-11175174D01*
X5366610Y-11175174D02*
X5376134Y-11194222D01*
X5376134Y-11194222D02*
X5376134Y-11298984D01*
X5376134Y-11194222D02*
X5385658Y-11175174D01*
X5385658Y-11175174D02*
X5404705Y-11165650D01*
X5404705Y-11165650D02*
X5433277Y-11165650D01*
X5433277Y-11165650D02*
X5452325Y-11175174D01*
X5452325Y-11175174D02*
X5461848Y-11194222D01*
X5461848Y-11194222D02*
X5461848Y-11298984D01*
X5557086Y-11298984D02*
X5557086Y-11165650D01*
X5557086Y-11184698D02*
X5566610Y-11175174D01*
X5566610Y-11175174D02*
X5585658Y-11165650D01*
X5585658Y-11165650D02*
X5614229Y-11165650D01*
X5614229Y-11165650D02*
X5633277Y-11175174D01*
X5633277Y-11175174D02*
X5642801Y-11194222D01*
X5642801Y-11194222D02*
X5642801Y-11298984D01*
X5642801Y-11194222D02*
X5652324Y-11175174D01*
X5652324Y-11175174D02*
X5671372Y-11165650D01*
X5671372Y-11165650D02*
X5699943Y-11165650D01*
X5699943Y-11165650D02*
X5718991Y-11175174D01*
X5718991Y-11175174D02*
X5728515Y-11194222D01*
X5728515Y-11194222D02*
X5728515Y-11298984D01*
X6118991Y-11089460D02*
X5947563Y-11346603D01*
X6376134Y-11098984D02*
X6395182Y-11098984D01*
X6395182Y-11098984D02*
X6414229Y-11108508D01*
X6414229Y-11108508D02*
X6423753Y-11118031D01*
X6423753Y-11118031D02*
X6433277Y-11137079D01*
X6433277Y-11137079D02*
X6442801Y-11175174D01*
X6442801Y-11175174D02*
X6442801Y-11222793D01*
X6442801Y-11222793D02*
X6433277Y-11260888D01*
X6433277Y-11260888D02*
X6423753Y-11279936D01*
X6423753Y-11279936D02*
X6414229Y-11289460D01*
X6414229Y-11289460D02*
X6395182Y-11298984D01*
X6395182Y-11298984D02*
X6376134Y-11298984D01*
X6376134Y-11298984D02*
X6357086Y-11289460D01*
X6357086Y-11289460D02*
X6347563Y-11279936D01*
X6347563Y-11279936D02*
X6338039Y-11260888D01*
X6338039Y-11260888D02*
X6328515Y-11222793D01*
X6328515Y-11222793D02*
X6328515Y-11175174D01*
X6328515Y-11175174D02*
X6338039Y-11137079D01*
X6338039Y-11137079D02*
X6347563Y-11118031D01*
X6347563Y-11118031D02*
X6357086Y-11108508D01*
X6357086Y-11108508D02*
X6376134Y-11098984D01*
X6528515Y-11279936D02*
X6538039Y-11289460D01*
X6538039Y-11289460D02*
X6528515Y-11298984D01*
X6528515Y-11298984D02*
X6518991Y-11289460D01*
X6518991Y-11289460D02*
X6528515Y-11279936D01*
X6528515Y-11279936D02*
X6528515Y-11298984D01*
X6661848Y-11098984D02*
X6680896Y-11098984D01*
X6680896Y-11098984D02*
X6699944Y-11108508D01*
X6699944Y-11108508D02*
X6709467Y-11118031D01*
X6709467Y-11118031D02*
X6718991Y-11137079D01*
X6718991Y-11137079D02*
X6728515Y-11175174D01*
X6728515Y-11175174D02*
X6728515Y-11222793D01*
X6728515Y-11222793D02*
X6718991Y-11260888D01*
X6718991Y-11260888D02*
X6709467Y-11279936D01*
X6709467Y-11279936D02*
X6699944Y-11289460D01*
X6699944Y-11289460D02*
X6680896Y-11298984D01*
X6680896Y-11298984D02*
X6661848Y-11298984D01*
X6661848Y-11298984D02*
X6642801Y-11289460D01*
X6642801Y-11289460D02*
X6633277Y-11279936D01*
X6633277Y-11279936D02*
X6623753Y-11260888D01*
X6623753Y-11260888D02*
X6614229Y-11222793D01*
X6614229Y-11222793D02*
X6614229Y-11175174D01*
X6614229Y-11175174D02*
X6623753Y-11137079D01*
X6623753Y-11137079D02*
X6633277Y-11118031D01*
X6633277Y-11118031D02*
X6642801Y-11108508D01*
X6642801Y-11108508D02*
X6661848Y-11098984D01*
X6899944Y-11165650D02*
X6899944Y-11298984D01*
X6852325Y-11089460D02*
X6804706Y-11232317D01*
X6804706Y-11232317D02*
X6928515Y-11232317D01*
X6985658Y-11098984D02*
X7118991Y-11098984D01*
X7118991Y-11098984D02*
X7033277Y-11298984D01*
X7185658Y-11118031D02*
X7195182Y-11108508D01*
X7195182Y-11108508D02*
X7214229Y-11098984D01*
X7214229Y-11098984D02*
X7261848Y-11098984D01*
X7261848Y-11098984D02*
X7280896Y-11108508D01*
X7280896Y-11108508D02*
X7290420Y-11118031D01*
X7290420Y-11118031D02*
X7299944Y-11137079D01*
X7299944Y-11137079D02*
X7299944Y-11156127D01*
X7299944Y-11156127D02*
X7290420Y-11184698D01*
X7290420Y-11184698D02*
X7176134Y-11298984D01*
X7176134Y-11298984D02*
X7299944Y-11298984D01*
X7376134Y-11098984D02*
X7376134Y-11137079D01*
X7452325Y-11098984D02*
X7452325Y-11137079D01*
X7747563Y-11375174D02*
X7738039Y-11365650D01*
X7738039Y-11365650D02*
X7718991Y-11337079D01*
X7718991Y-11337079D02*
X7709468Y-11318031D01*
X7709468Y-11318031D02*
X7699944Y-11289460D01*
X7699944Y-11289460D02*
X7690420Y-11241841D01*
X7690420Y-11241841D02*
X7690420Y-11203746D01*
X7690420Y-11203746D02*
X7699944Y-11156127D01*
X7699944Y-11156127D02*
X7709468Y-11127555D01*
X7709468Y-11127555D02*
X7718991Y-11108508D01*
X7718991Y-11108508D02*
X7738039Y-11079936D01*
X7738039Y-11079936D02*
X7747563Y-11070412D01*
X7909468Y-11165650D02*
X7909468Y-11298984D01*
X7861848Y-11089460D02*
X7814229Y-11232317D01*
X7814229Y-11232317D02*
X7938039Y-11232317D01*
X8166610Y-11298984D02*
X8166610Y-11098984D01*
X8252325Y-11298984D02*
X8252325Y-11194222D01*
X8252325Y-11194222D02*
X8242801Y-11175174D01*
X8242801Y-11175174D02*
X8223753Y-11165650D01*
X8223753Y-11165650D02*
X8195182Y-11165650D01*
X8195182Y-11165650D02*
X8176134Y-11175174D01*
X8176134Y-11175174D02*
X8166610Y-11184698D01*
X8376134Y-11298984D02*
X8357087Y-11289460D01*
X8357087Y-11289460D02*
X8347563Y-11279936D01*
X8347563Y-11279936D02*
X8338039Y-11260888D01*
X8338039Y-11260888D02*
X8338039Y-11203746D01*
X8338039Y-11203746D02*
X8347563Y-11184698D01*
X8347563Y-11184698D02*
X8357087Y-11175174D01*
X8357087Y-11175174D02*
X8376134Y-11165650D01*
X8376134Y-11165650D02*
X8404706Y-11165650D01*
X8404706Y-11165650D02*
X8423753Y-11175174D01*
X8423753Y-11175174D02*
X8433277Y-11184698D01*
X8433277Y-11184698D02*
X8442801Y-11203746D01*
X8442801Y-11203746D02*
X8442801Y-11260888D01*
X8442801Y-11260888D02*
X8433277Y-11279936D01*
X8433277Y-11279936D02*
X8423753Y-11289460D01*
X8423753Y-11289460D02*
X8404706Y-11298984D01*
X8404706Y-11298984D02*
X8376134Y-11298984D01*
X8557087Y-11298984D02*
X8538039Y-11289460D01*
X8538039Y-11289460D02*
X8528515Y-11270412D01*
X8528515Y-11270412D02*
X8528515Y-11098984D01*
X8709468Y-11289460D02*
X8690420Y-11298984D01*
X8690420Y-11298984D02*
X8652325Y-11298984D01*
X8652325Y-11298984D02*
X8633277Y-11289460D01*
X8633277Y-11289460D02*
X8623753Y-11270412D01*
X8623753Y-11270412D02*
X8623753Y-11194222D01*
X8623753Y-11194222D02*
X8633277Y-11175174D01*
X8633277Y-11175174D02*
X8652325Y-11165650D01*
X8652325Y-11165650D02*
X8690420Y-11165650D01*
X8690420Y-11165650D02*
X8709468Y-11175174D01*
X8709468Y-11175174D02*
X8718992Y-11194222D01*
X8718992Y-11194222D02*
X8718992Y-11213269D01*
X8718992Y-11213269D02*
X8623753Y-11232317D01*
X8795182Y-11289460D02*
X8814230Y-11298984D01*
X8814230Y-11298984D02*
X8852325Y-11298984D01*
X8852325Y-11298984D02*
X8871373Y-11289460D01*
X8871373Y-11289460D02*
X8880896Y-11270412D01*
X8880896Y-11270412D02*
X8880896Y-11260888D01*
X8880896Y-11260888D02*
X8871373Y-11241841D01*
X8871373Y-11241841D02*
X8852325Y-11232317D01*
X8852325Y-11232317D02*
X8823753Y-11232317D01*
X8823753Y-11232317D02*
X8804706Y-11222793D01*
X8804706Y-11222793D02*
X8795182Y-11203746D01*
X8795182Y-11203746D02*
X8795182Y-11194222D01*
X8795182Y-11194222D02*
X8804706Y-11175174D01*
X8804706Y-11175174D02*
X8823753Y-11165650D01*
X8823753Y-11165650D02*
X8852325Y-11165650D01*
X8852325Y-11165650D02*
X8871373Y-11175174D01*
X8947563Y-11375174D02*
X8957087Y-11365650D01*
X8957087Y-11365650D02*
X8976134Y-11337079D01*
X8976134Y-11337079D02*
X8985658Y-11318031D01*
X8985658Y-11318031D02*
X8995182Y-11289460D01*
X8995182Y-11289460D02*
X9004706Y-11241841D01*
X9004706Y-11241841D02*
X9004706Y-11203746D01*
X9004706Y-11203746D02*
X8995182Y-11156127D01*
X8995182Y-11156127D02*
X8985658Y-11127555D01*
X8985658Y-11127555D02*
X8976134Y-11108508D01*
X8976134Y-11108508D02*
X8957087Y-11079936D01*
X8957087Y-11079936D02*
X8947563Y-11070412D01*
D15*
X4042500Y-11406500D02*
X4172500Y-11536500D01*
X4172500Y-11406500D02*
X4042500Y-11536500D01*
X4172500Y-11471500D02*
G75*
G03*
X4042500Y-11471500I-65000J0D01*
G01*
X4042500Y-11471500D02*
G75*
G03*
X4172500Y-11471500I65000J0D01*
G01*
D11*
X4538039Y-11562984D02*
X4423753Y-11562984D01*
X4480896Y-11562984D02*
X4480896Y-11362984D01*
X4480896Y-11362984D02*
X4461848Y-11391555D01*
X4461848Y-11391555D02*
X4442801Y-11410603D01*
X4442801Y-11410603D02*
X4423753Y-11420127D01*
X4623753Y-11543936D02*
X4633277Y-11553460D01*
X4633277Y-11553460D02*
X4623753Y-11562984D01*
X4623753Y-11562984D02*
X4614229Y-11553460D01*
X4614229Y-11553460D02*
X4623753Y-11543936D01*
X4623753Y-11543936D02*
X4623753Y-11562984D01*
X4699944Y-11362984D02*
X4823753Y-11362984D01*
X4823753Y-11362984D02*
X4757086Y-11439174D01*
X4757086Y-11439174D02*
X4785658Y-11439174D01*
X4785658Y-11439174D02*
X4804705Y-11448698D01*
X4804705Y-11448698D02*
X4814229Y-11458222D01*
X4814229Y-11458222D02*
X4823753Y-11477269D01*
X4823753Y-11477269D02*
X4823753Y-11524888D01*
X4823753Y-11524888D02*
X4814229Y-11543936D01*
X4814229Y-11543936D02*
X4804705Y-11553460D01*
X4804705Y-11553460D02*
X4785658Y-11562984D01*
X4785658Y-11562984D02*
X4728515Y-11562984D01*
X4728515Y-11562984D02*
X4709467Y-11553460D01*
X4709467Y-11553460D02*
X4699944Y-11543936D01*
X4947563Y-11362984D02*
X4966610Y-11362984D01*
X4966610Y-11362984D02*
X4985658Y-11372508D01*
X4985658Y-11372508D02*
X4995182Y-11382031D01*
X4995182Y-11382031D02*
X5004705Y-11401079D01*
X5004705Y-11401079D02*
X5014229Y-11439174D01*
X5014229Y-11439174D02*
X5014229Y-11486793D01*
X5014229Y-11486793D02*
X5004705Y-11524888D01*
X5004705Y-11524888D02*
X4995182Y-11543936D01*
X4995182Y-11543936D02*
X4985658Y-11553460D01*
X4985658Y-11553460D02*
X4966610Y-11562984D01*
X4966610Y-11562984D02*
X4947563Y-11562984D01*
X4947563Y-11562984D02*
X4928515Y-11553460D01*
X4928515Y-11553460D02*
X4918991Y-11543936D01*
X4918991Y-11543936D02*
X4909467Y-11524888D01*
X4909467Y-11524888D02*
X4899944Y-11486793D01*
X4899944Y-11486793D02*
X4899944Y-11439174D01*
X4899944Y-11439174D02*
X4909467Y-11401079D01*
X4909467Y-11401079D02*
X4918991Y-11382031D01*
X4918991Y-11382031D02*
X4928515Y-11372508D01*
X4928515Y-11372508D02*
X4947563Y-11362984D01*
X5138039Y-11362984D02*
X5157086Y-11362984D01*
X5157086Y-11362984D02*
X5176134Y-11372508D01*
X5176134Y-11372508D02*
X5185658Y-11382031D01*
X5185658Y-11382031D02*
X5195182Y-11401079D01*
X5195182Y-11401079D02*
X5204705Y-11439174D01*
X5204705Y-11439174D02*
X5204705Y-11486793D01*
X5204705Y-11486793D02*
X5195182Y-11524888D01*
X5195182Y-11524888D02*
X5185658Y-11543936D01*
X5185658Y-11543936D02*
X5176134Y-11553460D01*
X5176134Y-11553460D02*
X5157086Y-11562984D01*
X5157086Y-11562984D02*
X5138039Y-11562984D01*
X5138039Y-11562984D02*
X5118991Y-11553460D01*
X5118991Y-11553460D02*
X5109467Y-11543936D01*
X5109467Y-11543936D02*
X5099944Y-11524888D01*
X5099944Y-11524888D02*
X5090420Y-11486793D01*
X5090420Y-11486793D02*
X5090420Y-11439174D01*
X5090420Y-11439174D02*
X5099944Y-11401079D01*
X5099944Y-11401079D02*
X5109467Y-11382031D01*
X5109467Y-11382031D02*
X5118991Y-11372508D01*
X5118991Y-11372508D02*
X5138039Y-11362984D01*
X5290420Y-11562984D02*
X5290420Y-11429650D01*
X5290420Y-11448698D02*
X5299944Y-11439174D01*
X5299944Y-11439174D02*
X5318991Y-11429650D01*
X5318991Y-11429650D02*
X5347563Y-11429650D01*
X5347563Y-11429650D02*
X5366610Y-11439174D01*
X5366610Y-11439174D02*
X5376134Y-11458222D01*
X5376134Y-11458222D02*
X5376134Y-11562984D01*
X5376134Y-11458222D02*
X5385658Y-11439174D01*
X5385658Y-11439174D02*
X5404705Y-11429650D01*
X5404705Y-11429650D02*
X5433277Y-11429650D01*
X5433277Y-11429650D02*
X5452325Y-11439174D01*
X5452325Y-11439174D02*
X5461848Y-11458222D01*
X5461848Y-11458222D02*
X5461848Y-11562984D01*
X5557086Y-11562984D02*
X5557086Y-11429650D01*
X5557086Y-11448698D02*
X5566610Y-11439174D01*
X5566610Y-11439174D02*
X5585658Y-11429650D01*
X5585658Y-11429650D02*
X5614229Y-11429650D01*
X5614229Y-11429650D02*
X5633277Y-11439174D01*
X5633277Y-11439174D02*
X5642801Y-11458222D01*
X5642801Y-11458222D02*
X5642801Y-11562984D01*
X5642801Y-11458222D02*
X5652324Y-11439174D01*
X5652324Y-11439174D02*
X5671372Y-11429650D01*
X5671372Y-11429650D02*
X5699943Y-11429650D01*
X5699943Y-11429650D02*
X5718991Y-11439174D01*
X5718991Y-11439174D02*
X5728515Y-11458222D01*
X5728515Y-11458222D02*
X5728515Y-11562984D01*
X6118991Y-11353460D02*
X5947563Y-11610603D01*
X6376134Y-11362984D02*
X6395182Y-11362984D01*
X6395182Y-11362984D02*
X6414229Y-11372508D01*
X6414229Y-11372508D02*
X6423753Y-11382031D01*
X6423753Y-11382031D02*
X6433277Y-11401079D01*
X6433277Y-11401079D02*
X6442801Y-11439174D01*
X6442801Y-11439174D02*
X6442801Y-11486793D01*
X6442801Y-11486793D02*
X6433277Y-11524888D01*
X6433277Y-11524888D02*
X6423753Y-11543936D01*
X6423753Y-11543936D02*
X6414229Y-11553460D01*
X6414229Y-11553460D02*
X6395182Y-11562984D01*
X6395182Y-11562984D02*
X6376134Y-11562984D01*
X6376134Y-11562984D02*
X6357086Y-11553460D01*
X6357086Y-11553460D02*
X6347563Y-11543936D01*
X6347563Y-11543936D02*
X6338039Y-11524888D01*
X6338039Y-11524888D02*
X6328515Y-11486793D01*
X6328515Y-11486793D02*
X6328515Y-11439174D01*
X6328515Y-11439174D02*
X6338039Y-11401079D01*
X6338039Y-11401079D02*
X6347563Y-11382031D01*
X6347563Y-11382031D02*
X6357086Y-11372508D01*
X6357086Y-11372508D02*
X6376134Y-11362984D01*
X6528515Y-11543936D02*
X6538039Y-11553460D01*
X6538039Y-11553460D02*
X6528515Y-11562984D01*
X6528515Y-11562984D02*
X6518991Y-11553460D01*
X6518991Y-11553460D02*
X6528515Y-11543936D01*
X6528515Y-11543936D02*
X6528515Y-11562984D01*
X6661848Y-11362984D02*
X6680896Y-11362984D01*
X6680896Y-11362984D02*
X6699944Y-11372508D01*
X6699944Y-11372508D02*
X6709467Y-11382031D01*
X6709467Y-11382031D02*
X6718991Y-11401079D01*
X6718991Y-11401079D02*
X6728515Y-11439174D01*
X6728515Y-11439174D02*
X6728515Y-11486793D01*
X6728515Y-11486793D02*
X6718991Y-11524888D01*
X6718991Y-11524888D02*
X6709467Y-11543936D01*
X6709467Y-11543936D02*
X6699944Y-11553460D01*
X6699944Y-11553460D02*
X6680896Y-11562984D01*
X6680896Y-11562984D02*
X6661848Y-11562984D01*
X6661848Y-11562984D02*
X6642801Y-11553460D01*
X6642801Y-11553460D02*
X6633277Y-11543936D01*
X6633277Y-11543936D02*
X6623753Y-11524888D01*
X6623753Y-11524888D02*
X6614229Y-11486793D01*
X6614229Y-11486793D02*
X6614229Y-11439174D01*
X6614229Y-11439174D02*
X6623753Y-11401079D01*
X6623753Y-11401079D02*
X6633277Y-11382031D01*
X6633277Y-11382031D02*
X6642801Y-11372508D01*
X6642801Y-11372508D02*
X6661848Y-11362984D01*
X6909467Y-11362984D02*
X6814229Y-11362984D01*
X6814229Y-11362984D02*
X6804706Y-11458222D01*
X6804706Y-11458222D02*
X6814229Y-11448698D01*
X6814229Y-11448698D02*
X6833277Y-11439174D01*
X6833277Y-11439174D02*
X6880896Y-11439174D01*
X6880896Y-11439174D02*
X6899944Y-11448698D01*
X6899944Y-11448698D02*
X6909467Y-11458222D01*
X6909467Y-11458222D02*
X6918991Y-11477269D01*
X6918991Y-11477269D02*
X6918991Y-11524888D01*
X6918991Y-11524888D02*
X6909467Y-11543936D01*
X6909467Y-11543936D02*
X6899944Y-11553460D01*
X6899944Y-11553460D02*
X6880896Y-11562984D01*
X6880896Y-11562984D02*
X6833277Y-11562984D01*
X6833277Y-11562984D02*
X6814229Y-11553460D01*
X6814229Y-11553460D02*
X6804706Y-11543936D01*
X7109467Y-11562984D02*
X6995182Y-11562984D01*
X7052325Y-11562984D02*
X7052325Y-11362984D01*
X7052325Y-11362984D02*
X7033277Y-11391555D01*
X7033277Y-11391555D02*
X7014229Y-11410603D01*
X7014229Y-11410603D02*
X6995182Y-11420127D01*
X7185658Y-11382031D02*
X7195182Y-11372508D01*
X7195182Y-11372508D02*
X7214229Y-11362984D01*
X7214229Y-11362984D02*
X7261848Y-11362984D01*
X7261848Y-11362984D02*
X7280896Y-11372508D01*
X7280896Y-11372508D02*
X7290420Y-11382031D01*
X7290420Y-11382031D02*
X7299944Y-11401079D01*
X7299944Y-11401079D02*
X7299944Y-11420127D01*
X7299944Y-11420127D02*
X7290420Y-11448698D01*
X7290420Y-11448698D02*
X7176134Y-11562984D01*
X7176134Y-11562984D02*
X7299944Y-11562984D01*
X7376134Y-11362984D02*
X7376134Y-11401079D01*
X7452325Y-11362984D02*
X7452325Y-11401079D01*
X7747563Y-11639174D02*
X7738039Y-11629650D01*
X7738039Y-11629650D02*
X7718991Y-11601079D01*
X7718991Y-11601079D02*
X7709468Y-11582031D01*
X7709468Y-11582031D02*
X7699944Y-11553460D01*
X7699944Y-11553460D02*
X7690420Y-11505841D01*
X7690420Y-11505841D02*
X7690420Y-11467746D01*
X7690420Y-11467746D02*
X7699944Y-11420127D01*
X7699944Y-11420127D02*
X7709468Y-11391555D01*
X7709468Y-11391555D02*
X7718991Y-11372508D01*
X7718991Y-11372508D02*
X7738039Y-11343936D01*
X7738039Y-11343936D02*
X7747563Y-11334412D01*
X7852325Y-11448698D02*
X7833277Y-11439174D01*
X7833277Y-11439174D02*
X7823753Y-11429650D01*
X7823753Y-11429650D02*
X7814229Y-11410603D01*
X7814229Y-11410603D02*
X7814229Y-11401079D01*
X7814229Y-11401079D02*
X7823753Y-11382031D01*
X7823753Y-11382031D02*
X7833277Y-11372508D01*
X7833277Y-11372508D02*
X7852325Y-11362984D01*
X7852325Y-11362984D02*
X7890420Y-11362984D01*
X7890420Y-11362984D02*
X7909468Y-11372508D01*
X7909468Y-11372508D02*
X7918991Y-11382031D01*
X7918991Y-11382031D02*
X7928515Y-11401079D01*
X7928515Y-11401079D02*
X7928515Y-11410603D01*
X7928515Y-11410603D02*
X7918991Y-11429650D01*
X7918991Y-11429650D02*
X7909468Y-11439174D01*
X7909468Y-11439174D02*
X7890420Y-11448698D01*
X7890420Y-11448698D02*
X7852325Y-11448698D01*
X7852325Y-11448698D02*
X7833277Y-11458222D01*
X7833277Y-11458222D02*
X7823753Y-11467746D01*
X7823753Y-11467746D02*
X7814229Y-11486793D01*
X7814229Y-11486793D02*
X7814229Y-11524888D01*
X7814229Y-11524888D02*
X7823753Y-11543936D01*
X7823753Y-11543936D02*
X7833277Y-11553460D01*
X7833277Y-11553460D02*
X7852325Y-11562984D01*
X7852325Y-11562984D02*
X7890420Y-11562984D01*
X7890420Y-11562984D02*
X7909468Y-11553460D01*
X7909468Y-11553460D02*
X7918991Y-11543936D01*
X7918991Y-11543936D02*
X7928515Y-11524888D01*
X7928515Y-11524888D02*
X7928515Y-11486793D01*
X7928515Y-11486793D02*
X7918991Y-11467746D01*
X7918991Y-11467746D02*
X7909468Y-11458222D01*
X7909468Y-11458222D02*
X7890420Y-11448698D01*
X8166610Y-11562984D02*
X8166610Y-11362984D01*
X8252325Y-11562984D02*
X8252325Y-11458222D01*
X8252325Y-11458222D02*
X8242801Y-11439174D01*
X8242801Y-11439174D02*
X8223753Y-11429650D01*
X8223753Y-11429650D02*
X8195182Y-11429650D01*
X8195182Y-11429650D02*
X8176134Y-11439174D01*
X8176134Y-11439174D02*
X8166610Y-11448698D01*
X8376134Y-11562984D02*
X8357087Y-11553460D01*
X8357087Y-11553460D02*
X8347563Y-11543936D01*
X8347563Y-11543936D02*
X8338039Y-11524888D01*
X8338039Y-11524888D02*
X8338039Y-11467746D01*
X8338039Y-11467746D02*
X8347563Y-11448698D01*
X8347563Y-11448698D02*
X8357087Y-11439174D01*
X8357087Y-11439174D02*
X8376134Y-11429650D01*
X8376134Y-11429650D02*
X8404706Y-11429650D01*
X8404706Y-11429650D02*
X8423753Y-11439174D01*
X8423753Y-11439174D02*
X8433277Y-11448698D01*
X8433277Y-11448698D02*
X8442801Y-11467746D01*
X8442801Y-11467746D02*
X8442801Y-11524888D01*
X8442801Y-11524888D02*
X8433277Y-11543936D01*
X8433277Y-11543936D02*
X8423753Y-11553460D01*
X8423753Y-11553460D02*
X8404706Y-11562984D01*
X8404706Y-11562984D02*
X8376134Y-11562984D01*
X8557087Y-11562984D02*
X8538039Y-11553460D01*
X8538039Y-11553460D02*
X8528515Y-11534412D01*
X8528515Y-11534412D02*
X8528515Y-11362984D01*
X8709468Y-11553460D02*
X8690420Y-11562984D01*
X8690420Y-11562984D02*
X8652325Y-11562984D01*
X8652325Y-11562984D02*
X8633277Y-11553460D01*
X8633277Y-11553460D02*
X8623753Y-11534412D01*
X8623753Y-11534412D02*
X8623753Y-11458222D01*
X8623753Y-11458222D02*
X8633277Y-11439174D01*
X8633277Y-11439174D02*
X8652325Y-11429650D01*
X8652325Y-11429650D02*
X8690420Y-11429650D01*
X8690420Y-11429650D02*
X8709468Y-11439174D01*
X8709468Y-11439174D02*
X8718992Y-11458222D01*
X8718992Y-11458222D02*
X8718992Y-11477269D01*
X8718992Y-11477269D02*
X8623753Y-11496317D01*
X8795182Y-11553460D02*
X8814230Y-11562984D01*
X8814230Y-11562984D02*
X8852325Y-11562984D01*
X8852325Y-11562984D02*
X8871373Y-11553460D01*
X8871373Y-11553460D02*
X8880896Y-11534412D01*
X8880896Y-11534412D02*
X8880896Y-11524888D01*
X8880896Y-11524888D02*
X8871373Y-11505841D01*
X8871373Y-11505841D02*
X8852325Y-11496317D01*
X8852325Y-11496317D02*
X8823753Y-11496317D01*
X8823753Y-11496317D02*
X8804706Y-11486793D01*
X8804706Y-11486793D02*
X8795182Y-11467746D01*
X8795182Y-11467746D02*
X8795182Y-11458222D01*
X8795182Y-11458222D02*
X8804706Y-11439174D01*
X8804706Y-11439174D02*
X8823753Y-11429650D01*
X8823753Y-11429650D02*
X8852325Y-11429650D01*
X8852325Y-11429650D02*
X8871373Y-11439174D01*
X8947563Y-11639174D02*
X8957087Y-11629650D01*
X8957087Y-11629650D02*
X8976134Y-11601079D01*
X8976134Y-11601079D02*
X8985658Y-11582031D01*
X8985658Y-11582031D02*
X8995182Y-11553460D01*
X8995182Y-11553460D02*
X9004706Y-11505841D01*
X9004706Y-11505841D02*
X9004706Y-11467746D01*
X9004706Y-11467746D02*
X8995182Y-11420127D01*
X8995182Y-11420127D02*
X8985658Y-11391555D01*
X8985658Y-11391555D02*
X8976134Y-11372508D01*
X8976134Y-11372508D02*
X8957087Y-11343936D01*
X8957087Y-11343936D02*
X8947563Y-11334412D01*
D16*
X4022500Y-11660500D02*
X4172500Y-11810500D01*
X4172500Y-11660500D02*
X4022500Y-11810500D01*
X4097500Y-11660500D02*
X4097500Y-11810500D01*
X4022500Y-11735500D02*
X4172500Y-11735500D01*
D11*
X4538039Y-11826984D02*
X4423753Y-11826984D01*
X4480896Y-11826984D02*
X4480896Y-11626984D01*
X4480896Y-11626984D02*
X4461848Y-11655555D01*
X4461848Y-11655555D02*
X4442801Y-11674603D01*
X4442801Y-11674603D02*
X4423753Y-11684127D01*
X4623753Y-11807936D02*
X4633277Y-11817460D01*
X4633277Y-11817460D02*
X4623753Y-11826984D01*
X4623753Y-11826984D02*
X4614229Y-11817460D01*
X4614229Y-11817460D02*
X4623753Y-11807936D01*
X4623753Y-11807936D02*
X4623753Y-11826984D01*
X4814229Y-11626984D02*
X4718991Y-11626984D01*
X4718991Y-11626984D02*
X4709467Y-11722222D01*
X4709467Y-11722222D02*
X4718991Y-11712698D01*
X4718991Y-11712698D02*
X4738039Y-11703174D01*
X4738039Y-11703174D02*
X4785658Y-11703174D01*
X4785658Y-11703174D02*
X4804705Y-11712698D01*
X4804705Y-11712698D02*
X4814229Y-11722222D01*
X4814229Y-11722222D02*
X4823753Y-11741269D01*
X4823753Y-11741269D02*
X4823753Y-11788888D01*
X4823753Y-11788888D02*
X4814229Y-11807936D01*
X4814229Y-11807936D02*
X4804705Y-11817460D01*
X4804705Y-11817460D02*
X4785658Y-11826984D01*
X4785658Y-11826984D02*
X4738039Y-11826984D01*
X4738039Y-11826984D02*
X4718991Y-11817460D01*
X4718991Y-11817460D02*
X4709467Y-11807936D01*
X4947563Y-11626984D02*
X4966610Y-11626984D01*
X4966610Y-11626984D02*
X4985658Y-11636508D01*
X4985658Y-11636508D02*
X4995182Y-11646031D01*
X4995182Y-11646031D02*
X5004705Y-11665079D01*
X5004705Y-11665079D02*
X5014229Y-11703174D01*
X5014229Y-11703174D02*
X5014229Y-11750793D01*
X5014229Y-11750793D02*
X5004705Y-11788888D01*
X5004705Y-11788888D02*
X4995182Y-11807936D01*
X4995182Y-11807936D02*
X4985658Y-11817460D01*
X4985658Y-11817460D02*
X4966610Y-11826984D01*
X4966610Y-11826984D02*
X4947563Y-11826984D01*
X4947563Y-11826984D02*
X4928515Y-11817460D01*
X4928515Y-11817460D02*
X4918991Y-11807936D01*
X4918991Y-11807936D02*
X4909467Y-11788888D01*
X4909467Y-11788888D02*
X4899944Y-11750793D01*
X4899944Y-11750793D02*
X4899944Y-11703174D01*
X4899944Y-11703174D02*
X4909467Y-11665079D01*
X4909467Y-11665079D02*
X4918991Y-11646031D01*
X4918991Y-11646031D02*
X4928515Y-11636508D01*
X4928515Y-11636508D02*
X4947563Y-11626984D01*
X5138039Y-11626984D02*
X5157086Y-11626984D01*
X5157086Y-11626984D02*
X5176134Y-11636508D01*
X5176134Y-11636508D02*
X5185658Y-11646031D01*
X5185658Y-11646031D02*
X5195182Y-11665079D01*
X5195182Y-11665079D02*
X5204705Y-11703174D01*
X5204705Y-11703174D02*
X5204705Y-11750793D01*
X5204705Y-11750793D02*
X5195182Y-11788888D01*
X5195182Y-11788888D02*
X5185658Y-11807936D01*
X5185658Y-11807936D02*
X5176134Y-11817460D01*
X5176134Y-11817460D02*
X5157086Y-11826984D01*
X5157086Y-11826984D02*
X5138039Y-11826984D01*
X5138039Y-11826984D02*
X5118991Y-11817460D01*
X5118991Y-11817460D02*
X5109467Y-11807936D01*
X5109467Y-11807936D02*
X5099944Y-11788888D01*
X5099944Y-11788888D02*
X5090420Y-11750793D01*
X5090420Y-11750793D02*
X5090420Y-11703174D01*
X5090420Y-11703174D02*
X5099944Y-11665079D01*
X5099944Y-11665079D02*
X5109467Y-11646031D01*
X5109467Y-11646031D02*
X5118991Y-11636508D01*
X5118991Y-11636508D02*
X5138039Y-11626984D01*
X5290420Y-11826984D02*
X5290420Y-11693650D01*
X5290420Y-11712698D02*
X5299944Y-11703174D01*
X5299944Y-11703174D02*
X5318991Y-11693650D01*
X5318991Y-11693650D02*
X5347563Y-11693650D01*
X5347563Y-11693650D02*
X5366610Y-11703174D01*
X5366610Y-11703174D02*
X5376134Y-11722222D01*
X5376134Y-11722222D02*
X5376134Y-11826984D01*
X5376134Y-11722222D02*
X5385658Y-11703174D01*
X5385658Y-11703174D02*
X5404705Y-11693650D01*
X5404705Y-11693650D02*
X5433277Y-11693650D01*
X5433277Y-11693650D02*
X5452325Y-11703174D01*
X5452325Y-11703174D02*
X5461848Y-11722222D01*
X5461848Y-11722222D02*
X5461848Y-11826984D01*
X5557086Y-11826984D02*
X5557086Y-11693650D01*
X5557086Y-11712698D02*
X5566610Y-11703174D01*
X5566610Y-11703174D02*
X5585658Y-11693650D01*
X5585658Y-11693650D02*
X5614229Y-11693650D01*
X5614229Y-11693650D02*
X5633277Y-11703174D01*
X5633277Y-11703174D02*
X5642801Y-11722222D01*
X5642801Y-11722222D02*
X5642801Y-11826984D01*
X5642801Y-11722222D02*
X5652324Y-11703174D01*
X5652324Y-11703174D02*
X5671372Y-11693650D01*
X5671372Y-11693650D02*
X5699943Y-11693650D01*
X5699943Y-11693650D02*
X5718991Y-11703174D01*
X5718991Y-11703174D02*
X5728515Y-11722222D01*
X5728515Y-11722222D02*
X5728515Y-11826984D01*
X6118991Y-11617460D02*
X5947563Y-11874603D01*
X6376134Y-11626984D02*
X6395182Y-11626984D01*
X6395182Y-11626984D02*
X6414229Y-11636508D01*
X6414229Y-11636508D02*
X6423753Y-11646031D01*
X6423753Y-11646031D02*
X6433277Y-11665079D01*
X6433277Y-11665079D02*
X6442801Y-11703174D01*
X6442801Y-11703174D02*
X6442801Y-11750793D01*
X6442801Y-11750793D02*
X6433277Y-11788888D01*
X6433277Y-11788888D02*
X6423753Y-11807936D01*
X6423753Y-11807936D02*
X6414229Y-11817460D01*
X6414229Y-11817460D02*
X6395182Y-11826984D01*
X6395182Y-11826984D02*
X6376134Y-11826984D01*
X6376134Y-11826984D02*
X6357086Y-11817460D01*
X6357086Y-11817460D02*
X6347563Y-11807936D01*
X6347563Y-11807936D02*
X6338039Y-11788888D01*
X6338039Y-11788888D02*
X6328515Y-11750793D01*
X6328515Y-11750793D02*
X6328515Y-11703174D01*
X6328515Y-11703174D02*
X6338039Y-11665079D01*
X6338039Y-11665079D02*
X6347563Y-11646031D01*
X6347563Y-11646031D02*
X6357086Y-11636508D01*
X6357086Y-11636508D02*
X6376134Y-11626984D01*
X6528515Y-11807936D02*
X6538039Y-11817460D01*
X6538039Y-11817460D02*
X6528515Y-11826984D01*
X6528515Y-11826984D02*
X6518991Y-11817460D01*
X6518991Y-11817460D02*
X6528515Y-11807936D01*
X6528515Y-11807936D02*
X6528515Y-11826984D01*
X6661848Y-11626984D02*
X6680896Y-11626984D01*
X6680896Y-11626984D02*
X6699944Y-11636508D01*
X6699944Y-11636508D02*
X6709467Y-11646031D01*
X6709467Y-11646031D02*
X6718991Y-11665079D01*
X6718991Y-11665079D02*
X6728515Y-11703174D01*
X6728515Y-11703174D02*
X6728515Y-11750793D01*
X6728515Y-11750793D02*
X6718991Y-11788888D01*
X6718991Y-11788888D02*
X6709467Y-11807936D01*
X6709467Y-11807936D02*
X6699944Y-11817460D01*
X6699944Y-11817460D02*
X6680896Y-11826984D01*
X6680896Y-11826984D02*
X6661848Y-11826984D01*
X6661848Y-11826984D02*
X6642801Y-11817460D01*
X6642801Y-11817460D02*
X6633277Y-11807936D01*
X6633277Y-11807936D02*
X6623753Y-11788888D01*
X6623753Y-11788888D02*
X6614229Y-11750793D01*
X6614229Y-11750793D02*
X6614229Y-11703174D01*
X6614229Y-11703174D02*
X6623753Y-11665079D01*
X6623753Y-11665079D02*
X6633277Y-11646031D01*
X6633277Y-11646031D02*
X6642801Y-11636508D01*
X6642801Y-11636508D02*
X6661848Y-11626984D01*
X6909467Y-11626984D02*
X6814229Y-11626984D01*
X6814229Y-11626984D02*
X6804706Y-11722222D01*
X6804706Y-11722222D02*
X6814229Y-11712698D01*
X6814229Y-11712698D02*
X6833277Y-11703174D01*
X6833277Y-11703174D02*
X6880896Y-11703174D01*
X6880896Y-11703174D02*
X6899944Y-11712698D01*
X6899944Y-11712698D02*
X6909467Y-11722222D01*
X6909467Y-11722222D02*
X6918991Y-11741269D01*
X6918991Y-11741269D02*
X6918991Y-11788888D01*
X6918991Y-11788888D02*
X6909467Y-11807936D01*
X6909467Y-11807936D02*
X6899944Y-11817460D01*
X6899944Y-11817460D02*
X6880896Y-11826984D01*
X6880896Y-11826984D02*
X6833277Y-11826984D01*
X6833277Y-11826984D02*
X6814229Y-11817460D01*
X6814229Y-11817460D02*
X6804706Y-11807936D01*
X7014229Y-11826984D02*
X7052325Y-11826984D01*
X7052325Y-11826984D02*
X7071372Y-11817460D01*
X7071372Y-11817460D02*
X7080896Y-11807936D01*
X7080896Y-11807936D02*
X7099944Y-11779365D01*
X7099944Y-11779365D02*
X7109467Y-11741269D01*
X7109467Y-11741269D02*
X7109467Y-11665079D01*
X7109467Y-11665079D02*
X7099944Y-11646031D01*
X7099944Y-11646031D02*
X7090420Y-11636508D01*
X7090420Y-11636508D02*
X7071372Y-11626984D01*
X7071372Y-11626984D02*
X7033277Y-11626984D01*
X7033277Y-11626984D02*
X7014229Y-11636508D01*
X7014229Y-11636508D02*
X7004706Y-11646031D01*
X7004706Y-11646031D02*
X6995182Y-11665079D01*
X6995182Y-11665079D02*
X6995182Y-11712698D01*
X6995182Y-11712698D02*
X7004706Y-11731746D01*
X7004706Y-11731746D02*
X7014229Y-11741269D01*
X7014229Y-11741269D02*
X7033277Y-11750793D01*
X7033277Y-11750793D02*
X7071372Y-11750793D01*
X7071372Y-11750793D02*
X7090420Y-11741269D01*
X7090420Y-11741269D02*
X7099944Y-11731746D01*
X7099944Y-11731746D02*
X7109467Y-11712698D01*
X7299944Y-11826984D02*
X7185658Y-11826984D01*
X7242801Y-11826984D02*
X7242801Y-11626984D01*
X7242801Y-11626984D02*
X7223753Y-11655555D01*
X7223753Y-11655555D02*
X7204706Y-11674603D01*
X7204706Y-11674603D02*
X7185658Y-11684127D01*
X7376134Y-11626984D02*
X7376134Y-11665079D01*
X7452325Y-11626984D02*
X7452325Y-11665079D01*
X7747563Y-11903174D02*
X7738039Y-11893650D01*
X7738039Y-11893650D02*
X7718991Y-11865079D01*
X7718991Y-11865079D02*
X7709468Y-11846031D01*
X7709468Y-11846031D02*
X7699944Y-11817460D01*
X7699944Y-11817460D02*
X7690420Y-11769841D01*
X7690420Y-11769841D02*
X7690420Y-11731746D01*
X7690420Y-11731746D02*
X7699944Y-11684127D01*
X7699944Y-11684127D02*
X7709468Y-11655555D01*
X7709468Y-11655555D02*
X7718991Y-11636508D01*
X7718991Y-11636508D02*
X7738039Y-11607936D01*
X7738039Y-11607936D02*
X7747563Y-11598412D01*
X7928515Y-11826984D02*
X7814229Y-11826984D01*
X7871372Y-11826984D02*
X7871372Y-11626984D01*
X7871372Y-11626984D02*
X7852325Y-11655555D01*
X7852325Y-11655555D02*
X7833277Y-11674603D01*
X7833277Y-11674603D02*
X7814229Y-11684127D01*
X8099944Y-11626984D02*
X8061848Y-11626984D01*
X8061848Y-11626984D02*
X8042801Y-11636508D01*
X8042801Y-11636508D02*
X8033277Y-11646031D01*
X8033277Y-11646031D02*
X8014229Y-11674603D01*
X8014229Y-11674603D02*
X8004706Y-11712698D01*
X8004706Y-11712698D02*
X8004706Y-11788888D01*
X8004706Y-11788888D02*
X8014229Y-11807936D01*
X8014229Y-11807936D02*
X8023753Y-11817460D01*
X8023753Y-11817460D02*
X8042801Y-11826984D01*
X8042801Y-11826984D02*
X8080896Y-11826984D01*
X8080896Y-11826984D02*
X8099944Y-11817460D01*
X8099944Y-11817460D02*
X8109468Y-11807936D01*
X8109468Y-11807936D02*
X8118991Y-11788888D01*
X8118991Y-11788888D02*
X8118991Y-11741269D01*
X8118991Y-11741269D02*
X8109468Y-11722222D01*
X8109468Y-11722222D02*
X8099944Y-11712698D01*
X8099944Y-11712698D02*
X8080896Y-11703174D01*
X8080896Y-11703174D02*
X8042801Y-11703174D01*
X8042801Y-11703174D02*
X8023753Y-11712698D01*
X8023753Y-11712698D02*
X8014229Y-11722222D01*
X8014229Y-11722222D02*
X8004706Y-11741269D01*
X8357087Y-11826984D02*
X8357087Y-11626984D01*
X8442801Y-11826984D02*
X8442801Y-11722222D01*
X8442801Y-11722222D02*
X8433277Y-11703174D01*
X8433277Y-11703174D02*
X8414230Y-11693650D01*
X8414230Y-11693650D02*
X8385658Y-11693650D01*
X8385658Y-11693650D02*
X8366610Y-11703174D01*
X8366610Y-11703174D02*
X8357087Y-11712698D01*
X8566611Y-11826984D02*
X8547563Y-11817460D01*
X8547563Y-11817460D02*
X8538039Y-11807936D01*
X8538039Y-11807936D02*
X8528515Y-11788888D01*
X8528515Y-11788888D02*
X8528515Y-11731746D01*
X8528515Y-11731746D02*
X8538039Y-11712698D01*
X8538039Y-11712698D02*
X8547563Y-11703174D01*
X8547563Y-11703174D02*
X8566611Y-11693650D01*
X8566611Y-11693650D02*
X8595182Y-11693650D01*
X8595182Y-11693650D02*
X8614230Y-11703174D01*
X8614230Y-11703174D02*
X8623753Y-11712698D01*
X8623753Y-11712698D02*
X8633277Y-11731746D01*
X8633277Y-11731746D02*
X8633277Y-11788888D01*
X8633277Y-11788888D02*
X8623753Y-11807936D01*
X8623753Y-11807936D02*
X8614230Y-11817460D01*
X8614230Y-11817460D02*
X8595182Y-11826984D01*
X8595182Y-11826984D02*
X8566611Y-11826984D01*
X8747563Y-11826984D02*
X8728515Y-11817460D01*
X8728515Y-11817460D02*
X8718992Y-11798412D01*
X8718992Y-11798412D02*
X8718992Y-11626984D01*
X8899944Y-11817460D02*
X8880896Y-11826984D01*
X8880896Y-11826984D02*
X8842801Y-11826984D01*
X8842801Y-11826984D02*
X8823753Y-11817460D01*
X8823753Y-11817460D02*
X8814230Y-11798412D01*
X8814230Y-11798412D02*
X8814230Y-11722222D01*
X8814230Y-11722222D02*
X8823753Y-11703174D01*
X8823753Y-11703174D02*
X8842801Y-11693650D01*
X8842801Y-11693650D02*
X8880896Y-11693650D01*
X8880896Y-11693650D02*
X8899944Y-11703174D01*
X8899944Y-11703174D02*
X8909468Y-11722222D01*
X8909468Y-11722222D02*
X8909468Y-11741269D01*
X8909468Y-11741269D02*
X8814230Y-11760317D01*
X8985658Y-11817460D02*
X9004706Y-11826984D01*
X9004706Y-11826984D02*
X9042801Y-11826984D01*
X9042801Y-11826984D02*
X9061849Y-11817460D01*
X9061849Y-11817460D02*
X9071373Y-11798412D01*
X9071373Y-11798412D02*
X9071373Y-11788888D01*
X9071373Y-11788888D02*
X9061849Y-11769841D01*
X9061849Y-11769841D02*
X9042801Y-11760317D01*
X9042801Y-11760317D02*
X9014230Y-11760317D01*
X9014230Y-11760317D02*
X8995182Y-11750793D01*
X8995182Y-11750793D02*
X8985658Y-11731746D01*
X8985658Y-11731746D02*
X8985658Y-11722222D01*
X8985658Y-11722222D02*
X8995182Y-11703174D01*
X8995182Y-11703174D02*
X9014230Y-11693650D01*
X9014230Y-11693650D02*
X9042801Y-11693650D01*
X9042801Y-11693650D02*
X9061849Y-11703174D01*
X9138039Y-11903174D02*
X9147563Y-11893650D01*
X9147563Y-11893650D02*
X9166611Y-11865079D01*
X9166611Y-11865079D02*
X9176134Y-11846031D01*
X9176134Y-11846031D02*
X9185658Y-11817460D01*
X9185658Y-11817460D02*
X9195182Y-11769841D01*
X9195182Y-11769841D02*
X9195182Y-11731746D01*
X9195182Y-11731746D02*
X9185658Y-11684127D01*
X9185658Y-11684127D02*
X9176134Y-11655555D01*
X9176134Y-11655555D02*
X9166611Y-11636508D01*
X9166611Y-11636508D02*
X9147563Y-11607936D01*
X9147563Y-11607936D02*
X9138039Y-11598412D01*
D17*
X4002500Y-11920500D02*
X4172500Y-12090500D01*
X4172500Y-11920500D02*
X4002500Y-12090500D01*
X4147605Y-12065605D02*
X4147605Y-11945395D01*
X4027395Y-11945395D01*
X4027395Y-12065605D01*
X4147605Y-12065605D01*
D11*
X4538039Y-12096984D02*
X4423753Y-12096984D01*
X4480896Y-12096984D02*
X4480896Y-11896984D01*
X4480896Y-11896984D02*
X4461848Y-11925555D01*
X4461848Y-11925555D02*
X4442801Y-11944603D01*
X4442801Y-11944603D02*
X4423753Y-11954127D01*
X4623753Y-12077936D02*
X4633277Y-12087460D01*
X4633277Y-12087460D02*
X4623753Y-12096984D01*
X4623753Y-12096984D02*
X4614229Y-12087460D01*
X4614229Y-12087460D02*
X4623753Y-12077936D01*
X4623753Y-12077936D02*
X4623753Y-12096984D01*
X4699944Y-11896984D02*
X4833277Y-11896984D01*
X4833277Y-11896984D02*
X4747563Y-12096984D01*
X4947563Y-11896984D02*
X4966610Y-11896984D01*
X4966610Y-11896984D02*
X4985658Y-11906508D01*
X4985658Y-11906508D02*
X4995182Y-11916031D01*
X4995182Y-11916031D02*
X5004705Y-11935079D01*
X5004705Y-11935079D02*
X5014229Y-11973174D01*
X5014229Y-11973174D02*
X5014229Y-12020793D01*
X5014229Y-12020793D02*
X5004705Y-12058888D01*
X5004705Y-12058888D02*
X4995182Y-12077936D01*
X4995182Y-12077936D02*
X4985658Y-12087460D01*
X4985658Y-12087460D02*
X4966610Y-12096984D01*
X4966610Y-12096984D02*
X4947563Y-12096984D01*
X4947563Y-12096984D02*
X4928515Y-12087460D01*
X4928515Y-12087460D02*
X4918991Y-12077936D01*
X4918991Y-12077936D02*
X4909467Y-12058888D01*
X4909467Y-12058888D02*
X4899944Y-12020793D01*
X4899944Y-12020793D02*
X4899944Y-11973174D01*
X4899944Y-11973174D02*
X4909467Y-11935079D01*
X4909467Y-11935079D02*
X4918991Y-11916031D01*
X4918991Y-11916031D02*
X4928515Y-11906508D01*
X4928515Y-11906508D02*
X4947563Y-11896984D01*
X5138039Y-11896984D02*
X5157086Y-11896984D01*
X5157086Y-11896984D02*
X5176134Y-11906508D01*
X5176134Y-11906508D02*
X5185658Y-11916031D01*
X5185658Y-11916031D02*
X5195182Y-11935079D01*
X5195182Y-11935079D02*
X5204705Y-11973174D01*
X5204705Y-11973174D02*
X5204705Y-12020793D01*
X5204705Y-12020793D02*
X5195182Y-12058888D01*
X5195182Y-12058888D02*
X5185658Y-12077936D01*
X5185658Y-12077936D02*
X5176134Y-12087460D01*
X5176134Y-12087460D02*
X5157086Y-12096984D01*
X5157086Y-12096984D02*
X5138039Y-12096984D01*
X5138039Y-12096984D02*
X5118991Y-12087460D01*
X5118991Y-12087460D02*
X5109467Y-12077936D01*
X5109467Y-12077936D02*
X5099944Y-12058888D01*
X5099944Y-12058888D02*
X5090420Y-12020793D01*
X5090420Y-12020793D02*
X5090420Y-11973174D01*
X5090420Y-11973174D02*
X5099944Y-11935079D01*
X5099944Y-11935079D02*
X5109467Y-11916031D01*
X5109467Y-11916031D02*
X5118991Y-11906508D01*
X5118991Y-11906508D02*
X5138039Y-11896984D01*
X5290420Y-12096984D02*
X5290420Y-11963650D01*
X5290420Y-11982698D02*
X5299944Y-11973174D01*
X5299944Y-11973174D02*
X5318991Y-11963650D01*
X5318991Y-11963650D02*
X5347563Y-11963650D01*
X5347563Y-11963650D02*
X5366610Y-11973174D01*
X5366610Y-11973174D02*
X5376134Y-11992222D01*
X5376134Y-11992222D02*
X5376134Y-12096984D01*
X5376134Y-11992222D02*
X5385658Y-11973174D01*
X5385658Y-11973174D02*
X5404705Y-11963650D01*
X5404705Y-11963650D02*
X5433277Y-11963650D01*
X5433277Y-11963650D02*
X5452325Y-11973174D01*
X5452325Y-11973174D02*
X5461848Y-11992222D01*
X5461848Y-11992222D02*
X5461848Y-12096984D01*
X5557086Y-12096984D02*
X5557086Y-11963650D01*
X5557086Y-11982698D02*
X5566610Y-11973174D01*
X5566610Y-11973174D02*
X5585658Y-11963650D01*
X5585658Y-11963650D02*
X5614229Y-11963650D01*
X5614229Y-11963650D02*
X5633277Y-11973174D01*
X5633277Y-11973174D02*
X5642801Y-11992222D01*
X5642801Y-11992222D02*
X5642801Y-12096984D01*
X5642801Y-11992222D02*
X5652324Y-11973174D01*
X5652324Y-11973174D02*
X5671372Y-11963650D01*
X5671372Y-11963650D02*
X5699943Y-11963650D01*
X5699943Y-11963650D02*
X5718991Y-11973174D01*
X5718991Y-11973174D02*
X5728515Y-11992222D01*
X5728515Y-11992222D02*
X5728515Y-12096984D01*
X6118991Y-11887460D02*
X5947563Y-12144603D01*
X6376134Y-11896984D02*
X6395182Y-11896984D01*
X6395182Y-11896984D02*
X6414229Y-11906508D01*
X6414229Y-11906508D02*
X6423753Y-11916031D01*
X6423753Y-11916031D02*
X6433277Y-11935079D01*
X6433277Y-11935079D02*
X6442801Y-11973174D01*
X6442801Y-11973174D02*
X6442801Y-12020793D01*
X6442801Y-12020793D02*
X6433277Y-12058888D01*
X6433277Y-12058888D02*
X6423753Y-12077936D01*
X6423753Y-12077936D02*
X6414229Y-12087460D01*
X6414229Y-12087460D02*
X6395182Y-12096984D01*
X6395182Y-12096984D02*
X6376134Y-12096984D01*
X6376134Y-12096984D02*
X6357086Y-12087460D01*
X6357086Y-12087460D02*
X6347563Y-12077936D01*
X6347563Y-12077936D02*
X6338039Y-12058888D01*
X6338039Y-12058888D02*
X6328515Y-12020793D01*
X6328515Y-12020793D02*
X6328515Y-11973174D01*
X6328515Y-11973174D02*
X6338039Y-11935079D01*
X6338039Y-11935079D02*
X6347563Y-11916031D01*
X6347563Y-11916031D02*
X6357086Y-11906508D01*
X6357086Y-11906508D02*
X6376134Y-11896984D01*
X6528515Y-12077936D02*
X6538039Y-12087460D01*
X6538039Y-12087460D02*
X6528515Y-12096984D01*
X6528515Y-12096984D02*
X6518991Y-12087460D01*
X6518991Y-12087460D02*
X6528515Y-12077936D01*
X6528515Y-12077936D02*
X6528515Y-12096984D01*
X6661848Y-11896984D02*
X6680896Y-11896984D01*
X6680896Y-11896984D02*
X6699944Y-11906508D01*
X6699944Y-11906508D02*
X6709467Y-11916031D01*
X6709467Y-11916031D02*
X6718991Y-11935079D01*
X6718991Y-11935079D02*
X6728515Y-11973174D01*
X6728515Y-11973174D02*
X6728515Y-12020793D01*
X6728515Y-12020793D02*
X6718991Y-12058888D01*
X6718991Y-12058888D02*
X6709467Y-12077936D01*
X6709467Y-12077936D02*
X6699944Y-12087460D01*
X6699944Y-12087460D02*
X6680896Y-12096984D01*
X6680896Y-12096984D02*
X6661848Y-12096984D01*
X6661848Y-12096984D02*
X6642801Y-12087460D01*
X6642801Y-12087460D02*
X6633277Y-12077936D01*
X6633277Y-12077936D02*
X6623753Y-12058888D01*
X6623753Y-12058888D02*
X6614229Y-12020793D01*
X6614229Y-12020793D02*
X6614229Y-11973174D01*
X6614229Y-11973174D02*
X6623753Y-11935079D01*
X6623753Y-11935079D02*
X6633277Y-11916031D01*
X6633277Y-11916031D02*
X6642801Y-11906508D01*
X6642801Y-11906508D02*
X6661848Y-11896984D01*
X6899944Y-11896984D02*
X6861848Y-11896984D01*
X6861848Y-11896984D02*
X6842801Y-11906508D01*
X6842801Y-11906508D02*
X6833277Y-11916031D01*
X6833277Y-11916031D02*
X6814229Y-11944603D01*
X6814229Y-11944603D02*
X6804706Y-11982698D01*
X6804706Y-11982698D02*
X6804706Y-12058888D01*
X6804706Y-12058888D02*
X6814229Y-12077936D01*
X6814229Y-12077936D02*
X6823753Y-12087460D01*
X6823753Y-12087460D02*
X6842801Y-12096984D01*
X6842801Y-12096984D02*
X6880896Y-12096984D01*
X6880896Y-12096984D02*
X6899944Y-12087460D01*
X6899944Y-12087460D02*
X6909467Y-12077936D01*
X6909467Y-12077936D02*
X6918991Y-12058888D01*
X6918991Y-12058888D02*
X6918991Y-12011269D01*
X6918991Y-12011269D02*
X6909467Y-11992222D01*
X6909467Y-11992222D02*
X6899944Y-11982698D01*
X6899944Y-11982698D02*
X6880896Y-11973174D01*
X6880896Y-11973174D02*
X6842801Y-11973174D01*
X6842801Y-11973174D02*
X6823753Y-11982698D01*
X6823753Y-11982698D02*
X6814229Y-11992222D01*
X6814229Y-11992222D02*
X6804706Y-12011269D01*
X7090420Y-11896984D02*
X7052325Y-11896984D01*
X7052325Y-11896984D02*
X7033277Y-11906508D01*
X7033277Y-11906508D02*
X7023753Y-11916031D01*
X7023753Y-11916031D02*
X7004706Y-11944603D01*
X7004706Y-11944603D02*
X6995182Y-11982698D01*
X6995182Y-11982698D02*
X6995182Y-12058888D01*
X6995182Y-12058888D02*
X7004706Y-12077936D01*
X7004706Y-12077936D02*
X7014229Y-12087460D01*
X7014229Y-12087460D02*
X7033277Y-12096984D01*
X7033277Y-12096984D02*
X7071372Y-12096984D01*
X7071372Y-12096984D02*
X7090420Y-12087460D01*
X7090420Y-12087460D02*
X7099944Y-12077936D01*
X7099944Y-12077936D02*
X7109467Y-12058888D01*
X7109467Y-12058888D02*
X7109467Y-12011269D01*
X7109467Y-12011269D02*
X7099944Y-11992222D01*
X7099944Y-11992222D02*
X7090420Y-11982698D01*
X7090420Y-11982698D02*
X7071372Y-11973174D01*
X7071372Y-11973174D02*
X7033277Y-11973174D01*
X7033277Y-11973174D02*
X7014229Y-11982698D01*
X7014229Y-11982698D02*
X7004706Y-11992222D01*
X7004706Y-11992222D02*
X6995182Y-12011269D01*
X7204706Y-12096984D02*
X7242801Y-12096984D01*
X7242801Y-12096984D02*
X7261848Y-12087460D01*
X7261848Y-12087460D02*
X7271372Y-12077936D01*
X7271372Y-12077936D02*
X7290420Y-12049365D01*
X7290420Y-12049365D02*
X7299944Y-12011269D01*
X7299944Y-12011269D02*
X7299944Y-11935079D01*
X7299944Y-11935079D02*
X7290420Y-11916031D01*
X7290420Y-11916031D02*
X7280896Y-11906508D01*
X7280896Y-11906508D02*
X7261848Y-11896984D01*
X7261848Y-11896984D02*
X7223753Y-11896984D01*
X7223753Y-11896984D02*
X7204706Y-11906508D01*
X7204706Y-11906508D02*
X7195182Y-11916031D01*
X7195182Y-11916031D02*
X7185658Y-11935079D01*
X7185658Y-11935079D02*
X7185658Y-11982698D01*
X7185658Y-11982698D02*
X7195182Y-12001746D01*
X7195182Y-12001746D02*
X7204706Y-12011269D01*
X7204706Y-12011269D02*
X7223753Y-12020793D01*
X7223753Y-12020793D02*
X7261848Y-12020793D01*
X7261848Y-12020793D02*
X7280896Y-12011269D01*
X7280896Y-12011269D02*
X7290420Y-12001746D01*
X7290420Y-12001746D02*
X7299944Y-11982698D01*
X7376134Y-11896984D02*
X7376134Y-11935079D01*
X7452325Y-11896984D02*
X7452325Y-11935079D01*
X7747563Y-12173174D02*
X7738039Y-12163650D01*
X7738039Y-12163650D02*
X7718991Y-12135079D01*
X7718991Y-12135079D02*
X7709468Y-12116031D01*
X7709468Y-12116031D02*
X7699944Y-12087460D01*
X7699944Y-12087460D02*
X7690420Y-12039841D01*
X7690420Y-12039841D02*
X7690420Y-12001746D01*
X7690420Y-12001746D02*
X7699944Y-11954127D01*
X7699944Y-11954127D02*
X7709468Y-11925555D01*
X7709468Y-11925555D02*
X7718991Y-11906508D01*
X7718991Y-11906508D02*
X7738039Y-11877936D01*
X7738039Y-11877936D02*
X7747563Y-11868412D01*
X7833277Y-12096984D02*
X7871372Y-12096984D01*
X7871372Y-12096984D02*
X7890420Y-12087460D01*
X7890420Y-12087460D02*
X7899944Y-12077936D01*
X7899944Y-12077936D02*
X7918991Y-12049365D01*
X7918991Y-12049365D02*
X7928515Y-12011269D01*
X7928515Y-12011269D02*
X7928515Y-11935079D01*
X7928515Y-11935079D02*
X7918991Y-11916031D01*
X7918991Y-11916031D02*
X7909468Y-11906508D01*
X7909468Y-11906508D02*
X7890420Y-11896984D01*
X7890420Y-11896984D02*
X7852325Y-11896984D01*
X7852325Y-11896984D02*
X7833277Y-11906508D01*
X7833277Y-11906508D02*
X7823753Y-11916031D01*
X7823753Y-11916031D02*
X7814229Y-11935079D01*
X7814229Y-11935079D02*
X7814229Y-11982698D01*
X7814229Y-11982698D02*
X7823753Y-12001746D01*
X7823753Y-12001746D02*
X7833277Y-12011269D01*
X7833277Y-12011269D02*
X7852325Y-12020793D01*
X7852325Y-12020793D02*
X7890420Y-12020793D01*
X7890420Y-12020793D02*
X7909468Y-12011269D01*
X7909468Y-12011269D02*
X7918991Y-12001746D01*
X7918991Y-12001746D02*
X7928515Y-11982698D01*
X8166610Y-12096984D02*
X8166610Y-11896984D01*
X8252325Y-12096984D02*
X8252325Y-11992222D01*
X8252325Y-11992222D02*
X8242801Y-11973174D01*
X8242801Y-11973174D02*
X8223753Y-11963650D01*
X8223753Y-11963650D02*
X8195182Y-11963650D01*
X8195182Y-11963650D02*
X8176134Y-11973174D01*
X8176134Y-11973174D02*
X8166610Y-11982698D01*
X8376134Y-12096984D02*
X8357087Y-12087460D01*
X8357087Y-12087460D02*
X8347563Y-12077936D01*
X8347563Y-12077936D02*
X8338039Y-12058888D01*
X8338039Y-12058888D02*
X8338039Y-12001746D01*
X8338039Y-12001746D02*
X8347563Y-11982698D01*
X8347563Y-11982698D02*
X8357087Y-11973174D01*
X8357087Y-11973174D02*
X8376134Y-11963650D01*
X8376134Y-11963650D02*
X8404706Y-11963650D01*
X8404706Y-11963650D02*
X8423753Y-11973174D01*
X8423753Y-11973174D02*
X8433277Y-11982698D01*
X8433277Y-11982698D02*
X8442801Y-12001746D01*
X8442801Y-12001746D02*
X8442801Y-12058888D01*
X8442801Y-12058888D02*
X8433277Y-12077936D01*
X8433277Y-12077936D02*
X8423753Y-12087460D01*
X8423753Y-12087460D02*
X8404706Y-12096984D01*
X8404706Y-12096984D02*
X8376134Y-12096984D01*
X8557087Y-12096984D02*
X8538039Y-12087460D01*
X8538039Y-12087460D02*
X8528515Y-12068412D01*
X8528515Y-12068412D02*
X8528515Y-11896984D01*
X8709468Y-12087460D02*
X8690420Y-12096984D01*
X8690420Y-12096984D02*
X8652325Y-12096984D01*
X8652325Y-12096984D02*
X8633277Y-12087460D01*
X8633277Y-12087460D02*
X8623753Y-12068412D01*
X8623753Y-12068412D02*
X8623753Y-11992222D01*
X8623753Y-11992222D02*
X8633277Y-11973174D01*
X8633277Y-11973174D02*
X8652325Y-11963650D01*
X8652325Y-11963650D02*
X8690420Y-11963650D01*
X8690420Y-11963650D02*
X8709468Y-11973174D01*
X8709468Y-11973174D02*
X8718992Y-11992222D01*
X8718992Y-11992222D02*
X8718992Y-12011269D01*
X8718992Y-12011269D02*
X8623753Y-12030317D01*
X8795182Y-12087460D02*
X8814230Y-12096984D01*
X8814230Y-12096984D02*
X8852325Y-12096984D01*
X8852325Y-12096984D02*
X8871373Y-12087460D01*
X8871373Y-12087460D02*
X8880896Y-12068412D01*
X8880896Y-12068412D02*
X8880896Y-12058888D01*
X8880896Y-12058888D02*
X8871373Y-12039841D01*
X8871373Y-12039841D02*
X8852325Y-12030317D01*
X8852325Y-12030317D02*
X8823753Y-12030317D01*
X8823753Y-12030317D02*
X8804706Y-12020793D01*
X8804706Y-12020793D02*
X8795182Y-12001746D01*
X8795182Y-12001746D02*
X8795182Y-11992222D01*
X8795182Y-11992222D02*
X8804706Y-11973174D01*
X8804706Y-11973174D02*
X8823753Y-11963650D01*
X8823753Y-11963650D02*
X8852325Y-11963650D01*
X8852325Y-11963650D02*
X8871373Y-11973174D01*
X8947563Y-12173174D02*
X8957087Y-12163650D01*
X8957087Y-12163650D02*
X8976134Y-12135079D01*
X8976134Y-12135079D02*
X8985658Y-12116031D01*
X8985658Y-12116031D02*
X8995182Y-12087460D01*
X8995182Y-12087460D02*
X9004706Y-12039841D01*
X9004706Y-12039841D02*
X9004706Y-12001746D01*
X9004706Y-12001746D02*
X8995182Y-11954127D01*
X8995182Y-11954127D02*
X8985658Y-11925555D01*
X8985658Y-11925555D02*
X8976134Y-11906508D01*
X8976134Y-11906508D02*
X8957087Y-11877936D01*
X8957087Y-11877936D02*
X8947563Y-11868412D01*
D18*
X3996500Y-12207500D02*
X4172500Y-12383500D01*
X4172500Y-12207500D02*
X3996500Y-12383500D01*
X4084500Y-12383500D02*
X4172500Y-12295500D01*
X4084500Y-12207500D01*
X3996500Y-12295500D01*
X4084500Y-12383500D01*
D11*
X4538039Y-12386984D02*
X4423753Y-12386984D01*
X4480896Y-12386984D02*
X4480896Y-12186984D01*
X4480896Y-12186984D02*
X4461848Y-12215555D01*
X4461848Y-12215555D02*
X4442801Y-12234603D01*
X4442801Y-12234603D02*
X4423753Y-12244127D01*
X4623753Y-12367936D02*
X4633277Y-12377460D01*
X4633277Y-12377460D02*
X4623753Y-12386984D01*
X4623753Y-12386984D02*
X4614229Y-12377460D01*
X4614229Y-12377460D02*
X4623753Y-12367936D01*
X4623753Y-12367936D02*
X4623753Y-12386984D01*
X4699944Y-12186984D02*
X4833277Y-12186984D01*
X4833277Y-12186984D02*
X4747563Y-12386984D01*
X4995182Y-12186984D02*
X4957086Y-12186984D01*
X4957086Y-12186984D02*
X4938039Y-12196508D01*
X4938039Y-12196508D02*
X4928515Y-12206031D01*
X4928515Y-12206031D02*
X4909467Y-12234603D01*
X4909467Y-12234603D02*
X4899944Y-12272698D01*
X4899944Y-12272698D02*
X4899944Y-12348888D01*
X4899944Y-12348888D02*
X4909467Y-12367936D01*
X4909467Y-12367936D02*
X4918991Y-12377460D01*
X4918991Y-12377460D02*
X4938039Y-12386984D01*
X4938039Y-12386984D02*
X4976134Y-12386984D01*
X4976134Y-12386984D02*
X4995182Y-12377460D01*
X4995182Y-12377460D02*
X5004705Y-12367936D01*
X5004705Y-12367936D02*
X5014229Y-12348888D01*
X5014229Y-12348888D02*
X5014229Y-12301269D01*
X5014229Y-12301269D02*
X5004705Y-12282222D01*
X5004705Y-12282222D02*
X4995182Y-12272698D01*
X4995182Y-12272698D02*
X4976134Y-12263174D01*
X4976134Y-12263174D02*
X4938039Y-12263174D01*
X4938039Y-12263174D02*
X4918991Y-12272698D01*
X4918991Y-12272698D02*
X4909467Y-12282222D01*
X4909467Y-12282222D02*
X4899944Y-12301269D01*
X5138039Y-12186984D02*
X5157086Y-12186984D01*
X5157086Y-12186984D02*
X5176134Y-12196508D01*
X5176134Y-12196508D02*
X5185658Y-12206031D01*
X5185658Y-12206031D02*
X5195182Y-12225079D01*
X5195182Y-12225079D02*
X5204705Y-12263174D01*
X5204705Y-12263174D02*
X5204705Y-12310793D01*
X5204705Y-12310793D02*
X5195182Y-12348888D01*
X5195182Y-12348888D02*
X5185658Y-12367936D01*
X5185658Y-12367936D02*
X5176134Y-12377460D01*
X5176134Y-12377460D02*
X5157086Y-12386984D01*
X5157086Y-12386984D02*
X5138039Y-12386984D01*
X5138039Y-12386984D02*
X5118991Y-12377460D01*
X5118991Y-12377460D02*
X5109467Y-12367936D01*
X5109467Y-12367936D02*
X5099944Y-12348888D01*
X5099944Y-12348888D02*
X5090420Y-12310793D01*
X5090420Y-12310793D02*
X5090420Y-12263174D01*
X5090420Y-12263174D02*
X5099944Y-12225079D01*
X5099944Y-12225079D02*
X5109467Y-12206031D01*
X5109467Y-12206031D02*
X5118991Y-12196508D01*
X5118991Y-12196508D02*
X5138039Y-12186984D01*
X5290420Y-12386984D02*
X5290420Y-12253650D01*
X5290420Y-12272698D02*
X5299944Y-12263174D01*
X5299944Y-12263174D02*
X5318991Y-12253650D01*
X5318991Y-12253650D02*
X5347563Y-12253650D01*
X5347563Y-12253650D02*
X5366610Y-12263174D01*
X5366610Y-12263174D02*
X5376134Y-12282222D01*
X5376134Y-12282222D02*
X5376134Y-12386984D01*
X5376134Y-12282222D02*
X5385658Y-12263174D01*
X5385658Y-12263174D02*
X5404705Y-12253650D01*
X5404705Y-12253650D02*
X5433277Y-12253650D01*
X5433277Y-12253650D02*
X5452325Y-12263174D01*
X5452325Y-12263174D02*
X5461848Y-12282222D01*
X5461848Y-12282222D02*
X5461848Y-12386984D01*
X5557086Y-12386984D02*
X5557086Y-12253650D01*
X5557086Y-12272698D02*
X5566610Y-12263174D01*
X5566610Y-12263174D02*
X5585658Y-12253650D01*
X5585658Y-12253650D02*
X5614229Y-12253650D01*
X5614229Y-12253650D02*
X5633277Y-12263174D01*
X5633277Y-12263174D02*
X5642801Y-12282222D01*
X5642801Y-12282222D02*
X5642801Y-12386984D01*
X5642801Y-12282222D02*
X5652324Y-12263174D01*
X5652324Y-12263174D02*
X5671372Y-12253650D01*
X5671372Y-12253650D02*
X5699943Y-12253650D01*
X5699943Y-12253650D02*
X5718991Y-12263174D01*
X5718991Y-12263174D02*
X5728515Y-12282222D01*
X5728515Y-12282222D02*
X5728515Y-12386984D01*
X6118991Y-12177460D02*
X5947563Y-12434603D01*
X6376134Y-12186984D02*
X6395182Y-12186984D01*
X6395182Y-12186984D02*
X6414229Y-12196508D01*
X6414229Y-12196508D02*
X6423753Y-12206031D01*
X6423753Y-12206031D02*
X6433277Y-12225079D01*
X6433277Y-12225079D02*
X6442801Y-12263174D01*
X6442801Y-12263174D02*
X6442801Y-12310793D01*
X6442801Y-12310793D02*
X6433277Y-12348888D01*
X6433277Y-12348888D02*
X6423753Y-12367936D01*
X6423753Y-12367936D02*
X6414229Y-12377460D01*
X6414229Y-12377460D02*
X6395182Y-12386984D01*
X6395182Y-12386984D02*
X6376134Y-12386984D01*
X6376134Y-12386984D02*
X6357086Y-12377460D01*
X6357086Y-12377460D02*
X6347563Y-12367936D01*
X6347563Y-12367936D02*
X6338039Y-12348888D01*
X6338039Y-12348888D02*
X6328515Y-12310793D01*
X6328515Y-12310793D02*
X6328515Y-12263174D01*
X6328515Y-12263174D02*
X6338039Y-12225079D01*
X6338039Y-12225079D02*
X6347563Y-12206031D01*
X6347563Y-12206031D02*
X6357086Y-12196508D01*
X6357086Y-12196508D02*
X6376134Y-12186984D01*
X6528515Y-12367936D02*
X6538039Y-12377460D01*
X6538039Y-12377460D02*
X6528515Y-12386984D01*
X6528515Y-12386984D02*
X6518991Y-12377460D01*
X6518991Y-12377460D02*
X6528515Y-12367936D01*
X6528515Y-12367936D02*
X6528515Y-12386984D01*
X6661848Y-12186984D02*
X6680896Y-12186984D01*
X6680896Y-12186984D02*
X6699944Y-12196508D01*
X6699944Y-12196508D02*
X6709467Y-12206031D01*
X6709467Y-12206031D02*
X6718991Y-12225079D01*
X6718991Y-12225079D02*
X6728515Y-12263174D01*
X6728515Y-12263174D02*
X6728515Y-12310793D01*
X6728515Y-12310793D02*
X6718991Y-12348888D01*
X6718991Y-12348888D02*
X6709467Y-12367936D01*
X6709467Y-12367936D02*
X6699944Y-12377460D01*
X6699944Y-12377460D02*
X6680896Y-12386984D01*
X6680896Y-12386984D02*
X6661848Y-12386984D01*
X6661848Y-12386984D02*
X6642801Y-12377460D01*
X6642801Y-12377460D02*
X6633277Y-12367936D01*
X6633277Y-12367936D02*
X6623753Y-12348888D01*
X6623753Y-12348888D02*
X6614229Y-12310793D01*
X6614229Y-12310793D02*
X6614229Y-12263174D01*
X6614229Y-12263174D02*
X6623753Y-12225079D01*
X6623753Y-12225079D02*
X6633277Y-12206031D01*
X6633277Y-12206031D02*
X6642801Y-12196508D01*
X6642801Y-12196508D02*
X6661848Y-12186984D01*
X6899944Y-12186984D02*
X6861848Y-12186984D01*
X6861848Y-12186984D02*
X6842801Y-12196508D01*
X6842801Y-12196508D02*
X6833277Y-12206031D01*
X6833277Y-12206031D02*
X6814229Y-12234603D01*
X6814229Y-12234603D02*
X6804706Y-12272698D01*
X6804706Y-12272698D02*
X6804706Y-12348888D01*
X6804706Y-12348888D02*
X6814229Y-12367936D01*
X6814229Y-12367936D02*
X6823753Y-12377460D01*
X6823753Y-12377460D02*
X6842801Y-12386984D01*
X6842801Y-12386984D02*
X6880896Y-12386984D01*
X6880896Y-12386984D02*
X6899944Y-12377460D01*
X6899944Y-12377460D02*
X6909467Y-12367936D01*
X6909467Y-12367936D02*
X6918991Y-12348888D01*
X6918991Y-12348888D02*
X6918991Y-12301269D01*
X6918991Y-12301269D02*
X6909467Y-12282222D01*
X6909467Y-12282222D02*
X6899944Y-12272698D01*
X6899944Y-12272698D02*
X6880896Y-12263174D01*
X6880896Y-12263174D02*
X6842801Y-12263174D01*
X6842801Y-12263174D02*
X6823753Y-12272698D01*
X6823753Y-12272698D02*
X6814229Y-12282222D01*
X6814229Y-12282222D02*
X6804706Y-12301269D01*
X7014229Y-12386984D02*
X7052325Y-12386984D01*
X7052325Y-12386984D02*
X7071372Y-12377460D01*
X7071372Y-12377460D02*
X7080896Y-12367936D01*
X7080896Y-12367936D02*
X7099944Y-12339365D01*
X7099944Y-12339365D02*
X7109467Y-12301269D01*
X7109467Y-12301269D02*
X7109467Y-12225079D01*
X7109467Y-12225079D02*
X7099944Y-12206031D01*
X7099944Y-12206031D02*
X7090420Y-12196508D01*
X7090420Y-12196508D02*
X7071372Y-12186984D01*
X7071372Y-12186984D02*
X7033277Y-12186984D01*
X7033277Y-12186984D02*
X7014229Y-12196508D01*
X7014229Y-12196508D02*
X7004706Y-12206031D01*
X7004706Y-12206031D02*
X6995182Y-12225079D01*
X6995182Y-12225079D02*
X6995182Y-12272698D01*
X6995182Y-12272698D02*
X7004706Y-12291746D01*
X7004706Y-12291746D02*
X7014229Y-12301269D01*
X7014229Y-12301269D02*
X7033277Y-12310793D01*
X7033277Y-12310793D02*
X7071372Y-12310793D01*
X7071372Y-12310793D02*
X7090420Y-12301269D01*
X7090420Y-12301269D02*
X7099944Y-12291746D01*
X7099944Y-12291746D02*
X7109467Y-12272698D01*
X7176134Y-12186984D02*
X7299944Y-12186984D01*
X7299944Y-12186984D02*
X7233277Y-12263174D01*
X7233277Y-12263174D02*
X7261848Y-12263174D01*
X7261848Y-12263174D02*
X7280896Y-12272698D01*
X7280896Y-12272698D02*
X7290420Y-12282222D01*
X7290420Y-12282222D02*
X7299944Y-12301269D01*
X7299944Y-12301269D02*
X7299944Y-12348888D01*
X7299944Y-12348888D02*
X7290420Y-12367936D01*
X7290420Y-12367936D02*
X7280896Y-12377460D01*
X7280896Y-12377460D02*
X7261848Y-12386984D01*
X7261848Y-12386984D02*
X7204706Y-12386984D01*
X7204706Y-12386984D02*
X7185658Y-12377460D01*
X7185658Y-12377460D02*
X7176134Y-12367936D01*
X7376134Y-12186984D02*
X7376134Y-12225079D01*
X7452325Y-12186984D02*
X7452325Y-12225079D01*
X7747563Y-12463174D02*
X7738039Y-12453650D01*
X7738039Y-12453650D02*
X7718991Y-12425079D01*
X7718991Y-12425079D02*
X7709468Y-12406031D01*
X7709468Y-12406031D02*
X7699944Y-12377460D01*
X7699944Y-12377460D02*
X7690420Y-12329841D01*
X7690420Y-12329841D02*
X7690420Y-12291746D01*
X7690420Y-12291746D02*
X7699944Y-12244127D01*
X7699944Y-12244127D02*
X7709468Y-12215555D01*
X7709468Y-12215555D02*
X7718991Y-12196508D01*
X7718991Y-12196508D02*
X7738039Y-12167936D01*
X7738039Y-12167936D02*
X7747563Y-12158412D01*
X7909468Y-12253650D02*
X7909468Y-12386984D01*
X7861848Y-12177460D02*
X7814229Y-12320317D01*
X7814229Y-12320317D02*
X7938039Y-12320317D01*
X8166610Y-12386984D02*
X8166610Y-12186984D01*
X8252325Y-12386984D02*
X8252325Y-12282222D01*
X8252325Y-12282222D02*
X8242801Y-12263174D01*
X8242801Y-12263174D02*
X8223753Y-12253650D01*
X8223753Y-12253650D02*
X8195182Y-12253650D01*
X8195182Y-12253650D02*
X8176134Y-12263174D01*
X8176134Y-12263174D02*
X8166610Y-12272698D01*
X8376134Y-12386984D02*
X8357087Y-12377460D01*
X8357087Y-12377460D02*
X8347563Y-12367936D01*
X8347563Y-12367936D02*
X8338039Y-12348888D01*
X8338039Y-12348888D02*
X8338039Y-12291746D01*
X8338039Y-12291746D02*
X8347563Y-12272698D01*
X8347563Y-12272698D02*
X8357087Y-12263174D01*
X8357087Y-12263174D02*
X8376134Y-12253650D01*
X8376134Y-12253650D02*
X8404706Y-12253650D01*
X8404706Y-12253650D02*
X8423753Y-12263174D01*
X8423753Y-12263174D02*
X8433277Y-12272698D01*
X8433277Y-12272698D02*
X8442801Y-12291746D01*
X8442801Y-12291746D02*
X8442801Y-12348888D01*
X8442801Y-12348888D02*
X8433277Y-12367936D01*
X8433277Y-12367936D02*
X8423753Y-12377460D01*
X8423753Y-12377460D02*
X8404706Y-12386984D01*
X8404706Y-12386984D02*
X8376134Y-12386984D01*
X8557087Y-12386984D02*
X8538039Y-12377460D01*
X8538039Y-12377460D02*
X8528515Y-12358412D01*
X8528515Y-12358412D02*
X8528515Y-12186984D01*
X8709468Y-12377460D02*
X8690420Y-12386984D01*
X8690420Y-12386984D02*
X8652325Y-12386984D01*
X8652325Y-12386984D02*
X8633277Y-12377460D01*
X8633277Y-12377460D02*
X8623753Y-12358412D01*
X8623753Y-12358412D02*
X8623753Y-12282222D01*
X8623753Y-12282222D02*
X8633277Y-12263174D01*
X8633277Y-12263174D02*
X8652325Y-12253650D01*
X8652325Y-12253650D02*
X8690420Y-12253650D01*
X8690420Y-12253650D02*
X8709468Y-12263174D01*
X8709468Y-12263174D02*
X8718992Y-12282222D01*
X8718992Y-12282222D02*
X8718992Y-12301269D01*
X8718992Y-12301269D02*
X8623753Y-12320317D01*
X8795182Y-12377460D02*
X8814230Y-12386984D01*
X8814230Y-12386984D02*
X8852325Y-12386984D01*
X8852325Y-12386984D02*
X8871373Y-12377460D01*
X8871373Y-12377460D02*
X8880896Y-12358412D01*
X8880896Y-12358412D02*
X8880896Y-12348888D01*
X8880896Y-12348888D02*
X8871373Y-12329841D01*
X8871373Y-12329841D02*
X8852325Y-12320317D01*
X8852325Y-12320317D02*
X8823753Y-12320317D01*
X8823753Y-12320317D02*
X8804706Y-12310793D01*
X8804706Y-12310793D02*
X8795182Y-12291746D01*
X8795182Y-12291746D02*
X8795182Y-12282222D01*
X8795182Y-12282222D02*
X8804706Y-12263174D01*
X8804706Y-12263174D02*
X8823753Y-12253650D01*
X8823753Y-12253650D02*
X8852325Y-12253650D01*
X8852325Y-12253650D02*
X8871373Y-12263174D01*
X8947563Y-12463174D02*
X8957087Y-12453650D01*
X8957087Y-12453650D02*
X8976134Y-12425079D01*
X8976134Y-12425079D02*
X8985658Y-12406031D01*
X8985658Y-12406031D02*
X8995182Y-12377460D01*
X8995182Y-12377460D02*
X9004706Y-12329841D01*
X9004706Y-12329841D02*
X9004706Y-12291746D01*
X9004706Y-12291746D02*
X8995182Y-12244127D01*
X8995182Y-12244127D02*
X8985658Y-12215555D01*
X8985658Y-12215555D02*
X8976134Y-12196508D01*
X8976134Y-12196508D02*
X8957087Y-12167936D01*
X8957087Y-12167936D02*
X8947563Y-12158412D01*
X4072500Y-12491500D02*
X4072500Y-12691500D01*
X3972500Y-12591500D02*
X4172500Y-12591500D01*
X4172500Y-12591500D02*
G75*
G03*
X3972500Y-12591500I-100000J0D01*
G01*
X3972500Y-12591500D02*
G75*
G03*
X4172500Y-12591500I100000J0D01*
G01*
X4423753Y-12502031D02*
X4433277Y-12492508D01*
X4433277Y-12492508D02*
X4452324Y-12482984D01*
X4452324Y-12482984D02*
X4499944Y-12482984D01*
X4499944Y-12482984D02*
X4518991Y-12492508D01*
X4518991Y-12492508D02*
X4528515Y-12502031D01*
X4528515Y-12502031D02*
X4538039Y-12521079D01*
X4538039Y-12521079D02*
X4538039Y-12540127D01*
X4538039Y-12540127D02*
X4528515Y-12568698D01*
X4528515Y-12568698D02*
X4414229Y-12682984D01*
X4414229Y-12682984D02*
X4538039Y-12682984D01*
X4623753Y-12663936D02*
X4633277Y-12673460D01*
X4633277Y-12673460D02*
X4623753Y-12682984D01*
X4623753Y-12682984D02*
X4614229Y-12673460D01*
X4614229Y-12673460D02*
X4623753Y-12663936D01*
X4623753Y-12663936D02*
X4623753Y-12682984D01*
X4699944Y-12482984D02*
X4833277Y-12482984D01*
X4833277Y-12482984D02*
X4747563Y-12682984D01*
X4947563Y-12482984D02*
X4966610Y-12482984D01*
X4966610Y-12482984D02*
X4985658Y-12492508D01*
X4985658Y-12492508D02*
X4995182Y-12502031D01*
X4995182Y-12502031D02*
X5004705Y-12521079D01*
X5004705Y-12521079D02*
X5014229Y-12559174D01*
X5014229Y-12559174D02*
X5014229Y-12606793D01*
X5014229Y-12606793D02*
X5004705Y-12644888D01*
X5004705Y-12644888D02*
X4995182Y-12663936D01*
X4995182Y-12663936D02*
X4985658Y-12673460D01*
X4985658Y-12673460D02*
X4966610Y-12682984D01*
X4966610Y-12682984D02*
X4947563Y-12682984D01*
X4947563Y-12682984D02*
X4928515Y-12673460D01*
X4928515Y-12673460D02*
X4918991Y-12663936D01*
X4918991Y-12663936D02*
X4909467Y-12644888D01*
X4909467Y-12644888D02*
X4899944Y-12606793D01*
X4899944Y-12606793D02*
X4899944Y-12559174D01*
X4899944Y-12559174D02*
X4909467Y-12521079D01*
X4909467Y-12521079D02*
X4918991Y-12502031D01*
X4918991Y-12502031D02*
X4928515Y-12492508D01*
X4928515Y-12492508D02*
X4947563Y-12482984D01*
X5138039Y-12482984D02*
X5157086Y-12482984D01*
X5157086Y-12482984D02*
X5176134Y-12492508D01*
X5176134Y-12492508D02*
X5185658Y-12502031D01*
X5185658Y-12502031D02*
X5195182Y-12521079D01*
X5195182Y-12521079D02*
X5204705Y-12559174D01*
X5204705Y-12559174D02*
X5204705Y-12606793D01*
X5204705Y-12606793D02*
X5195182Y-12644888D01*
X5195182Y-12644888D02*
X5185658Y-12663936D01*
X5185658Y-12663936D02*
X5176134Y-12673460D01*
X5176134Y-12673460D02*
X5157086Y-12682984D01*
X5157086Y-12682984D02*
X5138039Y-12682984D01*
X5138039Y-12682984D02*
X5118991Y-12673460D01*
X5118991Y-12673460D02*
X5109467Y-12663936D01*
X5109467Y-12663936D02*
X5099944Y-12644888D01*
X5099944Y-12644888D02*
X5090420Y-12606793D01*
X5090420Y-12606793D02*
X5090420Y-12559174D01*
X5090420Y-12559174D02*
X5099944Y-12521079D01*
X5099944Y-12521079D02*
X5109467Y-12502031D01*
X5109467Y-12502031D02*
X5118991Y-12492508D01*
X5118991Y-12492508D02*
X5138039Y-12482984D01*
X5290420Y-12682984D02*
X5290420Y-12549650D01*
X5290420Y-12568698D02*
X5299944Y-12559174D01*
X5299944Y-12559174D02*
X5318991Y-12549650D01*
X5318991Y-12549650D02*
X5347563Y-12549650D01*
X5347563Y-12549650D02*
X5366610Y-12559174D01*
X5366610Y-12559174D02*
X5376134Y-12578222D01*
X5376134Y-12578222D02*
X5376134Y-12682984D01*
X5376134Y-12578222D02*
X5385658Y-12559174D01*
X5385658Y-12559174D02*
X5404705Y-12549650D01*
X5404705Y-12549650D02*
X5433277Y-12549650D01*
X5433277Y-12549650D02*
X5452325Y-12559174D01*
X5452325Y-12559174D02*
X5461848Y-12578222D01*
X5461848Y-12578222D02*
X5461848Y-12682984D01*
X5557086Y-12682984D02*
X5557086Y-12549650D01*
X5557086Y-12568698D02*
X5566610Y-12559174D01*
X5566610Y-12559174D02*
X5585658Y-12549650D01*
X5585658Y-12549650D02*
X5614229Y-12549650D01*
X5614229Y-12549650D02*
X5633277Y-12559174D01*
X5633277Y-12559174D02*
X5642801Y-12578222D01*
X5642801Y-12578222D02*
X5642801Y-12682984D01*
X5642801Y-12578222D02*
X5652324Y-12559174D01*
X5652324Y-12559174D02*
X5671372Y-12549650D01*
X5671372Y-12549650D02*
X5699943Y-12549650D01*
X5699943Y-12549650D02*
X5718991Y-12559174D01*
X5718991Y-12559174D02*
X5728515Y-12578222D01*
X5728515Y-12578222D02*
X5728515Y-12682984D01*
X6118991Y-12473460D02*
X5947563Y-12730603D01*
X6376134Y-12482984D02*
X6395182Y-12482984D01*
X6395182Y-12482984D02*
X6414229Y-12492508D01*
X6414229Y-12492508D02*
X6423753Y-12502031D01*
X6423753Y-12502031D02*
X6433277Y-12521079D01*
X6433277Y-12521079D02*
X6442801Y-12559174D01*
X6442801Y-12559174D02*
X6442801Y-12606793D01*
X6442801Y-12606793D02*
X6433277Y-12644888D01*
X6433277Y-12644888D02*
X6423753Y-12663936D01*
X6423753Y-12663936D02*
X6414229Y-12673460D01*
X6414229Y-12673460D02*
X6395182Y-12682984D01*
X6395182Y-12682984D02*
X6376134Y-12682984D01*
X6376134Y-12682984D02*
X6357086Y-12673460D01*
X6357086Y-12673460D02*
X6347563Y-12663936D01*
X6347563Y-12663936D02*
X6338039Y-12644888D01*
X6338039Y-12644888D02*
X6328515Y-12606793D01*
X6328515Y-12606793D02*
X6328515Y-12559174D01*
X6328515Y-12559174D02*
X6338039Y-12521079D01*
X6338039Y-12521079D02*
X6347563Y-12502031D01*
X6347563Y-12502031D02*
X6357086Y-12492508D01*
X6357086Y-12492508D02*
X6376134Y-12482984D01*
X6528515Y-12663936D02*
X6538039Y-12673460D01*
X6538039Y-12673460D02*
X6528515Y-12682984D01*
X6528515Y-12682984D02*
X6518991Y-12673460D01*
X6518991Y-12673460D02*
X6528515Y-12663936D01*
X6528515Y-12663936D02*
X6528515Y-12682984D01*
X6728515Y-12682984D02*
X6614229Y-12682984D01*
X6671372Y-12682984D02*
X6671372Y-12482984D01*
X6671372Y-12482984D02*
X6652325Y-12511555D01*
X6652325Y-12511555D02*
X6633277Y-12530603D01*
X6633277Y-12530603D02*
X6614229Y-12540127D01*
X6852325Y-12482984D02*
X6871372Y-12482984D01*
X6871372Y-12482984D02*
X6890420Y-12492508D01*
X6890420Y-12492508D02*
X6899944Y-12502031D01*
X6899944Y-12502031D02*
X6909467Y-12521079D01*
X6909467Y-12521079D02*
X6918991Y-12559174D01*
X6918991Y-12559174D02*
X6918991Y-12606793D01*
X6918991Y-12606793D02*
X6909467Y-12644888D01*
X6909467Y-12644888D02*
X6899944Y-12663936D01*
X6899944Y-12663936D02*
X6890420Y-12673460D01*
X6890420Y-12673460D02*
X6871372Y-12682984D01*
X6871372Y-12682984D02*
X6852325Y-12682984D01*
X6852325Y-12682984D02*
X6833277Y-12673460D01*
X6833277Y-12673460D02*
X6823753Y-12663936D01*
X6823753Y-12663936D02*
X6814229Y-12644888D01*
X6814229Y-12644888D02*
X6804706Y-12606793D01*
X6804706Y-12606793D02*
X6804706Y-12559174D01*
X6804706Y-12559174D02*
X6814229Y-12521079D01*
X6814229Y-12521079D02*
X6823753Y-12502031D01*
X6823753Y-12502031D02*
X6833277Y-12492508D01*
X6833277Y-12492508D02*
X6852325Y-12482984D01*
X7090420Y-12482984D02*
X7052325Y-12482984D01*
X7052325Y-12482984D02*
X7033277Y-12492508D01*
X7033277Y-12492508D02*
X7023753Y-12502031D01*
X7023753Y-12502031D02*
X7004706Y-12530603D01*
X7004706Y-12530603D02*
X6995182Y-12568698D01*
X6995182Y-12568698D02*
X6995182Y-12644888D01*
X6995182Y-12644888D02*
X7004706Y-12663936D01*
X7004706Y-12663936D02*
X7014229Y-12673460D01*
X7014229Y-12673460D02*
X7033277Y-12682984D01*
X7033277Y-12682984D02*
X7071372Y-12682984D01*
X7071372Y-12682984D02*
X7090420Y-12673460D01*
X7090420Y-12673460D02*
X7099944Y-12663936D01*
X7099944Y-12663936D02*
X7109467Y-12644888D01*
X7109467Y-12644888D02*
X7109467Y-12597269D01*
X7109467Y-12597269D02*
X7099944Y-12578222D01*
X7099944Y-12578222D02*
X7090420Y-12568698D01*
X7090420Y-12568698D02*
X7071372Y-12559174D01*
X7071372Y-12559174D02*
X7033277Y-12559174D01*
X7033277Y-12559174D02*
X7014229Y-12568698D01*
X7014229Y-12568698D02*
X7004706Y-12578222D01*
X7004706Y-12578222D02*
X6995182Y-12597269D01*
X7176134Y-12482984D02*
X7299944Y-12482984D01*
X7299944Y-12482984D02*
X7233277Y-12559174D01*
X7233277Y-12559174D02*
X7261848Y-12559174D01*
X7261848Y-12559174D02*
X7280896Y-12568698D01*
X7280896Y-12568698D02*
X7290420Y-12578222D01*
X7290420Y-12578222D02*
X7299944Y-12597269D01*
X7299944Y-12597269D02*
X7299944Y-12644888D01*
X7299944Y-12644888D02*
X7290420Y-12663936D01*
X7290420Y-12663936D02*
X7280896Y-12673460D01*
X7280896Y-12673460D02*
X7261848Y-12682984D01*
X7261848Y-12682984D02*
X7204706Y-12682984D01*
X7204706Y-12682984D02*
X7185658Y-12673460D01*
X7185658Y-12673460D02*
X7176134Y-12663936D01*
X7376134Y-12482984D02*
X7376134Y-12521079D01*
X7452325Y-12482984D02*
X7452325Y-12521079D01*
X7747563Y-12759174D02*
X7738039Y-12749650D01*
X7738039Y-12749650D02*
X7718991Y-12721079D01*
X7718991Y-12721079D02*
X7709468Y-12702031D01*
X7709468Y-12702031D02*
X7699944Y-12673460D01*
X7699944Y-12673460D02*
X7690420Y-12625841D01*
X7690420Y-12625841D02*
X7690420Y-12587746D01*
X7690420Y-12587746D02*
X7699944Y-12540127D01*
X7699944Y-12540127D02*
X7709468Y-12511555D01*
X7709468Y-12511555D02*
X7718991Y-12492508D01*
X7718991Y-12492508D02*
X7738039Y-12463936D01*
X7738039Y-12463936D02*
X7747563Y-12454412D01*
X7814229Y-12502031D02*
X7823753Y-12492508D01*
X7823753Y-12492508D02*
X7842801Y-12482984D01*
X7842801Y-12482984D02*
X7890420Y-12482984D01*
X7890420Y-12482984D02*
X7909468Y-12492508D01*
X7909468Y-12492508D02*
X7918991Y-12502031D01*
X7918991Y-12502031D02*
X7928515Y-12521079D01*
X7928515Y-12521079D02*
X7928515Y-12540127D01*
X7928515Y-12540127D02*
X7918991Y-12568698D01*
X7918991Y-12568698D02*
X7804706Y-12682984D01*
X7804706Y-12682984D02*
X7928515Y-12682984D01*
X8166610Y-12682984D02*
X8166610Y-12482984D01*
X8252325Y-12682984D02*
X8252325Y-12578222D01*
X8252325Y-12578222D02*
X8242801Y-12559174D01*
X8242801Y-12559174D02*
X8223753Y-12549650D01*
X8223753Y-12549650D02*
X8195182Y-12549650D01*
X8195182Y-12549650D02*
X8176134Y-12559174D01*
X8176134Y-12559174D02*
X8166610Y-12568698D01*
X8376134Y-12682984D02*
X8357087Y-12673460D01*
X8357087Y-12673460D02*
X8347563Y-12663936D01*
X8347563Y-12663936D02*
X8338039Y-12644888D01*
X8338039Y-12644888D02*
X8338039Y-12587746D01*
X8338039Y-12587746D02*
X8347563Y-12568698D01*
X8347563Y-12568698D02*
X8357087Y-12559174D01*
X8357087Y-12559174D02*
X8376134Y-12549650D01*
X8376134Y-12549650D02*
X8404706Y-12549650D01*
X8404706Y-12549650D02*
X8423753Y-12559174D01*
X8423753Y-12559174D02*
X8433277Y-12568698D01*
X8433277Y-12568698D02*
X8442801Y-12587746D01*
X8442801Y-12587746D02*
X8442801Y-12644888D01*
X8442801Y-12644888D02*
X8433277Y-12663936D01*
X8433277Y-12663936D02*
X8423753Y-12673460D01*
X8423753Y-12673460D02*
X8404706Y-12682984D01*
X8404706Y-12682984D02*
X8376134Y-12682984D01*
X8557087Y-12682984D02*
X8538039Y-12673460D01*
X8538039Y-12673460D02*
X8528515Y-12654412D01*
X8528515Y-12654412D02*
X8528515Y-12482984D01*
X8709468Y-12673460D02*
X8690420Y-12682984D01*
X8690420Y-12682984D02*
X8652325Y-12682984D01*
X8652325Y-12682984D02*
X8633277Y-12673460D01*
X8633277Y-12673460D02*
X8623753Y-12654412D01*
X8623753Y-12654412D02*
X8623753Y-12578222D01*
X8623753Y-12578222D02*
X8633277Y-12559174D01*
X8633277Y-12559174D02*
X8652325Y-12549650D01*
X8652325Y-12549650D02*
X8690420Y-12549650D01*
X8690420Y-12549650D02*
X8709468Y-12559174D01*
X8709468Y-12559174D02*
X8718992Y-12578222D01*
X8718992Y-12578222D02*
X8718992Y-12597269D01*
X8718992Y-12597269D02*
X8623753Y-12616317D01*
X8795182Y-12673460D02*
X8814230Y-12682984D01*
X8814230Y-12682984D02*
X8852325Y-12682984D01*
X8852325Y-12682984D02*
X8871373Y-12673460D01*
X8871373Y-12673460D02*
X8880896Y-12654412D01*
X8880896Y-12654412D02*
X8880896Y-12644888D01*
X8880896Y-12644888D02*
X8871373Y-12625841D01*
X8871373Y-12625841D02*
X8852325Y-12616317D01*
X8852325Y-12616317D02*
X8823753Y-12616317D01*
X8823753Y-12616317D02*
X8804706Y-12606793D01*
X8804706Y-12606793D02*
X8795182Y-12587746D01*
X8795182Y-12587746D02*
X8795182Y-12578222D01*
X8795182Y-12578222D02*
X8804706Y-12559174D01*
X8804706Y-12559174D02*
X8823753Y-12549650D01*
X8823753Y-12549650D02*
X8852325Y-12549650D01*
X8852325Y-12549650D02*
X8871373Y-12559174D01*
X8947563Y-12759174D02*
X8957087Y-12749650D01*
X8957087Y-12749650D02*
X8976134Y-12721079D01*
X8976134Y-12721079D02*
X8985658Y-12702031D01*
X8985658Y-12702031D02*
X8995182Y-12673460D01*
X8995182Y-12673460D02*
X9004706Y-12625841D01*
X9004706Y-12625841D02*
X9004706Y-12587746D01*
X9004706Y-12587746D02*
X8995182Y-12540127D01*
X8995182Y-12540127D02*
X8985658Y-12511555D01*
X8985658Y-12511555D02*
X8976134Y-12492508D01*
X8976134Y-12492508D02*
X8957087Y-12463936D01*
X8957087Y-12463936D02*
X8947563Y-12454412D01*
M02*
