%TF.GenerationSoftware,KiCad,Pcbnew,7.0.11-7.0.11~ubuntu22.04.1*%
%TF.CreationDate,2024-10-25T19:20:44+02:00*%
%TF.ProjectId,PowerBoard-Elec,506f7765-7242-46f6-9172-642d456c6563,rev?*%
%TF.SameCoordinates,Original*%
%TF.FileFunction,Profile,NP*%
%FSLAX46Y46*%
G04 Gerber Fmt 4.6, Leading zero omitted, Abs format (unit mm)*
G04 Created by KiCad (PCBNEW 7.0.11-7.0.11~ubuntu22.04.1) date 2024-10-25 19:20:44*
%MOMM*%
%LPD*%
G01*
G04 APERTURE LIST*
%TA.AperFunction,Profile*%
%ADD10C,0.050000*%
%TD*%
G04 APERTURE END LIST*
D10*
X23542652Y-85760000D02*
G75*
G03*
X20542652Y-85760000I-1500000J0D01*
G01*
X20542652Y-85760000D02*
G75*
G03*
X23542652Y-85760000I1500000J0D01*
G01*
X140602652Y-85760000D02*
G75*
G03*
X137602652Y-85760000I-1500000J0D01*
G01*
X137602652Y-85760000D02*
G75*
G03*
X140602652Y-85760000I1500000J0D01*
G01*
X17452652Y-16370000D02*
X143652652Y-16370000D01*
X143652652Y-89870000D01*
X17452652Y-89870000D01*
X17452652Y-16370000D01*
X23542652Y-28630000D02*
G75*
G03*
X20542652Y-28630000I-1500000J0D01*
G01*
X20542652Y-28630000D02*
G75*
G03*
X23542652Y-28630000I1500000J0D01*
G01*
%TO.C,U3*%
X91695356Y-68422435D02*
G75*
G03*
X88130080Y-68422435I-1782638J0D01*
G01*
X88130080Y-68422435D02*
G75*
G03*
X91695356Y-68422435I1782638J0D01*
G01*
X125695356Y-86909797D02*
G75*
G03*
X122130080Y-86909797I-1782638J0D01*
G01*
X122130080Y-86909797D02*
G75*
G03*
X125695356Y-86909797I1782638J0D01*
G01*
%TO.C,U10*%
X73035224Y-86717362D02*
G75*
G03*
X69469948Y-86717362I-1782638J0D01*
G01*
X69469948Y-86717362D02*
G75*
G03*
X73035224Y-86717362I1782638J0D01*
G01*
X39035224Y-68230000D02*
G75*
G03*
X35469948Y-68230000I-1782638J0D01*
G01*
X35469948Y-68230000D02*
G75*
G03*
X39035224Y-68230000I1782638J0D01*
G01*
%TO.C,U4*%
X65858642Y-44035648D02*
G75*
G03*
X62658642Y-44035648I-1600000J0D01*
G01*
X62658642Y-44035648D02*
G75*
G03*
X65858642Y-44035648I1600000J0D01*
G01*
X35658642Y-28025648D02*
G75*
G03*
X32458642Y-28025648I-1600000J0D01*
G01*
X32458642Y-28025648D02*
G75*
G03*
X35658642Y-28025648I1600000J0D01*
G01*
%TD*%
M02*
