%TF.GenerationSoftware,KiCad,Pcbnew,7.0.11-7.0.11~ubuntu22.04.1*%
%TF.CreationDate,2024-10-18T17:24:44+02:00*%
%TF.ProjectId,PowerBoard-Elec,506f7765-7242-46f6-9172-642d456c6563,rev?*%
%TF.SameCoordinates,Original*%
%TF.FileFunction,Profile,NP*%
%FSLAX46Y46*%
G04 Gerber Fmt 4.6, Leading zero omitted, Abs format (unit mm)*
G04 Created by KiCad (PCBNEW 7.0.11-7.0.11~ubuntu22.04.1) date 2024-10-18 17:24:44*
%MOMM*%
%LPD*%
G01*
G04 APERTURE LIST*
%TA.AperFunction,Profile*%
%ADD10C,0.050000*%
%TD*%
G04 APERTURE END LIST*
D10*
X149720000Y-33850000D02*
G75*
G03*
X146720000Y-33850000I-1500000J0D01*
G01*
X146720000Y-33850000D02*
G75*
G03*
X149720000Y-33850000I1500000J0D01*
G01*
X47840000Y-90980000D02*
G75*
G03*
X44840000Y-90980000I-1500000J0D01*
G01*
X44840000Y-90980000D02*
G75*
G03*
X47840000Y-90980000I1500000J0D01*
G01*
X164900000Y-90980000D02*
G75*
G03*
X161900000Y-90980000I-1500000J0D01*
G01*
X161900000Y-90980000D02*
G75*
G03*
X164900000Y-90980000I1500000J0D01*
G01*
X41750000Y-21590000D02*
X167950000Y-21590000D01*
X167950000Y-95090000D01*
X41750000Y-95090000D01*
X41750000Y-21590000D01*
X47840000Y-33850000D02*
G75*
G03*
X44840000Y-33850000I-1500000J0D01*
G01*
X44840000Y-33850000D02*
G75*
G03*
X47840000Y-33850000I1500000J0D01*
G01*
%TO.C,U4*%
X90155990Y-49255648D02*
G75*
G03*
X86955990Y-49255648I-1600000J0D01*
G01*
X86955990Y-49255648D02*
G75*
G03*
X90155990Y-49255648I1600000J0D01*
G01*
X59955990Y-33245648D02*
G75*
G03*
X56755990Y-33245648I-1600000J0D01*
G01*
X56755990Y-33245648D02*
G75*
G03*
X59955990Y-33245648I1600000J0D01*
G01*
%TO.C,U3*%
X115992704Y-73642435D02*
G75*
G03*
X112427428Y-73642435I-1782638J0D01*
G01*
X112427428Y-73642435D02*
G75*
G03*
X115992704Y-73642435I1782638J0D01*
G01*
X149992704Y-92129797D02*
G75*
G03*
X146427428Y-92129797I-1782638J0D01*
G01*
X146427428Y-92129797D02*
G75*
G03*
X149992704Y-92129797I1782638J0D01*
G01*
%TO.C,U10*%
X97332572Y-91937362D02*
G75*
G03*
X93767296Y-91937362I-1782638J0D01*
G01*
X93767296Y-91937362D02*
G75*
G03*
X97332572Y-91937362I1782638J0D01*
G01*
X63332572Y-73450000D02*
G75*
G03*
X59767296Y-73450000I-1782638J0D01*
G01*
X59767296Y-73450000D02*
G75*
G03*
X63332572Y-73450000I1782638J0D01*
G01*
%TD*%
M02*
