%TF.GenerationSoftware,KiCad,Pcbnew,7.0.11-7.0.11~ubuntu22.04.1*%
%TF.CreationDate,2024-10-25T19:20:44+02:00*%
%TF.ProjectId,PowerBoard-Elec,506f7765-7242-46f6-9172-642d456c6563,rev?*%
%TF.SameCoordinates,Original*%
%TF.FileFunction,Soldermask,Top*%
%TF.FilePolarity,Negative*%
%FSLAX46Y46*%
G04 Gerber Fmt 4.6, Leading zero omitted, Abs format (unit mm)*
G04 Created by KiCad (PCBNEW 7.0.11-7.0.11~ubuntu22.04.1) date 2024-10-25 19:20:44*
%MOMM*%
%LPD*%
G01*
G04 APERTURE LIST*
G04 Aperture macros list*
%AMRoundRect*
0 Rectangle with rounded corners*
0 $1 Rounding radius*
0 $2 $3 $4 $5 $6 $7 $8 $9 X,Y pos of 4 corners*
0 Add a 4 corners polygon primitive as box body*
4,1,4,$2,$3,$4,$5,$6,$7,$8,$9,$2,$3,0*
0 Add four circle primitives for the rounded corners*
1,1,$1+$1,$2,$3*
1,1,$1+$1,$4,$5*
1,1,$1+$1,$6,$7*
1,1,$1+$1,$8,$9*
0 Add four rect primitives between the rounded corners*
20,1,$1+$1,$2,$3,$4,$5,0*
20,1,$1+$1,$4,$5,$6,$7,0*
20,1,$1+$1,$6,$7,$8,$9,0*
20,1,$1+$1,$8,$9,$2,$3,0*%
G04 Aperture macros list end*
%ADD10C,2.300000*%
%ADD11RoundRect,0.102000X1.500000X1.500000X-1.500000X1.500000X-1.500000X-1.500000X1.500000X-1.500000X0*%
%ADD12C,3.204000*%
%ADD13C,1.800000*%
%ADD14RoundRect,0.102000X0.750000X-0.750000X0.750000X0.750000X-0.750000X0.750000X-0.750000X-0.750000X0*%
%ADD15C,1.704000*%
%ADD16R,3.450000X3.480000*%
%ADD17R,3.430000X3.450000*%
%ADD18R,3.440000X3.440000*%
%ADD19R,3.430000X3.410000*%
%ADD20C,1.600000*%
%ADD21O,1.600000X1.600000*%
%ADD22RoundRect,0.102000X0.654000X-0.654000X0.654000X0.654000X-0.654000X0.654000X-0.654000X-0.654000X0*%
%ADD23C,1.512000*%
%ADD24C,1.549400*%
%ADD25RoundRect,0.102000X-1.275000X1.275000X-1.275000X-1.275000X1.275000X-1.275000X1.275000X1.275000X0*%
%ADD26C,2.754000*%
%ADD27RoundRect,0.102000X1.275000X-1.275000X1.275000X1.275000X-1.275000X1.275000X-1.275000X-1.275000X0*%
%ADD28RoundRect,0.102000X-1.320000X-1.320000X1.320000X-1.320000X1.320000X1.320000X-1.320000X1.320000X0*%
%ADD29C,2.844000*%
%ADD30RoundRect,0.237500X-0.287500X-0.237500X0.287500X-0.237500X0.287500X0.237500X-0.287500X0.237500X0*%
%ADD31RoundRect,0.237500X0.287500X0.237500X-0.287500X0.237500X-0.287500X-0.237500X0.287500X-0.237500X0*%
%ADD32RoundRect,0.102000X-0.654000X0.654000X-0.654000X-0.654000X0.654000X-0.654000X0.654000X0.654000X0*%
%ADD33R,3.000000X3.000000*%
%ADD34R,2.000000X0.900000*%
%ADD35RoundRect,1.025000X-1.025000X1.025000X-1.025000X-1.025000X1.025000X-1.025000X1.025000X1.025000X0*%
%ADD36C,4.100000*%
%ADD37R,1.300000X2.300000*%
%ADD38RoundRect,0.102000X0.654000X0.654000X-0.654000X0.654000X-0.654000X-0.654000X0.654000X-0.654000X0*%
%ADD39C,2.500000*%
G04 APERTURE END LIST*
D10*
%TO.C,F7*%
X84382652Y-39850000D03*
X74382652Y-39850000D03*
%TD*%
D11*
%TO.C,J6*%
X98350000Y-31642500D03*
D12*
X94390000Y-31642500D03*
X90430000Y-31642500D03*
%TD*%
D13*
%TO.C,U14*%
X78284652Y-52616465D03*
X78284652Y-50081465D03*
X78284652Y-63291465D03*
X78284652Y-60751465D03*
X59834652Y-52621465D03*
X59833652Y-50081465D03*
X59834652Y-60751465D03*
X59832652Y-63291465D03*
%TD*%
D14*
%TO.C,PS1*%
X108652652Y-62214999D03*
D15*
X108652652Y-59674999D03*
X108652652Y-57134999D03*
%TD*%
D16*
%TO.C,U3*%
X82637718Y-67329797D03*
D17*
X82617718Y-87824797D03*
D18*
X132712718Y-67319797D03*
D19*
X132707718Y-87814797D03*
%TD*%
D20*
%TO.C,R7*%
X125310000Y-27220000D03*
D21*
X117690000Y-27220000D03*
%TD*%
D10*
%TO.C,F8*%
X114140000Y-39850000D03*
X104140000Y-39850000D03*
%TD*%
D20*
%TO.C,R3*%
X121132652Y-46970000D03*
D21*
X121132652Y-39350000D03*
%TD*%
D22*
%TO.C,U16*%
X138965152Y-60645202D03*
D23*
X138965152Y-62645202D03*
%TD*%
D24*
%TO.C,U7*%
X135646920Y-18808000D03*
X135646920Y-21348000D03*
X135646920Y-23888000D03*
X135646920Y-26430000D03*
X135646920Y-28968000D03*
%TD*%
D20*
%TO.C,R5*%
X18491652Y-43550000D03*
D21*
X26111652Y-43550000D03*
%TD*%
D20*
%TO.C,R1*%
X111462652Y-49420000D03*
D21*
X103842652Y-49420000D03*
%TD*%
D20*
%TO.C,R2*%
X103842652Y-52580000D03*
D21*
X111462652Y-52580000D03*
%TD*%
D13*
%TO.C,U9*%
X82352652Y-60783805D03*
X82352652Y-63318805D03*
X82352652Y-50108805D03*
X82352652Y-52648805D03*
X100802652Y-60778805D03*
X100803652Y-63318805D03*
X100802652Y-52648805D03*
X100804652Y-50108805D03*
%TD*%
D10*
%TO.C,F2*%
X114140000Y-25140000D03*
X104140000Y-25140000D03*
%TD*%
D25*
%TO.C,U12*%
X139665152Y-75589898D03*
D26*
X139665152Y-79549898D03*
%TD*%
D27*
%TO.C,U13*%
X21491152Y-79549898D03*
D26*
X21491152Y-75589898D03*
%TD*%
D28*
%TO.C,J2*%
X118840000Y-20281000D03*
D29*
X122800000Y-20281000D03*
X126760000Y-20281000D03*
X130720000Y-20281000D03*
%TD*%
D24*
%TO.C,J5*%
X22938451Y-50790000D03*
X22938451Y-48290000D03*
%TD*%
D16*
%TO.C,U10*%
X78527586Y-87810000D03*
D17*
X78547586Y-67315000D03*
D18*
X28452586Y-87820000D03*
D19*
X28457586Y-67325000D03*
%TD*%
D30*
%TO.C,Switch2*%
X21112852Y-41060000D03*
X22862852Y-41060000D03*
%TD*%
D22*
%TO.C,U15*%
X138965152Y-52315202D03*
D23*
X138965152Y-54315202D03*
%TD*%
D22*
%TO.C,U17*%
X138965152Y-68890000D03*
D23*
X138965152Y-70890000D03*
%TD*%
D30*
%TO.C,Switch5*%
X21112852Y-61280000D03*
X22862852Y-61280000D03*
%TD*%
D31*
%TO.C,Switch1*%
X140095152Y-49140000D03*
X138345152Y-49140000D03*
%TD*%
D32*
%TO.C,U18*%
X22242852Y-58190000D03*
D23*
X22242852Y-56190000D03*
%TD*%
D33*
%TO.C,U4*%
X69167506Y-44930000D03*
X69167601Y-27130000D03*
X29167601Y-44930000D03*
X29167601Y-27130000D03*
%TD*%
D24*
%TO.C,J3*%
X22938451Y-37300155D03*
X22938451Y-34800155D03*
%TD*%
D34*
%TO.C,J1*%
X132672652Y-33100000D03*
X132672652Y-46600000D03*
D35*
X126672652Y-36250000D03*
D36*
X126672652Y-43450000D03*
D37*
X130322652Y-39850000D03*
%TD*%
D31*
%TO.C,Switch3*%
X140095152Y-57505202D03*
X138345152Y-57505202D03*
%TD*%
D38*
%TO.C,J4*%
X28932652Y-18281000D03*
D23*
X30932652Y-18281000D03*
X32932652Y-18281000D03*
X34932652Y-18281000D03*
X36932652Y-18281000D03*
%TD*%
D20*
%TO.C,R6*%
X18491652Y-63730000D03*
D21*
X26111652Y-63730000D03*
%TD*%
D33*
%TO.C,U11*%
X55522652Y-63100000D03*
X55522652Y-60560000D03*
D39*
X55522652Y-51640000D03*
X55522652Y-49100000D03*
D33*
X29522652Y-63100000D03*
X29522652Y-60560000D03*
D39*
X29522652Y-51640000D03*
X29522652Y-49100000D03*
%TD*%
D27*
%TO.C,U8*%
X21491152Y-22599500D03*
D26*
X21491152Y-18639500D03*
%TD*%
D10*
%TO.C,F1*%
X84382652Y-25140000D03*
X74382652Y-25140000D03*
%TD*%
D13*
%TO.C,U1*%
X114462652Y-60783805D03*
X114462652Y-63318805D03*
X114462652Y-50108805D03*
X114462652Y-52648805D03*
X132912652Y-60778805D03*
X132913652Y-63318805D03*
X132912652Y-52648805D03*
X132914652Y-50108805D03*
%TD*%
D31*
%TO.C,Switch7*%
X140095152Y-65775202D03*
X138345152Y-65775202D03*
%TD*%
M02*
