%TF.GenerationSoftware,KiCad,Pcbnew,7.0.11-7.0.11~ubuntu22.04.1*%
%TF.CreationDate,2024-10-18T17:24:44+02:00*%
%TF.ProjectId,PowerBoard-Elec,506f7765-7242-46f6-9172-642d456c6563,rev?*%
%TF.SameCoordinates,Original*%
%TF.FileFunction,Copper,L2,Bot*%
%TF.FilePolarity,Positive*%
%FSLAX46Y46*%
G04 Gerber Fmt 4.6, Leading zero omitted, Abs format (unit mm)*
G04 Created by KiCad (PCBNEW 7.0.11-7.0.11~ubuntu22.04.1) date 2024-10-18 17:24:44*
%MOMM*%
%LPD*%
G01*
G04 APERTURE LIST*
G04 Aperture macros list*
%AMRoundRect*
0 Rectangle with rounded corners*
0 $1 Rounding radius*
0 $2 $3 $4 $5 $6 $7 $8 $9 X,Y pos of 4 corners*
0 Add a 4 corners polygon primitive as box body*
4,1,4,$2,$3,$4,$5,$6,$7,$8,$9,$2,$3,0*
0 Add four circle primitives for the rounded corners*
1,1,$1+$1,$2,$3*
1,1,$1+$1,$4,$5*
1,1,$1+$1,$6,$7*
1,1,$1+$1,$8,$9*
0 Add four rect primitives between the rounded corners*
20,1,$1+$1,$2,$3,$4,$5,0*
20,1,$1+$1,$4,$5,$6,$7,0*
20,1,$1+$1,$6,$7,$8,$9,0*
20,1,$1+$1,$8,$9,$2,$3,0*%
G04 Aperture macros list end*
%TA.AperFunction,ComponentPad*%
%ADD10R,3.000000X3.000000*%
%TD*%
%TA.AperFunction,ComponentPad*%
%ADD11C,2.300000*%
%TD*%
%TA.AperFunction,ComponentPad*%
%ADD12C,1.800000*%
%TD*%
%TA.AperFunction,ComponentPad*%
%ADD13R,1.500000X1.500000*%
%TD*%
%TA.AperFunction,ComponentPad*%
%ADD14C,1.500000*%
%TD*%
%TA.AperFunction,ComponentPad*%
%ADD15R,3.450000X3.480000*%
%TD*%
%TA.AperFunction,ComponentPad*%
%ADD16R,3.430000X3.450000*%
%TD*%
%TA.AperFunction,ComponentPad*%
%ADD17R,3.440000X3.440000*%
%TD*%
%TA.AperFunction,ComponentPad*%
%ADD18R,3.430000X3.410000*%
%TD*%
%TA.AperFunction,ComponentPad*%
%ADD19C,1.600000*%
%TD*%
%TA.AperFunction,ComponentPad*%
%ADD20O,1.600000X1.600000*%
%TD*%
%TA.AperFunction,ComponentPad*%
%ADD21R,1.308000X1.308000*%
%TD*%
%TA.AperFunction,ComponentPad*%
%ADD22C,1.308000*%
%TD*%
%TA.AperFunction,ComponentPad*%
%ADD23C,1.549400*%
%TD*%
%TA.AperFunction,ComponentPad*%
%ADD24C,2.550000*%
%TD*%
%TA.AperFunction,ComponentPad*%
%ADD25R,2.550000X2.550000*%
%TD*%
%TA.AperFunction,ComponentPad*%
%ADD26R,2.640000X2.640000*%
%TD*%
%TA.AperFunction,ComponentPad*%
%ADD27C,2.640000*%
%TD*%
%TA.AperFunction,ComponentPad*%
%ADD28R,2.000000X0.900000*%
%TD*%
%TA.AperFunction,ComponentPad*%
%ADD29RoundRect,1.025000X-1.025000X1.025000X-1.025000X-1.025000X1.025000X-1.025000X1.025000X1.025000X0*%
%TD*%
%TA.AperFunction,ComponentPad*%
%ADD30C,4.100000*%
%TD*%
%TA.AperFunction,ComponentPad*%
%ADD31R,1.300000X2.300000*%
%TD*%
%TA.AperFunction,ComponentPad*%
%ADD32C,2.500000*%
%TD*%
%TA.AperFunction,Conductor*%
%ADD33C,1.000000*%
%TD*%
%TA.AperFunction,Conductor*%
%ADD34C,1.500000*%
%TD*%
%TA.AperFunction,Conductor*%
%ADD35C,3.500000*%
%TD*%
%TA.AperFunction,Conductor*%
%ADD36C,5.300000*%
%TD*%
%TA.AperFunction,Conductor*%
%ADD37C,4.000000*%
%TD*%
%TA.AperFunction,Conductor*%
%ADD38C,0.250000*%
%TD*%
%TA.AperFunction,Conductor*%
%ADD39C,3.000000*%
%TD*%
G04 APERTURE END LIST*
D10*
%TO.P,U4,1,IN+*%
%TO.N,Net-(U4-IN+)*%
X93464854Y-50150000D03*
%TO.P,U4,2,IN-*%
%TO.N,GND*%
X93464949Y-32350000D03*
%TO.P,U4,3,OUT+*%
%TO.N,Net-(U4-OUT+)*%
X53464949Y-50150000D03*
%TO.P,U4,4,OUT-*%
%TO.N,Net-(U4-OUT-)*%
X53464949Y-32350000D03*
%TD*%
D11*
%TO.P,F7,1*%
%TO.N,Net-(U4-IN+)*%
X108680000Y-45070000D03*
%TO.P,F7,2*%
%TO.N,V_BAU*%
X98680000Y-45070000D03*
%TD*%
D12*
%TO.P,U14,1,IN+*%
%TO.N,GND*%
X102582000Y-57836465D03*
X102582000Y-55301465D03*
%TO.P,U14,2,IN-*%
%TO.N,V_BAU*%
X102582000Y-68511465D03*
X102582000Y-65971465D03*
%TO.P,U14,3,OUT+*%
%TO.N,Net-(U14-OUT+)*%
X84132000Y-57841465D03*
X84131000Y-55301465D03*
%TO.P,U14,4,OUT-*%
%TO.N,Net-(U14-OUT-)*%
X84132000Y-65971465D03*
X84130000Y-68511465D03*
%TD*%
D13*
%TO.P,PS1,1,IN*%
%TO.N,V_LOGIQUE*%
X132950000Y-67434999D03*
D14*
%TO.P,PS1,2,COM/GND*%
%TO.N,GND*%
X132950000Y-64894999D03*
%TO.P,PS1,3,OUT*%
%TO.N,Net-(PS1-OUT)*%
X132950000Y-62354999D03*
%TD*%
D15*
%TO.P,U3,1,IN+*%
%TO.N,Net-(U3-IN+)*%
X106935066Y-72549797D03*
D16*
%TO.P,U3,2,IN-*%
%TO.N,GND*%
X106915066Y-93044797D03*
D17*
%TO.P,U3,3,OUT+*%
%TO.N,Net-(U3-OUT+)*%
X157010066Y-72539797D03*
D18*
%TO.P,U3,4,OUT-*%
%TO.N,Net-(U3-OUT-)*%
X157005066Y-93034797D03*
%TD*%
D19*
%TO.P,R7,1*%
%TO.N,Net-(J2-Pad2)*%
X126430000Y-35070000D03*
D20*
%TO.P,R7,2*%
%TO.N,V_LOGIQUE*%
X126430000Y-27450000D03*
%TD*%
D11*
%TO.P,F8,1*%
%TO.N,Net-(J1-+)*%
X140340000Y-45070000D03*
%TO.P,F8,2*%
%TO.N,V_BAT*%
X130340000Y-45070000D03*
%TD*%
D19*
%TO.P,R3,1*%
%TO.N,Net-(U1-OUT+)*%
X145430000Y-52190000D03*
D20*
%TO.P,R3,2*%
%TO.N,Net-(Switch3-A)*%
X145430000Y-44570000D03*
%TD*%
D21*
%TO.P,U16,1,1*%
%TO.N,Net-(U1-OUT-)*%
X163262500Y-65865202D03*
D22*
%TO.P,U16,2,2*%
%TO.N,Net-(U1-OUT+)*%
X163262500Y-67865202D03*
%TD*%
D23*
%TO.P,U7,1,1*%
%TO.N,GND*%
X159944268Y-24028000D03*
%TO.P,U7,2,2*%
%TO.N,S1*%
X159944268Y-26568000D03*
%TO.P,U7,3,3*%
%TO.N,S2*%
X159944268Y-29108000D03*
%TO.P,U7,4,4*%
%TO.N,S3*%
X159944268Y-31650000D03*
%TO.P,U7,5,5*%
%TO.N,S4*%
X159944268Y-34188000D03*
%TD*%
D19*
%TO.P,R5,1*%
%TO.N,Net-(U4-OUT-)*%
X42789000Y-48770000D03*
D20*
%TO.P,R5,2*%
%TO.N,Net-(Switch2-A)*%
X50409000Y-48770000D03*
%TD*%
D19*
%TO.P,R1,1*%
%TO.N,Net-(Switch1-A)*%
X135760000Y-54640000D03*
D20*
%TO.P,R1,2*%
%TO.N,Net-(PS1-OUT)*%
X128140000Y-54640000D03*
%TD*%
D19*
%TO.P,R2,1*%
%TO.N,Net-(U9-OUT+)*%
X128140000Y-57800000D03*
D20*
%TO.P,R2,2*%
%TO.N,Net-(Switch7-A)*%
X135760000Y-57800000D03*
%TD*%
D12*
%TO.P,U9,1,IN+*%
%TO.N,V_LOGIQUE*%
X106650000Y-66003805D03*
X106650000Y-68538805D03*
%TO.P,U9,2,IN-*%
%TO.N,GND*%
X106650000Y-55328805D03*
X106650000Y-57868805D03*
%TO.P,U9,3,OUT+*%
%TO.N,Net-(U9-OUT+)*%
X125100000Y-65998805D03*
X125101000Y-68538805D03*
%TO.P,U9,4,OUT-*%
%TO.N,Net-(U9-OUT-)*%
X125100000Y-57868805D03*
X125102000Y-55328805D03*
%TD*%
D11*
%TO.P,F2,1*%
%TO.N,Net-(U3-IN+)*%
X124480000Y-45070000D03*
%TO.P,F2,2*%
%TO.N,V_LOGIQUE*%
X114480000Y-45070000D03*
%TD*%
D24*
%TO.P,U12,2,2*%
%TO.N,Net-(U3-OUT-)*%
X163962500Y-84769898D03*
D25*
%TO.P,U12,1,1*%
%TO.N,Net-(U3-OUT+)*%
X163962500Y-80809898D03*
%TD*%
%TO.P,U13,1,1*%
%TO.N,Net-(U10-OUT+)*%
X45788500Y-84769898D03*
D24*
%TO.P,U13,2,2*%
%TO.N,Net-(U10-OUT-)*%
X45788500Y-80809898D03*
%TD*%
D23*
%TO.P,J5,1,1*%
%TO.N,Net-(U11-OUT+)*%
X47235799Y-56010000D03*
%TO.P,J5,2,2*%
%TO.N,Net-(U11-OUT-)*%
X47235799Y-53510000D03*
%TD*%
D15*
%TO.P,U10,1,IN+*%
%TO.N,V_BAU*%
X102824934Y-93030000D03*
D16*
%TO.P,U10,2,IN-*%
%TO.N,GND*%
X102844934Y-72535000D03*
D17*
%TO.P,U10,3,OUT+*%
%TO.N,Net-(U10-OUT+)*%
X52749934Y-93040000D03*
D18*
%TO.P,U10,4,OUT-*%
%TO.N,Net-(U10-OUT-)*%
X52754934Y-72545000D03*
%TD*%
D26*
%TO.P,J2,1,1*%
%TO.N,GND*%
X130250000Y-30350000D03*
D27*
%TO.P,J2,2,2*%
%TO.N,Net-(J2-Pad2)*%
X134210000Y-30350000D03*
%TO.P,J2,3,3*%
%TO.N,V_BAT*%
X138170000Y-30350000D03*
%TO.P,J2,4,4*%
%TO.N,V_LOGIQUE*%
X142130000Y-30350000D03*
%TD*%
D21*
%TO.P,U15,1,1*%
%TO.N,GND*%
X163262500Y-57535202D03*
D22*
%TO.P,U15,2,2*%
%TO.N,Net-(PS1-OUT)*%
X163262500Y-59535202D03*
%TD*%
D21*
%TO.P,U17,1,1*%
%TO.N,Net-(U9-OUT-)*%
X163262500Y-74110000D03*
D22*
%TO.P,U17,2,2*%
%TO.N,Net-(U9-OUT+)*%
X163262500Y-76110000D03*
%TD*%
D25*
%TO.P,U6,1,1*%
%TO.N,GND*%
X114541500Y-30438500D03*
D24*
%TO.P,U6,2,2*%
%TO.N,V_BAT*%
X118501500Y-30438500D03*
%TO.P,U6,3,3*%
%TO.N,V_BAU*%
X122461500Y-30438500D03*
%TD*%
D22*
%TO.P,U18,2,2*%
%TO.N,Net-(U14-OUT+)*%
X46540200Y-61410000D03*
D21*
%TO.P,U18,1,1*%
%TO.N,Net-(U14-OUT-)*%
X46540200Y-63410000D03*
%TD*%
D23*
%TO.P,J3,1,1*%
%TO.N,Net-(U4-OUT+)*%
X47235799Y-42520155D03*
%TO.P,J3,2,2*%
%TO.N,Net-(U4-OUT-)*%
X47235799Y-40020155D03*
%TD*%
D28*
%TO.P,J1,*%
%TO.N,*%
X156970000Y-38320000D03*
X156970000Y-51820000D03*
D29*
%TO.P,J1,1,-*%
%TO.N,GND*%
X150970000Y-41470000D03*
D30*
%TO.P,J1,2,+*%
%TO.N,Net-(J1-+)*%
X150970000Y-48670000D03*
D31*
%TO.P,J1,3*%
%TO.N,N/C*%
X154620000Y-45070000D03*
%TD*%
D21*
%TO.P,J4,1,1*%
%TO.N,GND*%
X53230000Y-23501000D03*
D22*
%TO.P,J4,2,2*%
%TO.N,S1*%
X55230000Y-23501000D03*
%TO.P,J4,3,3*%
%TO.N,S2*%
X57230000Y-23501000D03*
%TO.P,J4,4,4*%
%TO.N,S3*%
X59230000Y-23501000D03*
%TO.P,J4,5,5*%
%TO.N,S4*%
X61230000Y-23501000D03*
%TD*%
D19*
%TO.P,R6,1*%
%TO.N,Net-(U14-OUT+)*%
X42789000Y-68950000D03*
D20*
%TO.P,R6,2*%
%TO.N,Net-(Switch5-A)*%
X50409000Y-68950000D03*
%TD*%
D10*
%TO.P,U11,1,IN+*%
%TO.N,V_BAU*%
X79820000Y-68320000D03*
X79820000Y-65780000D03*
D32*
%TO.P,U11,2,IN-*%
%TO.N,GND*%
X79820000Y-56860000D03*
X79820000Y-54320000D03*
D10*
%TO.P,U11,3,OUT+*%
%TO.N,Net-(U11-OUT+)*%
X53820000Y-68320000D03*
X53820000Y-65780000D03*
D32*
%TO.P,U11,4,OUT-*%
%TO.N,Net-(U11-OUT-)*%
X53820000Y-56860000D03*
X53820000Y-54320000D03*
%TD*%
D25*
%TO.P,U8,1,1*%
%TO.N,GND*%
X45788500Y-27819500D03*
D24*
%TO.P,U8,2,2*%
%TO.N,Net-(F1-Pad2)*%
X45788500Y-23859500D03*
%TD*%
D11*
%TO.P,F1,1*%
%TO.N,V_BAU*%
X108680000Y-30360000D03*
%TO.P,F1,2*%
%TO.N,Net-(F1-Pad2)*%
X98680000Y-30360000D03*
%TD*%
D12*
%TO.P,U1,1,IN+*%
%TO.N,V_LOGIQUE*%
X138760000Y-66003805D03*
X138760000Y-68538805D03*
%TO.P,U1,2,IN-*%
%TO.N,GND*%
X138760000Y-55328805D03*
X138760000Y-57868805D03*
%TO.P,U1,3,OUT+*%
%TO.N,Net-(U1-OUT+)*%
X157210000Y-65998805D03*
X157211000Y-68538805D03*
%TO.P,U1,4,OUT-*%
%TO.N,Net-(U1-OUT-)*%
X157210000Y-57868805D03*
X157212000Y-55328805D03*
%TD*%
D33*
%TO.N,Net-(U14-OUT+)*%
X46540200Y-61410000D02*
X45520000Y-61410000D01*
X45520000Y-61410000D02*
X43510000Y-63420000D01*
X43510000Y-63420000D02*
X43510000Y-68229000D01*
X43510000Y-68229000D02*
X42789000Y-68950000D01*
D34*
%TO.N,Net-(U14-OUT-)*%
X84130000Y-68511465D02*
X84130000Y-69760000D01*
X84130000Y-69760000D02*
X82380000Y-71510000D01*
X82380000Y-71510000D02*
X66520000Y-71510000D01*
X66520000Y-71510000D02*
X58120000Y-63110000D01*
X58120000Y-63110000D02*
X46840200Y-63110000D01*
X46840200Y-63110000D02*
X46540200Y-63410000D01*
%TO.N,Net-(U14-OUT+)*%
X69530000Y-59110000D02*
X82863465Y-59110000D01*
X67230000Y-61410000D02*
X69530000Y-59110000D01*
X82863465Y-59110000D02*
X84132000Y-57841465D01*
X46540200Y-61410000D02*
X67230000Y-61410000D01*
%TO.N,Net-(U9-OUT-)*%
X128490000Y-64180000D02*
X128490000Y-68690000D01*
D35*
%TO.N,V_BAU*%
X121308500Y-26488500D02*
X112551500Y-26488500D01*
X122461500Y-27641500D02*
X121308500Y-26488500D01*
X112551500Y-26488500D02*
X108680000Y-30360000D01*
X98680000Y-62069465D02*
X102582000Y-65971465D01*
X79820000Y-65180000D02*
X79820000Y-68320000D01*
X98680000Y-57260000D02*
X98680000Y-62069465D01*
X94890000Y-61810000D02*
X94310000Y-62390000D01*
X108680000Y-30360000D02*
X108680000Y-35070000D01*
X108680000Y-35070000D02*
X98680000Y-45070000D01*
X91780000Y-81370066D02*
X103049934Y-92640000D01*
X94890000Y-61810000D02*
X91780000Y-64920000D01*
X98680000Y-45070000D02*
X98680000Y-57260000D01*
X94310000Y-62390000D02*
X82610000Y-62390000D01*
X122461500Y-30438500D02*
X122461500Y-27641500D01*
X98680000Y-57260000D02*
X98680000Y-58020000D01*
X98680000Y-58020000D02*
X94890000Y-61810000D01*
X102582000Y-65971465D02*
X102582000Y-68511465D01*
X82610000Y-62390000D02*
X79820000Y-65180000D01*
X91780000Y-64920000D02*
X91780000Y-81370066D01*
%TO.N,Net-(F1-Pad2)*%
X98680000Y-30360000D02*
X96139500Y-27819500D01*
X47759500Y-23859500D02*
X45788500Y-23859500D01*
X96139500Y-27819500D02*
X51719500Y-27819500D01*
X51719500Y-27819500D02*
X47759500Y-23859500D01*
D36*
%TO.N,Net-(J1-+)*%
X143650000Y-48380000D02*
X140340000Y-45070000D01*
X150970000Y-48670000D02*
X150680000Y-48380000D01*
X150680000Y-48380000D02*
X143650000Y-48380000D01*
D37*
%TO.N,V_BAT*%
X138170000Y-34580000D02*
X138240000Y-34650000D01*
D36*
X130340000Y-45070000D02*
X130340000Y-43610000D01*
X122640000Y-39600000D02*
X118480000Y-35440000D01*
X126330000Y-39600000D02*
X122640000Y-39600000D01*
D37*
X118501500Y-35418500D02*
X118480000Y-35440000D01*
D36*
X130340000Y-45070000D02*
X138240000Y-37170000D01*
D37*
X118501500Y-30438500D02*
X118501500Y-35418500D01*
D36*
X138240000Y-37170000D02*
X138240000Y-34650000D01*
X130340000Y-43610000D02*
X126330000Y-39600000D01*
D37*
X138170000Y-30350000D02*
X138170000Y-34580000D01*
D33*
%TO.N,Net-(J2-Pad2)*%
X131300000Y-35070000D02*
X134210000Y-32160000D01*
X126430000Y-35070000D02*
X131300000Y-35070000D01*
X134210000Y-32160000D02*
X134210000Y-30350000D01*
D35*
%TO.N,V_LOGIQUE*%
X133893806Y-68538805D02*
X132950000Y-67594999D01*
X114480000Y-58173805D02*
X106650000Y-66003805D01*
X136225000Y-68538805D02*
X133893806Y-68538805D01*
X114480000Y-45070000D02*
X114480000Y-58173805D01*
X138760000Y-66003805D02*
X136225000Y-68538805D01*
D33*
X140890000Y-27450000D02*
X142130000Y-28690000D01*
X126430000Y-27450000D02*
X140890000Y-27450000D01*
D35*
X138760000Y-66003805D02*
X138760000Y-68538805D01*
D33*
X142130000Y-28690000D02*
X142130000Y-30350000D01*
D38*
%TO.N,S1*%
X62312792Y-25610000D02*
X64182792Y-23740000D01*
X157023604Y-23740000D02*
X159851604Y-26568000D01*
X64182792Y-23740000D02*
X157023604Y-23740000D01*
X159851604Y-26568000D02*
X159944268Y-26568000D01*
X57339000Y-25610000D02*
X62312792Y-25610000D01*
X55230000Y-23501000D02*
X57339000Y-25610000D01*
%TO.N,S2*%
X161330000Y-27722268D02*
X159944268Y-29108000D01*
X159190000Y-25270000D02*
X160820000Y-25270000D01*
X161330000Y-25780000D02*
X161330000Y-27722268D01*
X57230000Y-23501000D02*
X58889000Y-25160000D01*
X62126396Y-25160000D02*
X63996396Y-23290000D01*
X63996396Y-23290000D02*
X157210000Y-23290000D01*
X160820000Y-25270000D02*
X161330000Y-25780000D01*
X58889000Y-25160000D02*
X62126396Y-25160000D01*
X157210000Y-23290000D02*
X159190000Y-25270000D01*
X159568000Y-29108000D02*
X159944268Y-29108000D01*
%TO.N,S3*%
X63810000Y-22840000D02*
X61940000Y-24710000D01*
X161780000Y-24046396D02*
X160573604Y-22840000D01*
X61940000Y-24710000D02*
X60439000Y-24710000D01*
X161780000Y-29814268D02*
X161780000Y-24046396D01*
X159944268Y-31650000D02*
X161780000Y-29814268D01*
X60439000Y-24710000D02*
X59230000Y-23501000D01*
X160573604Y-22840000D02*
X63810000Y-22840000D01*
%TO.N,S4*%
X61230000Y-23501000D02*
X62341000Y-22390000D01*
X162230000Y-33450000D02*
X161492000Y-34188000D01*
X160760000Y-22390000D02*
X162230000Y-23860000D01*
X161492000Y-34188000D02*
X159944268Y-34188000D01*
X62341000Y-22390000D02*
X160760000Y-22390000D01*
X162230000Y-23860000D02*
X162230000Y-33450000D01*
D35*
%TO.N,Net-(U3-IN+)*%
X108710203Y-72639797D02*
X106710066Y-72639797D01*
X124480000Y-45070000D02*
X120190000Y-49360000D01*
X120190000Y-61160000D02*
X108710203Y-72639797D01*
X120190000Y-49360000D02*
X120190000Y-61160000D01*
%TO.N,Net-(U4-OUT+)*%
X49765455Y-43495455D02*
X47235799Y-43495455D01*
X53464949Y-50150000D02*
X53464949Y-47194949D01*
X53464949Y-47194949D02*
X49765455Y-43495455D01*
%TO.N,Net-(U4-OUT-)*%
X47235799Y-38579150D02*
X47235799Y-39795455D01*
D33*
X47235799Y-40020155D02*
X46109845Y-40020155D01*
X42789000Y-43341000D02*
X42789000Y-48770000D01*
X46109845Y-40020155D02*
X42789000Y-43341000D01*
D35*
X53464949Y-32350000D02*
X47235799Y-38579150D01*
D39*
%TO.N,Net-(U11-OUT-)*%
X47235799Y-53510000D02*
X50470000Y-53510000D01*
X53820000Y-54320000D02*
X53820000Y-56860000D01*
X50470000Y-53510000D02*
X53820000Y-56860000D01*
D34*
%TO.N,Net-(PS1-OUT)*%
X132950000Y-62354999D02*
X144595001Y-62354999D01*
X160520000Y-55621500D02*
X160520000Y-58450000D01*
X161605202Y-59535202D02*
X163262500Y-59535202D01*
X130860000Y-56700000D02*
X128800000Y-54640000D01*
X132950000Y-62354999D02*
X130860000Y-60264999D01*
X158298500Y-53400000D02*
X160520000Y-55621500D01*
X153550000Y-53400000D02*
X158298500Y-53400000D01*
X128800000Y-54640000D02*
X128140000Y-54640000D01*
X130860000Y-60264999D02*
X130860000Y-56700000D01*
X160520000Y-58450000D02*
X161605202Y-59535202D01*
X144595001Y-62354999D02*
X153550000Y-53400000D01*
%TO.N,Net-(U9-OUT+)*%
X125100000Y-65998805D02*
X125100000Y-68537805D01*
X160992500Y-78380000D02*
X163262500Y-76110000D01*
X134942195Y-78380000D02*
X160992500Y-78380000D01*
X125101000Y-68538805D02*
X134942195Y-78380000D01*
X125100000Y-68537805D02*
X125101000Y-68538805D01*
%TO.N,Net-(U1-OUT+)*%
X158402794Y-68538805D02*
X159076397Y-67865202D01*
X157211000Y-65999805D02*
X157210000Y-65998805D01*
X157210000Y-65998805D02*
X159076397Y-67865202D01*
X157211000Y-68538805D02*
X157211000Y-65999805D01*
X157211000Y-68538805D02*
X158402794Y-68538805D01*
X159076397Y-67865202D02*
X163262500Y-67865202D01*
%TO.N,Net-(U14-OUT+)*%
X84131000Y-57840465D02*
X84132000Y-57841465D01*
X84131000Y-55301465D02*
X84131000Y-57840465D01*
%TO.N,Net-(U1-OUT-)*%
X157210000Y-57868805D02*
X157210000Y-61140000D01*
X157212000Y-57866805D02*
X157210000Y-57868805D01*
X157212000Y-55328805D02*
X157212000Y-57866805D01*
X161935202Y-65865202D02*
X163262500Y-65865202D01*
X157210000Y-61140000D02*
X161935202Y-65865202D01*
D39*
%TO.N,Net-(U3-OUT-)*%
X157210000Y-91522398D02*
X163962500Y-84769898D01*
X157210000Y-92639797D02*
X157210000Y-91522398D01*
D34*
%TO.N,Net-(U9-OUT-)*%
X128490000Y-68690000D02*
X136210000Y-76410000D01*
X125100000Y-57868805D02*
X125100000Y-60790000D01*
X125102000Y-55328805D02*
X125102000Y-57866805D01*
X159540000Y-76410000D02*
X161840000Y-74110000D01*
X125100000Y-60790000D02*
X128490000Y-64180000D01*
X136210000Y-76410000D02*
X159540000Y-76410000D01*
X161840000Y-74110000D02*
X163262500Y-74110000D01*
X125102000Y-57866805D02*
X125100000Y-57868805D01*
D39*
%TO.N,Net-(U10-OUT+)*%
X52550000Y-91531398D02*
X52550000Y-92890000D01*
X45788500Y-84769898D02*
X52550000Y-91531398D01*
%TO.N,Net-(U10-OUT-)*%
X52550000Y-74048398D02*
X45788500Y-80809898D01*
X52550000Y-72940000D02*
X52550000Y-74048398D01*
D34*
%TO.N,Net-(U14-OUT-)*%
X84132000Y-65971465D02*
X84132000Y-68509465D01*
X84132000Y-68509465D02*
X84130000Y-68511465D01*
%TD*%
M02*
