M48
; DRILL file {KiCad 7.0.11-7.0.11~ubuntu22.04.1} date Fri 25 Oct 2024 07:20:31 PM CEST
; FORMAT={-:-/ absolute / inch / decimal}
; #@! TF.CreationDate,2024-10-25T19:20:31+02:00
; #@! TF.GenerationSoftware,Kicad,Pcbnew,7.0.11-7.0.11~ubuntu22.04.1
; #@! TF.FileFunction,Plated,1,2,PTH
FMAT,2
INCH
; #@! TA.AperFunction,Plated,PTH,ComponentDrill
T1C0.0236
; #@! TA.AperFunction,Plated,PTH,ComponentDrill
T2C0.0315
; #@! TA.AperFunction,Plated,PTH,ComponentDrill
T3C0.0394
; #@! TA.AperFunction,Plated,PTH,ComponentDrill
T4C0.0410
; #@! TA.AperFunction,Plated,PTH,ComponentDrill
T5C0.0472
; #@! TA.AperFunction,Plated,PTH,ComponentDrill
T6C0.0512
; #@! TA.AperFunction,Plated,PTH,ComponentDrill
T7C0.0591
; #@! TA.AperFunction,Plated,PTH,ComponentDrill
T8C0.0669
; #@! TA.AperFunction,Plated,PTH,ComponentDrill
T9C0.0693
; #@! TA.AperFunction,Plated,PTH,ComponentDrill
T10C0.1063
%
G90
G05
T2
X0.728Y-1.7146
X0.728Y-2.5091
X0.8757Y-2.2122
X0.8757Y-2.2909
X1.028Y-1.7146
X1.028Y-2.5091
X1.1391Y-0.7197
X1.2178Y-0.7197
X1.2966Y-0.7197
X1.3753Y-0.7197
X1.454Y-0.7197
X4.0883Y-1.9457
X4.0883Y-2.0701
X4.3883Y-1.9457
X4.3883Y-2.0701
X4.6335Y-1.0717
X4.769Y-1.5492
X4.769Y-1.8492
X4.9335Y-1.0717
X5.4711Y-2.0597
X5.4711Y-2.1384
X5.4711Y-2.3876
X5.4711Y-2.4663
X5.4711Y-2.7122
X5.4711Y-2.7909
T3
X2.3556Y-2.4918
X2.3557Y-1.9717
X2.3557Y-2.0717
X2.3557Y-2.3918
X3.0821Y-1.9717
X3.0821Y-2.0715
X3.0821Y-2.3918
X3.0821Y-2.4918
X3.2422Y-1.9728
X3.2422Y-2.0728
X3.2422Y-2.3931
X3.2422Y-2.4929
X3.9686Y-2.0728
X3.9686Y-2.3929
X3.9686Y-2.4929
X3.9687Y-1.9728
X4.2777Y-2.2494
X4.2777Y-2.3494
X4.2777Y-2.4494
X4.5064Y-1.9728
X4.5064Y-2.0728
X4.5064Y-2.3931
X4.5064Y-2.4929
X5.2328Y-2.0728
X5.2328Y-2.3929
X5.2328Y-2.4929
X5.2329Y-1.9728
T4
X0.9031Y-1.3701
X0.9031Y-1.4685
X0.9031Y-1.9012
X0.9031Y-1.9996
X5.3404Y-0.7405
X5.3404Y-0.8405
X5.3404Y-0.9405
X5.3404Y-1.0406
X5.3404Y-1.1405
T5
X1.1483Y-1.0681
X1.1483Y-1.7689
X2.7231Y-1.7689
X2.7231Y-1.0681
T6
X2.9285Y-0.9898
X2.9285Y-1.5689
X3.3222Y-0.9898
X3.3222Y-1.5689
X4.1Y-0.9898
X4.1Y-1.5689
X4.4937Y-0.9898
X4.4937Y-1.5689
T7
X1.1123Y-2.6661
X1.1123Y-3.4535
X1.1623Y-1.9331
X1.1623Y-2.0331
X1.1623Y-2.3843
X1.1623Y-2.4843
X2.1859Y-1.9331
X2.1859Y-2.0331
X2.1859Y-2.3843
X2.1859Y-2.4843
X3.1005Y-3.4535
X3.1005Y-2.6661
X3.2446Y-3.4417
X3.2446Y-2.6543
X5.2328Y-2.6543
X5.2328Y-3.4417
T8
X0.8461Y-0.7338
X0.8461Y-0.8897
X0.8461Y-2.976
X0.8461Y-3.1319
X3.5602Y-1.2458
X3.7161Y-1.2458
X3.872Y-1.2458
X5.4986Y-2.976
X5.4986Y-3.1319
T9
X4.6787Y-0.7985
X4.8346Y-0.7985
X4.9906Y-0.7985
X5.1465Y-0.7985
T10
X4.9871Y-1.4272
X4.9871Y-1.7106
T1
G00X5.245Y-1.3031
M15
G01X5.2017Y-1.3031
M16
G05
G00X5.245Y-1.8346
M15
G01X5.2017Y-1.8346
M16
G05
T3
G00X5.1308Y-1.5492
M15
G01X5.1308Y-1.5886
M16
G05
M30
