<?xml version="1.0" encoding="UTF-8" standalone="no"?>
<!-- Created with Inkscape (http://www.inkscape.org/) -->

<svg
   width="9.3752308mm"
   height="6.7290058mm"
   viewBox="0 0 9.3752308 6.7290058"
   version="1.1"
   id="svg1"
   inkscape:version="1.3.2 (091e20e, 2023-11-25)"
   sodipodi:docname="PowerVoltage_symbol.svg"
   xmlns:inkscape="http://www.inkscape.org/namespaces/inkscape"
   xmlns:sodipodi="http://sodipodi.sourceforge.net/DTD/sodipodi-0.dtd"
   xmlns="http://www.w3.org/2000/svg"
   xmlns:svg="http://www.w3.org/2000/svg">
  <sodipodi:namedview
     id="namedview1"
     pagecolor="#ffffff"
     bordercolor="#666666"
     borderopacity="1.0"
     inkscape:showpageshadow="2"
     inkscape:pageopacity="0.0"
     inkscape:pagecheckerboard="0"
     inkscape:deskcolor="#d1d1d1"
     inkscape:document-units="mm"
     inkscape:zoom="16.448685"
     inkscape:cx="19.484841"
     inkscape:cy="18.603311"
     inkscape:window-width="1850"
     inkscape:window-height="1016"
     inkscape:window-x="0"
     inkscape:window-y="0"
     inkscape:window-maximized="1"
     inkscape:current-layer="layer1" />
  <defs
     id="defs1" />
  <g
     inkscape:label="Calque 1"
     inkscape:groupmode="layer"
     id="layer1"
     transform="translate(-106.9855,-11.308774)">
    <g
       style="fill:#000000;fill-opacity:1;stroke:#000000;stroke-width:1;stroke-linecap:round;stroke-linejoin:round;stroke-opacity:1"
       id="g86"
       transform="matrix(9.9999996e-7,0,0,9.9999996e-7,6.3975487,-17.983911)">
      <path
         style="fill:#000000;fill-opacity:1;fill-rule:evenodd;stroke:#000000;stroke-width:1;stroke-linecap:round;stroke-linejoin:round;stroke-opacity:1"
         d="m 101333490,35546013 2730,-30899 4360,-30338 5950,-29668 7520,-28889 9050,-27999 10550,-27001 12020,-25893 13460,-24674 14860,-23348 16230,-21910 17570,-20364 18880,-18708 13570,-11945 13560,-10993 13620,-10065 13750,-9162 13940,-8281 14190,-7426 14530,-6593 14920,-5786 15380,-5001 15910,-4242 16500,-3505 17170,-2793 17910,-2105 18700,-1441 19560,-801 20500,-184 24540,402 10860,436 10090,631 9440,855 8940,1109 8540,1392 8290,1703 8150,2043 8150,2413 8270,2811 8520,3240 8900,3696 9400,4182 20830,9937 19480,10271 18570,11180 17650,12087 16740,12993 15820,13896 14900,14800 13990,15700 13060,16599 12140,17497 11210,18393 10290,19287 9370,20180 8440,21072 7510,21961 6580,22849 5650,23736 2700,15219 2110,17446 1540,19343 980,20912 450,22148 -70,23057 -1630,47516 -3480,47188 -2400,22646 -2810,21574 -3200,20172 -3580,18441 -3930,16379 -4280,13988 -7890,20722 -8870,20011 -9830,19263 -10750,18481 -11630,17664 -12480,16810 -13290,15922 -14080,14998 -14810,14040 -15530,13045 -16200,12016 -16830,10951 -17440,9851 -18010,8716 -18540,7545 -19040,6340 -12880,3397 -14110,2956 -15160,2513 -16010,2070 -16660,1626 -17110,1181 -17370,736 -17420,289 -17270,-157 -16940,-606 -16390,-1053 -15660,-1504 -14710,-1953 -13590,-2404 -12250,-2856 -10720,-3308 v 1 l -12800,-4813 -12470,-5178 -12150,-5543 -11830,-5907 -11500,-6272 -11180,-6636 -10850,-7000 -10530,-7363 -10210,-7726 -9880,-8088 -9560,-8452 -9230,-8813 -8900,-9175 -8580,-9537 -8250,-9899 -7930,-10259 -7600,-10620 -7280,-10980 -6940,-11340 -6630,-11701 -6290,-12059 -5960,-12419 -10950,-25915 -9640,-27348 -8320,-28778 -7010,-30207 -5690,-31634 -4090,-32044 -2340,-31923 -190,-9573 h 224160 l 430,29087 1300,26874 2210,24763 3140,22750 4100,20838 5110,19026 6130,17314 7180,15701 8280,14189 9390,12776 10550,11464 11730,10252 12940,9139 14180,8127 8070,3814 8260,3221 8430,2631 8570,2043 8680,1455 8760,871 8810,288 8840,-293 8830,-873 8790,-1449 8730,-2025 8640,-2598 8520,-3169 8370,-3739 8190,-4307 7980,-4873 v 0 l 4750,-3281 4580,-3499 4400,-3723 4230,-3953 4060,-4189 3890,-4430 3720,-4676 3550,-4930 3390,-5188 3230,-5452 3060,-5722 2900,-5998 2750,-6279 2590,-6566 2440,-6860 2280,-7158 2140,-7462 1980,-7773 1840,-8089 1690,-8410 2950,-17809 2390,-19164 1840,-20566 1310,-22014 790,-23507 280,-25047 -420,-34573 -1380,-31940 -2370,-29376 -3410,-26884 -4480,-24461 -5570,-22110 -6720,-19828 -7900,-17618 -9100,-15477 -5020,-6958 -5340,-6449 -5660,-5949 -5980,-5459 -6310,-4976 -6650,-4502 -6990,-4038 -7330,-3583 -15710,-5832 -17140,-4114 -18610,-2467 -9770,-634 -9430,-188 -9110,262 -8780,716 -8460,1173 -8130,1634 -7830,2099 -7510,2568 -7190,3041 -6900,3517 -6580,3998 -6280,4482 -5990,4969 -5680,5461 -5390,5957 -5100,6456 -4820,6959 -4520,7467 -4250,7977 -3960,8491 -3690,9010 -3410,9533 -3140,10058 -2880,10588 -2600,11122 -2350,11659 -2080,12201 -1830,12745 -2890,27142 -1900,29368 -1220,33811 -410,31400 h -224160 l -430,-22118 z"
         id="path74" />
      <path
         style="fill:#000000;fill-opacity:1;fill-rule:evenodd;stroke:#000000;stroke-width:1;stroke-linecap:round;stroke-linejoin:round;stroke-opacity:1"
         d="m 103803770,35238553 3150,83411 h -377600 v 172204 h 323820 l -3160,78029 -3160,78030 -317500,5956 v 193153 h 376690 v 161442 h -592200 l 2820,-427818 2810,-427818 h 581190 z"
         id="path76" />
      <path
         style="fill:#000000;fill-opacity:1;fill-rule:evenodd;stroke:#000000;stroke-width:1;stroke-linecap:round;stroke-linejoin:round;stroke-opacity:1"
         d="m 105332390,29458807 161780,13354 162780,22953 54400,10547 61090,14094 65780,17048 68460,19410 69140,21182 67810,22360 64480,22948 59140,22943 78580,34643 87180,42702 89870,47337 86630,48551 77470,46341 62410,40707 23690,17172 17710,14480 10980,11361 2740,4376 780,3436 -170,648 -400,829 -640,1005 -860,1175 -2380,2842 -3210,3459 -3990,4035 -4730,4566 -5420,5055 -6070,5501 -6650,5903 -7200,6263 -15830,13433 -17440,14354 -18660,14931 -92780,73237 -117860,-69962 -54090,-31752 -48250,-27482 -44050,-24019 -41450,-21366 -40480,-19521 -41130,-18483 -43390,-18255 -47280,-18835 -54840,-20564 -56160,-19490 -57180,-18328 -57880,-17079 -58270,-15741 -58360,-14314 -58120,-12801 -57570,-11197 -35170,-5793 -38040,-5191 -83120,-8540 -89890,-6024 -93520,-3440 -94030,-783 -91390,1944 -85630,4741 -76720,7608 -141960,22343 -139110,30438 -136020,38361 -132670,46114 -129090,53695 -125240,61104 -121160,68343 -116820,75411 -112240,82307 -107400,89032 -102320,95587 -96990,101968 -91400,108181 -85580,114221 -79510,120089 -73170,125788 -22940,43622 -22180,45103 -21390,46466 -20550,47715 -19700,48848 -18790,49864 -17850,50765 -16870,51549 -15860,52218 -14820,52772 -13730,53208 -12600,53530 -11450,53735 -10260,53824 -9020,53798 -7760,53656 -5430,57295 -3600,72598 -1790,82999 -40,88498 1670,89094 3330,84789 4950,75581 6530,61472 7480,49789 8680,49968 9870,50064 11020,50080 12140,50014 13250,49869 14320,49641 15370,49332 16400,48944 17380,48473 18360,47921 19310,47289 20220,46576 21110,45780 21980,44906 22810,43948 25190,45500 28480,48665 30730,50220 31930,50162 32080,48490 31200,45208 29250,40313 26270,33805 7330,9272 6850,9154 6200,8798 5410,8207 4470,7379 1830,3305 1540,3010 1230,2684 910,2330 550,1946 190,1532 -390,1915 -1160,2741 -4410,7733 -6880,10342 -8950,12487 -22620,29544 -26320,32530 -26920,31789 -24460,27321 -10340,10821 -8560,8306 -6400,5325 -2270,1399 -1580,479 -590,-130 -780,-386 -970,-636 -1150,-880 -2820,-2463 -3480,-3360 -4100,-4206 -4660,-5001 -5200,-5745 -5670,-6437 -12620,-14749 -14010,-16906 -15040,-18657 -15730,-19999 -54000,-71868 -51210,-72957 -48420,-74058 -45630,-75173 -42870,-76302 -40090,-77444 -37320,-78600 -34570,-79770 -31810,-80954 -29070,-82150 -26320,-83362 -23590,-84586 -20860,-85824 -18130,-87076 -15410,-88342 -12700,-89620 -7160,-74994 -4600,-87427 -2100,-95725 350,-99885 2720,-99911 5030,-95801 7280,-87554 9460,-75172 17450,-98577 21510,-98009 25470,-97276 29350,-96384 33160,-95328 36870,-94111 40520,-92732 44070,-91191 47550,-89489 50940,-87623 54250,-85597 57480,-83409 60620,-81058 63690,-78546 66670,-75871 69570,-73035 117220,-111384 122290,-103070 127070,-94665 131560,-86168 135770,-77580 139670,-68900 143290,-60127 146620,-51264 149660,-42308 152400,-33260 154860,-24121 157030,-14889 158900,-5567 z"
         id="path78" />
      <path
         style="fill:#000000;fill-opacity:1;fill-rule:evenodd;stroke:#000000;stroke-width:1;stroke-linecap:round;stroke-linejoin:round;stroke-opacity:1"
         d="m 107750550,35316583 -126470,3033 -126460,3031 v 688131 h -215250 v -688814 h -248450 l 3140,-83411 3150,-83411 h 710340 z"
         id="path80" />
      <path
         style="fill:#000000;fill-opacity:1;fill-rule:evenodd;stroke:#000000;stroke-width:1;stroke-linecap:round;stroke-linejoin:round;stroke-opacity:1"
         d="m 108942670,35144699 20340,1403 20050,2191 19610,2984 19020,3780 18280,4580 17400,5384 9430,3423 9280,3750 9110,4070 8950,4385 17380,9688 16640,10870 15870,12000 15060,13081 14200,14111 13300,15089 12360,16018 11380,16896 10360,17723 9290,18500 8180,19225 7040,19901 5840,20525 4610,21099 6520,34979 h -212320 l -6750,-35948 -830,-3797 -1080,-3954 -1330,-4080 -1550,-4174 -1760,-4236 -1940,-4267 -2110,-4266 -2270,-4234 -2400,-4168 -2510,-4073 -2620,-3944 -2700,-3785 -2760,-3594 -2800,-3370 -2840,-3115 -2850,-2829 -3670,-3176 -4030,-2986 -4370,-2796 -4680,-2605 -4970,-2412 -5230,-2220 -11170,-3861 -11930,-3084 -12500,-2303 -12890,-1516 -13070,-724 -13060,71 -12860,873 -12470,1678 -11880,2489 -11110,3305 -5190,1960 -4930,2165 -4640,2372 -4320,2578 -3980,2786 -3620,2994 -9900,9391 -8970,9482 -4150,4821 -3930,4897 -3720,4993 -3500,5106 -3310,5237 -3110,5386 -2920,5554 -2720,5739 -2550,5943 -2370,6164 -2200,6404 -2040,6662 -1870,6937 -1720,7232 -1560,7543 -1420,7873 -2430,16809 -1900,18346 -1430,20027 -990,21853 -600,23823 -240,25939 60,39643 560,32345 1200,26354 900,11339 1120,10333 1370,9490 1640,8811 1920,8295 2230,7943 2560,7754 2910,7730 6940,16040 2930,6031 3140,5850 3340,5666 3550,5479 3730,5289 3930,5098 4110,4902 4280,4705 4460,4505 4630,4302 4790,4096 4950,3889 5100,3677 5240,3464 5390,3248 5530,3029 5660,2807 5790,2583 5900,2357 6030,2127 6130,1894 6250,1660 6340,1423 6440,1182 6530,939 6620,694 6700,446 6770,195 6850,-59 6910,-314 6970,-574 7030,-835 14290,-2066 12690,-2117 11200,-2267 9790,-2511 4400,-1378 4080,-1475 3770,-1584 3480,-1706 3200,-1839 2930,-1985 2670,-2142 2420,-2311 2190,-2494 1960,-2686 1740,-2893 1550,-3110 1360,-3340 1170,-3581 1010,-3836 860,-4101 1290,-9048 810,-10255 410,-11560 120,-12959 v -64198 h -139910 v -150678 h 355170 v 177166 l -170,65568 -400,26684 -780,23098 -1310,19869 -1950,17002 -2730,14493 -3640,12343 -2200,5478 -2480,5076 -2770,4718 -3070,4405 -3410,4138 -3740,3915 -8580,7341 -10140,6989 -11830,6997 -29270,15454 -17870,8393 -19720,7763 -21310,7105 -22670,6418 -23760,5703 -24620,4959 -25240,4186 -25590,3386 -25710,2556 -25580,1697 -25200,811 -24570,-105 -23700,-1049 -22590,-2021 -21210,-3023 -19610,-4052 v 0 l -18530,-5262 -18310,-6640 -18040,-7956 -17680,-9209 -17270,-10398 -16780,-11525 -16230,-12589 -15600,-13589 -14910,-14526 -14150,-15401 -13320,-16213 -12430,-16961 -11460,-17646 -10420,-18268 -9330,-18828 -8150,-19324 -5910,-17348 -5310,-19664 -4700,-21654 -4070,-23321 -3430,-24662 -2780,-25678 -2120,-26369 -1430,-26736 -750,-26778 -40,-26495 680,-25887 1420,-24954 2160,-23697 2910,-22114 3690,-20207 4470,-17975 7360,-23851 7850,-22525 8380,-21249 8950,-20024 9550,-18847 10190,-17721 10890,-16645 11600,-15618 12380,-14640 13170,-13714 14020,-12836 14900,-12008 15820,-11231 16790,-10502 17780,-9824 18830,-9196 15070,-6259 16280,-5510 17320,-4758 18210,-4002 18970,-3242 19570,-2478 20030,-1709 20320,-938 20480,-161 z"
         id="path82" />
      <path
         style="fill:#000000;fill-opacity:1;fill-rule:evenodd;stroke:#000000;stroke-width:1;stroke-linecap:round;stroke-linejoin:round;stroke-opacity:1"
         d="m 109663620,35152278 293280,2864 6290,166822 h -377600 v 172203 h 312120 v 161441 h -312120 v 193728 h 376690 v 161442 h -591950 v -861364 z"
         id="path84" />
    </g>
    <g
       style="fill:#000000;fill-opacity:1;stroke:#000000;stroke-width:1;stroke-linecap:round;stroke-linejoin:round;stroke-opacity:1"
       id="g116"
       transform="matrix(9.9999996e-7,0,0,9.9999996e-7,6.3975487,-17.983911)">
      <path
         style="fill:#000000;fill-opacity:1;fill-rule:evenodd;stroke:#000000;stroke-width:1;stroke-linecap:round;stroke-linejoin:round;stroke-opacity:1"
         d="m 107901820,29292805 180,273 -10,429 -600,1338 -19450,24333 -51040,61207 -193640,229179 -730530,858417 -297860,349788 -74320,87353 -114820,134451 -687190,806422 -149930,176330 -95990,112097 -14930,17475 -6260,7562 -5490,6818 -4710,6103 -3980,5418 -3240,4762 -2520,4135 -1830,3538 -1150,2971 -330,1281 -160,1151 v 1024 l 160,900 320,780 470,663 620,552 780,442 930,338 1070,236 2580,182 21200,-2325 47930,-6503 157530,-22799 208810,-31287 222960,-34296 13920,-2059 12850,-1670 11750,-1286 10610,-905 9440,-530 8250,-159 7030,207 5760,569 4470,927 3160,1279 1070,771 730,857 380,943 40,1028 -320,1113 -680,1198 -2440,2645 -3920,2976 -5420,3301 -5060,3146 -8100,5436 -10720,7428 -12920,9123 -30790,22138 -34570,25342 -1678560,1234365 -753390,554684 -373290,275398 -354780,259739 -10490,7402 -9790,6643 -8870,5758 -7730,4746 -6390,3608 -2630,1337 -2200,1005 -1770,657 -1290,293 -460,6 -330,-92 -210,-190 -60,-292 100,-463 300,-700 1200,-2088 1940,-2959 2650,-3779 7270,-9814 9610,-12477 11640,-14727 13340,-16565 14720,-17990 15780,-19003 92020,-110595 110950,-134007 370790,-447608 1029810,-1241956 48220,-58545 39190,-48153 26130,-32776 6920,-9065 2150,-3352 -10540,716 -30810,3051 -125040,13386 -521710,57869 -10270,979 -9580,587 -8680,205 -7580,-167 -3300,-219 -2950,-308 -2570,-396 -2160,-482 -1730,-567 -1260,-650 -780,-733 -200,-397 -70,-417 160,-544 440,-775 1770,-2216 2860,-3061 3900,-3854 4890,-4598 5810,-5289 14160,-12446 17140,-14598 19650,-16338 21680,-17668 23240,-18589 1400670,-1107197 597330,-471716 684610,-541084 339020,-267711 312120,-246407 451620,-356533 14850,-11510 13470,-10101 11820,-8516 9900,-6756 7720,-4820 2960,-1629 2310,-1080 1640,-507 550,-33 z"
         id="path102" />
      <path
         style="fill:#000000;fill-opacity:1;fill-rule:evenodd;stroke:#000000;stroke-width:1;stroke-linecap:round;stroke-linejoin:round;stroke-opacity:1"
         d="m 105708070,35535399 2250,-25354 3250,-24713 4220,-24050 5200,-23361 6140,-22650 7080,-21914 7990,-21154 8880,-20371 9780,-19563 10640,-18731 11490,-17877 12320,-16997 13140,-16093 13950,-15167 14720,-14216 15500,-13241 16250,-12242 16990,-11220 17700,-10173 18410,-9102 19100,-8008 19770,-6890 20420,-5747 21060,-4582 21680,-3391 22290,-2177 22870,-940 17490,-10 16780,460 16140,945 15540,1445 14990,1957 14490,2485 14040,3026 13640,3582 13290,4152 12990,4736 12740,5334 12530,5947 12380,6573 12270,7215 12220,7870 12220,8539 12590,9508 12000,9817 11430,10147 10870,10497 10320,10867 9790,11257 9260,11669 8770,12100 8270,12551 7790,13024 7340,13516 6880,14030 6450,14562 6030,15116 5620,15690 5230,16285 5390,20181 4530,22031 3680,23604 2850,24901 2000,25921 1190,26667 370,27135 -440,27328 -1240,27244 -2020,26885 -2810,26250 -3580,25339 -4350,24151 -5100,22687 -5850,20948 -6590,18933 -6850,16091 -7860,15888 -8830,15621 -9730,15291 -10570,14898 -11340,14443 -12060,13925 -12700,13343 -13280,12700 -13820,11992 -14270,11224 -14670,10390 -15000,9496 -15280,8537 -15490,7516 -15640,6433 -15860,5404 -16690,4686 -17400,3969 -17980,3252 -18450,2534 -18790,1816 -19000,1098 -19090,380 -19070,-339 -18910,-1057 -18630,-1775 -18230,-2494 -17710,-3212 -17060,-3932 -16290,-4650 -15400,-5370 v -1 l -11230,-4586 -11030,-5041 -10820,-5487 -10610,-5923 -10380,-6351 -10150,-6769 -9910,-7179 -9680,-7580 -9420,-7972 -9170,-8354 -8910,-8728 -8650,-9093 -8370,-9449 -8090,-9796 -7810,-10134 -7520,-10463 -7210,-10782 -6920,-11094 -6600,-11396 -6290,-11689 -11600,-24222 -10260,-25286 -8880,-26280 -7430,-27201 -5940,-28051 -4410,-28829 -4880,-55871 -420,-36046 h 219240 l 540,30478 1700,30136 2860,29324 3990,28042 5110,26290 6210,24068 7280,21374 8350,18211 4570,7772 4830,6806 4330,5239 4530,4984 4730,4727 4910,4469 5090,4208 5250,3945 5400,3682 5540,3415 5670,3148 5790,2878 5900,2606 5990,2332 6090,2058 6160,1780 6220,1501 6280,1221 6330,937 6350,653 6380,367 6390,78 6390,-211 6380,-504 6360,-798 6320,-1093 6290,-1391 6230,-1690 6160,-1991 6090,-2295 6010,-2599 5900,-2906 5800,-3215 5680,-3525 4560,-3133 4400,-3330 4250,-3530 4100,-3736 3950,-3946 3800,-4162 3650,-4382 3510,-4608 3360,-4838 3230,-5073 3080,-5314 2950,-5558 2810,-5808 2670,-6063 2550,-6323 2410,-6587 2280,-6857 2160,-7132 3930,-15106 3450,-16263 2970,-17460 2510,-18695 2060,-19970 1620,-21285 1210,-22638 890,-34107 -320,-31979 -1540,-29865 -2780,-27761 -4010,-25671 -5250,-23592 -6500,-21525 -7740,-19471 -9010,-17428 -10270,-15398 -5610,-6941 -5930,-6438 -6240,-5937 -6570,-5437 -6880,-4939 -7200,-4441 -7530,-3946 -7850,-3452 -16660,-5429 -17960,-3470 -11880,-1184 -11550,-324 -11200,529 -10850,1379 -10490,2221 -10110,3059 -9730,3891 -9330,4717 -8940,5538 -8520,6354 -8090,7163 -7670,7967 -7220,8765 -6770,9559 -6300,10347 -5840,11128 -8130,19701 -6830,22651 -5570,25131 -4300,27141 -3080,28681 -1850,29750 -640,30349 h -219240 l -210,-17648 z"
         id="path104" />
      <path
         style="fill:#000000;fill-opacity:1;fill-rule:evenodd;stroke:#000000;stroke-width:1;stroke-linecap:round;stroke-linejoin:round;stroke-opacity:1"
         d="m 102305710,35997703 v 0 -1 z"
         id="path106" />
      <path
         style="fill:#000000;fill-opacity:1;fill-rule:evenodd;stroke:#000000;stroke-width:1;stroke-linecap:round;stroke-linejoin:round;stroke-opacity:1"
         d="m 104062340,35149761 37660,239 37650,684 36650,1081 34620,1431 31610,1733 27580,1986 22560,2191 16520,2349 24990,5277 23650,6425 22290,7556 20920,8675 19530,9779 18120,10867 16700,11941 7820,6368 7450,6632 7090,6893 6720,7153 6360,7410 5980,7665 5620,7920 5240,8172 4870,8422 4490,8670 4120,8917 3730,9162 3350,9404 2960,9646 4770,20008 3210,20950 1870,21725 680,21230 -490,20686 -1650,20092 -2780,19450 -3900,18758 -5000,18018 -6070,17227 -7140,16388 -8170,15500 -9190,14563 -10200,13576 -11170,12541 -12140,11457 -13080,10322 -14010,9140 -37280,21995 86360,166530 33530,65437 27460,55066 18550,38907 5050,11586 1760,5376 -140,504 -440,498 -720,491 -990,483 -2780,942 -3780,903 -4750,860 -5640,811 -6470,758 -7260,700 -7990,636 -8640,568 -9260,495 -9810,415 -21040,576 -11110,150 -11440,51 h -112260 l -152910,-301356 h -96130 v 301356 h -215250 v -460518 h 215250 l 85280,-3872 24620,-1321 10600,-765 9590,-866 8650,-990 7820,-1138 7060,-1309 6410,-1505 5830,-1723 5340,-1964 4960,-2231 4640,-2519 4440,-2831 4300,-3168 4270,-3527 4320,-3911 3290,-3214 3130,-3305 2980,-3393 2810,-3479 2650,-3561 2500,-3641 2330,-3718 2160,-3792 2010,-3862 1840,-3931 1680,-3996 1510,-4058 1350,-4118 1190,-4175 1020,-4228 850,-4279 680,-4327 520,-4372 350,-4415 180,-4454 20,-4490 -160,-4524 -820,-9138 -1510,-9237 -2190,-9315 -2890,-9368 -3580,-9399 -1940,-4467 -2000,-4256 -2070,-4050 -2160,-3849 -2260,-3651 -2360,-3459 -2480,-3271 -2610,-3088 -2750,-2908 -2900,-2735 -3060,-2564 -3230,-2398 -3410,-2238 -3610,-2082 -3810,-1929 -4030,-1782 -4260,-1639 -4490,-1501 -4740,-1366 -5000,-1238 -5270,-1112 -5560,-992 -5840,-876 -6150,-765 -6460,-658 -6790,-556 -14590,-822 -16020,-467 -17540,-148 h -74640 v 228296 h -215250 v -400499 z"
         id="path108" />
      <path
         style="fill:#000000;fill-opacity:1;fill-rule:evenodd;stroke:#000000;stroke-width:1;stroke-linecap:round;stroke-linejoin:round;stroke-opacity:1"
         d="m 107233920,30468292 830,374 990,609 1150,839 2720,2343 3270,3189 3770,3986 4250,4737 4670,5437 5070,6091 5410,6695 5730,7252 5990,7760 6230,8219 6420,8631 6570,8995 6680,9309 6750,9576 53820,79806 50470,80729 47130,81675 43800,82648 40480,83646 37160,84669 33850,85717 30560,86791 27260,87889 23990,89012 20710,90162 17440,91335 14190,92535 10940,93759 7700,95008 4470,96284 1620,84434 -390,79068 -2530,75278 -4800,73064 -7200,72425 -9730,73363 -12390,75876 -15180,79966 -15980,73447 -18290,73107 -20570,72691 -22800,72202 -25010,71637 -27170,70996 -29310,70283 -31400,69493 -33470,68630 -35500,67690 -37490,66677 -39440,65588 -41370,64426 -43250,63187 -45110,61874 -46920,60487 -83340,99009 -87830,94389 -92090,89651 -96150,84791 -99970,79812 -103580,74714 -106980,69494 -110160,64156 -113110,58697 -115850,53119 -118380,47420 -120680,41602 -122760,35663 -124640,29605 -126280,23426 -127720,17128 -61360,4922 -74630,3236 -83320,1593 -87420,-9 -86950,-1570 -81880,-3089 -72240,-4566 -58020,-6002 10,-1 -68010,-10049 -67310,-11579 -66590,-13100 -65860,-14615 -65090,-16122 -64320,-17623 -63510,-19117 -62700,-20602 -61850,-22082 -60980,-23553 -60110,-25019 -59200,-26476 -58270,-27927 -57330,-29370 -56360,-30807 -55370,-32236 -17830,-10860 -16620,-10421 -15050,-9734 -13110,-8798 -10810,-7613 -8150,-6178 -2960,-2474 -2160,-2022 -1320,-1540 -420,-1025 150,-472 410,-654 1570,-1835 2540,-2504 3450,-3130 4310,-3717 5110,-4261 12440,-9993 15030,-11680 17220,-13038 18990,-14067 20330,-14768 101200,-72769 123400,63467 64560,32093 64660,29902 64820,27727 65040,25567 65330,23424 65700,21296 66110,19185 66610,17089 67160,15008 67790,12945 68470,10896 69230,8864 70050,6848 70930,4847 71890,2862 72910,893 81110,-1331 80100,-3808 79110,-6289 78160,-8778 77200,-11272 76290,-13773 75400,-16279 74520,-18791 73660,-21310 72840,-23834 72030,-26365 71240,-28902 70480,-31444 69740,-33994 69030,-36547 68330,-39109 113380,-71572 108310,-76899 103100,-82041 97770,-86994 92320,-91762 86730,-96342 81030,-100735 75190,-104942 69220,-108962 63140,-112794 56930,-116440 50590,-119899 44120,-123171 37520,-126255 30810,-129155 23970,-131865 4680,-34499 4050,-38275 6230,-85657 3720,-94097 1220,-98097 -1270,-97657 -3780,-92774 -6280,-83452 -4070,-36841 -4700,-32846 -17120,-94459 -20190,-92926 -23190,-91093 -26080,-88961 -28880,-86530 -31590,-83798 -34200,-80766 -36720,-77437 -19670,-37661 -23580,-42637 -26090,-45327 -27230,-45730 -26980,-43846 -25350,-39675 -22330,-33219 -17940,-24476 -31500,-39897 77880,-91946 15880,-18467 15270,-17220 14280,-15598 12940,-13600 11230,-11224 9150,-8473 3670,-3087 3030,-2258 2320,-1382 1560,-459 z"
         id="path110" />
      <path
         style="fill:#000000;fill-opacity:1;fill-rule:evenodd;stroke:#000000;stroke-width:1;stroke-linecap:round;stroke-linejoin:round;stroke-opacity:1"
         d="m 105633940,35151382 14980,394 12100,601 8750,798 2960,470 1940,516 780,698 510,1395 240,2106 -40,2829 -950,7878 -2100,10921 -3290,14063 -4520,17308 -5770,20651 -7060,24095 -18070,58923 -23570,73903 -29290,89685 -35260,106269 -142010,425497 -115960,201 -36740,-35 -28190,-398 -11280,-412 -9630,-593 -8110,-806 -6760,-1047 -5570,-1320 -4540,-1623 -3660,-1956 -2930,-2319 -2370,-2712 -1970,-3135 -1710,-3590 -1630,-4073 v -2 l -54420,-159530 -91520,-276915 -86090,-264648 -38140,-122727 80,-955 240,-910 420,-865 600,-820 780,-775 970,-733 1170,-689 1370,-648 1570,-605 1790,-564 2010,-523 2240,-484 2470,-443 2700,-405 2950,-366 3190,-328 3460,-291 3710,-253 8240,-400 9350,-259 10510,-122 11730,9 12980,137 14300,260 15640,378 114480,3054 74090,269068 82500,300882 680,2261 740,1813 800,1343 430,487 440,361 470,230 490,98 510,-38 530,-177 560,-319 580,-464 1240,-1375 1360,-1990 1470,-2630 1610,-3295 1740,-3983 1890,-4695 2030,-5432 2200,-6193 2370,-6977 5280,-16407 6050,-19835 6880,-23459 7780,-27274 8750,-31283 9780,-35485 22890,-84349 81140,-300883 105880,-3104 42190,-792 19240,-44 z"
         id="path112" />
      <path
         style="fill:#000000;fill-opacity:1;fill-rule:evenodd;stroke:#000000;stroke-width:1;stroke-linecap:round;stroke-linejoin:round;stroke-opacity:1"
         d="m 107965330,35258451 17830,-45708 7640,-18524 6460,-14828 5040,-10522 1910,-3456 1450,-2152 870,-946 980,-905 1110,-864 1240,-822 1370,-781 1510,-741 1640,-700 1790,-661 1920,-621 2080,-582 4610,-1047 5240,-895 5890,-745 6570,-598 7270,-454 8010,-311 8760,-174 9550,-36 10350,96 11180,227 12040,355 92120,3086 67040,177585 152800,408983 93420,250610 620,1623 520,1528 390,1435 270,1345 110,1255 v 596 l -50,574 -90,554 -140,532 -180,512 -240,493 -300,472 -340,453 -410,434 -460,414 -520,397 -590,377 -650,360 -720,342 -780,325 -860,307 -1930,564 -2240,500 -2560,436 -2890,375 -3250,318 -3610,261 -4000,208 -4400,156 -4810,108 -5240,61 -5690,16 -12770,-91 -14740,-240 -16840,-372 -19060,-484 -116100,-3068 -22420,-66809 -4750,-13665 -4910,-13221 -4920,-12453 -4790,-11362 -4530,-9949 -4120,-8212 -1870,-3353 -1700,-2798 -1540,-2202 -1340,-1566 -860,-721 -1090,-692 -1320,-663 -1550,-634 -3790,-1182 -4710,-1065 -5610,-950 -6510,-832 -7400,-714 -8290,-597 -9160,-479 -10030,-359 -10900,-241 -11750,-121 -12600,-1 -13440,119 -29380,603 -126330,3441 -23470,75340 -23480,75338 -116570,3069 -36050,856 -27640,332 -20220,-341 -7640,-469 -6170,-692 -4810,-935 -3580,-1197 -2490,-1475 -1510,-1774 -650,-2091 70,-2426 670,-2780 1140,-3153 109960,-298009 5270,-14487 h 213420 l 100,414 310,408 520,403 720,396 910,390 1100,382 2750,741 3450,705 4110,666 4710,622 5290,574 5810,522 6300,465 6750,406 7150,341 7510,272 7820,200 8110,123 8340,42 24600,-115 19020,-447 7610,-396 6430,-537 5350,-697 4320,-876 3390,-1074 2530,-1292 960,-734 770,-795 600,-860 430,-925 380,-2061 -170,-2355 -650,-2669 -1070,-3002 -2150,-6145 -3320,-10302 -9480,-30859 -12130,-40854 -13470,-46433 -13230,-44602 -6040,-19255 -5450,-16615 -4710,-13518 -3810,-9964 -2760,-5953 -940,-1330 -350,-228 -270,72 -1710,3583 -3090,8404 -9520,28561 -26590,85186 -25670,86507 -8370,30211 -3200,14297 h -213420 l 134030,-368181 z"
         id="path114" />
    </g>
    <g
       style="fill:#000000;fill-opacity:1;stroke:#000000;stroke-width:1;stroke-linecap:round;stroke-linejoin:round;stroke-opacity:1"
       id="g138"
       transform="matrix(9.9999996e-7,0,0,9.9999996e-7,6.3975487,-17.983911)">
      <path
         style="fill:#000000;fill-opacity:1;fill-rule:evenodd;stroke:#000000;stroke-width:1;stroke-linecap:round;stroke-linejoin:round;stroke-opacity:1"
         d="m 106766050,35849337 h 354880 v 161441 h -570670 l 5620,-855636 h 204500 z"
         id="path132" />
      <path
         style="fill:#000000;fill-opacity:1;fill-rule:evenodd;stroke:#000000;stroke-width:1;stroke-linecap:round;stroke-linejoin:round;stroke-opacity:1"
         d="m 102649860,35149962 16300,577 15010,911 13340,1206 11310,1460 8900,1674 3430,905 2690,942 1900,976 1060,1004 890,2215 1410,4527 4240,15495 5930,23251 7390,30009 18140,76304 21040,91369 20890,90920 17740,75081 12700,51451 3880,14429 1910,5600 270,-78 370,-655 1030,-2984 3170,-12271 4470,-19926 5600,-26684 6540,-32544 7300,-37506 7880,-41570 8270,-44735 30370,-164693 15840,-82645 1000,-4061 550,-1848 590,-1733 660,-1619 740,-1511 850,-1406 950,-1305 1100,-1208 1240,-1113 1400,-1024 1590,-938 1780,-855 2000,-776 2240,-702 2480,-631 2740,-563 3020,-499 3320,-440 3640,-384 3960,-331 4310,-283 4680,-238 5050,-197 11310,-286 13020,-167 14870,-79 16850,-19 20260,165 19070,472 17450,746 15400,988 12920,1196 10010,1370 3780,741 2890,772 1940,799 960,822 50,2609 -710,6042 -3520,21660 -6100,33221 -8390,43339 -22540,111245 -28290,134364 -90430,422436 -16710,78029 h -220670 l -53060,-225096 -20890,-87121 -17640,-70811 -12530,-47232 -3780,-12502 -1160,-3075 -640,-806 -620,1497 -1130,3682 -3650,13468 -12070,48148 -16940,70353 -20040,85258 -50880,218856 -109870,3069 -28430,624 -23700,124 -19310,-407 -15250,-969 -6210,-706 -5310,-858 -4470,-1014 -3670,-1175 -2900,-1339 -2170,-1508 -1500,-1679 -850,-1855 -35790,-159794 -59140,-283685 -54680,-271773 -16960,-88980 -5420,-35075 400,-442 650,-437 2000,-855 2890,-826 3750,-793 4540,-754 5290,-712 5980,-665 6620,-614 7210,-559 7740,-498 16880,-799 18390,-505 19500,-176 30100,111 23280,487 9380,456 8060,635 6840,843 5760,1081 4800,1345 3960,1640 3250,1963 2660,2314 2200,2694 1860,3102 1650,3539 1560,4006 2630,9648 4100,18249 11770,58055 15160,79729 16890,92917 41680,234382 12400,-56798 46960,-218237 27430,-125874 10690,-47517 6710,-28410 10260,-40360 h 85060 z"
         id="path134" />
      <path
         style="fill:#000000;fill-opacity:1;fill-rule:evenodd;stroke:#000000;stroke-width:1;stroke-linecap:round;stroke-linejoin:round;stroke-opacity:1"
         d="m 100805910,35152340 79190,2051 62640,2678 26090,1769 23120,2159 20550,2628 18360,3175 16560,3798 15160,4501 14140,5282 13520,6139 13280,7076 13430,8089 28910,19534 6010,4396 5840,4566 5650,4741 5490,4922 5320,5108 5160,5302 5000,5500 4860,5705 4700,5915 4560,6131 4430,6354 4290,6581 4170,6815 4040,7055 3930,7300 3810,7552 4610,9565 4090,8850 3610,8275 3140,7836 2690,7536 2280,7373 1880,7350 1520,7462 1170,7714 850,8103 560,8631 280,9295 40,10099 -190,11040 -940,25454 -1350,24307 -820,10658 -950,9790 -1110,9020 -1290,8348 -1490,7771 -1730,7293 -1980,6911 -2270,6627 -2580,6440 -2910,6350 -3270,6357 -3660,6461 -4060,6664 -4500,6962 -5750,8353 -5970,8057 -6220,7764 -6460,7471 -6710,7180 -6970,6893 -7220,6607 -7490,6323 -7770,6040 -8030,5761 -8320,5483 -8600,5207 -8890,4933 -9190,4662 -9490,4391 -9790,4124 -10100,3858 -10420,3595 -10740,3333 -11070,3073 -11400,2816 -11730,2560 -24500,4362 -25900,3365 -27340,2383 -28830,1418 -30360,469 h -90640 l -3000,142606 -3010,142605 -104930,3081 -104940,3080 v -452813 h 215250 70310 l 14860,-311 15310,-891 15310,-1409 14880,-1864 14000,-2256 12700,-2587 5710,-1398 5230,-1457 4680,-1508 4080,-1552 7780,-3486 3660,-1827 3510,-1889 3360,-1951 3210,-2018 3080,-2087 2920,-2159 2790,-2234 2650,-2313 2510,-2394 2380,-2477 2240,-2565 2110,-2654 1980,-2747 1850,-2843 1720,-2942 1610,-3043 1470,-3148 1360,-3256 1240,-3366 1120,-3479 1010,-3596 890,-3715 780,-3838 670,-3963 560,-4091 460,-4222 600,-8849 190,-9410 -130,-8323 -390,-7998 -670,-7678 -940,-7361 -1220,-7048 -1510,-6740 -1800,-6435 -2090,-6135 -2390,-5837 -2700,-5545 -3010,-5255 -3330,-4971 -3650,-4690 -3970,-4412 -4310,-4140 -4640,-3870 -4980,-3605 -5330,-3344 -5680,-3086 -6040,-2834 -6400,-2584 -6760,-2338 -7140,-2097 -7520,-1859 -7890,-1626 -8290,-1396 -8670,-1171 -9080,-949 -19360,-1248 -21010,-410 h -75880 v 236780 h -215250 v -411193 z"
         id="path136" />
    </g>
  </g>
</svg>
