<?xml version="1.0" encoding="UTF-8" standalone="no"?>
<!-- Created with Inkscape (http://www.inkscape.org/) -->

<svg
   version="1.1"
   id="svg2"
   width="200.11162"
   height="162.58406"
   viewBox="0 0 200.11162 162.58406"
   sodipodi:docname="stepper-motor-driver.svg"
   inkscape:version="1.2-dev (4cd2fc9, 2021-12-07)"
   xmlns:inkscape="http://www.inkscape.org/namespaces/inkscape"
   xmlns:sodipodi="http://sodipodi.sourceforge.net/DTD/sodipodi-0.dtd"
   xmlns="http://www.w3.org/2000/svg"
   xmlns:svg="http://www.w3.org/2000/svg">
  <defs
     id="defs6" />
  <sodipodi:namedview
     id="namedview4"
     pagecolor="#ffffff"
     bordercolor="#000000"
     borderopacity="0.25"
     inkscape:pageshadow="2"
     inkscape:pageopacity="0.0"
     inkscape:pagecheckerboard="0"
     inkscape:blackoutopacity="0.0"
     showgrid="false"
     inkscape:zoom="2.8779246"
     inkscape:cx="62.371335"
     inkscape:cy="106.84783"
     inkscape:window-width="1920"
     inkscape:window-height="1001"
     inkscape:window-x="-9"
     inkscape:window-y="-9"
     inkscape:window-maximized="1"
     inkscape:current-layer="g8" />
  <g
     inkscape:groupmode="layer"
     inkscape:label="Image"
     id="g8"
     transform="translate(-2.5393545,-11.372708)">
    <path
       style="fill:#000000"
       d="m 112.84286,173.37272 c -2.2492,-0.47191 -12.8242,-3.35628 -23.500002,-6.40972 -10.6758,-3.05344 -24.49162,-6.88366 -30.701809,-8.5116 -6.210192,-1.62794 -12.735192,-3.79544 -14.5,-4.81666 -4.144221,-2.3981 -9.552863,-10.45214 -10.344772,-15.40447 -0.340772,-2.13107 -0.899572,-3.87724 -1.241777,-3.88038 -0.342206,-0.003 -4.73123,1.44346 -9.753387,3.21465 -10.478087,3.69537 -12.265456,3.41525 -16.8893017,-2.64693 -3.19838,-4.19329 -4.317928,-11.12366 -2.504266,-15.50223 1.302135,-3.14363 1.029709,-3.00889 19.0247627,-9.40946 l 9.5,-3.37901 -0.04888,-6.885655 c -0.02689,-3.78711 -0.215352,-18.18678 -0.418813,-31.99927 -0.347412,-23.58495 -0.247836,-25.35019 1.635871,-29 1.103191,-2.13751 3.46286,-4.87675 5.243711,-6.0872 6.100661,-4.14663 24.053521,-7.9312 32.765861,-6.90724 7.30042,0.85802 15.68178,-1.68373 18.47167,-5.60178 1.09432,-1.53683 2.96285,-3.31506 4.15229,-3.95163 3.51354,-1.88039 15.865272,-4.802891 20.377242,-4.821394 2.29841,-0.0094 15.12341,2.016934 28.49999,4.503014 13.37658,2.48609 28.14606,5.21627 32.82106,6.06708 13.26965,2.41496 19.65606,7.11827 24.76917,18.24145 l 2.44949,5.32868 -0.6683,40.67132 c -0.36756,22.369225 -1.11683,43.000905 -1.66505,45.848195 -1.6867,8.76034 -5.10251,12.25542 -18.80486,19.2413 l -12.08203,6.15978 -7.94093,-0.28898 c -7.71164,-0.28064 -8.03647,-0.19802 -11.24921,2.86114 -1.81956,1.73256 -7.86768,5.42252 -13.44028,8.1999 -10.79315,5.3793 -16.78583,6.67179 -23.95745,5.1671 z m 13.94925,-6.39409 c 2.12422,-0.88756 3.92342,-2.70009 5.06204,-5.09956 1.60836,-3.38937 1.75453,-7.46887 1.6329,-45.57427 -0.14567,-45.638385 -0.31607,-47.242075 -5.96627,-56.149635 -4.4943,-7.08529 -8.58161,-9.18685 -26.58847,-13.67096 -26.763972,-6.66482 -47.926198,-11.1286 -52.759313,-11.1286 -5.686421,0 -10.152945,3.36348 -11.392916,8.57936 -0.840695,3.53634 0.124091,59.225835 1.041952,60.143695 0.262953,0.26295 6.106888,-1.47967 12.986521,-3.87248 l 12.508424,-4.350575 1.1028,-4.37206 c 3.032,-12.02042 14.96536,-13.77932 23.96267,-3.53195 12.239492,13.940005 9.52715,37.404005 -4.32376,37.404005 -2.81953,0 -5.37926,-0.82707 -7.93535,-2.56399 -3.43653,-2.33518 -4.10422,-2.45825 -7.48214,-1.37919 -2.03989,0.65163 -4.08091,1.52494 -4.5356,1.94069 -1.22421,1.11936 9.19814,11.28715 13.82671,13.48899 5.68865,2.70613 15.46191,3.18166 21.10421,1.02685 5.741332,-2.19263 6.850792,-1.11898 2.560702,2.47806 -11.468202,9.61555 -28.106762,4.54112 -41.857812,-12.7658 l -1.8071,-2.27439 -9.32537,3.13901 c -5.128953,1.72646 -9.546499,3.71527 -9.816767,4.41958 -0.940806,2.4517 1.783681,9.67399 4.952318,13.12801 2.996628,3.26651 4.825071,3.93486 30.189819,11.03524 14.85,4.15698 29.925002,8.37905 33.500002,9.38238 7.87637,2.21051 14.93262,2.41738 19.3598,0.56759 z m -11.70481,-7.45177 c -2.4011,-2.65318 -2.19825,-7.17126 0.32196,-7.17126 2.5829,0 5.38344,4.28914 4.53859,6.95104 -0.80559,2.53819 -2.68572,2.62338 -4.86055,0.22022 z M 46.003737,140.78417 c -2.312272,-2.31227 -2.06038,-6.42857 0.393387,-6.42857 2.403083,0 4.369791,3.37039 3.523195,6.03777 -0.752881,2.37212 -1.827988,2.4794 -3.916582,0.3908 z M 97.424078,103.1056 c -1.67934,-6.576095 -3.07169,-9.800865 -6.75803,-15.652015 l -3.40339,-5.40202 4.49098,-4.49098 c 2.9586,-2.9586 5.03136,-4.28362 6.07468,-3.88326 4.058372,1.55734 12.657462,19.18353 14.121372,28.945625 l 0.70971,4.73265 h -7.075 -7.075002 z M 114.54543,75.772285 c -2.2585,-2.87122 -2.79097,-6.87971 -1.05628,-7.95181 2.13168,-1.31745 5.70424,0.54411 6.98687,3.64065 2.38291,5.75286 -2.18473,9.07325 -5.93059,4.31116 z m -70.517904,-24.5842 c -2.019294,-2.88295 -2.04468,-5.72278 -0.05797,-6.48515 2.316635,-0.88897 5.608581,2.61065 5.260088,5.59194 -0.387168,3.31215 -3.172809,3.79045 -5.202115,0.89321 z M 147.79282,155.00831 c 2.36441,-4.98263 2.18374,-7.60779 -0.47573,-6.91233 -2.0229,0.529 -2.08945,0.29578 -1.52474,-5.34362 0.32477,-3.24322 0.88284,-21.27459 1.24016,-40.06971 l 0.64967,-34.172945 2.49501,-0.62621 c 2.29499,-0.576 2.44302,-0.95137 1.84646,-4.68202 -1.61832,-10.12046 -10.44301,-19.52414 -17.8366,-19.00688 -3.16959,0.22174 -60.188732,-12.34383 -63.389592,-13.96947 -1.29956,-0.66001 -3.84276,-0.79669 -6.5,-0.34932 -8.453753,1.42326 -8.409389,2.02307 0.28631,3.87104 4.5917,0.97581 18.59475,4.25175 31.11788,7.27988 26.275352,6.35345 30.039532,8.19032 35.510942,17.32888 6.26807,10.46917 6.32945,11.08495 6.0093,60.282785 l -0.28958,44.49869 4.61051,-2.3369 c 3.0879,-1.56514 5.15195,-3.4779 6.25,-5.79187 z m 28.71207,-6.23392 c 12.15874,-5.90849 15.7169,-8.68864 18.14482,-14.17735 1.81344,-4.09958 2.05188,-7.88784 2.83887,-45.102865 0.47253,-22.34506 0.58933,-41.7549 0.25954,-43.13298 -1.63458,-6.83041 -8.94046,-15.77179 -14.66542,-17.94841 -1.23478,-0.46947 -17.16901,-3.62506 -35.40939,-7.01243 l -33.16434,-6.15885 -8.17381,1.75646 c -4.4956,0.96606 -9.125352,2.53624 -10.288332,3.48929 -2.0694,1.69585 -2.00784,1.73436 2.88548,1.80458 2.750002,0.0395 17.480952,2.8925 32.735452,6.34007 l 27.73545,6.26833 8.40385,13.47768 8.40385,13.47769 -0.49499,37 -0.49499,36.999995 -8.02437,8.15163 c -6.58078,6.68513 -7.68615,8.23841 -6.14431,8.634 4.19646,1.07669 6.42956,0.51788 15.45264,-3.86684 z M 51.932308,123.84295 c 17.05,-5.95175 31.53358,-11.2273 32.18572,-11.72345 2.31664,-1.7625 2.52011,-6.51016 0.47696,-11.12904 -3.55342,-8.033085 -2.43621,-8.160725 -38.755598,4.42795 -17.823895,6.17795 -32.392111,11.50366 -32.373813,11.83491 0.0183,0.33126 0.930541,1.67975 2.027207,2.99666 l 1.993938,2.39439 32.014577,-11.23534 c 17.608019,-6.17944 32.670779,-10.98353 33.472789,-10.67577 2.02034,0.77528 1.82986,4.35435 -0.29178,5.48254 -0.9625,0.51182 -15.47055,5.7357 -32.240115,11.60864 -16.769564,5.87293 -30.554497,10.75751 -30.633185,10.85461 -0.07869,0.0971 -0.471229,1.70661 -0.872314,3.57668 -0.569643,2.65598 -0.431065,3.29163 0.633184,2.90435 0.749337,-0.27268 15.31243,-5.36539 32.36243,-11.31713 z"
       id="path13230" />
  </g>
</svg>
