%TF.GenerationSoftware,KiCad,Pcbnew,7.0.11-7.0.11~ubuntu22.04.1*%
%TF.CreationDate,2024-08-26T12:19:36+02:00*%
%TF.ProjectId,MotorDriver-Elec,4d6f746f-7244-4726-9976-65722d456c65,rev?*%
%TF.SameCoordinates,Original*%
%TF.FileFunction,Soldermask,Top*%
%TF.FilePolarity,Negative*%
%FSLAX46Y46*%
G04 Gerber Fmt 4.6, Leading zero omitted, Abs format (unit mm)*
G04 Created by KiCad (PCBNEW 7.0.11-7.0.11~ubuntu22.04.1) date 2024-08-26 12:19:36*
%MOMM*%
%LPD*%
G01*
G04 APERTURE LIST*
G04 Aperture macros list*
%AMRoundRect*
0 Rectangle with rounded corners*
0 $1 Rounding radius*
0 $2 $3 $4 $5 $6 $7 $8 $9 X,Y pos of 4 corners*
0 Add a 4 corners polygon primitive as box body*
4,1,4,$2,$3,$4,$5,$6,$7,$8,$9,$2,$3,0*
0 Add four circle primitives for the rounded corners*
1,1,$1+$1,$2,$3*
1,1,$1+$1,$4,$5*
1,1,$1+$1,$6,$7*
1,1,$1+$1,$8,$9*
0 Add four rect primitives between the rounded corners*
20,1,$1+$1,$2,$3,$4,$5,0*
20,1,$1+$1,$4,$5,$6,$7,0*
20,1,$1+$1,$6,$7,$8,$9,0*
20,1,$1+$1,$8,$9,$2,$3,0*%
%AMHorizOval*
0 Thick line with rounded ends*
0 $1 width*
0 $2 $3 position (X,Y) of the first rounded end (center of the circle)*
0 $4 $5 position (X,Y) of the second rounded end (center of the circle)*
0 Add line between two ends*
20,1,$1,$2,$3,$4,$5,0*
0 Add two circle primitives to create the rounded ends*
1,1,$1,$2,$3*
1,1,$1,$4,$5*%
%AMRotRect*
0 Rectangle, with rotation*
0 The origin of the aperture is its center*
0 $1 length*
0 $2 width*
0 $3 Rotation angle, in degrees counterclockwise*
0 Add horizontal line*
21,1,$1,$2,0,0,$3*%
G04 Aperture macros list end*
%ADD10RoundRect,0.150000X-0.789471X0.282596X0.639471X-0.542404X0.789471X-0.282596X-0.639471X0.542404X0*%
%ADD11C,1.549400*%
%ADD12C,1.270000*%
%ADD13O,1.700000X1.700000*%
%ADD14R,1.700000X1.700000*%
%ADD15C,1.320800*%
%ADD16RotRect,1.800000X1.800000X330.000000*%
%ADD17C,1.800000*%
%ADD18RotRect,1.600000X1.600000X210.000000*%
%ADD19HorizOval,1.600000X0.000000X0.000000X0.000000X0.000000X0*%
%ADD20C,1.600000*%
%ADD21HorizOval,1.600000X0.000000X0.000000X0.000000X0.000000X0*%
G04 APERTURE END LIST*
D10*
%TO.C,UN2003LV1*%
X69570000Y-137520886D03*
X68935000Y-138620738D03*
X68300000Y-139720591D03*
X67665000Y-140820443D03*
X67030000Y-141920295D03*
X66395000Y-143020147D03*
X65760000Y-144120000D03*
X65125000Y-145219852D03*
X69411826Y-147694852D03*
X70046826Y-146595000D03*
X70681826Y-145495147D03*
X71316826Y-144395295D03*
X71951826Y-143295443D03*
X72586826Y-142195591D03*
X73221826Y-141095738D03*
X73856826Y-139995886D03*
%TD*%
D11*
%TO.C,Vmot1*%
X74065064Y-47285000D03*
X71900000Y-48535000D03*
%TD*%
D12*
%TO.C,PAA5160E1*%
X101655875Y-113396868D03*
X103387925Y-112396868D03*
X105119977Y-111396868D03*
X106852026Y-110396869D03*
%TD*%
D13*
%TO.C,U1*%
X145990000Y-119865000D03*
X145990000Y-117325000D03*
D14*
X145990000Y-114785000D03*
D13*
X145990000Y-112245000D03*
X145990000Y-109705000D03*
X145990000Y-107165000D03*
X145990000Y-104625000D03*
D14*
X145990000Y-102085000D03*
D13*
X145990000Y-99545000D03*
X145990000Y-97005000D03*
X145990000Y-94465000D03*
X145990000Y-91925000D03*
D14*
X145990000Y-89385000D03*
D13*
X145990000Y-86845000D03*
X145990000Y-84305000D03*
X145990000Y-81765000D03*
X145990000Y-79225000D03*
D14*
X145990000Y-76685000D03*
D13*
X145990000Y-74145000D03*
X145990000Y-71605000D03*
X128210000Y-71605000D03*
X128210000Y-74145000D03*
D14*
X128210000Y-76685000D03*
D13*
X128210000Y-79225000D03*
X128210000Y-81765000D03*
X128210000Y-84305000D03*
X128210000Y-86845000D03*
D14*
X128210000Y-89385000D03*
D13*
X128210000Y-91925000D03*
X128210000Y-94465000D03*
X128210000Y-97005000D03*
X128210000Y-99545000D03*
D14*
X128210000Y-102085000D03*
D13*
X128210000Y-104625000D03*
X128210000Y-107165000D03*
X128210000Y-109705000D03*
X128210000Y-112245000D03*
D14*
X128210000Y-114785000D03*
D13*
X128210000Y-117325000D03*
X128210000Y-119865000D03*
X139640000Y-71835000D03*
D14*
X137100000Y-71835000D03*
D13*
X134560000Y-71835000D03*
%TD*%
D15*
%TO.C,Limit_switch_3*%
X110317949Y-67238064D03*
X112050001Y-68238064D03*
X113782051Y-69238064D03*
%TD*%
D16*
%TO.C,Switch31*%
X48529969Y-139528479D03*
D17*
X50729674Y-140798479D03*
%TD*%
D18*
%TO.C,A1*%
X46765000Y-57507932D03*
D19*
X45495000Y-55308227D03*
X44225000Y-53108523D03*
X42955000Y-50908818D03*
X41685000Y-48709114D03*
X40415000Y-46509409D03*
X39145000Y-44309705D03*
X37875000Y-42110000D03*
X26876477Y-48460000D03*
X28146477Y-50659705D03*
X29416477Y-52859409D03*
X30686477Y-55059114D03*
X31956477Y-57258818D03*
X33226477Y-59458523D03*
X34496477Y-61658227D03*
X35766477Y-63857932D03*
%TD*%
D20*
%TO.C,R1*%
X60090000Y-133440000D03*
D21*
X56280000Y-140039114D03*
%TD*%
D18*
%TO.C,A3*%
X75840000Y-40707932D03*
D19*
X74570000Y-38508227D03*
X73300000Y-36308523D03*
X72030000Y-34108818D03*
X70760000Y-31909114D03*
X69490000Y-29709409D03*
X68220000Y-27509705D03*
X66950000Y-25310000D03*
X55951477Y-31660000D03*
X57221477Y-33859705D03*
X58491477Y-36059409D03*
X59761477Y-38259114D03*
X61031477Y-40458818D03*
X62301477Y-42658523D03*
X63571477Y-44858227D03*
X64841477Y-47057932D03*
%TD*%
D21*
%TO.C,R2*%
X62204998Y-143249558D03*
D20*
X66014998Y-136650444D03*
%TD*%
D18*
%TO.C,A2*%
X61308523Y-49112932D03*
D19*
X60038523Y-46913227D03*
X58768523Y-44713523D03*
X57498523Y-42513818D03*
X56228523Y-40314114D03*
X54958523Y-38114409D03*
X53688523Y-35914705D03*
X52418523Y-33715000D03*
X41420000Y-40065000D03*
X42690000Y-42264705D03*
X43960000Y-44464409D03*
X45230000Y-46664114D03*
X46500000Y-48863818D03*
X47770000Y-51063523D03*
X49040000Y-53263227D03*
X50310000Y-55462932D03*
%TD*%
D20*
%TO.C,R4*%
X54190000Y-130110000D03*
D21*
X50380000Y-136709114D03*
%TD*%
D16*
%TO.C,Switch22*%
X54379969Y-142868479D03*
D17*
X56579674Y-144138479D03*
%TD*%
D15*
%TO.C,Limit_switch_1*%
X41697948Y-65285001D03*
X43430000Y-64285000D03*
X45162050Y-63285001D03*
%TD*%
D20*
%TO.C,R6*%
X42920000Y-124060000D03*
D21*
X39110000Y-130659114D03*
%TD*%
D16*
%TO.C,Switch12*%
X31939969Y-130188479D03*
D17*
X34139674Y-131458479D03*
%TD*%
D20*
%TO.C,R3*%
X48475000Y-126990444D03*
D21*
X44665000Y-133589558D03*
%TD*%
D15*
%TO.C,Limit_switch_2*%
X68746936Y-160122949D03*
X67746935Y-161855001D03*
X66746936Y-163587051D03*
%TD*%
D16*
%TO.C,Switch21*%
X60269969Y-146228479D03*
D17*
X62469674Y-147498479D03*
%TD*%
D16*
%TO.C,Switch32*%
X42880295Y-136360000D03*
D17*
X45080000Y-137630000D03*
%TD*%
D16*
%TO.C,Switch11*%
X37349969Y-133218479D03*
D17*
X39549674Y-134488479D03*
%TD*%
D20*
%TO.C,R5*%
X37400000Y-120960000D03*
D21*
X33590000Y-127559114D03*
%TD*%
M02*
