%TF.GenerationSoftware,KiCad,Pcbnew,7.0.11-7.0.11~ubuntu22.04.1*%
%TF.CreationDate,2024-08-26T12:19:36+02:00*%
%TF.ProjectId,MotorDriver-Elec,4d6f746f-7244-4726-9976-65722d456c65,rev?*%
%TF.SameCoordinates,Original*%
%TF.FileFunction,Profile,NP*%
%FSLAX46Y46*%
G04 Gerber Fmt 4.6, Leading zero omitted, Abs format (unit mm)*
G04 Created by KiCad (PCBNEW 7.0.11-7.0.11~ubuntu22.04.1) date 2024-08-26 12:19:36*
%MOMM*%
%LPD*%
G01*
G04 APERTURE LIST*
%TA.AperFunction,Profile*%
%ADD10C,0.099999*%
%TD*%
G04 APERTURE END LIST*
D10*
X84860182Y-134471706D02*
X84774206Y-134480277D01*
X49001132Y-94774960D02*
X48990593Y-94814292D01*
X81657685Y-138246628D02*
X81665843Y-138331864D01*
X115656325Y-96271443D02*
X115626722Y-96334481D01*
X41034762Y-116997400D02*
X41120401Y-117008571D01*
X116994240Y-111483518D02*
X116957974Y-111502497D01*
X81687815Y-138502000D02*
X81702790Y-138587203D01*
X121724632Y-91357155D02*
X121728466Y-91271845D01*
X45684159Y-72982095D02*
X45717450Y-73005883D01*
X119073698Y-113355677D02*
X119087780Y-113317246D01*
X62735499Y-57657790D02*
X62657218Y-57693224D01*
X121674370Y-91781147D02*
X121688496Y-91696734D01*
X118422358Y-114120842D02*
X118457423Y-114099619D01*
X116970067Y-78890030D02*
X117006285Y-78908226D01*
X87869665Y-140158422D02*
X87922505Y-140090763D01*
X115547448Y-96527878D02*
X115524056Y-96593197D01*
X87700400Y-140352933D02*
X87758407Y-140289141D01*
X94952542Y-67794208D02*
X94914180Y-67808542D01*
X119535730Y-87910624D02*
X119456294Y-87880229D01*
X94146315Y-68456191D02*
X94126322Y-68492172D01*
X81758097Y-138838791D02*
X81780521Y-138921652D01*
X117597121Y-114319631D02*
X117638195Y-114321338D01*
X96561798Y-120175186D02*
X96533419Y-120144646D01*
X95326127Y-70707967D02*
X95367103Y-70710703D01*
X116179793Y-77714608D02*
X116184267Y-77755034D01*
X116182595Y-112644290D02*
X116178277Y-112684913D01*
X119165806Y-77700536D02*
X119168960Y-77659605D01*
X38309049Y-112139168D02*
X38275479Y-112218182D01*
X119000754Y-76868044D02*
X118981383Y-76832290D01*
X120305973Y-93976069D02*
X120374362Y-93924854D01*
X118988082Y-113541980D02*
X119007131Y-113505562D01*
X61934704Y-58143590D02*
X61868585Y-58198395D01*
X38726216Y-115638790D02*
X38778501Y-115707333D01*
X48949894Y-95343226D02*
X48954587Y-95383536D01*
X116290762Y-78149136D02*
X116307624Y-78187308D01*
X76801523Y-52665229D02*
X76761453Y-52673713D01*
X93952647Y-69035323D02*
X93948331Y-69075943D01*
X50393996Y-93694123D02*
X50352720Y-93695462D01*
X49236247Y-94299974D02*
X49212446Y-94333273D01*
X40154234Y-110309320D02*
X40075833Y-110342851D01*
X93942201Y-69198756D02*
X93942383Y-69239713D01*
X119168317Y-112712516D02*
X119164716Y-112671573D01*
X95367103Y-70710703D02*
X95407755Y-70711680D01*
X95957251Y-67803663D02*
X95918496Y-67789866D01*
X48037957Y-72022999D02*
X48044276Y-71983160D01*
X60646951Y-60564733D02*
X60640290Y-60649707D01*
X96812419Y-69822476D02*
X96828590Y-69784798D01*
X66544729Y-58328903D02*
X66481679Y-58270479D01*
X96929790Y-69021475D02*
X96924017Y-68980820D01*
X51889745Y-94801485D02*
X51878653Y-94761947D01*
X76489539Y-52763246D02*
X76452649Y-52780634D01*
X96533715Y-68183544D02*
X96505162Y-68154078D01*
X45012999Y-113760071D02*
X45017344Y-113674460D01*
X50109772Y-93730153D02*
X50070530Y-93740097D01*
X61493098Y-64461926D02*
X61500435Y-64388270D01*
X67039233Y-58914475D02*
X66991042Y-58844538D01*
X40809157Y-110104248D02*
X40724915Y-110122580D01*
X81901561Y-136647183D02*
X81870729Y-136727555D01*
X38026077Y-113731856D02*
X38031607Y-113817620D01*
X94838062Y-119800703D02*
X94800746Y-119817354D01*
X46553583Y-70264792D02*
X46512312Y-70266138D01*
X118238391Y-78953566D02*
X118276127Y-78937651D01*
X118238231Y-114210524D02*
X118276034Y-114194556D01*
X118313158Y-78920174D02*
X118350273Y-78902662D01*
X118263599Y-76185957D02*
X118225807Y-76170625D01*
X116325083Y-78224153D02*
X116343423Y-78260489D01*
X116337281Y-112137524D02*
X116319168Y-112174381D01*
X67545280Y-60083911D02*
X67525469Y-60000496D01*
X51614266Y-94256623D02*
X51588508Y-94225543D01*
X118161592Y-78982261D02*
X118200310Y-78968716D01*
X119171153Y-112876095D02*
X119172196Y-112835406D01*
X94599340Y-122414903D02*
X94633674Y-122437124D01*
X119212818Y-87798872D02*
X119130567Y-87775970D01*
X75797914Y-53380570D02*
X75778443Y-53416257D01*
X78480198Y-54709162D02*
X78495352Y-54671086D01*
X60457203Y-66440440D02*
X60513064Y-66391564D01*
X118276127Y-78937651D02*
X118313158Y-78920174D01*
X118559357Y-114030980D02*
X118592014Y-114006267D01*
X95083383Y-122630136D02*
X95123006Y-122639516D01*
X116770974Y-95058906D02*
X116711546Y-95095173D01*
X60619616Y-66289954D02*
X60671044Y-66236802D01*
X75596712Y-54041294D02*
X75594576Y-54081625D01*
X117080907Y-114200211D02*
X117118620Y-114215590D01*
X46971843Y-73207501D02*
X47010958Y-73195676D01*
X50083598Y-96649847D02*
X50123964Y-96658802D01*
X87814832Y-140224306D02*
X87869665Y-140158422D01*
X94458763Y-120041197D02*
X94428525Y-120068428D01*
X77100511Y-55636734D02*
X77141783Y-55635397D01*
X94490151Y-120014278D02*
X94458763Y-120041197D01*
X84157440Y-141318169D02*
X84239977Y-141340903D01*
X82073337Y-139635413D02*
X82114627Y-139710317D01*
X117006555Y-114165913D02*
X117043572Y-114183648D01*
X50813550Y-96645864D02*
X50853518Y-96635501D01*
X116324773Y-113481193D02*
X116343624Y-113517233D01*
X61560830Y-58493396D02*
X61503986Y-58557507D01*
X88623568Y-138360323D02*
X88632109Y-138275217D01*
X78576072Y-53904945D02*
X78568746Y-53865178D01*
X68420260Y-169689966D02*
X82925763Y-144566266D01*
X39321577Y-116255100D02*
X39389218Y-116307941D01*
X117676609Y-94712015D02*
X117608761Y-94726749D01*
X94013028Y-120716977D02*
X94001340Y-120755983D01*
X118200310Y-78968716D02*
X118238391Y-78953566D01*
X62814334Y-57624995D02*
X62735499Y-57657790D01*
X76141625Y-52976819D02*
X76110240Y-53003740D01*
X96329041Y-122383153D02*
X96361693Y-122358441D01*
X77209734Y-52640743D02*
X77168969Y-52637875D01*
X40128073Y-116742676D02*
X40207090Y-116776249D01*
X117501895Y-76074334D02*
X117461151Y-76079287D01*
X65155953Y-57518581D02*
X65073719Y-57494691D01*
X47848551Y-70997289D02*
X47827500Y-70962523D01*
X96295963Y-122407145D02*
X96329041Y-122383153D01*
X39599604Y-116457284D02*
X39672175Y-116503375D01*
X116130933Y-88358099D02*
X67593330Y-60334785D01*
X40449016Y-116863383D02*
X40531350Y-116889170D01*
X40367710Y-116836020D02*
X40449016Y-116863383D01*
X96514460Y-70260431D02*
X96543049Y-70231212D01*
X96393924Y-122332982D02*
X96425320Y-122306062D01*
X47913766Y-72412431D02*
X47930510Y-72375391D01*
X119947578Y-94208408D02*
X120021208Y-94164919D01*
X95813758Y-122626888D02*
X95853301Y-122615788D01*
X118070414Y-111375453D02*
X118030730Y-111365127D01*
X76735279Y-55593406D02*
X76775649Y-55602369D01*
X121716190Y-90844862D02*
X121707524Y-90759919D01*
X120441190Y-93871602D02*
X120506881Y-93817065D01*
X75609807Y-53918354D02*
X75604322Y-53959658D01*
X95110069Y-67749219D02*
X95070471Y-67759369D01*
X61503986Y-58557507D02*
X61448294Y-58621904D01*
X117340104Y-76101272D02*
X117300581Y-76111382D01*
X118225807Y-76170625D02*
X118187356Y-76155675D01*
X115029840Y-100548613D02*
X114897085Y-101343837D01*
X83675443Y-141136950D02*
X83754151Y-141171682D01*
X45526900Y-72851942D02*
X45556631Y-72879740D01*
X116173356Y-77510086D02*
X116172230Y-77550812D01*
X76527284Y-52747331D02*
X76489539Y-52763246D01*
X45587114Y-72907132D02*
X45618632Y-72932931D01*
X75696705Y-54683543D02*
X75712629Y-54721279D01*
X77583014Y-55554661D02*
X77621601Y-55540213D01*
X78590751Y-54231791D02*
X78592463Y-54190728D01*
X116580988Y-113850447D02*
X116608947Y-113880249D01*
X88487220Y-136916841D02*
X88460713Y-136835360D01*
X66985483Y-127502971D02*
X66232017Y-127178353D01*
X118187356Y-76155675D02*
X118148524Y-76141923D01*
X120506881Y-93817065D02*
X120570998Y-93760485D01*
X119171757Y-77536764D02*
X119170688Y-77496316D01*
X38888830Y-115839164D02*
X38946147Y-115902869D01*
X48018428Y-71413457D02*
X48008065Y-71373489D01*
X94633831Y-70476108D02*
X94668400Y-70497212D01*
X51485567Y-96270587D02*
X51514519Y-96241159D01*
X60983358Y-62390310D02*
X61021299Y-62466174D01*
X116994400Y-76226562D02*
X116958061Y-76245583D01*
X116922062Y-111522253D02*
X116886995Y-111543477D01*
X50070530Y-93740097D02*
X50030569Y-93750456D01*
X118422022Y-78863193D02*
X118457509Y-78842704D01*
X49813484Y-96554537D02*
X49850522Y-96571281D01*
X95476279Y-67712774D02*
X95435122Y-67712098D01*
X94189288Y-120348318D02*
X94167078Y-120382647D01*
X96931651Y-121350884D02*
X96935675Y-121310430D01*
X46006613Y-73159605D02*
X46045020Y-73173622D01*
X117542613Y-111327248D02*
X117501808Y-111331247D01*
X61237998Y-62878769D02*
X61206305Y-62812019D01*
X94013203Y-68754968D02*
X94001216Y-68794150D01*
X116301723Y-76953988D02*
X116285550Y-76991679D01*
X115144117Y-99750376D02*
X115029840Y-100548613D01*
X83993801Y-141265021D02*
X84075092Y-141292390D01*
X39997668Y-110380164D02*
X39920640Y-110417783D01*
X84350987Y-134551579D02*
X84268017Y-134572117D01*
X64908869Y-57452983D02*
X64825090Y-57434874D01*
X121729985Y-91185915D02*
X121729890Y-91100912D01*
X64991610Y-57472685D02*
X64908869Y-57452983D01*
X83107265Y-135115178D02*
X83037867Y-135165997D01*
X95044055Y-122619605D02*
X95083383Y-122630136D01*
X82159275Y-139784261D02*
X82204232Y-139857048D01*
X65633234Y-57703486D02*
X65555995Y-57667911D01*
X118410360Y-76258627D02*
X118374529Y-76239238D01*
X66940952Y-58774718D02*
X66889082Y-58706895D01*
X51788673Y-94533299D02*
X51770553Y-94496832D01*
X45000450Y-113159219D02*
X44990401Y-113074096D01*
X83084011Y-140788202D02*
X83154172Y-140838619D01*
X95892838Y-122604694D02*
X95931117Y-122591390D01*
X48058546Y-71696307D02*
X48055736Y-71655873D01*
X50123964Y-96658802D02*
X50163906Y-96667025D01*
X40531350Y-116889170D02*
X40613895Y-116911902D01*
X95995353Y-67817839D02*
X95957251Y-67803663D01*
X77250182Y-52644761D02*
X77209734Y-52640743D01*
X87580288Y-140475077D02*
X87641134Y-140414527D01*
X84689084Y-134490314D02*
X84604075Y-134502255D01*
X119007219Y-78248649D02*
X119025345Y-78211799D01*
X64402459Y-57376806D02*
X64317151Y-57371306D01*
X38548348Y-111683269D02*
X38503406Y-111756138D01*
X116483194Y-95254388D02*
X116428661Y-95297601D01*
X120282422Y-88323232D02*
X120212456Y-88273679D01*
X82903187Y-135273088D02*
X82838641Y-135328923D01*
X96795220Y-121820711D02*
X96811973Y-121783673D01*
X119154053Y-77332876D02*
X119147396Y-77292728D01*
X94369578Y-68164030D02*
X94340979Y-68193253D01*
X45178527Y-72350151D02*
X45195178Y-72387458D01*
X46349282Y-70280087D02*
X46308671Y-70285949D01*
X94599283Y-70453028D02*
X94633831Y-70476108D01*
X43891769Y-116105581D02*
X43954211Y-116046070D01*
X94776233Y-122518089D02*
X94813684Y-122535562D01*
X96919486Y-69470302D02*
X96926261Y-69430218D01*
X116271111Y-95434511D02*
X116221073Y-95482962D01*
X85346839Y-141454652D02*
X85432196Y-141448381D01*
X50244724Y-96680006D02*
X50285592Y-96684752D01*
X49106534Y-94508806D02*
X49088640Y-94545531D01*
X44774898Y-112245312D02*
X44742414Y-112165336D01*
X51870524Y-95650425D02*
X51882950Y-95610990D01*
X96940985Y-121228182D02*
X96941956Y-121187535D01*
X60947203Y-62312444D02*
X60983358Y-62390310D01*
X45894344Y-73109070D02*
X45931069Y-73126965D01*
X117829097Y-111329999D02*
X117788276Y-111326191D01*
X116175282Y-77468886D02*
X116173356Y-77510086D01*
X95612290Y-122664012D02*
X95653326Y-122658901D01*
X76815587Y-55610594D02*
X76855839Y-55617659D01*
X78409753Y-54856404D02*
X78428811Y-54819985D01*
X78522219Y-54593986D02*
X78534638Y-54554546D01*
X65485072Y-126836282D02*
X64747726Y-126476932D01*
X95123608Y-70678246D02*
X95163764Y-70686345D01*
X96191907Y-70511170D02*
X96226975Y-70489946D01*
X78299094Y-55028811D02*
X78322892Y-54995514D01*
X45078032Y-71996585D02*
X45084612Y-72036772D01*
X47834383Y-72556032D02*
X47856180Y-72520956D01*
X84075092Y-141292390D02*
X84157440Y-141318169D01*
X38067078Y-112961257D02*
X38053587Y-113046272D01*
X117608761Y-94726749D02*
X117540897Y-94742466D01*
X116179999Y-112971352D02*
X116183956Y-113012078D01*
X96445978Y-120059235D02*
X96414773Y-120032285D01*
X49094669Y-95853078D02*
X49113523Y-95889121D01*
X78551793Y-53785011D02*
X78541430Y-53745043D01*
X50653118Y-96677878D02*
X50693738Y-96672019D01*
X96939275Y-121269256D02*
X96940985Y-121228182D01*
X116194572Y-77306209D02*
X116188297Y-77346982D01*
X94703775Y-70517841D02*
X94739961Y-70538020D01*
X119007131Y-113505562D02*
X119025255Y-113468700D01*
X51383777Y-94025037D02*
X51350798Y-94000082D01*
X50326044Y-96688777D02*
X50366795Y-96691643D01*
X114746519Y-102136624D02*
X114577064Y-102924669D01*
X49313949Y-94204272D02*
X49287000Y-94235477D01*
X81693157Y-137390267D02*
X81679665Y-137475282D01*
X81652168Y-138160855D02*
X81657685Y-138246628D01*
X61242734Y-58894083D02*
X61195055Y-58965598D01*
X96215333Y-119888353D02*
X96179955Y-119867711D01*
X118090984Y-94661470D02*
X118021771Y-94666222D01*
X118916982Y-111984580D02*
X118893726Y-111951082D01*
X38020699Y-113559957D02*
X38022447Y-113645962D01*
X93942119Y-121159726D02*
X93942307Y-121200685D01*
X40724915Y-110122580D02*
X40641938Y-110143106D01*
X88024174Y-139951902D02*
X88072269Y-139881124D01*
X48980480Y-94854348D02*
X48972257Y-94894290D01*
X77059872Y-55635758D02*
X77100511Y-55636734D01*
X88589278Y-137334042D02*
X88572823Y-137249680D01*
X96414773Y-120032285D02*
X96382827Y-120005748D01*
X119036972Y-76941960D02*
X119019513Y-76905116D01*
X116571086Y-76545264D02*
X116543711Y-76575737D01*
X61414911Y-64897150D02*
X61432229Y-64825554D01*
X51561597Y-94194159D02*
X51533632Y-94164354D01*
X49469524Y-96334697D02*
X49500306Y-96360913D01*
X45144732Y-71268834D02*
X45131152Y-71307966D01*
X75623942Y-53837848D02*
X75616150Y-53878527D01*
X41976475Y-117001191D02*
X42062211Y-116988833D01*
X119172196Y-112835406D02*
X119172096Y-112794409D01*
X60516338Y-123967180D02*
X59847148Y-123492224D01*
X96912028Y-121472689D02*
X96919833Y-121432009D01*
X48055736Y-71655873D02*
X48052514Y-71614724D01*
X88177011Y-136210198D02*
X88133526Y-136136561D01*
X75692093Y-53601992D02*
X75678090Y-53640391D01*
X78509369Y-54632688D02*
X78522219Y-54593986D01*
X96107854Y-67868249D02*
X96070828Y-67850519D01*
X116256641Y-112325847D02*
X116243576Y-112364671D01*
X96329409Y-70422014D02*
X96362069Y-70397299D01*
X81653720Y-137731750D02*
X81649379Y-137817354D01*
X49633890Y-96456836D02*
X49668532Y-96477898D01*
X94668400Y-70497212D02*
X94703775Y-70517841D01*
X45618632Y-72932931D02*
X45650874Y-72958303D01*
X38381234Y-111983098D02*
X38343769Y-112060449D01*
X61370173Y-63222846D02*
X61346957Y-63152162D01*
X119108766Y-77133190D02*
X119096569Y-77094286D01*
X43954211Y-116046070D02*
X44015058Y-115985521D01*
X88526464Y-138866099D02*
X88548051Y-138783249D01*
X75665248Y-53679098D02*
X75652813Y-53718520D01*
X51924373Y-94961377D02*
X51917061Y-94921611D01*
X116653043Y-95132865D02*
X116595454Y-95171972D01*
X118712223Y-87691953D02*
X118627022Y-87680529D01*
X119123667Y-113199740D02*
X119133414Y-113159898D01*
X116450478Y-113692138D02*
X116474457Y-113725218D01*
X88422064Y-139193270D02*
X88450588Y-139112287D01*
X93964538Y-68954157D02*
X93957763Y-68994242D01*
X121130830Y-93117577D02*
X121177492Y-93045667D01*
X86134627Y-134603077D02*
X86051659Y-134579612D01*
X81646044Y-137989389D02*
X81647791Y-138075392D01*
X38447259Y-115206404D02*
X38488549Y-115281309D01*
X82007318Y-136412101D02*
X81969853Y-136489452D01*
X75678090Y-53640391D02*
X75665248Y-53679098D01*
X116752492Y-76379915D02*
X116720333Y-76405322D01*
X65860704Y-57821460D02*
X65785429Y-57780832D01*
X47543847Y-72897782D02*
X47574087Y-72870553D01*
X77980518Y-55345697D02*
X78013601Y-55321706D01*
X116189809Y-113052688D02*
X116196818Y-113093622D01*
X49146232Y-94437001D02*
X49126011Y-94473114D01*
X119109107Y-112390837D02*
X119096484Y-112351198D01*
X44658974Y-115078983D02*
X44696434Y-115001637D01*
X83471398Y-134887355D02*
X83395756Y-134929069D01*
X117556236Y-79059990D02*
X117597209Y-79062719D01*
X42508537Y-110174078D02*
X42425581Y-110150605D01*
X60692068Y-61499687D02*
X60708521Y-61584064D01*
X119322637Y-94483186D02*
X119403688Y-94455936D01*
X46308671Y-70285949D02*
X46268164Y-70293672D01*
X46228085Y-70302162D02*
X46188436Y-70311371D01*
X61887149Y-124869999D02*
X61195950Y-124426331D01*
X117182914Y-111403907D02*
X117144199Y-111417465D01*
X95030722Y-67769606D02*
X94991531Y-67781468D01*
X51329256Y-96402864D02*
X51361909Y-96378153D01*
X116196818Y-113093622D02*
X116204864Y-113132965D01*
X119112846Y-77982359D02*
X119123752Y-77942829D01*
X75723585Y-53526142D02*
X75707253Y-53563903D01*
X51938150Y-95083445D02*
X51934188Y-95042723D01*
X88368485Y-136594334D02*
X88333801Y-136515627D01*
X43849779Y-110918978D02*
X43784940Y-110862550D01*
X40207090Y-116776249D02*
X40287460Y-116807073D01*
X94106842Y-68527866D02*
X94088723Y-68564721D01*
X61146490Y-65581998D02*
X61180118Y-65516631D01*
X116474911Y-78468092D02*
X116500073Y-78500489D01*
X61061121Y-62541922D02*
X61103146Y-62616406D01*
X51776815Y-95877567D02*
X51795443Y-95840419D01*
X78290679Y-53232841D02*
X78265961Y-53200183D01*
X116172443Y-112807551D02*
X116172626Y-112848510D01*
X47088233Y-73168662D02*
X47126820Y-73154197D01*
X60769686Y-61832263D02*
X60794310Y-61913852D01*
X118869595Y-111918090D02*
X118844443Y-111885687D01*
X95123006Y-122639516D02*
X95163686Y-122647322D01*
X49245088Y-96096675D02*
X49269809Y-96129331D01*
X44015058Y-115985521D02*
X44074328Y-115923934D01*
X94521959Y-68027167D02*
X94490298Y-68053270D01*
X86024347Y-141347979D02*
X86107221Y-141325553D01*
X43695818Y-116272488D02*
X43762365Y-116218421D01*
X116552594Y-113819913D02*
X116580988Y-113850447D01*
X49776018Y-96537070D02*
X49813484Y-96554537D01*
X45354573Y-70871974D02*
X45330779Y-70905287D01*
X57287141Y-121438988D02*
X56678327Y-120889099D01*
X84831590Y-141446127D02*
X84917311Y-141452357D01*
X63298425Y-125707421D02*
X62587942Y-125296394D01*
X63976049Y-57369778D02*
X63891009Y-57374890D01*
X77426006Y-55599366D02*
X77465234Y-55589422D01*
X116419832Y-111996014D02*
X116397611Y-112030349D01*
X118613461Y-76396543D02*
X118581209Y-76371159D01*
X38851454Y-111266780D02*
X38796621Y-111332665D01*
X88400974Y-136674319D02*
X88368485Y-136594334D01*
X118160722Y-94659321D02*
X118090984Y-94661470D01*
X78137245Y-55214148D02*
X78166210Y-55184713D01*
X81957837Y-139404888D02*
X81994732Y-139482329D01*
X51909317Y-94881101D02*
X51900115Y-94841449D01*
X117068379Y-111448530D02*
X117030930Y-111465270D01*
X116892360Y-94990780D02*
X116831242Y-95024110D01*
X46282229Y-73239036D02*
X46322481Y-73246102D01*
X76121206Y-55278266D02*
X76152727Y-55304063D01*
X94196898Y-122010805D02*
X94220162Y-122044310D01*
X88133526Y-136136561D02*
X88087404Y-136063466D01*
X44696434Y-115001637D02*
X44731586Y-114923652D01*
X45338271Y-72635303D02*
X45362682Y-72669116D01*
X96542538Y-122192439D02*
X96569910Y-122161968D01*
X46471053Y-70267475D02*
X46430629Y-70270288D01*
X94286932Y-68254755D02*
X94261491Y-68287044D01*
X96852881Y-68703175D02*
X96838778Y-68665374D01*
X121612228Y-90256705D02*
X121589151Y-90174223D01*
X44824510Y-114683278D02*
X44851870Y-114601977D01*
X87777876Y-135652651D02*
X87720140Y-135588220D01*
X118457509Y-78842704D02*
X118492154Y-78820747D01*
X118030135Y-87664382D02*
X117944582Y-87669789D01*
X96828590Y-69784798D02*
X96843681Y-69746750D01*
X76695965Y-55582883D02*
X76735279Y-55593406D01*
X66217960Y-58054167D02*
X66148952Y-58004070D01*
X41291227Y-117023353D02*
X41377263Y-117028435D01*
X41491343Y-110031052D02*
X41405766Y-110033538D01*
X118386530Y-78883684D02*
X118422022Y-78863193D01*
X85687555Y-141418264D02*
X85772776Y-141403288D01*
X87990896Y-135921699D02*
X87940071Y-135852300D01*
X95733885Y-70683724D02*
X95773959Y-70675247D01*
X75728543Y-54759012D02*
X75746663Y-54795479D01*
X118613368Y-111653446D02*
X118581129Y-111628070D01*
X40233799Y-110276095D02*
X40154234Y-110309320D01*
X116752332Y-111636871D02*
X116720245Y-111662235D01*
X60646350Y-61161424D02*
X60654509Y-61246678D01*
X61444960Y-63508172D02*
X61428881Y-63436301D01*
X39920640Y-110417783D02*
X39845319Y-110458345D01*
X96935696Y-69348515D02*
X96938859Y-69307591D01*
X116176192Y-77673665D02*
X116179793Y-77714608D01*
X119456294Y-87880229D02*
X119375961Y-87851327D01*
X78265961Y-53200183D02*
X78239773Y-53168382D01*
X116173970Y-112889778D02*
X116176032Y-112930621D01*
X121619619Y-92031752D02*
X121639896Y-91948678D01*
X96262038Y-122429667D02*
X96295963Y-122407145D01*
X49005434Y-95624010D02*
X49017263Y-95663131D01*
X86994542Y-134988443D02*
X86920928Y-134943933D01*
X95653326Y-122658901D02*
X95693522Y-122652306D01*
X94220675Y-70083087D02*
X94244878Y-70116035D01*
X95271779Y-119683254D02*
X95230747Y-119688373D01*
X65555995Y-57667911D02*
X65476982Y-57634357D01*
X116375122Y-95342204D02*
X116322302Y-95387367D01*
X85289447Y-134463387D02*
X85203229Y-134461359D01*
X96425320Y-70345134D02*
X96455844Y-70317733D01*
X116863936Y-78828120D02*
X116898434Y-78849268D01*
X117030930Y-111465270D02*
X116994240Y-111483518D01*
X95285308Y-70704154D02*
X95326127Y-70707967D01*
X47996964Y-71333955D02*
X47984408Y-71295253D01*
X48958126Y-94974794D02*
X48952634Y-95016093D01*
X50720181Y-93718932D02*
X50679925Y-93711859D01*
X121161618Y-89245925D02*
X121113949Y-89174704D01*
X45285610Y-70974375D02*
X45264555Y-71009013D01*
X41663371Y-110034381D02*
X41577877Y-110031932D01*
X51940653Y-95125026D02*
X51938150Y-95083445D01*
X95839973Y-67765790D02*
X95800353Y-67755417D01*
X45072180Y-71955976D02*
X45078032Y-71996585D01*
X118445740Y-76279266D02*
X118410360Y-76258627D01*
X60851552Y-59650785D02*
X60823039Y-59731787D01*
X60993969Y-65834304D02*
X61033925Y-65773107D01*
X120793557Y-88775050D02*
X120734614Y-88713263D01*
X77128324Y-52636903D02*
X77086948Y-52636345D01*
X38778501Y-115707333D02*
X38832570Y-115773882D01*
X95204095Y-70693365D02*
X95244581Y-70699326D01*
X63720537Y-57391179D02*
X63635831Y-57401964D01*
X42231053Y-116957835D02*
X42314566Y-116939933D01*
X95800353Y-67755417D02*
X95760427Y-67746208D01*
X77621601Y-55540213D02*
X77660178Y-55525755D01*
X96083323Y-122529913D02*
X96119790Y-122511794D01*
X95931117Y-122591390D02*
X95970122Y-122577664D01*
X84945948Y-134466177D02*
X84860182Y-134471706D01*
X94926896Y-122582632D02*
X94966027Y-122596213D01*
X121563806Y-90092055D02*
X121537201Y-90011611D01*
X84604075Y-134502255D02*
X84519602Y-134516801D01*
X39065471Y-116026569D02*
X39127791Y-116085422D01*
X95879764Y-119738939D02*
X95840025Y-119727665D01*
X75778443Y-53416257D02*
X75758962Y-53451943D01*
X76643133Y-52705844D02*
X76604441Y-52718413D01*
X50571771Y-96687693D02*
X50612083Y-96682991D01*
X94490298Y-68053270D02*
X94458710Y-68079322D01*
X96940657Y-69144261D02*
X96937939Y-69102804D01*
X115418513Y-96997291D02*
X115406543Y-97065790D01*
X88646011Y-137931866D02*
X88644271Y-137845858D01*
X82881777Y-140629269D02*
X82947655Y-140684106D01*
X75635658Y-54488055D02*
X75646022Y-54528023D01*
X93966742Y-69483746D02*
X93974775Y-69524082D01*
X49040415Y-94658431D02*
X49026413Y-94696830D01*
X83913538Y-141236080D02*
X83993801Y-141265021D01*
X117542774Y-76070294D02*
X117501895Y-76074334D01*
X46878453Y-70299162D02*
X46838507Y-70290932D01*
X117261094Y-111379309D02*
X117221485Y-111390446D01*
X118685874Y-78669792D02*
X118715754Y-78641788D01*
X66232017Y-127178353D02*
X65485072Y-126836282D01*
X48008065Y-71373489D02*
X47996964Y-71333955D01*
X67362424Y-59514892D02*
X67328887Y-59436494D01*
X150969399Y-68370221D02*
X150969445Y-122044737D01*
X96119739Y-70549920D02*
X96156066Y-70530885D01*
X78555284Y-54475171D02*
X78563509Y-54435218D01*
X88285053Y-139507991D02*
X88321791Y-139431059D01*
X45388133Y-72701342D02*
X45413897Y-72732418D01*
X46430629Y-70270288D02*
X46389896Y-70274230D01*
X61491618Y-63798964D02*
X61482681Y-63725911D01*
X48990593Y-94814292D02*
X48980480Y-94854348D01*
X61473805Y-64607984D02*
X61484599Y-64535266D01*
X81665843Y-138331864D02*
X81675886Y-138416993D01*
X86511743Y-141182926D02*
X86590453Y-141148237D01*
X83037867Y-135165997D02*
X82970467Y-135218599D01*
X117828827Y-76072315D02*
X117788360Y-76069279D01*
X51180165Y-93887429D02*
X51144053Y-93867208D01*
X95394293Y-67713189D02*
X95353100Y-67714480D01*
X75921498Y-55072896D02*
X75947256Y-55103975D01*
X50489354Y-96692251D02*
X50530195Y-96690176D01*
X78422238Y-53440390D02*
X78403387Y-53404354D01*
X61447978Y-64752918D02*
X61462250Y-64681125D01*
X96393726Y-70371190D02*
X96425320Y-70345134D01*
X45250699Y-72497160D02*
X45271443Y-72533090D01*
X44977740Y-112989513D02*
X44963928Y-112904616D01*
X44151803Y-111223652D02*
X44094487Y-111159947D01*
X119058537Y-113393764D02*
X119073698Y-113355677D01*
X119872324Y-94248923D02*
X119947578Y-94208408D01*
X51709174Y-94390521D02*
X51686653Y-94356596D01*
X77722280Y-52774973D02*
X77685243Y-52758238D01*
X117869483Y-76077195D02*
X117828827Y-76072315D01*
X116668436Y-78678988D02*
X116699344Y-78706112D01*
X51455758Y-96298545D02*
X51485567Y-96270587D01*
X95680133Y-119692882D02*
X95639568Y-119686967D01*
X45195178Y-72387458D02*
X45212571Y-72424345D01*
X116730709Y-78731994D02*
X116762966Y-78757370D01*
X94888085Y-122567887D02*
X94926896Y-122582632D01*
X51919624Y-95450985D02*
X51925957Y-95411156D01*
X47930510Y-72375391D02*
X47946833Y-72337609D01*
X60640290Y-60649707D02*
X60636677Y-60734895D01*
X76391291Y-55461575D02*
X76427709Y-55480624D01*
X121334323Y-89541174D02*
X121293841Y-89465802D01*
X47036584Y-70342767D02*
X46997886Y-70329924D01*
X96533419Y-120144646D02*
X96504722Y-120115268D01*
X96295767Y-70445348D02*
X96329409Y-70422014D01*
X119133501Y-77902983D02*
X119142091Y-77862830D01*
X96686438Y-120336885D02*
X96663193Y-120303381D01*
X116562245Y-88081701D02*
X116487417Y-88122947D01*
X115626722Y-96334481D02*
X115598855Y-96398472D01*
X96903381Y-121511895D02*
X96912028Y-121472689D01*
X42258529Y-110110177D02*
X42174441Y-110093225D01*
X61110553Y-65646751D02*
X61146490Y-65581998D01*
X70070090Y-128620783D02*
X69289850Y-128368337D01*
X95516754Y-119675755D02*
X95475684Y-119674048D01*
X67131358Y-59058782D02*
X67086393Y-58985995D01*
X51008495Y-96582197D02*
X51046228Y-96566271D01*
X95557904Y-67716489D02*
X95516921Y-67713756D01*
X45271443Y-72533090D02*
X45293227Y-72567433D01*
X96757712Y-69932282D02*
X96777182Y-69896593D01*
X49458548Y-94060178D02*
X49428315Y-94087403D01*
X118624176Y-113980860D02*
X118655269Y-113954101D01*
X38244651Y-112298546D02*
X38214968Y-112379228D01*
X96878860Y-120742968D02*
X96867020Y-120703846D01*
X116343423Y-78260489D02*
X116363213Y-78296966D01*
X46918804Y-70308108D02*
X46878453Y-70299162D01*
X117761038Y-79061994D02*
X117801893Y-79058934D01*
X78428811Y-54819985D02*
X78447134Y-54783982D01*
X94438521Y-122288761D02*
X94469308Y-122314986D01*
X88511540Y-136999598D02*
X88487220Y-136916841D01*
X67293159Y-59359352D02*
X67255530Y-59282338D01*
X51857674Y-95689128D02*
X51870524Y-95650425D01*
X49621826Y-93936581D02*
X49588319Y-93959829D01*
X64747726Y-126476932D02*
X64018806Y-126100024D01*
X95530504Y-70709236D02*
X95571785Y-70706923D01*
X94813684Y-122535562D02*
X94850730Y-122552304D01*
X96671569Y-70071963D02*
X96694218Y-70037365D01*
X96284735Y-119932358D02*
X96250402Y-119910139D01*
X95366588Y-122671930D02*
X95407652Y-122673642D01*
X96789054Y-68552317D02*
X96770639Y-68516020D01*
X94408369Y-70299297D02*
X94438322Y-70326968D01*
X47380157Y-73020647D02*
X47414079Y-72998118D01*
X51647412Y-96085243D02*
X51671627Y-96052691D01*
X83322550Y-134973293D02*
X83249021Y-135018667D01*
X51893494Y-95571664D02*
X51903602Y-95531602D01*
X78156618Y-53078530D02*
X78127187Y-53049571D01*
X36441841Y-117729027D02*
X36442090Y-72686779D01*
X95800692Y-119717127D02*
X95760328Y-119708172D01*
X76882647Y-52651640D02*
X76842039Y-52657500D01*
X78045411Y-55295527D02*
X78077216Y-55269333D01*
X94071616Y-68601978D02*
X94055433Y-68639662D01*
X77544326Y-55567227D02*
X77583014Y-55554661D01*
X95231048Y-67727270D02*
X95190355Y-67733163D01*
X39148858Y-110957239D02*
X39085999Y-111016012D01*
X117221485Y-111390446D02*
X117182914Y-111403907D01*
X118491993Y-114077702D02*
X118526141Y-114055052D01*
X44461327Y-111634460D02*
X44414170Y-111562943D01*
X118525800Y-78797405D02*
X118559449Y-78774075D01*
X45362682Y-72669116D02*
X45388133Y-72701342D01*
X50800484Y-93736104D02*
X50760119Y-93727148D01*
X51119583Y-96530772D02*
X51156353Y-96511482D01*
X93942383Y-69239713D02*
X93943371Y-69280196D01*
X94875744Y-67822909D02*
X94838007Y-67838829D01*
X119921828Y-88094403D02*
X119846417Y-88053867D01*
X46634870Y-70266745D02*
X46594232Y-70265769D01*
X39672175Y-116503375D02*
X39745784Y-116547891D01*
X117624309Y-111322114D02*
X117583474Y-111324185D01*
X121722815Y-90929998D02*
X121716190Y-90844862D01*
X96843452Y-121707809D02*
X96857460Y-121669421D01*
X44132321Y-115860137D02*
X44188755Y-115795298D01*
X41120401Y-117008571D02*
X41205507Y-117017125D01*
X117679018Y-79064370D02*
X117719773Y-79063336D01*
X83623744Y-134809170D02*
X83546718Y-134846792D01*
X96889973Y-68820591D02*
X96878736Y-68781137D01*
X45919294Y-70409075D02*
X45882403Y-70426462D01*
X49269809Y-96129331D02*
X49295571Y-96160401D01*
X96351096Y-68019148D02*
X96318320Y-67995053D01*
X119025345Y-78211799D02*
X119042526Y-78174503D01*
X45740156Y-70508588D02*
X45706653Y-70531843D01*
X116231745Y-77146908D02*
X116220845Y-77186439D01*
X85517425Y-141440241D02*
X85602547Y-141430191D01*
X116580426Y-78592928D02*
X116608975Y-78622393D01*
X41548866Y-117031028D02*
X41634867Y-117029278D01*
X38743057Y-111400748D02*
X38691790Y-111469436D01*
X120374362Y-93924854D02*
X120441190Y-93871602D01*
X117719773Y-79063336D02*
X117761038Y-79061994D01*
X39696465Y-110544286D02*
X39623677Y-110589235D01*
X116852520Y-76308477D02*
X116818371Y-76331127D01*
X116319168Y-112174381D02*
X116301987Y-112211676D01*
X96900267Y-68860599D02*
X96889973Y-68820591D01*
X76030833Y-55194536D02*
X76060265Y-55223495D01*
X77046414Y-52637266D02*
X77005145Y-52638609D01*
X66991042Y-58844538D02*
X66940952Y-58774718D01*
X95004676Y-70647186D02*
X95044065Y-70658670D01*
X51757331Y-95913264D02*
X51776815Y-95877567D01*
X38214968Y-112379228D02*
X38187604Y-112460527D01*
X88615758Y-137503520D02*
X88603830Y-137418512D01*
X120484177Y-88480482D02*
X120418280Y-88426634D01*
X64656821Y-57405906D02*
X64572654Y-57393898D01*
X48943430Y-95260924D02*
X48945932Y-95302506D01*
X86590453Y-141148237D02*
X86668323Y-141112074D01*
X45717450Y-73005883D02*
X45751789Y-73028114D01*
X95853307Y-70654860D02*
X95892500Y-70642980D01*
X68420260Y-169689966D02*
X21936373Y-142852805D01*
X93952419Y-120996383D02*
X93948393Y-121036835D01*
X96588294Y-120205835D02*
X96561798Y-120175186D01*
X51839058Y-94645975D02*
X51823145Y-94608234D01*
X43195313Y-116604469D02*
X43269797Y-116562443D01*
X117106115Y-111432615D02*
X117068379Y-111448530D01*
X96070384Y-119811703D02*
X96033339Y-119794963D01*
X46162596Y-73211332D02*
X46201910Y-73221855D01*
X38594441Y-111610698D02*
X38548348Y-111683269D01*
X61351362Y-65108827D02*
X61374475Y-65038784D01*
X78534638Y-54554546D02*
X78545183Y-54515237D01*
X96008283Y-70601557D02*
X96046017Y-70585630D01*
X117393714Y-114295315D02*
X117434043Y-114302332D01*
X82204232Y-139857048D02*
X82252122Y-139928141D01*
X93994126Y-121564761D02*
X94005227Y-121604298D01*
X49398520Y-94115370D02*
X49369561Y-94144802D01*
X95083682Y-70669036D02*
X95123608Y-70678246D01*
X96828291Y-121745896D02*
X96843452Y-121707809D01*
X96694218Y-70037365D02*
X96716360Y-70003076D01*
X116427221Y-113658638D02*
X116450478Y-113692138D01*
X94040353Y-68677704D02*
X94026271Y-68716149D01*
X118715667Y-113898704D02*
X118744905Y-113870090D01*
X117665159Y-76064162D02*
X117624400Y-76065199D01*
X51882950Y-95610990D02*
X51893494Y-95571664D01*
X96361693Y-122358441D02*
X96393924Y-122332982D01*
X47075719Y-70356353D02*
X47036584Y-70342767D01*
X96033339Y-119794963D02*
X95995249Y-119779801D01*
X76604441Y-52718413D02*
X76565434Y-52732132D01*
X119692739Y-87978355D02*
X119614964Y-87944064D01*
X86693974Y-134821758D02*
X86616620Y-134784288D01*
X96622668Y-122099251D02*
X96647613Y-122066268D01*
X94739961Y-70538020D02*
X94776184Y-70556212D01*
X38020844Y-113473844D02*
X38020699Y-113559957D01*
X51911819Y-95491664D02*
X51919624Y-95450985D01*
X67525469Y-60000496D02*
X67503053Y-59917632D01*
X116285880Y-112249331D02*
X116270725Y-112287405D01*
X51250193Y-93929114D02*
X51215541Y-93908067D01*
X117678856Y-114321324D02*
X117720104Y-114320973D01*
X116763078Y-114015148D02*
X116796370Y-114038938D01*
X51934188Y-95042723D02*
X51929492Y-95002409D01*
X42342734Y-110129025D02*
X42258529Y-110110177D01*
X40865036Y-116969281D02*
X40950171Y-116984645D01*
X116628414Y-76486745D02*
X116599608Y-76516089D01*
X82173268Y-136111965D02*
X82129491Y-136185143D01*
X96899899Y-120821736D02*
X96889954Y-120782509D01*
X45019790Y-113588973D02*
X45019935Y-113502859D01*
X94727532Y-67892834D02*
X94692041Y-67913325D01*
X77685243Y-52758238D02*
X77646736Y-52742332D01*
X118581129Y-111628070D02*
X118548345Y-111603987D01*
X60654509Y-61246678D02*
X60665280Y-61331374D01*
X45070963Y-71588101D02*
X45066201Y-71628969D01*
X94094971Y-69872142D02*
X94113385Y-69908439D01*
X118827040Y-113778670D02*
X118852988Y-113747076D01*
X44921960Y-114354250D02*
X44940809Y-114270045D01*
X49565846Y-96410086D02*
X49599130Y-96433878D01*
X51770553Y-94496832D02*
X51750975Y-94461215D01*
X77913515Y-55392204D02*
X77947434Y-55369678D01*
X49153117Y-95961089D02*
X49174901Y-95995432D01*
X40697481Y-116933064D02*
X40780946Y-116952326D01*
X118763748Y-76535602D02*
X118735199Y-76506141D01*
X94692041Y-67913325D02*
X94656623Y-67933774D01*
X38098668Y-112792462D02*
X38081710Y-112876553D01*
X56678327Y-120889099D02*
X56678636Y-69496981D01*
X94532924Y-70405306D02*
X94565705Y-70429405D01*
X44579731Y-115231295D02*
X44620358Y-115156033D01*
X96179955Y-119867711D02*
X96144269Y-119848229D01*
X96867020Y-120703846D02*
X96853302Y-120664842D01*
X96485351Y-122250874D02*
X96514728Y-122222183D01*
X93954231Y-69402979D02*
X93960008Y-69443639D01*
X116954254Y-94958961D02*
X116892360Y-94990780D01*
X117043236Y-78926002D02*
X117081072Y-78943264D01*
X96882735Y-121591279D02*
X96893279Y-121551955D01*
X93994051Y-69603869D02*
X94005299Y-69643325D01*
X94270039Y-70148437D02*
X94295724Y-70179551D01*
X51622460Y-96118228D02*
X51647412Y-96085243D01*
X81935131Y-136568167D02*
X81901561Y-136647183D01*
X86189235Y-141301663D02*
X86271455Y-141274732D01*
X93945179Y-69116870D02*
X93942819Y-69157329D01*
X121409373Y-89694351D02*
X121372553Y-89616866D01*
X38162559Y-112542450D02*
X38139089Y-112625412D01*
X60794310Y-61913852D02*
X60820823Y-61995327D01*
X96144269Y-119848229D02*
X96107848Y-119829182D01*
X95489570Y-122673271D02*
X95530404Y-122671200D01*
X46931875Y-73217865D02*
X46971843Y-73207501D01*
X118492154Y-78820747D02*
X118525800Y-78797405D01*
X66078157Y-57955958D02*
X66007067Y-57909028D01*
X118044020Y-79017885D02*
X118083410Y-79006872D01*
X116595454Y-95171972D02*
X116538793Y-95212513D01*
X117690220Y-87700296D02*
X117606036Y-87714687D01*
X88390076Y-139273331D02*
X88422064Y-139193270D01*
X96941774Y-121146586D02*
X96940437Y-121105314D01*
X118592179Y-78749306D02*
X118624264Y-78723946D01*
X45810425Y-70466054D02*
X45774495Y-70486798D01*
X77263768Y-55626557D02*
X77304809Y-55621433D01*
X82252122Y-139928141D02*
X82300741Y-139998816D01*
X96070828Y-67850519D02*
X96033499Y-67833943D01*
X48044276Y-71983160D02*
X48049772Y-71941868D01*
X118744993Y-78613178D02*
X118773085Y-78583268D01*
X119641997Y-94361375D02*
X119719494Y-94325424D01*
X118624264Y-78723946D02*
X118655352Y-78697188D01*
X49850522Y-96571281D02*
X49889034Y-96587174D01*
X78463878Y-54746943D02*
X78480198Y-54709162D01*
X94088849Y-120526555D02*
X94072107Y-120563597D01*
X45496735Y-72823406D02*
X45526900Y-72851942D01*
X117923617Y-114300261D02*
X117963831Y-114292690D01*
X48974765Y-95504850D02*
X48983968Y-95544501D01*
X51929492Y-95002409D02*
X51924373Y-94961377D01*
X119076660Y-94554813D02*
X119159081Y-94532647D01*
X82631002Y-140394728D02*
X82691550Y-140455578D01*
X44928414Y-112736430D02*
X44907879Y-112653454D01*
X87454159Y-140591897D02*
X87517860Y-140534581D01*
X67394492Y-59594147D02*
X67362424Y-59514892D01*
X43974428Y-111036670D02*
X43912413Y-110976665D01*
X47273946Y-73083922D02*
X47310299Y-73063912D01*
X118486558Y-94649137D02*
X118571774Y-94641973D01*
X116864000Y-114084945D02*
X116899067Y-114106743D01*
X118706033Y-111734861D02*
X118675648Y-111706457D01*
X60636146Y-60991360D02*
X60640514Y-61076821D01*
X47310299Y-73063912D02*
X47345066Y-73042861D01*
X75896784Y-55040244D02*
X75921498Y-55072896D01*
X95957174Y-119764634D02*
X95918465Y-119751787D01*
X44764725Y-114843905D02*
X44795980Y-114764266D01*
X85375059Y-134467734D02*
X85289447Y-134463387D01*
X61459131Y-63580141D02*
X61444960Y-63508172D01*
X44907879Y-112653454D02*
X44885463Y-112570591D01*
X76217527Y-55353646D02*
X76250819Y-55377434D01*
X95230747Y-119688373D02*
X95190553Y-119694956D01*
X82369126Y-135829742D02*
X82317867Y-135898445D01*
X118791681Y-111823263D02*
X118763665Y-111792514D01*
X95190355Y-67733163D02*
X95150140Y-67740735D01*
X95720264Y-67738122D02*
X95679939Y-67731089D01*
X76452649Y-52780634D02*
X76415761Y-52798019D01*
X116172417Y-77591770D02*
X116173906Y-77632954D01*
X38275479Y-112218182D02*
X38244651Y-112298546D01*
X42590462Y-110199124D02*
X42508537Y-110174078D01*
X94244878Y-70116035D02*
X94270039Y-70148437D01*
X95271435Y-67721546D02*
X95231048Y-67727270D01*
X83177941Y-135066555D02*
X83107265Y-135115178D01*
X62070342Y-58039853D02*
X62002106Y-58090992D01*
X76343790Y-52837607D02*
X76308597Y-52857926D01*
X93957600Y-120956239D02*
X93952419Y-120996383D01*
X96866463Y-68742263D02*
X96852881Y-68703175D01*
X78518500Y-53666387D02*
X78504780Y-53627388D01*
X76682247Y-52694018D02*
X76643133Y-52705844D01*
X81969853Y-136489452D02*
X81935131Y-136568167D01*
X88219464Y-136285409D02*
X88177011Y-136210198D01*
X44997478Y-113931324D02*
X45006037Y-113846218D01*
X121476881Y-89850906D02*
X121444003Y-89772123D01*
X86920928Y-134943933D02*
X86846290Y-134900991D01*
X40476743Y-110190584D02*
X40395260Y-110217083D01*
X117859489Y-87677852D02*
X117774581Y-87687762D01*
X117745287Y-94699744D02*
X117676609Y-94712015D01*
X39769679Y-110500060D02*
X39696465Y-110544286D01*
X41577877Y-110031932D02*
X41491343Y-110031052D01*
X96938359Y-121064469D02*
X96934396Y-121023746D01*
X121589151Y-90174223D02*
X121563806Y-90092055D01*
X82947655Y-140684106D02*
X83015309Y-140736941D01*
X88643423Y-138103468D02*
X88645457Y-138017239D01*
X49522170Y-94007807D02*
X49490367Y-94033992D01*
X38832570Y-115773882D02*
X38888830Y-115839164D01*
X49261619Y-94267732D02*
X49236247Y-94299974D01*
X117950707Y-111347777D02*
X117910379Y-111340750D01*
X119159081Y-94532647D02*
X119241024Y-94508798D01*
X94295775Y-122141431D02*
X94322694Y-122172813D01*
X119154389Y-112590522D02*
X119147234Y-112549686D01*
X78587148Y-54272968D02*
X78590751Y-54231791D01*
X93942307Y-121200685D02*
X93943639Y-121241949D01*
X119100936Y-78021506D02*
X119112846Y-77982359D01*
X117944582Y-87669789D02*
X117859489Y-87677852D01*
X40977998Y-110073246D02*
X40893524Y-110087791D01*
X116285550Y-76991679D02*
X116270385Y-77029758D01*
X119087780Y-113317246D02*
X119100779Y-113278451D01*
X118946802Y-113612738D02*
X118967667Y-113577229D01*
X117473434Y-94759911D02*
X117406880Y-94779751D01*
X45845615Y-70445737D02*
X45810425Y-70466054D01*
X50760119Y-93727148D02*
X50720181Y-93718932D01*
X117474692Y-79051334D02*
X117515422Y-79056177D01*
X118276034Y-114194556D02*
X118313430Y-114177860D01*
X77182621Y-55633323D02*
X77223042Y-55630513D01*
X118445655Y-111536176D02*
X118410196Y-111515584D01*
X94469241Y-70354099D02*
X94500604Y-70379979D01*
X60284958Y-66578992D02*
X60343356Y-66534511D01*
X61508666Y-64019837D02*
X61504242Y-63946135D01*
X47512042Y-72923975D02*
X47543847Y-72897782D01*
X119161917Y-77741888D02*
X119165806Y-77700536D01*
X96770639Y-68516020D02*
X96751270Y-68480282D01*
X119403688Y-94455936D02*
X119483845Y-94426286D01*
X44620358Y-115156033D02*
X44658974Y-115078983D01*
X87184373Y-140805337D02*
X87253776Y-140754513D01*
X116235546Y-113252124D02*
X116247791Y-113291979D01*
X94153498Y-69980107D02*
X94174764Y-70014749D01*
X95612166Y-70702181D02*
X95652990Y-70697190D01*
X60634824Y-60906079D02*
X60636146Y-60991360D01*
X117380183Y-76092800D02*
X117340104Y-76101272D01*
X121113949Y-89174704D02*
X121064869Y-89105274D01*
X117406880Y-94779751D02*
X117340380Y-94800557D01*
X44398097Y-115522895D02*
X44446193Y-115452118D01*
X47688452Y-72753682D02*
X47714982Y-72721751D01*
X49212446Y-94333273D02*
X49189077Y-94367291D01*
X96455968Y-122279571D02*
X96485351Y-122250874D01*
X118880514Y-87718940D02*
X118796744Y-87704743D01*
X49055576Y-94620342D02*
X49040415Y-94658431D01*
X51878653Y-94761947D02*
X51866819Y-94722820D01*
X78474833Y-53551806D02*
X78458493Y-53513334D01*
X95530404Y-122671200D02*
X95571568Y-122667974D01*
X85088832Y-141459889D02*
X85174949Y-141460031D01*
X40287460Y-116807073D02*
X40367710Y-116836020D01*
X75632175Y-53797909D02*
X75623942Y-53837848D01*
X119087868Y-78060334D02*
X119100936Y-78021506D01*
X47049646Y-73183109D02*
X47088233Y-73168662D01*
X44593374Y-111856412D02*
X44550925Y-111781194D01*
X93972464Y-120875311D02*
X93964236Y-120915257D01*
X96597093Y-70169705D02*
X96622547Y-70137416D01*
X75938689Y-53179050D02*
X75913310Y-53211287D01*
X116762966Y-78757370D02*
X116796164Y-78782195D01*
X45135594Y-72235138D02*
X45148890Y-72273412D01*
X116199822Y-88307574D02*
X116130933Y-88358099D01*
X82129491Y-136185143D02*
X82086979Y-136260527D01*
X117340380Y-94800557D02*
X117274511Y-94822941D01*
X77531244Y-52701481D02*
X77491499Y-52690203D01*
X60882807Y-59571161D02*
X60851552Y-59650785D01*
X47706418Y-70796823D02*
X47679187Y-70766594D01*
X94850730Y-122552304D02*
X94888085Y-122567887D01*
X38187604Y-112460527D02*
X38162559Y-112542450D01*
X42174441Y-110093225D02*
X42090460Y-110078167D01*
X51191966Y-96491898D02*
X51226747Y-96470840D01*
X116210670Y-77225548D02*
X116202078Y-77265704D01*
X119123752Y-77942829D02*
X119133501Y-77902983D01*
X117209113Y-94847007D02*
X117144424Y-94872626D01*
X42990541Y-110355278D02*
X42912561Y-110320141D01*
X41834696Y-110044962D02*
X41748982Y-110038728D01*
X118161509Y-114239173D02*
X118200222Y-114225630D01*
X96751270Y-68480282D02*
X96730526Y-68444353D01*
X47368513Y-70501135D02*
X47333870Y-70480075D01*
X51542751Y-96212146D02*
X51570127Y-96181682D01*
X61505886Y-64314734D02*
X61509447Y-64241311D01*
X88640633Y-137759967D02*
X88634369Y-137674625D01*
X118772999Y-113840183D02*
X118800375Y-113809711D01*
X87475123Y-135348408D02*
X87410290Y-135291976D01*
X38503406Y-111756138D02*
X38460901Y-111831519D01*
X78346263Y-54961494D02*
X78368485Y-54927160D01*
X118003978Y-114284177D02*
X118043935Y-114274795D01*
X119053320Y-112236311D02*
X119036813Y-112198916D01*
X67593330Y-60334785D02*
X67579934Y-60250624D01*
X118374529Y-76239238D02*
X118337957Y-76220265D01*
X40893524Y-110087791D02*
X40809157Y-110104248D01*
X48945932Y-95302506D02*
X48949894Y-95343226D01*
X50407444Y-96692621D02*
X50448829Y-96693166D01*
X51425534Y-96325773D02*
X51455758Y-96298545D01*
X87661059Y-135526522D02*
X87600505Y-135465675D01*
X45067784Y-71914502D02*
X45072180Y-71955976D01*
X85968806Y-134558024D02*
X85884607Y-134539186D01*
X77465234Y-55589422D02*
X77505199Y-55579060D01*
X62354946Y-57852077D02*
X62282473Y-57895876D01*
X116182755Y-77387333D02*
X116178364Y-77428000D01*
X45017344Y-113674460D02*
X45019790Y-113588973D01*
X67174847Y-59132412D02*
X67131358Y-59058782D01*
X121984034Y-68370550D02*
X150969399Y-68370221D01*
X59847148Y-123492224D02*
X59189547Y-123001782D01*
X60985938Y-59336614D02*
X60949634Y-59414282D01*
X87517860Y-140534581D02*
X87580288Y-140475077D01*
X119025255Y-113468700D02*
X119042372Y-113431453D01*
X60747693Y-61750133D02*
X60769686Y-61832263D01*
X77867236Y-52851628D02*
X77831857Y-52830983D01*
X95639568Y-119686967D02*
X95598698Y-119682219D01*
X66723756Y-58511988D02*
X66666144Y-58449446D01*
X82032356Y-139559350D02*
X82073337Y-139635413D01*
X116235408Y-77995339D02*
X116247603Y-78034245D01*
X50969913Y-96596641D02*
X51008495Y-96582197D01*
X65398077Y-57602670D02*
X65318132Y-57572570D01*
X93990801Y-120795315D02*
X93980688Y-120835371D01*
X46838507Y-70290932D02*
X46798251Y-70283860D01*
X66352841Y-58159094D02*
X66285924Y-58105844D01*
X46689674Y-73258961D02*
X46730412Y-73254998D01*
X62428994Y-57809325D02*
X62354946Y-57852077D01*
X88645457Y-138017239D02*
X88646011Y-137931866D01*
X45014556Y-113330960D02*
X45008294Y-113245620D01*
X118300846Y-111459448D02*
X118263443Y-111442912D01*
X64146163Y-57366390D02*
X64061202Y-57366557D01*
X49554826Y-93983086D02*
X49522170Y-94007807D01*
X48954587Y-95383536D02*
X48959710Y-95424573D01*
X94072107Y-120563597D02*
X94055784Y-120601365D01*
X45098810Y-71426356D02*
X45089851Y-71466714D01*
X75947256Y-55103975D02*
X75974180Y-55135351D01*
X47201438Y-73120887D02*
X47237909Y-73102773D01*
X87137883Y-135082634D02*
X87067107Y-135034539D01*
X85546310Y-134483252D02*
X85460053Y-134474384D01*
X66835439Y-58641083D02*
X66780340Y-58576103D01*
X117869819Y-111334844D02*
X117829097Y-111329999D01*
X93945715Y-121282792D02*
X93949679Y-121323515D01*
X85800517Y-134522228D02*
X85716544Y-134507172D01*
X95813567Y-70665092D02*
X95853307Y-70654860D01*
X94727513Y-119854754D02*
X94691892Y-119874341D01*
X94428186Y-68106715D02*
X94398309Y-68134730D01*
X116886995Y-111543477D02*
X116852356Y-111565434D01*
X76285158Y-55399665D02*
X76320223Y-55421452D01*
X84660845Y-141426403D02*
X84746485Y-141437575D01*
X95558241Y-119678201D02*
X95516754Y-119675755D01*
X42726301Y-116816593D02*
X42806403Y-116785992D01*
X66666144Y-58449446D02*
X66605597Y-58388598D01*
X76273521Y-52880142D02*
X76240021Y-52903395D01*
X47651952Y-70736376D02*
X47623253Y-70706976D01*
X88431574Y-136754417D02*
X88400974Y-136674319D01*
X47113368Y-70370781D02*
X47075719Y-70356353D01*
X38343769Y-112060449D02*
X38309049Y-112139168D01*
X117353711Y-79030267D02*
X117393802Y-79038404D01*
X77843664Y-55435465D02*
X77878434Y-55414413D01*
X84576249Y-141413653D02*
X84660845Y-141426403D01*
X96455844Y-70317733D02*
X96485720Y-70289737D01*
X96893649Y-69590812D02*
X96903388Y-69550964D01*
X78221811Y-55125239D02*
X78248350Y-55093302D01*
X94532750Y-122367315D02*
X94566054Y-122391109D01*
X60401637Y-66488149D02*
X60457203Y-66440440D01*
X49692100Y-93894053D02*
X49656910Y-93914370D01*
X81737147Y-138755080D02*
X81758097Y-138838791D01*
X47731862Y-70829053D02*
X47706418Y-70796823D01*
X67503053Y-59917632D02*
X67479163Y-59835620D01*
X95150140Y-67740735D02*
X95110069Y-67749219D01*
X121385769Y-92673189D02*
X121421774Y-92595690D01*
X61273534Y-65316053D02*
X61301266Y-65247263D01*
X81679665Y-137475282D02*
X81669234Y-137560500D01*
X38234404Y-114737829D02*
X38265003Y-114817927D01*
X118818405Y-76596921D02*
X118791342Y-76565617D01*
X75826592Y-54938987D02*
X75849107Y-54972917D01*
X121639896Y-91948678D02*
X121658005Y-91864900D01*
X84435240Y-134533248D02*
X84350987Y-134551579D01*
X45089851Y-71466714D02*
X45082781Y-71506976D01*
X45458922Y-70746238D02*
X45431541Y-70776696D01*
X121729890Y-91100912D02*
X121727333Y-91015375D01*
X116796164Y-78782195D02*
X116829821Y-78805785D01*
X78338648Y-53298996D02*
X78315399Y-53265489D01*
X95244507Y-122660294D02*
X95285382Y-122665051D01*
X50366795Y-96691643D02*
X50407444Y-96692621D01*
X116269777Y-88258389D02*
X116199822Y-88307574D01*
X38053587Y-113046272D02*
X38043156Y-113131493D01*
X96823300Y-68627382D02*
X96806865Y-68589950D01*
X94776184Y-70556212D02*
X94813199Y-70573939D01*
X116466775Y-111928824D02*
X116442833Y-111962206D01*
X121572711Y-92195706D02*
X121597245Y-92114077D01*
X118735113Y-111763051D02*
X118706033Y-111734861D01*
X63301019Y-57467193D02*
X63218466Y-57488453D01*
X44851870Y-114601977D02*
X44877656Y-114519639D01*
X76308597Y-52857926D02*
X76273521Y-52880142D01*
X118514775Y-76323484D02*
X118480658Y-76301150D01*
X116175128Y-112725839D02*
X116173422Y-112766911D01*
X96941644Y-69184754D02*
X96940657Y-69144261D01*
X88599644Y-138530556D02*
X88612384Y-138445963D01*
X95353100Y-67714480D02*
X95312243Y-67717542D01*
X45061756Y-71832942D02*
X45064252Y-71874510D01*
X61499081Y-63872849D02*
X61491618Y-63798964D01*
X81646187Y-137903272D02*
X81646044Y-137989389D01*
X82514915Y-140268168D02*
X82572219Y-140331868D01*
X88205082Y-139660721D02*
X88246435Y-139585040D01*
X118960980Y-112054006D02*
X118939206Y-112018673D01*
X63635831Y-57401964D02*
X63551667Y-57415353D01*
X118122522Y-114251908D02*
X118161509Y-114239173D01*
X115239718Y-98949235D02*
X115144117Y-99750376D01*
X62282473Y-57895876D02*
X62210533Y-57942308D01*
X78541430Y-53745043D02*
X78530333Y-53705507D01*
X38154438Y-114492649D02*
X38179486Y-114574974D01*
X96926261Y-69430218D02*
X96931387Y-69389131D01*
X50044270Y-96639314D02*
X50083598Y-96649847D01*
X94522380Y-119988834D02*
X94490151Y-120014278D01*
X60817762Y-66070957D02*
X60864021Y-66013935D01*
X78560998Y-53824660D02*
X78551793Y-53785011D01*
X95393779Y-119674411D02*
X95352930Y-119676488D01*
X86970244Y-140947534D02*
X87042608Y-140901852D01*
X62210533Y-57942308D02*
X62139443Y-57990197D01*
X96941956Y-121187535D02*
X96941774Y-121146586D01*
X40950171Y-116984645D02*
X41034762Y-116997400D01*
X96788881Y-120514322D02*
X96770762Y-120477857D01*
X44414170Y-111562943D02*
X44364813Y-111492696D01*
X44958492Y-114185531D02*
X44973553Y-114101556D01*
X119294664Y-87823963D02*
X119212818Y-87798872D01*
X96822930Y-120588525D02*
X96806279Y-120551214D01*
X119769890Y-88014953D02*
X119692739Y-87978355D01*
X61180118Y-65516631D02*
X61213326Y-65450539D01*
X118705773Y-76477184D02*
X118675809Y-76449502D01*
X121293841Y-89465802D02*
X121251602Y-89391459D01*
X116307391Y-113444304D02*
X116324773Y-113481193D01*
X47126820Y-73154197D02*
X47164128Y-73137548D01*
X87922505Y-140090763D02*
X87973763Y-140022074D01*
X121222929Y-92973487D02*
X121266216Y-92899611D01*
X76355594Y-55442083D02*
X76391291Y-55461575D01*
X47740780Y-72690233D02*
X47765735Y-72657254D01*
X96663353Y-68341379D02*
X96639153Y-68308430D01*
X96180249Y-67906619D02*
X96144064Y-67886440D01*
X95325828Y-122669065D02*
X95366588Y-122671930D01*
X47501373Y-70597468D02*
X47469131Y-70572096D01*
X118374442Y-111496151D02*
X118337803Y-111477218D01*
X94850535Y-70590511D02*
X94888671Y-70606621D01*
X96425320Y-122306062D02*
X96455968Y-122279571D01*
X116322302Y-95387367D02*
X116271111Y-95434511D01*
X85602547Y-141430191D02*
X85687555Y-141418264D01*
X95639442Y-67725134D02*
X95598727Y-67720300D01*
X78568746Y-53865178D02*
X78560998Y-53824660D01*
X75606282Y-54327104D02*
X75612127Y-54367717D01*
X63383682Y-57447818D02*
X63301019Y-57467193D01*
X119068889Y-77017383D02*
X119053406Y-76979397D01*
X96925735Y-121391449D02*
X96931651Y-121350884D01*
X76842039Y-52657500D02*
X76801523Y-52665229D01*
X83445353Y-141019520D02*
X83521781Y-141060450D01*
X116571420Y-111802914D02*
X116543974Y-111833425D01*
X45706653Y-70531843D02*
X45673149Y-70555097D01*
X94764284Y-119835481D02*
X94727513Y-119854754D01*
X94030767Y-121682424D02*
X94045226Y-121721002D01*
X85117421Y-134460060D02*
X85031419Y-134461811D01*
X116428661Y-95297601D02*
X116375122Y-95342204D01*
X93942819Y-69157329D02*
X93942201Y-69198756D01*
X96284741Y-67971432D02*
X96250197Y-67948350D01*
X51156353Y-96511482D02*
X51191966Y-96491898D01*
X61471855Y-63652963D02*
X61459131Y-63580141D01*
X118909616Y-94591618D02*
X118993054Y-94573747D01*
X44446193Y-115452118D02*
X44492285Y-115379547D01*
X75871636Y-55006857D02*
X75896784Y-55040244D01*
X67086393Y-58985995D02*
X67039233Y-58914475D01*
X116958061Y-76245583D02*
X116922150Y-76265338D01*
X117234716Y-78999247D02*
X117274099Y-79010727D01*
X51686653Y-94356596D02*
X51663709Y-94321935D01*
X115502388Y-96659473D02*
X115482175Y-96725895D01*
X95598698Y-119682219D02*
X95558241Y-119678201D01*
X47447156Y-72974141D02*
X47480235Y-72950153D01*
X76721801Y-52682924D02*
X76682247Y-52694018D01*
X61500435Y-64388270D02*
X61505886Y-64314734D01*
X51570127Y-96181682D02*
X51597082Y-96150473D01*
X119120345Y-112430293D02*
X119109107Y-112390837D01*
X51414562Y-94051259D02*
X51383777Y-94025037D01*
X47765735Y-72657254D02*
X47789523Y-72623963D01*
X76761453Y-52673713D02*
X76721801Y-52682924D01*
X76080013Y-53030962D02*
X76050201Y-53058930D01*
X82114627Y-139710317D02*
X82159275Y-139784261D01*
X117106281Y-76175655D02*
X117068465Y-76191616D01*
X95150048Y-119702696D02*
X95109979Y-119711174D01*
X116898434Y-78849268D02*
X116933805Y-78869900D01*
X94001216Y-68794150D02*
X93990388Y-68833648D01*
X116383220Y-113589202D02*
X116405435Y-113624292D01*
X40313896Y-110245498D02*
X40233799Y-110276095D01*
X83859882Y-134705095D02*
X83779900Y-134737584D01*
X60678373Y-60310959D02*
X60666359Y-60395130D01*
X48053793Y-71901409D02*
X48057386Y-71860238D01*
X118070499Y-76118541D02*
X118030810Y-76108217D01*
X75740329Y-53489104D02*
X75723585Y-53526142D01*
X46268164Y-70293672D02*
X46228085Y-70302162D01*
X61510693Y-64167269D02*
X61510049Y-64093339D01*
X50163906Y-96667025D02*
X50204157Y-96674091D01*
X43718323Y-110808139D02*
X43650979Y-110754149D01*
X88072269Y-139881124D02*
X88118363Y-139808554D01*
X45131152Y-71307966D02*
X45119444Y-71346968D01*
X121347877Y-92749809D02*
X121385769Y-92673189D01*
X46322481Y-73246102D02*
X46363042Y-73252011D01*
X88503727Y-138948635D02*
X88526464Y-138866099D01*
X96613986Y-68276022D02*
X96588298Y-68244903D01*
X45189489Y-71155011D02*
X45173894Y-71192346D01*
X118869257Y-76660441D02*
X118844525Y-76628774D01*
X96938859Y-69307591D02*
X96941206Y-69267130D01*
X51361909Y-96378153D02*
X51393715Y-96351958D01*
X49088640Y-94545531D02*
X49071900Y-94582576D01*
X94236330Y-68319164D02*
X94212459Y-68352503D01*
X82086979Y-136260527D02*
X82046352Y-136335789D01*
X61394618Y-58688098D02*
X61342507Y-58755325D01*
X94398730Y-120096397D02*
X94369345Y-120125091D01*
X47941472Y-71180251D02*
X47924387Y-71142208D01*
X96750753Y-120441506D02*
X96730434Y-120406313D01*
X57818624Y-68487840D02*
X58405079Y-68001627D01*
X116221073Y-95482962D02*
X116172242Y-95532659D01*
X78593249Y-54109119D02*
X78591914Y-54067859D01*
X116638401Y-78651351D02*
X116668436Y-78678988D01*
X120755026Y-93581892D02*
X120813578Y-93519733D01*
X49076865Y-95815450D02*
X49094669Y-95853078D01*
X50435254Y-93692784D02*
X50393996Y-93694123D01*
X118286044Y-87658389D02*
X118200938Y-87658640D01*
X119170688Y-77496316D02*
X119168404Y-77455603D01*
X45576871Y-70632189D02*
X45546644Y-70659410D01*
X51108055Y-93848895D02*
X51070600Y-93831413D01*
X44861148Y-112487842D02*
X44834635Y-112406352D01*
X88533957Y-137082462D02*
X88511540Y-136999598D01*
X51900115Y-94841449D02*
X51889745Y-94801485D01*
X38265003Y-114817927D02*
X38297803Y-114896757D01*
X46188436Y-70311371D02*
X46148888Y-70322461D01*
X96889954Y-120782509D02*
X96878860Y-120742968D01*
X118542064Y-87671889D02*
X118456856Y-87665363D01*
X76184976Y-55329431D02*
X76217527Y-55353646D01*
X62973792Y-57564224D02*
X62893266Y-57594074D01*
X45315015Y-72601783D02*
X45338271Y-72635303D01*
X88638341Y-138189500D02*
X88643423Y-138103468D01*
X88259280Y-136361164D02*
X88219464Y-136285409D01*
X96811973Y-121783673D02*
X96828291Y-121745896D01*
X42753171Y-110255740D02*
X42672493Y-110226063D01*
X117434129Y-79045422D02*
X117474692Y-79051334D01*
X96156066Y-70530885D02*
X96191907Y-70511170D01*
X47888879Y-71068833D02*
X47869295Y-71033220D01*
X116341566Y-88212048D02*
X116269777Y-88258389D01*
X88583844Y-138614959D02*
X88599644Y-138530556D01*
X94269595Y-122109621D02*
X94295775Y-122141431D01*
X95190553Y-119694956D02*
X95150048Y-119702696D01*
X117144424Y-94872626D02*
X117080359Y-94899839D01*
X76020826Y-53087633D02*
X75993023Y-53117367D01*
X51941195Y-95247899D02*
X51941739Y-95206514D01*
X118401300Y-94654374D02*
X118486558Y-94649137D01*
X96903388Y-69550964D02*
X96912057Y-69510765D01*
X96008278Y-122562485D02*
X96046013Y-122546560D01*
X45111923Y-72156893D02*
X45123761Y-72196027D01*
X44034982Y-111097515D02*
X43974428Y-111036670D01*
X47988854Y-72222433D02*
X48001270Y-72182994D01*
X39025151Y-111076559D02*
X38965153Y-111138579D01*
X116949326Y-87901246D02*
X116870078Y-87933310D01*
X88297637Y-136437762D02*
X88259280Y-136361164D01*
X76206511Y-52926653D02*
X76173862Y-52951379D01*
X78389545Y-54892510D02*
X78409753Y-54856404D01*
X116319251Y-76917470D02*
X116301723Y-76953988D01*
X51853092Y-94683816D02*
X51839058Y-94645975D01*
X64825090Y-57434874D02*
X64740690Y-57419090D01*
X120141232Y-88225832D02*
X120069236Y-88180386D01*
X77569949Y-52714321D02*
X77531244Y-52701481D01*
X38533199Y-115355256D02*
X38578149Y-115428047D01*
X120925615Y-93390531D02*
X120979448Y-93324256D01*
X116638683Y-113908050D02*
X116668417Y-113935863D01*
X83297520Y-140932806D02*
X83371128Y-140977321D01*
X84102833Y-134619581D02*
X84021345Y-134646088D01*
X81744017Y-137137997D02*
X81724745Y-137221469D01*
X85174949Y-141460031D02*
X85260211Y-141458708D01*
X96570428Y-70200746D02*
X96597093Y-70169705D01*
X43488050Y-116425682D02*
X43559021Y-116375910D01*
X47593822Y-70678017D02*
X47564083Y-70650223D01*
X117990952Y-76098958D02*
X117950371Y-76090132D01*
X60770334Y-66127667D02*
X60817762Y-66070957D01*
X96917286Y-68940719D02*
X96909249Y-68900378D01*
X116543974Y-111833425D02*
X116517305Y-111864458D01*
X119068806Y-112274295D02*
X119053320Y-112236311D01*
X83225694Y-140886283D02*
X83297520Y-140932806D01*
X75594576Y-54081625D02*
X75594021Y-54122999D01*
X118548432Y-76347074D02*
X118514775Y-76323484D01*
X116658213Y-111715651D02*
X116628751Y-111744393D01*
X61428881Y-63436301D02*
X61410917Y-63364539D01*
X45163340Y-72311990D02*
X45178527Y-72350151D01*
X94175111Y-121976457D02*
X94196898Y-122010805D01*
X96730434Y-120406313D02*
X96709381Y-120371542D01*
X60864021Y-66013935D02*
X60908294Y-65955135D01*
X88450588Y-139112287D02*
X88477948Y-139030983D01*
X66481679Y-58270479D02*
X66417996Y-58214375D01*
X77371872Y-52662486D02*
X77331606Y-52655419D01*
X39389218Y-116307941D02*
X39457925Y-116359197D01*
X45006037Y-113846218D02*
X45012999Y-113760071D01*
X86668323Y-141112074D02*
X86744912Y-141073727D01*
X118961064Y-76797097D02*
X118939368Y-76761720D01*
X117157145Y-114230498D02*
X117195492Y-114243564D01*
X77505199Y-55579060D02*
X77544326Y-55567227D01*
X88477948Y-139030983D02*
X88503727Y-138948635D01*
X44795980Y-114764266D02*
X44824510Y-114683278D01*
X121207527Y-89318163D02*
X121161618Y-89245925D01*
X119149596Y-77822324D02*
X119156294Y-77782275D01*
X59189547Y-123001782D02*
X58543543Y-122495847D01*
X51475509Y-94106009D02*
X51445770Y-94078214D01*
X60636677Y-60734895D02*
X60634231Y-60820395D01*
X75594021Y-54122999D02*
X75594210Y-54163960D01*
X96893279Y-121551955D02*
X96903381Y-121511895D01*
X46363042Y-73252011D02*
X46403184Y-73257193D01*
X51514519Y-96241159D02*
X51542751Y-96212146D01*
X86821396Y-141033472D02*
X86895874Y-140991450D01*
X48948616Y-95056541D02*
X48945013Y-95097728D01*
X49013559Y-94735525D02*
X49001132Y-94774960D01*
X96505162Y-68154078D02*
X96475661Y-68125159D01*
X49113523Y-95889121D02*
X49132373Y-95925159D01*
X60912945Y-62234463D02*
X60947203Y-62312444D01*
X116032969Y-95688351D02*
X115988924Y-95742122D01*
X47436139Y-70547131D02*
X47402538Y-70524500D01*
X61033925Y-65773107D02*
X61073027Y-65710448D01*
X95693670Y-70691296D02*
X95733885Y-70683724D01*
X60728509Y-60059129D02*
X60709237Y-60142601D01*
X47564083Y-70650223D02*
X47532888Y-70623259D01*
X117963831Y-114292690D02*
X118003978Y-114284177D01*
X65318132Y-57572570D02*
X65237561Y-57544786D01*
X51215541Y-93908067D02*
X51180165Y-93887429D01*
X116243576Y-112364671D02*
X116231662Y-112403820D01*
X96318021Y-119956152D02*
X96284735Y-119932358D01*
X94026271Y-68716149D02*
X94013203Y-68754968D01*
X96261623Y-70468003D02*
X96295767Y-70445348D01*
X116202078Y-77265704D02*
X116194572Y-77306209D01*
X44314001Y-111423303D02*
X44261399Y-111355906D01*
X45993918Y-70375778D02*
X45956178Y-70391691D01*
X116172230Y-77550812D02*
X116172417Y-77591770D01*
X81669234Y-137560500D02*
X81659954Y-137646020D01*
X49965818Y-96615188D02*
X50004520Y-96628038D01*
X118675648Y-111706457D02*
X118645161Y-111680070D01*
X50931326Y-96611104D02*
X50969913Y-96596641D01*
X49174901Y-95995432D02*
X49196689Y-96029782D01*
X121421774Y-92595690D02*
X121455916Y-92517322D01*
X43650979Y-110754149D02*
X43582283Y-110702882D01*
X117515422Y-79056177D02*
X117556236Y-79059990D01*
X47946833Y-72337609D02*
X47961997Y-72299527D01*
X96639153Y-68308430D02*
X96613986Y-68276022D01*
X67579934Y-60250624D02*
X67563923Y-60166997D01*
X78563509Y-54435218D02*
X78571313Y-54394558D01*
X118043935Y-114274795D02*
X118083324Y-114263787D01*
X46648528Y-73262189D02*
X46689674Y-73258961D01*
X115396241Y-97134313D02*
X115387883Y-97203652D01*
X78274145Y-55061786D02*
X78299094Y-55028811D01*
X93984184Y-121525522D02*
X93994126Y-121564761D01*
X60849534Y-62075543D02*
X60880137Y-62155635D01*
X117191243Y-87816314D02*
X117109906Y-87842748D01*
X60880137Y-62155635D02*
X60912945Y-62234463D01*
X47679187Y-70766594D02*
X47651952Y-70736376D01*
X94196991Y-70048846D02*
X94220675Y-70083087D01*
X118825413Y-94606985D02*
X118909616Y-94591618D01*
X119112767Y-113239270D02*
X119123667Y-113199740D01*
X61342507Y-58755325D02*
X61291254Y-58824039D01*
X77345000Y-55614852D02*
X77385928Y-55607837D01*
X117393802Y-79038404D02*
X117434129Y-79045422D01*
X45119444Y-71346968D02*
X45108912Y-71386298D01*
X38031607Y-113817620D02*
X38039758Y-113902860D01*
X95892500Y-70642980D02*
X95931488Y-70630248D01*
X46594232Y-70265769D02*
X46553583Y-70264792D01*
X46997886Y-70329924D02*
X46958130Y-70318651D01*
X60343356Y-66534511D02*
X60401637Y-66488149D01*
X39190854Y-116143839D02*
X39255694Y-116200266D01*
X117923784Y-79043311D02*
X117963991Y-79035734D01*
X84491121Y-141398286D02*
X84576249Y-141413653D01*
X96671418Y-122032975D02*
X96694047Y-121999370D01*
X117522045Y-87730918D02*
X117438382Y-87748911D01*
X87042608Y-140901852D02*
X87114126Y-140854689D01*
X116270725Y-112287405D02*
X116256641Y-112325847D01*
X45264555Y-71009013D02*
X45244344Y-71045127D01*
X61063705Y-59185145D02*
X61024246Y-59260723D01*
X78504780Y-53627388D02*
X78490753Y-53589535D01*
X96716272Y-121965035D02*
X96737636Y-121929238D01*
X87832985Y-135717631D02*
X87777876Y-135652651D01*
X116172626Y-112848510D02*
X116173970Y-112889778D01*
X117006285Y-78908226D02*
X117043236Y-78926002D01*
X95407652Y-122673642D02*
X95448607Y-122673459D01*
X119139202Y-112509355D02*
X119130214Y-112469564D01*
X46045020Y-73173622D02*
X46083411Y-73187612D01*
X116301987Y-112211676D02*
X116285880Y-112249331D01*
X96107848Y-119829182D02*
X96070384Y-119811703D01*
X44633204Y-111932159D02*
X44593374Y-111856412D01*
X87940071Y-135852300D02*
X87887471Y-135784906D01*
X66780340Y-58576103D02*
X66723756Y-58511988D01*
X93957763Y-68994242D02*
X93952647Y-69035323D01*
X120734614Y-88713263D02*
X120674415Y-88653192D01*
X94668748Y-122458918D02*
X94704120Y-122479550D01*
X116224167Y-77955886D02*
X116235408Y-77995339D01*
X95853301Y-122615788D02*
X95892838Y-122604694D01*
X94261491Y-68287044D02*
X94236330Y-68319164D01*
X67425096Y-59674238D02*
X67394492Y-59594147D01*
X94322794Y-70210851D02*
X94350320Y-70240918D01*
X116405435Y-113624292D02*
X116427221Y-113658638D01*
X49060941Y-95777723D02*
X49076865Y-95815450D01*
X119120007Y-77172648D02*
X119108766Y-77133190D01*
X84746485Y-141437575D02*
X84831590Y-141446127D01*
X93959487Y-121404865D02*
X93967236Y-121445371D01*
X76090000Y-55251292D02*
X76121206Y-55278266D01*
X95070471Y-67759369D02*
X95030722Y-67769606D01*
X57243144Y-68986288D02*
X57818624Y-68487840D01*
X50516554Y-93694730D02*
X50475898Y-93693756D01*
X61741484Y-58311852D02*
X61679793Y-58370939D01*
X75765214Y-54832676D02*
X75784797Y-54868290D01*
X67328887Y-59436494D02*
X67293159Y-59359352D01*
X62893266Y-57594074D02*
X62814334Y-57624995D01*
X51261837Y-96448642D02*
X51295753Y-96426118D01*
X83939984Y-134674493D02*
X83859882Y-134705095D01*
X115946252Y-95797072D02*
X115905003Y-95853144D01*
X94189386Y-68386351D02*
X94167664Y-68421383D01*
X75849107Y-54972917D02*
X75871636Y-55006857D01*
X117910379Y-111340750D02*
X117869819Y-111334844D01*
X50639359Y-93705944D02*
X50598491Y-93701198D01*
X96853302Y-120664842D02*
X96838843Y-120626265D01*
X43368458Y-110559441D02*
X43294850Y-110514925D01*
X118741029Y-94620511D02*
X118825413Y-94606985D01*
X83779900Y-134737584D02*
X83701185Y-134772279D01*
X85203229Y-134461359D02*
X85117421Y-134460060D01*
X60727157Y-61667154D02*
X60747693Y-61750133D01*
X45019935Y-113502859D02*
X45018186Y-113416854D01*
X78545183Y-54515237D02*
X78555284Y-54475171D01*
X120549161Y-88536825D02*
X120484177Y-88480482D01*
X119142091Y-77862830D02*
X119149596Y-77822324D01*
X39412201Y-110737733D02*
X39344384Y-110789599D01*
X115381125Y-97273062D02*
X115376031Y-97342477D01*
X87114126Y-140854689D02*
X87184373Y-140805337D01*
X95918465Y-119751787D02*
X95879764Y-119738939D01*
X42672493Y-110226063D02*
X42590462Y-110199124D01*
X46201910Y-73221855D02*
X46241553Y-73231237D01*
X116887082Y-76286563D02*
X116852520Y-76308477D01*
X94369345Y-120125091D02*
X94341549Y-120154827D01*
X48001270Y-72182994D02*
X48011814Y-72143685D01*
X50190344Y-93713932D02*
X50149839Y-93721671D01*
X94566054Y-122391109D02*
X94599340Y-122414903D01*
X46389896Y-70274230D02*
X46349282Y-70280087D01*
X47961997Y-72299527D02*
X47976004Y-72261135D01*
X78097452Y-53021774D02*
X78066243Y-52994818D01*
X88162880Y-139734949D02*
X88205082Y-139660721D01*
X121597245Y-92114077D02*
X121619619Y-92031752D01*
X117720104Y-114320973D02*
X117760954Y-114318906D01*
X47164128Y-73137548D02*
X47201438Y-73120887D01*
X96909527Y-120862125D02*
X96899899Y-120821736D01*
X119996136Y-88136567D02*
X119921828Y-88094403D01*
X76320223Y-55421452D02*
X76355594Y-55442083D01*
X115865278Y-95910309D02*
X115826971Y-95968598D01*
X39845319Y-110458345D02*
X39769679Y-110500060D01*
X51828507Y-95765608D02*
X51843667Y-95727520D01*
X94952966Y-119755869D02*
X94913953Y-119769596D01*
X38796621Y-111332665D02*
X38743057Y-111400748D01*
X95918496Y-67789866D02*
X95879348Y-67777274D01*
X118004068Y-79027261D02*
X118044020Y-79017885D01*
X116178277Y-112684913D02*
X116175128Y-112725839D01*
X96362069Y-70397299D02*
X96393726Y-70371190D01*
X116491521Y-76639103D02*
X116466863Y-76671910D01*
X115431936Y-96928926D02*
X115418513Y-96997291D01*
X41148861Y-110050846D02*
X41063008Y-110061324D01*
X51903602Y-95531602D02*
X51911819Y-95491664D01*
X121518351Y-92358091D02*
X121546503Y-92277310D01*
X116275550Y-113368837D02*
X116290732Y-113406997D01*
X75616150Y-53878527D02*
X75609807Y-53918354D01*
X118744905Y-113870090D02*
X118772999Y-113840183D01*
X49379142Y-96250982D02*
X49408574Y-96279941D01*
X95733287Y-122644992D02*
X95774108Y-122636092D01*
X96882819Y-69630304D02*
X96893649Y-69590812D01*
X61679793Y-58370939D02*
X61620101Y-58431795D01*
X119614964Y-87944064D02*
X119535730Y-87910624D01*
X40613895Y-116911902D02*
X40697481Y-116933064D01*
X118581209Y-76371159D02*
X118548432Y-76347074D01*
X76173862Y-52951379D02*
X76141625Y-52976819D01*
X118987743Y-78284335D02*
X119007219Y-78248649D01*
X86107221Y-141325553D02*
X86189235Y-141301663D01*
X117556146Y-114316890D02*
X117597121Y-114319631D01*
X49295571Y-96160401D02*
X49322485Y-96191791D01*
X39551851Y-110637557D02*
X39481181Y-110686173D01*
X43762365Y-116218421D02*
X43828076Y-116162894D01*
X49341335Y-94173810D02*
X49313949Y-94204272D01*
X116188297Y-77346982D02*
X116182755Y-77387333D01*
X94500508Y-122341942D02*
X94532750Y-122367315D01*
X94132754Y-69944177D02*
X94153498Y-69980107D01*
X116202349Y-112523390D02*
X116194485Y-112563122D01*
X118773085Y-78583268D02*
X118800463Y-78552797D01*
X76050201Y-53058930D02*
X76020826Y-53087633D01*
X94106748Y-120489823D02*
X94088849Y-120526555D01*
X39745784Y-116547891D02*
X39820433Y-116590823D01*
X120069236Y-88180386D02*
X119996136Y-88136567D01*
X47789523Y-72623963D02*
X47812171Y-72590360D01*
X51046228Y-96566271D02*
X51083112Y-96548886D01*
X83395756Y-134929069D02*
X83322550Y-134973293D01*
X75707253Y-53563903D02*
X75692093Y-53601992D01*
X94088723Y-68564721D02*
X94071616Y-68601978D01*
X51597082Y-96150473D02*
X51622460Y-96118228D01*
X87641134Y-140414527D02*
X87700400Y-140352933D01*
X40559079Y-110165529D02*
X40476743Y-110190584D01*
X77734806Y-55492438D02*
X77771274Y-55474327D01*
X117842696Y-79054924D02*
X117883018Y-79049246D01*
X78035472Y-52968598D02*
X78003220Y-52943231D01*
X94800974Y-67856290D02*
X94763866Y-67873812D01*
X94428525Y-120068428D02*
X94398730Y-120096397D01*
X96857460Y-121669421D02*
X96870307Y-121630711D01*
X88566893Y-138699048D02*
X88583844Y-138614959D01*
X48967026Y-95464345D02*
X48974765Y-95504850D01*
X81923140Y-139326177D02*
X81957837Y-139404888D01*
X117016916Y-94928641D02*
X116954254Y-94958961D01*
X47812171Y-72590360D02*
X47834383Y-72556032D01*
X118514688Y-111580397D02*
X118480570Y-111558062D01*
X48060065Y-71778514D02*
X48059883Y-71737566D01*
X93954057Y-121364989D02*
X93959487Y-121404865D01*
X63551667Y-57415353D02*
X63467617Y-57430632D01*
X118021771Y-94666222D02*
X117952404Y-94672053D01*
X85630792Y-134494111D02*
X85546310Y-134483252D01*
X115754108Y-96086913D02*
X115720048Y-96147639D01*
X120094347Y-94120738D02*
X120166142Y-94074406D01*
X121488107Y-92438122D02*
X121518351Y-92358091D01*
X69289850Y-128368337D02*
X68514978Y-128098117D01*
X117221566Y-76133536D02*
X117182579Y-76146271D01*
X117706228Y-111321743D02*
X117665493Y-111321799D01*
X77304809Y-55621433D02*
X77345000Y-55614852D01*
X61213326Y-65450539D02*
X61244217Y-65383820D01*
X118791342Y-76565617D02*
X118763748Y-76535602D01*
X59001462Y-67529222D02*
X59608834Y-67069059D01*
X95720388Y-119699953D02*
X95680133Y-119692882D01*
X66285924Y-58105844D02*
X66217960Y-58054167D01*
X50693738Y-96672019D02*
X50734237Y-96664283D01*
X49991444Y-93762280D02*
X49952756Y-93774846D01*
X43144944Y-110431367D02*
X43068630Y-110392326D01*
X116599522Y-111772999D02*
X116571420Y-111802914D01*
X119083323Y-112312838D02*
X119068806Y-112274295D01*
X116628751Y-111744393D02*
X116599522Y-111772999D01*
X38578149Y-115428047D02*
X38626040Y-115499140D01*
X96934396Y-121023746D02*
X96929702Y-120983434D01*
X38022447Y-113645962D02*
X38026077Y-113731856D01*
X118350273Y-78902662D02*
X118386530Y-78883684D01*
X96475718Y-120087034D02*
X96445978Y-120059235D01*
X50612083Y-96682991D02*
X50653118Y-96677878D01*
X115406543Y-97065790D02*
X115396241Y-97134313D01*
X78441092Y-53476434D02*
X78422238Y-53440390D01*
X96226957Y-122451866D02*
X96262038Y-122429667D01*
X117774581Y-87687762D02*
X117690220Y-87700296D01*
X120418280Y-88426634D02*
X120350771Y-88373708D01*
X116427530Y-78401598D02*
X116450710Y-78435140D01*
X116934443Y-114127374D02*
X116970133Y-114146855D01*
X67255530Y-59282338D02*
X67215713Y-59206580D01*
X120851087Y-88838623D02*
X120793557Y-88775050D01*
X61804039Y-58254232D02*
X61741484Y-58311852D01*
X118480570Y-111558062D02*
X118445655Y-111536176D01*
X96929702Y-120983434D02*
X96923849Y-120942825D01*
X116124191Y-95582887D02*
X116077932Y-95635012D01*
X78360859Y-53334080D02*
X78338648Y-53298996D01*
X96838778Y-68665374D02*
X96823300Y-68627382D01*
X47402538Y-70524500D02*
X47368513Y-70501135D01*
X42563883Y-116872236D02*
X42645365Y-116845733D01*
X87410290Y-135291976D02*
X87343990Y-135236405D01*
X65785429Y-57780832D02*
X65709863Y-57741377D01*
X116608947Y-113880249D02*
X116638683Y-113908050D01*
X49800960Y-93837061D02*
X49764080Y-93854451D01*
X94287210Y-120216502D02*
X94261405Y-120248023D01*
X118230229Y-94658302D02*
X118160722Y-94659321D01*
X47714982Y-72721751D02*
X47740780Y-72690233D01*
X44094487Y-111159947D02*
X44034982Y-111097515D01*
X61149688Y-59037733D02*
X61105907Y-59110917D01*
X119159908Y-77373495D02*
X119154053Y-77332876D01*
X81841049Y-136808228D02*
X81813683Y-136889535D01*
X64231971Y-57367689D02*
X64146163Y-57366390D01*
X116720245Y-111662235D02*
X116689154Y-111688979D01*
X95693522Y-122652306D02*
X95733287Y-122644992D01*
X95109979Y-119711174D02*
X95070315Y-119720386D01*
X76540715Y-55530733D02*
X76578388Y-55545173D01*
X51737851Y-95948949D02*
X51757331Y-95913264D01*
X46444360Y-73260792D02*
X46484705Y-73262923D01*
X121507923Y-89930749D02*
X121476881Y-89850906D01*
X117747379Y-76066542D02*
X117706318Y-76064841D01*
X45440815Y-72763797D02*
X45468774Y-72793607D01*
X42806403Y-116785992D02*
X42885653Y-116753927D01*
X96647270Y-70104563D02*
X96671569Y-70071963D01*
X78382642Y-53368423D02*
X78360859Y-53334080D01*
X45673149Y-70555097D02*
X45640504Y-70579822D01*
X82317867Y-135898445D02*
X82268203Y-135968186D01*
X66148952Y-58004070D02*
X66078157Y-57955958D01*
X118571774Y-94641973D02*
X118656458Y-94632186D01*
X60513064Y-66391564D02*
X60566925Y-66340918D01*
X117788360Y-76069279D02*
X117747379Y-76066542D01*
X86432489Y-141214996D02*
X86511743Y-141182926D01*
X49500306Y-96360913D02*
X49533280Y-96385862D01*
X118480658Y-76301150D02*
X118445740Y-76279266D01*
X118893726Y-111951082D02*
X118869595Y-111918090D01*
X118981299Y-112089200D02*
X118960980Y-112054006D01*
X88572823Y-137249680D02*
X88554497Y-137165431D01*
X78003220Y-52943231D02*
X77969504Y-52918685D01*
X119171240Y-77619182D02*
X119171935Y-77577715D01*
X47414079Y-72998118D02*
X47447156Y-72974141D01*
X76415761Y-52798019D02*
X76378984Y-52817288D01*
X95774108Y-122636092D02*
X95813758Y-122626888D01*
X38062161Y-114073726D02*
X38076706Y-114158200D01*
X42964369Y-116719233D02*
X43042232Y-116683075D01*
X65476982Y-57634357D02*
X65398077Y-57602670D01*
X93980636Y-68873496D02*
X93971977Y-68913689D01*
X75668959Y-54606691D02*
X75682249Y-54644970D01*
X38043156Y-113131493D02*
X38034595Y-113216595D01*
X86538651Y-134749141D02*
X86458887Y-134715997D01*
X50230962Y-93708082D02*
X50190344Y-93713932D01*
X47984408Y-71295253D02*
X47971425Y-71255829D01*
X118083410Y-79006872D02*
X118122602Y-78994997D01*
X116243728Y-77107719D02*
X116231745Y-77146908D01*
X38049796Y-113987994D02*
X38062161Y-114073726D01*
X96919833Y-121432009D02*
X96925735Y-121391449D01*
X75600303Y-54000097D02*
X75596712Y-54041294D01*
X96924017Y-68980820D02*
X96917286Y-68940719D01*
X118844525Y-76628774D02*
X118818405Y-76596921D01*
X82925763Y-144566266D02*
X121933560Y-122045104D01*
X45608256Y-70605267D02*
X45576871Y-70632189D01*
X41319871Y-110037170D02*
X41234105Y-110042700D01*
X82572219Y-140331868D02*
X82631002Y-140394728D01*
X82404579Y-140136339D02*
X82458646Y-140202889D01*
X76578388Y-55545173D02*
X76617503Y-55558746D01*
X117801893Y-79058934D02*
X117842696Y-79054924D01*
X61395268Y-64968124D02*
X61414911Y-64897150D01*
X121658005Y-91864900D02*
X121674370Y-91781147D01*
X94295724Y-70179551D02*
X94322794Y-70210851D01*
X116270385Y-77029758D02*
X116256305Y-77068201D01*
X51533632Y-94164354D02*
X51504934Y-94134972D01*
X78447134Y-54783982D02*
X78463878Y-54746943D01*
X118457423Y-114099619D02*
X118491993Y-114077702D01*
X41920235Y-110054249D02*
X41834696Y-110044962D01*
X76378984Y-52817288D02*
X76343790Y-52837607D01*
X45064252Y-71874510D02*
X45067784Y-71914502D01*
X118548345Y-111603987D02*
X118514688Y-111580397D01*
X82300741Y-139998816D02*
X82351553Y-140068211D01*
X117990800Y-111355911D02*
X117950707Y-111347777D01*
X81813683Y-136889535D02*
X81788631Y-136971450D01*
X76963997Y-52641840D02*
X76923254Y-52645787D01*
X95435462Y-119673807D02*
X95393779Y-119674411D01*
X50679925Y-93711859D02*
X50639359Y-93705944D01*
X119719494Y-94325424D02*
X119796298Y-94287935D01*
X47924387Y-71142208D02*
X47907000Y-71105300D01*
X118967752Y-78320319D02*
X118987743Y-78284335D01*
X51812183Y-95803374D02*
X51828507Y-95765608D01*
X119241024Y-94508798D02*
X119322637Y-94483186D01*
X118852648Y-78489430D02*
X118877728Y-78457348D01*
X59608834Y-67069059D02*
X60224972Y-66622417D01*
X60914479Y-59492247D02*
X60882807Y-59571161D01*
X94167664Y-68421383D02*
X94146315Y-68456191D01*
X84519602Y-134516801D02*
X84435240Y-134533248D01*
X78571313Y-54394558D02*
X78577644Y-54354712D01*
X63054851Y-57536974D02*
X62973792Y-57564224D01*
X115988924Y-95742122D02*
X115946252Y-95797072D01*
X44885463Y-112570591D02*
X44861148Y-112487842D01*
X94621982Y-67955729D02*
X94588264Y-67979099D01*
X87973763Y-140022074D02*
X88024174Y-139951902D01*
X45093085Y-72076854D02*
X45102293Y-72116502D01*
X87067107Y-135034539D02*
X86994542Y-134988443D01*
X96730526Y-68444353D02*
X96709261Y-68409709D01*
X51939060Y-95288237D02*
X51941195Y-95247899D01*
X62504325Y-57768767D02*
X62428994Y-57809325D01*
X60566925Y-66340918D02*
X60619616Y-66289954D01*
X88460713Y-136835360D02*
X88431574Y-136754417D01*
X96318320Y-67995053D02*
X96284741Y-67971432D01*
X96709261Y-68409709D02*
X96687034Y-68375614D01*
X96614474Y-120237646D02*
X96588294Y-120205835D01*
X118115302Y-87660179D02*
X118030135Y-87664382D01*
X96916845Y-120901900D02*
X96909527Y-120862125D01*
X45293227Y-72567433D02*
X45315015Y-72601783D01*
X45468774Y-72793607D02*
X45496735Y-72823406D01*
X96923849Y-120942825D02*
X96916845Y-120901900D01*
X78495352Y-54671086D02*
X78509369Y-54632688D01*
X115446953Y-96860620D02*
X115431936Y-96928926D01*
X45066201Y-71628969D02*
X45063347Y-71669741D01*
X94152901Y-121941377D02*
X94175111Y-121976457D01*
X44963928Y-112904616D02*
X44947479Y-112820250D01*
X88634369Y-137674625D02*
X88625795Y-137588652D01*
X115572289Y-96462696D02*
X115547448Y-96527878D01*
X117788276Y-111326191D02*
X117747291Y-111323455D01*
X76775649Y-55602369D02*
X76815587Y-55610594D01*
X95760427Y-67746208D02*
X95720264Y-67738122D01*
X42146685Y-116974288D02*
X42231053Y-116957835D01*
X116491441Y-111896014D02*
X116466775Y-111928824D01*
X46567152Y-73265177D02*
X46607681Y-73264269D01*
X118901512Y-113680930D02*
X118924596Y-113647077D01*
X116247791Y-113291979D02*
X116261089Y-113330248D01*
X118877728Y-78457348D02*
X118901672Y-78423976D01*
X81891076Y-139246926D02*
X81923140Y-139326177D01*
X95969844Y-70615918D02*
X96008283Y-70601557D01*
X64572654Y-57393898D02*
X64487860Y-57384190D01*
X45330779Y-70905287D02*
X45307410Y-70939305D01*
X119130567Y-87775970D02*
X119047928Y-87755253D01*
X94244874Y-122076967D02*
X94269595Y-122109621D01*
X61327108Y-65178559D02*
X61351362Y-65108827D01*
X96383421Y-68044481D02*
X96351096Y-68019148D01*
X78591914Y-54067859D02*
X78589831Y-54027005D01*
X60693025Y-60226262D02*
X60678373Y-60310959D01*
X116376425Y-76808213D02*
X116356430Y-76844199D01*
X47262380Y-70439226D02*
X47226388Y-70420908D01*
X43912413Y-110976665D02*
X43849779Y-110918978D01*
X75887928Y-53243533D02*
X75864148Y-53276838D01*
X115524056Y-96593197D02*
X115502388Y-96659473D01*
X93944806Y-121078015D02*
X93943097Y-121119076D01*
X41806105Y-117019382D02*
X41891348Y-117011234D01*
X116442994Y-76705252D02*
X116419917Y-76739103D01*
X94340979Y-68193253D02*
X94313597Y-68223714D01*
X121444003Y-89772123D02*
X121409373Y-89694351D01*
X118371469Y-87660887D02*
X118286044Y-87658389D01*
X48011814Y-72143685D02*
X48021926Y-72103613D01*
X95598727Y-67720300D02*
X95557904Y-67716489D01*
X61391493Y-63293648D02*
X61370173Y-63222846D01*
X119096484Y-112351198D02*
X119083323Y-112312838D01*
X118796744Y-87704743D02*
X118712223Y-87691953D01*
X117501808Y-111331247D02*
X117461068Y-111336200D01*
X49889034Y-96587174D02*
X49926686Y-96601608D01*
X118456856Y-87665363D02*
X118371469Y-87660887D01*
X93943639Y-121241949D02*
X93945715Y-121282792D01*
X88644271Y-137845858D02*
X88640633Y-137759967D01*
X94132583Y-121906184D02*
X94152901Y-121941377D01*
X45546644Y-70659410D02*
X45516845Y-70687371D01*
X121727333Y-91015375D02*
X121722815Y-90929998D01*
X39623677Y-110589235D02*
X39551851Y-110637557D01*
X45956178Y-70391691D02*
X45919294Y-70409075D01*
X119142010Y-113119741D02*
X119149927Y-113079964D01*
X44990401Y-113074096D02*
X44977740Y-112989513D01*
X51917061Y-94921611D02*
X51909317Y-94881101D01*
X83154172Y-140838619D02*
X83225694Y-140886283D01*
X45231849Y-72461123D02*
X45250699Y-72497160D01*
X51663709Y-94321935D02*
X51638998Y-94289282D01*
X75646022Y-54528023D02*
X75657130Y-54567579D01*
X78322892Y-54995514D02*
X78346263Y-54961494D01*
X117182579Y-76146271D02*
X117144287Y-76160552D01*
X61432229Y-64825554D02*
X61447978Y-64752918D01*
X48959710Y-95424573D02*
X48967026Y-95464345D01*
X81675886Y-138416993D02*
X81687815Y-138502000D01*
X44364813Y-111492696D02*
X44314001Y-111423303D01*
X82046352Y-136335789D02*
X82007318Y-136412101D01*
X86458887Y-134715997D02*
X86379263Y-134684743D01*
X116538793Y-95212513D02*
X116483194Y-95254388D01*
X75974180Y-55135351D02*
X76002142Y-55165158D01*
X116500073Y-78500489D02*
X116526185Y-78532343D01*
X48952634Y-95016093D02*
X48948616Y-95056541D01*
X85856397Y-141387267D02*
X85940639Y-141368931D01*
X94633674Y-122437124D02*
X94668748Y-122458918D01*
X38460901Y-111831519D02*
X38420275Y-111906783D01*
X60666359Y-60395130D02*
X60655499Y-60479622D01*
X77771274Y-55474327D02*
X77808048Y-55455050D01*
X96192183Y-122472920D02*
X96226957Y-122451866D01*
X60749347Y-59976691D02*
X60728509Y-60059129D01*
X116466863Y-76671910D02*
X116442994Y-76705252D01*
X94055433Y-68639662D02*
X94040353Y-68677704D01*
X76656215Y-55571598D02*
X76695965Y-55582883D01*
X41405766Y-110033538D02*
X41319871Y-110037170D01*
X118656458Y-94632186D02*
X118741029Y-94620511D01*
X39457925Y-116359197D02*
X39528095Y-116409614D01*
X38139089Y-112625412D02*
X38117926Y-112708998D01*
X95435122Y-67712098D02*
X95394293Y-67713189D01*
X94061150Y-121758746D02*
X94077075Y-121796476D01*
X38179486Y-114574974D02*
X38205998Y-114656464D01*
X45822229Y-73070529D02*
X45857922Y-73090024D01*
X51144053Y-93867208D02*
X51108055Y-93848895D01*
X47469131Y-70572096D02*
X47436139Y-70547131D01*
X117606036Y-87714687D02*
X117522045Y-87730918D01*
X43068630Y-110392326D02*
X42990541Y-110355278D01*
X57909127Y-121974431D02*
X57287141Y-121438988D01*
X60820823Y-61995327D02*
X60849534Y-62075543D01*
X94408365Y-122260224D02*
X94438521Y-122288761D01*
X120961358Y-88969506D02*
X120906926Y-88903172D01*
X94458710Y-68079322D02*
X94428186Y-68106715D01*
X58405079Y-68001627D02*
X59001462Y-67529222D01*
X47632845Y-72813160D02*
X47661068Y-72784161D01*
X95163764Y-70686345D02*
X95204095Y-70693365D01*
X47345066Y-73042861D02*
X47380157Y-73020647D01*
X78166210Y-55184713D02*
X78194436Y-55155713D01*
X67453073Y-59754878D02*
X67425096Y-59674238D01*
X64487860Y-57384190D02*
X64402459Y-57376806D01*
X96382827Y-120005748D02*
X96351009Y-119981109D01*
X39820433Y-116590823D02*
X39895689Y-116631449D01*
X83833162Y-141205248D02*
X83913538Y-141236080D01*
X41063008Y-110061324D02*
X40977998Y-110073246D01*
X120212456Y-88273679D02*
X120141232Y-88225832D01*
X94965538Y-70634588D02*
X95004676Y-70647186D01*
X81649379Y-137817354D02*
X81646187Y-137903272D01*
X86351659Y-141246017D02*
X86432489Y-141214996D01*
X118685793Y-113926703D02*
X118715667Y-113898704D01*
X117883220Y-94679740D02*
X117813872Y-94688487D01*
X117706318Y-76064841D02*
X117665159Y-76064162D01*
X65237561Y-57544786D02*
X65155953Y-57518581D01*
X61105907Y-59110917D02*
X61063705Y-59185145D01*
X51671627Y-96052691D02*
X51693838Y-96018346D01*
X121251602Y-89391459D02*
X121207527Y-89318163D01*
X116698891Y-113963238D02*
X116730830Y-113989765D01*
X117760954Y-114318906D02*
X117801732Y-114315889D01*
X118917065Y-76727671D02*
X118893887Y-76694129D01*
X45857922Y-73090024D02*
X45894344Y-73109070D01*
X95679939Y-67731089D02*
X95639442Y-67725134D01*
X94398309Y-68134730D02*
X94369578Y-68164030D01*
X45018186Y-113416854D02*
X45014556Y-113330960D01*
X49875585Y-93803763D02*
X49837854Y-93819680D01*
X94322694Y-122172813D02*
X94350668Y-122202620D01*
X46798251Y-70283860D02*
X46757685Y-70277944D01*
X118122602Y-78994997D02*
X118161592Y-78982261D01*
X38907889Y-111201946D02*
X38851454Y-111266780D01*
X49322485Y-96191791D02*
X49350454Y-96221603D01*
X117801732Y-114315889D02*
X117842608Y-114311837D01*
X47757317Y-70861286D02*
X47731862Y-70829053D01*
X47856180Y-72520956D02*
X47875662Y-72485270D01*
X76617503Y-55558746D02*
X76656215Y-55571598D01*
X96757538Y-121894285D02*
X96776594Y-121857862D01*
X121728466Y-91271845D02*
X121729985Y-91185915D01*
X118030810Y-76108217D02*
X117990952Y-76098958D01*
X121718845Y-91442629D02*
X121724632Y-91357155D01*
X96144064Y-67886440D02*
X96107854Y-67868249D01*
X117195492Y-114243564D02*
X117234629Y-114256162D01*
X75864148Y-53276838D02*
X75841503Y-53310438D01*
X47623253Y-70706976D02*
X47593822Y-70678017D01*
X118901672Y-78423976D02*
X118924680Y-78390165D01*
X95030780Y-119731483D02*
X94991654Y-119743305D01*
X61073027Y-65710448D02*
X61110553Y-65646751D01*
X116213802Y-77915924D02*
X116224167Y-77955886D01*
X76565434Y-52732132D02*
X76527284Y-52747331D01*
X42398271Y-116918973D02*
X42481131Y-116896553D01*
X48041973Y-71533815D02*
X48035390Y-71493619D01*
X117842608Y-114311837D02*
X117883361Y-114306890D01*
X51070600Y-93831413D02*
X51033554Y-93814673D01*
X116247603Y-78034245D02*
X116261178Y-78073337D01*
X119047928Y-87755253D02*
X118964379Y-87736025D01*
X49740029Y-96518742D02*
X49776018Y-96537070D01*
X115687567Y-96209405D02*
X115656325Y-96271443D01*
X119019513Y-76905116D02*
X119000754Y-76868044D01*
X96514728Y-122222183D02*
X96542538Y-122192439D01*
X121707524Y-90759919D02*
X121696825Y-90675172D01*
X88357664Y-139352660D02*
X88390076Y-139273331D01*
X70070090Y-128620783D02*
X114577064Y-102924669D01*
X116791876Y-87967707D02*
X116714295Y-88003690D01*
X96934271Y-69061913D02*
X96929790Y-69021475D01*
X49287000Y-94235477D02*
X49261619Y-94267732D01*
X87276336Y-135183572D02*
X87207627Y-135132314D01*
X46083411Y-73187612D02*
X46122850Y-73200045D01*
X116397611Y-112030349D02*
X116376683Y-112065894D01*
X116668417Y-113935863D02*
X116698891Y-113963238D01*
X39085999Y-111016012D02*
X39025151Y-111076559D01*
X82899529Y-45804914D02*
X68407131Y-20703345D01*
X116343624Y-113517233D02*
X116362901Y-113554008D01*
X93943371Y-69280196D02*
X93946085Y-69321655D01*
X42912561Y-110320141D02*
X42832808Y-110286987D01*
X121669022Y-90506458D02*
X121651993Y-90422427D01*
X119563023Y-94394259D02*
X119641997Y-94361375D01*
X115720048Y-96147639D02*
X115687567Y-96209405D01*
X115482175Y-96725895D02*
X115463835Y-96793183D01*
X117461151Y-76079287D02*
X117420814Y-76085952D01*
X45640504Y-70579822D02*
X45608256Y-70605267D01*
X93960008Y-69443639D02*
X93966742Y-69483746D01*
X45084612Y-72036772D02*
X45093085Y-72076854D01*
X96770762Y-120477857D02*
X96750753Y-120441506D01*
X116176032Y-112930621D02*
X116179999Y-112971352D01*
X121633201Y-90339427D02*
X121612228Y-90256705D01*
X95475684Y-119674048D02*
X95435462Y-119673807D01*
X116231662Y-112403820D02*
X116220761Y-112443351D01*
X50475898Y-93693756D02*
X50435254Y-93692784D01*
X61374475Y-65038784D02*
X61395268Y-64968124D01*
X119160251Y-112631139D02*
X119154389Y-112590522D01*
X78403387Y-53404354D02*
X78382642Y-53368423D01*
X45061208Y-71710074D02*
X45060656Y-71751445D01*
X94622036Y-119917608D02*
X94588106Y-119940122D01*
X45008294Y-113245620D02*
X45000450Y-113159219D01*
X121064869Y-89105274D02*
X121013605Y-89036128D01*
X61195055Y-58965598D02*
X61149688Y-59037733D01*
X51935468Y-95329409D02*
X51939060Y-95288237D01*
X41462755Y-117030882D02*
X41548866Y-117031028D01*
X85432196Y-141448381D02*
X85517425Y-141440241D01*
X93974972Y-121485871D02*
X93984184Y-121525522D01*
X82533231Y-135631373D02*
X82477546Y-135695782D01*
X118627022Y-87680529D02*
X118542064Y-87671889D01*
X60665280Y-61331374D02*
X60677939Y-61415951D01*
X118225723Y-111427538D02*
X118187267Y-111412588D01*
X77411818Y-52670715D02*
X77371872Y-52662486D01*
X50271577Y-93702226D02*
X50230962Y-93708082D01*
X60772090Y-59894149D02*
X60749347Y-59976691D01*
X116785056Y-111612106D02*
X116752332Y-111636871D01*
X61504242Y-63946135D02*
X61499081Y-63872849D01*
X117747291Y-111323455D02*
X117706228Y-111321743D01*
X94991654Y-119743305D02*
X94952966Y-119755869D01*
X115376031Y-97342477D02*
X115317184Y-98146835D01*
X44074328Y-115923934D02*
X44132321Y-115860137D01*
X45060845Y-71792407D02*
X45061756Y-71832942D01*
X94763866Y-67873812D02*
X94727532Y-67892834D01*
X51226747Y-96470840D02*
X51261837Y-96448642D01*
X96941206Y-69267130D02*
X96941823Y-69225703D01*
X120633911Y-93702659D02*
X120695111Y-93642882D01*
X49764080Y-93854451D02*
X49727304Y-93873728D01*
X93964236Y-120915257D02*
X93957600Y-120956239D01*
X94656623Y-67933774D02*
X94621982Y-67955729D01*
X118675809Y-76449502D02*
X118644899Y-76422378D01*
X64061202Y-57366557D02*
X63976049Y-57369778D01*
X94077163Y-69834516D02*
X94094971Y-69872142D01*
X116178364Y-77428000D02*
X116175282Y-77468886D01*
X93990388Y-68833648D02*
X93980636Y-68873496D01*
X83371128Y-140977321D02*
X83445353Y-141019520D01*
X84185156Y-134594536D02*
X84102833Y-134619581D01*
X38023289Y-113388356D02*
X38020844Y-113473844D01*
X84917311Y-141452357D02*
X85003340Y-141457442D01*
X76977729Y-55632344D02*
X77018804Y-55634053D01*
X47480235Y-72950153D02*
X47512042Y-72923975D01*
X45774495Y-70486798D02*
X45740156Y-70508588D01*
X95407755Y-70711680D02*
X95448912Y-70712356D01*
X117068465Y-76191616D02*
X117031013Y-76208358D01*
X83701185Y-134772279D02*
X83623744Y-134809170D01*
X118592014Y-114006267D02*
X118624176Y-113980860D01*
X36442090Y-72686779D02*
X21923863Y-47540473D01*
X51693838Y-96018346D02*
X51716063Y-95984010D01*
X85772776Y-141403288D02*
X85856397Y-141387267D01*
X60671044Y-66236802D02*
X60721328Y-66183333D01*
X117043572Y-114183648D02*
X117080907Y-114200211D01*
X93949753Y-69362546D02*
X93954231Y-69402979D01*
X48964452Y-94934969D02*
X48958126Y-94974794D01*
X117274014Y-114267638D02*
X117313699Y-114277963D01*
X47298491Y-70459430D02*
X47262380Y-70439226D01*
X82351553Y-140068211D02*
X82404579Y-140136339D01*
X39895689Y-116631449D02*
X39972004Y-116670490D01*
X118852988Y-113747076D02*
X118877641Y-113714261D01*
X93948331Y-69075943D02*
X93945179Y-69116870D01*
X47781294Y-70894363D02*
X47757317Y-70861286D01*
X96596865Y-122130760D02*
X96622668Y-122099251D01*
X75657130Y-54567579D02*
X75668959Y-54606691D01*
X39004919Y-115965725D02*
X39065471Y-116026569D01*
X116699344Y-78706112D02*
X116730709Y-78731994D01*
X51716063Y-95984010D02*
X51737851Y-95948949D01*
X61021299Y-62466174D02*
X61061121Y-62541922D01*
X94045246Y-69759085D02*
X94060731Y-69797083D01*
X96663193Y-120303381D02*
X96639206Y-120270305D01*
X121266216Y-92899611D02*
X121307698Y-92824825D01*
X94350668Y-122202620D02*
X94379358Y-122232003D01*
X86297844Y-134655491D02*
X86216545Y-134628127D01*
X51504934Y-94134972D02*
X51475509Y-94106009D01*
X42425581Y-110150605D02*
X42342734Y-110129025D01*
X78107446Y-55242110D02*
X78137245Y-55214148D01*
X48945013Y-95097728D02*
X48942887Y-95138052D01*
X75805542Y-54904220D02*
X75826592Y-54938987D01*
X51588508Y-94225543D02*
X51561597Y-94194159D01*
X64740690Y-57419090D02*
X64656821Y-57405906D01*
X61295838Y-63014503D02*
X61267809Y-62945646D01*
X78589831Y-54027005D02*
X78585879Y-53986278D01*
X116796370Y-114038938D02*
X116829661Y-114062739D01*
X49126011Y-94473114D02*
X49106534Y-94508806D01*
X75993023Y-53117367D02*
X75965640Y-53147826D01*
X119161754Y-112998833D02*
X119166141Y-112958183D01*
X77331606Y-52655419D02*
X77291050Y-52649498D01*
X48027630Y-71453109D02*
X48018428Y-71413457D01*
X51445770Y-94078214D02*
X51414562Y-94051259D01*
X84268017Y-134572117D02*
X84185156Y-134594536D01*
X81994732Y-139482329D02*
X82032356Y-139559350D01*
X95312519Y-119679293D02*
X95271779Y-119683254D01*
X61482681Y-63725911D02*
X61471855Y-63652963D01*
X49588319Y-93959829D02*
X49554826Y-93983086D01*
X85716544Y-134507172D02*
X85630792Y-134494111D01*
X96226975Y-70489946D02*
X96261623Y-70468003D01*
X51318237Y-93975863D02*
X51284952Y-93952072D01*
X75626453Y-54448406D02*
X75635658Y-54488055D01*
X120350771Y-88373708D02*
X120282422Y-88323232D01*
X51730231Y-94425285D02*
X51709174Y-94390521D01*
X117910043Y-76083101D02*
X117869483Y-76077195D01*
X61868585Y-58198395D02*
X61804039Y-58254232D01*
X119100779Y-113278451D02*
X119112767Y-113239270D01*
X94005299Y-69643325D02*
X94017572Y-69682191D01*
X119164804Y-77414660D02*
X119159908Y-77373495D01*
X49026413Y-94696830D02*
X49013559Y-94735525D01*
X96806279Y-120551214D02*
X96788881Y-120514322D01*
X50204157Y-96674091D02*
X50244724Y-96680006D01*
X86895874Y-140991450D02*
X86970244Y-140947534D01*
X87758407Y-140289141D02*
X87814832Y-140224306D01*
X66417996Y-58214375D02*
X66352841Y-58159094D01*
X96119790Y-122511794D02*
X96156556Y-122492512D01*
X39344384Y-110789599D02*
X39277832Y-110843669D01*
X95352930Y-119676488D02*
X95312519Y-119679293D01*
X115826971Y-95968598D02*
X115789756Y-96027234D01*
X118148867Y-111399567D02*
X118109791Y-111386932D01*
X117420814Y-76085952D02*
X117380183Y-76092800D01*
X81780521Y-138921652D02*
X81805139Y-139003248D01*
X86846290Y-134900991D02*
X86771021Y-134860373D01*
X119170600Y-112753229D02*
X119168317Y-112712516D01*
X116689154Y-111688979D02*
X116658213Y-111715651D01*
X116190117Y-77795661D02*
X116196847Y-77835761D01*
X43269797Y-116562443D02*
X43344167Y-116518528D01*
X120166142Y-94074406D02*
X120236514Y-94025944D01*
X49428315Y-94087403D02*
X49398520Y-94115370D01*
X76002142Y-55165158D02*
X76030833Y-55194536D01*
X81707801Y-137305554D02*
X81693157Y-137390267D01*
X38642113Y-111539187D02*
X38594441Y-111610698D01*
X94378862Y-70270382D02*
X94408369Y-70299297D01*
X96250197Y-67948350D02*
X96215627Y-67927255D01*
X44947479Y-112820250D02*
X44928414Y-112736430D01*
X46484705Y-73262923D02*
X46525774Y-73264628D01*
X75618703Y-54407906D02*
X75626453Y-54448406D01*
X95773959Y-70675247D02*
X95813567Y-70665092D01*
X96033499Y-67833943D02*
X95995353Y-67817839D01*
X118200222Y-114225630D02*
X118238231Y-114210524D01*
X119130214Y-112469564D02*
X119120345Y-112430293D01*
X116256305Y-77068201D02*
X116243728Y-77107719D01*
X96776594Y-121857862D02*
X96795220Y-121820711D01*
X117583559Y-76067274D02*
X117542774Y-76070294D01*
X94220162Y-122044310D02*
X94244874Y-122076967D01*
X88040247Y-135991949D02*
X87990896Y-135921699D01*
X63891009Y-57374890D02*
X63804927Y-57381553D01*
X119168404Y-77455603D02*
X119164804Y-77414660D01*
X50734237Y-96664283D02*
X50774315Y-96655803D01*
X150969445Y-122044737D02*
X121933560Y-122045104D01*
X50448829Y-96693166D02*
X50489354Y-96692251D01*
X95995249Y-119779801D02*
X95957174Y-119764634D01*
X117080359Y-94899839D02*
X117016916Y-94928641D01*
X94113730Y-121870142D02*
X94132583Y-121906184D01*
X77878434Y-55414413D02*
X77913515Y-55392204D01*
X45786858Y-73049898D02*
X45822229Y-73070529D01*
X39212549Y-110899922D02*
X39148858Y-110957239D01*
X88632109Y-138275217D02*
X88638341Y-138189500D01*
X38117926Y-112708998D02*
X38098668Y-112792462D01*
X118655269Y-113954101D02*
X118685793Y-113926703D01*
X76152727Y-55304063D02*
X76184976Y-55329431D01*
X61301266Y-65247263D02*
X61327108Y-65178559D01*
X46241553Y-73231237D02*
X46282229Y-73239036D01*
X45224863Y-71080813D02*
X45206960Y-71117553D01*
X119058625Y-78136850D02*
X119073787Y-78098765D01*
X96485720Y-70289737D02*
X96514460Y-70260431D01*
X120813578Y-93519733D02*
X120870351Y-93455676D01*
X119042526Y-78174503D02*
X119058625Y-78136850D01*
X61206305Y-62812019D02*
X61173864Y-62745683D01*
X94126322Y-68492172D02*
X94106842Y-68527866D01*
X76465171Y-55498093D02*
X76502210Y-55514845D01*
X48035390Y-71493619D02*
X48027630Y-71453109D01*
X67479163Y-59835620D02*
X67453073Y-59754878D01*
X116526096Y-113789253D02*
X116552594Y-113819913D01*
X60908294Y-65955135D02*
X60952130Y-65895610D01*
X51941558Y-95165566D02*
X51940653Y-95125026D01*
X95489731Y-70711271D02*
X95530504Y-70709236D01*
X39127791Y-116085422D02*
X39190854Y-116143839D01*
X47151884Y-70386681D02*
X47113368Y-70370781D01*
X48942343Y-95179437D02*
X48942515Y-95220399D01*
X120979448Y-93324256D02*
X121031769Y-93256898D01*
X117031013Y-76208358D02*
X116994400Y-76226562D01*
X94017572Y-69682191D02*
X94031140Y-69721278D01*
X119171935Y-77577715D02*
X119171757Y-77536764D01*
X48049772Y-71941868D02*
X48053793Y-71901409D01*
X94212459Y-68352503D02*
X94189386Y-68386351D01*
X115387883Y-97203652D02*
X115381125Y-97273062D01*
X93949679Y-121323515D02*
X93954057Y-121364989D01*
X116204883Y-77876092D02*
X116213802Y-77915924D01*
X39972004Y-116670490D02*
X40050090Y-116707535D01*
X114897085Y-101343837D02*
X114746519Y-102136624D01*
X118964379Y-87736025D02*
X118880514Y-87718940D01*
X47875662Y-72485270D02*
X47894712Y-72448855D01*
X118939368Y-76761720D02*
X118917065Y-76727671D01*
X81860057Y-139166102D02*
X81891076Y-139246926D01*
X116730830Y-113989765D02*
X116763078Y-114015148D01*
X49132373Y-95925159D02*
X49153117Y-95961089D01*
X96716360Y-70003076D02*
X96737719Y-69968263D01*
X49438312Y-96307736D02*
X49469524Y-96334697D01*
X78577644Y-54354712D02*
X78583131Y-54313425D01*
X116204864Y-113132965D02*
X116214502Y-113173347D01*
X117461068Y-111336200D02*
X117420728Y-111342866D01*
X94313597Y-68223714D02*
X94286932Y-68254755D01*
X82268203Y-135968186D02*
X82220518Y-136039705D01*
X42832808Y-110286987D02*
X42753171Y-110255740D01*
X62002106Y-58090992D02*
X61934704Y-58143590D01*
X44900387Y-114437094D02*
X44921960Y-114354250D01*
X116442833Y-111962206D02*
X116419832Y-111996014D01*
X96737719Y-69968263D02*
X96757712Y-69932282D01*
X119083412Y-77055927D02*
X119068889Y-77017383D01*
X82838641Y-135328923D02*
X82774208Y-135386663D01*
X75784797Y-54868290D02*
X75805542Y-54904220D01*
X48047825Y-71574422D02*
X48041973Y-71533815D01*
X86216545Y-134628127D02*
X86134627Y-134603077D01*
X119375961Y-87851327D02*
X119294664Y-87823963D01*
X85003340Y-141457442D02*
X85088832Y-141459889D01*
X118735199Y-76506141D02*
X118705773Y-76477184D01*
X81765173Y-137054416D02*
X81744017Y-137137997D01*
X96588298Y-68244903D02*
X96561241Y-68213603D01*
X82220518Y-136039705D02*
X82173268Y-136111965D01*
X87388456Y-140647422D02*
X87454159Y-140591897D01*
X60949634Y-59414282D02*
X60914479Y-59492247D01*
X61509447Y-64241311D02*
X61510693Y-64167269D01*
X48983968Y-95544501D02*
X48994331Y-95584469D01*
X44707718Y-112086625D02*
X44671561Y-112008757D01*
X50558039Y-93697173D02*
X50516554Y-93694730D01*
X64018806Y-126100024D02*
X63298425Y-125707421D01*
X50879562Y-93757913D02*
X50839817Y-93746642D01*
X95571785Y-70706923D02*
X95612166Y-70702181D01*
X88625795Y-137588652D02*
X88615758Y-137503520D01*
X45968851Y-73143288D02*
X46006613Y-73159605D01*
X49369561Y-94144802D02*
X49341335Y-94173810D01*
X77759753Y-52792462D02*
X77722280Y-52774973D01*
X117029125Y-87870807D02*
X116949326Y-87901246D01*
X61346957Y-63152162D02*
X61321981Y-63083498D01*
X42005442Y-110064686D02*
X41920235Y-110054249D01*
X116517305Y-111864458D02*
X116491441Y-111896014D01*
X117313699Y-114277963D02*
X117353555Y-114287211D01*
X46730412Y-73254998D02*
X46771444Y-73249879D01*
X44731586Y-114923652D02*
X44764725Y-114843905D01*
X44550925Y-111781194D02*
X44507435Y-111707560D01*
X67746957Y-127809280D02*
X66985483Y-127502971D01*
X60721328Y-66183333D02*
X60770334Y-66127667D01*
X77609074Y-52727912D02*
X77569949Y-52714321D01*
X75642281Y-53757849D02*
X75632175Y-53797909D01*
X120674415Y-88653192D02*
X120612456Y-88594132D01*
X118827131Y-78521764D02*
X118852648Y-78489430D01*
X46771444Y-73249879D02*
X46811645Y-73243292D01*
X50149839Y-93721671D02*
X50109772Y-93730153D01*
X94926773Y-70620796D02*
X94965538Y-70634588D01*
X94261405Y-120248023D02*
X94236456Y-120280998D01*
X77808048Y-55455050D02*
X77843664Y-55435465D01*
X49220378Y-96064021D02*
X49245088Y-96096675D01*
X47894712Y-72448855D02*
X47913766Y-72412431D01*
X96806865Y-68589950D02*
X96789054Y-68552317D01*
X38965153Y-111138579D02*
X38907889Y-111201946D01*
X75746663Y-54795479D02*
X75765214Y-54832676D01*
X50004520Y-96628038D02*
X50044270Y-96639314D01*
X77795749Y-52810778D02*
X77759753Y-52792462D01*
X61291254Y-58824039D02*
X61242734Y-58894083D01*
X78458493Y-53513334D02*
X78441092Y-53476434D01*
X75913310Y-53211287D02*
X75887928Y-53243533D01*
X78066243Y-52994818D02*
X78035472Y-52968598D01*
X117260758Y-76121661D02*
X117221566Y-76133536D01*
X96561241Y-68213603D02*
X96533715Y-68183544D01*
X116223715Y-113213008D02*
X116235546Y-113252124D01*
X96639206Y-120270305D02*
X96614474Y-120237646D01*
X117272906Y-87791652D02*
X117191243Y-87816314D01*
X49727304Y-93873728D02*
X49692100Y-93894053D01*
X48942515Y-95220399D02*
X48943430Y-95260924D01*
X68514978Y-128098117D02*
X67746957Y-127809280D01*
X85260211Y-141458708D02*
X85346839Y-141454652D01*
X51083112Y-96548886D02*
X51119583Y-96530772D01*
X118350109Y-114159619D02*
X118386444Y-114140599D01*
X96046013Y-122546560D02*
X96083323Y-122529913D01*
X119846417Y-88053867D02*
X119769890Y-88014953D01*
X49656910Y-93914370D02*
X49621826Y-93936581D01*
X93943097Y-121119076D02*
X93942119Y-121159726D01*
X43119569Y-116644296D02*
X43195313Y-116604469D01*
X116499913Y-113757445D02*
X116526096Y-113789253D01*
X121688496Y-91696734D02*
X121700739Y-91612441D01*
X96351009Y-119981109D02*
X96318021Y-119956152D01*
X94657112Y-119895400D02*
X94622036Y-119917608D01*
X60823039Y-59731787D02*
X60796406Y-59812655D01*
X118763665Y-111792514D02*
X118735113Y-111763051D01*
X43441029Y-110605532D02*
X43368458Y-110559441D01*
X40395260Y-110217083D02*
X40313896Y-110245498D01*
X77018804Y-55634053D02*
X77059872Y-55635758D01*
X51284952Y-93952072D02*
X51250193Y-93929114D01*
X116290732Y-113406997D02*
X116307391Y-113444304D01*
X86379263Y-134684743D02*
X86297844Y-134655491D01*
X45075705Y-71547226D02*
X45070963Y-71588101D01*
X51925957Y-95411156D02*
X51931442Y-95369861D01*
X76427709Y-55480624D02*
X76465171Y-55498093D01*
X96878736Y-68781137D02*
X96866463Y-68742263D01*
X94113385Y-69908439D02*
X94132754Y-69944177D01*
X116376683Y-112065894D02*
X116356340Y-112101101D01*
X94379358Y-122232003D02*
X94408365Y-122260224D01*
X75601152Y-54286053D02*
X75606282Y-54327104D01*
X41377263Y-117028435D02*
X41462755Y-117030882D01*
X45060656Y-71751445D02*
X45060845Y-71792407D01*
X117637856Y-79063693D02*
X117679018Y-79064370D01*
X95879348Y-67777274D02*
X95839973Y-67765790D01*
X118559449Y-78774075D02*
X118592179Y-78749306D01*
X120695111Y-93642882D02*
X120755026Y-93581892D01*
X96046017Y-70585630D02*
X96083057Y-70568156D01*
X81702790Y-138587203D02*
X81719232Y-138671574D01*
X93974775Y-69524082D02*
X93983763Y-69563857D01*
X118800375Y-113809711D02*
X118827040Y-113778670D01*
X46811645Y-73243292D02*
X46851829Y-73236707D01*
X66007067Y-57909028D02*
X65934612Y-57864816D01*
X117624400Y-76065199D02*
X117583559Y-76067274D01*
X75595125Y-54204493D02*
X75597620Y-54246061D01*
X43294850Y-110514925D02*
X43220201Y-110471994D01*
X43828076Y-116162894D02*
X43891769Y-116105581D01*
X119164716Y-112671573D02*
X119160251Y-112631139D01*
X61139247Y-62680629D02*
X61103146Y-62616406D01*
X96857757Y-69708317D02*
X96870832Y-69669485D01*
X49189077Y-94367291D02*
X49167287Y-94402363D01*
X42645365Y-116845733D02*
X42726301Y-116816593D01*
X82458646Y-140202889D02*
X82514915Y-140268168D01*
X45931069Y-73126965D02*
X45968851Y-73143288D01*
X121372553Y-89616866D02*
X121334323Y-89541174D01*
X119147234Y-112549686D02*
X119139202Y-112509355D01*
X86744912Y-141073727D02*
X86821396Y-141033472D01*
X77697489Y-55509103D02*
X77734806Y-55492438D01*
X45751789Y-73028114D02*
X45786858Y-73049898D01*
X118993054Y-94573747D02*
X119076660Y-94554813D01*
X46512312Y-70266138D02*
X46471053Y-70267475D01*
X65934612Y-57864816D02*
X65860704Y-57821460D01*
X51931442Y-95369861D02*
X51935468Y-95329409D01*
X76855839Y-55617659D02*
X76896401Y-55623568D01*
X78315399Y-53265489D02*
X78290679Y-53232841D01*
X44492285Y-115379547D02*
X44536802Y-115305942D01*
X96215627Y-67927255D02*
X96180249Y-67906619D01*
X47237909Y-73102773D02*
X47273946Y-73083922D01*
X78248350Y-55093302D02*
X78274145Y-55061786D01*
X78077216Y-55269333D02*
X78107446Y-55242110D01*
X88246435Y-139585040D02*
X88285053Y-139507991D01*
X117434043Y-114302332D02*
X117474598Y-114308251D01*
X88603830Y-137418512D02*
X88589278Y-137334042D01*
X50030569Y-93750456D02*
X49991444Y-93762280D01*
X94838007Y-67838829D02*
X94800974Y-67856290D01*
X39481181Y-110686173D02*
X39412201Y-110737733D01*
X75758962Y-53451943D02*
X75740329Y-53489104D01*
X117118620Y-114215590D02*
X117157145Y-114230498D01*
X121307698Y-92824825D02*
X121347877Y-92749809D01*
X116173422Y-112766911D02*
X116172443Y-112807551D01*
X93983763Y-69563857D02*
X93994051Y-69603869D01*
X121546503Y-92277310D02*
X121572711Y-92195706D01*
X49703917Y-96498521D02*
X49740029Y-96518742D01*
X46676366Y-70269191D02*
X46634870Y-70266745D01*
X116899067Y-114106743D02*
X116934443Y-114127374D01*
X75819712Y-53345503D02*
X75797914Y-53380570D01*
X116275709Y-78111880D02*
X116290762Y-78149136D01*
X45487467Y-70716076D02*
X45458922Y-70746238D01*
X45158735Y-71230435D02*
X45144732Y-71268834D01*
X47827500Y-70962523D02*
X47804556Y-70927862D01*
X38691790Y-111469436D02*
X38642113Y-111539187D01*
X50957389Y-93784346D02*
X50918258Y-93770766D01*
X116397698Y-76773435D02*
X116376425Y-76808213D01*
X116194485Y-112563122D02*
X116188134Y-112603941D01*
X116220761Y-112443351D02*
X116211007Y-112483196D01*
X93948393Y-121036835D02*
X93944806Y-121078015D01*
X116714295Y-88003690D02*
X116637925Y-88041923D01*
X117234629Y-114256162D02*
X117274014Y-114267638D01*
X118946475Y-78355100D02*
X118967752Y-78320319D01*
X116196847Y-77835761D02*
X116204883Y-77876092D01*
X94060731Y-69797083D02*
X94077163Y-69834516D01*
X51795443Y-95840419D02*
X51812183Y-95803374D01*
X118410196Y-111515584D02*
X118374442Y-111496151D01*
X46148888Y-70322461D02*
X46109774Y-70334287D01*
X61620101Y-58431795D02*
X61560830Y-58493396D01*
X96870832Y-69669485D02*
X96882819Y-69630304D01*
X121013605Y-89036128D02*
X120961358Y-88969506D01*
X121082090Y-93187761D02*
X121130830Y-93117577D01*
X117081072Y-78943264D02*
X117118784Y-78958632D01*
X116188134Y-112603941D02*
X116182595Y-112644290D01*
X93980688Y-120835371D02*
X93972464Y-120875311D01*
X96694047Y-121999370D02*
X96716272Y-121965035D01*
X38674664Y-115569810D02*
X38726216Y-115638790D01*
X94588264Y-67979099D02*
X94554615Y-68002446D01*
X81870729Y-136727555D02*
X81841049Y-136808228D01*
X83521781Y-141060450D02*
X83598087Y-141099492D01*
X50892628Y-96623668D02*
X50931326Y-96611104D01*
X82816932Y-140572846D02*
X82881777Y-140629269D01*
X117195645Y-78986611D02*
X117234716Y-78999247D01*
X96941823Y-69225703D02*
X96941644Y-69184754D01*
X81659954Y-137646020D02*
X81653720Y-137731750D01*
X96912057Y-69510765D02*
X96919486Y-69470302D01*
X96909249Y-68900378D02*
X96900267Y-68860599D01*
X86271455Y-141274732D02*
X86351659Y-141246017D01*
X42062211Y-116988833D02*
X42146685Y-116974288D01*
X117274099Y-79010727D02*
X117313781Y-79021050D01*
X44536802Y-115305942D02*
X44579731Y-115231295D01*
X118200938Y-87658640D02*
X118115302Y-87660179D01*
X88554497Y-137165431D02*
X88533957Y-137082462D01*
X94991531Y-67781468D02*
X94952542Y-67794208D01*
X121651993Y-90422427D02*
X121633201Y-90339427D01*
X40050090Y-116707535D02*
X40128073Y-116742676D01*
X96475661Y-68125159D02*
X96445702Y-68097492D01*
X94341549Y-120154827D02*
X94313425Y-120185720D01*
X47574087Y-72870553D02*
X47603886Y-72842591D01*
X49599130Y-96433878D02*
X49633890Y-96456836D01*
X51295753Y-96426118D02*
X51329256Y-96402864D01*
X96156556Y-122492512D02*
X96192183Y-122472920D01*
X50774315Y-96655803D02*
X50813550Y-96645864D01*
X95312243Y-67717542D02*
X95271435Y-67721546D01*
X77223042Y-55630513D02*
X77263768Y-55626557D01*
X83546718Y-134846792D02*
X83471398Y-134887355D01*
X119001017Y-112125732D02*
X118981299Y-112089200D01*
X45108912Y-71386298D02*
X45098810Y-71426356D01*
X75965640Y-53147826D02*
X75938689Y-53179050D01*
X45379945Y-70839733D02*
X45354573Y-70871974D01*
X116356430Y-76844199D02*
X116337369Y-76880612D01*
X118300934Y-76202534D02*
X118263599Y-76185957D01*
X94469308Y-122314986D02*
X94500508Y-122341942D01*
X118386444Y-114140599D02*
X118422358Y-114120842D01*
X86616620Y-134784288D02*
X86538651Y-134749141D01*
X118924680Y-78390165D02*
X118946475Y-78355100D01*
X45650874Y-72958303D02*
X45684159Y-72982095D01*
X116658294Y-76458741D02*
X116628414Y-76486745D01*
X117144199Y-111417465D02*
X117106115Y-111432615D01*
X116261089Y-113330248D02*
X116275550Y-113368837D01*
X87253776Y-140754513D02*
X87321904Y-140701492D01*
X82421966Y-135762097D02*
X82369126Y-135829742D01*
X116818219Y-111588079D02*
X116785056Y-111612106D01*
X117109906Y-87842748D02*
X117029125Y-87870807D01*
X39255694Y-116200266D02*
X39321577Y-116255100D01*
X82970467Y-135218599D02*
X82903187Y-135273088D01*
X116404809Y-78366813D02*
X116427530Y-78401598D01*
X116413853Y-88166398D02*
X116341566Y-88212048D01*
X43416532Y-116472845D02*
X43488050Y-116425682D01*
X44243588Y-115729415D02*
X44296425Y-115661767D01*
X88612384Y-138445963D02*
X88623568Y-138360323D01*
X50312301Y-93698271D02*
X50271577Y-93702226D01*
X51750975Y-94461215D02*
X51730231Y-94425285D01*
X117118784Y-78958632D02*
X117156812Y-78972858D01*
X118818316Y-111853832D02*
X118791681Y-111823263D01*
X38297803Y-114896757D02*
X38331759Y-114975881D01*
X49167287Y-94402363D02*
X49146232Y-94437001D01*
X86051659Y-134579612D02*
X85968806Y-134558024D01*
X117355477Y-87769401D02*
X117272906Y-87791652D01*
X44296425Y-115661767D02*
X44348419Y-115592644D01*
X119149927Y-113079964D02*
X119156209Y-113039187D01*
X78013601Y-55321706D02*
X78045411Y-55295527D01*
X75604322Y-53959658D02*
X75600303Y-54000097D01*
X44834635Y-112406352D02*
X44805497Y-112325411D01*
X47226388Y-70420908D02*
X47188925Y-70403414D01*
X77646736Y-52742332D02*
X77609074Y-52727912D01*
X49837854Y-93819680D02*
X49800960Y-93837061D01*
X66605597Y-58388598D02*
X66544729Y-58328903D01*
X87720140Y-135588220D02*
X87661059Y-135526522D01*
X44940809Y-114270045D02*
X44958492Y-114185531D01*
X76240021Y-52903395D02*
X76206511Y-52926653D01*
X56678636Y-69496981D02*
X57243144Y-68986288D01*
X75841503Y-53310438D02*
X75819712Y-53345503D01*
X67215713Y-59206580D02*
X67174847Y-59132412D01*
X48021926Y-72103613D02*
X48030144Y-72063665D01*
X96838843Y-120626265D02*
X96822930Y-120588525D01*
X94077075Y-121796476D02*
X94094454Y-121833368D01*
X46757685Y-70277944D02*
X46716815Y-70273209D01*
X95652990Y-70697190D02*
X95693670Y-70691296D01*
X115789756Y-96027234D02*
X115754108Y-96086913D01*
X44742414Y-112165336D02*
X44707718Y-112086625D01*
X66889082Y-58706895D02*
X66835439Y-58641083D01*
X78185320Y-53107927D02*
X78156618Y-53078530D01*
X119156209Y-113039187D02*
X119161754Y-112998833D01*
X77936633Y-52895632D02*
X77901881Y-52872687D01*
X95760328Y-119708172D02*
X95720388Y-119699953D01*
X119166141Y-112958183D02*
X119169230Y-112917292D01*
X94875795Y-119784790D02*
X94838062Y-119800703D01*
X94094454Y-121833368D02*
X94113730Y-121870142D01*
X116517467Y-76607500D02*
X116491521Y-76639103D01*
X118315567Y-94656934D02*
X118401300Y-94654374D01*
X94026614Y-120677854D02*
X94013028Y-120716977D01*
X49533280Y-96385862D02*
X49565846Y-96410086D01*
X117583474Y-111324185D02*
X117542613Y-111327248D01*
X116211007Y-112483196D02*
X116202349Y-112523390D01*
X117420728Y-111342866D02*
X117380518Y-111350447D01*
X47976004Y-72261135D02*
X47988854Y-72222433D01*
X44671561Y-112008757D02*
X44633204Y-111932159D01*
X83754151Y-141171682D02*
X83833162Y-141205248D01*
X117340441Y-111358919D02*
X117300492Y-111368294D01*
X77969504Y-52918685D02*
X77936633Y-52895632D01*
X77141783Y-55635397D02*
X77182621Y-55633323D01*
X50995049Y-93798776D02*
X50957389Y-93784346D01*
X87207627Y-135132314D02*
X87137883Y-135082634D01*
X118337957Y-76220265D02*
X118300934Y-76202534D01*
X95285382Y-122665051D02*
X95325828Y-122669065D01*
X49045017Y-95739979D02*
X49060941Y-95777723D01*
X49926686Y-96601608D02*
X49965818Y-96615188D01*
X77660178Y-55525755D02*
X77697489Y-55509103D01*
X116363213Y-78296966D02*
X116383532Y-78332160D01*
X48972257Y-94894290D02*
X48964452Y-94934969D01*
X121031769Y-93256898D02*
X121082090Y-93187761D01*
X50839817Y-93746642D02*
X50800484Y-93736104D01*
X93971977Y-68913689D02*
X93964538Y-68954157D01*
X119796298Y-94287935D02*
X119872324Y-94248923D01*
X119019430Y-112162026D02*
X119001017Y-112125732D01*
X47010958Y-73195676D02*
X47049646Y-73183109D01*
X117638195Y-114321338D02*
X117678856Y-114321324D01*
X42885653Y-116753927D02*
X42964369Y-116719233D01*
X116077932Y-95635012D02*
X116032969Y-95688351D01*
X49408574Y-96279941D02*
X49438312Y-96307736D01*
X77005145Y-52638609D02*
X76963997Y-52641840D01*
X48059095Y-71819176D02*
X48060065Y-71778514D01*
X48052514Y-71614724D02*
X48047825Y-71574422D01*
X44805497Y-112325411D02*
X44774898Y-112245312D01*
X46525774Y-73264628D02*
X46567152Y-73265177D01*
X95970122Y-122577664D02*
X96008278Y-122562485D01*
X117883018Y-79049246D02*
X117923784Y-79043311D01*
X77947434Y-55369678D02*
X77980518Y-55345697D01*
X95448607Y-122673459D02*
X95489570Y-122673271D01*
X96250402Y-119910139D02*
X96215333Y-119888353D01*
X76923254Y-52645787D02*
X76882647Y-52651640D01*
X94565705Y-70429405D02*
X94599283Y-70453028D01*
X60677939Y-61415951D02*
X60692068Y-61499687D01*
X44973553Y-114101556D02*
X44986312Y-114016964D01*
X84407023Y-141381333D02*
X84491121Y-141398286D01*
X117274511Y-94822941D02*
X117209113Y-94847007D01*
X50918258Y-93770766D02*
X50879562Y-93757913D01*
X116526185Y-78532343D02*
X116552830Y-78562914D01*
X94704120Y-122479550D02*
X94739813Y-122499030D01*
X87538497Y-135405669D02*
X87475123Y-135348408D01*
X94001340Y-120755983D02*
X93990801Y-120795315D01*
X38039758Y-113902860D02*
X38049796Y-113987994D01*
X94040617Y-120639457D02*
X94026614Y-120677854D01*
X116552830Y-78562914D02*
X116580426Y-78592928D01*
X76937280Y-55628325D02*
X76977729Y-55632344D01*
X60634231Y-60820395D02*
X60634824Y-60906079D01*
X94167078Y-120382647D02*
X94146433Y-120418028D01*
X61448294Y-58621904D02*
X61394618Y-58688098D01*
X38626040Y-115499140D02*
X38674664Y-115569810D01*
X41234105Y-110042700D02*
X41148861Y-110050846D01*
X117883361Y-114306890D02*
X117923617Y-114300261D01*
X36441841Y-117729027D02*
X21936373Y-142852805D01*
X51866819Y-94722820D02*
X51853092Y-94683816D01*
X116383532Y-78332160D02*
X116404809Y-78366813D01*
X118844443Y-111885687D02*
X118818316Y-111853832D01*
X85031419Y-134461811D02*
X84945948Y-134466177D01*
X45102293Y-72116502D02*
X45111923Y-72156893D01*
X82477546Y-135695782D02*
X82421966Y-135762097D01*
X48057386Y-71860238D02*
X48059095Y-71819176D01*
X82899529Y-45804914D02*
X121984034Y-68370550D01*
X46891905Y-73228238D02*
X46931875Y-73217865D01*
X49350454Y-96221603D02*
X49379142Y-96250982D01*
X67563923Y-60166997D02*
X67545280Y-60083911D01*
X120570998Y-93760485D02*
X120633911Y-93702659D01*
X117950371Y-76090132D02*
X117910043Y-76083101D01*
X116543711Y-76575737D02*
X116517467Y-76607500D01*
X88548051Y-138783249D02*
X88566893Y-138699048D01*
X81724745Y-137221469D02*
X81707801Y-137305554D01*
X75597620Y-54246061D02*
X75601152Y-54286053D01*
X78592463Y-54190728D02*
X78593431Y-54150067D01*
X118337803Y-111477218D02*
X118300846Y-111459448D01*
X45063347Y-71669741D02*
X45061208Y-71710074D01*
X117313781Y-79021050D02*
X117353711Y-79030267D01*
X118981383Y-76832290D02*
X118961064Y-76797097D01*
X41748982Y-110038728D02*
X41663371Y-110034381D01*
X94350320Y-70240918D02*
X94378862Y-70270382D01*
X44986312Y-114016964D02*
X44997478Y-113931324D01*
X41634867Y-117029278D02*
X41720762Y-117025646D01*
X61173864Y-62745683D02*
X61139247Y-62680629D01*
X61267809Y-62945646D02*
X61237998Y-62878769D01*
X63218466Y-57488453D02*
X63136024Y-57511613D01*
X119168960Y-77659605D02*
X119171240Y-77619182D01*
X117813872Y-94688487D02*
X117745287Y-94699744D01*
X82712089Y-135445011D02*
X82651230Y-135505569D01*
X96795308Y-69859735D02*
X96812419Y-69822476D01*
X49914169Y-93789310D02*
X49875585Y-93803763D01*
X94554615Y-68002446D02*
X94521959Y-68027167D01*
X45413897Y-72732418D02*
X45440815Y-72763797D01*
X47869295Y-71033220D02*
X47848551Y-70997289D01*
X84774206Y-134480277D02*
X84689084Y-134490314D01*
X43042232Y-116683075D02*
X43119569Y-116644296D01*
X95840025Y-119727665D02*
X95800692Y-119717127D01*
X65073719Y-57494691D02*
X64991610Y-57472685D01*
X94045226Y-121721002D02*
X94061150Y-121758746D01*
X87321904Y-140701492D02*
X87388456Y-140647422D01*
X116356340Y-112101101D02*
X116337281Y-112137524D01*
X40075833Y-110342851D02*
X39997668Y-110380164D01*
X38132021Y-114409786D02*
X38154438Y-114492649D01*
X116852356Y-111565434D02*
X116818219Y-111588079D01*
X43220201Y-110471994D02*
X43144944Y-110431367D01*
X121696825Y-90675172D02*
X121684014Y-90590675D01*
X119036813Y-112198916D02*
X119019430Y-112162026D01*
X94913953Y-119769596D02*
X94875795Y-119784790D01*
X96083057Y-70568156D02*
X96119739Y-70549920D01*
X88321791Y-139431059D02*
X88357664Y-139352660D01*
X117144287Y-76160552D02*
X117106281Y-76175655D01*
X38488549Y-115281309D02*
X38533199Y-115355256D01*
X118109455Y-76129284D02*
X118070499Y-76118541D01*
X117474598Y-114308251D02*
X117515262Y-114313130D01*
X48994331Y-95584469D02*
X49005434Y-95624010D01*
X117665493Y-111321799D02*
X117624309Y-111322114D01*
X87600505Y-135465675D02*
X87538497Y-135405669D01*
X81805139Y-139003248D02*
X81832078Y-139085459D01*
X116450710Y-78435140D02*
X116474911Y-78468092D01*
X119139362Y-77252398D02*
X119130372Y-77212611D01*
X116711546Y-95095173D02*
X116653043Y-95132865D01*
X94800746Y-119817354D02*
X94764284Y-119835481D01*
X45206960Y-71117553D02*
X45189489Y-71155011D01*
X60224972Y-66622417D02*
X60284958Y-66578992D01*
X49017263Y-95663131D02*
X49030987Y-95702129D01*
X116474457Y-113725218D02*
X116499913Y-113757445D01*
X94313425Y-120185720D02*
X94287210Y-120216502D01*
X77491499Y-52690203D02*
X77452172Y-52679659D01*
X94691892Y-119874341D02*
X94657112Y-119895400D01*
X116637925Y-88041923D02*
X116562245Y-88081701D01*
X96445702Y-68097492D02*
X96414787Y-68070367D01*
X117597209Y-79062719D02*
X117637856Y-79063693D01*
X116214502Y-113173347D02*
X116223715Y-113213008D01*
X120236514Y-94025944D02*
X120305973Y-93976069D01*
X95571568Y-122667974D02*
X95612290Y-122664012D01*
X46122850Y-73200045D02*
X46162596Y-73211332D01*
X45405334Y-70807490D02*
X45379945Y-70839733D01*
X120906926Y-88903172D02*
X120851087Y-88838623D01*
X62139443Y-57990197D02*
X62070342Y-58039853D01*
X62587942Y-125296394D02*
X61887149Y-124869999D01*
X118893887Y-76694129D02*
X118869257Y-76660441D01*
X49490367Y-94033992D02*
X49458548Y-94060178D01*
X118030730Y-111365127D02*
X117990800Y-111355911D01*
X50853518Y-96635501D02*
X50892628Y-96623668D01*
X45431541Y-70776696D02*
X45405334Y-70807490D01*
X83015309Y-140736941D02*
X83084011Y-140788202D01*
X83598087Y-141099492D02*
X83675443Y-141136950D01*
X47532888Y-70623259D02*
X47501373Y-70597468D01*
X94017473Y-121644153D02*
X94030767Y-121682424D01*
X86771021Y-134860373D02*
X86693974Y-134821758D01*
X94031140Y-69721278D02*
X94045246Y-69759085D01*
X75652813Y-53718520D02*
X75642281Y-53757849D01*
X40780946Y-116952326D02*
X40865036Y-116969281D01*
X50352720Y-93695462D02*
X50312301Y-93698271D01*
X118313430Y-114177860D02*
X118350109Y-114159619D01*
X45212571Y-72424345D02*
X45231849Y-72461123D01*
X78585879Y-53986278D02*
X78581914Y-53945558D01*
X94055784Y-120601365D02*
X94040617Y-120639457D01*
X78581914Y-53945558D02*
X78576072Y-53904945D01*
X42090460Y-110078167D02*
X42005442Y-110064686D01*
X75612127Y-54367717D02*
X75618703Y-54407906D01*
X116608975Y-78622393D02*
X116638401Y-78651351D01*
X77901881Y-52872687D02*
X77867236Y-52851628D01*
X95516921Y-67713756D02*
X95476279Y-67712774D01*
X118148524Y-76141923D02*
X118109455Y-76129284D01*
X94888671Y-70606621D02*
X94926773Y-70620796D01*
X96504722Y-120115268D02*
X96475718Y-120087034D01*
X45307410Y-70939305D02*
X45285610Y-70974375D01*
X43559021Y-116375910D02*
X43627686Y-116325514D01*
X94739813Y-122499030D02*
X94776233Y-122518089D01*
X44261399Y-111355906D02*
X44207331Y-111289358D01*
X41891348Y-117011234D02*
X41976475Y-117001191D01*
X76896401Y-55623568D02*
X76937280Y-55628325D01*
X95044065Y-70658670D02*
X95083682Y-70669036D01*
X116870078Y-87933310D02*
X116791876Y-87967707D01*
X116337369Y-76880612D02*
X116319251Y-76917470D01*
X76060265Y-55223495D02*
X76090000Y-55251292D01*
X38420275Y-111906783D02*
X38381234Y-111983098D01*
X48942887Y-95138052D02*
X48942343Y-95179437D01*
X119096569Y-77094286D02*
X119083412Y-77055927D01*
X94966027Y-122596213D02*
X95004305Y-122608327D01*
X94813199Y-70573939D02*
X94850535Y-70590511D01*
X77452172Y-52679659D02*
X77411818Y-52670715D01*
X120870351Y-93455676D02*
X120925615Y-93390531D01*
X49030987Y-95702129D02*
X49045017Y-95739979D01*
X118655352Y-78697188D02*
X118685874Y-78669792D01*
X94125797Y-120453405D02*
X94106748Y-120489823D01*
X47661068Y-72784161D02*
X47688452Y-72753682D01*
X43511805Y-110653626D02*
X43441029Y-110605532D01*
X75712629Y-54721279D02*
X75728543Y-54759012D01*
X77291050Y-52649498D02*
X77250182Y-52644761D01*
X62657218Y-57693224D02*
X62580500Y-57729686D01*
X61510049Y-64093339D02*
X61508666Y-64019837D01*
X63804927Y-57381553D02*
X63720537Y-57391179D01*
X46958130Y-70318651D02*
X46918804Y-70308108D01*
X78239773Y-53168382D02*
X78213278Y-53137728D01*
X64317151Y-57371306D02*
X64231971Y-57367689D01*
X58543543Y-122495847D02*
X57909127Y-121974431D01*
X46403184Y-73257193D02*
X46444360Y-73260792D01*
X83249021Y-135018667D02*
X83177941Y-135066555D01*
X38205998Y-114656464D02*
X38234404Y-114737829D01*
X117380518Y-111350447D02*
X117340441Y-111358919D01*
X45123761Y-72196027D02*
X45135594Y-72235138D01*
X47956655Y-71218405D02*
X47941472Y-71180251D01*
X116831242Y-95024110D02*
X116770974Y-95058906D01*
X50530195Y-96690176D02*
X50571771Y-96687693D01*
X94500604Y-70379979D02*
X94532924Y-70405306D01*
X95448912Y-70712356D02*
X95489731Y-70711271D01*
X61462250Y-64681125D02*
X61473805Y-64607984D01*
X81647791Y-138075392D02*
X81652168Y-138160855D01*
X116419917Y-76739103D02*
X116397698Y-76773435D01*
X116688819Y-76431343D02*
X116658294Y-76458741D01*
X96647613Y-122066268D02*
X96671418Y-122032975D01*
X116829661Y-114062739D02*
X116864000Y-114084945D01*
X94146433Y-120418028D02*
X94125797Y-120453405D01*
X60655499Y-60479622D02*
X60646951Y-60564733D01*
X119130372Y-77212611D02*
X119120007Y-77172648D01*
X118526141Y-114055052D02*
X118559357Y-114030980D01*
X117300581Y-76111382D02*
X117260758Y-76121661D01*
X118230229Y-94658302D02*
X118315567Y-94656934D01*
X77385928Y-55607837D02*
X77426006Y-55599366D01*
X46716815Y-70273209D02*
X46676366Y-70269191D01*
X39528095Y-116409614D02*
X39599604Y-116457284D01*
X78368485Y-54927160D02*
X78389545Y-54892510D01*
X51843667Y-95727520D02*
X51857674Y-95689128D01*
X119147396Y-77292728D02*
X119139362Y-77252398D01*
X38081710Y-112876553D02*
X38067078Y-112961257D01*
X87343990Y-135236405D02*
X87276336Y-135183572D01*
X39277832Y-110843669D02*
X39212549Y-110899922D01*
X38093154Y-114242567D02*
X38111790Y-114325656D01*
X95070315Y-119720386D02*
X95030780Y-119731483D01*
X116362901Y-113554008D02*
X116383220Y-113589202D01*
X94914180Y-67808542D02*
X94875744Y-67822909D01*
X51638998Y-94289282D02*
X51614266Y-94256623D01*
X47907000Y-71105300D02*
X47888879Y-71068833D01*
X117963991Y-79035734D02*
X118004068Y-79027261D01*
X78213278Y-53137728D02*
X78185320Y-53107927D01*
X118924596Y-113647077D02*
X118946802Y-113612738D01*
X119483845Y-94426286D02*
X119563023Y-94394259D01*
X118800463Y-78552797D02*
X118827131Y-78521764D01*
X88087404Y-136063466D02*
X88040247Y-135991949D01*
X116220845Y-77186439D02*
X116210670Y-77225548D01*
X96709381Y-120371542D02*
X96686438Y-120336885D01*
X116184267Y-77755034D02*
X116190117Y-77795661D01*
X38027636Y-113302745D02*
X38023289Y-113388356D01*
X50285592Y-96684752D02*
X50326044Y-96688777D01*
X116970133Y-114146855D02*
X117006555Y-114165913D01*
X46607681Y-73264269D02*
X46648528Y-73262189D01*
X118263443Y-111442912D02*
X118225723Y-111427538D01*
X119133414Y-113159898D02*
X119142010Y-113119741D01*
X45173894Y-71192346D02*
X45158735Y-71230435D01*
X121455916Y-92517322D02*
X121488107Y-92438122D01*
X51033554Y-93814673D02*
X50995049Y-93798776D01*
X62580500Y-57729686D02*
X62504325Y-57768767D01*
X61410917Y-63364539D02*
X61391493Y-63293648D01*
X61321981Y-63083498D02*
X61295838Y-63014503D01*
X118187267Y-111412588D02*
X118148867Y-111399567D01*
X78593431Y-54150067D02*
X78593249Y-54109119D01*
X118109791Y-111386932D02*
X118070414Y-111375453D01*
X119053406Y-76979397D02*
X119036972Y-76941960D01*
X38331759Y-114975881D02*
X38368649Y-115053326D01*
X117515262Y-114313130D02*
X117556146Y-114316890D01*
X81788631Y-136971450D02*
X81765173Y-137054416D01*
X94212669Y-120314292D02*
X94189288Y-120348318D01*
X51807221Y-94570506D02*
X51788673Y-94533299D01*
X41205507Y-117017125D02*
X41291227Y-117023353D01*
X50598491Y-93701198D02*
X50558039Y-93697173D01*
X78127187Y-53049571D02*
X78097452Y-53021774D01*
X116261178Y-78073337D02*
X116275709Y-78111880D01*
X44877656Y-114519639D02*
X44900387Y-114437094D01*
X116173906Y-77632954D02*
X116176192Y-77673665D01*
X38034595Y-113216595D02*
X38027636Y-113302745D01*
X116818371Y-76331127D02*
X116785143Y-76355192D01*
X61244217Y-65383820D02*
X61273534Y-65316053D01*
X96777182Y-69896593D02*
X96795308Y-69859735D01*
X65709863Y-57741377D02*
X65633234Y-57703486D01*
X118939206Y-112018673D02*
X118916982Y-111984580D01*
X38076706Y-114158200D02*
X38093154Y-114242567D01*
X121537201Y-90011611D02*
X121507923Y-89930749D01*
X84323551Y-141362061D02*
X84407023Y-141381333D01*
X44348419Y-115592644D02*
X44398097Y-115522895D01*
X63467617Y-57430632D02*
X63383682Y-57447818D01*
X60952130Y-65895610D02*
X60993969Y-65834304D01*
X117353555Y-114287211D02*
X117393714Y-114295315D01*
X96737636Y-121929238D02*
X96757538Y-121894285D01*
X43784940Y-110862550D02*
X43718323Y-110808139D01*
X121700739Y-91612441D02*
X121710730Y-91527474D01*
X38368649Y-115053326D02*
X38406272Y-115130347D01*
X81719232Y-138671574D02*
X81737147Y-138755080D01*
X117156812Y-78972858D02*
X117195645Y-78986611D01*
X119042372Y-113431453D02*
X119058537Y-113393764D01*
X76110240Y-53003740D02*
X76080013Y-53030962D01*
X96940437Y-121105314D02*
X96938359Y-121064469D01*
X116720333Y-76405322D02*
X116688819Y-76431343D01*
X118645161Y-111680070D02*
X118613368Y-111653446D01*
X43344167Y-116518528D02*
X43416532Y-116472845D01*
X45556631Y-72879740D02*
X45587114Y-72907132D01*
X94438322Y-70326968D02*
X94469241Y-70354099D01*
X120021208Y-94164919D02*
X120094347Y-94120738D01*
X45516845Y-70687371D02*
X45487467Y-70716076D01*
X47603886Y-72842591D02*
X47632845Y-72813160D01*
X116933805Y-78869900D02*
X116970067Y-78890030D01*
X96843681Y-69746750D02*
X96857757Y-69708317D01*
X77168969Y-52637875D02*
X77128324Y-52636903D01*
X49952756Y-93774846D02*
X49914169Y-93789310D01*
X116829821Y-78805785D02*
X116863936Y-78828120D01*
X49196689Y-96029782D02*
X49220378Y-96064021D01*
X46851829Y-73236707D02*
X46891905Y-73228238D01*
X119169230Y-112917292D02*
X119171153Y-112876095D01*
X75682249Y-54644970D02*
X75696705Y-54683543D01*
X42314566Y-116939933D02*
X42398271Y-116918973D01*
X44507435Y-111707560D02*
X44461327Y-111634460D01*
X82774208Y-135386663D02*
X82712089Y-135445011D01*
X118644899Y-76422378D02*
X118613461Y-76396543D01*
X96414787Y-68070367D02*
X96383421Y-68044481D01*
X41720762Y-117025646D02*
X41806105Y-117019382D01*
X78530333Y-53705507D02*
X78518500Y-53666387D01*
X78194436Y-55155713D02*
X78221811Y-55125239D01*
X60640514Y-61076821D02*
X60646350Y-61161424D01*
X84021345Y-134646088D02*
X83939984Y-134674493D01*
X45882403Y-70426462D02*
X45845615Y-70445737D01*
X96622547Y-70137416D02*
X96647270Y-70104563D01*
X85460053Y-134474384D02*
X85375059Y-134467734D01*
X116785143Y-76355192D02*
X116752492Y-76379915D01*
X96935675Y-121310430D02*
X96939275Y-121269256D01*
X21923863Y-47540473D02*
X68407131Y-20703345D01*
X46071073Y-70346861D02*
X46032066Y-70360581D01*
X116922150Y-76265338D02*
X116887082Y-76286563D01*
X117438382Y-87748911D02*
X117355477Y-87769401D01*
X51823145Y-94608234D02*
X51807221Y-94570506D01*
X45082781Y-71506976D02*
X45075705Y-71547226D01*
X93946085Y-69321655D02*
X93949753Y-69362546D01*
X95163686Y-122647322D02*
X95203936Y-122654384D01*
X77086948Y-52636345D02*
X77046414Y-52637266D01*
X96931387Y-69389131D02*
X96935696Y-69348515D01*
X48030144Y-72063665D02*
X48037957Y-72022999D01*
X96687034Y-68375614D02*
X96663353Y-68341379D01*
X96543049Y-70231212D02*
X96570428Y-70200746D01*
X60796406Y-59812655D02*
X60772090Y-59894149D01*
X44188755Y-115795298D02*
X44243588Y-115729415D01*
X120612456Y-88594132D02*
X120549161Y-88536825D01*
X84239977Y-141340903D02*
X84323551Y-141362061D01*
X118877641Y-113714261D02*
X118901512Y-113680930D01*
X47333870Y-70480075D02*
X47298491Y-70459430D01*
X49071900Y-94582576D02*
X49055576Y-94620342D01*
X121710730Y-91527474D02*
X121718845Y-91442629D01*
X116599608Y-76516089D02*
X116571086Y-76545264D01*
X42481131Y-116896553D02*
X42563883Y-116872236D01*
X63136024Y-57511613D02*
X63054851Y-57536974D01*
X94555034Y-119964109D02*
X94522380Y-119988834D01*
X119172096Y-112794409D02*
X119170600Y-112753229D01*
X51941739Y-95206514D02*
X51941558Y-95165566D01*
X88118363Y-139808554D02*
X88162880Y-139734949D01*
X85884607Y-134539186D02*
X85800517Y-134522228D01*
X76250819Y-55377434D02*
X76285158Y-55399665D01*
X61484599Y-64535266D02*
X61493098Y-64461926D01*
X115463835Y-96793183D02*
X115446953Y-96860620D01*
X96569910Y-122161968D02*
X96596865Y-122130760D01*
X95004305Y-122608327D02*
X95044055Y-122619605D01*
X38111790Y-114325656D02*
X38132021Y-114409786D01*
X93967236Y-121445371D02*
X93974972Y-121485871D01*
X44207331Y-111289358D02*
X44151803Y-111223652D01*
X49668532Y-96477898D02*
X49703917Y-96498521D01*
X82591226Y-135567578D02*
X82533231Y-135631373D01*
X116957974Y-111502497D02*
X116922062Y-111522253D01*
X88333801Y-136515627D02*
X88297637Y-136437762D01*
X95931488Y-70630248D02*
X95969844Y-70615918D01*
X43582283Y-110702882D02*
X43511805Y-110653626D01*
X61024246Y-59260723D02*
X60985938Y-59336614D01*
X96870307Y-121630711D02*
X96882735Y-121591279D01*
X118967667Y-113577229D02*
X118988082Y-113541980D01*
X76502210Y-55514845D02*
X76540715Y-55530733D01*
X116183956Y-113012078D02*
X116189809Y-113052688D01*
X51350798Y-94000082D02*
X51318237Y-93975863D01*
X87887471Y-135784906D02*
X87832985Y-135717631D01*
X115905003Y-95853144D02*
X115865278Y-95910309D01*
X117952404Y-94672053D02*
X117883220Y-94679740D01*
X43627686Y-116325514D02*
X43695818Y-116272488D01*
X81832078Y-139085459D02*
X81860057Y-139166102D01*
X82651230Y-135505569D02*
X82591226Y-135567578D01*
X75594210Y-54163960D02*
X75595125Y-54204493D01*
X61195950Y-124426331D02*
X60516338Y-123967180D01*
X115598855Y-96398472D02*
X115572289Y-96462696D01*
X78490753Y-53589535D02*
X78474833Y-53551806D01*
X118715754Y-78641788D02*
X118744993Y-78613178D01*
X116172242Y-95532659D02*
X116124191Y-95582887D01*
X47804556Y-70927862D02*
X47781294Y-70894363D01*
X117300492Y-111368294D02*
X117261094Y-111379309D01*
X121177492Y-93045667D02*
X121222929Y-92973487D01*
X85940639Y-141368931D02*
X86024347Y-141347979D01*
X96937939Y-69102804D02*
X96934271Y-69061913D01*
X119073787Y-78098765D02*
X119087868Y-78060334D01*
X45244344Y-71045127D02*
X45224863Y-71080813D01*
X117540897Y-94742466D02*
X117473434Y-94759911D01*
X45148890Y-72273412D02*
X45163340Y-72311990D01*
X60709237Y-60142601D02*
X60693025Y-60226262D01*
X94005227Y-121604298D02*
X94017473Y-121644153D01*
X38946147Y-115902869D02*
X39004919Y-115965725D01*
X115317184Y-98146835D02*
X115239718Y-98949235D01*
X47971425Y-71255829D02*
X47956655Y-71218405D01*
X78583131Y-54313425D02*
X78587148Y-54272968D01*
X60708521Y-61584064D02*
X60727157Y-61667154D01*
X116487417Y-88122947D02*
X116413853Y-88166398D01*
X118083324Y-114263787D02*
X118122522Y-114251908D01*
X47188925Y-70403414D02*
X47151884Y-70386681D01*
X116307624Y-78187308D02*
X116325083Y-78224153D01*
X94236456Y-120280998D02*
X94212669Y-120314292D01*
X94588106Y-119940122D02*
X94555034Y-119964109D01*
X94174764Y-70014749D02*
X94196991Y-70048846D01*
X40641938Y-110143106D02*
X40559079Y-110165529D01*
X82753146Y-140514842D02*
X82816932Y-140572846D01*
X95203936Y-122654384D02*
X95244507Y-122660294D01*
X119156294Y-77782275D02*
X119161917Y-77741888D01*
X51393715Y-96351958D02*
X51425534Y-96325773D01*
X46032066Y-70360581D02*
X45993918Y-70375778D01*
X38406272Y-115130347D02*
X38447259Y-115206404D01*
X77831857Y-52830983D02*
X77795749Y-52810778D01*
X121684014Y-90590675D02*
X121669022Y-90506458D01*
X95244581Y-70699326D02*
X95285308Y-70704154D01*
X82691550Y-140455578D02*
X82753146Y-140514842D01*
X48059883Y-71737566D02*
X48058546Y-71696307D01*
X46109774Y-70334287D02*
X46071073Y-70346861D01*
M02*
