M48
; DRILL file {KiCad 7.0.11-7.0.11~ubuntu22.04.1} date Thu 15 Aug 2024 03:16:46 PM CEST
; FORMAT={-:-/ absolute / inch / decimal}
; #@! TF.CreationDate,2024-08-15T15:16:46+02:00
; #@! TF.GenerationSoftware,Kicad,Pcbnew,7.0.11-7.0.11~ubuntu22.04.1
; #@! TF.FileFunction,Plated,1,2,PTH
FMAT,2
INCH
; #@! TA.AperFunction,Plated,PTH,ComponentDrill
T1C0.0300
; #@! TA.AperFunction,Plated,PTH,ComponentDrill
T2C0.0315
; #@! TA.AperFunction,Plated,PTH,ComponentDrill
T3C0.0320
; #@! TA.AperFunction,Plated,PTH,ComponentDrill
T4C0.0402
; #@! TA.AperFunction,Plated,PTH,ComponentDrill
T5C0.0410
%
G90
G05
T1
X4.0022Y-4.4644
X4.0704Y-4.4251
X4.1386Y-4.3857
X4.2068Y-4.3463
T2
X1.0581Y-1.9079
X1.1081Y-1.9945
X1.1581Y-2.0811
X1.2081Y-2.1677
X1.2581Y-2.2543
X1.3081Y-2.3409
X1.3581Y-2.4275
X1.4081Y-2.5141
X1.4911Y-1.6579
X1.5411Y-1.7445
X1.5911Y-1.8311
X1.6307Y-1.5774
X1.6411Y-1.9177
X1.6807Y-1.664
X1.6911Y-2.0043
X1.7307Y-1.7506
X1.7411Y-2.0909
X1.7807Y-1.8372
X1.7911Y-2.1775
X1.8307Y-1.9238
X1.8411Y-2.2641
X1.8807Y-2.0104
X1.9307Y-2.097
X1.9807Y-2.1836
X2.0637Y-1.3274
X2.1137Y-1.414
X2.1637Y-1.5006
X2.2028Y-1.2465
X2.2137Y-1.5872
X2.2528Y-1.3331
X2.2637Y-1.6738
X2.3028Y-1.4197
X2.3137Y-1.7604
X2.3528Y-1.5063
X2.3637Y-1.847
X2.4028Y-1.5929
X2.4137Y-1.9336
X2.4528Y-1.6795
X2.5028Y-1.7661
X2.5528Y-1.8527
X2.6358Y-0.9965
X2.6858Y-1.0831
X2.7358Y-1.1697
X2.7858Y-1.2563
X2.8358Y-1.3429
X2.8858Y-1.4295
X2.9358Y-1.5161
X2.9858Y-1.6027
T3
X1.6417Y-2.5703
X1.7098Y-2.5309
X1.778Y-2.4915
X2.6278Y-6.4404
X2.6672Y-6.3722
X2.7066Y-6.3041
X4.3432Y-2.6472
X4.4114Y-2.6865
X4.4796Y-2.7259
T4
X5.0476Y-2.8191
X5.0476Y-2.9191
X5.0476Y-3.0191
X5.0476Y-3.1191
X5.0476Y-3.2191
X5.0476Y-3.3191
X5.0476Y-3.4191
X5.0476Y-3.5191
X5.0476Y-3.6191
X5.0476Y-3.7191
X5.0476Y-3.8191
X5.0476Y-3.9191
X5.0476Y-4.0191
X5.0476Y-4.1191
X5.0476Y-4.2191
X5.0476Y-4.3191
X5.0476Y-4.4191
X5.0476Y-4.5191
X5.0476Y-4.6191
X5.0476Y-4.7191
X5.2976Y-2.8281
X5.3976Y-2.8281
X5.4976Y-2.8281
X5.7476Y-2.8191
X5.7476Y-2.9191
X5.7476Y-3.0191
X5.7476Y-3.1191
X5.7476Y-3.2191
X5.7476Y-3.3191
X5.7476Y-3.4191
X5.7476Y-3.5191
X5.7476Y-3.6191
X5.7476Y-3.7191
X5.7476Y-3.8191
X5.7476Y-3.9191
X5.7476Y-4.0191
X5.7476Y-4.1191
X5.7476Y-4.2191
X5.7476Y-4.3191
X5.7476Y-4.4191
X5.7476Y-4.5191
X5.7476Y-4.6191
X5.7476Y-4.7191
T5
X2.8307Y-1.9108
X2.9159Y-1.8616
M30
