%TF.GenerationSoftware,KiCad,Pcbnew,7.0.11-7.0.11~ubuntu22.04.1*%
%TF.CreationDate,2024-08-15T15:16:46+02:00*%
%TF.ProjectId,MotorDriver-Elec,4d6f746f-7244-4726-9976-65722d456c65,rev?*%
%TF.SameCoordinates,Original*%
%TF.FileFunction,Drillmap*%
%TF.FilePolarity,Positive*%
%FSLAX45Y45*%
G04 Gerber Fmt 4.5, Leading zero omitted, Abs format (unit mm)*
G04 Created by KiCad (PCBNEW 7.0.11-7.0.11~ubuntu22.04.1) date 2024-08-15 15:16:46*
%MOMM*%
%LPD*%
G01*
G04 APERTURE LIST*
%ADD10C,0.149999*%
%ADD11C,0.200000*%
G04 APERTURE END LIST*
D10*
X8599383Y-13508226D02*
X8592285Y-13506263D01*
X6663096Y-5920300D02*
X6659015Y-5914247D01*
X6103340Y-6601096D02*
X6108524Y-6595854D01*
X11541267Y-9671811D02*
X11540724Y-9678675D01*
X7710124Y-5563630D02*
X7714219Y-5563611D01*
X5171721Y-9598432D02*
X5173785Y-9594895D01*
X9410763Y-6852839D02*
X9408951Y-6856523D01*
X5055846Y-9369790D02*
X5051770Y-9369505D01*
X11700700Y-7890878D02*
X11704403Y-7892651D01*
X11654434Y-11183320D02*
X11651768Y-11186424D01*
X8666797Y-13537446D02*
X8660396Y-13533810D01*
X11854907Y-11160454D02*
X11851541Y-11158096D01*
X6280870Y-5817572D02*
X6274278Y-5820888D01*
X5043568Y-9369352D02*
X5039472Y-9369370D01*
X9603379Y-6783377D02*
X9599607Y-6781839D01*
X7809774Y-5302160D02*
X7806725Y-5299520D01*
X11831380Y-11417765D02*
X11835048Y-11415939D01*
X9503144Y-6777016D02*
X9499183Y-6778130D01*
X11796471Y-7903630D02*
X11800437Y-7902709D01*
X11703164Y-11146583D02*
X11699460Y-11148330D01*
X4549789Y-7282372D02*
X4552690Y-7285194D01*
X5194271Y-9516587D02*
X5194063Y-9512502D01*
X7836130Y-5333382D02*
X7833908Y-5329973D01*
X4895263Y-9501609D02*
X4894861Y-9505653D01*
X9694139Y-12122891D02*
X9694268Y-12118711D01*
X5119239Y-9649264D02*
X5122790Y-9647115D01*
X6137309Y-6203918D02*
X6140289Y-6210604D01*
X4509308Y-7207685D02*
X4510272Y-7211723D01*
X6480623Y-5794240D02*
X6473476Y-5792697D01*
X6214183Y-5862427D02*
X6208713Y-5867346D01*
X4422148Y-11222657D02*
X4418947Y-11216097D01*
X4806049Y-7177925D02*
X4806030Y-7173828D01*
X4963388Y-9645682D02*
X4966895Y-9647862D01*
X9394547Y-6911669D02*
X9394361Y-6915785D01*
X7632064Y-5542217D02*
X7635602Y-5544282D01*
X11867653Y-7645006D02*
X11864562Y-7642293D01*
X6192083Y-6354331D02*
X6191190Y-6347027D01*
X11914803Y-11255019D02*
X11914000Y-11250986D01*
X8568372Y-14091209D02*
X8575571Y-14089791D01*
X11915032Y-7782288D02*
X11915667Y-7778206D01*
X8259882Y-13637659D02*
X8256088Y-13643956D01*
X9679004Y-12051463D02*
X9677150Y-12047743D01*
X8299060Y-14004729D02*
X8304302Y-14009915D01*
X11619495Y-7730599D02*
X11618859Y-7734681D01*
X8762700Y-13627355D02*
X8758504Y-13621272D01*
X6678183Y-5945415D02*
X6674615Y-5939066D01*
X9492690Y-12258263D02*
X9496603Y-12259621D01*
X11555968Y-9605154D02*
X11553760Y-9611610D01*
X11673144Y-7873255D02*
X11676375Y-7875788D01*
X9659729Y-12213149D02*
X9662339Y-12209882D01*
X11620280Y-7726626D02*
X11619495Y-7730599D01*
X5044956Y-9669274D02*
X5049051Y-9669256D01*
X11617279Y-7759155D02*
X11617420Y-7763277D01*
X9641550Y-12003185D02*
X9638399Y-12000606D01*
X11629156Y-7814964D02*
X11630799Y-7818709D01*
X5049051Y-9669256D02*
X5053135Y-9669049D01*
X4002060Y-11093297D02*
X3995765Y-11097127D01*
X7574709Y-5479621D02*
X7576521Y-5483268D01*
X9689442Y-12155226D02*
X9690381Y-12151263D01*
X8769439Y-13954495D02*
X8773234Y-13948199D01*
X11879206Y-7656618D02*
X11876446Y-7653616D01*
X11774775Y-7606632D02*
X11770668Y-7606462D01*
X11905370Y-7697922D02*
X11903727Y-7694178D01*
X11644329Y-7670507D02*
X11642021Y-7673893D01*
X4926162Y-9426773D02*
X4923740Y-9430028D01*
X7561212Y-5436770D02*
X7561913Y-5440862D01*
X4943831Y-9630774D02*
X4946952Y-9633468D01*
X11814932Y-7614244D02*
X11811018Y-7612985D01*
X7847541Y-5355145D02*
X7845891Y-5351405D01*
X4509058Y-7146629D02*
X4508277Y-7150696D01*
X7718303Y-5563404D02*
X7722420Y-5563082D01*
X8224861Y-13718395D02*
X8223013Y-13725523D01*
X4794145Y-7118023D02*
X4792554Y-7114250D01*
X9694149Y-6926695D02*
X9694254Y-6922626D01*
X11762141Y-8822102D02*
X11754999Y-8823684D01*
X7571304Y-5472199D02*
X7572971Y-5475933D01*
X9577433Y-7067502D02*
X9581428Y-7066565D01*
X9651515Y-12222291D02*
X9654368Y-12219275D01*
X4800922Y-7137380D02*
X4799738Y-7133467D01*
X9403193Y-12168273D02*
X9404596Y-12172058D01*
X8314996Y-14019970D02*
X8320520Y-14024798D01*
X7856933Y-5386482D02*
X7856129Y-5382449D01*
X11630790Y-11344400D02*
X11632571Y-11348162D01*
X11739417Y-7903818D02*
X11743492Y-7904594D01*
X4561977Y-7293322D02*
X4565160Y-7295786D01*
X4506821Y-7191523D02*
X4507290Y-7195553D01*
X11706264Y-8839502D02*
X11699578Y-8842483D01*
X9622777Y-7049047D02*
X9626234Y-7046855D01*
X6189932Y-6434763D02*
X6191012Y-6427492D01*
X4538886Y-7270090D02*
X4541431Y-7273313D01*
X15097011Y-6837077D02*
X15097000Y-12204500D01*
X11668954Y-7643190D02*
X11665901Y-7645930D01*
X9535408Y-11967679D02*
X9531293Y-11968002D01*
X4789586Y-7244915D02*
X4791376Y-7241242D01*
X9416823Y-12038296D02*
X9414717Y-12041760D01*
X3878819Y-11476906D02*
X3881914Y-11483624D01*
X8793710Y-13685806D02*
X8790833Y-13678961D01*
X9599607Y-6781839D02*
X9595762Y-6780345D01*
X11763858Y-7906425D02*
X11767974Y-7906493D01*
X6117158Y-6133624D02*
X6118387Y-6140834D01*
X8570788Y-13501370D02*
X8563503Y-13500100D01*
X7565397Y-5371883D02*
X7564270Y-5375858D01*
X11838674Y-11414042D02*
X11842265Y-11412066D01*
X6114009Y-6067888D02*
X6113653Y-6075230D01*
X9407779Y-12179605D02*
X9409561Y-12183367D01*
X9600870Y-12256321D02*
X9604644Y-12254729D01*
X11663904Y-11390882D02*
X11666906Y-11393646D01*
X5064052Y-9370625D02*
X5059964Y-9370149D01*
X8814530Y-13786215D02*
X8814203Y-13778876D01*
X9690056Y-6886041D02*
X9689069Y-6882114D01*
X6188920Y-6332596D02*
X6187502Y-6325398D01*
X8585200Y-13504488D02*
X8577967Y-13502797D01*
X6193225Y-6405585D02*
X6193581Y-6398243D01*
X3983346Y-11105080D02*
X3977306Y-11109349D01*
X12001046Y-9357377D02*
X12006879Y-9352934D01*
X4634929Y-7028009D02*
X4630908Y-7028666D01*
X11681900Y-11158859D02*
X11678535Y-11161193D01*
X6249035Y-5835756D02*
X6242984Y-5839836D01*
X5087998Y-9375864D02*
X5084096Y-9374695D01*
X9581428Y-7066565D02*
X9585367Y-7065464D01*
X11855982Y-7877385D02*
X11859247Y-7874913D01*
X3954314Y-11127609D02*
X3948771Y-11132570D01*
X6115330Y-6053244D02*
X6114596Y-6060609D01*
X11673476Y-8855794D02*
X11667168Y-8859534D01*
X4936956Y-9414480D02*
X4934175Y-9417453D01*
X4103209Y-11649154D02*
X4110481Y-11650235D01*
X11772040Y-11432080D02*
X11776124Y-11431873D01*
X6466338Y-5791343D02*
X6459098Y-5790146D01*
X6177362Y-6484451D02*
X6179673Y-6477446D01*
X6193630Y-6376315D02*
X6193304Y-6368976D01*
X11663877Y-7865114D02*
X11666915Y-7867954D01*
X9693507Y-6906242D02*
X9693059Y-6902199D01*
X11619756Y-7783632D02*
X11620560Y-7787665D01*
X8784756Y-13665557D02*
X8781555Y-13658996D01*
X11742118Y-7608574D02*
X11738097Y-7609331D01*
X9608377Y-7056871D02*
X9612046Y-7055046D01*
X8429896Y-14083855D02*
X8436993Y-14085819D01*
X11703180Y-7620887D02*
X11699469Y-7622638D01*
X3928102Y-11153497D02*
X3923316Y-11159094D01*
X9436987Y-6816385D02*
X9434177Y-6819375D01*
X7645301Y-5278040D02*
X7641634Y-5279867D01*
X12042697Y-8911477D02*
X12037644Y-8906181D01*
X7738593Y-5560784D02*
X7742600Y-5559935D01*
X9691758Y-6894053D02*
X9690954Y-6890021D01*
X8638448Y-14069327D02*
X8645123Y-14066157D01*
X4803612Y-7149318D02*
X4802763Y-7145311D01*
X5926730Y-6732587D02*
X5994641Y-6682234D01*
X8254838Y-13946085D02*
X8258594Y-13952422D01*
X11913067Y-7721244D02*
X11912080Y-7717316D01*
X11813006Y-8816003D02*
X11805674Y-8816325D01*
X9551764Y-6771432D02*
X9547658Y-6771260D01*
X7560627Y-5432708D02*
X7561212Y-5436770D01*
X7693727Y-5562831D02*
X7697845Y-5563191D01*
X9547684Y-11967436D02*
X9543546Y-11967381D01*
X4774120Y-7269096D02*
X4776616Y-7265798D01*
X11807079Y-7611836D02*
X11803118Y-7610799D01*
X11906919Y-7701721D02*
X11905370Y-7697922D01*
X11823902Y-11421104D02*
X11827676Y-11419512D01*
X12110924Y-9031344D02*
X12108791Y-9024363D01*
X11976617Y-9373536D02*
X11982875Y-9369727D01*
X4624227Y-7323080D02*
X4628222Y-7323902D01*
X11747882Y-8825446D02*
X11740821Y-8827373D01*
X11803118Y-7610799D02*
X11799125Y-7609878D01*
X4451079Y-11328647D02*
X4450375Y-11321331D01*
X11917238Y-11279423D02*
X11917133Y-11275378D01*
X4506162Y-7171079D02*
X4506066Y-7175144D01*
X11621147Y-7722607D02*
X11620280Y-7726626D01*
X4408117Y-11196832D02*
X4404215Y-11190579D01*
X6140289Y-6210604D02*
X6143344Y-6217249D01*
X6231134Y-5848437D02*
X6225337Y-5852958D01*
X9398142Y-12083494D02*
X9397246Y-12087530D01*
X3852294Y-11340881D02*
X3852128Y-11348211D01*
X9450125Y-12234151D02*
X9453348Y-12236689D01*
X9400201Y-6879467D02*
X9399110Y-6883420D01*
X4931437Y-9420501D02*
X4928742Y-9423620D01*
X4760388Y-7284258D02*
X4763327Y-7281389D01*
X4543270Y-7077701D02*
X4540573Y-7080821D01*
X8279711Y-13982563D02*
X8284306Y-13988318D01*
X4234457Y-11641617D02*
X4241463Y-11639528D01*
X6114004Y-6104455D02*
X6114520Y-6111783D01*
X8238445Y-13913120D02*
X8241353Y-13919849D01*
X9681313Y-12178397D02*
X9682871Y-12174662D01*
X7584953Y-5497365D02*
X7587279Y-5500715D01*
X4896519Y-9493454D02*
X4895854Y-9497552D01*
X11862446Y-11398068D02*
X11865599Y-11395466D01*
X11688746Y-7628635D02*
X11685281Y-7630829D01*
X9439910Y-6813524D02*
X9436987Y-6816385D01*
X9511069Y-11971075D02*
X9507074Y-11972111D01*
X4949035Y-9403399D02*
X4945971Y-9406049D01*
X9427075Y-12210992D02*
X9429694Y-12214174D01*
X11658105Y-11385040D02*
X11660960Y-11387986D01*
X4179030Y-11054377D02*
X4171676Y-11053833D01*
X11826390Y-7618578D02*
X11822618Y-7617041D01*
X4340521Y-11119714D02*
X4334673Y-11115172D01*
X4618885Y-7031209D02*
X4614931Y-7032318D01*
X7646559Y-5549883D02*
X7650336Y-5551514D01*
X11768670Y-9421150D02*
X11761945Y-9422490D01*
X11632538Y-7822398D02*
X11634422Y-7826101D01*
X4445782Y-11292209D02*
X4444247Y-11284980D01*
X3865717Y-11442530D02*
X3868038Y-11449598D01*
X11896136Y-7679692D02*
X11894009Y-7676228D01*
X4055646Y-11069105D02*
X4048737Y-11071530D01*
X11876446Y-7653616D02*
X11873599Y-7650665D01*
X11845771Y-11409944D02*
X11849235Y-11407748D01*
X11823080Y-9415839D02*
X11816260Y-9415964D01*
X11944094Y-9390356D02*
X11950754Y-9387295D01*
X3981369Y-11599834D02*
X3987457Y-11603945D01*
X4060252Y-11638760D02*
X4067361Y-11640912D01*
X11617356Y-11276682D02*
X11617287Y-11280828D01*
X11665893Y-11171621D02*
X11662904Y-11174421D01*
X8812982Y-13764231D02*
X8812089Y-13756926D01*
X11849628Y-8817052D02*
X11842319Y-8816482D01*
X9619218Y-12247292D02*
X9622811Y-12245217D01*
X11762470Y-7606503D02*
X11758393Y-7606706D01*
X7729191Y-5264998D02*
X7725118Y-5264514D01*
X4614931Y-7032318D02*
X4610977Y-7033429D01*
X9679561Y-6985956D02*
X9681271Y-6982230D01*
X7560158Y-5428679D02*
X7560627Y-5432708D01*
X11630235Y-11221146D02*
X11628618Y-11224914D01*
X11782946Y-11132978D02*
X11778857Y-11132602D01*
X5180721Y-9457049D02*
X5178983Y-9453361D01*
X11916502Y-11267140D02*
X11916054Y-11263096D01*
X7758352Y-5555436D02*
X7762231Y-5554076D01*
X6163272Y-6518297D02*
X6166404Y-6511698D01*
X4517967Y-7235044D02*
X4519634Y-7238777D01*
X11823868Y-7895339D02*
X11827642Y-7893747D01*
X9499183Y-6778130D02*
X9495326Y-6779477D01*
X4660883Y-7326456D02*
X4664968Y-7326248D01*
X3965582Y-11118170D02*
X3959869Y-11122838D01*
X4451412Y-11372743D02*
X4451768Y-11365401D01*
X4771539Y-7272246D02*
X4774120Y-7269096D01*
X4519634Y-7238777D02*
X4521372Y-7242466D01*
X4284746Y-11084068D02*
X4278147Y-11080937D01*
X5162361Y-9611854D02*
X5164784Y-9608598D01*
X7689640Y-5562357D02*
X7693727Y-5562831D01*
X7779653Y-5281128D02*
X7775989Y-5279236D01*
X8332040Y-14034082D02*
X8337919Y-14038508D01*
X11656622Y-9470003D02*
X11651115Y-9474061D01*
X9500497Y-7064702D02*
X9504436Y-7065849D01*
X4377636Y-11155381D02*
X4372676Y-11149838D01*
X3881914Y-11483624D02*
X3885231Y-11490215D01*
X4803088Y-7206324D02*
X4803836Y-7202372D01*
X4535500Y-7087271D02*
X4533119Y-7090600D01*
X9406114Y-12175873D02*
X9407779Y-12179605D01*
X12122941Y-9125495D02*
X12123093Y-9118172D01*
X8304302Y-14009915D02*
X8309575Y-14014985D01*
X11842274Y-7886375D02*
X11845780Y-7884253D01*
X11914289Y-7786334D02*
X11915032Y-7782288D01*
X11909753Y-9403046D02*
X11916754Y-9400863D01*
X9636236Y-7039712D02*
X9639452Y-7037171D01*
X8703056Y-13562656D02*
X8697281Y-13558073D01*
X4966895Y-9647862D02*
X4970433Y-9649926D01*
X11900759Y-7824843D02*
X11902571Y-7821157D01*
X12021714Y-8891035D02*
X12016153Y-8886229D01*
X9553156Y-12267151D02*
X9557197Y-12266870D01*
X11512339Y-9990801D02*
X11501180Y-10066656D01*
X8236572Y-13683477D02*
X8233915Y-13690388D01*
X4028265Y-11079928D02*
X4021547Y-11083024D01*
X5187980Y-9476225D02*
X5186682Y-9472282D01*
X4322809Y-11106478D02*
X4316721Y-11102366D01*
X9544977Y-12267376D02*
X9549030Y-12267285D01*
X9531293Y-11968002D02*
X9527220Y-11968399D01*
X5085351Y-9663549D02*
X5089305Y-9662439D01*
X11812332Y-7899555D02*
X11816231Y-7898282D01*
X11874133Y-9411489D02*
X11881337Y-9410165D01*
X7620715Y-5292724D02*
X7617443Y-5295201D01*
X6378742Y-5788635D02*
X6371479Y-5789601D01*
X9412695Y-12045371D02*
X9410790Y-12049014D01*
X4736893Y-7050185D02*
X4733386Y-7048006D01*
X8604071Y-14082429D02*
X8611065Y-14080150D01*
X9658872Y-12020657D02*
X9656179Y-12017518D01*
X12121865Y-9088868D02*
X12121116Y-9081576D01*
X11624833Y-7803481D02*
X11626147Y-7807316D01*
X3943458Y-11137592D02*
X3938230Y-11142761D01*
X11948266Y-8843203D02*
X11941571Y-8840226D01*
X4804501Y-7198274D02*
X4805019Y-7194259D01*
X9428763Y-12021722D02*
X9426183Y-12024875D01*
X7721036Y-5264133D02*
X7716938Y-5263859D01*
X4644435Y-7326078D02*
X4648585Y-7326321D01*
X11778857Y-11132602D02*
X11774759Y-11132329D01*
X9645656Y-7031829D02*
X9648601Y-7028956D01*
X11615691Y-9506246D02*
X11611111Y-9511335D01*
X5053135Y-9669049D02*
X5057176Y-9668768D01*
X4582265Y-7307126D02*
X4585834Y-7309074D01*
X11957377Y-9384154D02*
X11963882Y-9380790D01*
X4647220Y-7026776D02*
X4643104Y-7027100D01*
X9399080Y-12079531D02*
X9398142Y-12083494D01*
X8247839Y-13933115D02*
X8251228Y-13939664D01*
X4952259Y-9400853D02*
X4949035Y-9403399D01*
X11617420Y-7763277D02*
X11617649Y-7767349D01*
X4757408Y-7287055D02*
X4760388Y-7284258D01*
X7741288Y-5267105D02*
X7737279Y-5266291D01*
X11685272Y-11156521D02*
X11681900Y-11158859D01*
X9402698Y-6871670D02*
X9401392Y-6875552D01*
X5061324Y-9668330D02*
X5065354Y-9667861D01*
X8487683Y-14094877D02*
X8495037Y-14095422D01*
X4527218Y-7253266D02*
X4529323Y-7256743D01*
X4548788Y-7071680D02*
X4546007Y-7074653D01*
X4053321Y-11636407D02*
X4060252Y-11638760D01*
X4775772Y-7086200D02*
X4773301Y-7082935D01*
X4911352Y-9588911D02*
X4913353Y-9592546D01*
X7642885Y-5548091D02*
X7646559Y-5549883D01*
X9612094Y-12251209D02*
X9615698Y-12249324D01*
X4142248Y-11053323D02*
X4134908Y-11053651D01*
X8235685Y-13906307D02*
X8238445Y-13913120D01*
X11912080Y-7717316D02*
X11910948Y-7713374D01*
X7857831Y-5435433D02*
X7858384Y-5431398D01*
X9557207Y-7070674D02*
X9561296Y-7070270D01*
X4897267Y-9489501D02*
X4896519Y-9493454D01*
X4628222Y-7323902D02*
X4632248Y-7324609D01*
X6371479Y-5789601D02*
X6364228Y-5790756D01*
X9576114Y-6774676D02*
X9572105Y-6773863D01*
X5151494Y-9624188D02*
X5154347Y-9621172D01*
X11783798Y-8818397D02*
X11776548Y-8819455D01*
X8230530Y-13892467D02*
X8232997Y-13899450D01*
X6451826Y-5789065D02*
X6444534Y-5788288D01*
X11842265Y-11412066D02*
X11845771Y-11409944D01*
X4768918Y-7275326D02*
X4771539Y-7272246D01*
X8613422Y-13512732D02*
X8606418Y-13510421D01*
X8214823Y-13805824D02*
X8215191Y-13813237D01*
X4395896Y-11178371D02*
X4391522Y-11172490D01*
X11575567Y-9561478D02*
X11572343Y-9567544D01*
X11961446Y-8849673D02*
X11954880Y-8846326D01*
X8215877Y-13769043D02*
X8215258Y-13776439D01*
X11754999Y-8823684D02*
X11747882Y-8825446D01*
X9638372Y-6804431D02*
X9635147Y-6801892D01*
X6193304Y-6368976D02*
X6192788Y-6361647D01*
X4205765Y-11648310D02*
X4212963Y-11646890D01*
X4513632Y-7223470D02*
X4514930Y-7227413D01*
X6157899Y-5929531D02*
X6154105Y-5935830D01*
X4404215Y-11190579D02*
X4400092Y-11184455D01*
X5185352Y-9468455D02*
X5183906Y-9464597D01*
X8781555Y-13658996D02*
X8778092Y-13652490D01*
X11649215Y-11189657D02*
X11646749Y-11192939D01*
X4655400Y-7026551D02*
X4651303Y-7026569D01*
X9691800Y-12090220D02*
X9690953Y-12086212D01*
X11998809Y-8872681D02*
X11992838Y-8868503D01*
X11885336Y-7848998D02*
X11887810Y-7845713D01*
X9644597Y-12005923D02*
X9641550Y-12003185D01*
X9401377Y-12071655D02*
X9400207Y-12075556D01*
X9396038Y-6944342D02*
X9396746Y-6948430D01*
X4919023Y-9436759D02*
X4916802Y-9440194D01*
X12116345Y-9052655D02*
X12114744Y-9045563D01*
X5994641Y-6682234D02*
X6063715Y-6633554D01*
X11659997Y-7651586D02*
X11657181Y-7654582D01*
X9671011Y-12037111D02*
X9668759Y-12033719D01*
X8685418Y-13549378D02*
X8679329Y-13545267D01*
X11672071Y-7640511D02*
X11668954Y-7643190D01*
X9398449Y-6956442D02*
X9399442Y-6960365D01*
X3888694Y-11496721D02*
X3892230Y-11503185D01*
X11903727Y-7694178D02*
X11901988Y-7690489D01*
X9633020Y-12238346D02*
X9636285Y-12235874D01*
X4593223Y-7312727D02*
X4596927Y-7314401D01*
X11501180Y-10066656D02*
X11488385Y-10142283D01*
X9561345Y-12266432D02*
X9565332Y-12265889D01*
X4691923Y-7030884D02*
X4687960Y-7029945D01*
X6667145Y-5926466D02*
X6663096Y-5920300D01*
X7725118Y-5264514D02*
X7721036Y-5264133D01*
X4316721Y-11102366D02*
X4310486Y-11098340D01*
X5167162Y-9605268D02*
X5169500Y-9601866D01*
X11775400Y-9419904D02*
X11768670Y-9421150D01*
X8270775Y-13970809D02*
X8275148Y-13976692D01*
X11848087Y-11155788D02*
X11844637Y-11153673D01*
X8217544Y-13754491D02*
X8216653Y-13761751D01*
X12044532Y-9318193D02*
X12049416Y-9312734D01*
X5132999Y-9640244D02*
X5136264Y-9637772D01*
X11885807Y-8822464D02*
X11878628Y-8821035D01*
X4900543Y-9562400D02*
X4901842Y-9566343D01*
X8766823Y-13633480D02*
X8762700Y-13627355D01*
X7614234Y-5297738D02*
X7611117Y-5300417D01*
X11650037Y-7850032D02*
X11652648Y-7853217D01*
X12096642Y-9238931D02*
X12099586Y-9232246D01*
X3908241Y-11527866D02*
X3912583Y-11533865D01*
X11812323Y-11425246D02*
X11816223Y-11423974D01*
X11553760Y-9611610D02*
X11551733Y-9618157D01*
X6137710Y-5968562D02*
X6134895Y-5975370D01*
X5015100Y-9372198D02*
X5011091Y-9373045D01*
X11950754Y-9387295D02*
X11957377Y-9384154D01*
X11617260Y-7755059D02*
X11617279Y-7759155D01*
X6693422Y-5978754D02*
X6690661Y-5971939D01*
X7581970Y-5334548D02*
X7579907Y-5338086D01*
X9669494Y-7003793D02*
X9671715Y-7000360D01*
X9449057Y-12001500D02*
X9445949Y-12004078D01*
X11907451Y-7809933D02*
X11908816Y-7806015D01*
X6615465Y-5864895D02*
X6610014Y-5860025D01*
X6274278Y-5820888D02*
X6267887Y-5824382D01*
X9495326Y-6779477D02*
X9491454Y-6780832D01*
X11699578Y-8842483D02*
X11692919Y-8845546D01*
X3977306Y-11109349D02*
X3971380Y-11113651D01*
X8215258Y-13776439D02*
X8214902Y-13783781D01*
X4156961Y-11053237D02*
X4149598Y-11053185D01*
X11841066Y-7625845D02*
X11837490Y-7623901D01*
X6698621Y-12750254D02*
X6623201Y-12717835D01*
X4514930Y-7227413D02*
X4516449Y-7231229D01*
X11762503Y-11132268D02*
X11758377Y-11132401D01*
X5192669Y-9541073D02*
X5193187Y-9537059D01*
X6165889Y-5917293D02*
X6161779Y-5923382D01*
X8275148Y-13976692D02*
X8279711Y-13982563D01*
X11750254Y-11133181D02*
X11746178Y-11133675D01*
X5790955Y-12197516D02*
X5728829Y-12143929D01*
X4915385Y-9596067D02*
X4917533Y-9599617D01*
X7766033Y-5552567D02*
X7769813Y-5550969D01*
X3912583Y-11533865D02*
X3917104Y-11539662D01*
X4905600Y-9462107D02*
X4904084Y-9465916D01*
X11791076Y-7608366D02*
X11787027Y-7607771D01*
X6287430Y-5814371D02*
X6280870Y-5817572D01*
X4424309Y-11479214D02*
X4427356Y-11472469D01*
X6177830Y-6290019D02*
X6175404Y-6283109D01*
X7592222Y-5507246D02*
X7594840Y-5510427D01*
X9409534Y-6987192D02*
X9411368Y-6990825D01*
X7826652Y-5320082D02*
X7824041Y-5316897D01*
X11666906Y-11393646D02*
X11669997Y-11396358D01*
X11700692Y-11416569D02*
X11704387Y-11418347D01*
X6193748Y-6390912D02*
X6193841Y-6383623D01*
X9408958Y-12052613D02*
X9407210Y-12056359D01*
X11686423Y-7882795D02*
X11689923Y-7884978D01*
X11627118Y-7703028D02*
X11625710Y-7706871D01*
X11711908Y-7895846D02*
X11715761Y-7897337D01*
X8754130Y-13615390D02*
X8749683Y-13609549D01*
X11884473Y-11188551D02*
X11881904Y-11185440D01*
X11618016Y-7771438D02*
X11618506Y-7775556D01*
X7840339Y-5340435D02*
X7838307Y-5336916D01*
X9512390Y-7067807D02*
X9516406Y-7068617D01*
X4449168Y-11394764D02*
X4450133Y-11387462D01*
X8276671Y-13613399D02*
X8272245Y-13619279D01*
X4074385Y-11642918D02*
X4081587Y-11644724D01*
X3863627Y-11435524D02*
X3865717Y-11442530D01*
X11540724Y-9678675D02*
X11540290Y-9685476D01*
X5114448Y-9386794D02*
X5110805Y-9384889D01*
X7680261Y-5266559D02*
X7676252Y-5267404D01*
X8444121Y-14087667D02*
X8451312Y-14089283D01*
X4015030Y-11086299D02*
X4008524Y-11089761D01*
X5069374Y-9667202D02*
X5073423Y-9666427D01*
X5190932Y-9488110D02*
X5190083Y-9484102D01*
X4894989Y-9534323D02*
X4895458Y-9538353D01*
X11923656Y-9398441D02*
X11930546Y-9395930D01*
X4924509Y-9609667D02*
X4927053Y-9612890D01*
X9693555Y-12102405D02*
X9693044Y-12098301D01*
X5148630Y-9627016D02*
X5151494Y-9624188D01*
X3917104Y-11539662D02*
X3921770Y-11545376D01*
X8232997Y-13899450D02*
X8235685Y-13906307D01*
X8805102Y-13720778D02*
X8803159Y-13713688D01*
X4942832Y-9408740D02*
X4939894Y-9411610D01*
X4169269Y-11652662D02*
X4176598Y-11652146D01*
X7668318Y-5269444D02*
X7664357Y-5270559D01*
X5115678Y-9651221D02*
X5119239Y-9649264D01*
X7730523Y-5562216D02*
X7734541Y-5561557D01*
X8402117Y-14074181D02*
X8409030Y-14076839D01*
X4652692Y-7326492D02*
X4656714Y-7326517D01*
X9395005Y-6936238D02*
X9395452Y-6940280D01*
X9399110Y-6883420D02*
X9398135Y-6887405D01*
X4958832Y-9395983D02*
X4955525Y-9398381D01*
X5169500Y-9601866D02*
X5171721Y-9598432D01*
X6123360Y-6010087D02*
X6121628Y-6017247D01*
X8244523Y-13926524D02*
X8247839Y-13933115D01*
X9673806Y-12192997D02*
X9675827Y-12189386D01*
X4955525Y-9398381D02*
X4952259Y-9400853D01*
X9561296Y-7070270D02*
X9565370Y-7069775D01*
X11862456Y-7872376D02*
X11865615Y-7869771D01*
X8634010Y-13520789D02*
X8627203Y-13517974D01*
X4346150Y-11124384D02*
X4340521Y-11119714D01*
X11714492Y-11141803D02*
X11710649Y-11143239D01*
X9687147Y-12163102D02*
X9688316Y-12159200D01*
X7797044Y-5291912D02*
X7793679Y-5289554D01*
X5168738Y-9435617D02*
X5166413Y-9432266D01*
X6842047Y-16969033D02*
X8292576Y-14456626D01*
X5667832Y-12088909D02*
X5667864Y-6949698D01*
X7635602Y-5544282D02*
X7639170Y-5546229D01*
X8728555Y-14006451D02*
X8733584Y-14001104D01*
X11548149Y-9631372D02*
X11546599Y-9638034D01*
X4526497Y-7100974D02*
X4524507Y-7104468D01*
X8808390Y-13735109D02*
X8806782Y-13727923D01*
X11723534Y-11425672D02*
X11727473Y-11426819D01*
X5076127Y-9372745D02*
X5072133Y-9371923D01*
X11758393Y-7606706D02*
X11754307Y-7607011D01*
X11566298Y-9579833D02*
X11563477Y-9586056D01*
X9429645Y-7018011D02*
X9432309Y-7021068D01*
X9401820Y-12164372D02*
X9403193Y-12168273D01*
X9680716Y-6858976D02*
X9678977Y-6855288D01*
X6842047Y-16969033D02*
X2193753Y-14285311D01*
X8517115Y-14096069D02*
X8524466Y-14095930D01*
X4903172Y-9570170D02*
X4904617Y-9574029D01*
X7733241Y-5265594D02*
X7729191Y-5264998D01*
X9452238Y-11998882D02*
X9449057Y-12001500D01*
X9495295Y-11975588D02*
X9491437Y-11977032D01*
X4415483Y-11209590D02*
X4411874Y-11203169D01*
X9693059Y-6902199D02*
X9692474Y-6898137D01*
X8453708Y-13502291D02*
X8446522Y-13503898D01*
X9465753Y-11989612D02*
X9462319Y-11991791D01*
X9685373Y-12066557D02*
X9683926Y-12062699D01*
X8708758Y-13567284D02*
X8703056Y-13562656D01*
X9677150Y-12047743D02*
X9675191Y-12044182D01*
X6081405Y-6620508D02*
X6087001Y-6615809D01*
X4032776Y-11628423D02*
X4039510Y-11631281D01*
X6645672Y-5896726D02*
X6640975Y-5891129D01*
X8224292Y-13871334D02*
X8226162Y-13878466D01*
X11618851Y-11260372D02*
X11618339Y-11264481D01*
X8789890Y-13915412D02*
X8792780Y-13908562D01*
X4525186Y-7249747D02*
X4527218Y-7253266D01*
X4212963Y-11646890D02*
X4220191Y-11645357D01*
X8311378Y-13575470D02*
X8306066Y-13580492D01*
X8647353Y-13526968D02*
X8640713Y-13523764D01*
X12103984Y-9010519D02*
X12101347Y-9003731D01*
X7764782Y-5274268D02*
X7760936Y-5272773D01*
X11908372Y-7705575D02*
X11906919Y-7701721D01*
X11679860Y-8852206D02*
X11673476Y-8855794D01*
X8546522Y-14094342D02*
X8553828Y-14093448D01*
X7856409Y-5443488D02*
X7857202Y-5439510D01*
X4894251Y-9522039D02*
X4894385Y-9526166D01*
X5121627Y-9390764D02*
X5118090Y-9388701D01*
X8519568Y-13496137D02*
X8512206Y-13496086D01*
X9477690Y-7055677D02*
X9481392Y-7057450D01*
X11683012Y-7880560D02*
X11686423Y-7882795D01*
X11800470Y-11428472D02*
X11804423Y-11427461D01*
X11743476Y-11430290D02*
X11747533Y-11430880D01*
X6166404Y-6511698D02*
X6169378Y-6504995D01*
X9595760Y-11976537D02*
X9591919Y-11975135D01*
X11719911Y-8834165D02*
X11713056Y-8836754D01*
X7777220Y-5547475D02*
X7780854Y-5545574D01*
X11784299Y-7905475D02*
X11788381Y-7904976D01*
X11473882Y-10217528D02*
X11457787Y-10292519D01*
X11619084Y-7779621D02*
X11619756Y-7783632D01*
X9690381Y-12151263D02*
X9691276Y-12147226D01*
X9401392Y-6875552D02*
X9400201Y-6879467D01*
X6208713Y-5867346D02*
X6203443Y-5872442D01*
X9488924Y-12256820D02*
X9492690Y-12258263D01*
X8792780Y-13908562D02*
X8795406Y-13901766D01*
X7859324Y-5419123D02*
X7859429Y-5415055D01*
X7753188Y-5270207D02*
X7749243Y-5269064D01*
X9673132Y-6844486D02*
X9670955Y-6840952D01*
X9394595Y-12107832D02*
X9394310Y-12111907D01*
X11747541Y-7905189D02*
X11751614Y-7905673D01*
X11837490Y-7623901D02*
X11833826Y-7622008D01*
X9648601Y-7028956D02*
X9651525Y-7026094D01*
X4442495Y-11277878D02*
X4440552Y-11270788D01*
X4937956Y-9625171D02*
X4940857Y-9627993D01*
X4351675Y-11129210D02*
X4346150Y-11124384D01*
X11921083Y-8832306D02*
X11914115Y-8829974D01*
X4069721Y-11064694D02*
X4062642Y-11066826D01*
X4711452Y-7037109D02*
X4707570Y-7035635D01*
X8790833Y-13678961D02*
X8787926Y-13672232D01*
X9483872Y-6783938D02*
X9480127Y-6785612D01*
X11937372Y-9393259D02*
X11944094Y-9390356D01*
X9604644Y-12254729D02*
X9608332Y-12252990D01*
X11891769Y-11198513D02*
X11889410Y-11195086D01*
X9474032Y-7053779D02*
X9477690Y-7055677D01*
X8752681Y-13978640D02*
X8757034Y-13972803D01*
X8811006Y-13749631D02*
X8809808Y-13742307D01*
X11751605Y-11431364D02*
X11755686Y-11431745D01*
X6307670Y-5805911D02*
X6300888Y-5808556D01*
X4805896Y-7169703D02*
X4805690Y-7165618D01*
X7600255Y-5516587D02*
X7603126Y-5519527D01*
X8651757Y-14062914D02*
X8658263Y-14059451D01*
X3993650Y-11607898D02*
X3999946Y-11611693D01*
X9656179Y-12017518D02*
X9653384Y-12014537D01*
X9394406Y-12124268D02*
X9394687Y-12128309D01*
X6592877Y-5846260D02*
X6586967Y-5841949D01*
X9417549Y-7001531D02*
X9419779Y-7004936D01*
X8309575Y-14014985D02*
X8314996Y-14019970D01*
X4683892Y-7029165D02*
X4679868Y-7028459D01*
X11665901Y-7645930D02*
X11662914Y-7648730D01*
X11888515Y-9408661D02*
X11895609Y-9406911D01*
X3876823Y-11233842D02*
X3873965Y-11240577D01*
X5175848Y-9591356D02*
X5177754Y-9587715D01*
X9597055Y-12257840D02*
X9600870Y-12256321D01*
X4220191Y-11645357D02*
X4227367Y-11643560D01*
X6129435Y-6183338D02*
X6131933Y-6190206D01*
X11808404Y-11426434D02*
X11812323Y-11425246D01*
X9641551Y-6807092D02*
X9638372Y-6804431D01*
X9608332Y-12252990D02*
X9612094Y-12251209D01*
X8337919Y-14038508D02*
X8343903Y-14042777D01*
X9690376Y-6955075D02*
X9691235Y-6951059D01*
X6542806Y-5815923D02*
X6536176Y-5812907D01*
X9404597Y-6975965D02*
X9406144Y-6979764D01*
X9446953Y-7035392D02*
X9450140Y-7038049D01*
X5158851Y-9422554D02*
X5156202Y-9419489D01*
X3987457Y-11603945D02*
X3993650Y-11607898D01*
X11795734Y-9417158D02*
X11788953Y-9417945D01*
X11670006Y-7870667D02*
X11673144Y-7873255D01*
X12108791Y-9024363D02*
X12106461Y-9017399D01*
X4901398Y-9473625D02*
X4900228Y-9477527D01*
X11617411Y-11288969D02*
X11617683Y-11293114D01*
X6501904Y-5799943D02*
X6494837Y-5797862D01*
X11917161Y-7761897D02*
X11917266Y-7757828D01*
X9515078Y-11970227D02*
X9511069Y-11971075D01*
X4588282Y-7042720D02*
X4584678Y-7044605D01*
X11909729Y-7709484D02*
X11908372Y-7705575D01*
X11770695Y-11132231D02*
X11766579Y-11132163D01*
X4438419Y-11263708D02*
X4436141Y-11256714D01*
X8624948Y-14075068D02*
X8631719Y-14072234D01*
X4639032Y-7027496D02*
X4634929Y-7028009D01*
X4899101Y-9481502D02*
X4898163Y-9485465D01*
X15097000Y-12204500D02*
X12193386Y-12204493D01*
X11623613Y-7799589D02*
X11624833Y-7803481D01*
X8770726Y-13639732D02*
X8766823Y-13633480D01*
X9573444Y-12264529D02*
X9577452Y-12263682D01*
X4026031Y-11625375D02*
X4032776Y-11628423D01*
X5091941Y-9377106D02*
X5087998Y-9375864D01*
X11900054Y-8825871D02*
X11892961Y-8824101D01*
X5147665Y-9410633D02*
X5144619Y-9407893D01*
X4780571Y-7092817D02*
X4778246Y-7089467D01*
X8465817Y-14092054D02*
X8473089Y-14093136D01*
X4894385Y-9526166D02*
X4894666Y-9530207D01*
X11618339Y-11264481D02*
X11617900Y-11268547D01*
X9667183Y-12203370D02*
X9669521Y-12199968D01*
X6364228Y-5790756D02*
X6357018Y-5791986D01*
X5173785Y-9594895D02*
X5175848Y-9591356D01*
X8251228Y-13939664D02*
X8254838Y-13946085D01*
X9394416Y-6928072D02*
X9394646Y-6932142D01*
X5193948Y-9528896D02*
X5194119Y-9524788D01*
X5190360Y-9553160D02*
X5191255Y-9549124D01*
X6113603Y-6097158D02*
X6114004Y-6104455D01*
X4517432Y-7119308D02*
X4515916Y-7123117D01*
X9555862Y-6771704D02*
X9551764Y-6771432D01*
X12006879Y-9352934D02*
X12012605Y-9348357D01*
X6522635Y-5807232D02*
X6515766Y-5804649D01*
X9417511Y-12197646D02*
X9419806Y-12201111D01*
X9629648Y-7044590D02*
X9632971Y-7042184D01*
X8285924Y-13601995D02*
X8281182Y-13607666D01*
X11617287Y-11280828D02*
X11617304Y-11284923D01*
X9410790Y-12049014D02*
X9408958Y-12052613D01*
X6150468Y-5942230D02*
X6147063Y-5948694D01*
X6700508Y-5999493D02*
X6698347Y-5992530D01*
X6127199Y-6176416D02*
X6129435Y-6183338D01*
X4608414Y-7318719D02*
X4612284Y-7320003D01*
X9675165Y-6848006D02*
X9673132Y-6844486D01*
X8691401Y-13553646D02*
X8685418Y-13549378D01*
X5093206Y-9661067D02*
X5097032Y-9659738D01*
X4255440Y-11634782D02*
X4262339Y-11632168D01*
X11763849Y-11432117D02*
X11767965Y-11432184D01*
X5154347Y-9621172D02*
X5157085Y-9618125D01*
X11598057Y-9527181D02*
X11593972Y-9532668D01*
X4035026Y-11076905D02*
X4028265Y-11079928D01*
X11761945Y-9422490D02*
X11755297Y-9424080D01*
X12016153Y-8886229D02*
X12010488Y-8881581D01*
X9432309Y-7021068D02*
X9435110Y-7024143D01*
X11666915Y-7867954D02*
X11670006Y-7870667D01*
X11802583Y-9416626D02*
X11795734Y-9417158D01*
X8611065Y-14080150D02*
X8618048Y-14077683D01*
X6156503Y-6531296D02*
X6159983Y-6524791D01*
X7848063Y-5470891D02*
X7849572Y-5467086D01*
X4524507Y-7104468D02*
X4522601Y-7108110D01*
X9622811Y-12245217D02*
X9626246Y-12243039D01*
X5023169Y-9370766D02*
X5019076Y-9371466D01*
X11658114Y-7859348D02*
X11660969Y-7862295D01*
X7641634Y-5279867D02*
X7638008Y-5281764D01*
X6191190Y-6347027D02*
X6190149Y-6339806D01*
X11898854Y-7828485D02*
X11900759Y-7824843D01*
X11727473Y-11426819D02*
X11731442Y-11427852D01*
X11877371Y-11384074D02*
X11880110Y-11381027D01*
X4797600Y-7226112D02*
X4798958Y-7222199D01*
X4901842Y-9566343D02*
X4903172Y-9570170D01*
X11726139Y-11137913D02*
X11722220Y-11139100D01*
X4098340Y-11058045D02*
X4091100Y-11059390D01*
X4906136Y-9577845D02*
X4907801Y-9581576D01*
X9395010Y-12132425D02*
X9395479Y-12136456D01*
X7564270Y-5375858D02*
X7563332Y-5379821D01*
X11887794Y-11371408D02*
X11890230Y-11368144D01*
X8813687Y-13771547D02*
X8812982Y-13764231D01*
X11740821Y-8827373D02*
X11733801Y-8829471D01*
X9543546Y-11967381D02*
X9539492Y-11967473D01*
X5104623Y-9656627D02*
X5108353Y-9654961D01*
X11908849Y-11331780D02*
X11910157Y-11327897D01*
X11837473Y-11149597D02*
X11833859Y-11147773D01*
X9591921Y-6779042D02*
X9588014Y-6777779D01*
X9470449Y-7051840D02*
X9474032Y-7053779D01*
X4727510Y-7308423D02*
X4731072Y-7306464D01*
X11856008Y-11403154D02*
X11859281Y-11400677D01*
X9439872Y-12009639D02*
X9436976Y-12012582D01*
X8328191Y-13561071D02*
X8322477Y-13565739D01*
X3893479Y-11201056D02*
X3889843Y-11207458D01*
X9480127Y-6785612D02*
X9476458Y-6787437D01*
X9666391Y-12030295D02*
X9663993Y-12026987D01*
X12004718Y-8877091D02*
X11998809Y-8872681D01*
X11766595Y-7606467D02*
X11762470Y-7606503D01*
X11986736Y-8864401D02*
X11980571Y-8860530D01*
X3858788Y-11289813D02*
X3857360Y-11296993D01*
X11632571Y-11348162D02*
X11634406Y-11351796D01*
X8620365Y-13515274D02*
X8613422Y-13512732D01*
X12115336Y-9183461D02*
X12116936Y-9176377D01*
X11623195Y-11240364D02*
X11622105Y-11244317D01*
X8660396Y-13533810D02*
X8653891Y-13530331D01*
X5187126Y-9565000D02*
X5188295Y-9561098D01*
X4414262Y-11498897D02*
X4417741Y-11492391D01*
X11549894Y-9624792D02*
X11548149Y-9631372D01*
X7855230Y-5378471D02*
X7854244Y-5374543D01*
X4767991Y-7076616D02*
X4765194Y-7073635D01*
X6180108Y-6297015D02*
X6177830Y-6290019D01*
X6113653Y-6075230D02*
X6113486Y-6082561D01*
X8786917Y-13922115D02*
X8789890Y-13915412D01*
X4308413Y-11609184D02*
X4314665Y-11605281D01*
X11617683Y-11293114D02*
X11618042Y-11297208D01*
X8242404Y-13670041D02*
X8239431Y-13676743D01*
X6401923Y-12610075D02*
X6329915Y-12570699D01*
X7754433Y-5556723D02*
X7758352Y-5555436D01*
X4659495Y-7026533D02*
X4655400Y-7026551D01*
X4571861Y-7300619D02*
X4575221Y-7302883D01*
X8504855Y-13496223D02*
X8497517Y-13496550D01*
X11852643Y-11405488D02*
X11856008Y-11403154D01*
X4380788Y-11547260D02*
X4385531Y-11541588D01*
X8761376Y-13966776D02*
X8765487Y-13960688D01*
X11967887Y-8853090D02*
X11961446Y-8849673D01*
X4934175Y-9417453D02*
X4931437Y-9420501D01*
X11715761Y-7897337D02*
X11719636Y-7898716D01*
X8589975Y-14086461D02*
X8597065Y-14084517D01*
X7842268Y-5344013D02*
X7840339Y-5340435D01*
X8765487Y-13960688D02*
X8769439Y-13954495D01*
X11887810Y-7845713D02*
X11890196Y-7842379D01*
X8796324Y-13692705D02*
X8793710Y-13685806D01*
X11916063Y-7737405D02*
X11915485Y-7733340D01*
X6580909Y-5837722D02*
X6574790Y-5833727D01*
X11816231Y-7898282D02*
X11820068Y-7896849D01*
X9431416Y-12018530D02*
X9428763Y-12021722D01*
X9636285Y-12235874D02*
X9639435Y-12233372D01*
X4530856Y-7093959D02*
X4528633Y-7097393D01*
X12118300Y-9169137D02*
X12119503Y-9161892D01*
X11916754Y-9400863D02*
X11923656Y-9398441D01*
X11776133Y-7906181D02*
X11780219Y-7905875D01*
X6328569Y-5798928D02*
X6321489Y-5801060D01*
X12198441Y-6837033D02*
X15097011Y-6837077D01*
X11912438Y-11320029D02*
X11913413Y-11316045D01*
X6147063Y-5948694D02*
X6143816Y-5955260D01*
X7831583Y-5326623D02*
X7829168Y-5323322D01*
X6118541Y-6031543D02*
X6117345Y-6038783D01*
X7787952Y-5541476D02*
X7791408Y-5539284D01*
X11625693Y-11232567D02*
X11624394Y-11236446D01*
X9516406Y-7068617D02*
X9520439Y-7069319D01*
X4262339Y-11632168D02*
X4269110Y-11629334D01*
X4451595Y-11335975D02*
X4451079Y-11328647D01*
X9653384Y-12014537D02*
X9650587Y-12011557D01*
X4922109Y-9606359D02*
X4924509Y-9609667D01*
X4689263Y-7322780D02*
X4693229Y-7321860D01*
X8717942Y-14016685D02*
X8723328Y-14011620D01*
X9524493Y-12266102D02*
X9528580Y-12266578D01*
X11620272Y-11252318D02*
X11619520Y-11256369D01*
X7563332Y-5379821D02*
X7562394Y-5383785D01*
X9421318Y-6835306D02*
X9419018Y-6838686D01*
X8326264Y-14029497D02*
X8332040Y-14034082D01*
X7577843Y-5341624D02*
X7575937Y-5345266D01*
X7859410Y-5410959D02*
X7859270Y-5406837D01*
X11699460Y-11148330D02*
X11695827Y-11150233D01*
X9515087Y-6774129D02*
X9511078Y-6774977D01*
X8748139Y-13984489D02*
X8752681Y-13978640D01*
X6329915Y-12570699D02*
X6258836Y-12529712D01*
X5065354Y-9667861D02*
X5069374Y-9667202D01*
X9675191Y-12044182D02*
X9673117Y-12040589D01*
X11683003Y-11406251D02*
X11686457Y-11408560D01*
X4521372Y-7242466D02*
X4523185Y-7246112D01*
X9403144Y-6972110D02*
X9404597Y-6975965D01*
X9686702Y-12070384D02*
X9685373Y-12066557D01*
X11916959Y-11291707D02*
X11917187Y-11287665D01*
X7621795Y-5535438D02*
X7625197Y-5537774D01*
X4320717Y-11601201D02*
X4326800Y-11597004D01*
X4536340Y-7266867D02*
X4538886Y-7270090D01*
X3933087Y-11148078D02*
X3928102Y-11153497D01*
X6444534Y-5788288D02*
X6437284Y-5787586D01*
X9684388Y-12170854D02*
X9685861Y-12166972D01*
X4450133Y-11387462D02*
X4450867Y-11380096D01*
X8531804Y-14095604D02*
X8539206Y-14095046D01*
X7605062Y-5305965D02*
X7602124Y-5308835D01*
X4729849Y-7045943D02*
X4726279Y-7043994D01*
X11881337Y-9410165D02*
X11888515Y-9408661D01*
X4805780Y-7186095D02*
X4805951Y-7181989D01*
X7838307Y-5336916D02*
X7836130Y-5333382D01*
X5194119Y-9524788D02*
X5194290Y-9520682D01*
X4452009Y-11358027D02*
X4452059Y-11350665D01*
X5186682Y-9472282D02*
X5185352Y-9468455D01*
X7844734Y-5478384D02*
X7846445Y-5474659D01*
X11811018Y-7612985D02*
X11807079Y-7611836D01*
X4533942Y-7263560D02*
X4536340Y-7266867D01*
X8806266Y-13866558D02*
X8807882Y-13859368D01*
X9628503Y-6797125D02*
X9625092Y-6794891D01*
X4894331Y-9513879D02*
X4894233Y-9517944D01*
X4117785Y-11651200D02*
X4125149Y-11651934D01*
X9693211Y-6938969D02*
X9693649Y-6934904D01*
X5191255Y-9549124D02*
X5192005Y-9545172D01*
X6459098Y-5790146D02*
X6451826Y-5789065D01*
X4510934Y-7138703D02*
X4509923Y-7142707D01*
X4773301Y-7082935D02*
X4770683Y-7079754D01*
X9539492Y-11967473D02*
X9535408Y-11967679D01*
X6117345Y-6038783D02*
X6116221Y-6045981D01*
X5860087Y-6784458D02*
X5926730Y-6732587D01*
X9516410Y-12264805D02*
X9520436Y-12265512D01*
X6132504Y-6568128D02*
X6136856Y-6562290D01*
X5059964Y-9370149D02*
X5055846Y-9369790D01*
X3885231Y-11490215D02*
X3888694Y-11496721D01*
X11845780Y-7884253D02*
X11849244Y-7882057D01*
X9573417Y-7068354D02*
X9577433Y-7067502D01*
X7746566Y-5559015D02*
X7750519Y-5557905D01*
X4448471Y-11306689D02*
X4447200Y-11299407D01*
X9395284Y-12099711D02*
X9394881Y-12103756D01*
X9413347Y-6994473D02*
X9415379Y-6997994D01*
X8320520Y-14024798D02*
X8326264Y-14029497D01*
X11718337Y-7614678D02*
X11714458Y-7616038D01*
X7853485Y-5455442D02*
X7854568Y-5451492D01*
X11880126Y-7855331D02*
X11882750Y-7852154D01*
X7750519Y-5557905D02*
X7754433Y-5556723D01*
X4278147Y-11080937D02*
X4271402Y-11077889D01*
X4778995Y-7262469D02*
X4781332Y-7259065D01*
X4513229Y-7130826D02*
X4511987Y-7134770D01*
X4798513Y-7129482D02*
X4797184Y-7125654D01*
X3883001Y-11220499D02*
X3879869Y-11227097D01*
X4008524Y-11089761D02*
X4002060Y-11093297D01*
X4385531Y-11541588D02*
X4390072Y-11535740D01*
X5164015Y-9428958D02*
X5161469Y-9425736D01*
X9635147Y-6801892D02*
X9631870Y-6799484D01*
X11830165Y-7620310D02*
X11826390Y-7618578D01*
X8627203Y-13517974D02*
X8620365Y-13515274D01*
X11617365Y-7750990D02*
X11617260Y-7755059D01*
X9647644Y-12008662D02*
X9644597Y-12005923D01*
X8388639Y-14068276D02*
X8395343Y-14071250D01*
X11667168Y-8859534D02*
X11660959Y-8863411D01*
X9693165Y-12135088D02*
X9693641Y-12131001D01*
X8631719Y-14072234D02*
X8638448Y-14069327D01*
X9519097Y-11969568D02*
X9515078Y-11970227D01*
X9511078Y-6774977D02*
X9507084Y-6775915D01*
X6113595Y-6590580D02*
X6118538Y-6585087D01*
X7859131Y-5423242D02*
X7859324Y-5419123D01*
X11842319Y-8816482D02*
X11835006Y-8816109D01*
X9693649Y-6934904D02*
X9693957Y-6930815D01*
X7775989Y-5279236D02*
X7772294Y-5277459D01*
X6121628Y-6017247D02*
X6119969Y-6024363D01*
X8810696Y-13844937D02*
X8811777Y-13837664D01*
X4041839Y-11074144D02*
X4035026Y-11076905D01*
X9396466Y-12091599D02*
X9395833Y-12095581D01*
X4787680Y-7248556D02*
X4789586Y-7244915D01*
X4744757Y-7297486D02*
X4748024Y-7295015D01*
X4988903Y-9658718D02*
X4992785Y-9660191D01*
X9445950Y-6807984D02*
X9442855Y-6810650D01*
X11770668Y-7606462D02*
X11766595Y-7606467D01*
X11695827Y-11150233D02*
X11692278Y-11152282D01*
X11891744Y-7672745D02*
X11889418Y-7669394D01*
X9682366Y-6862716D02*
X9680716Y-6858976D01*
X11930546Y-9395930D02*
X11937372Y-9393259D01*
X11634406Y-11351796D02*
X11636342Y-11355371D01*
X4095926Y-11647885D02*
X4103209Y-11649154D01*
X9547658Y-6771260D02*
X9543584Y-6771266D01*
X11894710Y-11361256D02*
X11896839Y-11357779D01*
X11710657Y-7617547D02*
X11706884Y-7619140D01*
X9395452Y-6940280D02*
X9396038Y-6944342D01*
X7849089Y-5358944D02*
X7847541Y-5355145D01*
X3901300Y-11188525D02*
X3897273Y-11194759D01*
X9687945Y-6878168D02*
X9686683Y-6874205D01*
X4264594Y-11075074D02*
X4257757Y-11072373D01*
X4695855Y-7031938D02*
X4691923Y-7030884D01*
X4314665Y-11605281D02*
X4320717Y-11601201D01*
X9421308Y-12031502D02*
X9419044Y-12034862D01*
X5175171Y-9446079D02*
X5173139Y-9442559D01*
X9488898Y-7060645D02*
X9492749Y-7062136D01*
X4444247Y-11284980D02*
X4442495Y-11277878D01*
X9504436Y-7065849D02*
X9508405Y-7066882D01*
X9453364Y-7040587D02*
X9456642Y-7042996D01*
X7841017Y-5485712D02*
X7842922Y-5482070D01*
X11859247Y-7874913D02*
X11862456Y-7872376D01*
X6163921Y-6256108D02*
X6160721Y-6249549D01*
X6116221Y-6045981D02*
X6115330Y-6053244D01*
X6267887Y-5824382D02*
X6261465Y-5827991D01*
X11640560Y-7836732D02*
X11642782Y-7840142D01*
X4751246Y-7292469D02*
X4754385Y-7289777D01*
X8229019Y-13704262D02*
X8226867Y-13711372D01*
X12081970Y-8964277D02*
X12078177Y-8957961D01*
X11852659Y-7879793D02*
X11855982Y-7877385D01*
X9580107Y-6775598D02*
X9576114Y-6774676D01*
X9407233Y-6860253D02*
X9405623Y-6864018D01*
X9465734Y-6793433D02*
X9462271Y-6795628D01*
X4355335Y-11573785D02*
X4360720Y-11568719D01*
X4740328Y-7052407D02*
X4736893Y-7050185D01*
X7807735Y-5526924D02*
X7810788Y-5524186D01*
X8658263Y-14059451D02*
X8664684Y-14055841D01*
X11914008Y-7725295D02*
X11913067Y-7721244D01*
X9689068Y-12078208D02*
X9687886Y-12074296D01*
X4344309Y-11583474D02*
X4349863Y-11578703D01*
X9682408Y-12058883D02*
X9680742Y-12055152D01*
X11627600Y-7811170D02*
X11629156Y-7814964D01*
X4544154Y-7276336D02*
X4546919Y-7279432D01*
X4546007Y-7074653D02*
X4543270Y-7077701D01*
X3860521Y-11282654D02*
X3858788Y-11289813D01*
X8460948Y-13500945D02*
X8453708Y-13502291D01*
X5139414Y-9635269D02*
X5142552Y-9632577D01*
X4577566Y-7048711D02*
X4574058Y-7050932D01*
X11871655Y-7864230D02*
X11874528Y-7861300D01*
X11754298Y-11132703D02*
X11750254Y-11133181D01*
X7569786Y-5468384D02*
X7571304Y-5472199D01*
X7844152Y-5347716D02*
X7842268Y-5344013D01*
X11884482Y-7662859D02*
X11881871Y-7659674D01*
X5189089Y-9480179D02*
X5187980Y-9476225D01*
X6190149Y-6339806D02*
X6188920Y-6332596D01*
X9404107Y-6867826D02*
X9402698Y-6871670D01*
X11631955Y-7691730D02*
X11630244Y-7695455D01*
X4992785Y-9660191D02*
X4996581Y-9661519D01*
X5179544Y-9584042D02*
X5181292Y-9580295D01*
X3941695Y-11567015D02*
X3946968Y-11572085D01*
X11689923Y-7884978D02*
X11693460Y-7887042D01*
X4445275Y-11416467D02*
X4446775Y-11409246D01*
X9496603Y-12259621D02*
X9500546Y-12260864D01*
X8495037Y-14095422D02*
X8502380Y-14095777D01*
X11795109Y-7609068D02*
X11791076Y-7608366D01*
X5177172Y-9449714D02*
X5175171Y-9446079D01*
X9607119Y-6785030D02*
X9603379Y-6783377D01*
X12095539Y-8990268D02*
X12092355Y-8983602D01*
X3897273Y-11194759D02*
X3893479Y-11201056D01*
X4439845Y-11437884D02*
X4441809Y-11430786D01*
X12119101Y-9067097D02*
X12117801Y-9059832D01*
X5003172Y-9375076D02*
X4999218Y-9376186D01*
X9469231Y-11987507D02*
X9465753Y-11989612D01*
X6193261Y-5882915D02*
X6188319Y-5888409D01*
X11730087Y-7611120D02*
X11726155Y-7612217D01*
X5072133Y-9371923D02*
X5068035Y-9371259D01*
X8712472Y-14021602D02*
X8717942Y-14016685D01*
X4793123Y-7237495D02*
X4794683Y-7233761D01*
X11841100Y-11151610D02*
X11837473Y-11149597D01*
X5161469Y-9425736D02*
X5158851Y-9422554D01*
X4765194Y-7073635D02*
X4762399Y-7070655D01*
X5032677Y-9668836D02*
X5036753Y-9669122D01*
X9635174Y-11998068D02*
X9631918Y-11995646D01*
X5192479Y-9496210D02*
X5191779Y-9492118D01*
X7793679Y-5289554D02*
X7790266Y-5287319D01*
X11669997Y-11396358D02*
X11673135Y-11398946D01*
X11799125Y-7609878D02*
X11795109Y-7609068D01*
X11916221Y-7774171D02*
X11916652Y-7770109D01*
X9677775Y-12185818D02*
X9679564Y-12182144D01*
X9397497Y-12148586D02*
X9398418Y-12152552D01*
X4996581Y-9661519D02*
X5000526Y-9662761D01*
X6487783Y-5795972D02*
X6480623Y-5794240D01*
X4766179Y-7278372D02*
X4768918Y-7275326D01*
X11800437Y-7902709D02*
X11804438Y-7901766D01*
X5103355Y-9381467D02*
X5099620Y-9379907D01*
X4511987Y-7134770D02*
X4510934Y-7138703D01*
X7560505Y-5395922D02*
X7560030Y-5400010D01*
X4913353Y-9592546D02*
X4915385Y-9596067D01*
X6386016Y-5787856D02*
X6378742Y-5788635D01*
X4798958Y-7222199D02*
X4800127Y-7218299D01*
X5182388Y-9460780D02*
X5180721Y-9457049D01*
X8214685Y-13798473D02*
X8214823Y-13805824D01*
X11873599Y-7650665D02*
X11870649Y-7647773D01*
X11647529Y-7846787D02*
X11650037Y-7850032D01*
X11778873Y-7606906D02*
X11774775Y-7606632D01*
X4956627Y-9641081D02*
X4960029Y-9643419D01*
X9394361Y-6915785D02*
X9394250Y-6919859D01*
X12065929Y-8939711D02*
X12061555Y-8933828D01*
X6225337Y-5852958D02*
X6219696Y-5857582D01*
X4271402Y-11077889D02*
X4264594Y-11075074D01*
X9687113Y-6966931D02*
X9688311Y-6963013D01*
X11637714Y-7680877D02*
X11635673Y-7684402D01*
X7760936Y-5272773D02*
X7757053Y-5271398D01*
X5164784Y-9608598D02*
X5167162Y-9605268D01*
X12106461Y-9017399D02*
X12103984Y-9010519D01*
X7859270Y-5406837D02*
X7859041Y-5402765D01*
X7856129Y-5382449D02*
X7855230Y-5378471D01*
X11816223Y-11423974D02*
X11820051Y-11422545D01*
X6687753Y-5965209D02*
X6684774Y-5958523D01*
X7812812Y-5305001D02*
X7809774Y-5302160D01*
X11881871Y-7659674D02*
X11879206Y-7656618D01*
X7742600Y-5559935D02*
X7746566Y-5559015D01*
X9588014Y-6777779D02*
X9584076Y-6776630D01*
X7627445Y-5288058D02*
X7624029Y-5290321D01*
X4565160Y-7295786D02*
X4568458Y-7298283D01*
X3969432Y-11591182D02*
X3975312Y-11595609D01*
X11916510Y-7741449D02*
X11916063Y-7737405D01*
X4612284Y-7320003D02*
X4616259Y-7321131D01*
X11625245Y-9496428D02*
X11620407Y-9501274D01*
X4208180Y-11058469D02*
X4200970Y-11057158D01*
X9691276Y-12147226D02*
X9691983Y-12143201D01*
X11735401Y-7903009D02*
X11739417Y-7903818D01*
X8322477Y-13565739D02*
X8316849Y-13570552D01*
X6193841Y-6383623D02*
X6193630Y-6376315D01*
X3889843Y-11207458D02*
X3886321Y-11213890D01*
X11772056Y-7906384D02*
X11776133Y-7906181D01*
X4275840Y-11626426D02*
X4282516Y-11623257D01*
X9411368Y-6990825D02*
X9413347Y-6994473D01*
X7726492Y-5562686D02*
X7730523Y-5562216D01*
X4923740Y-9430028D02*
X4921287Y-9433400D01*
X11906952Y-11227486D02*
X11905403Y-11223687D01*
X4507096Y-7158809D02*
X4506694Y-7162855D01*
X11635706Y-11210166D02*
X11633758Y-11213735D01*
X8458534Y-14090785D02*
X8465817Y-14092054D01*
X11844604Y-7627909D02*
X11841066Y-7625845D01*
X11620407Y-9501274D02*
X11615691Y-9506246D01*
X4753404Y-7062356D02*
X4750210Y-7059703D01*
X9688311Y-6963013D02*
X9689401Y-6959059D01*
X11678535Y-11161193D02*
X11675269Y-11163665D01*
X11619748Y-11309323D02*
X11620551Y-11313357D01*
X3853311Y-11326216D02*
X3852723Y-11333496D01*
X4671796Y-7027350D02*
X4667678Y-7026990D01*
X8812699Y-13830289D02*
X8813475Y-13822997D01*
X11642013Y-11199584D02*
X11639833Y-11203091D01*
X4991416Y-9378930D02*
X4987674Y-9380407D01*
X3946968Y-11572085D02*
X3952388Y-11577070D01*
X3853099Y-11377665D02*
X3853730Y-11385023D01*
X9694086Y-12110604D02*
X9693836Y-12106447D01*
X7587279Y-5500715D02*
X7589677Y-5504022D01*
X5100849Y-9658219D02*
X5104623Y-9656627D01*
X7824041Y-5316897D02*
X7821334Y-5313767D01*
X9618055Y-6790645D02*
X9614478Y-6788700D01*
X8218699Y-13747176D02*
X8217544Y-13754491D01*
X4928742Y-9423620D02*
X4926162Y-9426773D01*
X8439419Y-13505652D02*
X8432329Y-13507594D01*
X7561023Y-5391909D02*
X7560505Y-5395922D01*
X9621600Y-6792703D02*
X9618055Y-6790645D01*
X4433715Y-11249805D02*
X4431101Y-11242906D01*
X9591919Y-11975135D02*
X9587976Y-11973893D01*
X11572343Y-9567544D02*
X11569233Y-9573640D01*
X12123093Y-9118172D02*
X12123021Y-9110784D01*
X9413332Y-12190576D02*
X9415406Y-12194169D01*
X9398418Y-12152552D02*
X9399454Y-12156549D01*
X5131897Y-9397544D02*
X5128495Y-9395206D01*
X6407950Y-5786730D02*
X6400641Y-5786940D01*
X5047663Y-9369333D02*
X5043568Y-9369352D01*
X7676252Y-5267404D02*
X7672258Y-5268343D01*
X4436141Y-11256714D02*
X4433715Y-11249805D01*
X4804312Y-7153410D02*
X4803612Y-7149318D01*
X6774695Y-12780927D02*
X6698621Y-12750254D01*
X5028559Y-9668475D02*
X5032677Y-9668836D01*
X8813475Y-13822997D02*
X8814020Y-13815643D01*
X4164291Y-11053404D02*
X4156961Y-11053237D01*
X11703713Y-9442228D02*
X11697549Y-9445200D01*
X8575571Y-14089791D02*
X8582757Y-14088184D01*
X11913413Y-11316045D02*
X11914272Y-11312030D01*
X4687960Y-7029945D02*
X4683892Y-7029165D01*
X9481392Y-7057450D02*
X9485126Y-7059107D01*
X11892961Y-8824101D02*
X11885807Y-8822464D01*
X9395848Y-6899478D02*
X9395294Y-6903514D01*
X4360720Y-11568719D02*
X4365948Y-11563551D01*
X6152868Y-6537699D02*
X6156503Y-6531296D01*
X11715744Y-11423033D02*
X11719628Y-11424408D01*
X7569252Y-5360273D02*
X7567850Y-5364110D01*
X9460008Y-7045354D02*
X9463419Y-7047588D01*
X11626147Y-7807316D02*
X11627600Y-7811170D01*
X4062642Y-11066826D02*
X4055646Y-11069105D01*
X4907232Y-9458330D02*
X4905600Y-9462107D01*
X11646716Y-7667174D02*
X11644329Y-7670507D01*
X11912405Y-7794264D02*
X11913379Y-7790280D01*
X6175404Y-6283109D02*
X6172791Y-6276211D01*
X6131933Y-6190206D02*
X6134548Y-6197103D01*
X12078177Y-8957961D02*
X12074264Y-8951812D01*
X11849235Y-11407748D02*
X11852643Y-11405488D01*
X6574790Y-5833727D02*
X6568566Y-5829890D01*
X9607154Y-11981200D02*
X9603376Y-11979569D01*
X12027129Y-8895926D02*
X12021714Y-8891035D01*
X4974002Y-9651873D02*
X4977717Y-9653737D01*
X7696471Y-5264238D02*
X7692390Y-5264639D01*
X11637705Y-11206568D02*
X11635706Y-11210166D01*
X4435341Y-11451923D02*
X4437650Y-11444919D01*
X8526899Y-13496304D02*
X8519568Y-13496137D01*
X5183906Y-9464597D02*
X5182388Y-9460780D01*
X11864553Y-11167984D02*
X11861409Y-11165401D01*
X12061555Y-8933828D02*
X12057069Y-8928108D01*
X5156202Y-9419489D02*
X5153436Y-9416393D01*
X4805294Y-7161546D02*
X4804853Y-7157399D01*
X11820051Y-11422545D02*
X11823902Y-11421104D01*
X8248930Y-13656790D02*
X8245608Y-13663400D01*
X8807882Y-13859368D02*
X8809383Y-13852146D01*
X11934836Y-8837466D02*
X11927975Y-8834779D01*
X7836890Y-5492787D02*
X7838975Y-5489237D01*
X11915469Y-11259035D02*
X11914803Y-11255019D01*
X7833908Y-5329973D02*
X7831583Y-5326623D01*
X11854873Y-7634689D02*
X11851507Y-7632331D01*
X7596607Y-5314857D02*
X7593910Y-5317976D01*
X7855550Y-5447503D02*
X7856409Y-5443488D01*
X4987674Y-9380407D02*
X4983901Y-9381998D01*
X9549045Y-7071183D02*
X9553130Y-7070975D01*
X9576106Y-11970775D02*
X9572112Y-11969952D01*
X9597056Y-7061648D02*
X9600858Y-7060138D01*
X11619075Y-11305312D02*
X11619748Y-11309323D01*
X11788365Y-11430671D02*
X11792442Y-11430078D01*
X4417741Y-11492391D02*
X4421104Y-11485855D01*
X4362485Y-11139297D02*
X4357168Y-11134154D01*
X4763327Y-7281389D02*
X4766179Y-7278372D01*
X4919785Y-9603009D02*
X4922109Y-9606359D01*
X9564016Y-6772569D02*
X9559944Y-6772085D01*
X4792554Y-7114250D02*
X4790816Y-7110561D01*
X9689069Y-6882114D02*
X9687945Y-6878168D01*
X9415379Y-6997994D02*
X9417549Y-7001531D01*
X7722420Y-5563082D02*
X7726492Y-5562686D01*
X4560868Y-7060600D02*
X4557729Y-7063291D01*
X8640713Y-13523764D02*
X8634010Y-13520789D01*
X11791067Y-11134058D02*
X11787011Y-11133467D01*
X6681572Y-5951963D02*
X6678183Y-5945415D01*
X11916054Y-11263096D02*
X11915469Y-11259035D01*
X8592285Y-13506263D02*
X8585200Y-13504488D01*
X11660969Y-7862295D02*
X11663877Y-7865114D01*
X4946952Y-9633468D02*
X4950145Y-9636122D01*
X8697281Y-13558073D02*
X8691401Y-13553646D01*
X8215191Y-13813237D02*
X8215633Y-13820608D01*
X11642021Y-7673893D02*
X11639807Y-7677322D01*
X7594840Y-5510427D02*
X7597491Y-5513491D01*
X9528560Y-7070398D02*
X9532649Y-7070775D01*
X8358374Y-13540027D02*
X8352121Y-13543930D01*
X9429694Y-12214174D02*
X9432343Y-12217239D01*
X9632971Y-7042184D02*
X9636236Y-7039712D01*
X4640390Y-7325675D02*
X4644435Y-7326078D01*
X7854568Y-5451492D02*
X7855550Y-5447503D01*
X11621443Y-11317339D02*
X11622479Y-11321335D01*
X11914115Y-8829974D02*
X11907122Y-8827852D01*
X9442855Y-6810650D02*
X9439910Y-6813524D01*
X4506217Y-7183365D02*
X4506499Y-7187409D01*
X4400092Y-11184455D02*
X4395896Y-11178371D01*
X9540839Y-12267322D02*
X9544977Y-12267376D01*
X11917187Y-11287665D02*
X11917257Y-11283519D01*
X6184141Y-6311110D02*
X6182197Y-6304019D01*
X11729062Y-9431895D02*
X11722625Y-9434242D01*
X11914812Y-7729328D02*
X11914008Y-7725295D01*
X8446522Y-13503898D02*
X8439419Y-13505652D01*
X8281182Y-13607666D02*
X8276671Y-13613399D01*
X9431432Y-6822427D02*
X9428765Y-6825531D01*
X9523190Y-11968868D02*
X9519097Y-11969568D01*
X7697845Y-5563191D02*
X7701922Y-5563477D01*
X9631870Y-6799484D02*
X9628503Y-6797125D01*
X7562394Y-5383785D02*
X7561688Y-5387809D01*
X11714458Y-7616038D02*
X11710657Y-7617547D01*
X9544921Y-7071218D02*
X9549045Y-7071183D01*
X5159708Y-9615047D02*
X5162361Y-9611854D01*
X8795406Y-13901766D02*
X8797948Y-13894824D01*
X9585367Y-7065464D02*
X9589329Y-7064349D01*
X4449481Y-11314025D02*
X4448471Y-11306689D01*
X9580069Y-11971713D02*
X9576106Y-11970775D01*
X11908362Y-11231267D02*
X11906952Y-11227486D01*
X9668759Y-12033719D02*
X9666391Y-12030295D01*
X11638416Y-11358964D02*
X11640544Y-11362428D01*
X4431101Y-11242906D02*
X4428267Y-11236134D01*
X11871638Y-11389926D02*
X11874519Y-11386991D01*
X11751614Y-7905673D02*
X11755653Y-7905981D01*
X11900138Y-11212551D02*
X11898202Y-11208976D01*
X4897518Y-9550557D02*
X4898439Y-9554523D01*
X12086900Y-9258635D02*
X12090320Y-9252162D01*
X9628516Y-11993308D02*
X9625083Y-11991087D01*
X9585372Y-12261651D02*
X9589283Y-12260468D01*
X11618506Y-7775556D02*
X11619084Y-7779621D01*
X4452059Y-11350665D02*
X4451922Y-11343314D01*
X11816260Y-9415964D02*
X11809408Y-9416205D01*
X11788953Y-9417945D02*
X11782164Y-9418834D01*
X11912064Y-11243011D02*
X11910940Y-11239065D01*
X9625083Y-11991087D02*
X9621648Y-11988866D01*
X4796199Y-7229952D02*
X4797600Y-7226112D01*
X11630799Y-7818709D02*
X11632538Y-7822398D01*
X7602124Y-5308835D02*
X7599344Y-5311808D01*
X12023765Y-9338884D02*
X12029157Y-9333913D01*
X8226867Y-13711372D02*
X8224861Y-13718395D01*
X5112073Y-9653107D02*
X5115678Y-9651221D01*
X8534284Y-13496733D02*
X8526899Y-13496304D01*
X11733801Y-8829471D02*
X11726828Y-8831736D01*
X9688316Y-12159200D02*
X9689442Y-12155226D01*
X5194063Y-9512502D02*
X5193857Y-9508418D01*
X4778246Y-7089467D02*
X4775772Y-7086200D01*
X4651303Y-7026569D02*
X4647220Y-7026776D01*
X11833859Y-11147773D02*
X11830156Y-11146001D01*
X6258836Y-12529712D02*
X6188714Y-12486999D01*
X5016390Y-9666702D02*
X5020416Y-9667409D01*
X5153436Y-9416393D02*
X5150566Y-9413455D01*
X11759751Y-7906254D02*
X11763858Y-7906425D01*
X11876438Y-11179307D02*
X11873583Y-11176360D01*
X4302076Y-11612941D02*
X4308413Y-11609184D01*
X8362555Y-14054593D02*
X8368883Y-14058272D01*
X11799117Y-11135570D02*
X11795100Y-11134760D01*
X7757053Y-5271398D02*
X7753188Y-5270207D01*
X11739443Y-11429587D02*
X11743476Y-11430290D01*
X9553130Y-7070975D02*
X9557207Y-7070674D01*
X4797184Y-7125654D02*
X4795738Y-7121797D01*
X9481369Y-12253556D02*
X9485073Y-12255230D01*
X11679637Y-11403894D02*
X11683003Y-11406251D01*
X4537995Y-7083974D02*
X4535500Y-7087271D01*
X8352121Y-13543930D02*
X8345954Y-13547980D01*
X6508866Y-5802179D02*
X6501904Y-5799943D01*
X4795738Y-7121797D02*
X4794145Y-7118023D01*
X7572971Y-5475933D02*
X7574709Y-5479621D01*
X4981391Y-9655527D02*
X4985095Y-9657201D01*
X11726828Y-8831736D02*
X11719911Y-8834165D01*
X7851857Y-5366633D02*
X7850542Y-5362797D01*
X4418947Y-11216097D02*
X4415483Y-11209590D01*
X4759425Y-7067875D02*
X4756408Y-7065022D01*
X12085573Y-8970604D02*
X12081970Y-8964277D01*
X9604638Y-7058542D02*
X9608377Y-7056871D01*
X6690661Y-5971939D02*
X6687753Y-5965209D01*
X8780348Y-13935292D02*
X8783712Y-13928755D01*
X11910123Y-7802132D02*
X11911323Y-7798214D01*
X9663993Y-12026987D02*
X9661448Y-12023764D01*
X4664968Y-7326248D02*
X4669010Y-7325969D01*
X9394646Y-6932142D02*
X9395005Y-6936238D01*
X4200970Y-11057158D02*
X4193655Y-11056004D01*
X8258594Y-13952422D02*
X8262571Y-13958632D01*
X4508277Y-7150696D02*
X4507686Y-7154754D01*
X9523141Y-6772705D02*
X9519107Y-6773372D01*
X4980096Y-9383706D02*
X4976450Y-9385518D01*
X9434154Y-12015482D02*
X9431416Y-12018530D01*
X11673135Y-11398946D02*
X11676359Y-11401484D01*
X11697069Y-11414750D02*
X11700692Y-11416569D01*
X8451312Y-14089283D02*
X8458534Y-14090785D01*
X8811777Y-13837664D02*
X8812699Y-13830289D01*
X9693044Y-12098301D02*
X9692458Y-12094240D01*
X11704403Y-7892651D02*
X11708137Y-7894308D01*
X8221396Y-13732714D02*
X8219969Y-13739893D01*
X11848103Y-7630092D02*
X11844604Y-7627909D01*
X11890230Y-11368144D02*
X11892489Y-11364690D01*
X9455540Y-6800296D02*
X9452268Y-6802772D01*
X11864153Y-8818638D02*
X11856893Y-8817746D01*
X5144619Y-9407893D02*
X5141572Y-9405156D01*
X4782750Y-7096252D02*
X4780571Y-7092817D01*
X8733584Y-14001104D02*
X8738569Y-13995684D01*
X9394272Y-12120141D02*
X9394406Y-12124268D01*
X9692458Y-12094240D02*
X9691800Y-12090220D01*
X11646749Y-11192939D02*
X11644321Y-11196198D01*
X4908979Y-9454584D02*
X4907232Y-9458330D01*
X11795100Y-11134760D02*
X11791067Y-11134058D01*
X6172791Y-6276211D02*
X6169956Y-6269439D01*
X7857648Y-5390566D02*
X7856933Y-5386482D01*
X11905403Y-11223687D02*
X11903761Y-11219942D01*
X6125367Y-6003063D02*
X6123360Y-6010087D01*
X9528580Y-12266578D02*
X9532699Y-12266937D01*
X9662333Y-7013793D02*
X9664800Y-7010512D01*
X3852214Y-11362924D02*
X3852583Y-11370337D01*
X4570664Y-7053182D02*
X4567357Y-7055582D01*
X7688316Y-5265135D02*
X7684282Y-5265800D01*
X12075748Y-9277586D02*
X12079614Y-9271347D01*
X7568339Y-5464526D02*
X7569786Y-5468384D01*
X11784290Y-11431167D02*
X11788365Y-11430671D01*
X11886997Y-7666100D02*
X11884482Y-7662859D01*
X9565332Y-12265889D02*
X9569395Y-12265304D01*
X6119805Y-6148033D02*
X6121413Y-6155218D01*
X11692278Y-11152282D02*
X11688729Y-11154331D01*
X4896043Y-9542416D02*
X4896745Y-9546507D01*
X5170991Y-9439008D02*
X5168738Y-9435617D01*
X6140683Y-5961860D02*
X6137710Y-5968562D01*
X9684405Y-6974654D02*
X9685812Y-6970810D01*
X9397549Y-6952463D02*
X9398449Y-6956442D01*
X7657953Y-5554546D02*
X7661750Y-5555875D01*
X11586188Y-9543908D02*
X11582539Y-9549730D01*
X3936525Y-11561787D02*
X3941695Y-11567015D01*
X9476458Y-6787437D02*
X9472832Y-6789335D01*
X9499165Y-11974331D02*
X9495295Y-11975588D01*
X9470412Y-12247955D02*
X9474023Y-12249975D01*
X11970309Y-9377275D02*
X11976617Y-9373536D01*
X5192005Y-9545172D02*
X5192669Y-9541073D01*
X5118090Y-9388701D02*
X5114448Y-9386794D01*
X9685812Y-6970810D02*
X9687113Y-6966931D01*
X4506499Y-7187409D02*
X4506821Y-7191523D01*
X7769813Y-5550969D02*
X7773551Y-5549300D01*
X8490189Y-13497066D02*
X8482756Y-13497740D01*
X12057069Y-8928108D02*
X12052388Y-8922403D01*
X5193065Y-9500272D02*
X5192479Y-9496210D01*
X3899964Y-11515732D02*
X3903970Y-11521827D01*
X4019390Y-11622171D02*
X4026031Y-11625375D01*
X4802192Y-7210360D02*
X4803088Y-7206324D01*
X5012396Y-9665880D02*
X5016390Y-9666702D01*
X6349864Y-5793479D02*
X6342677Y-5795086D01*
X9675827Y-12189386D02*
X9677775Y-12185818D01*
X4596927Y-7314401D02*
X4600735Y-7315918D01*
X9593185Y-7063003D02*
X9597056Y-7061648D01*
X11617557Y-7746871D02*
X11617365Y-7750990D01*
X8812089Y-13756926D02*
X8811006Y-13749631D01*
X4685256Y-7323628D02*
X4689263Y-7322780D01*
X4783553Y-7255632D02*
X4785617Y-7252094D01*
X11623603Y-11325281D02*
X11624824Y-11329172D01*
X4428267Y-11236134D02*
X4425318Y-11229332D01*
X11861409Y-11165401D02*
X11858184Y-11162862D01*
X6536176Y-5812907D02*
X6529400Y-5809974D01*
X12119503Y-9161892D02*
X12120548Y-9154641D01*
X4448088Y-11402036D02*
X4449168Y-11394764D01*
X4529323Y-7256743D02*
X4531617Y-7260210D01*
X7850987Y-5463238D02*
X7852286Y-5459359D01*
X9614426Y-11984823D02*
X9610826Y-11982991D01*
X12074264Y-8951812D02*
X12070199Y-8945752D01*
X7564602Y-5452802D02*
X7565712Y-5456756D01*
X8316849Y-13570552D02*
X8311378Y-13575470D01*
X3862253Y-11275495D02*
X3860521Y-11282654D01*
X11645141Y-11369257D02*
X11647554Y-11372556D01*
X3886321Y-11213890D02*
X3883001Y-11220499D01*
X11907122Y-8827852D02*
X11900054Y-8825871D01*
X8806782Y-13727923D02*
X8805102Y-13720778D01*
X9409561Y-12183367D02*
X9411373Y-12187013D01*
X9446973Y-12231571D02*
X9450125Y-12234151D01*
X3926542Y-11550931D02*
X3931460Y-11556401D01*
X11851507Y-7632331D02*
X11848103Y-7630092D01*
X7685584Y-5561765D02*
X7689640Y-5562357D01*
X9661448Y-12023764D02*
X9658872Y-12020657D01*
X6143816Y-5955260D02*
X6140683Y-5961860D01*
X9549030Y-12267285D02*
X9553156Y-12267151D01*
X4006348Y-11615329D02*
X4012780Y-11618850D01*
X9469240Y-6791311D02*
X9465734Y-6793433D01*
X12101347Y-9003731D02*
X12098519Y-8996955D01*
X4039510Y-11631281D02*
X4046422Y-11633939D01*
X11708127Y-11420000D02*
X11711942Y-11421610D01*
X6610014Y-5860025D02*
X6604416Y-5855239D01*
X4161856Y-11653031D02*
X4169269Y-11652662D01*
X11858193Y-7637172D02*
X11854873Y-7634689D01*
X4250815Y-11069832D02*
X4243810Y-11067521D01*
X9651525Y-7026094D02*
X9654334Y-7023103D01*
X11758377Y-11132401D02*
X11754298Y-11132703D01*
X7846445Y-5474659D02*
X7848063Y-5470891D01*
X8384155Y-13525924D02*
X8377564Y-13529240D01*
X9395479Y-12136456D02*
X9396065Y-12140517D01*
X11628627Y-7699223D02*
X11627118Y-7703028D01*
X5184367Y-9572752D02*
X5185840Y-9568870D01*
X4801180Y-7214366D02*
X4802192Y-7210360D01*
X5036753Y-9669122D02*
X5040859Y-9669292D01*
X4663602Y-7026703D02*
X4659495Y-7026533D01*
X4304189Y-11094546D02*
X4297788Y-11090909D01*
X9694244Y-6918526D02*
X9694095Y-6914407D01*
X4607149Y-7034758D02*
X4603249Y-7036131D01*
X4332756Y-11592588D02*
X4338595Y-11588142D01*
X7661750Y-5555875D02*
X7665694Y-5557116D01*
X9593226Y-12259169D02*
X9597055Y-12257840D01*
X11640456Y-9482660D02*
X11635270Y-9487121D01*
X6684774Y-5958523D02*
X6681572Y-5951963D01*
X6132268Y-5982166D02*
X6129798Y-5989064D01*
X6113508Y-6089881D02*
X6113603Y-6097158D01*
X4430171Y-11465662D02*
X4432871Y-11458823D01*
X7821334Y-5313767D02*
X7818575Y-5310765D01*
X12063238Y-9295662D02*
X12067556Y-9289747D01*
X9689401Y-6959059D02*
X9690376Y-6955075D01*
X4595659Y-7039241D02*
X4591928Y-7040905D01*
X4791376Y-7241242D02*
X4793123Y-7237495D01*
X11621130Y-11248302D02*
X11620272Y-11252318D01*
X9610826Y-11982991D02*
X9607154Y-11981200D01*
X11617900Y-11268547D02*
X11617591Y-11272635D01*
X8714283Y-13572111D02*
X8708758Y-13567284D01*
X3854044Y-11318851D02*
X3853311Y-11326216D01*
X11809408Y-9416205D02*
X11802583Y-9416626D01*
X9543584Y-6771266D02*
X9539466Y-6771298D01*
X4511266Y-7215647D02*
X4512375Y-7219601D01*
X11798361Y-8816833D02*
X11791066Y-8817525D01*
X12032439Y-8900974D02*
X12027129Y-8895926D01*
X6198288Y-5877569D02*
X6193261Y-5882915D01*
X11892505Y-7838994D02*
X11894719Y-7835565D01*
X11655346Y-11382038D02*
X11658105Y-11385040D01*
X11916643Y-11295800D02*
X11916959Y-11291707D01*
X3852128Y-11348211D02*
X3852076Y-11355573D01*
X12018267Y-9343720D02*
X12023765Y-9338884D01*
X2192386Y-4754047D02*
X6840743Y-2070317D01*
X9394250Y-6919859D02*
X9394268Y-6923953D01*
X9424529Y-12207769D02*
X9427075Y-12210992D01*
X11954880Y-8846326D02*
X11948266Y-8843203D01*
X11706884Y-7619140D02*
X11703180Y-7620887D01*
X4985095Y-9657201D02*
X4988903Y-9658718D01*
X4012780Y-11618850D02*
X4019390Y-11622171D01*
X11826424Y-11144343D02*
X11822602Y-11142737D01*
X11657172Y-11180273D02*
X11654434Y-11183320D01*
X4394499Y-11529860D02*
X4398768Y-11523876D01*
X6143344Y-6217249D02*
X6146617Y-6223766D01*
X4243810Y-11067521D02*
X4236816Y-11065400D01*
X6393345Y-5787341D02*
X6386016Y-5787856D01*
X11767965Y-11432184D02*
X11772040Y-11432080D01*
X5150566Y-9413455D02*
X5147665Y-9410633D01*
X7858183Y-5394558D02*
X7857648Y-5390566D01*
X7737279Y-5266291D02*
X7733241Y-5265594D01*
X11692919Y-8845546D02*
X11686372Y-8848837D01*
X6146617Y-6223766D02*
X6150081Y-6230272D01*
X9565370Y-7069775D02*
X9569397Y-7069112D01*
X4734622Y-7304316D02*
X4738057Y-7302137D01*
X4441809Y-11430786D02*
X4443657Y-11423658D01*
X11917257Y-11283519D02*
X11917238Y-11279423D01*
X11633767Y-7688044D02*
X11631955Y-7691730D01*
X8563503Y-13500100D02*
X8556264Y-13498904D01*
X6255245Y-5831779D02*
X6249035Y-5835756D01*
X7858384Y-5431398D02*
X7858823Y-5427332D01*
X11871396Y-8819736D02*
X11864153Y-8818638D01*
X7794822Y-5537019D02*
X7798145Y-5534612D01*
X12083357Y-9265079D02*
X12086900Y-9258635D01*
X11896127Y-11205384D02*
X11894000Y-11201920D01*
X6429973Y-5787114D02*
X6422631Y-5786758D01*
X8216653Y-13761751D02*
X8215877Y-13769043D01*
X11691462Y-9448323D02*
X11685453Y-9451597D01*
X11982875Y-9369727D02*
X11989040Y-9365776D01*
X4446775Y-11409246D02*
X4448088Y-11402036D01*
X4125149Y-11651934D02*
X4132429Y-11652521D01*
X11560829Y-9592375D02*
X11558312Y-9598716D01*
X9399442Y-6960365D02*
X9400566Y-6964311D01*
X4555663Y-7287974D02*
X4558784Y-7290670D01*
X11747533Y-11430880D02*
X11751605Y-11431364D01*
X11722220Y-11139100D02*
X11718321Y-11140374D01*
X9492749Y-7062136D02*
X9496583Y-7063442D01*
X5129617Y-9642684D02*
X5132999Y-9640244D01*
X6242984Y-5839836D02*
X6237016Y-5844062D01*
X4365948Y-11563551D02*
X4371018Y-11558277D01*
X9650587Y-12011557D02*
X9647644Y-12008662D01*
X9445949Y-12004078D02*
X9442853Y-12006843D01*
X8475524Y-13498591D02*
X8468231Y-13499674D01*
X8300839Y-13585662D02*
X8295695Y-13590978D01*
X5188295Y-9561098D02*
X5189422Y-9557124D01*
X7618496Y-5532941D02*
X7621795Y-5535438D01*
X8292576Y-14456626D02*
X12193386Y-12204493D01*
X4667678Y-7026990D02*
X4663602Y-7026703D01*
X4953370Y-9638660D02*
X4956627Y-9641081D01*
X9397269Y-6891424D02*
X9396484Y-6895398D01*
X9422130Y-12204462D02*
X9424529Y-12207769D01*
X11788381Y-7904976D02*
X11792408Y-7904313D01*
X11823080Y-9415839D02*
X11830387Y-9415727D01*
X7791408Y-5539284D02*
X7794822Y-5537019D01*
X6188619Y-6441973D02*
X6189932Y-6434763D01*
X12121417Y-9147393D02*
X12122086Y-9140067D01*
X8343903Y-14042777D02*
X8350065Y-14046846D01*
X11963882Y-9380790D02*
X11970309Y-9377275D01*
X11660960Y-11387986D02*
X11663904Y-11390882D01*
X11639807Y-7677322D02*
X11637714Y-7680877D01*
X9398135Y-6887405D02*
X9397269Y-6891424D01*
X11882776Y-11377923D02*
X11885328Y-11374690D01*
X9692474Y-6898137D02*
X9691758Y-6894053D01*
X8695290Y-14035531D02*
X8701203Y-14031042D01*
X3963656Y-11586597D02*
X3969432Y-11591182D01*
X9404062Y-12063946D02*
X9402661Y-12067785D01*
X8801027Y-13706609D02*
X8798749Y-13699614D01*
X11738097Y-7609331D02*
X11734082Y-7610182D01*
X3868038Y-11449598D02*
X3870462Y-11456508D01*
X4574058Y-7050932D02*
X4570664Y-7053182D01*
X9508454Y-12263044D02*
X9512417Y-12263982D01*
X11521838Y-9914731D02*
X11512339Y-9990801D01*
X8497517Y-13496550D02*
X8490189Y-13497066D01*
X11776124Y-11431873D02*
X11780253Y-11431639D01*
X6134548Y-6197103D02*
X6137309Y-6203918D01*
X11627592Y-11336861D02*
X11629139Y-11340660D01*
X8679329Y-13545267D02*
X8673094Y-13541241D01*
X8333989Y-13556550D02*
X8328191Y-13561071D01*
X9397246Y-12087530D02*
X9396466Y-12091599D01*
X11706868Y-11144836D02*
X11703164Y-11146583D01*
X3999946Y-11611693D02*
X4006348Y-11615329D01*
X7576521Y-5483268D02*
X7578522Y-5486902D01*
X8482756Y-13497740D02*
X8475524Y-13498591D01*
X8216338Y-13827924D02*
X8217233Y-13835229D01*
X4410626Y-11505298D02*
X4414262Y-11498897D01*
X4932322Y-9619137D02*
X4935087Y-9622232D01*
X3873077Y-11463406D02*
X3875837Y-11470220D01*
X11618305Y-7738716D02*
X11617916Y-7742851D01*
X4382407Y-11160937D02*
X4377636Y-11155381D01*
X6620885Y-5869879D02*
X6615465Y-5864895D01*
X6422631Y-5786758D02*
X6415343Y-5786665D01*
X8290024Y-4580546D02*
X6840743Y-2070317D01*
X6092557Y-6611038D02*
X6098028Y-6606120D01*
X11890196Y-7842379D02*
X11892505Y-7838994D01*
X8290024Y-4580546D02*
X12198441Y-6837033D01*
X7664357Y-5270559D02*
X7660500Y-5271905D01*
X11621459Y-7791643D02*
X11622488Y-7795644D01*
X4800127Y-7218299D02*
X4801180Y-7214366D01*
X12067556Y-9289747D02*
X12071731Y-9283719D01*
X9625092Y-6794891D02*
X9621600Y-6792703D01*
X4748024Y-7295015D02*
X4751246Y-7292469D01*
X6145194Y-6550144D02*
X6149073Y-6543995D01*
X9619270Y-7051170D02*
X9622777Y-7049047D01*
X4972845Y-9387404D02*
X4969210Y-9389405D01*
X9394310Y-12111907D02*
X9394254Y-12116046D01*
X11804423Y-11427461D02*
X11808404Y-11426434D01*
X11686457Y-11408560D02*
X11689906Y-11410673D01*
X11618489Y-11301250D02*
X11619075Y-11305312D01*
X4591928Y-7040905D02*
X4588282Y-7042720D01*
X5177754Y-9587715D02*
X5179544Y-9584042D01*
X11915023Y-11307979D02*
X11915693Y-11303975D01*
X4105622Y-11056773D02*
X4098340Y-11058045D01*
X4222591Y-11061588D02*
X4215358Y-11059898D01*
X3995765Y-11097127D02*
X3989514Y-11101030D01*
X4367653Y-11144524D02*
X4362485Y-11139297D01*
X11868651Y-11392726D02*
X11871638Y-11389926D01*
X11759784Y-11432019D02*
X11763849Y-11432117D01*
X8577967Y-13502797D02*
X8570788Y-13501370D01*
X7684282Y-5265800D02*
X7680261Y-5266559D01*
X11642774Y-11365833D02*
X11645141Y-11369257D01*
X3859888Y-11421259D02*
X3861685Y-11428433D01*
X4969210Y-9389405D02*
X4965733Y-9391510D01*
X5136264Y-9637772D02*
X5139414Y-9635269D01*
X7603126Y-5519527D02*
X7606027Y-5522349D01*
X3931460Y-11556401D02*
X3936525Y-11561787D01*
X12122432Y-9096166D02*
X12121865Y-9088868D01*
X9531296Y-6771810D02*
X9527216Y-6772210D01*
X4738057Y-7302137D02*
X4741450Y-7299884D01*
X6123166Y-6162320D02*
X6125067Y-6169338D01*
X9406144Y-6979764D02*
X9407788Y-6983507D01*
X4375961Y-11552783D02*
X4380788Y-11547260D01*
X9615698Y-12249324D02*
X9619218Y-12247292D01*
X9491437Y-11977032D02*
X9487652Y-11978435D01*
X6294115Y-5811389D02*
X6287430Y-5814371D01*
X9524495Y-7069909D02*
X9528560Y-7070398D01*
X4451922Y-11343314D02*
X4451595Y-11335975D01*
X9539466Y-6771298D02*
X9535382Y-6771503D01*
X4723833Y-7310349D02*
X4727510Y-7308423D01*
X4899433Y-9558447D02*
X4900543Y-9562400D01*
X7838975Y-5489237D02*
X7841017Y-5485712D01*
X7786767Y-5285136D02*
X7783230Y-5283073D01*
X9474023Y-12249975D02*
X9477696Y-12251766D01*
X11787011Y-11133467D02*
X11782946Y-11132978D01*
X11989040Y-9365776D02*
X11995072Y-9361609D01*
X5008432Y-9664942D02*
X5012396Y-9665880D01*
X9631918Y-11995646D02*
X9628516Y-11993308D01*
X11833826Y-7622008D02*
X11830165Y-7620310D01*
X9396065Y-12140517D02*
X9396723Y-12144536D01*
X7559499Y-5408234D02*
X7559402Y-5412300D01*
X11716259Y-9436745D02*
X11709954Y-9439407D01*
X7692390Y-5264639D02*
X7688316Y-5265135D01*
X4787002Y-7103280D02*
X4784970Y-7099760D01*
X9507074Y-11972111D02*
X9503151Y-11973105D01*
X9638399Y-12000606D02*
X9635174Y-11998068D01*
X4326800Y-11597004D02*
X4332756Y-11592588D01*
X11726155Y-7612217D02*
X11722236Y-7613405D01*
X9694268Y-12118711D02*
X9694250Y-12114616D01*
X8730261Y-13587425D02*
X8725092Y-13582197D01*
X7652821Y-5274775D02*
X7649047Y-5276367D01*
X9664804Y-12206700D02*
X9667183Y-12203370D01*
X9396484Y-6895398D02*
X9395848Y-6899478D01*
X11804438Y-7901766D02*
X11808413Y-7900742D01*
X4282516Y-11623257D02*
X4289149Y-11620013D01*
X8245608Y-13663400D02*
X8242404Y-13670041D01*
X4904084Y-9465916D02*
X4902683Y-9469755D01*
X9612046Y-7055046D02*
X9615679Y-7053145D01*
X4533119Y-7090600D02*
X4530856Y-7093959D01*
X4675811Y-7027868D02*
X4671796Y-7027350D01*
X4432871Y-11458823D02*
X4435341Y-11451923D01*
X6562311Y-5826170D02*
X6555837Y-5822575D01*
X5007053Y-9374009D02*
X5003172Y-9375076D01*
X4523185Y-7246112D02*
X4525186Y-7249747D01*
X9662339Y-12209882D02*
X9664804Y-12206700D01*
X6604416Y-5855239D02*
X6598756Y-5850685D01*
X6123291Y-6579605D02*
X6127919Y-6573904D01*
X7819509Y-5515532D02*
X7822247Y-5512486D01*
X8480392Y-14094101D02*
X8487683Y-14094877D01*
X11896839Y-11357779D02*
X11898838Y-11354181D01*
X9568013Y-11969288D02*
X9563957Y-11968697D01*
X11787027Y-7607771D02*
X11782955Y-7607287D01*
X7591331Y-5321129D02*
X7588908Y-5324384D01*
X9394881Y-12103756D02*
X9394595Y-12107832D01*
X4450375Y-11321331D02*
X4449481Y-11314025D01*
X6051675Y-12396791D02*
X5984715Y-12349222D01*
X11630244Y-7695455D02*
X11628627Y-7699223D01*
X4349863Y-11578703D02*
X4355335Y-11573785D01*
X9455545Y-11996483D02*
X9452238Y-11998882D01*
X6174468Y-5905398D02*
X6170041Y-5911279D01*
X11820342Y-8815874D02*
X11813006Y-8816003D01*
X5110805Y-9384889D02*
X5107132Y-9383099D01*
X9692656Y-6943005D02*
X9693211Y-6938969D01*
X11681909Y-7633168D02*
X11678544Y-7635502D01*
X4081587Y-11644724D02*
X4088704Y-11646383D01*
X6623201Y-12717835D02*
X6548622Y-12683658D01*
X9458856Y-6797893D02*
X9455540Y-6800296D01*
X11743492Y-7904594D02*
X11747541Y-7905189D01*
X4048737Y-11071530D02*
X4041839Y-11074144D01*
X9453348Y-12236689D02*
X9456647Y-12239183D01*
X5918955Y-12300178D02*
X5854354Y-12249585D01*
X11916870Y-7745542D02*
X11916510Y-7741449D01*
X5073423Y-9666427D02*
X5077431Y-9665580D01*
X8404447Y-13517045D02*
X8397560Y-13519848D01*
X4995317Y-9377559D02*
X4991416Y-9378930D01*
X9442853Y-12006843D02*
X9439872Y-12009639D01*
X9559944Y-6772085D02*
X9555862Y-6771704D01*
X4907801Y-9581576D02*
X4909540Y-9585265D01*
X7665694Y-5557116D02*
X7669595Y-5558286D01*
X9654368Y-12219275D02*
X9657106Y-12216227D01*
X4541431Y-7273313D02*
X4544154Y-7276336D01*
X6549374Y-5819170D02*
X6542806Y-5815923D01*
X9595762Y-6780345D02*
X9591921Y-6779042D01*
X5128495Y-9395206D02*
X5125060Y-9392985D01*
X3644250Y-7268749D02*
X2192386Y-4754047D01*
X4507686Y-7154754D02*
X4507096Y-7158809D01*
X4784970Y-7099760D02*
X4782750Y-7096252D01*
X11902598Y-11346926D02*
X11904316Y-11343196D01*
X3957986Y-11581855D02*
X3963656Y-11586597D01*
X9675843Y-6993283D02*
X9677748Y-6989642D01*
X11746187Y-7607984D02*
X11742118Y-7608574D01*
X12120548Y-9154641D02*
X12121417Y-9147393D01*
X8553828Y-14093448D02*
X8561090Y-14092481D01*
X5068035Y-9371259D02*
X5064052Y-9370625D01*
X3856936Y-11406832D02*
X3858280Y-11414072D01*
X7780854Y-5545574D02*
X7784445Y-5543598D01*
X11673639Y-9458515D02*
X11667884Y-9462229D01*
X7815721Y-5307819D02*
X7812812Y-5305001D01*
X3644258Y-11772860D02*
X3644250Y-7268749D01*
X5040859Y-9669292D02*
X5044956Y-9669274D01*
X6063715Y-6633554D02*
X6069682Y-6629329D01*
X11827647Y-8815860D02*
X11820342Y-8815874D01*
X11845065Y-9415074D02*
X11852330Y-9414398D01*
X9683926Y-12062699D02*
X9682408Y-12058883D01*
X9656203Y-6821412D02*
X9653401Y-6818336D01*
X7734541Y-5561557D02*
X7738593Y-5560784D01*
X6415343Y-5786665D02*
X6407950Y-5786730D01*
X5135153Y-9399965D02*
X5131897Y-9397544D01*
X9504447Y-12262033D02*
X9508454Y-12263044D01*
X11909720Y-11235175D02*
X11908362Y-11231267D01*
X8395343Y-14071250D02*
X8402117Y-14074181D01*
X4912674Y-9447269D02*
X4910769Y-9450912D01*
X11852330Y-9414398D02*
X11859626Y-9413607D01*
X3866412Y-11261362D02*
X3864332Y-11268428D01*
X11780253Y-11431639D02*
X11784290Y-11431167D01*
X11620560Y-7787665D02*
X11621459Y-7791643D01*
X8306066Y-13580492D02*
X8300839Y-13585662D01*
X11904324Y-7817505D02*
X11905941Y-7813736D01*
X8219969Y-13739893D02*
X8218699Y-13747176D01*
X4914739Y-9443731D02*
X4912674Y-9447269D01*
X8512206Y-13496086D02*
X8504855Y-13496223D01*
X4372676Y-11149838D02*
X4367653Y-11144524D01*
X7606027Y-5522349D02*
X7609073Y-5525087D01*
X7588908Y-5324384D02*
X7586529Y-5327713D01*
X11792442Y-11430078D02*
X11796462Y-11429321D01*
X3864332Y-11268428D02*
X3862253Y-11275495D01*
X7565712Y-5456756D02*
X7566968Y-5460626D01*
X9463419Y-7047588D02*
X9466912Y-7049777D01*
X8809383Y-13852146D02*
X8810696Y-13844937D01*
X4935087Y-9622232D02*
X4937956Y-9625171D01*
X8556264Y-13498904D02*
X8548929Y-13498054D01*
X6121413Y-6155218D02*
X6123166Y-6162320D01*
X11734082Y-7610182D02*
X11730087Y-7611120D01*
X9677136Y-6851658D02*
X9675165Y-6848006D01*
X6555837Y-5822575D02*
X6549374Y-5819170D01*
X11569233Y-9573640D02*
X11566298Y-9579833D01*
X11624824Y-11329172D02*
X11626181Y-11333081D01*
X7579907Y-5338086D02*
X7577843Y-5341624D01*
X8290710Y-13596398D02*
X8285924Y-13601995D01*
X8814616Y-13800928D02*
X8814668Y-13793566D01*
X11766579Y-11132163D02*
X11762503Y-11132268D01*
X4599433Y-7037649D02*
X4595659Y-7039241D01*
X8664684Y-14055841D02*
X8671021Y-14052085D01*
X6114596Y-6060609D02*
X6114009Y-6067888D01*
X4371018Y-11558277D02*
X4375961Y-11552783D01*
X3879869Y-11227097D02*
X3876823Y-11233842D01*
X11895609Y-9406911D02*
X11902705Y-9405063D01*
X9694250Y-12114616D02*
X9694086Y-12110604D01*
X9621648Y-11988866D02*
X9618111Y-11986803D01*
X4927053Y-9612890D02*
X4929673Y-9616071D01*
X6178937Y-5899591D02*
X6174468Y-5905398D01*
X9400563Y-12160503D02*
X9401820Y-12164372D01*
X12029157Y-9333913D02*
X12034420Y-9328822D01*
X11693444Y-11412737D02*
X11697069Y-11414750D01*
X3854936Y-11311590D02*
X3854044Y-11318851D01*
X4894233Y-9517944D02*
X4894251Y-9522039D01*
X4427356Y-11472469D02*
X4430171Y-11465662D01*
X8377564Y-13529240D02*
X8371132Y-13532662D01*
X4722638Y-7042089D02*
X4718965Y-7040300D01*
X11660024Y-11177355D02*
X11657172Y-11180273D01*
X11911348Y-11323983D02*
X11912438Y-11320029D01*
X11865599Y-11395466D02*
X11868651Y-11392726D01*
X4076811Y-11062752D02*
X4069721Y-11064694D01*
X11873583Y-11176360D02*
X11870640Y-11173465D01*
X8473089Y-14093136D02*
X8480392Y-14094101D01*
X4917533Y-9599617D02*
X4919785Y-9603009D01*
X6219696Y-5857582D02*
X6214183Y-5862427D01*
X8783712Y-13928755D02*
X8786917Y-13922115D01*
X11657181Y-7654582D02*
X11654443Y-7657629D01*
X11838690Y-7888346D02*
X11842274Y-7886375D01*
X8757034Y-13972803D02*
X8761376Y-13966776D01*
X3952388Y-11577070D02*
X3957986Y-11581855D01*
X9435110Y-7024143D02*
X9437966Y-7027089D01*
X9681271Y-6982230D02*
X9682888Y-6978461D01*
X9644641Y-6809804D02*
X9641551Y-6807092D01*
X4726279Y-7043994D02*
X4722638Y-7042089D01*
X6586967Y-5841949D02*
X6580909Y-5837722D01*
X4743656Y-7054786D02*
X4740328Y-7052407D01*
X6185575Y-6456343D02*
X6187192Y-6449153D01*
X6515766Y-5804649D02*
X6508866Y-5802179D01*
X7832361Y-5499608D02*
X7834668Y-5496221D01*
X11915667Y-7778206D02*
X11916221Y-7774171D01*
X11688729Y-11154331D02*
X11685272Y-11156521D01*
X7706028Y-5563647D02*
X7710124Y-5563630D01*
X11913379Y-7790280D02*
X11914289Y-7786334D01*
X9559943Y-11968179D02*
X9555824Y-11967820D01*
X11618042Y-11297208D02*
X11618489Y-11301250D01*
X11831389Y-7892074D02*
X11835056Y-7890248D01*
X4139771Y-11652877D02*
X4147144Y-11653117D01*
X5193857Y-9508418D02*
X5193534Y-9504303D01*
X5024472Y-9667999D02*
X5028559Y-9668475D01*
X4939894Y-9411610D02*
X4936956Y-9414480D01*
X11916652Y-7770109D02*
X11916968Y-7766016D01*
X8787926Y-13672232D02*
X8784756Y-13665557D01*
X12093567Y-9245595D02*
X12096642Y-9238931D01*
X4756408Y-7065022D02*
X4753404Y-7062356D01*
X4626932Y-7029399D02*
X4622923Y-7030245D01*
X9466874Y-12245891D02*
X9470412Y-12247955D01*
X11734073Y-11135874D02*
X11730120Y-11136885D01*
X6529400Y-5809974D02*
X6522635Y-5807232D01*
X7701922Y-5563477D02*
X7706028Y-5563647D01*
X8814668Y-13793566D02*
X8814530Y-13786215D01*
X6191012Y-6427492D02*
X6191904Y-6420230D01*
X6192788Y-6361647D02*
X6192083Y-6354331D01*
X11974274Y-8856735D02*
X11967887Y-8853090D01*
X11880110Y-11381027D02*
X11882776Y-11377923D01*
X9414703Y-6845675D02*
X9412669Y-6849196D01*
X4716454Y-7313827D02*
X4720186Y-7312161D01*
X3938230Y-11142761D02*
X3933087Y-11148078D01*
X9402661Y-12067785D02*
X9401377Y-12071655D01*
X4805019Y-7194259D02*
X4805494Y-7190173D01*
X9535382Y-6771503D02*
X9531296Y-6771810D01*
X11889410Y-11195086D02*
X11886988Y-11191791D01*
X11870640Y-11173465D02*
X11867645Y-11170697D01*
X4712682Y-7315420D02*
X4716454Y-7313827D01*
X6181793Y-6470452D02*
X6183800Y-6463429D01*
X4940857Y-9627993D02*
X4943831Y-9630774D01*
X4134908Y-11053651D02*
X4127581Y-11054166D01*
X4904617Y-9574029D02*
X4906136Y-9577845D01*
X12070199Y-8945752D02*
X12065929Y-8939711D01*
X8561090Y-14092481D02*
X8568372Y-14091209D01*
X9476471Y-11983620D02*
X9472867Y-11985505D01*
X4701096Y-7319567D02*
X4704964Y-7318310D01*
X5178983Y-9453361D02*
X5177172Y-9449714D01*
X4440552Y-11270788D02*
X4438419Y-11263708D01*
X7559835Y-5424564D02*
X7560158Y-5428679D01*
X4741450Y-7299884D02*
X4744757Y-7297486D01*
X9416796Y-6842121D02*
X9414703Y-6845675D01*
X11617591Y-11272635D02*
X11617356Y-11276682D01*
X8814020Y-13815643D02*
X8814377Y-13808301D01*
X11902571Y-7821157D02*
X11904324Y-7817505D01*
X6400641Y-5786940D02*
X6393345Y-5787341D01*
X11638390Y-7833195D02*
X11640560Y-7836732D01*
X8432329Y-13507594D02*
X8425250Y-13509726D01*
X8645123Y-14066157D02*
X8651757Y-14062914D01*
X4965733Y-9391510D02*
X4962298Y-9393688D01*
X7749243Y-5269064D02*
X7745281Y-5268027D01*
X7007124Y-12862110D02*
X6929026Y-12836907D01*
X7849572Y-5467086D02*
X7850987Y-5463238D01*
X8263834Y-13631467D02*
X8259882Y-13637659D01*
X7850542Y-5362797D02*
X7849089Y-5358944D01*
X8214662Y-13791154D02*
X8214685Y-13798473D01*
X7625197Y-5537774D02*
X7628557Y-5540039D01*
X8436993Y-14085819D02*
X8444121Y-14087667D01*
X11662914Y-7648730D02*
X11659997Y-7651586D01*
X5126225Y-9644936D02*
X5129617Y-9642684D01*
X11910157Y-11327897D02*
X11911348Y-11323983D01*
X11542919Y-9658246D02*
X11542014Y-9665026D01*
X4581043Y-7046605D02*
X4577566Y-7048711D01*
X11627102Y-11228723D02*
X11625693Y-11232567D01*
X11723509Y-7899902D02*
X11727446Y-7901050D01*
X11892489Y-11364690D02*
X11894710Y-11361256D01*
X11830387Y-9415727D02*
X11837731Y-9415495D01*
X11619520Y-11256369D02*
X11618851Y-11260372D01*
X6150081Y-6230272D02*
X6153649Y-6236621D01*
X11859626Y-9413607D02*
X11866890Y-9412641D01*
X11578999Y-9555587D02*
X11575567Y-9561478D01*
X8239431Y-13676743D02*
X8236572Y-13683477D01*
X11623204Y-7714673D02*
X11622121Y-7718622D01*
X9691983Y-12143201D02*
X9692689Y-12139176D01*
X9693866Y-6910337D02*
X9693507Y-6906242D01*
X9690954Y-6890021D02*
X9690056Y-6886041D01*
X9422096Y-7008290D02*
X9424517Y-7011586D01*
X9659739Y-7016953D02*
X9662333Y-7013793D01*
X5089305Y-9662439D02*
X5093206Y-9661067D01*
X6127919Y-6573904D02*
X6132504Y-6568128D01*
X3909637Y-11176379D02*
X3905411Y-11182436D01*
X9462271Y-6795628D02*
X9458856Y-6797893D01*
X6087001Y-6615809D02*
X6092557Y-6611038D01*
X8339913Y-13552249D02*
X8333989Y-13556550D01*
X4697184Y-7320749D02*
X4701096Y-7319567D01*
X7559420Y-5416395D02*
X7559554Y-5420521D01*
X11870649Y-7647773D02*
X11867653Y-7645006D01*
X9508405Y-7066882D02*
X9512390Y-7067807D01*
X11593972Y-9532668D02*
X11590029Y-9538269D01*
X4147144Y-11653117D02*
X4154506Y-11653169D01*
X9472832Y-6789335D02*
X9469240Y-6791311D01*
X11704387Y-11418347D02*
X11708127Y-11420000D01*
X4390072Y-11535740D02*
X4394499Y-11529860D01*
X11602286Y-9521806D02*
X11598057Y-9527181D01*
X11886988Y-11191791D02*
X11884473Y-11188551D01*
X9487646Y-6782347D02*
X9483872Y-6783938D01*
X11678544Y-7635502D02*
X11675279Y-7637973D01*
X8231373Y-13697331D02*
X8229019Y-13704262D01*
X12111699Y-9197683D02*
X12113611Y-9190616D01*
X11635270Y-9487121D02*
X11630197Y-9491712D01*
X9614478Y-6788700D02*
X9610814Y-6786807D01*
X11542014Y-9665026D02*
X11541267Y-9671811D01*
X8345954Y-13547980D02*
X8339913Y-13552249D01*
X4733386Y-7048006D02*
X4729849Y-7045943D01*
X11675269Y-11163665D02*
X11672096Y-11166280D01*
X8778092Y-13652490D02*
X8774483Y-13646068D01*
X5193187Y-9537059D02*
X5193662Y-9532972D01*
X4643104Y-7027100D02*
X4639032Y-7027496D01*
X7858823Y-5427332D02*
X7859131Y-5423242D01*
X7560030Y-5400010D02*
X7559743Y-5404085D01*
X9449059Y-6805309D02*
X9445950Y-6807984D01*
X5051770Y-9369505D02*
X5047663Y-9369333D01*
X12090320Y-9252162D02*
X12093567Y-9245595D01*
X8397560Y-13519848D02*
X8390873Y-13522828D01*
X11822618Y-7617041D02*
X11818766Y-7615550D01*
X11710649Y-11143239D02*
X11706868Y-11144836D01*
X12010488Y-8881581D02*
X12004718Y-8877091D01*
X9587976Y-11973893D02*
X9584074Y-11972724D01*
X7700556Y-5263932D02*
X7696471Y-5264238D01*
X8381925Y-14065113D02*
X8388639Y-14068276D01*
X11835006Y-8816109D02*
X11827647Y-8815860D01*
X7859429Y-5415055D02*
X7859410Y-5410959D01*
X4437650Y-11444919D02*
X4439845Y-11437884D01*
X4648585Y-7326321D02*
X4652692Y-7326492D01*
X7822247Y-5512486D02*
X7824913Y-5509380D01*
X9657073Y-7020056D02*
X9659739Y-7016953D01*
X11914000Y-11250986D02*
X11913101Y-11247009D01*
X12123021Y-9110784D02*
X12122817Y-9103472D01*
X9419044Y-12034862D02*
X9416823Y-12038296D01*
X7617443Y-5295201D02*
X7614234Y-5297738D01*
X4909540Y-9585265D02*
X4911352Y-9588911D01*
X4632248Y-7324609D02*
X4636304Y-7325201D01*
X11563477Y-9586056D02*
X11560829Y-9592375D01*
X11811009Y-11138676D02*
X11807071Y-11137527D01*
X9407210Y-12056359D02*
X9405578Y-12060136D01*
X11742102Y-11134270D02*
X11738082Y-11135026D01*
X5193534Y-9504303D02*
X5193065Y-9500272D01*
X9477696Y-12251766D02*
X9481369Y-12253556D01*
X4603249Y-7036131D02*
X4599433Y-7037649D01*
X11774759Y-11132329D02*
X11770695Y-11132231D01*
X4154506Y-11653169D02*
X4161856Y-11653031D01*
X5080091Y-9373684D02*
X5076127Y-9372745D01*
X9680742Y-12055152D02*
X9679004Y-12051463D01*
X11695836Y-7624541D02*
X11692287Y-7626590D01*
X6314611Y-5803371D02*
X6307670Y-5805911D01*
X9462319Y-11991791D02*
X9458853Y-11994085D01*
X11672096Y-11166280D02*
X11668945Y-11168881D01*
X12122817Y-9103472D02*
X12122432Y-9096166D01*
X4720186Y-7312161D02*
X4723833Y-7310349D01*
X11685453Y-9451597D02*
X11679479Y-9454948D01*
X4411874Y-11203169D02*
X4408117Y-11196832D01*
X11827642Y-7893747D02*
X11831389Y-7892074D01*
X9639435Y-12233372D02*
X9642573Y-12230679D01*
X7816700Y-5518523D02*
X7819509Y-5515532D01*
X9532649Y-7070775D02*
X9536747Y-7071049D01*
X8220889Y-13856972D02*
X8222496Y-13864159D01*
X6129798Y-5989064D02*
X6127488Y-5996070D01*
X8256088Y-13643956D02*
X8252450Y-13650357D01*
X9653401Y-6818336D02*
X9650546Y-6815390D01*
X8701203Y-14031042D02*
X8706844Y-14026417D01*
X8356258Y-14050798D02*
X8362555Y-14054593D01*
X5166413Y-9432266D02*
X5164015Y-9428958D01*
X6069682Y-6629329D02*
X6075606Y-6625027D01*
X11668945Y-11168881D02*
X11665893Y-11171621D01*
X5011091Y-9373045D02*
X5007053Y-9374009D01*
X7634416Y-5283740D02*
X7630910Y-5285862D01*
X6183564Y-5893891D02*
X6178937Y-5899591D01*
X11624394Y-11236446D02*
X11623195Y-11240364D01*
X5095739Y-9378435D02*
X5091941Y-9377106D01*
X4945971Y-9406049D02*
X4942832Y-9408740D01*
X8295695Y-13590978D02*
X8290710Y-13596398D01*
X4703732Y-7034234D02*
X4699830Y-7033064D01*
X4921287Y-9433400D02*
X4919023Y-9436759D01*
X9491454Y-6780832D02*
X9487646Y-6782347D01*
X9658867Y-6824469D02*
X9656203Y-6821412D01*
X3959869Y-11122838D02*
X3954314Y-11127609D01*
X4805690Y-7165618D02*
X4805294Y-7161546D01*
X12079614Y-9271347D02*
X12083357Y-9265079D01*
X5020416Y-9667409D02*
X5024472Y-9667999D01*
X5728829Y-12143929D02*
X5667832Y-12088909D01*
X5097032Y-9659738D02*
X5100849Y-9658219D01*
X4600735Y-7315918D02*
X4604543Y-7317434D01*
X4310486Y-11098340D02*
X4304189Y-11094546D01*
X12099586Y-9232246D02*
X12102350Y-9225468D01*
X6114520Y-6111783D02*
X6115224Y-6119099D01*
X8368883Y-14058272D02*
X8375388Y-14061751D01*
X11543977Y-9651476D02*
X11542919Y-9658246D01*
X12034420Y-9328822D02*
X12039519Y-9323531D01*
X9536747Y-7071049D02*
X9540854Y-7071219D01*
X11624403Y-7710755D02*
X11623204Y-7714673D01*
X7584191Y-5331115D02*
X7581970Y-5334548D01*
X3852723Y-11333496D02*
X3852294Y-11340881D01*
X12122086Y-9140067D02*
X12122622Y-9132816D01*
X9480117Y-11981809D02*
X9476471Y-11983620D01*
X11898168Y-7683212D02*
X11896136Y-7679692D01*
X5182923Y-9576517D02*
X5184367Y-9572752D01*
X11858184Y-11162862D02*
X11854907Y-11160454D01*
X8776870Y-13941797D02*
X8780348Y-13935292D01*
X11617649Y-7767349D02*
X11618016Y-7771438D01*
X9693836Y-12106447D02*
X9693555Y-12102405D01*
X3989514Y-11101030D02*
X3983346Y-11105080D01*
X9577452Y-12263682D02*
X9581418Y-12262761D01*
X4149598Y-11053185D02*
X4142248Y-11053323D01*
X4567357Y-7055582D02*
X4564091Y-7058054D01*
X11818799Y-11141315D02*
X11814916Y-11139940D01*
X11731442Y-11427852D02*
X11735434Y-11428773D01*
X11910940Y-11239065D02*
X11909720Y-11235175D01*
X9394254Y-12116046D02*
X9394272Y-12120141D01*
X5667864Y-6949698D02*
X5730622Y-6893129D01*
X11915485Y-7733340D02*
X11914812Y-7729328D01*
X7580554Y-5490422D02*
X7582659Y-5493899D01*
X6167049Y-6262711D02*
X6163921Y-6256108D01*
X4512375Y-7219601D02*
X4513632Y-7223470D01*
X4289149Y-11620013D02*
X4295655Y-11616551D01*
X11679653Y-7878198D02*
X11683012Y-7880560D01*
X11642782Y-7840142D02*
X11645107Y-7843492D01*
X11894719Y-7835565D02*
X11896854Y-7832084D01*
X9671715Y-7000360D02*
X9673802Y-6996809D01*
X4215358Y-11059898D02*
X4208180Y-11058469D01*
X11898838Y-11354181D02*
X11900785Y-11350613D01*
X11727446Y-7901050D02*
X11731408Y-7902088D01*
X9629596Y-12240713D02*
X9633020Y-12238346D01*
X4450867Y-11380096D02*
X4451412Y-11372743D01*
X4970433Y-9649926D02*
X4974002Y-9651873D01*
X8228252Y-13885473D02*
X8230530Y-13892467D01*
X6154105Y-5935830D02*
X6150468Y-5942230D01*
X9603376Y-11979569D02*
X9599598Y-11977938D01*
X4425318Y-11229332D02*
X4422148Y-11222657D01*
X3918648Y-11164723D02*
X3914063Y-11170499D01*
X5019076Y-9371466D02*
X5015100Y-9372198D01*
X4804853Y-7157399D02*
X4804312Y-7153410D01*
X7561688Y-5387809D02*
X7561023Y-5391909D01*
X6149073Y-6543995D02*
X6152868Y-6537699D01*
X4803836Y-7202372D02*
X4804501Y-7198274D01*
X6127488Y-5996070D02*
X6125367Y-6003063D01*
X9527216Y-6772210D02*
X9523141Y-6772705D01*
X7827507Y-5506222D02*
X7829974Y-5502941D01*
X11901988Y-7690489D02*
X11900147Y-7686859D01*
X7593910Y-5317976D02*
X7591331Y-5321129D01*
X7810788Y-5524186D02*
X7813776Y-5521384D01*
X4546919Y-7279432D02*
X4549789Y-7282372D01*
X11675279Y-7637973D02*
X11672071Y-7640511D01*
X6098028Y-6606120D02*
X6103340Y-6601096D01*
X7677564Y-5560235D02*
X7681558Y-5561058D01*
X9673802Y-6996809D02*
X9675843Y-6993283D01*
X4746984Y-7057166D02*
X4743656Y-7054786D01*
X7804627Y-5529599D02*
X7807735Y-5526924D01*
X11647554Y-11372556D02*
X11650071Y-11375796D01*
X4622923Y-7030245D02*
X4618885Y-7031209D01*
X6674615Y-5939066D02*
X6670933Y-5932688D01*
X4295655Y-11616551D02*
X4302076Y-11612941D01*
X12113611Y-9190616D02*
X12115336Y-9183461D01*
X12120178Y-9074297D02*
X12119101Y-9067097D01*
X8364668Y-13536198D02*
X8358374Y-13540027D01*
X4960029Y-9643419D02*
X4963388Y-9645682D01*
X9687886Y-12074296D02*
X9686702Y-12070384D01*
X11820068Y-7896849D02*
X11823868Y-7895339D01*
X11689906Y-11410673D02*
X11693444Y-11412737D01*
X8272245Y-13619279D02*
X8268018Y-13625337D01*
X5142552Y-9632577D02*
X5145691Y-9629885D01*
X3875837Y-11470220D02*
X3878819Y-11476906D01*
X9503151Y-11973105D02*
X9499165Y-11974331D01*
X6670933Y-5932688D02*
X6667145Y-5926466D01*
X7624029Y-5290321D02*
X7620715Y-5292724D01*
X8390873Y-13522828D02*
X8384155Y-13525924D01*
X4088704Y-11646383D02*
X4095926Y-11647885D01*
X4656714Y-7326517D02*
X4660883Y-7326456D01*
X12039519Y-9323531D02*
X12044532Y-9318193D01*
X11719628Y-11424408D02*
X11723534Y-11425672D01*
X6188319Y-5888409D02*
X6183564Y-5893891D01*
X11558312Y-9598716D02*
X11555968Y-9605154D01*
X12037644Y-8906181D02*
X12032439Y-8900974D01*
X4589476Y-7310978D02*
X4593223Y-7312727D01*
X11622488Y-7795644D02*
X11623613Y-7799589D01*
X9408951Y-6856523D02*
X9407233Y-6860253D01*
X5077431Y-9665580D02*
X5081397Y-9664659D01*
X4083913Y-11060998D02*
X4076811Y-11062752D01*
X4520737Y-7111827D02*
X4519063Y-7115531D01*
X11900785Y-11350613D02*
X11902598Y-11346926D01*
X8409030Y-14076839D02*
X8415930Y-14079307D01*
X6159983Y-6524791D02*
X6163272Y-6518297D01*
X7800314Y-5294325D02*
X7797044Y-5291912D01*
X8735283Y-13592738D02*
X8730261Y-13587425D01*
X9452268Y-6802772D02*
X9449059Y-6805309D01*
X11649232Y-7663961D02*
X11646716Y-7667174D01*
X8524466Y-14095930D02*
X8531804Y-14095604D01*
X5185840Y-9568870D02*
X5187126Y-9565000D01*
X6170041Y-5911279D02*
X6165889Y-5917293D01*
X9443852Y-12228876D02*
X9446973Y-12231571D01*
X9527220Y-11968399D02*
X9523190Y-11968868D01*
X7589677Y-5504022D02*
X7592222Y-5507246D01*
X9485126Y-7059107D02*
X9488898Y-7060645D01*
X4564091Y-7058054D02*
X4560868Y-7060600D01*
X9692689Y-12139176D02*
X9693165Y-12135088D01*
X8289077Y-13993873D02*
X8293996Y-13999343D01*
X9670955Y-6840952D02*
X9668733Y-6837544D01*
X11679479Y-9454948D02*
X11673639Y-9458515D01*
X12052388Y-8922403D02*
X12047594Y-8916861D01*
X11634422Y-7826101D02*
X11636358Y-7829675D01*
X7714219Y-5563611D02*
X7718303Y-5563404D01*
X6437284Y-5787586D02*
X6429973Y-5787114D01*
X11640544Y-11362428D02*
X11642774Y-11365833D01*
X7859041Y-5402765D02*
X7858681Y-5398672D01*
X4451768Y-11365401D02*
X4452009Y-11358027D01*
X9610814Y-6786807D02*
X9607119Y-6785030D01*
X4707570Y-7035635D02*
X4703732Y-7034234D01*
X11905941Y-7813736D02*
X11907451Y-7809933D01*
X11622105Y-11244317D02*
X11621130Y-11248302D01*
X11697549Y-9445200D02*
X11691462Y-9448323D01*
X7829168Y-5323322D02*
X7826652Y-5320082D01*
X11782955Y-7607287D02*
X11778873Y-7606906D01*
X3861685Y-11428433D02*
X3863627Y-11435524D01*
X5138378Y-9402504D02*
X5135153Y-9399965D01*
X4693229Y-7321860D02*
X4697184Y-7320749D01*
X11902705Y-9405063D02*
X11909753Y-9403046D01*
X11650071Y-11375796D02*
X11652639Y-11378908D01*
X11916212Y-11299862D02*
X11916643Y-11295800D01*
X12071731Y-9283719D02*
X12075748Y-9277586D01*
X9645596Y-12227956D02*
X9648650Y-12225118D01*
X7638008Y-5281764D02*
X7634416Y-5283740D01*
X6191904Y-6420230D02*
X6192638Y-6412865D01*
X7570768Y-5356464D02*
X7569252Y-5360273D01*
X9600858Y-7060138D02*
X9604638Y-7058542D01*
X11911323Y-7798214D02*
X11912405Y-7794264D01*
X4799738Y-7133467D02*
X4798513Y-7129482D01*
X6187192Y-6449153D02*
X6188619Y-6441973D01*
X11941571Y-8840226D02*
X11934836Y-8837466D01*
X6157258Y-6243042D02*
X6153649Y-6236621D01*
X8219471Y-13849774D02*
X8220889Y-13856972D01*
X8689407Y-14039905D02*
X8695290Y-14035531D01*
X4776616Y-7265798D02*
X4778995Y-7262469D01*
X4046422Y-11633939D02*
X4053321Y-11636407D01*
X11835056Y-7890248D02*
X11838690Y-7888346D01*
X9540854Y-7071219D02*
X9544921Y-7071218D01*
X11874519Y-11386991D02*
X11877371Y-11384074D01*
X11868667Y-7867030D02*
X11871655Y-7864230D01*
X11915693Y-11303975D02*
X11916212Y-11299862D01*
X9424517Y-7011586D02*
X9427033Y-7014826D01*
X12107374Y-9211716D02*
X12109634Y-9204741D01*
X7845891Y-5351405D02*
X7844152Y-5347716D01*
X11590029Y-9538269D02*
X11586188Y-9543908D01*
X11866890Y-9412641D02*
X11874133Y-9411489D01*
X9443862Y-7032680D02*
X9446953Y-7035392D01*
X4636304Y-7325201D02*
X4640390Y-7325675D01*
X11617916Y-7742851D02*
X11617557Y-7746871D01*
X7572400Y-5352686D02*
X7570768Y-5356464D01*
X11630197Y-9491712D02*
X11625245Y-9496428D01*
X5035387Y-9369577D02*
X5031272Y-9369900D01*
X9423761Y-12028131D02*
X9421308Y-12031502D01*
X11631946Y-11217421D02*
X11630235Y-11221146D01*
X6134895Y-5975370D02*
X6132268Y-5982166D01*
X4297788Y-11090909D02*
X4291282Y-11087431D01*
X11861425Y-7639705D02*
X11858193Y-7637172D01*
X4334673Y-11115172D02*
X4328793Y-11110745D01*
X7615314Y-5530478D02*
X7618496Y-5532941D01*
X11651768Y-11186424D02*
X11649215Y-11189657D01*
X11889418Y-7669394D02*
X11886997Y-7666100D01*
X9500546Y-12260864D02*
X9504447Y-12262033D01*
X9667186Y-7007178D02*
X9669494Y-7003793D01*
X4515916Y-7123117D02*
X4514514Y-7126955D01*
X9434177Y-6819375D02*
X9431432Y-6822427D01*
X11718321Y-11140374D02*
X11714492Y-11141803D01*
X9423712Y-6831968D02*
X9421318Y-6835306D01*
X8415930Y-14079307D02*
X8422861Y-14081660D01*
X7559402Y-5412300D02*
X7559420Y-5416395D01*
X11629139Y-11340660D02*
X11630790Y-11344400D01*
X7559554Y-5420521D02*
X7559835Y-5424564D01*
X7790266Y-5287319D02*
X7786767Y-5285136D01*
X11867645Y-11170697D02*
X11864553Y-11167984D01*
X11755686Y-11431745D02*
X11759784Y-11432019D01*
X6125067Y-6169338D02*
X6127199Y-6176416D01*
X4802763Y-7145311D02*
X4801843Y-7141346D01*
X5145691Y-9629885D02*
X5148630Y-9627016D01*
X8814377Y-13808301D02*
X8814616Y-13800928D01*
X11709954Y-9439407D02*
X11703713Y-9442228D01*
X6548622Y-12683658D02*
X6474815Y-12647766D01*
X4522601Y-7108110D02*
X4520737Y-7111827D01*
X11874528Y-7861300D02*
X11877338Y-7858310D01*
X5004427Y-9663931D02*
X5008432Y-9664942D01*
X9569397Y-7069112D02*
X9573417Y-7068354D01*
X4236816Y-11065400D02*
X4229677Y-11063363D01*
X9487652Y-11978435D02*
X9483922Y-11980100D01*
X8749683Y-13609549D02*
X8745016Y-13603836D01*
X4699830Y-7033064D02*
X4695855Y-7031938D01*
X7704640Y-5263725D02*
X7700556Y-5263932D01*
X3873965Y-11240577D02*
X3871307Y-11247488D01*
X7608001Y-5303096D02*
X7605062Y-5305965D01*
X5125060Y-9392985D02*
X5121627Y-9390764D01*
X6474815Y-12647766D02*
X6401923Y-12610075D01*
X12098519Y-8996955D02*
X12095539Y-8990268D01*
X5191779Y-9492118D02*
X5190932Y-9488110D01*
X4731072Y-7306464D02*
X4734622Y-7304316D01*
X4715188Y-7038667D02*
X4711452Y-7037109D01*
X11822602Y-11142737D02*
X11818799Y-11141315D01*
X11844637Y-11153673D02*
X11841100Y-11151610D01*
X4718965Y-7040300D02*
X4715188Y-7038667D01*
X8803159Y-13713688D02*
X8801027Y-13706609D01*
X11814916Y-11139940D02*
X11811009Y-11138676D01*
X11898202Y-11208976D02*
X11896127Y-11205384D01*
X9456647Y-12239183D02*
X9460007Y-12241448D01*
X7563608Y-5448879D02*
X7564602Y-5452802D01*
X11901972Y-11216185D02*
X11900138Y-11212551D01*
X4552690Y-7285194D02*
X4555663Y-7287974D01*
X7639170Y-5546229D02*
X7642885Y-5548091D01*
X9405578Y-12060136D02*
X9404062Y-12063946D01*
X6183800Y-6463429D02*
X6185575Y-6456343D01*
X5189422Y-9557124D02*
X5190360Y-9553160D01*
X11882750Y-7852154D02*
X11885336Y-7848998D01*
X9519107Y-6773372D02*
X9515087Y-6774129D01*
X4616259Y-7321131D02*
X4620191Y-7322185D01*
X4338595Y-11588142D02*
X4344309Y-11583474D01*
X11917247Y-7753732D02*
X11917106Y-7749610D01*
X6695920Y-5985620D02*
X6693422Y-5978754D01*
X4506066Y-7175144D02*
X4506084Y-7179239D01*
X4895458Y-9538353D02*
X4896043Y-9542416D01*
X4806030Y-7173828D02*
X4805896Y-7169703D01*
X4506334Y-7166972D02*
X4506162Y-7171079D01*
X11903761Y-11219942D02*
X11901972Y-11216185D01*
X7852286Y-5459359D02*
X7853485Y-5455442D01*
X3905411Y-11182436D02*
X3901300Y-11188525D01*
X9599598Y-11977938D02*
X9595760Y-11976537D01*
X9555824Y-11967820D02*
X9551791Y-11967607D01*
X9394862Y-6907577D02*
X9394547Y-6911669D01*
X4630908Y-7028666D02*
X4626932Y-7029399D01*
X11805674Y-8816325D02*
X11798361Y-8816833D01*
X11546599Y-9638034D02*
X11545237Y-9644785D01*
X4443657Y-11423658D02*
X4445275Y-11416467D01*
X11750227Y-7607412D02*
X11746187Y-7607984D01*
X6193581Y-6398243D02*
X6193748Y-6390912D01*
X9426183Y-12024875D02*
X9423761Y-12028131D01*
X11742093Y-9427695D02*
X11735554Y-9429711D01*
X7566968Y-5460626D02*
X7568339Y-5464526D01*
X4110481Y-11650235D02*
X4117785Y-11651200D01*
X11685281Y-7630829D02*
X11681909Y-7633168D01*
X9682888Y-6978461D02*
X9684405Y-6974654D01*
X12049416Y-9312734D02*
X12054164Y-9307157D01*
X8582757Y-14088184D02*
X8589975Y-14086461D01*
X4708865Y-7316938D02*
X4712682Y-7315420D01*
X11719636Y-7898716D02*
X11723509Y-7899902D01*
X7597491Y-5513491D02*
X7600255Y-5516587D01*
X6357018Y-5791986D02*
X6349864Y-5793479D01*
X9435065Y-12220262D02*
X9437935Y-12223200D01*
X4977717Y-9653737D02*
X4981391Y-9655527D01*
X4585834Y-7309074D02*
X4589476Y-7310978D01*
X7813776Y-5521384D02*
X7816700Y-5518523D01*
X9412669Y-6849196D02*
X9410763Y-6852839D01*
X7772294Y-5277459D02*
X7768553Y-5275805D01*
X9507084Y-6775915D02*
X9503144Y-6777016D01*
X9520436Y-12265512D02*
X9524493Y-12266102D01*
X4421104Y-11485855D02*
X4424309Y-11479214D01*
X7824913Y-5509380D02*
X7827507Y-5506222D01*
X4568458Y-7298283D02*
X4571861Y-7300619D01*
X3644258Y-11772860D02*
X2193753Y-14285311D01*
X7586529Y-5327713D02*
X7584191Y-5331115D01*
X9647638Y-6812572D02*
X9644641Y-6809804D01*
X11748654Y-9425765D02*
X11742093Y-9427695D01*
X11908816Y-7806015D02*
X11910123Y-7802132D01*
X4186394Y-11055111D02*
X4179030Y-11054377D01*
X4291282Y-11087431D02*
X4284746Y-11084068D01*
X4557729Y-7063291D02*
X4554665Y-7065941D01*
X7829974Y-5502941D02*
X7832361Y-5499608D01*
X4916802Y-9440194D02*
X4914739Y-9443731D01*
X4785617Y-7252094D02*
X4787680Y-7248556D01*
X12058769Y-9301468D02*
X12063238Y-9295662D01*
X9666407Y-6834193D02*
X9663994Y-6830894D01*
X6203443Y-5872442D02*
X6198288Y-5877569D01*
X9572105Y-6773863D02*
X9568073Y-6773160D01*
X6192638Y-6412865D02*
X6193225Y-6405585D01*
X9642573Y-12230679D02*
X9645596Y-12227956D01*
X8758504Y-13621272D02*
X8754130Y-13615390D01*
X4999218Y-9376186D02*
X4995317Y-9377559D01*
X9463409Y-12243785D02*
X9466874Y-12245891D01*
X4531617Y-7260210D02*
X4533942Y-7263560D01*
X7762231Y-5554076D02*
X7766033Y-5552567D01*
X9671699Y-12196462D02*
X9673806Y-12192997D01*
X7649047Y-5276367D02*
X7645301Y-5278040D01*
X3852076Y-11355573D02*
X3852214Y-11362924D01*
X4584678Y-7044605D02*
X4581043Y-7046605D01*
X8371132Y-13532662D02*
X8364668Y-13536198D01*
X9536774Y-12267224D02*
X9540839Y-12267322D01*
X6161779Y-5923382D02*
X6157899Y-5929531D01*
X9419806Y-12201111D02*
X9422130Y-12204462D01*
X3853730Y-11385023D02*
X3854624Y-11392329D01*
X11652648Y-7853217D02*
X11655355Y-7856347D01*
X11879198Y-11182309D02*
X11876438Y-11179307D01*
X8673094Y-13541241D02*
X8666797Y-13537446D01*
X11617304Y-11284923D02*
X11617411Y-11288969D01*
X3903970Y-11521827D02*
X3908241Y-11527866D01*
X4788888Y-7106883D02*
X4787002Y-7103280D01*
X11636358Y-7829675D02*
X11638390Y-7833195D01*
X6160721Y-6249549D02*
X6157258Y-6243042D01*
X9679564Y-12182144D02*
X9681313Y-12178397D01*
X7672258Y-5268343D02*
X7668318Y-5269444D01*
X4805951Y-7181989D02*
X4806049Y-7177925D01*
X8671021Y-14052085D02*
X8677200Y-14048224D01*
X11865615Y-7869771D02*
X11868667Y-7867030D01*
X4257757Y-11072373D02*
X4250815Y-11069832D01*
X6654714Y-5908323D02*
X6650266Y-5902482D01*
X11837731Y-9415495D02*
X11845065Y-9415074D01*
X4516449Y-7231229D02*
X4517967Y-7235044D01*
X11917106Y-7749610D02*
X11916870Y-7745542D01*
X7834668Y-5496221D02*
X7836890Y-5492787D01*
X4554665Y-7065941D02*
X4551726Y-7068809D01*
X4067361Y-11640912D02*
X4074385Y-11642918D01*
X11693460Y-7887042D02*
X11697036Y-7888986D01*
X7574147Y-5348939D02*
X7572400Y-5352686D01*
X3852583Y-11370337D02*
X3853099Y-11377665D01*
X4673083Y-7325572D02*
X4677186Y-7325060D01*
X11830156Y-11146001D02*
X11826424Y-11144343D01*
X9496583Y-7063442D02*
X9500497Y-7064702D01*
X8719703Y-13577097D02*
X8714283Y-13572111D01*
X4248530Y-11637207D02*
X4255440Y-11634782D01*
X4509923Y-7142707D02*
X4509058Y-7146629D01*
X8218314Y-13842522D02*
X8219471Y-13849774D01*
X9626246Y-12243039D02*
X9629596Y-12240713D01*
X11708137Y-7894308D02*
X11711908Y-7895846D01*
X4193655Y-11056004D02*
X4186394Y-11055111D01*
X12104935Y-9218599D02*
X12107374Y-9211716D01*
X6118387Y-6140834D02*
X6119805Y-6148033D01*
X6116118Y-6126406D02*
X6117158Y-6133624D01*
X7818575Y-5310765D02*
X7815721Y-5307819D01*
X9693957Y-6930815D02*
X9694149Y-6926695D01*
X11551733Y-9618157D02*
X11549894Y-9624792D01*
X7783230Y-5283073D02*
X7779653Y-5281128D01*
X4894574Y-9509730D02*
X4894331Y-9513879D01*
X11995072Y-9361609D02*
X12001046Y-9357377D01*
X3971380Y-11113651D02*
X3965582Y-11118170D01*
X11639833Y-11203091D02*
X11637705Y-11206568D01*
X9682871Y-12174662D02*
X9684388Y-12170854D01*
X6169378Y-6504995D02*
X6172193Y-6498188D01*
X4894666Y-9530207D02*
X4894989Y-9534323D01*
X8683325Y-14044102D02*
X8689407Y-14039905D01*
X7798145Y-5534612D02*
X7801411Y-5532141D01*
X8422861Y-14081660D02*
X8429896Y-14083855D01*
X7650336Y-5551514D02*
X7654071Y-5553073D01*
X4241463Y-11639528D02*
X4248530Y-11637207D01*
X4398768Y-11523876D02*
X4402878Y-11517788D01*
X7609073Y-5525087D02*
X7612121Y-5527825D01*
X9693641Y-12131001D02*
X9693926Y-12126925D01*
X8618048Y-14077683D02*
X8624948Y-14075068D01*
X9690953Y-12086212D02*
X9690104Y-12082204D01*
X9485073Y-12255230D02*
X9488924Y-12256820D01*
X5141572Y-9405156D02*
X5138378Y-9402504D01*
X5057176Y-9668768D02*
X5061324Y-9668330D01*
X4976450Y-9385518D02*
X4972845Y-9387404D01*
X6640975Y-5891129D02*
X6636130Y-5885616D01*
X8802454Y-13880784D02*
X8804418Y-13873686D01*
X7716938Y-5263859D02*
X7712831Y-5263688D01*
X7599344Y-5311808D02*
X7596607Y-5314857D01*
X8468231Y-13499674D02*
X8460948Y-13500945D01*
X4171676Y-11053833D02*
X4164291Y-11053404D01*
X8804418Y-13873686D02*
X8806266Y-13866558D01*
X4510272Y-7211723D02*
X4511266Y-7215647D01*
X7567850Y-5364110D02*
X7566566Y-5367981D01*
X9400207Y-12075556D02*
X9399080Y-12079531D01*
X11917133Y-11275378D02*
X11916861Y-11271234D01*
X9572112Y-11969952D02*
X9568013Y-11969288D01*
X4391522Y-11172490D02*
X4387074Y-11166650D01*
X4507875Y-7199615D02*
X4508576Y-7203707D01*
X6108524Y-6595854D02*
X6113595Y-6590580D01*
X8217233Y-13835229D02*
X8218314Y-13842522D01*
X4781332Y-7259065D02*
X4783553Y-7255632D01*
X7773551Y-5549300D02*
X7777220Y-5547475D01*
X5194290Y-9520682D02*
X5194271Y-9516587D01*
X9626234Y-7046855D02*
X9629648Y-7044590D01*
X7007124Y-12862110D02*
X11457787Y-10292519D01*
X8241353Y-13919849D02*
X8244523Y-13926524D01*
X11625710Y-7706871D02*
X11624403Y-7710755D01*
X11769332Y-8820688D02*
X11762141Y-8822102D01*
X11894000Y-11201920D02*
X11891769Y-11198513D01*
X6179673Y-6477446D02*
X6181793Y-6470452D01*
X11535835Y-9762055D02*
X11529664Y-9838453D01*
X5108353Y-9654961D02*
X5112073Y-9653107D01*
X9458853Y-11994085D02*
X9455545Y-11996483D01*
X8539206Y-14095046D02*
X8546522Y-14094342D01*
X8222496Y-13864159D02*
X8224292Y-13871334D01*
X11676359Y-11401484D02*
X11679637Y-11403894D01*
X4805494Y-7190173D02*
X4805780Y-7186095D01*
X4902683Y-9469755D02*
X4901398Y-9473625D01*
X12047594Y-8916861D02*
X12042697Y-8911477D01*
X6473476Y-5792697D02*
X6466338Y-5791343D01*
X9639452Y-7037171D02*
X9642562Y-7034495D01*
X8509753Y-14096017D02*
X8517115Y-14096069D01*
X11885328Y-11374690D02*
X11887794Y-11371408D01*
X8597065Y-14084517D02*
X8604071Y-14082429D01*
X12117801Y-9059832D02*
X12116345Y-9052655D01*
X6141083Y-6556234D02*
X6145194Y-6550144D01*
X5984715Y-12349222D02*
X5918955Y-12300178D01*
X4669010Y-7325969D02*
X4673083Y-7325572D01*
X9694095Y-6914407D02*
X9693866Y-6910337D01*
X11635673Y-7684402D02*
X11633767Y-7688044D01*
X8723328Y-14011620D02*
X8728555Y-14006451D01*
X9396746Y-6948430D02*
X9397549Y-6952463D01*
X4191219Y-11650548D02*
X4198556Y-11649538D01*
X8706844Y-14026417D02*
X8712472Y-14021602D01*
X11488385Y-10142283D02*
X11473882Y-10217528D01*
X11735554Y-9429711D02*
X11729062Y-9431895D01*
X6119969Y-6024363D02*
X6118541Y-6031543D01*
X6321489Y-5801060D02*
X6314611Y-5803371D01*
X6698347Y-5992530D02*
X6695920Y-5985620D01*
X8809808Y-13742307D02*
X8808390Y-13735109D01*
X4176598Y-11652146D02*
X4183914Y-11651441D01*
X11711942Y-11421610D02*
X11715744Y-11423033D01*
X8677200Y-14048224D02*
X8683325Y-14044102D01*
X9405623Y-6864018D02*
X9404107Y-6867826D01*
X9615679Y-7053145D02*
X9619270Y-7051170D01*
X11980571Y-8860530D02*
X11974274Y-8856735D01*
X9668733Y-6837544D02*
X9666407Y-6834193D01*
X9581418Y-12262761D02*
X9585372Y-12261651D01*
X6118538Y-6585087D02*
X6123291Y-6579605D01*
X9683915Y-6866515D02*
X9682366Y-6862716D01*
X11776548Y-8819455D02*
X11769332Y-8820688D01*
X8411273Y-13514472D02*
X8404447Y-13517045D01*
X4406831Y-11511594D02*
X4410626Y-11505298D01*
X4894861Y-9505653D02*
X4894574Y-9509730D01*
X6650266Y-5902482D02*
X6645672Y-5896726D01*
X11651115Y-9474061D02*
X11645715Y-9478255D01*
X6172193Y-6498188D02*
X6174893Y-6491350D01*
X5157085Y-9618125D02*
X5159708Y-9615047D01*
X6185896Y-6318213D02*
X6184141Y-6311110D01*
X4790816Y-7110561D02*
X4788888Y-7106883D01*
X4950145Y-9636122D02*
X4953370Y-9638660D01*
X6174893Y-6491350D02*
X6177362Y-6484451D01*
X11746178Y-11133675D02*
X11742102Y-11134270D01*
X11916861Y-11271234D02*
X11916502Y-11267140D01*
X6182197Y-6304019D02*
X6180108Y-6297015D01*
X11992838Y-8868503D02*
X11986736Y-8864401D01*
X4021547Y-11083024D02*
X4015030Y-11086299D01*
X9520439Y-7069319D02*
X9524495Y-7069909D01*
X5099620Y-9379907D02*
X5095739Y-9378435D01*
X9450140Y-7038049D02*
X9453364Y-7040587D01*
X11754307Y-7607011D02*
X11750227Y-7607412D01*
X8418255Y-13512004D02*
X8411273Y-13514472D01*
X11792408Y-7904313D02*
X11796471Y-7903630D01*
X9650546Y-6815390D02*
X9647638Y-6812572D01*
X5107132Y-9383099D02*
X5103355Y-9381467D01*
X9419779Y-7004936D02*
X9422096Y-7008290D01*
X8284306Y-13988318D02*
X8289077Y-13993873D01*
X8743396Y-13990159D02*
X8748139Y-13984489D01*
X5039472Y-9369370D02*
X5035387Y-9369577D01*
X7858681Y-5398672D02*
X7858183Y-5394558D01*
X7708758Y-5263694D02*
X7704640Y-5263725D01*
X4754385Y-7289777D02*
X4757408Y-7287055D01*
X11620551Y-11313357D02*
X11621443Y-11317339D01*
X9460007Y-12241448D02*
X9463409Y-12243785D01*
X6237016Y-5844062D02*
X6231134Y-5848437D01*
X9551791Y-11967607D02*
X9547684Y-11967436D01*
X4898439Y-9554523D02*
X4899433Y-9558447D01*
X4681204Y-7324401D02*
X4685256Y-7323628D01*
X4183914Y-11651441D02*
X4191219Y-11650548D01*
X9395833Y-12095581D02*
X9395284Y-12099711D01*
X9589329Y-7064349D02*
X9593185Y-7063003D01*
X11697036Y-7888986D02*
X11700700Y-7890878D01*
X6136856Y-6562290D02*
X6141083Y-6556234D01*
X11626181Y-11333081D02*
X11627592Y-11336861D01*
X11864562Y-7642293D02*
X11861425Y-7639705D01*
X4227367Y-11643560D02*
X4234457Y-11641617D01*
X11791066Y-8817525D02*
X11783798Y-8818397D01*
X11618859Y-7734681D02*
X11618305Y-7738716D01*
X7853118Y-5370597D02*
X7851857Y-5366633D01*
X4357168Y-11134154D02*
X4351675Y-11129210D01*
X9692028Y-6947082D02*
X9692656Y-6943005D01*
X4269110Y-11629334D02*
X4275840Y-11626426D01*
X4229677Y-11063363D02*
X4222591Y-11061588D01*
X9394687Y-12128309D02*
X9395010Y-12132425D01*
X11662904Y-11174421D02*
X11660024Y-11177355D01*
X7768553Y-5275805D02*
X7764782Y-5274268D01*
X9691235Y-6951059D02*
X9692028Y-6947082D01*
X3892230Y-11503185D02*
X3896060Y-11509479D01*
X9661479Y-6827654D02*
X9658867Y-6824469D01*
X4558784Y-7290670D02*
X4561977Y-7293322D01*
X11782164Y-9418834D02*
X11775400Y-9419904D01*
X9466912Y-7049777D02*
X9470449Y-7051840D01*
X8425250Y-13509726D02*
X8418255Y-13512004D01*
X9642562Y-7034495D02*
X9645656Y-7031829D01*
X7656630Y-5273261D02*
X7652821Y-5274775D01*
X4750210Y-7059703D02*
X4746984Y-7057166D01*
X4120222Y-11054798D02*
X4112916Y-11055691D01*
X5794677Y-6837961D02*
X5860087Y-6784458D01*
X11896854Y-7832084D02*
X11898854Y-7828485D01*
X4387074Y-11166650D02*
X4382407Y-11160937D01*
X9693926Y-12126925D02*
X9694139Y-12122891D01*
X9569395Y-12265304D02*
X9573444Y-12264529D01*
X9690104Y-12082204D02*
X9689068Y-12078208D01*
X12116936Y-9176377D02*
X12118300Y-9169137D01*
X11735434Y-11428773D02*
X11739443Y-11429587D01*
X7681558Y-5561058D02*
X7685584Y-5561765D01*
X9419018Y-6838686D02*
X9416796Y-6842121D01*
X5181292Y-9580295D02*
X5182923Y-9576517D01*
X11738082Y-11135026D02*
X11734073Y-11135874D01*
X3868765Y-11254431D02*
X3866412Y-11261362D01*
X9694254Y-6922626D02*
X9694244Y-6918526D01*
X3857360Y-11296993D02*
X3856090Y-11304275D01*
X4402878Y-11517788D02*
X4406831Y-11511594D01*
X3975312Y-11595609D02*
X3981369Y-11599834D01*
X11877338Y-7858310D02*
X11880126Y-7855331D01*
X11780219Y-7905875D02*
X11784299Y-7905475D01*
X8773234Y-13948199D02*
X8776870Y-13941797D01*
X11651776Y-7660733D02*
X11649232Y-7663961D01*
X3855706Y-11399622D02*
X3856936Y-11406832D01*
X8293996Y-13999343D02*
X8299060Y-14004729D01*
X11894009Y-7676228D02*
X11891744Y-7672745D01*
X11851541Y-11158096D02*
X11848087Y-11155788D01*
X4447200Y-11299407D02*
X4445782Y-11292209D01*
X6335617Y-5796911D02*
X6328569Y-5798928D01*
X4578727Y-7305062D02*
X4582265Y-7307126D01*
X8745016Y-13603836D02*
X8740202Y-13598208D01*
X6851497Y-12809811D02*
X6774695Y-12780927D01*
X9678977Y-6855288D02*
X9677136Y-6851658D01*
X9395294Y-6903514D02*
X9394862Y-6907577D01*
X5027200Y-9370296D02*
X5023169Y-9370766D01*
X8226162Y-13878466D02*
X8228252Y-13885473D01*
X8606418Y-13510421D02*
X8599383Y-13508226D01*
X4962298Y-9393688D02*
X4958832Y-9395983D01*
X4198556Y-11649538D02*
X4205765Y-11648310D01*
X11529664Y-9838453D02*
X11521838Y-9914731D01*
X7673601Y-5559298D02*
X7677564Y-5560235D01*
X8233915Y-13690388D02*
X8231373Y-13697331D01*
X3870462Y-11456508D02*
X3873077Y-11463406D01*
X8375388Y-14061751D02*
X8381925Y-14065113D01*
X11644321Y-11196198D02*
X11642013Y-11199584D01*
X7559743Y-5404085D02*
X7559499Y-5408234D01*
X11904316Y-11343196D02*
X11905925Y-11339432D01*
X11633758Y-11213735D02*
X11631946Y-11217421D01*
X5173139Y-9442559D02*
X5170991Y-9439008D01*
X5031272Y-9369900D02*
X5027200Y-9370296D01*
X11755653Y-7905981D02*
X11759751Y-7906254D01*
X7575937Y-5345266D02*
X7574147Y-5348939D01*
X9677748Y-6989642D02*
X9679561Y-6985956D01*
X9669521Y-12199968D02*
X9671699Y-12196462D01*
X7854244Y-5374543D02*
X7853118Y-5370597D01*
X7801411Y-5532141D02*
X7804627Y-5529599D01*
X3921770Y-11545376D02*
X3926542Y-11550931D01*
X9456642Y-7042996D02*
X9460008Y-7045354D01*
X9557197Y-12266870D02*
X9561345Y-12266432D01*
X11692287Y-7626590D02*
X11688746Y-7628635D01*
X11900147Y-7686859D02*
X11898168Y-7683212D01*
X11917266Y-7757828D02*
X11917247Y-7753732D01*
X8774483Y-13646068D02*
X8770726Y-13639732D01*
X4770683Y-7079754D02*
X4767991Y-7076616D01*
X4506694Y-7162855D02*
X4506334Y-7166972D01*
X5081397Y-9664659D02*
X5085351Y-9663549D01*
X3858280Y-11414072D02*
X3859888Y-11421259D01*
X11755297Y-9424080D02*
X11748654Y-9425765D01*
X11881904Y-11185440D02*
X11879198Y-11182309D01*
X7578522Y-5486902D02*
X7580554Y-5490422D01*
X7562719Y-5444798D02*
X7563608Y-5448879D01*
X4801843Y-7141346D02*
X4800922Y-7137380D01*
X11803102Y-11136495D02*
X11799117Y-11135570D01*
X9532699Y-12266937D02*
X9536774Y-12267224D01*
X11540290Y-9685476D02*
X11535835Y-9762055D01*
X11655355Y-7856347D02*
X11658114Y-7859348D01*
X7669595Y-5558286D02*
X7673601Y-5559298D01*
X7561913Y-5440862D02*
X7562719Y-5444798D01*
X11913101Y-11247009D02*
X11912064Y-11243011D01*
X9401829Y-6968275D02*
X9403144Y-6972110D01*
X4620191Y-7322185D02*
X4624227Y-7323080D01*
X9427033Y-7014826D02*
X9429645Y-7018011D01*
X6598756Y-5850685D02*
X6592877Y-5846260D01*
X8502380Y-14095777D02*
X8509753Y-14096017D01*
X9472867Y-11985505D02*
X9469231Y-11987507D01*
X11662186Y-9466009D02*
X11656622Y-9470003D01*
X9440866Y-7029911D02*
X9443862Y-7032680D01*
X8798749Y-13699614D02*
X8796324Y-13692705D01*
X4762399Y-7070655D02*
X4759425Y-7067875D01*
X4507290Y-7195553D02*
X4507875Y-7199615D01*
X8800259Y-13887819D02*
X8802454Y-13880784D01*
X3854624Y-11392329D02*
X3855706Y-11399622D01*
X4127581Y-11054166D02*
X4120222Y-11054798D01*
X6169956Y-6269439D02*
X6167049Y-6262711D01*
X9657106Y-12216227D02*
X9659729Y-12213149D01*
X4895854Y-9497552D02*
X4895263Y-9501609D01*
X11856893Y-8817746D02*
X11849628Y-8817052D01*
X7784445Y-5543598D02*
X7787952Y-5541476D01*
X8262571Y-13958632D02*
X8266579Y-13964726D01*
X5000526Y-9662761D02*
X5004427Y-9663931D01*
X8541637Y-13497278D02*
X8534284Y-13496733D01*
X6187502Y-6325398D02*
X6185896Y-6318213D01*
X9407788Y-6983507D02*
X9409534Y-6987192D01*
X9686683Y-6874205D02*
X9685367Y-6870370D01*
X9436976Y-12012582D02*
X9434154Y-12015482D01*
X11859281Y-11400677D02*
X11862446Y-11398068D01*
X5084096Y-9374695D02*
X5080091Y-9373684D01*
X4900228Y-9477527D02*
X4899101Y-9481502D01*
X6261465Y-5827991D02*
X6255245Y-5831779D01*
X7582659Y-5493899D02*
X7584953Y-5497365D01*
X9618111Y-11986803D02*
X9614426Y-11984823D01*
X7611117Y-5300417D02*
X7608001Y-5303096D01*
X9563957Y-11968697D02*
X9559943Y-11968179D01*
X11878628Y-8821035D02*
X11871396Y-8819736D01*
X5730622Y-6893129D02*
X5794677Y-6837961D01*
X11611111Y-9511335D02*
X11606610Y-9516475D01*
X12114744Y-9045563D02*
X12112911Y-9038409D01*
X11622121Y-7718622D02*
X11621147Y-7722607D01*
X9411373Y-12187013D02*
X9413332Y-12190576D01*
X11767974Y-7906493D02*
X11772056Y-7906384D01*
X6929026Y-12836907D02*
X6851497Y-12809811D01*
X4328793Y-11110745D02*
X4322809Y-11106478D01*
X11916968Y-7766016D02*
X11917161Y-7761897D01*
X11699469Y-7622638D02*
X11695836Y-7624541D01*
X6631181Y-5880262D02*
X6626085Y-5874991D01*
X4528633Y-7097393D02*
X4526497Y-7100974D01*
X5193662Y-9532972D02*
X5193948Y-9528896D01*
X6636130Y-5885616D02*
X6631181Y-5880262D01*
X3896060Y-11509479D02*
X3899964Y-11515732D01*
X9400566Y-6964311D02*
X9401829Y-6968275D01*
X11676375Y-7875788D02*
X11679653Y-7878198D01*
X9437966Y-7027089D02*
X9440866Y-7029911D01*
X9440878Y-12226095D02*
X9443852Y-12228876D01*
X3923316Y-11159094D02*
X3918648Y-11164723D01*
X11652639Y-11378908D02*
X11655346Y-11382038D01*
X9437935Y-12223200D02*
X9440878Y-12226095D01*
X8268018Y-13625337D02*
X8263834Y-13631467D01*
X6075606Y-6625027D02*
X6081405Y-6620508D01*
X9685861Y-12166972D02*
X9687147Y-12163102D01*
X3871307Y-11247488D02*
X3868765Y-11254431D01*
X12112911Y-9038409D02*
X12110924Y-9031344D01*
X4508576Y-7203707D02*
X4509308Y-7207685D01*
X4132429Y-11652521D02*
X4139771Y-11652877D01*
X7806725Y-5299520D02*
X7803546Y-5296858D01*
X9589283Y-12260468D02*
X9593226Y-12259169D01*
X9654334Y-7023103D02*
X9657073Y-7020056D01*
X6113486Y-6082561D02*
X6113508Y-6089881D01*
X11628618Y-11224914D02*
X11627102Y-11228723D01*
X6568566Y-5829890D02*
X6562311Y-5826170D01*
X9396723Y-12144536D02*
X9397497Y-12148586D01*
X9664800Y-7010512D02*
X9667186Y-7007178D01*
X8214902Y-13783781D02*
X8214662Y-13791154D01*
X6300888Y-5808556D02*
X6294115Y-5811389D01*
X3856090Y-11304275D02*
X3854936Y-11311590D01*
X6119710Y-12442664D02*
X6051675Y-12396791D01*
X9663994Y-6830894D02*
X9661479Y-6827654D01*
X11686372Y-8848837D02*
X11679860Y-8852206D01*
X9512417Y-12263982D02*
X9516410Y-12264805D01*
X4091100Y-11059390D02*
X4083913Y-11060998D01*
X7712831Y-5263688D02*
X7708758Y-5263694D01*
X4679868Y-7028459D02*
X4675811Y-7027868D01*
X7857202Y-5439510D02*
X7857831Y-5435433D01*
X8223013Y-13725523D02*
X8221396Y-13732714D01*
X4551726Y-7068809D02*
X4548788Y-7071680D01*
X4896745Y-9546507D02*
X4897518Y-9550557D01*
X6188714Y-12486999D02*
X6119710Y-12442664D01*
X8252450Y-13650357D02*
X8248930Y-13656790D01*
X7628557Y-5540039D02*
X7632064Y-5542217D01*
X11905925Y-11339432D02*
X11907442Y-11335624D01*
X11636342Y-11355371D02*
X11638416Y-11358964D01*
X9584076Y-6776630D02*
X9580107Y-6775598D01*
X8215633Y-13820608D02*
X8216338Y-13827924D01*
X4604543Y-7317434D02*
X4608414Y-7318719D01*
X6626085Y-5874991D02*
X6620885Y-5869879D01*
X8266579Y-13964726D02*
X8270775Y-13970809D01*
X12012605Y-9348357D02*
X12018267Y-9343720D01*
X12092355Y-8983602D02*
X12089066Y-8977093D01*
X11835048Y-11415939D02*
X11838674Y-11414042D01*
X9685367Y-6870370D02*
X9683915Y-6866515D01*
X12054164Y-9307157D02*
X12058769Y-9301468D01*
X9584074Y-11972724D02*
X9580069Y-11971713D01*
X11645715Y-9478255D02*
X11640456Y-9482660D01*
X7842922Y-5482070D02*
X7844734Y-5478384D01*
X11914272Y-11312030D02*
X11915023Y-11307979D01*
X11730120Y-11136885D02*
X11726139Y-11137913D01*
X9483922Y-11980100D02*
X9480117Y-11981809D01*
X9415406Y-12194169D02*
X9417511Y-12197646D01*
X11907442Y-11335624D02*
X11908849Y-11331780D01*
X11796462Y-11429321D02*
X11800470Y-11428472D01*
X9432343Y-12217239D02*
X9435065Y-12220262D01*
X11927975Y-8834779D02*
X11921083Y-8832306D01*
X11660959Y-8863411D02*
X6700508Y-5999493D01*
X4677186Y-7325060D02*
X4681204Y-7324401D01*
X8738569Y-13995684D02*
X8743396Y-13990159D01*
X12122622Y-9132816D02*
X12122941Y-9125495D01*
X11731408Y-7902088D02*
X11735401Y-7903009D01*
X11910948Y-7713374D02*
X11909729Y-7709484D01*
X6342677Y-5795086D02*
X6335617Y-5796911D01*
X8740202Y-13598208D02*
X8735283Y-13592738D01*
X4514514Y-7126955D02*
X4513229Y-7130826D01*
X4910769Y-9450912D02*
X4908979Y-9454584D01*
X4898163Y-9485465D02*
X4897267Y-9489501D01*
X7803546Y-5296858D02*
X7800314Y-5294325D01*
X11713056Y-8836754D02*
X11706264Y-8839502D01*
X5122790Y-9647115D02*
X5126225Y-9644936D01*
X5854354Y-12249585D02*
X5790955Y-12197516D01*
X11582539Y-9549730D02*
X11578999Y-9555587D01*
X11622479Y-11321335D02*
X11623603Y-11325281D01*
X11722236Y-7613405D02*
X11718337Y-7614678D01*
X9426178Y-6828687D02*
X9423712Y-6831968D01*
X11722625Y-9434242D02*
X11716259Y-9436745D01*
X11807071Y-11137527D02*
X11803102Y-11136495D01*
X6494837Y-5797862D02*
X6487783Y-5795972D01*
X4929673Y-9616071D02*
X4932322Y-9619137D01*
X11849244Y-7882057D02*
X11852659Y-7879793D01*
X3948771Y-11132570D02*
X3943458Y-11137592D01*
X6659015Y-5914247D02*
X6654714Y-5908323D01*
X9648650Y-12225118D02*
X9651515Y-12222291D01*
X12109634Y-9204741D02*
X12111699Y-9197683D01*
X4540573Y-7080821D02*
X4537995Y-7083974D01*
X11545237Y-9644785D02*
X11543977Y-9651476D01*
X8725092Y-13582197D02*
X8719703Y-13577097D01*
X8797948Y-13894824D02*
X8800259Y-13887819D01*
X7654071Y-5553073D02*
X7657953Y-5554546D01*
X11645107Y-7843492D02*
X11647529Y-7846787D01*
X4610977Y-7033429D02*
X4607149Y-7034758D01*
X11606610Y-9516475D02*
X11602286Y-9521806D01*
X5190083Y-9484102D02*
X5189089Y-9480179D01*
X11654443Y-7657629D02*
X11651776Y-7660733D01*
X11827676Y-11419512D02*
X11831380Y-11417765D01*
X4983901Y-9381998D02*
X4980096Y-9383706D01*
X7745281Y-5268027D02*
X7741288Y-5267105D01*
X9414717Y-12041760D02*
X9412695Y-12045371D01*
X7612121Y-5527825D02*
X7615314Y-5530478D01*
X11808413Y-7900742D02*
X11812332Y-7899555D01*
X12089066Y-8977093D02*
X12085573Y-8970604D01*
X9673117Y-12040589D02*
X9671011Y-12037111D01*
X8814203Y-13778876D02*
X8813687Y-13771547D01*
X4575221Y-7302883D02*
X4578727Y-7305062D01*
X12102350Y-9225468D02*
X12104935Y-9218599D01*
X11667884Y-9462229D02*
X11662186Y-9466009D01*
X8653891Y-13530331D02*
X8647353Y-13526968D01*
X6115224Y-6119099D02*
X6116118Y-6126406D01*
X4506084Y-7179239D02*
X4506217Y-7183365D01*
X7630910Y-5285862D02*
X7627445Y-5288058D01*
X9568073Y-6773160D02*
X9564016Y-6772569D01*
X4704964Y-7318310D02*
X4708865Y-7316938D01*
X11818766Y-7615550D02*
X11814932Y-7614244D01*
X3914063Y-11170499D02*
X3909637Y-11176379D01*
X7660500Y-5271905D02*
X7656630Y-5273261D01*
X8350065Y-14046846D02*
X8356258Y-14050798D01*
X7566566Y-5367981D02*
X7565397Y-5371883D01*
X8548929Y-13498054D02*
X8541637Y-13497278D01*
X4519063Y-7115531D02*
X4517432Y-7119308D01*
X9394268Y-6923953D02*
X9394416Y-6928072D01*
X9404596Y-12172058D02*
X9406114Y-12175873D01*
X9399454Y-12156549D02*
X9400563Y-12160503D01*
X4112916Y-11055691D02*
X4105622Y-11056773D01*
X4794683Y-7233761D02*
X4796199Y-7229952D01*
X9428765Y-6825531D02*
X9426178Y-6828687D01*
X12121116Y-9081576D02*
X12120178Y-9074297D01*
D11*
X2445663Y-17288016D02*
X2445663Y-17088016D01*
X2445663Y-17088016D02*
X2493282Y-17088016D01*
X2493282Y-17088016D02*
X2521854Y-17097540D01*
X2521854Y-17097540D02*
X2540901Y-17116588D01*
X2540901Y-17116588D02*
X2550425Y-17135635D01*
X2550425Y-17135635D02*
X2559949Y-17173731D01*
X2559949Y-17173731D02*
X2559949Y-17202302D01*
X2559949Y-17202302D02*
X2550425Y-17240397D01*
X2550425Y-17240397D02*
X2540901Y-17259445D01*
X2540901Y-17259445D02*
X2521854Y-17278493D01*
X2521854Y-17278493D02*
X2493282Y-17288016D01*
X2493282Y-17288016D02*
X2445663Y-17288016D01*
X2645663Y-17288016D02*
X2645663Y-17154683D01*
X2645663Y-17192778D02*
X2655187Y-17173731D01*
X2655187Y-17173731D02*
X2664711Y-17164207D01*
X2664711Y-17164207D02*
X2683758Y-17154683D01*
X2683758Y-17154683D02*
X2702806Y-17154683D01*
X2769473Y-17288016D02*
X2769473Y-17154683D01*
X2769473Y-17088016D02*
X2759949Y-17097540D01*
X2759949Y-17097540D02*
X2769473Y-17107064D01*
X2769473Y-17107064D02*
X2778997Y-17097540D01*
X2778997Y-17097540D02*
X2769473Y-17088016D01*
X2769473Y-17088016D02*
X2769473Y-17107064D01*
X2893282Y-17288016D02*
X2874235Y-17278493D01*
X2874235Y-17278493D02*
X2864711Y-17259445D01*
X2864711Y-17259445D02*
X2864711Y-17088016D01*
X2998044Y-17288016D02*
X2978996Y-17278493D01*
X2978996Y-17278493D02*
X2969473Y-17259445D01*
X2969473Y-17259445D02*
X2969473Y-17088016D01*
X3226616Y-17288016D02*
X3226616Y-17088016D01*
X3226616Y-17088016D02*
X3293282Y-17230874D01*
X3293282Y-17230874D02*
X3359949Y-17088016D01*
X3359949Y-17088016D02*
X3359949Y-17288016D01*
X3540901Y-17288016D02*
X3540901Y-17183255D01*
X3540901Y-17183255D02*
X3531377Y-17164207D01*
X3531377Y-17164207D02*
X3512330Y-17154683D01*
X3512330Y-17154683D02*
X3474235Y-17154683D01*
X3474235Y-17154683D02*
X3455187Y-17164207D01*
X3540901Y-17278493D02*
X3521854Y-17288016D01*
X3521854Y-17288016D02*
X3474235Y-17288016D01*
X3474235Y-17288016D02*
X3455187Y-17278493D01*
X3455187Y-17278493D02*
X3445663Y-17259445D01*
X3445663Y-17259445D02*
X3445663Y-17240397D01*
X3445663Y-17240397D02*
X3455187Y-17221350D01*
X3455187Y-17221350D02*
X3474235Y-17211826D01*
X3474235Y-17211826D02*
X3521854Y-17211826D01*
X3521854Y-17211826D02*
X3540901Y-17202302D01*
X3636139Y-17154683D02*
X3636139Y-17354683D01*
X3636139Y-17164207D02*
X3655187Y-17154683D01*
X3655187Y-17154683D02*
X3693282Y-17154683D01*
X3693282Y-17154683D02*
X3712330Y-17164207D01*
X3712330Y-17164207D02*
X3721854Y-17173731D01*
X3721854Y-17173731D02*
X3731377Y-17192778D01*
X3731377Y-17192778D02*
X3731377Y-17249921D01*
X3731377Y-17249921D02*
X3721854Y-17268969D01*
X3721854Y-17268969D02*
X3712330Y-17278493D01*
X3712330Y-17278493D02*
X3693282Y-17288016D01*
X3693282Y-17288016D02*
X3655187Y-17288016D01*
X3655187Y-17288016D02*
X3636139Y-17278493D01*
X3817092Y-17268969D02*
X3826616Y-17278493D01*
X3826616Y-17278493D02*
X3817092Y-17288016D01*
X3817092Y-17288016D02*
X3807568Y-17278493D01*
X3807568Y-17278493D02*
X3817092Y-17268969D01*
X3817092Y-17268969D02*
X3817092Y-17288016D01*
X3817092Y-17164207D02*
X3826616Y-17173731D01*
X3826616Y-17173731D02*
X3817092Y-17183255D01*
X3817092Y-17183255D02*
X3807568Y-17173731D01*
X3807568Y-17173731D02*
X3817092Y-17164207D01*
X3817092Y-17164207D02*
X3817092Y-17183255D01*
M02*
