%TF.GenerationSoftware,KiCad,Pcbnew,7.0.11-7.0.11~ubuntu22.04.1*%
%TF.CreationDate,2024-08-26T12:19:36+02:00*%
%TF.ProjectId,MotorDriver-Elec,4d6f746f-7244-4726-9976-65722d456c65,rev?*%
%TF.SameCoordinates,Original*%
%TF.FileFunction,Copper,L2,Bot*%
%TF.FilePolarity,Positive*%
%FSLAX46Y46*%
G04 Gerber Fmt 4.6, Leading zero omitted, Abs format (unit mm)*
G04 Created by KiCad (PCBNEW 7.0.11-7.0.11~ubuntu22.04.1) date 2024-08-26 12:19:36*
%MOMM*%
%LPD*%
G01*
G04 APERTURE LIST*
G04 Aperture macros list*
%AMHorizOval*
0 Thick line with rounded ends*
0 $1 width*
0 $2 $3 position (X,Y) of the first rounded end (center of the circle)*
0 $4 $5 position (X,Y) of the second rounded end (center of the circle)*
0 Add line between two ends*
20,1,$1,$2,$3,$4,$5,0*
0 Add two circle primitives to create the rounded ends*
1,1,$1,$2,$3*
1,1,$1,$4,$5*%
%AMRotRect*
0 Rectangle, with rotation*
0 The origin of the aperture is its center*
0 $1 length*
0 $2 width*
0 $3 Rotation angle, in degrees counterclockwise*
0 Add horizontal line*
21,1,$1,$2,0,0,$3*%
G04 Aperture macros list end*
%TA.AperFunction,ComponentPad*%
%ADD10C,1.549400*%
%TD*%
%TA.AperFunction,ComponentPad*%
%ADD11C,1.270000*%
%TD*%
%TA.AperFunction,ComponentPad*%
%ADD12O,1.700000X1.700000*%
%TD*%
%TA.AperFunction,ComponentPad*%
%ADD13R,1.700000X1.700000*%
%TD*%
%TA.AperFunction,ComponentPad*%
%ADD14C,1.320800*%
%TD*%
%TA.AperFunction,ComponentPad*%
%ADD15RotRect,1.800000X1.800000X330.000000*%
%TD*%
%TA.AperFunction,ComponentPad*%
%ADD16C,1.800000*%
%TD*%
%TA.AperFunction,ComponentPad*%
%ADD17RotRect,1.600000X1.600000X210.000000*%
%TD*%
%TA.AperFunction,ComponentPad*%
%ADD18HorizOval,1.600000X0.000000X0.000000X0.000000X0.000000X0*%
%TD*%
%TA.AperFunction,ComponentPad*%
%ADD19C,1.600000*%
%TD*%
%TA.AperFunction,ComponentPad*%
%ADD20HorizOval,1.600000X0.000000X0.000000X0.000000X0.000000X0*%
%TD*%
%TA.AperFunction,Conductor*%
%ADD21C,1.000000*%
%TD*%
%TA.AperFunction,Conductor*%
%ADD22C,0.250000*%
%TD*%
G04 APERTURE END LIST*
D10*
%TO.P,Vmot1,2,2*%
%TO.N,Vmot*%
X74065064Y-47285000D03*
%TO.P,Vmot1,1,1*%
%TO.N,GND*%
X71900000Y-48535000D03*
%TD*%
D11*
%TO.P,PAA5160E1,1,1*%
%TO.N,SCL*%
X101655875Y-113396868D03*
%TO.P,PAA5160E1,2,2*%
%TO.N,SDA*%
X103387925Y-112396868D03*
%TO.P,PAA5160E1,3,3*%
%TO.N,3.3V*%
X105119977Y-111396868D03*
%TO.P,PAA5160E1,4,4*%
%TO.N,GND*%
X106852026Y-110396869D03*
%TD*%
D12*
%TO.P,U1,1,GPIO0*%
%TO.N,unconnected-(U1-GPIO0-Pad1)*%
X145990000Y-119865000D03*
%TO.P,U1,2,GPIO1*%
%TO.N,unconnected-(U1-GPIO1-Pad2)*%
X145990000Y-117325000D03*
D13*
%TO.P,U1,3,GND*%
%TO.N,unconnected-(U1-GND-Pad3)*%
X145990000Y-114785000D03*
D12*
%TO.P,U1,4,GPIO2*%
%TO.N,unconnected-(U1-GPIO2-Pad4)*%
X145990000Y-112245000D03*
%TO.P,U1,5,GPIO3*%
%TO.N,unconnected-(U1-GPIO3-Pad5)*%
X145990000Y-109705000D03*
%TO.P,U1,6,GPIO4*%
%TO.N,SDA*%
X145990000Y-107165000D03*
%TO.P,U1,7,GPIO5*%
%TO.N,SCL*%
X145990000Y-104625000D03*
D13*
%TO.P,U1,8,GND*%
%TO.N,unconnected-(U1-GND-Pad8)*%
X145990000Y-102085000D03*
D12*
%TO.P,U1,9,GPIO6*%
%TO.N,En1*%
X145990000Y-99545000D03*
%TO.P,U1,10,GPIO7*%
%TO.N,STEP1*%
X145990000Y-97005000D03*
%TO.P,U1,11,GPIO8*%
%TO.N,DIR1*%
X145990000Y-94465000D03*
%TO.P,U1,12,GPIO9*%
%TO.N,En2*%
X145990000Y-91925000D03*
D13*
%TO.P,U1,13,GND*%
%TO.N,unconnected-(U1-GND-Pad13)*%
X145990000Y-89385000D03*
D12*
%TO.P,U1,14,GPIO10*%
%TO.N,STEP2*%
X145990000Y-86845000D03*
%TO.P,U1,15,GPIO11*%
%TO.N,DIR2*%
X145990000Y-84305000D03*
%TO.P,U1,16,GPIO12*%
%TO.N,En3*%
X145990000Y-81765000D03*
%TO.P,U1,17,GPIO13*%
%TO.N,STEP3*%
X145990000Y-79225000D03*
D13*
%TO.P,U1,18,GND*%
%TO.N,unconnected-(U1-GND-Pad18)*%
X145990000Y-76685000D03*
D12*
%TO.P,U1,19,GPIO14*%
%TO.N,DIR3*%
X145990000Y-74145000D03*
%TO.P,U1,20,GPIO15*%
%TO.N,unconnected-(U1-GPIO15-Pad20)*%
X145990000Y-71605000D03*
%TO.P,U1,21,GPIO16*%
%TO.N,Int31*%
X128210000Y-71605000D03*
%TO.P,U1,22,GPIO17*%
%TO.N,Int32*%
X128210000Y-74145000D03*
D13*
%TO.P,U1,23,GND*%
%TO.N,unconnected-(U1-GND-Pad23)*%
X128210000Y-76685000D03*
D12*
%TO.P,U1,24,GPIO18*%
%TO.N,Int21*%
X128210000Y-79225000D03*
%TO.P,U1,25,GPIO19*%
%TO.N,Int22*%
X128210000Y-81765000D03*
%TO.P,U1,26,GPIO20*%
%TO.N,Int11*%
X128210000Y-84305000D03*
%TO.P,U1,27,GPIO21*%
%TO.N,Int12*%
X128210000Y-86845000D03*
D13*
%TO.P,U1,28,GND*%
%TO.N,unconnected-(U1-GND-Pad28)*%
X128210000Y-89385000D03*
D12*
%TO.P,U1,29,GPIO22*%
%TO.N,unconnected-(U1-GPIO22-Pad29)*%
X128210000Y-91925000D03*
%TO.P,U1,30,RUN*%
%TO.N,unconnected-(U1-RUN-Pad30)*%
X128210000Y-94465000D03*
%TO.P,U1,31,GPIO26_ADC0*%
%TO.N,unconnected-(U1-GPIO26_ADC0-Pad31)*%
X128210000Y-97005000D03*
%TO.P,U1,32,GPIO27_ADC1*%
%TO.N,unconnected-(U1-GPIO27_ADC1-Pad32)*%
X128210000Y-99545000D03*
D13*
%TO.P,U1,33,AGND*%
%TO.N,unconnected-(U1-AGND-Pad33)*%
X128210000Y-102085000D03*
D12*
%TO.P,U1,34,GPIO28_ADC2*%
%TO.N,unconnected-(U1-GPIO28_ADC2-Pad34)*%
X128210000Y-104625000D03*
%TO.P,U1,35,ADC_VREF*%
%TO.N,unconnected-(U1-ADC_VREF-Pad35)*%
X128210000Y-107165000D03*
%TO.P,U1,36,3V3*%
%TO.N,3.3V*%
X128210000Y-109705000D03*
%TO.P,U1,37,3V3_EN*%
%TO.N,unconnected-(U1-3V3_EN-Pad37)*%
X128210000Y-112245000D03*
D13*
%TO.P,U1,38,GND*%
%TO.N,GND*%
X128210000Y-114785000D03*
D12*
%TO.P,U1,39,VSYS*%
%TO.N,unconnected-(U1-VSYS-Pad39)*%
X128210000Y-117325000D03*
%TO.P,U1,40,VBUS*%
%TO.N,unconnected-(U1-VBUS-Pad40)*%
X128210000Y-119865000D03*
%TO.P,U1,41,SWCLK*%
%TO.N,unconnected-(U1-SWCLK-Pad41)*%
X139640000Y-71835000D03*
D13*
%TO.P,U1,42,GND*%
%TO.N,unconnected-(U1-GND-Pad42)*%
X137100000Y-71835000D03*
D12*
%TO.P,U1,43,SWDIO*%
%TO.N,unconnected-(U1-SWDIO-Pad43)*%
X134560000Y-71835000D03*
%TD*%
D14*
%TO.P,Limit_switch_3,1,1*%
%TO.N,3.3V*%
X110317949Y-67238064D03*
%TO.P,Limit_switch_3,2,2*%
%TO.N,Int31*%
X112050001Y-68238064D03*
%TO.P,Limit_switch_3,3,3*%
%TO.N,Int32*%
X113782051Y-69238064D03*
%TD*%
D15*
%TO.P,Switch31,1,K*%
%TO.N,Net-(Switch31-K)*%
X48529969Y-139528479D03*
D16*
%TO.P,Switch31,2,A*%
%TO.N,Net-(Switch31-A)*%
X50729674Y-140798479D03*
%TD*%
D17*
%TO.P,A1,1,GND*%
%TO.N,unconnected-(A1-GND-Pad1)*%
X46765000Y-57507932D03*
D18*
%TO.P,A1,2,VDD*%
%TO.N,unconnected-(A1-VDD-Pad2)*%
X45495000Y-55308227D03*
%TO.P,A1,3,1B*%
%TO.N,unconnected-(A1-1B-Pad3)*%
X44225000Y-53108523D03*
%TO.P,A1,4,1A*%
%TO.N,unconnected-(A1-1A-Pad4)*%
X42955000Y-50908818D03*
%TO.P,A1,5,2A*%
%TO.N,unconnected-(A1-2A-Pad5)*%
X41685000Y-48709114D03*
%TO.P,A1,6,2B*%
%TO.N,unconnected-(A1-2B-Pad6)*%
X40415000Y-46509409D03*
%TO.P,A1,7,GND*%
%TO.N,GND*%
X39145000Y-44309705D03*
%TO.P,A1,8,VMOT*%
%TO.N,Vmot*%
X37875000Y-42110000D03*
%TO.P,A1,9,~{ENABLE}*%
%TO.N,En1*%
X26876477Y-48460000D03*
%TO.P,A1,10,MS1*%
%TO.N,unconnected-(A1-MS1-Pad10)*%
X28146477Y-50659705D03*
%TO.P,A1,11,MS2*%
%TO.N,unconnected-(A1-MS2-Pad11)*%
X29416477Y-52859409D03*
%TO.P,A1,12,MS3*%
%TO.N,unconnected-(A1-MS3-Pad12)*%
X30686477Y-55059114D03*
%TO.P,A1,13,~{RESET}*%
%TO.N,unconnected-(A1-~{RESET}-Pad13)*%
X31956477Y-57258818D03*
%TO.P,A1,14,~{SLEEP}*%
%TO.N,unconnected-(A1-~{SLEEP}-Pad14)*%
X33226477Y-59458523D03*
%TO.P,A1,15,STEP*%
%TO.N,STEP1*%
X34496477Y-61658227D03*
%TO.P,A1,16,DIR*%
%TO.N,DIR1*%
X35766477Y-63857932D03*
%TD*%
D19*
%TO.P,R1,1*%
%TO.N,3.3V*%
X60090000Y-133440000D03*
D20*
%TO.P,R1,2*%
%TO.N,Net-(Switch22-A)*%
X56280000Y-140039114D03*
%TD*%
D17*
%TO.P,A3,1,GND*%
%TO.N,unconnected-(A3-GND-Pad1)*%
X75840000Y-40707932D03*
D18*
%TO.P,A3,2,VDD*%
%TO.N,unconnected-(A3-VDD-Pad2)*%
X74570000Y-38508227D03*
%TO.P,A3,3,1B*%
%TO.N,unconnected-(A3-1B-Pad3)*%
X73300000Y-36308523D03*
%TO.P,A3,4,1A*%
%TO.N,unconnected-(A3-1A-Pad4)*%
X72030000Y-34108818D03*
%TO.P,A3,5,2A*%
%TO.N,unconnected-(A3-2A-Pad5)*%
X70760000Y-31909114D03*
%TO.P,A3,6,2B*%
%TO.N,unconnected-(A3-2B-Pad6)*%
X69490000Y-29709409D03*
%TO.P,A3,7,GND*%
%TO.N,GND*%
X68220000Y-27509705D03*
%TO.P,A3,8,VMOT*%
%TO.N,Vmot*%
X66950000Y-25310000D03*
%TO.P,A3,9,~{ENABLE}*%
%TO.N,En3*%
X55951477Y-31660000D03*
%TO.P,A3,10,MS1*%
%TO.N,unconnected-(A3-MS1-Pad10)*%
X57221477Y-33859705D03*
%TO.P,A3,11,MS2*%
%TO.N,unconnected-(A3-MS2-Pad11)*%
X58491477Y-36059409D03*
%TO.P,A3,12,MS3*%
%TO.N,unconnected-(A3-MS3-Pad12)*%
X59761477Y-38259114D03*
%TO.P,A3,13,~{RESET}*%
%TO.N,unconnected-(A3-~{RESET}-Pad13)*%
X61031477Y-40458818D03*
%TO.P,A3,14,~{SLEEP}*%
%TO.N,unconnected-(A3-~{SLEEP}-Pad14)*%
X62301477Y-42658523D03*
%TO.P,A3,15,STEP*%
%TO.N,STEP3*%
X63571477Y-44858227D03*
%TO.P,A3,16,DIR*%
%TO.N,DIR3*%
X64841477Y-47057932D03*
%TD*%
D20*
%TO.P,R2,2*%
%TO.N,Net-(Switch21-A)*%
X62204998Y-143249558D03*
D19*
%TO.P,R2,1*%
%TO.N,3.3V*%
X66014998Y-136650444D03*
%TD*%
D17*
%TO.P,A2,1,GND*%
%TO.N,unconnected-(A2-GND-Pad1)*%
X61308523Y-49112932D03*
D18*
%TO.P,A2,2,VDD*%
%TO.N,unconnected-(A2-VDD-Pad2)*%
X60038523Y-46913227D03*
%TO.P,A2,3,1B*%
%TO.N,unconnected-(A2-1B-Pad3)*%
X58768523Y-44713523D03*
%TO.P,A2,4,1A*%
%TO.N,unconnected-(A2-1A-Pad4)*%
X57498523Y-42513818D03*
%TO.P,A2,5,2A*%
%TO.N,unconnected-(A2-2A-Pad5)*%
X56228523Y-40314114D03*
%TO.P,A2,6,2B*%
%TO.N,unconnected-(A2-2B-Pad6)*%
X54958523Y-38114409D03*
%TO.P,A2,7,GND*%
%TO.N,GND*%
X53688523Y-35914705D03*
%TO.P,A2,8,VMOT*%
%TO.N,Vmot*%
X52418523Y-33715000D03*
%TO.P,A2,9,~{ENABLE}*%
%TO.N,En2*%
X41420000Y-40065000D03*
%TO.P,A2,10,MS1*%
%TO.N,unconnected-(A2-MS1-Pad10)*%
X42690000Y-42264705D03*
%TO.P,A2,11,MS2*%
%TO.N,unconnected-(A2-MS2-Pad11)*%
X43960000Y-44464409D03*
%TO.P,A2,12,MS3*%
%TO.N,unconnected-(A2-MS3-Pad12)*%
X45230000Y-46664114D03*
%TO.P,A2,13,~{RESET}*%
%TO.N,unconnected-(A2-~{RESET}-Pad13)*%
X46500000Y-48863818D03*
%TO.P,A2,14,~{SLEEP}*%
%TO.N,unconnected-(A2-~{SLEEP}-Pad14)*%
X47770000Y-51063523D03*
%TO.P,A2,15,STEP*%
%TO.N,STEP2*%
X49040000Y-53263227D03*
%TO.P,A2,16,DIR*%
%TO.N,DIR2*%
X50310000Y-55462932D03*
%TD*%
D19*
%TO.P,R4,1*%
%TO.N,3.3V*%
X54190000Y-130110000D03*
D20*
%TO.P,R4,2*%
%TO.N,Net-(Switch31-A)*%
X50380000Y-136709114D03*
%TD*%
D15*
%TO.P,Switch22,1,K*%
%TO.N,Net-(Switch22-K)*%
X54379969Y-142868479D03*
D16*
%TO.P,Switch22,2,A*%
%TO.N,Net-(Switch22-A)*%
X56579674Y-144138479D03*
%TD*%
D14*
%TO.P,Limit_switch_1,1,1*%
%TO.N,3.3V*%
X41697948Y-65285001D03*
%TO.P,Limit_switch_1,2,2*%
%TO.N,Int11*%
X43430000Y-64285000D03*
%TO.P,Limit_switch_1,3,3*%
%TO.N,Int12*%
X45162050Y-63285001D03*
%TD*%
D19*
%TO.P,R6,1*%
%TO.N,3.3V*%
X42920000Y-124060000D03*
D20*
%TO.P,R6,2*%
%TO.N,Net-(Switch11-A)*%
X39110000Y-130659114D03*
%TD*%
D15*
%TO.P,Switch12,1,K*%
%TO.N,Net-(Switch12-K)*%
X31939969Y-130188479D03*
D16*
%TO.P,Switch12,2,A*%
%TO.N,Net-(Switch12-A)*%
X34139674Y-131458479D03*
%TD*%
D19*
%TO.P,R3,1*%
%TO.N,3.3V*%
X48475000Y-126990444D03*
D20*
%TO.P,R3,2*%
%TO.N,Net-(Switch32-A)*%
X44665000Y-133589558D03*
%TD*%
D14*
%TO.P,Limit_switch_2,1,1*%
%TO.N,3.3V*%
X68746936Y-160122949D03*
%TO.P,Limit_switch_2,2,2*%
%TO.N,Int21*%
X67746935Y-161855001D03*
%TO.P,Limit_switch_2,3,3*%
%TO.N,Int22*%
X66746936Y-163587051D03*
%TD*%
D15*
%TO.P,Switch21,1,K*%
%TO.N,Net-(Switch21-K)*%
X60269969Y-146228479D03*
D16*
%TO.P,Switch21,2,A*%
%TO.N,Net-(Switch21-A)*%
X62469674Y-147498479D03*
%TD*%
D15*
%TO.P,Switch32,1,K*%
%TO.N,Net-(Switch32-K)*%
X42880295Y-136360000D03*
D16*
%TO.P,Switch32,2,A*%
%TO.N,Net-(Switch32-A)*%
X45080000Y-137630000D03*
%TD*%
D15*
%TO.P,Switch11,1,K*%
%TO.N,Net-(Switch11-K)*%
X37349969Y-133218479D03*
D16*
%TO.P,Switch11,2,A*%
%TO.N,Net-(Switch11-A)*%
X39549674Y-134488479D03*
%TD*%
D19*
%TO.P,R5,1*%
%TO.N,3.3V*%
X37400000Y-120960000D03*
D20*
%TO.P,R5,2*%
%TO.N,Net-(Switch12-A)*%
X33590000Y-127559114D03*
%TD*%
D21*
%TO.N,3.3V*%
X66014998Y-136650444D02*
X68289253Y-134376189D01*
X68289253Y-134376189D02*
X77530000Y-134376189D01*
X77530000Y-134376189D02*
X80460000Y-134239989D01*
X37400000Y-120960000D02*
X66014998Y-136650444D01*
D22*
%TO.N,En2*%
X145990000Y-91925000D02*
X142040000Y-91925000D01*
X72150000Y-57310000D02*
X68100000Y-53260000D01*
X97750000Y-67780000D02*
X95570000Y-66510000D01*
X92000000Y-68510000D02*
X72150000Y-57310000D01*
X51470000Y-53260000D02*
X44060000Y-40450000D01*
X44060000Y-40450000D02*
X41420000Y-40065000D01*
X97670000Y-71660000D02*
X97750000Y-67780000D01*
X117125000Y-83035000D02*
X97670000Y-71660000D01*
X142040000Y-91925000D02*
X133150000Y-83035000D01*
X68100000Y-53260000D02*
X51470000Y-53260000D01*
X95570000Y-66510000D02*
X92000000Y-68510000D01*
X133150000Y-83035000D02*
X117125000Y-83035000D01*
%TO.N,En3*%
X79275000Y-51885000D02*
X65350000Y-51885000D01*
X145990000Y-81765000D02*
X140165000Y-81765000D01*
X140165000Y-81765000D02*
X133810000Y-75410000D01*
X55100000Y-34310000D02*
X55951477Y-31660000D01*
X119950000Y-75410000D02*
X79275000Y-51885000D01*
X133810000Y-75410000D02*
X119950000Y-75410000D01*
X65350000Y-51885000D02*
X55100000Y-34310000D01*
%TO.N,STEP3*%
X139135000Y-79225000D02*
X130110000Y-70200000D01*
X65600000Y-51400000D02*
X63571477Y-47942262D01*
X145990000Y-79225000D02*
X139135000Y-79225000D01*
X63571477Y-47942262D02*
X63571477Y-44858227D01*
X130110000Y-70200000D02*
X121077345Y-70200000D01*
X121077345Y-70200000D02*
X111560000Y-64810000D01*
X79338943Y-51402139D02*
X65600000Y-51400000D01*
X111560000Y-64810000D02*
X101923608Y-64366392D01*
X101923608Y-64366392D02*
X79338943Y-51402139D01*
%TO.N,DIR3*%
X134895000Y-74145000D02*
X145990000Y-74145000D01*
X88430000Y-50320000D02*
X122000000Y-69615000D01*
X122000000Y-69615000D02*
X130365000Y-69615000D01*
X64841477Y-47057932D02*
X66690000Y-50320000D01*
X130365000Y-69615000D02*
X134895000Y-74145000D01*
X66690000Y-50320000D02*
X88430000Y-50320000D01*
%TO.N,3.3V*%
X139630000Y-80470000D02*
X132130000Y-72970000D01*
D21*
X113180000Y-115440000D02*
X80890000Y-134220001D01*
D22*
X147610000Y-82300000D02*
X147610000Y-81360000D01*
X144066701Y-90690000D02*
X133836701Y-80460000D01*
X128210000Y-109705000D02*
X136555000Y-109705000D01*
X127140000Y-77950000D02*
X135520000Y-77950000D01*
X126780000Y-78310000D02*
X127140000Y-77950000D01*
X146720000Y-80470000D02*
X139630000Y-80470000D01*
X126780000Y-80130000D02*
X126780000Y-78310000D01*
X110320000Y-69250000D02*
X110317949Y-67238064D01*
D21*
X118790000Y-115450000D02*
X113180000Y-115440000D01*
D22*
X116700000Y-72970000D02*
X110320000Y-69250000D01*
X132130000Y-72970000D02*
X116700000Y-72970000D01*
D21*
X80460000Y-134239989D02*
X80890000Y-134220001D01*
D22*
X77780000Y-147590000D02*
X77780000Y-135310000D01*
X52260000Y-124030000D02*
X71130000Y-134673690D01*
X52260000Y-117600000D02*
X52260000Y-124030000D01*
D21*
X128210000Y-109705000D02*
X124535000Y-109705000D01*
D22*
X41697948Y-65285001D02*
X41697948Y-107037948D01*
X78850011Y-134239989D02*
X80460000Y-134239989D01*
X77780000Y-135310000D02*
X78850011Y-134239989D01*
X146520000Y-108450000D02*
X147490000Y-107480000D01*
X146730000Y-90690000D02*
X144066701Y-90690000D01*
X147490000Y-107480000D02*
X147490000Y-91450000D01*
X70480000Y-160210000D02*
X77780000Y-147590000D01*
X136555000Y-109705000D02*
X137810000Y-108450000D01*
X146850000Y-83060000D02*
X147610000Y-82300000D01*
D21*
X124535000Y-109705000D02*
X118790000Y-115450000D01*
D22*
X137810000Y-108450000D02*
X146520000Y-108450000D01*
X41697948Y-107037948D02*
X52260000Y-117600000D01*
X127110000Y-80460000D02*
X126780000Y-80130000D01*
X135520000Y-77950000D02*
X140630000Y-83060000D01*
X140630000Y-83060000D02*
X146850000Y-83060000D01*
X147490000Y-91450000D02*
X146730000Y-90690000D01*
X133836701Y-80460000D02*
X127110000Y-80460000D01*
X68746936Y-160122949D02*
X70480000Y-160210000D01*
X147610000Y-81360000D02*
X146720000Y-80470000D01*
%TO.N,SDA*%
X120880000Y-110375000D02*
X122820000Y-108435000D01*
X137550000Y-107165000D02*
X145990000Y-107165000D01*
X111560000Y-113835000D02*
X115020000Y-110375000D01*
X122820000Y-108435000D02*
X136280000Y-108435000D01*
X104826057Y-113835000D02*
X111560000Y-113835000D01*
X115020000Y-110375000D02*
X120880000Y-110375000D01*
X136280000Y-108435000D02*
X137550000Y-107165000D01*
X103387925Y-112396868D02*
X104826057Y-113835000D01*
%TO.N,Int11*%
X48580000Y-63988099D02*
X63690000Y-55440000D01*
X43870000Y-64725000D02*
X48580000Y-63988099D01*
X122859150Y-86740000D02*
X124224150Y-88105000D01*
X124224150Y-88105000D02*
X129200000Y-88105000D01*
X70320000Y-60495000D02*
X70320000Y-60505000D01*
X122840443Y-86758707D02*
X122859150Y-86740000D01*
X115041293Y-86758707D02*
X122840443Y-86758707D01*
X128700000Y-84305000D02*
X128210000Y-84305000D01*
X129720000Y-85325000D02*
X128700000Y-84305000D01*
X63690000Y-55440000D02*
X65270000Y-55440000D01*
X43430000Y-64285000D02*
X43870000Y-64725000D01*
X65270000Y-55440000D02*
X70320000Y-60495000D01*
X129200000Y-88105000D02*
X129720000Y-87585000D01*
X129720000Y-87585000D02*
X129720000Y-85325000D01*
X70320000Y-60505000D02*
X115041293Y-86758707D01*
%TO.N,Int12*%
X45162050Y-63285001D02*
X49950000Y-62690000D01*
X127655000Y-86290000D02*
X128210000Y-86845000D01*
X116260000Y-86290000D02*
X127655000Y-86290000D01*
X66380000Y-54980000D02*
X70890000Y-59495000D01*
X70890000Y-59495000D02*
X116260000Y-86290000D01*
X49950000Y-62690000D02*
X63570000Y-54980000D01*
X63570000Y-54980000D02*
X66380000Y-54980000D01*
%TO.N,Int21*%
X147320000Y-110970000D02*
X147980000Y-110310000D01*
X109980000Y-118590000D02*
X137793299Y-118590000D01*
X145413299Y-110970000D02*
X147320000Y-110970000D01*
X67746935Y-161855001D02*
X70694999Y-161855001D01*
X147560000Y-85570000D02*
X142335000Y-85570000D01*
X78890000Y-147800000D02*
X78890000Y-136360000D01*
X70694999Y-161855001D02*
X78890000Y-147800000D01*
X78890000Y-136360000D02*
X109980000Y-118590000D01*
X135990000Y-79225000D02*
X128210000Y-79225000D01*
X147980000Y-85990000D02*
X147560000Y-85570000D01*
X142335000Y-85570000D02*
X135990000Y-79225000D01*
X137793299Y-118590000D02*
X145413299Y-110970000D01*
X147980000Y-110310000D02*
X147980000Y-85990000D01*
%TO.N,Int31*%
X112823065Y-67465000D02*
X112050001Y-68238064D01*
X128210000Y-71605000D02*
X122675000Y-71610000D01*
X115270000Y-67465000D02*
X112823065Y-67465000D01*
X122675000Y-71610000D02*
X115270000Y-67465000D01*
%TD*%
M02*
