<?xml version="1.0" encoding="UTF-8" standalone="no"?>
<!-- Created with Inkscape (http://www.inkscape.org/) -->

<svg
   width="7.048151mm"
   height="7.057034mm"
   viewBox="0 0 7.048151 7.057034"
   version="1.1"
   id="svg1"
   xml:space="preserve"
   inkscape:version="1.3.2 (091e20e, 2023-11-25)"
   sodipodi:docname="BAU_logo.svg"
   xmlns:inkscape="http://www.inkscape.org/namespaces/inkscape"
   xmlns:sodipodi="http://sodipodi.sourceforge.net/DTD/sodipodi-0.dtd"
   xmlns="http://www.w3.org/2000/svg"
   xmlns:svg="http://www.w3.org/2000/svg"><sodipodi:namedview
     id="namedview1"
     pagecolor="#ffffff"
     bordercolor="#666666"
     borderopacity="1.0"
     inkscape:showpageshadow="2"
     inkscape:pageopacity="0.0"
     inkscape:pagecheckerboard="0"
     inkscape:deskcolor="#d1d1d1"
     inkscape:document-units="mm"
     inkscape:zoom="16.448685"
     inkscape:cx="11.642268"
     inkscape:cy="21.886249"
     inkscape:window-width="925"
     inkscape:window-height="1016"
     inkscape:window-x="26"
     inkscape:window-y="23"
     inkscape:window-maximized="0"
     inkscape:current-layer="g2054" /><defs
     id="defs1" /><g
     inkscape:label="Calque 1"
     inkscape:groupmode="layer"
     id="layer1"
     transform="translate(-36.44335,-29.996512)"><g
       style="fill:#000000;fill-opacity:1;stroke:#000000;stroke-linecap:round;stroke-linejoin:round;stroke-opacity:1"
       id="g6"
       transform="matrix(9.9999998e-7,0,0,9.9999998e-7,-51.945364,34.490137)" /><g
       style="fill:#000000;fill-opacity:0;stroke:#000000;stroke-width:0;stroke-linecap:round;stroke-linejoin:round;stroke-opacity:1"
       id="g8"
       transform="matrix(9.9999998e-7,0,0,9.9999998e-7,-51.945364,34.490137)" /><g
       style="fill:#000000;fill-opacity:0;stroke:#000000;stroke-width:1;stroke-linecap:round;stroke-linejoin:round;stroke-opacity:1"
       id="g10"
       transform="matrix(9.9999998e-7,0,0,9.9999998e-7,-51.945364,34.490137)" /><g
       style="fill:#000000;fill-opacity:1;stroke:#000000;stroke-width:300000;stroke-linecap:round;stroke-linejoin:round;stroke-opacity:1"
       id="g22"
       transform="matrix(9.9999998e-7,0,0,9.9999998e-7,-51.945364,34.490137)" /><g
       style="fill:#ffffff;fill-opacity:1;stroke:#ffffff;stroke-width:21200;stroke-linecap:round;stroke-linejoin:round;stroke-opacity:1"
       id="g606"
       transform="matrix(9.9999998e-7,0,0,9.9999998e-7,-51.945364,34.490137)" /><g
       style="fill:#ffffff;fill-opacity:1;stroke:#ffffff;stroke-width:21200;stroke-linecap:round;stroke-linejoin:round;stroke-opacity:1"
       id="g612"
       transform="matrix(9.9999998e-7,0,0,9.9999998e-7,-51.945364,34.490137)" /><g
       style="fill:#ffffff;fill-opacity:1;stroke:#ffffff;stroke-width:21200;stroke-linecap:round;stroke-linejoin:round;stroke-opacity:1"
       id="g618"
       transform="matrix(9.9999998e-7,0,0,9.9999998e-7,-51.945364,34.490137)" /><g
       style="fill:#ffffff;fill-opacity:1;stroke:#ffffff;stroke-width:21200;stroke-linecap:round;stroke-linejoin:round;stroke-opacity:1"
       id="g624"
       transform="matrix(9.9999998e-7,0,0,9.9999998e-7,-51.945364,34.490137)" /><g
       style="fill:#ffffff;fill-opacity:1;stroke:#ffffff;stroke-width:21200;stroke-linecap:round;stroke-linejoin:round;stroke-opacity:1"
       id="g630"
       transform="matrix(9.9999998e-7,0,0,9.9999998e-7,-51.945364,34.490137)" /><g
       style="fill:#ffffff;fill-opacity:1;stroke:#ffffff;stroke-width:21200;stroke-linecap:round;stroke-linejoin:round;stroke-opacity:1"
       id="g636"
       transform="matrix(9.9999998e-7,0,0,9.9999998e-7,-51.945364,34.490137)" /><g
       style="fill:#ffffff;fill-opacity:1;stroke:#ffffff;stroke-width:21200;stroke-linecap:round;stroke-linejoin:round;stroke-opacity:1"
       id="g642"
       transform="matrix(9.9999998e-7,0,0,9.9999998e-7,-51.945364,34.490137)" /><g
       style="fill:#ffffff;fill-opacity:1;stroke:#ffffff;stroke-width:21200;stroke-linecap:round;stroke-linejoin:round;stroke-opacity:1"
       id="g648"
       transform="matrix(9.9999998e-7,0,0,9.9999998e-7,-51.945364,34.490137)" /><g
       style="fill:#ffffff;fill-opacity:1;stroke:#ffffff;stroke-width:21200;stroke-linecap:round;stroke-linejoin:round;stroke-opacity:1"
       id="g654"
       transform="matrix(9.9999998e-7,0,0,9.9999998e-7,-51.945364,34.490137)" /><g
       style="fill:#ffffff;fill-opacity:1;stroke:#ffffff;stroke-width:21200;stroke-linecap:round;stroke-linejoin:round;stroke-opacity:1"
       id="g660"
       transform="matrix(9.9999998e-7,0,0,9.9999998e-7,-51.945364,34.490137)" /><g
       style="fill:#ffffff;fill-opacity:1;stroke:#ffffff;stroke-width:21200;stroke-linecap:round;stroke-linejoin:round;stroke-opacity:1"
       id="g666"
       transform="matrix(9.9999998e-7,0,0,9.9999998e-7,-51.945364,34.490137)" /><g
       style="fill:#ffffff;fill-opacity:1;stroke:#ffffff;stroke-width:21200;stroke-linecap:round;stroke-linejoin:round;stroke-opacity:1"
       id="g672"
       transform="matrix(9.9999998e-7,0,0,9.9999998e-7,-51.945364,34.490137)" /><g
       style="fill:#ffffff;fill-opacity:1;stroke:#ffffff;stroke-width:21200;stroke-linecap:round;stroke-linejoin:round;stroke-opacity:1"
       id="g678"
       transform="matrix(9.9999998e-7,0,0,9.9999998e-7,-51.945364,34.490137)" /><g
       style="fill:#ffffff;fill-opacity:1;stroke:#ffffff;stroke-width:21200;stroke-linecap:round;stroke-linejoin:round;stroke-opacity:1"
       id="g684"
       transform="matrix(9.9999998e-7,0,0,9.9999998e-7,-51.945364,34.490137)" /><g
       style="fill:#ffffff;fill-opacity:1;stroke:#ffffff;stroke-width:21200;stroke-linecap:round;stroke-linejoin:round;stroke-opacity:1"
       id="g690"
       transform="matrix(9.9999998e-7,0,0,9.9999998e-7,-51.945364,34.490137)" /><g
       style="fill:#ffffff;fill-opacity:1;stroke:#ffffff;stroke-width:21200;stroke-linecap:round;stroke-linejoin:round;stroke-opacity:1"
       id="g696"
       transform="matrix(9.9999998e-7,0,0,9.9999998e-7,-51.945364,34.490137)" /><g
       style="fill:#ffffff;fill-opacity:1;stroke:#ffffff;stroke-width:21200;stroke-linecap:round;stroke-linejoin:round;stroke-opacity:1"
       id="g702"
       transform="matrix(9.9999998e-7,0,0,9.9999998e-7,-51.945364,34.490137)" /><g
       style="fill:#ffffff;fill-opacity:1;stroke:#ffffff;stroke-width:21200;stroke-linecap:round;stroke-linejoin:round;stroke-opacity:1"
       id="g708"
       transform="matrix(9.9999998e-7,0,0,9.9999998e-7,-51.945364,34.490137)" /><g
       style="fill:#ffffff;fill-opacity:1;stroke:#ffffff;stroke-width:21200;stroke-linecap:round;stroke-linejoin:round;stroke-opacity:1"
       id="g714"
       transform="matrix(9.9999998e-7,0,0,9.9999998e-7,-51.945364,34.490137)" /><g
       style="fill:#ffffff;fill-opacity:1;stroke:#ffffff;stroke-width:21200;stroke-linecap:round;stroke-linejoin:round;stroke-opacity:1"
       id="g720"
       transform="matrix(9.9999998e-7,0,0,9.9999998e-7,-51.945364,34.490137)" /><g
       style="fill:#ffffff;fill-opacity:1;stroke:#ffffff;stroke-width:21200;stroke-linecap:round;stroke-linejoin:round;stroke-opacity:1"
       id="g726"
       transform="matrix(9.9999998e-7,0,0,9.9999998e-7,-51.945364,34.490137)" /><g
       style="fill:#ffffff;fill-opacity:1;stroke:#ffffff;stroke-width:21200;stroke-linecap:round;stroke-linejoin:round;stroke-opacity:1"
       id="g732"
       transform="matrix(9.9999998e-7,0,0,9.9999998e-7,-51.945364,34.490137)" /><g
       style="fill:#ffffff;fill-opacity:1;stroke:#ffffff;stroke-width:21200;stroke-linecap:round;stroke-linejoin:round;stroke-opacity:1"
       id="g738"
       transform="matrix(9.9999998e-7,0,0,9.9999998e-7,-51.945364,34.490137)" /><g
       style="fill:#ffffff;fill-opacity:1;stroke:#ffffff;stroke-width:21200;stroke-linecap:round;stroke-linejoin:round;stroke-opacity:1"
       id="g744"
       transform="matrix(9.9999998e-7,0,0,9.9999998e-7,-51.945364,34.490137)" /><g
       style="fill:#ffffff;fill-opacity:1;stroke:#ffffff;stroke-width:21200;stroke-linecap:round;stroke-linejoin:round;stroke-opacity:1"
       id="g750"
       transform="matrix(9.9999998e-7,0,0,9.9999998e-7,-51.945364,34.490137)" /><g
       style="fill:#ffffff;fill-opacity:1;stroke:#ffffff;stroke-width:21200;stroke-linecap:round;stroke-linejoin:round;stroke-opacity:1"
       id="g756"
       transform="matrix(9.9999998e-7,0,0,9.9999998e-7,-51.945364,34.490137)" /><g
       style="fill:#ffffff;fill-opacity:1;stroke:#ffffff;stroke-width:21200;stroke-linecap:round;stroke-linejoin:round;stroke-opacity:1"
       id="g762"
       transform="matrix(9.9999998e-7,0,0,9.9999998e-7,-51.945364,34.490137)" /><g
       style="fill:#ffffff;fill-opacity:1;stroke:#ffffff;stroke-width:21200;stroke-linecap:round;stroke-linejoin:round;stroke-opacity:1"
       id="g768"
       transform="matrix(9.9999998e-7,0,0,9.9999998e-7,-51.945364,34.490137)" /><g
       style="fill:#ffffff;fill-opacity:1;stroke:#ffffff;stroke-width:21200;stroke-linecap:round;stroke-linejoin:round;stroke-opacity:1"
       id="g774"
       transform="matrix(9.9999998e-7,0,0,9.9999998e-7,-51.945364,34.490137)" /><g
       style="fill:#ffffff;fill-opacity:1;stroke:#ffffff;stroke-width:21200;stroke-linecap:round;stroke-linejoin:round;stroke-opacity:1"
       id="g780"
       transform="matrix(9.9999998e-7,0,0,9.9999998e-7,-51.945364,34.490137)" /><g
       style="fill:#ffffff;fill-opacity:1;stroke:#ffffff;stroke-width:21200;stroke-linecap:round;stroke-linejoin:round;stroke-opacity:1"
       id="g786"
       transform="matrix(9.9999998e-7,0,0,9.9999998e-7,-51.945364,34.490137)" /><g
       style="fill:#ffffff;fill-opacity:1;stroke:#ffffff;stroke-width:21200;stroke-linecap:round;stroke-linejoin:round;stroke-opacity:1"
       id="g792"
       transform="matrix(9.9999998e-7,0,0,9.9999998e-7,-51.945364,34.490137)" /><g
       style="fill:#ffffff;fill-opacity:1;stroke:#ffffff;stroke-width:21200;stroke-linecap:round;stroke-linejoin:round;stroke-opacity:1"
       id="g798"
       transform="matrix(9.9999998e-7,0,0,9.9999998e-7,-51.945364,34.490137)" /><g
       style="fill:#ffffff;fill-opacity:1;stroke:#ffffff;stroke-width:21200;stroke-linecap:round;stroke-linejoin:round;stroke-opacity:1"
       id="g804"
       transform="matrix(9.9999998e-7,0,0,9.9999998e-7,-51.945364,34.490137)" /><g
       style="fill:#ffffff;fill-opacity:1;stroke:#ffffff;stroke-width:21200;stroke-linecap:round;stroke-linejoin:round;stroke-opacity:1"
       id="g810"
       transform="matrix(9.9999998e-7,0,0,9.9999998e-7,-51.945364,34.490137)" /><g
       style="fill:#ffffff;fill-opacity:1;stroke:#ffffff;stroke-width:21200;stroke-linecap:round;stroke-linejoin:round;stroke-opacity:1"
       id="g816"
       transform="matrix(9.9999998e-7,0,0,9.9999998e-7,-51.945364,34.490137)" /><g
       style="fill:#ffffff;fill-opacity:1;stroke:#ffffff;stroke-width:21200;stroke-linecap:round;stroke-linejoin:round;stroke-opacity:1"
       id="g822"
       transform="matrix(9.9999998e-7,0,0,9.9999998e-7,-51.945364,34.490137)" /><g
       style="fill:#ffffff;fill-opacity:1;stroke:#ffffff;stroke-width:21200;stroke-linecap:round;stroke-linejoin:round;stroke-opacity:1"
       id="g828"
       transform="matrix(9.9999998e-7,0,0,9.9999998e-7,-51.945364,34.490137)" /><g
       style="fill:#ffffff;fill-opacity:1;stroke:#ffffff;stroke-width:21200;stroke-linecap:round;stroke-linejoin:round;stroke-opacity:1"
       id="g834"
       transform="matrix(9.9999998e-7,0,0,9.9999998e-7,-51.945364,34.490137)" /><g
       style="fill:#ffffff;fill-opacity:1;stroke:#ffffff;stroke-width:21200;stroke-linecap:round;stroke-linejoin:round;stroke-opacity:1"
       id="g840"
       transform="matrix(9.9999998e-7,0,0,9.9999998e-7,-51.945364,34.490137)" /><g
       style="fill:#ffffff;fill-opacity:1;stroke:#ffffff;stroke-width:21200;stroke-linecap:round;stroke-linejoin:round;stroke-opacity:1"
       id="g846"
       transform="matrix(9.9999998e-7,0,0,9.9999998e-7,-51.945364,34.490137)" /><g
       style="fill:#ffffff;fill-opacity:1;stroke:#ffffff;stroke-width:21200;stroke-linecap:round;stroke-linejoin:round;stroke-opacity:1"
       id="g852"
       transform="matrix(9.9999998e-7,0,0,9.9999998e-7,-51.945364,34.490137)" /><g
       style="fill:#ffffff;fill-opacity:1;stroke:#ffffff;stroke-width:21200;stroke-linecap:round;stroke-linejoin:round;stroke-opacity:1"
       id="g858"
       transform="matrix(9.9999998e-7,0,0,9.9999998e-7,-51.945364,34.490137)" /><g
       style="fill:#ffffff;fill-opacity:1;stroke:#ffffff;stroke-width:21200;stroke-linecap:round;stroke-linejoin:round;stroke-opacity:1"
       id="g864"
       transform="matrix(9.9999998e-7,0,0,9.9999998e-7,-51.945364,34.490137)" /><g
       style="fill:#ffffff;fill-opacity:1;stroke:#ffffff;stroke-width:21200;stroke-linecap:round;stroke-linejoin:round;stroke-opacity:1"
       id="g870"
       transform="matrix(9.9999998e-7,0,0,9.9999998e-7,-51.945364,34.490137)" /><g
       style="fill:#ffffff;fill-opacity:1;stroke:#ffffff;stroke-width:21200;stroke-linecap:round;stroke-linejoin:round;stroke-opacity:1"
       id="g876"
       transform="matrix(9.9999998e-7,0,0,9.9999998e-7,-51.945364,34.490137)" /><g
       style="fill:#ffffff;fill-opacity:1;stroke:#ffffff;stroke-width:21200;stroke-linecap:round;stroke-linejoin:round;stroke-opacity:1"
       id="g882"
       transform="matrix(9.9999998e-7,0,0,9.9999998e-7,-51.945364,34.490137)" /><g
       style="fill:#ffffff;fill-opacity:1;stroke:#ffffff;stroke-width:21200;stroke-linecap:round;stroke-linejoin:round;stroke-opacity:1"
       id="g888"
       transform="matrix(9.9999998e-7,0,0,9.9999998e-7,-51.945364,34.490137)" /><g
       style="fill:#ffffff;fill-opacity:1;stroke:#ffffff;stroke-width:21200;stroke-linecap:round;stroke-linejoin:round;stroke-opacity:1"
       id="g894"
       transform="matrix(9.9999998e-7,0,0,9.9999998e-7,-51.945364,34.490137)" /><g
       style="fill:#ffffff;fill-opacity:1;stroke:#ffffff;stroke-width:21200;stroke-linecap:round;stroke-linejoin:round;stroke-opacity:1"
       id="g900"
       transform="matrix(9.9999998e-7,0,0,9.9999998e-7,-51.945364,34.490137)" /><g
       style="fill:#ffffff;fill-opacity:1;stroke:#ffffff;stroke-width:21200;stroke-linecap:round;stroke-linejoin:round;stroke-opacity:1"
       id="g906"
       transform="matrix(9.9999998e-7,0,0,9.9999998e-7,-51.945364,34.490137)" /><g
       style="fill:#ffffff;fill-opacity:1;stroke:#ffffff;stroke-width:21200;stroke-linecap:round;stroke-linejoin:round;stroke-opacity:1"
       id="g912"
       transform="matrix(9.9999998e-7,0,0,9.9999998e-7,-51.945364,34.490137)" /><g
       style="fill:#ffffff;fill-opacity:1;stroke:#ffffff;stroke-width:21200;stroke-linecap:round;stroke-linejoin:round;stroke-opacity:1"
       id="g918"
       transform="matrix(9.9999998e-7,0,0,9.9999998e-7,-51.945364,34.490137)" /><g
       style="fill:#ffffff;fill-opacity:1;stroke:#ffffff;stroke-width:21200;stroke-linecap:round;stroke-linejoin:round;stroke-opacity:1"
       id="g924"
       transform="matrix(9.9999998e-7,0,0,9.9999998e-7,-51.945364,34.490137)" /><g
       style="fill:#ffffff;fill-opacity:1;stroke:#ffffff;stroke-width:21200;stroke-linecap:round;stroke-linejoin:round;stroke-opacity:1"
       id="g930"
       transform="matrix(9.9999998e-7,0,0,9.9999998e-7,-51.945364,34.490137)" /><g
       style="fill:#ffffff;fill-opacity:1;stroke:#ffffff;stroke-width:21200;stroke-linecap:round;stroke-linejoin:round;stroke-opacity:1"
       id="g936"
       transform="matrix(9.9999998e-7,0,0,9.9999998e-7,-51.945364,34.490137)" /><g
       style="fill:#ffffff;fill-opacity:1;stroke:#ffffff;stroke-width:21200;stroke-linecap:round;stroke-linejoin:round;stroke-opacity:1"
       id="g942"
       transform="matrix(9.9999998e-7,0,0,9.9999998e-7,-51.945364,34.490137)" /><g
       style="fill:#ffffff;fill-opacity:1;stroke:#ffffff;stroke-width:21200;stroke-linecap:round;stroke-linejoin:round;stroke-opacity:1"
       id="g948"
       transform="matrix(9.9999998e-7,0,0,9.9999998e-7,-51.945364,34.490137)" /><g
       style="fill:#ffffff;fill-opacity:1;stroke:#ffffff;stroke-width:21200;stroke-linecap:round;stroke-linejoin:round;stroke-opacity:1"
       id="g954"
       transform="matrix(9.9999998e-7,0,0,9.9999998e-7,-51.945364,34.490137)" /><g
       style="fill:#ffffff;fill-opacity:1;stroke:#ffffff;stroke-width:21200;stroke-linecap:round;stroke-linejoin:round;stroke-opacity:1"
       id="g960"
       transform="matrix(9.9999998e-7,0,0,9.9999998e-7,-51.945364,34.490137)" /><g
       style="fill:#ffffff;fill-opacity:1;stroke:#ffffff;stroke-width:21200;stroke-linecap:round;stroke-linejoin:round;stroke-opacity:1"
       id="g966"
       transform="matrix(9.9999998e-7,0,0,9.9999998e-7,-51.945364,34.490137)" /><g
       style="fill:#ffffff;fill-opacity:1;stroke:#ffffff;stroke-width:21200;stroke-linecap:round;stroke-linejoin:round;stroke-opacity:1"
       id="g972"
       transform="matrix(9.9999998e-7,0,0,9.9999998e-7,-51.945364,34.490137)" /><g
       style="fill:#ffffff;fill-opacity:1;stroke:#ffffff;stroke-width:21200;stroke-linecap:round;stroke-linejoin:round;stroke-opacity:1"
       id="g978"
       transform="matrix(9.9999998e-7,0,0,9.9999998e-7,-51.945364,34.490137)" /><g
       style="fill:#ffffff;fill-opacity:1;stroke:#ffffff;stroke-width:21200;stroke-linecap:round;stroke-linejoin:round;stroke-opacity:1"
       id="g984"
       transform="matrix(9.9999998e-7,0,0,9.9999998e-7,-51.945364,34.490137)" /><g
       style="fill:#ffffff;fill-opacity:1;stroke:#ffffff;stroke-width:21200;stroke-linecap:round;stroke-linejoin:round;stroke-opacity:1"
       id="g990"
       transform="matrix(9.9999998e-7,0,0,9.9999998e-7,-51.945364,34.490137)" /><g
       style="fill:#ffffff;fill-opacity:1;stroke:#ffffff;stroke-width:21200;stroke-linecap:round;stroke-linejoin:round;stroke-opacity:1"
       id="g996"
       transform="matrix(9.9999998e-7,0,0,9.9999998e-7,-51.945364,34.490137)" /><g
       style="fill:#ffffff;fill-opacity:1;stroke:#ffffff;stroke-width:21200;stroke-linecap:round;stroke-linejoin:round;stroke-opacity:1"
       id="g1002"
       transform="matrix(9.9999998e-7,0,0,9.9999998e-7,-51.945364,34.490137)" /><g
       style="fill:#ffffff;fill-opacity:1;stroke:#ffffff;stroke-width:21200;stroke-linecap:round;stroke-linejoin:round;stroke-opacity:1"
       id="g1008"
       transform="matrix(9.9999998e-7,0,0,9.9999998e-7,-51.945364,34.490137)" /><g
       style="fill:#ffffff;fill-opacity:1;stroke:#ffffff;stroke-width:21200;stroke-linecap:round;stroke-linejoin:round;stroke-opacity:1"
       id="g1014"
       transform="matrix(9.9999998e-7,0,0,9.9999998e-7,-51.945364,34.490137)" /><g
       style="fill:#000000;fill-opacity:1;stroke:#000000;stroke-width:21200;stroke-linecap:round;stroke-linejoin:round;stroke-opacity:1"
       id="g1016"
       transform="matrix(9.9999998e-7,0,0,9.9999998e-7,-51.945364,34.490137)" /><g
       style="fill:#000000;fill-opacity:1;stroke:#000000;stroke-width:200000;stroke-linecap:round;stroke-linejoin:round;stroke-opacity:1"
       id="g1018"
       transform="matrix(9.9999998e-7,0,0,9.9999998e-7,-51.945364,34.490137)" /><g
       id="g2054"
       transform="matrix(9.9999998e-7,0,0,9.9999998e-7,-159.89535,29.015768)"><g
         id="g1"><g
           style="fill:#000000;fill-opacity:1;stroke:#000000;stroke-width:1;stroke-linecap:round;stroke-linejoin:round;stroke-opacity:1"
           id="g14"
           transform="translate(282414.6,-36553297)"><path
             style="fill:#000000;fill-opacity:1;fill-rule:evenodd;stroke:#000000;stroke-width:1;stroke-linecap:round;stroke-linejoin:round;stroke-opacity:1"
             d="m 196294900,43184606 238340,-236957 v -441016 l -30,-23651 h 1217120 l 77170,-2549 77170,-2548 -2080,-70558 -6360,-198438 -4290,-127881 16460,52916 8970,29941 12230,42406 13900,49227 13950,50405 25600,92617 15820,55479 8830,29033 123800,-5150 54160,-191117 21640,-74786 18910,-62342 14130,-43388 4640,-12551 2680,-5371 420,-365 390,-305 380,-245 350,-186 340,-127 160,-42 150,-28 150,-14 140,1 140,15 140,28 130,43 120,56 120,70 110,83 110,97 100,111 190,260 170,313 140,365 130,416 100,467 80,516 60,565 40,613 10,660 -10,707 -30,754 -50,798 -80,843 -90,887 -130,930 -140,972 -170,1014 -190,1055 -220,1095 -240,1134 -260,1173 -1160,8082 -1320,14600 -1440,20294 -1520,25164 -3090,61639 -2830,71225 -6250,178956 1860,-60 h 697460 l 163160,-5072 2500,-104744 2490,-104743 40170,4527 4140,514 4130,604 8130,1445 7760,1713 7200,1920 3320,1018 3110,1048 2860,1069 2590,1083 2290,1090 1970,1088 1620,1080 1250,1063 530,631 540,834 1090,2260 1110,3006 1110,3705 1120,4357 1100,4962 1100,5520 1070,6030 1030,6492 1000,6909 950,7276 890,7598 1590,15969 680,8277 600,8409 1190,16686 1360,15968 1480,14872 1560,13398 1580,11546 1560,9316 1490,6707 700,2257 670,1463 1200,1138 2110,1076 6710,1958 9610,1698 12010,1432 13910,1161 15310,886 32850,922 32490,-243 14870,-572 13280,-879 11190,-1191 8620,-1509 5530,-1831 1450,-1038 500,-1121 -40,-870 -120,-896 -190,-914 -270,-926 -330,-931 -400,-929 -450,-920 -510,-905 -560,-883 -610,-854 -650,-818 -690,-776 -720,-727 -750,-671 -780,-608 -800,-539 -420,-357 -420,-563 -870,-1725 -900,-2486 -920,-3202 -930,-3875 -950,-4502 -940,-5086 -940,-5625 -930,-6120 -910,-6571 -1730,-14315 -1560,-15584 -1340,-16500 -2920,-35388 -1600,-15060 -1760,-13455 -1960,-11964 -2210,-10586 -2500,-9323 -2830,-8174 -3210,-7138 -3640,-6216 -4110,-5407 -4630,-4714 -3200,-2548 h 92020 l 680,47522 950,20662 1390,18775 1850,17020 2330,15398 2840,13911 3370,12555 3920,11334 4500,10245 5110,9290 5730,8468 6380,7779 7050,7224 3020,2776 3210,2792 3360,2789 3490,2769 3600,2728 3660,2671 3710,2595 3730,2499 3710,2387 3670,2254 3610,2105 3510,1936 3380,1748 3230,1544 3050,1319 2840,1077 7910,2332 9220,2004 10350,1677 11280,1352 12000,1028 12540,705 12870,385 13010,65 12950,-253 12690,-570 12230,-885 11580,-1199 10730,-1512 9680,-1822 3340,-843 h 732800 l 77170,-2548 16180,-704 14720,-977 13050,-1215 11140,-1420 9000,-1592 3630,-849 3010,-879 2360,-905 1690,-927 980,-943 220,-477 30,-480 v 0 l -890,-14211 -1590,-32174 -4350,-99136 -5680,-136702 51610,119063 21240,48517 19660,44086 15910,34798 9950,20650 15150,28989 81190,-2530 81180,-2531 2320,-260826 h 72650 l 110,48146 430,38249 890,29902 1490,23105 1020,9488 1220,8370 1440,7445 1670,6716 1940,6178 2200,5835 5310,11416 3310,6062 3630,5811 3950,5569 4290,5336 4630,5109 4990,4892 5370,4682 5740,4480 6140,4287 6530,4102 6950,3925 7380,3755 7810,3595 8250,3441 8720,3297 9180,3161 9220,2301 11680,1746 13780,1213 15550,704 16960,219 18030,-243 37880,-1780 38000,-3347 18170,-2203 17160,-2524 15800,-2823 14100,-3097 12050,-3349 9640,-3576 10730,-5050 9870,-5302 4620,-2759 4410,-2836 4210,-2920 4010,-3008 3820,-3101 3620,-3199 3430,-3302 3240,-3411 3060,-3523 2870,-3641 2700,-3764 2520,-3893 2350,-4025 2190,-4163 2010,-4306 1850,-4454 1700,-4607 1530,-4764 1380,-4928 1230,-5095 1090,-5268 930,-5446 1460,-11445 910,-12216 400,-13027 630,-58163 -81580,-2536 -81580,-2536 v 42466 l -210,10446 -640,9665 -1090,8898 -1530,8146 -2000,7409 -1170,3433 -1300,3254 -1410,3077 -1540,2903 -1660,2729 -1790,2558 -1920,2388 -2040,2222 -2180,2055 -2300,1891 -2440,1730 -2570,1569 -2700,1411 -2850,1255 -2980,1100 -3120,948 -3260,796 -3400,648 -7240,856 -7820,282 -3600,-66 -3590,-194 -3540,-316 -3490,-433 -3410,-543 -3310,-650 -3210,-749 -3060,-844 -2920,-932 -2740,-1016 -2560,-1094 -2350,-1166 -2120,-1232 -1880,-1293 -1610,-1349 -1320,-1398 -1280,-2385 -1180,-3907 -2100,-11975 -1740,-16846 -1390,-20907 -1740,-50745 -390,-57248 950,-57257 2240,-50774 1600,-20928 1910,-16872 2210,-12006 1230,-3924 1290,-2403 1340,-1400 1600,-1302 1840,-1207 2070,-1110 2280,-1015 2470,-920 5440,-1554 6000,-1177 6430,-803 6700,-430 6850,-60 6850,307 6720,673 6450,1034 6030,1395 5490,1751 2490,1010 2310,1097 2090,1186 1880,1273 1630,1361 1370,1448 1120,1498 1130,1817 1140,2114 1140,2385 1140,2630 1120,2852 1100,3048 1070,3220 1030,3366 980,3487 930,3585 870,3657 800,3703 720,3726 640,3724 540,3695 4780,35624 h 167680 l -5910,-50249 -1280,-9532 -1570,-9138 -1850,-8751 -2160,-8369 -2470,-7993 -2800,-7623 -3120,-7259 -3470,-6901 -3820,-6550 -4180,-6203 -4560,-5863 -4930,-5530 -5330,-5201 -5730,-4879 -6140,-4564 -6560,-4253 -6990,-3949 -7430,-3651 -7880,-3359 -8340,-3073 -8810,-2792 -4140,-1122 h 151130 l 420,1608 1200,3038 4650,10052 7340,14829 9710,18977 11760,22497 13480,25387 14870,27648 15950,29281 79370,144912 v 222533 h 167570 v -110558 -110558 l 83790,-150671 59170,-107398 18000,-33437 6610,-13191 -110,-172 -310,-170 -1260,-332 -2030,-321 -2780,-308 -7600,-569 -10070,-497 -12180,-410 -13970,-310 -15410,-196 -16520,-69 h -82250 l -39020,83391 -15520,32411 -7050,14198 -6350,12402 -5460,10262 -4390,7779 -3150,4952 -1050,1308 -680,473 -290,-89 -390,-304 -1090,-1235 -1480,-2035 -1830,-2792 -2160,-3505 -2470,-4176 -5780,-10195 -6730,-12365 -7490,-14193 -8070,-15679 -8460,-16823 -41620,-83785 h -79430 l -16180,169 -14990,483 -13510,767 -11710,1020 -9640,1239 -3940,693 -3310,736 -2640,776 -1930,810 -1180,843 -300,431 -110,438 h -151130 l -5160,-1397 -9780,-2250 -10280,-1988 -10800,-1731 -11310,-1481 -11840,-1237 -12390,-999 -26420,-1307 -28700,-424 -21250,215 -19680,664 -18210,1144 -16800,1653 -15480,2191 -14240,2760 -13060,3356 -11980,3984 -10970,4641 -10040,5326 -9190,6043 -8410,6788 -7720,7563 -7110,8367 -6560,9202 -6110,10065 -3160,5784 -2790,5599 -2450,5635 -1110,2901 -1030,2992 -950,3113 -880,3260 -820,3435 -750,3638 -680,3868 -620,4127 -1080,9140 -870,10505 -680,12092 -520,13901 -370,15931 -260,18183 -150,20656 -90,49618 h -72650 l 20,-1552 2330,-262379 h -160820 l 5810,121267 2640,49087 2890,44007 2790,34116 1250,11846 1100,7569 560,3106 450,2847 330,2590 220,2334 100,2078 -10,1825 -130,1572 -250,1321 -160,566 -200,504 -220,441 -260,380 -280,317 -310,256 -340,194 -380,132 -400,71 -430,9 -460,-51 -490,-113 -1060,-407 -1190,-649 -990,-663 -970,-741 -930,-809 -900,-871 -850,-924 -810,-969 -750,-1007 -690,-1037 -640,-1058 -560,-1071 -490,-1078 -410,-1076 -330,-1065 -130,-527 -110,-521 -90,-515 -60,-507 -40,-499 -10,-489 -290,-2199 -860,-3368 -1490,-4604 -2120,-5904 -6280,-15972 -9180,-21962 -12300,-28477 -15650,-35517 -19230,-43082 -23010,-51172 -26860,-59531 h -164950 v 529854 h -732800 l 5100,-1289 6990,-2440 v -2 l 2960,-1290 3010,-1414 3040,-1525 3040,-1621 3030,-1702 3000,-1770 2940,-1824 2870,-1863 2760,-1888 2650,-1899 2500,-1896 2340,-1879 2160,-1847 1950,-1801 1730,-1742 1480,-1667 2190,-2616 1940,-2253 1720,-1885 780,-802 740,-707 690,-612 650,-515 620,-419 570,-320 540,-222 510,-123 490,-22 450,79 440,181 410,283 400,387 390,492 370,596 360,702 360,809 360,917 350,1024 360,1134 730,2599 770,3044 840,3497 880,3442 460,1572 480,1475 520,1383 560,1292 620,1206 680,1122 750,1041 830,963 910,888 1020,815 1120,747 1230,681 1360,619 1490,558 1630,501 1780,447 1930,396 2110,348 2280,302 2470,261 2660,222 2860,186 6370,275 7290,167 8270,83 9330,22 h 56930 v -170675 h 76460 l 170,82280 850,57518 670,16784 810,7365 430,781 710,746 980,713 1260,681 1570,648 1870,617 2200,586 2520,556 6080,1024 7530,910 9050,800 10680,696 12370,597 14160,501 16030,412 17980,325 42160,415 51000,130 h 194300 v -105833 h -229300 v -114653 h 211660 v -105833 h -211660 v -97014 h 211660 v -106184 l -374820,4760 -2350,251241 -570,98431 h -76460 v -111547 l -112450,-2467 -112440,-2468 v 97541 h 30870 l 5170,24 4570,98 3990,210 3460,359 1540,247 1420,300 1300,355 1200,416 1090,483 990,552 890,628 800,708 720,793 640,882 560,977 490,1075 420,1179 360,1288 300,1400 250,1519 370,3410 210,3938 100,4504 20,5108 -50,3219 -160,3357 -250,3468 -340,3553 -950,7249 -1250,7260 -1520,7054 -840,3382 -900,3250 -940,3089 -980,2902 -1010,2687 -1040,2446 -1620,3378 -800,1558 -820,1475 -820,1392 -850,1313 -860,1235 -890,1160 -920,1087 -960,1016 -990,947 -1040,881 -1090,817 -1140,754 -1200,694 -1260,637 -1340,581 -1400,528 -1480,476 -1560,428 -1650,381 -1740,336 -1840,293 -1940,254 -2040,215 -2150,180 -4650,261 -5150,143 -5680,44 -11120,-113 -5050,-184 -4730,-308 -4410,-460 -4120,-642 -3820,-851 -3540,-1090 -3280,-1359 -3010,-1654 -2760,-1980 -2530,-2334 -2300,-2717 -2080,-3129 -1880,-3569 -1680,-4038 -1490,-4537 -1330,-5064 -1160,-5620 -1000,-6204 -870,-6817 -730,-7460 -610,-8131 -510,-8830 -720,-19877 -410,-23021 -180,-26397 -40,-30003 240,-55795 420,-22844 710,-19770 1090,-16917 1550,-14285 2070,-11875 2680,-9685 3370,-7717 1960,-3190 2160,-2781 2380,-2399 2590,-2046 2820,-1719 3050,-1421 6870,-2058 7940,-1196 9080,-555 10310,-136 7240,137 6580,434 3050,340 2890,426 2750,519 2600,615 2470,715 2320,820 2190,930 2070,1043 1940,1161 1820,1283 1700,1410 1590,1542 1490,1677 1380,1816 1280,1961 1190,2110 1100,2263 1010,2420 920,2581 850,2748 780,2918 700,3094 1220,6728 990,7480 790,8267 2860,35167 81580,2535 81580,2536 v -42361 l -280,-10956 -840,-10490 -1410,-10038 -1980,-9595 -2570,-9164 -3160,-8745 -3760,-8337 -4350,-7940 -4970,-7555 -5590,-7180 -6210,-6819 -6840,-6467 -7480,-6127 -8120,-5799 -8780,-5482 -9430,-5176 -6950,-3505 -6540,-3118 -6290,-2752 -6170,-2409 -6210,-2089 -6390,-1790 -6720,-1514 -7190,-1260 -7800,-1028 -8570,-819 -9490,-632 -10530,-467 -11740,-325 -13090,-204 -30800,-137 -22140,198 -20460,617 -18860,1067 -17370,1551 -15950,2067 -14630,2616 -13420,3197 -12280,3811 -11250,4458 -10300,5138 -9450,5849 -8700,6594 -8020,7372 -7460,8181 -6970,9025 -6590,9899 -3460,5713 -3070,5480 -2720,5433 -1230,2756 -1150,2815 -1080,2895 -1010,2999 -930,3127 -870,3277 -810,3450 -750,3648 -700,3867 -640,4111 -1140,9043 -980,10293 -830,11730 -720,13351 -630,15158 -580,17150 -1070,41019 -780,56671 h -92020 l -1990,-1584 -5790,-3666 -6440,-3312 -7140,-3074 -31840,-12699 28160,-14561 8040,-4399 3740,-2246 3560,-2284 3380,-2329 3210,-2380 3040,-2438 2860,-2500 2700,-2571 2540,-2646 2370,-2728 2220,-2816 2060,-2911 1910,-3011 1760,-3117 1620,-3230 1470,-3349 1330,-3474 1190,-3605 1060,-3743 930,-3886 800,-4036 670,-4192 550,-4353 430,-4522 310,-4697 200,-4876 80,-5064 -150,-10711 -560,-11532 -830,-10500 -1120,-9979 -1440,-9471 -1790,-8975 -2170,-8491 -2570,-8019 -3010,-7560 -3470,-7113 -3950,-6679 -4460,-6256 -5010,-5845 -5580,-5448 -6170,-5063 -6790,-4689 -7450,-4328 -8120,-3979 -8830,-3643 -9560,-3319 -10320,-3008 -11110,-2707 -11930,-2421 -12760,-2145 -13640,-1883 -14530,-1632 -15450,-1394 -16410,-1169 -35780,-1709 -39910,-953 -44260,-296 h -131090 v 529829 h -697460 l 20250,-663 h 218600 388060 v -105834 h -220490 v -114653 h 202850 v -105833 h -202850 v -97014 h 211670 v -105833 h -379240 v 529167 h -218600 l 134820,-4411 v -520348 l -232900,-4914 -9770,37735 -5420,20220 -7530,27157 -8660,30542 -8770,30373 -8910,31055 -9000,32399 -8060,29905 -6050,23576 -2410,9179 -2480,8300 -2490,7258 -1220,3187 -1200,2865 -1150,2523 -1120,2161 -1060,1778 -1000,1374 -930,952 -850,507 -400,81 -370,-37 -340,-159 -320,-282 -730,-1139 -940,-2005 -1130,-2823 -1330,-3590 -3140,-9293 -3700,-11783 -4150,-13885 -4460,-15596 -4670,-16919 -4750,-17853 -21100,-79127 -18360,-66394 -16410,-57326 -116070,-2461 -116060,-2459 v 530366 h -1217120 v -689 h 749690 388050 v -105834 h -220480 v -114653 h 202840 v -105833 h -202840 v -97014 h 211660 v -105833 h -379230 v 529167 h -749690 l -320,-220951 -670,-77468 -1200,-53036 -1890,-32869 -2730,-16967 -1720,-3853 -2000,-1476 -2280,366 -2590,1677 -7600,6876 -15790,15008 -52280,50645 -73420,71859 -86830,85531 -220490,217822 -2290,-402491 -970,-170350 -1330,-232140 238360,-233001 46930,-45878 h 1866840 866170 l 26200,22049 3340,2708 3370,2531 3410,2352 3430,2175 3450,1996 3470,1819 3490,1642 3500,1463 3510,1286 3520,1109 3520,931 3530,753 3520,576 3520,399 3510,221 3500,43 3490,-133 3470,-311 3450,-488 3430,-665 3400,-842 3370,-1020 3330,-1196 3310,-1374 3260,-1551 3220,-1727 3180,-1905 3130,-2081 3080,-2258 3020,-2435 2970,-2612 2910,-2788 v 1 l 5320,-5570 4790,-5545 4260,-5528 3740,-5523 3210,-5529 1410,-2769 1280,-2774 1150,-2781 1020,-2789 890,-2798 770,-2808 630,-2819 510,-2833 380,-2847 250,-2862 130,-2880 v -2897 l -130,-2917 -250,-2938 -380,-2959 -510,-2983 -1380,-6042 -1880,-6150 -2380,-6269 -1140,-2579 -1290,-2559 -1420,-2533 -1550,-2504 -1680,-2472 -1790,-2434 -1910,-2394 -2010,-2349 -2110,-2300 -2210,-2247 -4660,-4319 -4980,-4060 -5230,-3768 -5450,-3444 -5600,-3090 -5730,-2701 -2890,-1196 -2900,-1086 -2910,-974 -2900,-857 -2910,-736 -2880,-611 -2870,-483 -2850,-349 -2810,-213 -2780,-71 -1890,114 -2160,336 -2420,545 -2640,744 -2840,932 -3020,1107 -3180,1273 -3290,1425 -3400,1568 -3480,1699 -3520,1818 -3550,1926 -3550,2023 -3530,2109 -3470,2183 -3400,2246 -32490,22049 h -863520 v 79374 h -1866840 l 191420,-187123 -440,-440650 -770,-170872 -1740,-139502 -2480,-93768 -1430,-25244 -1510,-8424 -1950,1451 -4210,3691 -14750,13633 -51390,49021 -74150,71824 -89170,87186 -228130,223965 -2550,-400354 -1910,-298931 h 2839110 476630 v 1411111 h -449370 v 90399 90400 l 628390,-2221 628380,-2219 2520,-88179 2510,-88180 h -476870 v -136185 h 183610 l 90,4686 380,4678 690,4658 980,4626 1280,4581 1580,4525 1890,4455 2190,4374 2500,4281 2810,4175 3110,4057 3430,3927 3750,3785 4060,3629 6450,5082 3230,2290 3240,2121 3240,1954 3250,1787 3250,1618 3260,1451 3260,1283 3250,1115 3270,948 3260,779 3260,612 3260,444 3260,277 3260,108 3260,-59 3250,-227 3250,-395 3250,-562 3250,-731 3240,-898 3240,-1066 3230,-1234 3220,-1401 3220,-1570 3210,-1737 3200,-1905 3190,-2073 3190,-2241 6340,-4985 v -1 l 26210,-22048 h 871230 l -2680,-74966 -435070,-2289 -243390,-1653 -77750,-1129 -54540,-1588 -35900,-2242 -21850,-3088 -12340,-4128 -7420,-5362 -5170,-4519 -5300,-4046 -5420,-3570 -5530,-3093 -5630,-2614 -5720,-2133 -5780,-1650 -2920,-643 -2930,-522 -2940,-400 -2950,-278 -2960,-156 -2970,-34 -2980,89 -2970,212 -2990,335 -2980,459 -2980,582 -2980,706 -5960,1784 -5920,2283 -5890,2783 -4930,2730 -4670,2942 -4400,3143 -4140,3332 -3860,3507 -3590,3671 -3320,3823 -3050,3962 -2770,4089 -2490,4204 -2200,4307 -1930,4397 -1650,4474 -1360,4541 -1070,4594 -780,4635 -500,4665 -200,4681 h -183610 v -1274926 h 520350 v -25529 l -760,-13861 -2200,-15562 -3560,-17037 -4810,-18287 -5960,-19310 -7020,-20108 -7970,-20680 -8830,-21027 -9580,-21148 -10250,-21043 -10810,-20713 -11280,-20156 -11640,-19375 -11900,-18367 -12070,-17134 -12140,-15675 -16210,-18852 -17460,-18432 -18620,-17961 -19710,-17440 -20720,-16867 -21640,-16245 -22480,-15572 -23240,-14848 -23910,-14075 -24500,-13251 -25020,-12376 -25450,-11451 -25790,-10476 -26060,-9450 -26240,-8373 -26340,-7247 -22300,-5365 -10330,-2221 -9990,-1929 -9830,-1649 -9830,-1381 -10000,-1126 -10340,-882 -10850,-651 -11530,-432 -12360,-224 -13370,-30 -30440,478 -36490,1112 -35350,1418 -29850,1665 -25400,2064 -22020,2612 -19700,3312 -18440,4163 -18250,5164 -19120,6317 -23780,8632 -23000,9037 -22240,9461 -21510,9901 -20810,10360 -20140,10838 -19490,11331 -18880,11845 -18280,12375 -17720,12923 -17180,13489 -16670,14073 -16190,14675 -15740,15295 -15310,15933 -14910,16588 -14340,17012 -13600,17208 -12870,17423 -12140,17654 -11420,17904 -10710,18171 -10010,18456 -9330,18759 -8630,19080 -7960,19417 -7300,19774 -6630,20147 -5990,20539 -5340,20947 -4710,21374 -4080,21819 -5670,33073 h -2839110 l -650,-101424 238920,-233715 238920,-233715 -580,-303842 h 1341840 l 140,1848 540,2117 900,2368 1260,2600 1580,2813 4090,6189 5180,6814 6130,7289 6930,7611 7560,7784 8060,7805 8400,7674 8590,7394 8630,6962 8510,6378 8240,5644 7830,4759 3710,2000 3550,1723 13220,5957 10330,4444 4230,1686 3680,1344 3200,1017 2760,700 2400,397 2090,105 1830,-173 1640,-440 1500,-694 1430,-935 1400,-1164 1450,-1381 260,-315 220,-366 170,-416 130,-465 80,-510 30,-556 v -599 l -50,-639 -100,-680 -130,-717 -390,-1540 -540,-1671 -700,-1787 -840,-1889 -980,-1978 -1110,-2053 -1240,-2113 -1360,-2161 -1480,-2193 -1590,-2213 -1690,-2218 -1750,-2387 -1760,-2708 -1760,-2998 -1750,-3258 -1710,-3487 -1690,-3686 -1630,-3855 -1570,-3992 -1500,-4099 -1410,-4175 -1320,-4222 -1220,-4237 -1090,-4222 -970,-4177 -820,-4100 -670,-3994 -5710,-38108 -54090,2932 -10930,767 -10310,1060 -9450,1304 -8370,1503 -3710,810 -3340,841 -2960,867 -2540,886 -2090,900 -1620,907 -1110,908 -350,453 -220,452 -260,1559 h -1341840 l -40,-21897 h 1499470 l 10,2273 130,2271 250,2260 370,2242 480,2215 610,2181 720,2139 840,2089 970,2030 1080,1965 1210,1891 1320,1809 1450,1719 1580,1622 1700,1516 770,609 820,583 1790,1086 1950,978 2130,869 2270,758 2430,646 2550,533 2670,418 2790,302 2890,184 2980,65 3050,-55 3120,-177 3190,-300 3220,-426 3270,-551 27020,-4980 21520,-3731 16600,-2528 12270,-1372 4700,-266 3830,6 3040,272 2320,533 1680,787 1110,1037 610,1280 190,1517 -210,1098 -630,1176 -1020,1249 -1380,1312 -1730,1368 -2060,1418 -5020,2953 -6070,3060 -6960,3107 -7670,3094 -8210,3022 -8590,2890 -8800,2699 -8830,2447 -8700,2136 -8390,1765 -7920,1335 -7280,844 -6470,295 -6070,153 -5420,449 -4760,735 -4120,1007 -3480,1268 -2870,1517 -1200,848 -1050,905 -910,962 -750,1016 -610,1069 -460,1121 -310,1171 -180,1219 -30,1267 110,1312 640,2755 1180,2919 1720,3070 2240,3211 2760,3338 3260,3454 3750,3558 4230,3649 4710,3728 5160,3796 5620,3851 6050,3894 6490,3925 6900,3944 7300,3951 7710,3946 8090,3928 8460,3899 8830,3858 9180,3803 9520,3739 11550,4179 11820,3814 12090,3451 12400,3091 12720,2732 13070,2375 13420,2021 13800,1667 14190,1317 14610,969 15040,621 15500,277 15970,-67 16460,-406 16960,-746 17500,-1083 18900,-1124 21630,-932 48430,-1240 50250,-327 23910,209 22080,473 v 0 l 51740,1139 65880,918 71570,603 68780,194 277820,508 691440,593 225280,-1863 87120,-3052 260,-347 160,-447 70,-544 v -638 l -100,-728 -170,-817 -260,-902 -330,-984 -890,-2202 -1180,-2495 -1460,-2765 -1720,-3011 -1980,-3233 -2210,-3432 -2430,-3607 -2640,-3758 -2830,-3887 -3010,-3991 -3180,-4072 -3330,-4130 -5750,-6649 -6290,-6556 -14090,-12800 -15970,-12333 -17680,-11807 -19230,-11217 -20620,-10568 -21830,-9856 -22890,-9084 -23780,-8251 -24500,-7356 -25060,-6400 -25460,-5382 -25690,-4305 -25760,-3165 -25660,-1964 -25390,-703 -34410,-1059 -42440,-2830 -47530,-4260 -49700,-5349 -48910,-6096 -45200,-6504 -38540,-6569 -28940,-6293 -14770,-4199 -15950,-5168 -16900,-6031 -17640,-6788 -36640,-15425 -37000,-17186 -35610,-18102 -32480,-18172 -14530,-8847 -13090,-8549 -11450,-8143 -9570,-7632 -37510,-32136 -90370,22284 -41360,9603 -43540,8984 -45140,8279 -46150,7484 -46590,6602 -46450,5631 -45720,4572 -44420,3426 -45100,3280 -40050,3746 -35980,4387 -32900,5206 -30810,6202 -29700,7374 -29600,8724 -30460,10251 -23970,8360 -10180,3388 -9190,2888 -8370,2411 -7680,1953 -7170,1517 -6810,1102 -6600,709 -6550,337 -6670,-15 -6930,-344 -7350,-653 -7930,-940 -18240,-2658 -11930,-1566 -12850,-1153 -13600,-757 -14160,-375 -14540,-7 -14740,347 -29370,1693 -14260,1318 -13730,1613 -13030,1893 -12150,2159 -11080,2410 -9830,2646 -8410,2867 -6790,3075 -1880,1105 -1780,1236 -1660,1361 -1560,1477 -1450,1586 -1340,1685 -1230,1779 -1120,1863 -1010,1940 -900,2008 -790,2069 -670,2122 -560,2168 -440,2204 -340,2233 -210,2255 -100,2267 h -1499470 l -130,-69029 h 1331600 l 80,1529 230,1661 390,1775 520,1875 650,1957 770,2025 890,2075 1000,2111 1100,2129 1190,2132 1270,2119 1350,2090 1420,2045 1470,1984 1530,1907 1570,1814 2020,2037 2230,1867 2440,1699 2630,1530 2840,1362 3040,1194 3230,1026 3420,858 3620,691 3800,524 3990,357 4180,191 4350,25 4530,-142 9590,-779 10280,-1441 10950,-2098 11590,-2755 12220,-3410 12830,-4061 13420,-4711 13990,-5358 14540,-6004 11640,-5093 10870,-4982 9850,-4746 8590,-4384 7110,-3898 5380,-3284 1960,-1374 1440,-1173 900,-957 310,-726 -360,-869 -1070,-867 -4110,-1721 -6490,-1679 -8530,-1615 -5100,-760 h 61030 l 90,425 270,428 430,429 610,431 760,430 930,430 2310,856 2880,846 3440,829 3940,806 4420,779 4860,746 5270,706 5630,661 5970,610 6280,553 6530,491 6770,423 6960,348 56040,2645 38750,2136 3120,40 3860,-238 4540,-503 5180,-755 5760,-993 6280,-1220 13900,-3063 15320,-3810 16310,-4453 16840,-4991 16930,-5424 v 0 l 16390,-5646 15290,-5623 13860,-5453 12090,-5133 9980,-4665 7550,-4048 2760,-1747 2010,-1537 1250,-1308 310,-563 110,-499 -20,-455 -60,-435 -100,-413 -130,-392 -170,-370 -210,-349 -240,-326 -280,-305 -310,-282 -330,-259 -370,-237 -400,-213 -430,-191 -460,-167 -480,-143 -510,-119 -530,-96 -550,-71 -580,-47 -600,-22 -620,3 -640,27 -660,53 -680,79 -700,104 -710,129 -720,156 -740,183 -750,208 -760,235 -780,263 -780,289 -2270,624 -3600,660 -10870,1399 -15260,1469 -19010,1495 -22140,1475 -24650,1410 -26540,1300 -27800,1146 -45730,2134 -38720,2761 -31990,3444 -13570,1996 -11980,2188 -10450,2388 -8940,2594 -7460,2808 -6040,3029 -4630,3257 -3260,3492 -1930,3734 -640,3984 h -61030 l -5150,-766 -11650,-1414 -26220,-2392 -27950,-1652 -27100,-719 -12430,50 -11250,356 -9740,685 -7930,1039 -18240,3385 -7710,1574 -6830,1526 -6000,1499 -5220,1495 -4490,1513 -3810,1554 -3170,1616 -2590,1702 -2060,1808 -1580,1939 -1140,2091 -750,2265 -410,2462 -130,2682 h -1331600 l -20,-8722 -390,-68978 h 2015250 l 60,299 1000,779 1930,681 6500,1076 9710,708 12580,358 32350,-269 39590,-1470 44000,-2535 45610,-3465 44390,-4262 40360,-4921 20220,-2994 22000,-3574 46500,-8354 45130,-9066 20290,-4465 17840,-4241 79370,-19801 v -35278 l -30,-5463 -120,-4893 -230,-4359 -350,-3858 -490,-3391 -650,-2960 -390,-1328 -450,-1234 -490,-1143 -540,-1056 -600,-974 -660,-896 -710,-823 -780,-753 -840,-688 -920,-627 -980,-571 -1050,-519 -2330,-898 -2640,-741 -2990,-618 -3330,-530 -6030,-437 -7350,198 -8620,827 -9890,1447 -11110,2059 -12320,2665 -13500,3264 -14640,3853 -15760,4437 -16850,5012 -36880,11721 -40910,13934 -44740,16085 -22120,7821 -24010,7920 -25140,7800 -25500,7464 -25080,6909 -23910,6136 -21970,5145 -19260,3936 -17110,3286 -15840,3278 -14220,3185 -12270,3004 -9970,2736 -7350,2381 -2580,1030 -1790,909 -980,777 -160,335 h -2015250 l -490,-87689 -840,-58243 h 2580230 l 20,6193 330,6316 660,6430 980,6535 1320,6634 1650,6723 2420,7635 3130,7640 3830,7637 4510,7624 5190,7605 5840,7575 6480,7539 7100,7492 7720,7437 8310,7375 8890,7303 9450,7222 10010,7135 10540,7037 11060,6931 11570,6817 12050,6694 12540,6563 26430,12697 28160,12070 29760,11374 31250,10609 32610,9777 33860,8877 34990,7907 13450,2098 21420,2446 28280,2706 34050,2875 80990,5910 90800,5531 102900,6390 42410,3254 36600,3314 30950,3390 25450,3483 20130,3591 14960,3715 13070,4384 13820,5385 14360,6245 14680,6967 14780,7546 14660,7987 14300,8287 13750,8446 12950,8467 11940,8345 10720,8086 9260,7684 7590,7143 5690,6463 3580,5640 930,2469 310,2211 -60,1268 -170,1143 -290,1019 -400,894 -240,400 -270,369 -300,339 -330,308 -350,277 -380,246 -840,400 -950,279 -1060,156 -1160,35 -1260,-85 -1370,-206 -1460,-326 -1570,-446 -1660,-565 -1760,-683 -1860,-802 -1960,-919 -2040,-1037 -2140,-1153 -2230,-1270 -2320,-1386 -2410,-1501 -2490,-1617 -2580,-1731 -2670,-1845 -2750,-1959 -2840,-2072 -2910,-2185 -3000,-2298 -3070,-2409 -7190,-5427 -7990,-5561 -8630,-5614 -9110,-5590 -9420,-5486 -9570,-5303 -18960,-9743 -9050,-4281 -8560,-3782 -7910,-3205 -7080,-2548 -6090,-1811 -4950,-998 -3640,-103 -1280,308 -890,562 -200,247 -130,284 -60,320 v 353 l 70,386 130,418 190,448 240,476 310,505 360,530 420,556 470,580 530,602 580,624 1300,1306 1490,1376 1670,1435 1840,1486 2000,1526 2140,1555 2290,1574 2410,1584 2520,1583 2890,1909 3490,2540 4030,3130 4530,3677 10360,8826 11800,10504 12860,11846 13550,12846 13860,13510 13800,13834 17550,17138 18190,16343 18880,15564 19600,14805 20350,14065 21150,13344 21990,12640 22850,11956 23760,11291 24710,10644 25690,10016 26710,9407 27770,8816 28870,8244 29990,7691 31170,7157 15520,2900 17940,2536 41840,3971 47630,2493 50820,1001 51440,-502 49440,-2018 44870,-3547 19900,-2351 17790,-2737 v 1 l 29300,-5776 28540,-6850 27750,-7903 26920,-8936 26060,-9949 25160,-10942 24230,-11916 23260,-12869 22270,-13802 21240,-14716 20160,-15610 19070,-16483 17940,-17337 16760,-18171 15560,-18984 14330,-19779 36310,-53475 14980,19850 1710,2143 1790,2021 1870,1894 1940,1761 1990,1622 2040,1479 2070,1329 2100,1175 2110,1015 2110,849 2100,678 2090,501 1030,183 1030,136 1010,90 1000,42 1000,-7 970,-55 960,-105 950,-155 1490,-342 710,-220 690,-266 670,-323 650,-390 620,-466 610,-553 580,-650 570,-757 540,-874 520,-1001 510,-1138 490,-1286 460,-1444 450,-1610 440,-1789 410,-1976 400,-2175 380,-2382 370,-2601 350,-2828 330,-3068 320,-3315 300,-3574 290,-3843 540,-8532 480,-9727 430,-11004 390,-12362 340,-13800 290,-15320 260,-16919 220,-18600 190,-20362 150,-22205 130,-24127 180,-54349 100,-63013 40,-72323 10,-82279 v -480541 l -88190,2815 -19390,824 -21300,1268 -22530,1647 -23060,1965 -22890,2218 -22020,2408 -20470,2535 -18200,2598 -23100,4072 -26100,5479 -59590,14667 -66760,18753 -70730,21812 -71500,23841 -69060,24843 -63420,24815 -54570,23759 -41420,18525 -20170,8387 -19960,7844 -19840,7334 -19850,6853 -19960,6404 -20190,5986 -20510,5600 -20960,5244 -21500,4919 -22160,4627 -46750,8497 -50690,7698 -18420,2999 -19950,4053 -21220,5033 -22230,5941 -22990,6778 -23490,7540 -23730,8232 -23710,8849 -40520,16455 -42870,18751 -42840,19848 -40420,19743 -35600,18441 -28410,15938 -10760,6655 -8060,5580 -5070,4355 -1320,1670 -450,1308 240,817 740,758 1220,698 1670,639 4670,1101 6300,868 7780,637 9130,406 10320,179 11370,-47 12290,-271 13050,-493 13680,-713 14150,-932 14490,-1147 14690,-1362 14730,-1574 14640,-1785 15640,-2265 15990,-2774 16310,-3277 16610,-3776 16920,-4269 17190,-4757 17460,-5241 17700,-5718 17940,-6192 18160,-6659 36920,-14703 37600,-16513 38180,-18284 20620,-10091 17650,-8200 14830,-6369 6420,-2517 5790,-2082 5180,-1655 4590,-1236 4020,-824 3470,-420 2960,-24 2450,365 1980,747 1520,1120 780,914 300,476 240,491 170,507 120,522 40,539 -10,557 -90,575 -150,594 -520,1250 -810,1337 -1120,1431 -1420,1531 -1760,1637 -2080,1751 -2430,1871 -2790,1998 -3160,2131 -3540,2270 -3920,2417 -4330,2570 -4740,2729 -5160,2896 -5590,3068 -12540,6682 -14390,7451 -16350,8275 -18390,9150 -20520,10079 -22730,11060 -44090,21376 44090,14362 8590,2983 7600,3014 6610,3001 5600,2947 2410,1439 2160,1410 1890,1375 1630,1335 1360,1290 1100,1238 830,1183 550,1121 290,1054 v 983 l -270,905 -550,822 -830,735 -1120,641 -1400,543 -1690,438 -1980,330 -2270,215 -2560,95 -2870,-29 -3160,-160 -3460,-296 -7820,-1020 -9620,-1199 -11880,-962 -30230,-1223 -38260,-301 -45560,607 -52170,1498 -58040,2374 -63210,3235 -67670,4081 -213020,13828 -62340,4460 -39570,3563 -21810,3217 -5820,1653 -3250,1775 -1330,1965 -20,2224 1380,5507 270,1798 180,1681 100,1563 v 1444 l -90,1326 -180,1208 -270,1090 -380,971 -480,852 -580,734 -680,616 -790,497 -890,378 -1010,259 -1120,141 -1230,22 -1350,-98 -1460,-216 -1590,-335 -1710,-455 -1830,-573 -1960,-693 -2080,-812 -2220,-932 -2350,-1050 -2480,-1171 -2610,-1290 -2760,-1409 -5930,-3178 -6500,-3656 -5160,-2595 -6670,-2773 -7980,-2903 -9080,-2986 -20700,-6030 -22720,-5790 -23170,-5167 -22000,-4163 -10060,-1585 -9180,-1192 -8080,-750 -6800,-261 -320,66 -310,197 -300,324 -280,448 -280,569 -260,686 -500,1712 -440,2142 -390,2547 -330,2927 -280,3279 -220,3606 -160,3906 -100,4182 -40,4430 30,4654 90,4850 170,5021 240,5166 2640,50712 39690,2146 28420,1784 25660,2105 22580,2379 19180,2602 15470,2778 6250,1439 5200,1464 4110,1483 2980,1496 1820,1503 470,752 150,752 -480,822 -1390,783 -5320,1446 -8310,1280 -10850,1109 -27490,1673 -32170,903 -33230,78 -30650,-802 -13220,-748 -11210,-988 -8750,-1235 -5830,-1490 -960,-407 -920,-469 -890,-532 -840,-598 -810,-668 -770,-739 -730,-813 -690,-891 -660,-970 -620,-1053 -580,-1138 -560,-1226 -520,-1316 -480,-1410 -460,-1505 -420,-1604 -390,-1706 -370,-1809 -330,-1916 -300,-2025 -280,-2137 -250,-2252 -220,-2370 -190,-2489 -320,-5350 -220,-5863 -130,-6396 -40,-6953 -60,-12061 -220,-10805 -410,-9614 -620,-8489 -870,-7430 -1140,-6438 -1450,-5512 -1780,-4651 -1030,-2023 -1130,-1833 -1220,-1651 -1330,-1477 -1430,-1311 -1550,-1154 -1660,-1005 -1780,-865 -1900,-731 -2030,-607 -4460,-875 -5000,-476 -5590,-144 -6260,169 -6100,502 -5910,828 -5730,1144 -5540,1453 -5340,1753 -5140,2046 -4940,2331 -4720,2607 -4510,2875 -4280,3135 -4060,3387 -3820,3631 -3580,3867 -3340,4094 -3080,4314 -2840,4525 -2570,4729 -2300,4924 -2040,5111 -1750,5290 -1470,5460 -1190,5624 -890,5778 -590,5925 -290,6063 h -2580230 l -1010,-70054 -2540,-86687 -1440,-23603 -1510,-8235 -1960,1222 -4240,3585 -14870,13776 -22570,21781 -29290,28818 -35040,34891 -39810,39996 -90020,91446 -230350,235515 v -824684 l 235920,-239589 425540,-431970 189620,-192382 798940,4920 -241660,246944 -241670,246945 415460,2432 415460,2435 25500,-28892 9620,-10351 17660,-18446 55420,-57049 75510,-77044 87520,-88781 220230,-222779 399220,2292 399210,2293 -240610,246944 -240620,246945 411470,2634 411460,2633 248600,-251872 248590,-251873 400870,2296 400870,2295 -490920,498298 416210,385 416200,385 246950,-252009 246940,-252010 399060,2475 399050,2475 -45420,48507 -33320,34655 -57140,58501 -72950,74174 -80750,81679 -198730,200502 250790,2345 250800,2345 v 183011 l 230,71059 620,58190 920,39317 540,10704 580,3733 5330,-4816 14160,-13802 50920,-50688 74620,-75017 90590,-91604 232730,-235920 600,768650 -224400,223390 -161330,159526 -51280,49895 -21470,19948 -620,780 -610,1558 -1150,5490 -1080,8708 -1010,11992 -1810,34104 -1530,48039 -1280,62507 -1030,77506 -810,93038 -590,109100 -160,315584 830,96002 1350,35259 1590,-1179 3880,-3456 14170,-13285 50610,-48791 73910,-72211 89550,-88179 229860,-227100 2560,401284 2560,401285 -234170,229306 -234180,229305 -2100,443179 -350,171905 610,140443 1430,94512 990,25511 1140,8602 2140,-1531 4570,-3952 16900,-15631 28050,-26717 40190,-38736 120600,-117274 180710,-176580 72760,-71189 -420,383452 -410,383451 -233300,237295 -233300,237295 -810,391090 -1600,417549 -40,2684 30,2586 110,2476 180,2353 240,2219 310,2071 370,1911 420,1738 480,1554 530,1357 570,1147 620,926 660,690 340,254 350,190 360,126 360,59 380,-9 380,-79 1810,-1293 3840,-3352 13310,-12459 20090,-19417 26020,-25523 66340,-65948 79650,-80127 80980,-81323 69950,-69208 51460,-49765 16460,-15302 9020,-7693 24260,-17378 -150,337945 -150,337944 -99080,115776 -207480,243804 -421870,497627 -113540,134013 -405600,485 -405590,483 146760,-147727 113460,-114762 88790,-90941 57860,-60651 15380,-16946 5300,-6949 -8440,-602 -24190,-561 -88820,-953 -131450,-644 -160530,-237 h -413420 l -214550,220486 -214550,220487 h -811470 l 211300,-211823 82270,-82930 67820,-69214 46330,-48264 12910,-14014 4900,-6064 -250,-517 -1110,-502 -4780,-958 -8140,-898 -11480,-837 -32810,-1486 -45690,-1230 -58250,-969 -70510,-699 -82470,-425 -94100,-143 h -412530 l -433180,441910 -398940,-2674 -398940,-2673 76190,-79375 94110,-96863 119260,-121418 137190,-138907 h -830430 l -185920,187414 -140200,142075 -49580,50781 -26430,27629 -30280,33074 h -808230 l 124100,-125677 113650,-115961 99000,-102320 88560,-92604 -215250,-2360 -215250,-2358 v -189464 l -520,-73530 -1420,-60147 -980,-23118 -1120,-17445 -1240,-10999 -660,-2840 -670,-938 -1860,1210 -4150,3458 -14650,13201 -22330,20813 -29040,27504 -74330,71393 -89560,87100 -229310,224231 -2420,-398862 -1840,-303257 h 1305130 l 140,28437 580,22868 530,9762 740,8870 970,8144 1240,7585 1540,7192 1870,6966 2230,6907 2620,7013 3040,7287 3500,7727 8490,17440 6670,12510 7310,12113 7950,11716 8600,11322 9240,10930 9890,10539 10540,10151 11200,9764 11850,9378 12500,8996 13170,8614 13830,8235 14490,7857 15160,7481 15830,7107 16500,6735 16090,6084 15490,5461 15110,4867 14950,4297 15010,3756 15290,3241 15780,2752 16500,2290 17430,1856 18580,1446 19960,1066 21530,710 23350,382 25370,80 57690,-638 44700,-928 36000,-1173 29200,-1655 12630,-1082 11630,-1290 10870,-1528 10350,-1795 10040,-2093 9990,-2418 20740,-5933 23330,-7591 v 0 l 20440,-7283 19420,-7748 18420,-8242 17470,-8768 16540,-9324 15660,-9911 14800,-10527 13990,-11175 13220,-11852 12470,-12561 11770,-13300 11090,-14069 10470,-14869 9860,-15699 9300,-16560 8780,-17452 2820,-6127 2530,-5993 2270,-5964 2020,-6041 1770,-6223 1550,-6512 1340,-6905 1150,-7406 960,-8011 790,-8723 650,-9540 500,-10464 380,-11492 270,-12627 270,-29082 v -31505 l -440,-25189 -450,-10655 -640,-9590 -850,-8698 -1100,-7976 -1370,-7426 -1670,-7049 -2000,-6841 -2350,-6806 -2730,-6942 -3140,-7250 -7630,-16110 -9190,-17837 -9680,-16709 -5080,-7980 -5290,-7757 -5510,-7552 -5760,-7367 -6040,-7202 -6350,-7056 -6680,-6929 -7040,-6822 -7420,-6734 -7840,-6665 -8270,-6616 -8730,-6587 -9230,-6576 -9750,-6585 -21140,-13276 -23540,-13545 -26130,-13969 -28950,-14548 -31960,-15283 -35200,-16173 -38650,-17218 -59520,-26685 -49700,-23458 -40760,-20773 -17310,-9551 -15410,-9083 -13620,-8684 -11940,-8352 -10370,-8090 -8910,-7894 -7570,-7767 -6330,-7707 -5210,-7716 -4200,-7793 -1810,-4064 -1610,-4113 -1410,-4153 -1210,-4188 -1020,-4214 -820,-4235 -1060,-8500 -300,-8497 440,-8438 1170,-8322 1870,-8152 2580,-7925 3250,-7643 3920,-7305 2200,-3508 2370,-3403 2520,-3290 2680,-3171 2830,-3045 2990,-2912 3140,-2771 3290,-2624 3430,-2470 3580,-2309 6950,-3732 7810,-3281 8540,-2826 9180,-2369 9680,-1909 10100,-1445 10380,-979 10560,-510 10640,-38 10580,437 10430,914 10170,1396 9780,1878 9290,2365 8680,2855 7970,3346 2990,1494 2950,1626 2900,1754 2870,1874 2810,1990 2760,2101 5350,4510 5090,4885 4800,5217 4490,5502 4150,5746 3760,5944 3370,6099 2920,6209 2460,6275 1050,3148 920,3149 790,3143 650,3132 520,3115 370,3094 230,3065 70,3033 120,4944 320,5706 510,6266 680,6623 820,6777 950,6726 1040,6474 1110,6018 5550,27744 346090,-4776 -650,-57326 -480,-13596 -1120,-13443 -1750,-13282 -2380,-13112 -2940,-12711 h 106330 l 147730,2417 147720,2417 v 960894 h 388060 v -251355 h 427740 l 21280,52916 6580,14986 7560,14748 8500,14461 9390,14127 10220,13743 11000,13312 11730,12831 12420,12302 13040,11725 13610,11099 14140,10424 14620,9701 15030,8930 15410,8109 15730,7241 15990,6324 14220,4996 15000,4971 15320,4814 15200,4527 14630,4109 13590,3559 12110,2878 10180,2068 15510,2070 20270,1613 52010,1932 62590,329 67520,-1123 66830,-2428 60480,-3582 48490,-4589 18000,-2624 12880,-2821 v 1 l 28630,-8975 26880,-9919 25180,-10895 23510,-11904 21860,-12947 20250,-14023 18680,-15132 17120,-16273 15620,-17448 14130,-18656 12680,-19896 11260,-21170 9870,-22477 8520,-23817 7200,-25190 5910,-26596 1250,-7730 1140,-9727 1960,-25527 1550,-33761 1130,-42160 720,-50724 300,-59451 -100,-68345 -500,-77401 -2770,-321910 -23850,-50887 -2670,-5432 -3030,-5707 -3370,-5936 -3680,-6119 -3930,-6254 -4170,-6342 -8910,-12764 -9420,-12558 -4830,-6084 -4850,-5892 -4850,-5653 -4820,-5367 -4740,-5035 -4630,-4656 -10270,-9478 -10970,-9132 -11660,-8783 -12330,-8430 -26560,-15781 -28970,-14317 -31210,-12821 -33260,-11290 -12320,-3406 h 457590 l 670,582083 660,601927 v 19844 h 379230 v -232451 -232451 l 156550,-4986 40280,-1561 37330,-2055 34560,-2603 31980,-3203 29580,-3857 27360,-4564 25330,-5323 23480,-6137 21810,-7003 20330,-7922 19020,-8894 17910,-9920 16970,-10999 16220,-12130 15650,-13316 15270,-14553 12330,-12865 11250,-12810 10220,-12867 9220,-13040 8250,-13325 7330,-13724 6450,-14235 5600,-14861 4800,-15600 4030,-16452 3310,-17417 2610,-18497 1960,-19689 1350,-20995 770,-22415 240,-23947 -170,-29605 -580,-24403 -1110,-20164 -800,-8793 -980,-8092 -1190,-7514 -1390,-7054 -1640,-6715 -1880,-6497 -2150,-6397 -2430,-6419 -5790,-13382 -7910,-16379 -8340,-15590 -8830,-14818 -9380,-14063 -9980,-13324 -10640,-12601 -11370,-11895 -12150,-11206 -12980,-10532 -13880,-9876 -14830,-9236 -15840,-8612 -16910,-8005 -18040,-7415 -19220,-6840 -20460,-6283 -21770,-5742 -23120,-5217 -24540,-4709 -26010,-4218 -27540,-3742 -29140,-3284 -30780,-2841 -32480,-2416 -34260,-2006 -36070,-1614 -77840,-2116 -85820,-743 -94270,498 -245400,2673 h -457590 l -22850,-6321 -36890,-8131 -38440,-6502 -39840,-4840 -41040,-3145 -42090,-1416 -42970,344 -43670,2139 -44210,3967 -44570,5826 -30600,5201 -29220,6131 -27850,7070 -26510,8018 -25160,8975 -23840,9941 -22540,10916 -21240,11900 -19960,12892 -18700,13895 -17460,14905 -16220,15925 -15000,16954 -13810,17992 -12610,19039 -11440,20094 -25030,47536 v 723194 h -427740 v -709549 l 304270,-4824 v -238125 h -987780 v 238125 h -106330 l -50,-220 -3600,-12742 -4200,-12543 -4790,-12335 -5370,-12118 -5940,-11890 -6500,-11654 -7060,-11407 -7600,-11153 -8150,-10888 -8670,-10614 -9190,-10330 -9700,-10037 -10200,-9735 -10700,-9424 -11180,-9102 -11660,-8772 -12120,-8432 -12590,-8082 -13030,-7724 -13470,-7356 -13910,-6978 -29080,-12786 -30700,-11163 -32260,-9464 -16550,-3909 -17880,-3490 -19050,-3065 -20070,-2636 -20920,-2202 -21600,-1764 -44600,-2194 -45380,-384 -22580,498 -22290,965 -21830,1435 -21210,1912 -20430,2391 -19480,2877 -39950,7699 -37500,9529 -35020,11341 -32520,13133 -15330,7233 -14690,7674 -14060,8113 -13430,8549 -12780,8984 -12150,9416 -11510,9845 -10860,10272 -10220,10697 -9560,11120 -8920,11539 -8260,11958 -7610,12373 -6940,12787 -6290,13197 -5630,13606 -4950,14012 -4290,14416 -3620,14818 -2950,15217 -2280,15613 -1590,16009 -920,16400 -240,16790 730,21655 1900,20987 3090,20339 4290,19710 5500,19099 6720,18507 7960,17934 9190,17381 10460,16845 11710,16329 13000,15832 14270,15353 15580,14894 16890,14454 18200,14031 19530,13629 14860,9270 19540,11253 23390,12805 26410,13924 28590,14609 29950,14862 30460,14683 30150,14071 58280,27101 52230,24968 40450,20064 14030,7326 8940,5059 7810,5114 7350,5405 6910,5678 6460,5932 6000,6167 5550,6383 5090,6580 4640,6759 4170,6917 3720,7059 3250,7179 2790,7282 2320,7366 1850,7430 1390,7476 910,7503 440,7511 -40,7500 -510,7470 -990,7421 -1480,7353 -1950,7267 -2430,7161 -2920,7036 -3410,6893 -3900,6731 -4380,6549 -4880,6349 -5370,6130 -5870,5891 -6370,5635 -6860,5359 -3060,2052 -3390,1927 -7700,3477 -8790,2971 -9730,2463 -10500,1955 -11110,1442 -11560,930 -11850,413 -11970,-104 -11950,-624 -11760,-1146 -11400,-1670 -10890,-2196 -10220,-2724 -9380,-3254 -8390,-3787 -4000,-2133 -3830,-2177 -3660,-2228 -3500,-2287 -3340,-2355 -3180,-2430 -3020,-2513 -2880,-2605 -2740,-2705 -2590,-2812 -2450,-2927 -2320,-3051 -2200,-3183 -2060,-3322 -1940,-3470 -1830,-3626 -1710,-3790 -1600,-3961 -1490,-4141 -1390,-4329 -1290,-4524 -1200,-4729 -1100,-4940 -1020,-5161 -930,-5388 -860,-5625 -1480,-11989 -1200,-13029 -960,-14134 -4050,-69812 h -350510 v 91195 h -1305130 l -580,-95606 z"
             id="path12-0" /></g><g
           style="fill:#000000;fill-opacity:1;stroke:#000000;stroke-width:1;stroke-linecap:round;stroke-linejoin:round;stroke-opacity:1"
           id="g36"
           transform="translate(282414.6,-36553297)"><path
             style="fill:#000000;fill-opacity:1;fill-rule:evenodd;stroke:#000000;stroke-width:1;stroke-linecap:round;stroke-linejoin:round;stroke-opacity:1"
             d="m 201243340,42845642 31160,1373 24120,1430 9810,833 8540,962 7400,1130 6440,1337 5640,1581 4980,1865 4500,2186 4160,2546 4000,2945 3980,3381 8560,8226 4560,4933 4280,5360 4000,5758 3710,6128 3430,6468 3150,6780 2850,7063 2570,7318 4280,15284 3130,15956 1980,16400 820,16612 -340,16596 -1510,16348 -2670,15872 -3840,15164 -2360,7245 -2650,6983 -2950,6690 -3250,6371 -3530,6021 -3840,5643 -4130,5236 -4420,4801 -2640,2521 -2800,2443 -6080,4650 -6720,4336 -7360,4020 -7980,3705 -8600,3387 -9230,3069 -9850,2750 -10460,2430 -11070,2109 -11680,1788 -12290,1464 -12880,1141 -13480,816 -14070,490 -14660,164 h -62240 v -302126 z"
             id="path30-3" /><path
             style="fill:#000000;fill-opacity:1;fill-rule:evenodd;stroke:#000000;stroke-width:1;stroke-linecap:round;stroke-linejoin:round;stroke-opacity:1"
             d="m 199140160,42050208 4530,211 4320,360 4120,514 3930,675 3760,842 3610,1015 3470,1195 3350,1380 3240,1573 3160,1770 3090,1975 3030,2186 2990,2403 2980,2625 2970,2855 3950,4197 3550,4253 3140,4300 2740,4334 2340,4359 1960,4373 1560,4374 1190,4366 820,4347 440,4315 80,4275 -280,4221 -630,4159 -980,4084 -1330,3998 -1660,3903 -2000,3795 -2320,3677 -2650,3547 -2960,3408 -3280,3256 -3580,3095 -3880,2921 -4190,2737 -4470,2543 -4760,2336 -5040,2120 -5310,1892 -5590,1653 -5850,1404 -6110,1143 -6360,871 -41550,4683 v -134587 h 35680 z"
             id="path32-7" /><path
             style="fill:#000000;fill-opacity:1;fill-rule:evenodd;stroke:#000000;stroke-width:1;stroke-linecap:round;stroke-linejoin:round;stroke-opacity:1"
             d="m 200080160,42816804 8500,749 8400,1169 8270,1588 8110,2006 7900,2424 7670,2841 7400,3258 7090,3675 6760,4091 6380,4506 5970,4921 5520,5336 5050,5750 4540,6163 3980,6576 2600,5135 1180,2715 1120,2877 1040,3087 980,3344 920,3650 850,4004 790,4404 730,4854 680,5350 620,5895 1090,13616 910,16368 730,19504 580,23022 440,26922 320,31207 360,76794 80,98520 -200,116266 -930,89374 -2170,66458 -1700,25877 -2190,21639 -2750,17896 -3370,14652 -4050,11904 -4790,9652 -5590,7898 -6460,6640 -7390,5879 -8380,5616 -4690,2660 -5430,2529 -6070,2382 -6610,2220 -7060,2041 -7410,1845 -7660,1634 -7810,1407 -7850,1163 -7820,903 -7660,627 -7430,335 -7080,27 -6640,-298 -6100,-638 -5460,-995 -9040,-2196 -8310,-2268 -7620,-2384 -7000,-2545 -6440,-2752 -5920,-3004 -5480,-3301 -5090,-3644 -4750,-4030 -4480,-4464 -4260,-4941 -4100,-5464 -4000,-6033 -3960,-6646 -3970,-7304 -4040,-8009 -22630,-46256 2630,-312795 2630,-312794 21390,-31196 4830,-6453 5320,-6026 5780,-5599 6210,-5172 6590,-4746 6950,-4321 7280,-3895 7550,-3471 7810,-3046 8020,-2623 8200,-2199 8350,-1777 8470,-1355 8540,-932 8580,-512 8580,-91 z"
             id="path34-4" /></g></g></g></g></svg>
