M48
; DRILL file {KiCad 7.0.11-7.0.11~ubuntu22.04.1} date Tue 17 Sep 2024 11:44:16 AM CEST
; FORMAT={-:-/ absolute / inch / decimal}
; #@! TF.CreationDate,2024-09-17T11:44:16+02:00
; #@! TF.GenerationSoftware,Kicad,Pcbnew,7.0.11-7.0.11~ubuntu22.04.1
; #@! TF.FileFunction,Plated,1,2,PTH
FMAT,2
INCH
; #@! TA.AperFunction,Plated,PTH,ComponentDrill
T1C0.0236
; #@! TA.AperFunction,Plated,PTH,ComponentDrill
T2C0.0280
; #@! TA.AperFunction,Plated,PTH,ComponentDrill
T3C0.0295
; #@! TA.AperFunction,Plated,PTH,ComponentDrill
T4C0.0315
; #@! TA.AperFunction,Plated,PTH,ComponentDrill
T5C0.0390
; #@! TA.AperFunction,Plated,PTH,ComponentDrill
T6C0.0472
; #@! TA.AperFunction,Plated,PTH,ComponentDrill
T7C0.0512
%
G90
G05
T1
X1.9594Y-1.585
X1.9594Y-1.6638
X2.4657Y-1.85
X2.4657Y-1.9287
T2
X2.4114Y-0.946
X2.4902Y-0.946
X2.5689Y-0.946
X2.7614Y-0.946
X2.8402Y-0.946
X2.9189Y-0.946
T3
X2.1701Y-1.6425
X2.2201Y-1.6425
X2.2701Y-1.6425
T4
X1.9071Y-0.7055
X1.9071Y-1.0055
X1.9098Y-1.1394
X1.9098Y-1.4394
X1.9591Y-1.8347
X1.9591Y-1.9332
X2.0071Y-0.7055
X2.0071Y-1.0055
X2.0098Y-1.1394
X2.0098Y-1.4394
X2.1071Y-0.7055
X2.1071Y-1.0055
X2.1098Y-1.1394
X2.1098Y-1.4394
X2.1228Y-1.8727
X2.2071Y-0.7055
X2.2071Y-1.0055
X2.2098Y-1.1394
X2.2098Y-1.4394
X2.2228Y-1.8727
X2.3098Y-1.1394
X2.3098Y-1.4394
X2.3228Y-1.8727
X2.4098Y-1.1394
X2.4098Y-1.4394
X2.4555Y-1.5774
X2.4555Y-1.6758
X2.5098Y-1.1394
X2.5098Y-1.4394
X2.6902Y-1.0614
X2.6902Y-1.3614
X2.8173Y-1.0614
X2.8173Y-1.3614
X2.9465Y-1.0622
X2.9465Y-1.3622
X3.0594Y-1.9913
X3.061Y-0.6961
X3.3594Y-1.9913
X3.361Y-0.6961
T5
X2.6988Y-1.6909
X2.7972Y-1.6909
X2.8957Y-1.6909
T6
X2.6941Y-1.5453
X2.7941Y-1.5453
X2.8941Y-1.5453
T7
X3.1351Y-0.8674
X3.1351Y-1.458
X3.1351Y-1.6548
X3.1351Y-1.8517
X3.4304Y-0.8674
X3.4304Y-1.458
X3.4304Y-1.6548
X3.4304Y-1.8517
M30
