%TF.GenerationSoftware,KiCad,Pcbnew,7.0.11-7.0.11~ubuntu22.04.1*%
%TF.CreationDate,2024-09-26T16:57:13+02:00*%
%TF.ProjectId,BAU-Elec,4241552d-456c-4656-932e-6b696361645f,rev?*%
%TF.SameCoordinates,Original*%
%TF.FileFunction,Legend,Top*%
%TF.FilePolarity,Positive*%
%FSLAX46Y46*%
G04 Gerber Fmt 4.6, Leading zero omitted, Abs format (unit mm)*
G04 Created by KiCad (PCBNEW 7.0.11-7.0.11~ubuntu22.04.1) date 2024-09-26 16:57:13*
%MOMM*%
%LPD*%
G01*
G04 APERTURE LIST*
%ADD10C,0.000000*%
%ADD11C,0.150000*%
%ADD12C,0.120000*%
%ADD13C,0.152400*%
G04 APERTURE END LIST*
D10*
G36*
X45355035Y-28633458D02*
G01*
X45471892Y-28752911D01*
X45623814Y-28752621D01*
X45623814Y-29423542D01*
X45623352Y-29423578D01*
X45623121Y-29423597D01*
X45622889Y-29423619D01*
X45621833Y-29423886D01*
X45620648Y-29424336D01*
X45619347Y-29424969D01*
X45618645Y-29425363D01*
X45617942Y-29425762D01*
X45614848Y-29427807D01*
X45611441Y-29430401D01*
X45607798Y-29433461D01*
X45603991Y-29436924D01*
X45600100Y-29440701D01*
X45596198Y-29444737D01*
X45592362Y-29448933D01*
X45588666Y-29453228D01*
X45585187Y-29457547D01*
X45581998Y-29461796D01*
X45579177Y-29465916D01*
X45576796Y-29469830D01*
X45576297Y-29470760D01*
X45575797Y-29471684D01*
X45575366Y-29472576D01*
X45574935Y-29473461D01*
X45571955Y-29480069D01*
X45569733Y-29485241D01*
X45568890Y-29487355D01*
X45568554Y-29488271D01*
X45568219Y-29489193D01*
X45567710Y-29490788D01*
X45567361Y-29492176D01*
X45567162Y-29493374D01*
X45567111Y-29494427D01*
X45567197Y-29495335D01*
X45567416Y-29496159D01*
X45567763Y-29496914D01*
X45567996Y-29497266D01*
X45568113Y-29497443D01*
X45568230Y-29497624D01*
X45568812Y-29498318D01*
X45569503Y-29499050D01*
X45569522Y-29499065D01*
X45569542Y-29499080D01*
X45569581Y-29499112D01*
X45569621Y-29499143D01*
X45569641Y-29499158D01*
X45569661Y-29499173D01*
X45569672Y-29499181D01*
X45569683Y-29499189D01*
X45569706Y-29499204D01*
X45569729Y-29499219D01*
X45569751Y-29499233D01*
X45569797Y-29499259D01*
X45569820Y-29499273D01*
X45569842Y-29499287D01*
X45569868Y-29499298D01*
X45569894Y-29499309D01*
X45569946Y-29499330D01*
X45569972Y-29499341D01*
X45569998Y-29499352D01*
X45570024Y-29499365D01*
X45570050Y-29499379D01*
X45570283Y-29499440D01*
X45570538Y-29499478D01*
X45570817Y-29499493D01*
X45571116Y-29499493D01*
X45571437Y-29499470D01*
X45571776Y-29499424D01*
X45571866Y-29499408D01*
X45571955Y-29499393D01*
X45572000Y-29499385D01*
X45572045Y-29499376D01*
X45572090Y-29499366D01*
X45572135Y-29499356D01*
X45572519Y-29499263D01*
X45572711Y-29499215D01*
X45572903Y-29499165D01*
X45573741Y-29498898D01*
X45573964Y-29498808D01*
X45574187Y-29498720D01*
X45574633Y-29498547D01*
X45575577Y-29498127D01*
X45576565Y-29497639D01*
X45577592Y-29497090D01*
X45577856Y-29496931D01*
X45578120Y-29496774D01*
X45578648Y-29496464D01*
X45579728Y-29495785D01*
X45580825Y-29495037D01*
X45581101Y-29494842D01*
X45581378Y-29494644D01*
X45581931Y-29494244D01*
X45582208Y-29494035D01*
X45582485Y-29493823D01*
X45583039Y-29493397D01*
X45583337Y-29493183D01*
X45583635Y-29492965D01*
X45584233Y-29492527D01*
X45584909Y-29492086D01*
X45585585Y-29491650D01*
X45587086Y-29490765D01*
X45587493Y-29490551D01*
X45587900Y-29490333D01*
X45588713Y-29489895D01*
X45590459Y-29489041D01*
X45591381Y-29488614D01*
X45591842Y-29488402D01*
X45592303Y-29488194D01*
X45593266Y-29487783D01*
X45594229Y-29487377D01*
X45596226Y-29486592D01*
X45598277Y-29485836D01*
X45599320Y-29485488D01*
X45600363Y-29485134D01*
X45602475Y-29484478D01*
X45603533Y-29484176D01*
X45604592Y-29483868D01*
X45606702Y-29483326D01*
X45608790Y-29482838D01*
X45610841Y-29482434D01*
X45611839Y-29482263D01*
X45612838Y-29482098D01*
X45631892Y-29479237D01*
X45630427Y-29452191D01*
X45630042Y-29446728D01*
X45629512Y-29441578D01*
X45628859Y-29436848D01*
X45628108Y-29432659D01*
X45627702Y-29430806D01*
X45627282Y-29429135D01*
X45626849Y-29427655D01*
X45626627Y-29427020D01*
X45626406Y-29426380D01*
X45625956Y-29425335D01*
X45625502Y-29424527D01*
X45625048Y-29423977D01*
X45624991Y-29423932D01*
X45624935Y-29423887D01*
X45624907Y-29423865D01*
X45624878Y-29423843D01*
X45624850Y-29423822D01*
X45624821Y-29423802D01*
X45624794Y-29423785D01*
X45624766Y-29423770D01*
X45624738Y-29423755D01*
X45624710Y-29423742D01*
X45624653Y-29423715D01*
X45624625Y-29423701D01*
X45624596Y-29423687D01*
X45623816Y-29423558D01*
X45623816Y-28752636D01*
X45634764Y-28752621D01*
X45634764Y-28752644D01*
X45634763Y-28752644D01*
X45634763Y-29502362D01*
X45633628Y-29502369D01*
X45632493Y-29502430D01*
X45631362Y-29502560D01*
X45630242Y-29502743D01*
X45629965Y-29502805D01*
X45629688Y-29502864D01*
X45629134Y-29502980D01*
X45628861Y-29503058D01*
X45628589Y-29503135D01*
X45628045Y-29503285D01*
X45626975Y-29503651D01*
X45626713Y-29503751D01*
X45626452Y-29503854D01*
X45625930Y-29504063D01*
X45624915Y-29504551D01*
X45623933Y-29505085D01*
X45622987Y-29505696D01*
X45622082Y-29506352D01*
X45621222Y-29507077D01*
X45620816Y-29507476D01*
X45620613Y-29507674D01*
X45620410Y-29507870D01*
X45620031Y-29508296D01*
X45619842Y-29508508D01*
X45619653Y-29508717D01*
X45619347Y-29509106D01*
X45619275Y-29509205D01*
X45619202Y-29509305D01*
X45619056Y-29509510D01*
X45618785Y-29509960D01*
X45618514Y-29510411D01*
X45618026Y-29511380D01*
X45617809Y-29511916D01*
X45617593Y-29512448D01*
X45617215Y-29513584D01*
X45616891Y-29514798D01*
X45616624Y-29516072D01*
X45616414Y-29517407D01*
X45616263Y-29518803D01*
X45616170Y-29520245D01*
X45616137Y-29521733D01*
X45616166Y-29523266D01*
X45616254Y-29524823D01*
X45616404Y-29526417D01*
X45616618Y-29528027D01*
X45616894Y-29529652D01*
X45619384Y-29543164D01*
X45621251Y-29553929D01*
X45622514Y-29562222D01*
X45623200Y-29568356D01*
X45623334Y-29570713D01*
X45623330Y-29572621D01*
X45623194Y-29574147D01*
X45622927Y-29575306D01*
X45622829Y-29575514D01*
X45622731Y-29575723D01*
X45622535Y-29576145D01*
X45622016Y-29576695D01*
X45621377Y-29577000D01*
X45620618Y-29577092D01*
X45620070Y-29576992D01*
X45619483Y-29576680D01*
X45618859Y-29576168D01*
X45618695Y-29575994D01*
X45618530Y-29575822D01*
X45618203Y-29575482D01*
X45617518Y-29574612D01*
X45616811Y-29573582D01*
X45615334Y-29571072D01*
X45613805Y-29568043D01*
X45612250Y-29564556D01*
X45610701Y-29560726D01*
X45609191Y-29556622D01*
X45607747Y-29552327D01*
X45606396Y-29547924D01*
X45605172Y-29543515D01*
X45604104Y-29539158D01*
X45603223Y-29534970D01*
X45602555Y-29531010D01*
X45602132Y-29527371D01*
X45601985Y-29524136D01*
X45601908Y-29521107D01*
X45601683Y-29518391D01*
X45601315Y-29516018D01*
X45600812Y-29513951D01*
X45600178Y-29512204D01*
X45599419Y-29510777D01*
X45599314Y-29510627D01*
X45599208Y-29510475D01*
X45599103Y-29510324D01*
X45598996Y-29510174D01*
X45598771Y-29509911D01*
X45598544Y-29509648D01*
X45598061Y-29509190D01*
X45597554Y-29508816D01*
X45597020Y-29508511D01*
X45596461Y-29508282D01*
X45596167Y-29508203D01*
X45596021Y-29508165D01*
X45595874Y-29508129D01*
X45595265Y-29508038D01*
X45594630Y-29508023D01*
X45593974Y-29508076D01*
X45593285Y-29508239D01*
X45592941Y-29508320D01*
X45592597Y-29508396D01*
X45592232Y-29508548D01*
X45591866Y-29508697D01*
X45591136Y-29508992D01*
X45589602Y-29509854D01*
X45587996Y-29510975D01*
X45587161Y-29511665D01*
X45586743Y-29512008D01*
X45586325Y-29512348D01*
X45585461Y-29513168D01*
X45584597Y-29513981D01*
X45582818Y-29515858D01*
X45580994Y-29517964D01*
X45579131Y-29520321D01*
X45577233Y-29522892D01*
X45575307Y-29525700D01*
X45573357Y-29528729D01*
X45571397Y-29531979D01*
X45569424Y-29535420D01*
X45567448Y-29539074D01*
X45565474Y-29542927D01*
X45563510Y-29546978D01*
X45561560Y-29551205D01*
X45559630Y-29555622D01*
X45557729Y-29560215D01*
X45555857Y-29564976D01*
X45553769Y-29570752D01*
X45551862Y-29576664D01*
X45550135Y-29582714D01*
X45548590Y-29588909D01*
X45547225Y-29595272D01*
X45546036Y-29601811D01*
X45545026Y-29608517D01*
X45544192Y-29615422D01*
X45543534Y-29622517D01*
X45543050Y-29629826D01*
X45542741Y-29637341D01*
X45542601Y-29645092D01*
X45542636Y-29653080D01*
X45542838Y-29661312D01*
X45543210Y-29669789D01*
X45543751Y-29678540D01*
X45544314Y-29687992D01*
X45544780Y-29698811D01*
X45545399Y-29723027D01*
X45545563Y-29748150D01*
X45545460Y-29760105D01*
X45545224Y-29771145D01*
X45544654Y-29797016D01*
X45544194Y-29829953D01*
X45543893Y-29865734D01*
X45543793Y-29900128D01*
X45543540Y-30039036D01*
X45543244Y-30384762D01*
X45544177Y-30497403D01*
X45545703Y-30540959D01*
X45545876Y-30541088D01*
X45545904Y-30541097D01*
X45545932Y-30541107D01*
X45545989Y-30541127D01*
X45546044Y-30541146D01*
X45546072Y-30541156D01*
X45546099Y-30541165D01*
X45546134Y-30541168D01*
X45546168Y-30541172D01*
X45546202Y-30541176D01*
X45546237Y-30541181D01*
X45546305Y-30541192D01*
X45546372Y-30541203D01*
X45546691Y-30541203D01*
X45546736Y-30541195D01*
X45546782Y-30541187D01*
X45546873Y-30541173D01*
X45546964Y-30541161D01*
X45547055Y-30541149D01*
X45547461Y-30541066D01*
X45547575Y-30541031D01*
X45547688Y-30540998D01*
X45547801Y-30540966D01*
X45547913Y-30540936D01*
X45548405Y-30540768D01*
X45549506Y-30540318D01*
X45550753Y-30539730D01*
X45552136Y-30538998D01*
X45553643Y-30538143D01*
X45555259Y-30537152D01*
X45556975Y-30536045D01*
X45558778Y-30534832D01*
X45560658Y-30533512D01*
X45562602Y-30532093D01*
X45564599Y-30530590D01*
X45565616Y-30529796D01*
X45566634Y-30528996D01*
X45567667Y-30528167D01*
X45568698Y-30527333D01*
X45572022Y-30524464D01*
X45575301Y-30521321D01*
X45581700Y-30514271D01*
X45587867Y-30506291D01*
X45593770Y-30497448D01*
X45599377Y-30487828D01*
X45604663Y-30477520D01*
X45609589Y-30466610D01*
X45614133Y-30455159D01*
X45618258Y-30443272D01*
X45621936Y-30431027D01*
X45625136Y-30418492D01*
X45627825Y-30405766D01*
X45629979Y-30392918D01*
X45631560Y-30380040D01*
X45632542Y-30367207D01*
X45632893Y-30354512D01*
X45633424Y-30337300D01*
X45634839Y-30316082D01*
X45636967Y-30292309D01*
X45639642Y-30267460D01*
X45642689Y-30243008D01*
X45645941Y-30220410D01*
X45649226Y-30201138D01*
X45652373Y-30186665D01*
X45654473Y-30179280D01*
X45657056Y-30171307D01*
X45660073Y-30162854D01*
X45663466Y-30154034D01*
X45671178Y-30135708D01*
X45679770Y-30117215D01*
X45688822Y-30099408D01*
X45697909Y-30083165D01*
X45702332Y-30075901D01*
X45706607Y-30069363D01*
X45710679Y-30063633D01*
X45714494Y-30058850D01*
X45730563Y-30040097D01*
X45719420Y-29994908D01*
X45714617Y-29974232D01*
X45710126Y-29952465D01*
X45705987Y-29929898D01*
X45702245Y-29906826D01*
X45698943Y-29883526D01*
X45696126Y-29860302D01*
X45693841Y-29837437D01*
X45692126Y-29815228D01*
X45690486Y-29792683D01*
X45688615Y-29772656D01*
X45686421Y-29754666D01*
X45683818Y-29738217D01*
X45680718Y-29722805D01*
X45677029Y-29707959D01*
X45672667Y-29693158D01*
X45667542Y-29677929D01*
X45663361Y-29665943D01*
X45661668Y-29660855D01*
X45660224Y-29656262D01*
X45659018Y-29652081D01*
X45658042Y-29648236D01*
X45657284Y-29644657D01*
X45656733Y-29641247D01*
X45656380Y-29637951D01*
X45656213Y-29634678D01*
X45656215Y-29633770D01*
X45673400Y-29633770D01*
X45673518Y-29635693D01*
X45673770Y-29637966D01*
X45674147Y-29640560D01*
X45674643Y-29643437D01*
X45675254Y-29646572D01*
X45676787Y-29653530D01*
X45678691Y-29661183D01*
X45680917Y-29669339D01*
X45683411Y-29677761D01*
X45686124Y-29686222D01*
X45688946Y-29694416D01*
X45691758Y-29702061D01*
X45694484Y-29708989D01*
X45697051Y-29715039D01*
X45699382Y-29720028D01*
X45701405Y-29723805D01*
X45702281Y-29725186D01*
X45703048Y-29726193D01*
X45703212Y-29726347D01*
X45703375Y-29726503D01*
X45703539Y-29726660D01*
X45703702Y-29726818D01*
X45703737Y-29726836D01*
X45703773Y-29726854D01*
X45703808Y-29726873D01*
X45703844Y-29726892D01*
X45703914Y-29726931D01*
X45703984Y-29726971D01*
X45704234Y-29727024D01*
X45704463Y-29727017D01*
X45704680Y-29726986D01*
X45704886Y-29726933D01*
X45705083Y-29726872D01*
X45705106Y-29726861D01*
X45705128Y-29726850D01*
X45705174Y-29726829D01*
X45705197Y-29726818D01*
X45705220Y-29726806D01*
X45705243Y-29726794D01*
X45705254Y-29726787D01*
X45705266Y-29726780D01*
X45705288Y-29726768D01*
X45705310Y-29726756D01*
X45705353Y-29726731D01*
X45705396Y-29726705D01*
X45705418Y-29726693D01*
X45705439Y-29726681D01*
X45705460Y-29726666D01*
X45705480Y-29726651D01*
X45705521Y-29726620D01*
X45705561Y-29726589D01*
X45705581Y-29726574D01*
X45705601Y-29726559D01*
X45705621Y-29726542D01*
X45705640Y-29726523D01*
X45705678Y-29726487D01*
X45705717Y-29726450D01*
X45705735Y-29726432D01*
X45705754Y-29726414D01*
X45705771Y-29726397D01*
X45705789Y-29726378D01*
X45705806Y-29726360D01*
X45705824Y-29726341D01*
X45705841Y-29726321D01*
X45705859Y-29726301D01*
X45705893Y-29726261D01*
X45705910Y-29726241D01*
X45705927Y-29726221D01*
X45705943Y-29726201D01*
X45705960Y-29726180D01*
X45705976Y-29726159D01*
X45705992Y-29726138D01*
X45706009Y-29726116D01*
X45706025Y-29726094D01*
X45706143Y-29725911D01*
X45706156Y-29725887D01*
X45706169Y-29725862D01*
X45706195Y-29725811D01*
X45706221Y-29725760D01*
X45706235Y-29725736D01*
X45706248Y-29725712D01*
X45706272Y-29725656D01*
X45706296Y-29725602D01*
X45706343Y-29725499D01*
X45706354Y-29725468D01*
X45706365Y-29725438D01*
X45706386Y-29725380D01*
X45706407Y-29725323D01*
X45706417Y-29725293D01*
X45706427Y-29725262D01*
X45706446Y-29725204D01*
X45706464Y-29725144D01*
X45706500Y-29725026D01*
X45706561Y-29724766D01*
X45706584Y-29724636D01*
X45706596Y-29724571D01*
X45706609Y-29724507D01*
X45706626Y-29724367D01*
X45706635Y-29724297D01*
X45706645Y-29724232D01*
X45706668Y-29723942D01*
X45706673Y-29723796D01*
X45706675Y-29723720D01*
X45706679Y-29723645D01*
X45706675Y-29723332D01*
X45706662Y-29723019D01*
X45706637Y-29722691D01*
X45706626Y-29722605D01*
X45706616Y-29722519D01*
X45706597Y-29722348D01*
X45706583Y-29722262D01*
X45706570Y-29722175D01*
X45706544Y-29721997D01*
X45706512Y-29721824D01*
X45706481Y-29721646D01*
X45706441Y-29721466D01*
X45706421Y-29721377D01*
X45706403Y-29721287D01*
X45706356Y-29721104D01*
X45706333Y-29721012D01*
X45706311Y-29720921D01*
X45706285Y-29720825D01*
X45706259Y-29720731D01*
X45706206Y-29720547D01*
X45706088Y-29720158D01*
X45705956Y-29719769D01*
X45705884Y-29719570D01*
X45705848Y-29719471D01*
X45705811Y-29719372D01*
X45705500Y-29718243D01*
X45705170Y-29716442D01*
X45704470Y-29711010D01*
X45703736Y-29703373D01*
X45702988Y-29693875D01*
X45702250Y-29682797D01*
X45701546Y-29670468D01*
X45700896Y-29657200D01*
X45700322Y-29643292D01*
X45699254Y-29620434D01*
X45697875Y-29601071D01*
X45696152Y-29585080D01*
X45695155Y-29578297D01*
X45694060Y-29572300D01*
X45692866Y-29567082D01*
X45691571Y-29562611D01*
X45690165Y-29558880D01*
X45688653Y-29555859D01*
X45687024Y-29553540D01*
X45685279Y-29551915D01*
X45683409Y-29550946D01*
X45682414Y-29550783D01*
X45681916Y-29550702D01*
X45681426Y-29550626D01*
X45681426Y-29520130D01*
X45681418Y-29520182D01*
X45681418Y-29550625D01*
X45681426Y-29550626D01*
X45681426Y-29550640D01*
X45681321Y-29550663D01*
X45681214Y-29550686D01*
X45681000Y-29550824D01*
X45680973Y-29550850D01*
X45680946Y-29550876D01*
X45680893Y-29550930D01*
X45680840Y-29550984D01*
X45680813Y-29551011D01*
X45680787Y-29551037D01*
X45680569Y-29551342D01*
X45680516Y-29551439D01*
X45680462Y-29551536D01*
X45680408Y-29551631D01*
X45680354Y-29551724D01*
X45680138Y-29552189D01*
X45679711Y-29553341D01*
X45679286Y-29554783D01*
X45679080Y-29555644D01*
X45678872Y-29556500D01*
X45678469Y-29558468D01*
X45678080Y-29560681D01*
X45677706Y-29563114D01*
X45677354Y-29565747D01*
X45677024Y-29568562D01*
X45676718Y-29571545D01*
X45676442Y-29574688D01*
X45676196Y-29577954D01*
X45675984Y-29581333D01*
X45675811Y-29584812D01*
X45674489Y-29612828D01*
X45673421Y-29632206D01*
X45673400Y-29633770D01*
X45656215Y-29633770D01*
X45656220Y-29631344D01*
X45656392Y-29627880D01*
X45656718Y-29624211D01*
X45657189Y-29620236D01*
X45658519Y-29611119D01*
X45659302Y-29605152D01*
X45659878Y-29598729D01*
X45660256Y-29591931D01*
X45660445Y-29584851D01*
X45660449Y-29577572D01*
X45660273Y-29570210D01*
X45659428Y-29555516D01*
X45658770Y-29548390D01*
X45657964Y-29541531D01*
X45657017Y-29535015D01*
X45655938Y-29528942D01*
X45654734Y-29523403D01*
X45653411Y-29518498D01*
X45651976Y-29514286D01*
X45650439Y-29510899D01*
X45649886Y-29509953D01*
X45649268Y-29509060D01*
X45648928Y-29508647D01*
X45648758Y-29508439D01*
X45648589Y-29508229D01*
X45647851Y-29507458D01*
X45647057Y-29506726D01*
X45646216Y-29506054D01*
X45645771Y-29505748D01*
X45645549Y-29505594D01*
X45645325Y-29505436D01*
X45644395Y-29504879D01*
X45643424Y-29504376D01*
X45642421Y-29503926D01*
X45641387Y-29503537D01*
X45640856Y-29503366D01*
X45640592Y-29503282D01*
X45640326Y-29503201D01*
X45639243Y-29502919D01*
X45638140Y-29502705D01*
X45637861Y-29502660D01*
X45637583Y-29502618D01*
X45637025Y-29502537D01*
X45635895Y-29502430D01*
X45634763Y-29502385D01*
X45634763Y-29502362D01*
X45634764Y-29502362D01*
X45634764Y-29446987D01*
X45646985Y-29446987D01*
X45647053Y-29449253D01*
X45647444Y-29454045D01*
X45648164Y-29459187D01*
X45649215Y-29464657D01*
X45650592Y-29470448D01*
X45652299Y-29476559D01*
X45654328Y-29482975D01*
X45656684Y-29489689D01*
X45659362Y-29496678D01*
X45662364Y-29503949D01*
X45664910Y-29509777D01*
X45667403Y-29515210D01*
X45669774Y-29520138D01*
X45671965Y-29524433D01*
X45673915Y-29527981D01*
X45675557Y-29530674D01*
X45676242Y-29531651D01*
X45676535Y-29532007D01*
X45676682Y-29532186D01*
X45676829Y-29532368D01*
X45676948Y-29532481D01*
X45677067Y-29532593D01*
X45677186Y-29532705D01*
X45677306Y-29532818D01*
X45677352Y-29532836D01*
X45677397Y-29532854D01*
X45677488Y-29532892D01*
X45677579Y-29532931D01*
X45677670Y-29532971D01*
X45678105Y-29532780D01*
X45678538Y-29532246D01*
X45679398Y-29530194D01*
X45680238Y-29526944D01*
X45681046Y-29522679D01*
X45681418Y-29520182D01*
X45681418Y-29520108D01*
X45681426Y-29520056D01*
X45681802Y-29517536D01*
X45682511Y-29511708D01*
X45683707Y-29498600D01*
X45684533Y-29484623D01*
X45684891Y-29471073D01*
X45684867Y-29464856D01*
X45684687Y-29459233D01*
X45684346Y-29454357D01*
X45683827Y-29450390D01*
X45682133Y-29441273D01*
X45681346Y-29437413D01*
X45680583Y-29434002D01*
X45679831Y-29430996D01*
X45679084Y-29428395D01*
X45678328Y-29426144D01*
X45677550Y-29424237D01*
X45676741Y-29422657D01*
X45676317Y-29422006D01*
X45675891Y-29421360D01*
X45674987Y-29420330D01*
X45674501Y-29419931D01*
X45674259Y-29419733D01*
X45674016Y-29419537D01*
X45673493Y-29419254D01*
X45673231Y-29419111D01*
X45672971Y-29418965D01*
X45672405Y-29418781D01*
X45672122Y-29418687D01*
X45671838Y-29418591D01*
X45670605Y-29418385D01*
X45669937Y-29418353D01*
X45669601Y-29418337D01*
X45669276Y-29418317D01*
X45669276Y-28752583D01*
X45669266Y-28752583D01*
X45669266Y-29418316D01*
X45669276Y-29418317D01*
X45669276Y-29418385D01*
X45668513Y-29418423D01*
X45668097Y-29418477D01*
X45667889Y-29418506D01*
X45667785Y-29418521D01*
X45667681Y-29418537D01*
X45667238Y-29418630D01*
X45667016Y-29418678D01*
X45666795Y-29418728D01*
X45665856Y-29418988D01*
X45665611Y-29419072D01*
X45665367Y-29419154D01*
X45664878Y-29419316D01*
X45663867Y-29419705D01*
X45662829Y-29420155D01*
X45661772Y-29420658D01*
X45660708Y-29421208D01*
X45660175Y-29421502D01*
X45659909Y-29421651D01*
X45659642Y-29421803D01*
X45658581Y-29422428D01*
X45658321Y-29422599D01*
X45658060Y-29422767D01*
X45657538Y-29423100D01*
X45656516Y-29423817D01*
X45655524Y-29424549D01*
X45654570Y-29425320D01*
X45653662Y-29426106D01*
X45652644Y-29427113D01*
X45652177Y-29427667D01*
X45651709Y-29428227D01*
X45651286Y-29428830D01*
X45651073Y-29429133D01*
X45650861Y-29429440D01*
X45650094Y-29430752D01*
X45649415Y-29432179D01*
X45648818Y-29433697D01*
X45648307Y-29435315D01*
X45647877Y-29437023D01*
X45647532Y-29438832D01*
X45647271Y-29440739D01*
X45647092Y-29442730D01*
X45646996Y-29444813D01*
X45646985Y-29446987D01*
X45634764Y-29446987D01*
X45634764Y-28752644D01*
X45669266Y-28752583D01*
X45669266Y-28752522D01*
X45669276Y-28752522D01*
X45673627Y-28752514D01*
X45708113Y-28752316D01*
X45708113Y-29759945D01*
X45707965Y-29759976D01*
X45707574Y-29760479D01*
X45707405Y-29760964D01*
X45707234Y-29761448D01*
X45706696Y-29764698D01*
X45706341Y-29769551D01*
X45706162Y-29775837D01*
X45706296Y-29792012D01*
X45707030Y-29811810D01*
X45708298Y-29833805D01*
X45710030Y-29856617D01*
X45712163Y-29878804D01*
X45714621Y-29898991D01*
X45716119Y-29909100D01*
X45717906Y-29920101D01*
X45722083Y-29943348D01*
X45726615Y-29965916D01*
X45728846Y-29976063D01*
X45730965Y-29984982D01*
X45740866Y-30024670D01*
X45758506Y-30024670D01*
X45761239Y-30024655D01*
X45763684Y-30024594D01*
X45764229Y-30024562D01*
X45764774Y-30024534D01*
X45765864Y-30024479D01*
X45767794Y-30024304D01*
X45769490Y-30024052D01*
X45770230Y-30023891D01*
X45770600Y-30023808D01*
X45770970Y-30023724D01*
X45771302Y-30023631D01*
X45771468Y-30023583D01*
X45771634Y-30023533D01*
X45772250Y-30023312D01*
X45772822Y-30023060D01*
X45773350Y-30022793D01*
X45773839Y-30022496D01*
X45773895Y-30022453D01*
X45773950Y-30022412D01*
X45774062Y-30022332D01*
X45774174Y-30022251D01*
X45774231Y-30022210D01*
X45774287Y-30022168D01*
X45774338Y-30022122D01*
X45774390Y-30022078D01*
X45774492Y-30021992D01*
X45774595Y-30021906D01*
X45774647Y-30021862D01*
X45774699Y-30021817D01*
X45775075Y-30021420D01*
X45775118Y-30021371D01*
X45775161Y-30021320D01*
X45775246Y-30021217D01*
X45775418Y-30021008D01*
X45775733Y-30020542D01*
X45775804Y-30020421D01*
X45775875Y-30020298D01*
X45775947Y-30020176D01*
X45776019Y-30020054D01*
X45776278Y-30019528D01*
X45776726Y-30018360D01*
X45777097Y-30017041D01*
X45777405Y-30015545D01*
X45777671Y-30013882D01*
X45777888Y-30010861D01*
X45777791Y-30007191D01*
X45777377Y-30002880D01*
X45776652Y-29997937D01*
X45775622Y-29992382D01*
X45774291Y-29986225D01*
X45772658Y-29979473D01*
X45770732Y-29972149D01*
X45768513Y-29964268D01*
X45766009Y-29955845D01*
X45760148Y-29937405D01*
X45753182Y-29916951D01*
X45745141Y-29894581D01*
X45741231Y-29883519D01*
X45737271Y-29871510D01*
X45733371Y-29858944D01*
X45729638Y-29846188D01*
X45726184Y-29833645D01*
X45723117Y-29821698D01*
X45720544Y-29810711D01*
X45718577Y-29801083D01*
X45716935Y-29792530D01*
X45715295Y-29784611D01*
X45713702Y-29777493D01*
X45712201Y-29771359D01*
X45710831Y-29766377D01*
X45709643Y-29762707D01*
X45709126Y-29761418D01*
X45708672Y-29760517D01*
X45708285Y-29760029D01*
X45708115Y-29759953D01*
X45708115Y-28752323D01*
X45751960Y-28752079D01*
X45781056Y-28751660D01*
X45781056Y-28751629D01*
X45781083Y-28751629D01*
X45816083Y-28751126D01*
X45859425Y-28749852D01*
X45871228Y-28749134D01*
X45875346Y-28748387D01*
X45874734Y-28747410D01*
X45873838Y-28746347D01*
X45872943Y-28745289D01*
X45866053Y-28737858D01*
X45855164Y-28726567D01*
X45840754Y-28711918D01*
X45823308Y-28694401D01*
X45803311Y-28674496D01*
X45757586Y-28629490D01*
X45639828Y-28514309D01*
X46052171Y-28514309D01*
X46171963Y-28632275D01*
X46387950Y-28845036D01*
X46484143Y-28939846D01*
X46481683Y-29339321D01*
X46358210Y-29218487D01*
X46234738Y-29097653D01*
X46233523Y-29305386D01*
X46232304Y-29513111D01*
X46246751Y-29525860D01*
X46251927Y-29530674D01*
X46261151Y-29539502D01*
X46289674Y-29567211D01*
X46328196Y-29604969D01*
X46372586Y-29648724D01*
X46483977Y-29758839D01*
X46481684Y-30158055D01*
X46358212Y-30037754D01*
X46234740Y-29917439D01*
X46233422Y-30123173D01*
X46232106Y-30328900D01*
X46358042Y-30453198D01*
X46483979Y-30577496D01*
X46482831Y-30777928D01*
X46481683Y-30978360D01*
X46232535Y-30732899D01*
X46232342Y-30940998D01*
X46232150Y-31149105D01*
X46358155Y-31272572D01*
X46484158Y-31396046D01*
X46482920Y-31595578D01*
X46481683Y-31795101D01*
X46457429Y-31772389D01*
X46440100Y-31755726D01*
X46410849Y-31727162D01*
X46373763Y-31690686D01*
X46332923Y-31650311D01*
X46232671Y-31550946D01*
X46231498Y-31676335D01*
X46230326Y-31801739D01*
X46138819Y-31801739D01*
X46103289Y-31801846D01*
X46074195Y-31802159D01*
X46054536Y-31802624D01*
X46049184Y-31802899D01*
X46047318Y-31803181D01*
X46048522Y-31804515D01*
X46049725Y-31805844D01*
X46056626Y-31812924D01*
X46081971Y-31838383D01*
X46119479Y-31875698D01*
X46165280Y-31920994D01*
X46283240Y-32037358D01*
X45898915Y-32037663D01*
X45787219Y-31925465D01*
X45707453Y-31844799D01*
X45682505Y-31819157D01*
X45672532Y-31808422D01*
X45672143Y-31808110D01*
X45671752Y-31807960D01*
X45671557Y-31807883D01*
X45671363Y-31807804D01*
X45668618Y-31807232D01*
X45664263Y-31806691D01*
X45658269Y-31806187D01*
X45641217Y-31805279D01*
X45617196Y-31804509D01*
X45585942Y-31803868D01*
X45547190Y-31803356D01*
X45500670Y-31802952D01*
X45446120Y-31802655D01*
X45288329Y-31802578D01*
X45240327Y-31802990D01*
X45222697Y-31803662D01*
X45222844Y-31803861D01*
X45222991Y-31804058D01*
X45223286Y-31804455D01*
X45225014Y-31806401D01*
X45231656Y-31813488D01*
X45256053Y-31838795D01*
X45292159Y-31875744D01*
X45336249Y-31920521D01*
X45449797Y-32035450D01*
X45249156Y-32036724D01*
X45048514Y-32038006D01*
X44933861Y-31920918D01*
X44819211Y-31803830D01*
X44597621Y-31802784D01*
X44511668Y-31802609D01*
X44441447Y-31802914D01*
X44394190Y-31803624D01*
X44381434Y-31804119D01*
X44377135Y-31804684D01*
X44377326Y-31804956D01*
X44377517Y-31805225D01*
X44377900Y-31805760D01*
X44379876Y-31808049D01*
X44387692Y-31816494D01*
X44401049Y-31830517D01*
X44420418Y-31850613D01*
X44479054Y-31910908D01*
X44567343Y-32001263D01*
X44602938Y-32037648D01*
X44411212Y-32037442D01*
X44219487Y-32037228D01*
X43982190Y-31803936D01*
X43786646Y-31803524D01*
X43577872Y-31802731D01*
X43577536Y-31802721D01*
X43577201Y-31802713D01*
X43576529Y-31802700D01*
X43575238Y-31802716D01*
X43574619Y-31802749D01*
X43574309Y-31802764D01*
X43574000Y-31802777D01*
X43572823Y-31802861D01*
X43572547Y-31802894D01*
X43572270Y-31802924D01*
X43571715Y-31802983D01*
X43570677Y-31803135D01*
X43569722Y-31803318D01*
X43569505Y-31803373D01*
X43569288Y-31803424D01*
X43568854Y-31803524D01*
X43568078Y-31803768D01*
X43567401Y-31804028D01*
X43567113Y-31804176D01*
X43566970Y-31804248D01*
X43566826Y-31804318D01*
X43566710Y-31804397D01*
X43566594Y-31804474D01*
X43566478Y-31804552D01*
X43566363Y-31804631D01*
X43566018Y-31804959D01*
X43565890Y-31805127D01*
X43565795Y-31805302D01*
X43565778Y-31805351D01*
X43565762Y-31805396D01*
X43565746Y-31805440D01*
X43565730Y-31805485D01*
X43565723Y-31805531D01*
X43565715Y-31805576D01*
X43565707Y-31805619D01*
X43565703Y-31805640D01*
X43565699Y-31805661D01*
X43565700Y-31805686D01*
X43565701Y-31805711D01*
X43565703Y-31805760D01*
X43565705Y-31805859D01*
X43565745Y-31806050D01*
X43566390Y-31806950D01*
X43568066Y-31808873D01*
X43574296Y-31815525D01*
X43584004Y-31825573D01*
X43596766Y-31838581D01*
X43629740Y-31871754D01*
X43669804Y-31911572D01*
X43710467Y-31952061D01*
X43745070Y-31987042D01*
X43769951Y-32012768D01*
X43777602Y-32021000D01*
X43781449Y-32025509D01*
X43790139Y-32037640D01*
X43621167Y-32037564D01*
X43452195Y-32037495D01*
X43394307Y-31987950D01*
X43272404Y-31884205D01*
X43023591Y-31673268D01*
X42956584Y-31616505D01*
X42956341Y-31413700D01*
X42956099Y-31210911D01*
X43029965Y-31284291D01*
X43087346Y-31341015D01*
X43132817Y-31385411D01*
X43163142Y-31414334D01*
X43171614Y-31422024D01*
X43175088Y-31424671D01*
X43175391Y-31420445D01*
X43175669Y-31408352D01*
X43176146Y-31363942D01*
X43176468Y-31298214D01*
X43176587Y-31217953D01*
X43176587Y-31058621D01*
X43335347Y-31058621D01*
X43567797Y-31058621D01*
X43570290Y-31136898D01*
X43571070Y-31157040D01*
X43572098Y-31175701D01*
X43573399Y-31192982D01*
X43575001Y-31208973D01*
X43576930Y-31223767D01*
X43579213Y-31237446D01*
X43581874Y-31250111D01*
X43584942Y-31261853D01*
X43588444Y-31272763D01*
X43592406Y-31282925D01*
X43596854Y-31292439D01*
X43601815Y-31301388D01*
X43607314Y-31309880D01*
X43613377Y-31317990D01*
X43620036Y-31325817D01*
X43627312Y-31333447D01*
X43633744Y-31339619D01*
X43640151Y-31345242D01*
X43646584Y-31350354D01*
X43653103Y-31354962D01*
X43659766Y-31359089D01*
X43666628Y-31362751D01*
X43673747Y-31365979D01*
X43681176Y-31368779D01*
X43688977Y-31371174D01*
X43697201Y-31373188D01*
X43705910Y-31374844D01*
X43715157Y-31376149D01*
X43725003Y-31377133D01*
X43735501Y-31377804D01*
X43746709Y-31378193D01*
X43758683Y-31378308D01*
X43773484Y-31378224D01*
X43785685Y-31377934D01*
X43795767Y-31377385D01*
X43800164Y-31376980D01*
X43804209Y-31376492D01*
X43807967Y-31375904D01*
X43809730Y-31375554D01*
X43811494Y-31375210D01*
X43813174Y-31374795D01*
X43814852Y-31374386D01*
X43818101Y-31373440D01*
X43819700Y-31372905D01*
X43821297Y-31372364D01*
X43824507Y-31371151D01*
X43831198Y-31368252D01*
X43832715Y-31367520D01*
X44010079Y-31367520D01*
X44120638Y-31367520D01*
X44195975Y-31409413D01*
X44249674Y-31438999D01*
X44266392Y-31448002D01*
X44272988Y-31451306D01*
X44273074Y-31451245D01*
X44273085Y-31451227D01*
X44273095Y-31451209D01*
X44273106Y-31451190D01*
X44273116Y-31451171D01*
X44273127Y-31451152D01*
X44273137Y-31451132D01*
X44273158Y-31451092D01*
X44273200Y-31450936D01*
X44273241Y-31450779D01*
X44273324Y-31450466D01*
X44273404Y-31449955D01*
X44273484Y-31449444D01*
X44273638Y-31448056D01*
X44273923Y-31444256D01*
X44274171Y-31439221D01*
X44274375Y-31433132D01*
X44274531Y-31426152D01*
X44274628Y-31418446D01*
X44274663Y-31410191D01*
X44274663Y-31369061D01*
X44232966Y-31349552D01*
X44216759Y-31341793D01*
X44209662Y-31338261D01*
X44203461Y-31335087D01*
X44198331Y-31332356D01*
X44194440Y-31330166D01*
X44191964Y-31328595D01*
X44191801Y-31328462D01*
X44191637Y-31328328D01*
X44191474Y-31328193D01*
X44191310Y-31328060D01*
X44191251Y-31327979D01*
X44191192Y-31327895D01*
X44191133Y-31327810D01*
X44191075Y-31327725D01*
X44191085Y-31327690D01*
X44191096Y-31327655D01*
X44191107Y-31327619D01*
X44191119Y-31327580D01*
X44191194Y-31327487D01*
X44191213Y-31327464D01*
X44191232Y-31327439D01*
X44191251Y-31327414D01*
X44191270Y-31327389D01*
X44191887Y-31326847D01*
X44192143Y-31326661D01*
X44192397Y-31326478D01*
X44192906Y-31326115D01*
X44194302Y-31325199D01*
X44195178Y-31324661D01*
X44196053Y-31324116D01*
X44198142Y-31322888D01*
X44203240Y-31319996D01*
X44209422Y-31316632D01*
X44216519Y-31312886D01*
X44224358Y-31308857D01*
X44232770Y-31304623D01*
X44274663Y-31283818D01*
X44274663Y-31244107D01*
X44274579Y-31236012D01*
X44274336Y-31228520D01*
X44273951Y-31221768D01*
X44273442Y-31215908D01*
X44272822Y-31211087D01*
X44272477Y-31209118D01*
X44272109Y-31207463D01*
X44271720Y-31206143D01*
X44271517Y-31205658D01*
X44271416Y-31205415D01*
X44271313Y-31205174D01*
X44271209Y-31205026D01*
X44271103Y-31204880D01*
X44270892Y-31204586D01*
X44270838Y-31204546D01*
X44270784Y-31204507D01*
X44270757Y-31204488D01*
X44270730Y-31204469D01*
X44270703Y-31204451D01*
X44270676Y-31204434D01*
X44270663Y-31204431D01*
X44270649Y-31204427D01*
X44270622Y-31204420D01*
X44270594Y-31204412D01*
X44270567Y-31204403D01*
X44270540Y-31204395D01*
X44270512Y-31204387D01*
X44270485Y-31204379D01*
X44270459Y-31204373D01*
X44270459Y-31204357D01*
X44269654Y-31204571D01*
X44268134Y-31205166D01*
X44263108Y-31207493D01*
X44255694Y-31211171D01*
X44246207Y-31216023D01*
X44234957Y-31221905D01*
X44222264Y-31228642D01*
X44208439Y-31236073D01*
X44193801Y-31244046D01*
X44121344Y-31283734D01*
X44010079Y-31283734D01*
X44010079Y-31367520D01*
X43832715Y-31367520D01*
X43839388Y-31364300D01*
X43847182Y-31360134D01*
X43854590Y-31355717D01*
X43861622Y-31351033D01*
X43868285Y-31346043D01*
X43874585Y-31340718D01*
X43880532Y-31335034D01*
X43886134Y-31328961D01*
X43891400Y-31322468D01*
X43896338Y-31315533D01*
X43900956Y-31308117D01*
X43905263Y-31300198D01*
X43909264Y-31291745D01*
X43912972Y-31282719D01*
X43916392Y-31273114D01*
X43919533Y-31262883D01*
X43922406Y-31251988D01*
X43925013Y-31240429D01*
X43927369Y-31228161D01*
X43929478Y-31215153D01*
X43931349Y-31201382D01*
X43932992Y-31186817D01*
X43934413Y-31171421D01*
X43935620Y-31155186D01*
X43936621Y-31138058D01*
X43937430Y-31120022D01*
X43938489Y-31081105D01*
X43938861Y-31038189D01*
X43938611Y-30991055D01*
X43937274Y-30868351D01*
X43937274Y-30868344D01*
X43646231Y-30868679D01*
X43345269Y-30869007D01*
X43335347Y-30869007D01*
X43335347Y-31058621D01*
X43176587Y-31058621D01*
X43176587Y-31011242D01*
X43066342Y-30903965D01*
X42956097Y-30796696D01*
X42956097Y-30390957D01*
X43062010Y-30496609D01*
X43103474Y-30537747D01*
X43138081Y-30571652D01*
X43162215Y-30594822D01*
X43169222Y-30601277D01*
X43172253Y-30603726D01*
X43172286Y-30603711D01*
X43172319Y-30603696D01*
X43172351Y-30603680D01*
X43172384Y-30603664D01*
X43172448Y-30603630D01*
X43172513Y-30603596D01*
X43172763Y-30603047D01*
X43173241Y-30600659D01*
X43173689Y-30596585D01*
X43174107Y-30590847D01*
X43174849Y-30574437D01*
X43175465Y-30551594D01*
X43175950Y-30522465D01*
X43176301Y-30487210D01*
X43176512Y-30445973D01*
X43176585Y-30398930D01*
X43176585Y-30192662D01*
X42955630Y-29976071D01*
X42956967Y-29776600D01*
X42958302Y-29577130D01*
X42997990Y-29615223D01*
X43046422Y-29662281D01*
X43107131Y-29721913D01*
X43176585Y-29790501D01*
X43176585Y-29375286D01*
X43082879Y-29282330D01*
X43011840Y-29212223D01*
X42986451Y-29187428D01*
X42972636Y-29174214D01*
X42956097Y-29159069D01*
X42956097Y-28754956D01*
X43018937Y-28817005D01*
X43076916Y-28873829D01*
X43128075Y-28923329D01*
X43174378Y-28967610D01*
X43175559Y-28859982D01*
X43176737Y-28752362D01*
X43271470Y-28752362D01*
X43308234Y-28752095D01*
X43338309Y-28751385D01*
X43349866Y-28750897D01*
X43358588Y-28750332D01*
X43364089Y-28749714D01*
X43364443Y-28749630D01*
X43364798Y-28749547D01*
X43365508Y-28749386D01*
X43365625Y-28749300D01*
X43365743Y-28749215D01*
X43365861Y-28749132D01*
X43365979Y-28749050D01*
X43365374Y-28748120D01*
X43364510Y-28747085D01*
X43363646Y-28746044D01*
X43357047Y-28738720D01*
X43346640Y-28727551D01*
X43332888Y-28713032D01*
X43297192Y-28675862D01*
X43253642Y-28631085D01*
X43141526Y-28516430D01*
X43340958Y-28515225D01*
X43492587Y-28514302D01*
X43492587Y-29166874D01*
X43478367Y-29166943D01*
X43466935Y-29167233D01*
X43462054Y-29167492D01*
X43457617Y-29167866D01*
X43453545Y-29168354D01*
X43449753Y-29168972D01*
X43446158Y-29169743D01*
X43442673Y-29170681D01*
X43439221Y-29171788D01*
X43437467Y-29172447D01*
X43435713Y-29173100D01*
X43433892Y-29173866D01*
X43432070Y-29174626D01*
X43428206Y-29176373D01*
X43419486Y-29180622D01*
X43413230Y-29183956D01*
X43407174Y-29187619D01*
X43401316Y-29191593D01*
X43395653Y-29195889D01*
X43390191Y-29200512D01*
X43384921Y-29205456D01*
X43379843Y-29210728D01*
X43374962Y-29216328D01*
X43370274Y-29222256D01*
X43365777Y-29228505D01*
X43361470Y-29235089D01*
X43357352Y-29242001D01*
X43353425Y-29249249D01*
X43349684Y-29256832D01*
X43346131Y-29264744D01*
X43342763Y-29272992D01*
X43339720Y-29281041D01*
X43336991Y-29288784D01*
X43334555Y-29296337D01*
X43332408Y-29303807D01*
X43330531Y-29311314D01*
X43328910Y-29318959D01*
X43327534Y-29326847D01*
X43326390Y-29335095D01*
X43325463Y-29343808D01*
X43324738Y-29353093D01*
X43324206Y-29363072D01*
X43323849Y-29373837D01*
X43323659Y-29385510D01*
X43323619Y-29398197D01*
X43323939Y-29427044D01*
X43324402Y-29449398D01*
X43324988Y-29467396D01*
X43325816Y-29481999D01*
X43326357Y-29488308D01*
X43327002Y-29494130D01*
X43327767Y-29499562D01*
X43328663Y-29504734D01*
X43329711Y-29509762D01*
X43330918Y-29514752D01*
X43333884Y-29525120D01*
X43337679Y-29536785D01*
X43341323Y-29547009D01*
X43345196Y-29556721D01*
X43349318Y-29565930D01*
X43353701Y-29574665D01*
X43358365Y-29582936D01*
X43363320Y-29590771D01*
X43368584Y-29598164D01*
X43374173Y-29605160D01*
X43380099Y-29611767D01*
X43386378Y-29618000D01*
X43393029Y-29623890D01*
X43400061Y-29629429D01*
X43407496Y-29634663D01*
X43415347Y-29639592D01*
X43423627Y-29644238D01*
X43432353Y-29648632D01*
X43433884Y-29649337D01*
X43435416Y-29650036D01*
X43436914Y-29650672D01*
X43438412Y-29651303D01*
X43441393Y-29652439D01*
X43444415Y-29653447D01*
X43445970Y-29653892D01*
X43447526Y-29654332D01*
X43449154Y-29654723D01*
X43450781Y-29655110D01*
X43452508Y-29655448D01*
X43454234Y-29655781D01*
X43457938Y-29656361D01*
X43461943Y-29656842D01*
X43464125Y-29657033D01*
X43466305Y-29657231D01*
X43471076Y-29657559D01*
X43476308Y-29657811D01*
X43482054Y-29658001D01*
X43488368Y-29658139D01*
X43502909Y-29658268D01*
X43518662Y-29658268D01*
X43531256Y-29658047D01*
X43536584Y-29657826D01*
X43541379Y-29657505D01*
X43545725Y-29657078D01*
X43549714Y-29656529D01*
X43551570Y-29656183D01*
X43553425Y-29655842D01*
X43555188Y-29655423D01*
X43556950Y-29655011D01*
X43560370Y-29654011D01*
X43563775Y-29652829D01*
X43565510Y-29652149D01*
X43567246Y-29651463D01*
X43570870Y-29649899D01*
X43578927Y-29646077D01*
X43587844Y-29641484D01*
X43596198Y-29636647D01*
X43600188Y-29634114D01*
X43604066Y-29631466D01*
X43607842Y-29628712D01*
X43611525Y-29625828D01*
X43615126Y-29622815D01*
X43618655Y-29619641D01*
X43622119Y-29616307D01*
X43623824Y-29614541D01*
X43625531Y-29612782D01*
X43628897Y-29609074D01*
X43632229Y-29605152D01*
X43635539Y-29601017D01*
X43638833Y-29596646D01*
X43642121Y-29592030D01*
X43645413Y-29587162D01*
X43652051Y-29576588D01*
X43658822Y-29564823D01*
X43665806Y-29551762D01*
X43673081Y-29537289D01*
X43680722Y-29521313D01*
X43688809Y-29503712D01*
X43697419Y-29484387D01*
X43710761Y-29454624D01*
X43722491Y-29429776D01*
X43732876Y-29409390D01*
X43737652Y-29400738D01*
X43742194Y-29393032D01*
X43746537Y-29386227D01*
X43750712Y-29380253D01*
X43754758Y-29375073D01*
X43758706Y-29370617D01*
X43762591Y-29366833D01*
X43766444Y-29363667D01*
X43770302Y-29361058D01*
X43774197Y-29358960D01*
X43776230Y-29358052D01*
X43778287Y-29357251D01*
X43780362Y-29356541D01*
X43782456Y-29355938D01*
X43783509Y-29355682D01*
X43784562Y-29355419D01*
X43785621Y-29355220D01*
X43786681Y-29355015D01*
X43790930Y-29354489D01*
X43795178Y-29354336D01*
X43799399Y-29354557D01*
X43803559Y-29355145D01*
X43805597Y-29355613D01*
X43807635Y-29356076D01*
X43809616Y-29356723D01*
X43811597Y-29357365D01*
X43813508Y-29358180D01*
X43815419Y-29358990D01*
X43819069Y-29360951D01*
X43819947Y-29361497D01*
X43820386Y-29361772D01*
X43820824Y-29362049D01*
X43822526Y-29363232D01*
X43823348Y-29363862D01*
X43824170Y-29364498D01*
X43824963Y-29365167D01*
X43825757Y-29365841D01*
X43827279Y-29367253D01*
X43828734Y-29368748D01*
X43829427Y-29369537D01*
X43830121Y-29370320D01*
X43831433Y-29371968D01*
X43832667Y-29373677D01*
X43833243Y-29374576D01*
X43833821Y-29375470D01*
X43835686Y-29378941D01*
X43837327Y-29382847D01*
X43838738Y-29387120D01*
X43839923Y-29391713D01*
X43840876Y-29396550D01*
X43841597Y-29401600D01*
X43842087Y-29406788D01*
X43842343Y-29412068D01*
X43842362Y-29417393D01*
X43842145Y-29422680D01*
X43841687Y-29427899D01*
X43840989Y-29432980D01*
X43840050Y-29437870D01*
X43838868Y-29442517D01*
X43837439Y-29446865D01*
X43835766Y-29450848D01*
X43835019Y-29452343D01*
X43834206Y-29453816D01*
X43833331Y-29455265D01*
X43832862Y-29455982D01*
X43832394Y-29456692D01*
X43831399Y-29458104D01*
X43830873Y-29458797D01*
X43830348Y-29459484D01*
X43828093Y-29462162D01*
X43825652Y-29464703D01*
X43823044Y-29467106D01*
X43820294Y-29469349D01*
X43817422Y-29471424D01*
X43814450Y-29473301D01*
X43811400Y-29474995D01*
X43809848Y-29475717D01*
X43808297Y-29476445D01*
X43805157Y-29477681D01*
X43803584Y-29478207D01*
X43802010Y-29478672D01*
X43800439Y-29479061D01*
X43799655Y-29479228D01*
X43798873Y-29479390D01*
X43797314Y-29479649D01*
X43795766Y-29479832D01*
X43795000Y-29479886D01*
X43794616Y-29479915D01*
X43794234Y-29479946D01*
X43792718Y-29479977D01*
X43790246Y-29480030D01*
X43787394Y-29480191D01*
X43784262Y-29480450D01*
X43782606Y-29480615D01*
X43780949Y-29480786D01*
X43777562Y-29481190D01*
X43774197Y-29481663D01*
X43770962Y-29482182D01*
X43769458Y-29482457D01*
X43767954Y-29482739D01*
X43754082Y-29485508D01*
X43756470Y-29658558D01*
X43785134Y-29658230D01*
X43791932Y-29657994D01*
X43798653Y-29657429D01*
X43805295Y-29656559D01*
X43811850Y-29655369D01*
X43818205Y-29653897D01*
X43818205Y-29707066D01*
X43816998Y-29780926D01*
X43815791Y-29854786D01*
X43335343Y-29854786D01*
X43335343Y-30048817D01*
X43461020Y-30048817D01*
X43461020Y-30262684D01*
X43434561Y-30273327D01*
X43427069Y-30276615D01*
X43419695Y-30280400D01*
X43412467Y-30284649D01*
X43405402Y-30289341D01*
X43398530Y-30294453D01*
X43391875Y-30299954D01*
X43385459Y-30305813D01*
X43379305Y-30312023D01*
X43373444Y-30318547D01*
X43367894Y-30325352D01*
X43362683Y-30332424D01*
X43357833Y-30339733D01*
X43353366Y-30347248D01*
X43349312Y-30354954D01*
X43345692Y-30362812D01*
X43342530Y-30370808D01*
X43340031Y-30377919D01*
X43337546Y-30385426D01*
X43335139Y-30393086D01*
X43332875Y-30400685D01*
X43330821Y-30408001D01*
X43329039Y-30414791D01*
X43327603Y-30420849D01*
X43326567Y-30425938D01*
X43325534Y-30433689D01*
X43324729Y-30443821D01*
X43323762Y-30469830D01*
X43323598Y-30501126D01*
X43324160Y-30534886D01*
X43325373Y-30568302D01*
X43327166Y-30598545D01*
X43329461Y-30622792D01*
X43330773Y-30631794D01*
X43332183Y-30638234D01*
X43336671Y-30652546D01*
X43341630Y-30665982D01*
X43347079Y-30678578D01*
X43353030Y-30690327D01*
X43359503Y-30701252D01*
X43366517Y-30711384D01*
X43374081Y-30720723D01*
X43382218Y-30729283D01*
X43390942Y-30737088D01*
X43400269Y-30744152D01*
X43410218Y-30750492D01*
X43420802Y-30756131D01*
X43432040Y-30761067D01*
X43443947Y-30765324D01*
X43456542Y-30768925D01*
X43469840Y-30771878D01*
X43473706Y-30772503D01*
X43478570Y-30773068D01*
X43491334Y-30774044D01*
X43508214Y-30774823D01*
X43529294Y-30775395D01*
X43554656Y-30775753D01*
X43584382Y-30775906D01*
X43618554Y-30775853D01*
X43657254Y-30775608D01*
X43818209Y-30774220D01*
X43843653Y-30762295D01*
X43846369Y-30760960D01*
X43849225Y-30759449D01*
X43852193Y-30757756D01*
X43853722Y-30756839D01*
X43855252Y-30755917D01*
X43858378Y-30753949D01*
X43861550Y-30751866D01*
X43867932Y-30747410D01*
X43874211Y-30742695D01*
X43877251Y-30740277D01*
X43880198Y-30737858D01*
X43883025Y-30735432D01*
X43885708Y-30733021D01*
X43888226Y-30730656D01*
X43890555Y-30728344D01*
X43895295Y-30723210D01*
X43899861Y-30717717D01*
X43904252Y-30711888D01*
X43908467Y-30705716D01*
X43916356Y-30692440D01*
X43923514Y-30677952D01*
X43929925Y-30662342D01*
X43935570Y-30645710D01*
X43937274Y-30639553D01*
X43937274Y-30639561D01*
X43940434Y-30628132D01*
X43944501Y-30609684D01*
X43947751Y-30590466D01*
X43950169Y-30570546D01*
X43951743Y-30550022D01*
X43952450Y-30528973D01*
X43952279Y-30507489D01*
X43951209Y-30485653D01*
X43949223Y-30463551D01*
X43946311Y-30441265D01*
X43943711Y-30425968D01*
X43940644Y-30411358D01*
X43937110Y-30397435D01*
X43933102Y-30384175D01*
X43928614Y-30371601D01*
X43923644Y-30359677D01*
X43918187Y-30348408D01*
X43912236Y-30337788D01*
X43905791Y-30327809D01*
X43898842Y-30318455D01*
X43891390Y-30309727D01*
X43883427Y-30301617D01*
X43874951Y-30294110D01*
X43865954Y-30287205D01*
X43856434Y-30280903D01*
X43846387Y-30275181D01*
X43822617Y-30262669D01*
X43461022Y-30262669D01*
X43461022Y-30048802D01*
X43815796Y-30048802D01*
X43818207Y-30200932D01*
X43937270Y-30200932D01*
X43937270Y-29707051D01*
X43818207Y-29707051D01*
X43818207Y-29653881D01*
X43818318Y-29653859D01*
X43824690Y-29652058D01*
X43830962Y-29649952D01*
X43837130Y-29647557D01*
X43843190Y-29644871D01*
X43849135Y-29641903D01*
X43854962Y-29638653D01*
X43860667Y-29635128D01*
X43866242Y-29631329D01*
X43871686Y-29627255D01*
X43876994Y-29622921D01*
X43882159Y-29618328D01*
X43887175Y-29613476D01*
X43892045Y-29608380D01*
X43896756Y-29603031D01*
X43901307Y-29597439D01*
X43905692Y-29591610D01*
X43909909Y-29585553D01*
X43913951Y-29579258D01*
X43917813Y-29572743D01*
X43921490Y-29566006D01*
X43924979Y-29559056D01*
X43931370Y-29544514D01*
X43936951Y-29529156D01*
X43941683Y-29513028D01*
X43943638Y-29504757D01*
X43945382Y-29495823D01*
X43946913Y-29486294D01*
X43948231Y-29476261D01*
X43949334Y-29465809D01*
X43950217Y-29455006D01*
X43951314Y-29432705D01*
X43951506Y-29410015D01*
X43951258Y-29398724D01*
X43950776Y-29387585D01*
X43950059Y-29376675D01*
X43949103Y-29366062D01*
X43947905Y-29355847D01*
X43946469Y-29346112D01*
X43942618Y-29326138D01*
X43937853Y-29307385D01*
X43932185Y-29289868D01*
X43925618Y-29273617D01*
X43922001Y-29265950D01*
X43918166Y-29258610D01*
X43914111Y-29251576D01*
X43909836Y-29244862D01*
X43905345Y-29238468D01*
X43900635Y-29232395D01*
X43895714Y-29226651D01*
X43890578Y-29221218D01*
X43885230Y-29216107D01*
X43879670Y-29211331D01*
X43873900Y-29206860D01*
X43867922Y-29202732D01*
X43861737Y-29198925D01*
X43855342Y-29195454D01*
X43848744Y-29192311D01*
X43841942Y-29189495D01*
X43834937Y-29187023D01*
X43827729Y-29184880D01*
X43820319Y-29183071D01*
X43812710Y-29181599D01*
X43804904Y-29180462D01*
X43796900Y-29179669D01*
X43788701Y-29179219D01*
X43780306Y-29179097D01*
X43769478Y-29179463D01*
X43758984Y-29180416D01*
X43748814Y-29181958D01*
X43738959Y-29184101D01*
X43729409Y-29186856D01*
X43720154Y-29190213D01*
X43711186Y-29194187D01*
X43702496Y-29198780D01*
X43694073Y-29204014D01*
X43685910Y-29209874D01*
X43677994Y-29216366D01*
X43670317Y-29223500D01*
X43662871Y-29231297D01*
X43655642Y-29239743D01*
X43648627Y-29248844D01*
X43641812Y-29258618D01*
X43637179Y-29266049D01*
X43631552Y-29275814D01*
X43625149Y-29287510D01*
X43618188Y-29300717D01*
X43610884Y-29315014D01*
X43603453Y-29329991D01*
X43596112Y-29345227D01*
X43589076Y-29360295D01*
X43575526Y-29389439D01*
X43563042Y-29415554D01*
X43553010Y-29435772D01*
X43549346Y-29442791D01*
X43546816Y-29447262D01*
X43544259Y-29451168D01*
X43541556Y-29454838D01*
X43538718Y-29458294D01*
X43535752Y-29461529D01*
X43532668Y-29464527D01*
X43529477Y-29467305D01*
X43526187Y-29469845D01*
X43522807Y-29472164D01*
X43521078Y-29473213D01*
X43519349Y-29474255D01*
X43515818Y-29476109D01*
X43514023Y-29476924D01*
X43512229Y-29477734D01*
X43508586Y-29479130D01*
X43506744Y-29479707D01*
X43504902Y-29480290D01*
X43501187Y-29481213D01*
X43497449Y-29481915D01*
X43495572Y-29482137D01*
X43493697Y-29482365D01*
X43489939Y-29482594D01*
X43486189Y-29482579D01*
X43482455Y-29482319D01*
X43478743Y-29481823D01*
X43476906Y-29481454D01*
X43475068Y-29481091D01*
X43471434Y-29480114D01*
X43467854Y-29478894D01*
X43464337Y-29477436D01*
X43460890Y-29475735D01*
X43457524Y-29473782D01*
X43454251Y-29471592D01*
X43451075Y-29469151D01*
X43448010Y-29466465D01*
X43445063Y-29463528D01*
X43443655Y-29461934D01*
X43442246Y-29460347D01*
X43439566Y-29456913D01*
X43439053Y-29456149D01*
X43438796Y-29455766D01*
X43438540Y-29455380D01*
X43438058Y-29454536D01*
X43437577Y-29453686D01*
X43435837Y-29449841D01*
X43434352Y-29445446D01*
X43433119Y-29440586D01*
X43432143Y-29435337D01*
X43431422Y-29429783D01*
X43430958Y-29424000D01*
X43430752Y-29418072D01*
X43430804Y-29412091D01*
X43431117Y-29406109D01*
X43431691Y-29400235D01*
X43432526Y-29394528D01*
X43433625Y-29389080D01*
X43434987Y-29383969D01*
X43436614Y-29379277D01*
X43438508Y-29375088D01*
X43439574Y-29373089D01*
X43440663Y-29371174D01*
X43441777Y-29369343D01*
X43442919Y-29367588D01*
X43443509Y-29366756D01*
X43444098Y-29365918D01*
X43445315Y-29364331D01*
X43446570Y-29362812D01*
X43447873Y-29361378D01*
X43449223Y-29360005D01*
X43449927Y-29359359D01*
X43450631Y-29358708D01*
X43451362Y-29358100D01*
X43452094Y-29357487D01*
X43453620Y-29356327D01*
X43454416Y-29355781D01*
X43454814Y-29355507D01*
X43455212Y-29355229D01*
X43456874Y-29354199D01*
X43458609Y-29353230D01*
X43459516Y-29352773D01*
X43460421Y-29352322D01*
X43462319Y-29351460D01*
X43464299Y-29350666D01*
X43466368Y-29349919D01*
X43468531Y-29349224D01*
X43470793Y-29348576D01*
X43473158Y-29347973D01*
X43475628Y-29347424D01*
X43478207Y-29346913D01*
X43480902Y-29346447D01*
X43483714Y-29346012D01*
X43489709Y-29345280D01*
X43496222Y-29344677D01*
X43503291Y-29344197D01*
X43538195Y-29342175D01*
X43538195Y-29166920D01*
X43492598Y-29166920D01*
X43492598Y-28514355D01*
X43540402Y-28514065D01*
X43658902Y-28633381D01*
X43777381Y-28752552D01*
X43997887Y-28752552D01*
X44009715Y-28752537D01*
X44009715Y-29361096D01*
X44010989Y-29399678D01*
X44012263Y-29438267D01*
X44047541Y-29437222D01*
X44146762Y-29434048D01*
X44210702Y-29431904D01*
X44184245Y-29440136D01*
X44169274Y-29444622D01*
X44148070Y-29450734D01*
X44123456Y-29457684D01*
X44098254Y-29464665D01*
X44051945Y-29477467D01*
X44024207Y-29485379D01*
X44009690Y-29489788D01*
X44012267Y-29551693D01*
X44107825Y-29578778D01*
X44145218Y-29589596D01*
X44176390Y-29599057D01*
X44198084Y-29606121D01*
X44204360Y-29608441D01*
X44207045Y-29609776D01*
X44207228Y-29609982D01*
X44207247Y-29610007D01*
X44207266Y-29610032D01*
X44207285Y-29610056D01*
X44207304Y-29610080D01*
X44207342Y-29610127D01*
X44207381Y-29610173D01*
X44207503Y-29610371D01*
X44207548Y-29610456D01*
X44207571Y-29610501D01*
X44207595Y-29610546D01*
X44207610Y-29610587D01*
X44207626Y-29610627D01*
X44207642Y-29610670D01*
X44207657Y-29610714D01*
X44207678Y-29610791D01*
X44207680Y-29610799D01*
X44207682Y-29610808D01*
X44207685Y-29610826D01*
X44207687Y-29610835D01*
X44207689Y-29610845D01*
X44207690Y-29610856D01*
X44207692Y-29610867D01*
X44207698Y-29610936D01*
X44207698Y-29611004D01*
X44207697Y-29611015D01*
X44207696Y-29611026D01*
X44207694Y-29611045D01*
X44207692Y-29611063D01*
X44207691Y-29611072D01*
X44207690Y-29611080D01*
X44207677Y-29611149D01*
X44207654Y-29611218D01*
X44207627Y-29611279D01*
X44207622Y-29611287D01*
X44207617Y-29611295D01*
X44207608Y-29611309D01*
X44207604Y-29611317D01*
X44207599Y-29611324D01*
X44207595Y-29611332D01*
X44207591Y-29611340D01*
X44207569Y-29611373D01*
X44207564Y-29611381D01*
X44207559Y-29611388D01*
X44207554Y-29611395D01*
X44207551Y-29611398D01*
X44207549Y-29611401D01*
X44207499Y-29611454D01*
X44207493Y-29611460D01*
X44207486Y-29611466D01*
X44207472Y-29611477D01*
X44207458Y-29611489D01*
X44207444Y-29611500D01*
X44207427Y-29611514D01*
X44207411Y-29611527D01*
X44207395Y-29611540D01*
X44207379Y-29611553D01*
X44207363Y-29611565D01*
X44207347Y-29611576D01*
X44207314Y-29611599D01*
X44207295Y-29611610D01*
X44207275Y-29611621D01*
X44207236Y-29611642D01*
X44207216Y-29611653D01*
X44207197Y-29611665D01*
X44207187Y-29611671D01*
X44207177Y-29611677D01*
X44207167Y-29611684D01*
X44207158Y-29611691D01*
X44206977Y-29611760D01*
X44206950Y-29611768D01*
X44206924Y-29611775D01*
X44206872Y-29611790D01*
X44206820Y-29611805D01*
X44206794Y-29611812D01*
X44206769Y-29611821D01*
X44206534Y-29611874D01*
X44206277Y-29611912D01*
X44205994Y-29611943D01*
X44205687Y-29611966D01*
X44205357Y-29611973D01*
X44205004Y-29611966D01*
X44204627Y-29611950D01*
X44204226Y-29611927D01*
X44203805Y-29611889D01*
X44203693Y-29611878D01*
X44203582Y-29611865D01*
X44203471Y-29611852D01*
X44203416Y-29611844D01*
X44203360Y-29611836D01*
X44202895Y-29611775D01*
X44202408Y-29611706D01*
X44202345Y-29611692D01*
X44202282Y-29611680D01*
X44202156Y-29611657D01*
X44202029Y-29611636D01*
X44201903Y-29611615D01*
X44201375Y-29611523D01*
X44201306Y-29611507D01*
X44201237Y-29611491D01*
X44201100Y-29611463D01*
X44200825Y-29611409D01*
X44200259Y-29611286D01*
X44200112Y-29611257D01*
X44199965Y-29611224D01*
X44199671Y-29611157D01*
X44195630Y-29610577D01*
X44188330Y-29609921D01*
X44178181Y-29609196D01*
X44165600Y-29608441D01*
X44134780Y-29606892D01*
X44099167Y-29605481D01*
X44009690Y-29602352D01*
X44009720Y-29603276D01*
X44009720Y-29952008D01*
X44012255Y-30033581D01*
X44064627Y-30034832D01*
X44116999Y-30036076D01*
X44114735Y-30056164D01*
X44114478Y-30058239D01*
X44114176Y-30060307D01*
X44113453Y-30064366D01*
X44112599Y-30068249D01*
X44111638Y-30071850D01*
X44111130Y-30073506D01*
X44110606Y-30075054D01*
X44110072Y-30076489D01*
X44109801Y-30077134D01*
X44109530Y-30077786D01*
X44109258Y-30078355D01*
X44109122Y-30078641D01*
X44108986Y-30078930D01*
X44108443Y-30079914D01*
X44107901Y-30080716D01*
X44107768Y-30080874D01*
X44107636Y-30081031D01*
X44107371Y-30081341D01*
X44107291Y-30081409D01*
X44107212Y-30081475D01*
X44107133Y-30081541D01*
X44107054Y-30081608D01*
X44107003Y-30081640D01*
X44106951Y-30081674D01*
X44106846Y-30081743D01*
X44106639Y-30081883D01*
X44105507Y-30082424D01*
X44104006Y-30082974D01*
X44103080Y-30083249D01*
X44102154Y-30083531D01*
X44099976Y-30084088D01*
X44097495Y-30084637D01*
X44094735Y-30085194D01*
X44091717Y-30085728D01*
X44088473Y-30086239D01*
X44085019Y-30086735D01*
X44081380Y-30087208D01*
X44077582Y-30087658D01*
X44069598Y-30088444D01*
X44067529Y-30088615D01*
X44065461Y-30088780D01*
X44063359Y-30088935D01*
X44061257Y-30089085D01*
X44052914Y-30089680D01*
X44044930Y-30090359D01*
X44037493Y-30091107D01*
X44030795Y-30091885D01*
X44025021Y-30092678D01*
X44020363Y-30093457D01*
X44017010Y-30094197D01*
X44016728Y-30094287D01*
X44016446Y-30094375D01*
X44015881Y-30094548D01*
X44015151Y-30094891D01*
X44014582Y-30095486D01*
X44014313Y-30096013D01*
X44014044Y-30096546D01*
X44013066Y-30099896D01*
X44012217Y-30104702D01*
X44011502Y-30110714D01*
X44010922Y-30117665D01*
X44010478Y-30125317D01*
X44010018Y-30141743D01*
X44010140Y-30157994D01*
X44010426Y-30165425D01*
X44010867Y-30172062D01*
X44011462Y-30177655D01*
X44012215Y-30181965D01*
X44013133Y-30184735D01*
X44013650Y-30185467D01*
X44014210Y-30185711D01*
X44014645Y-30185696D01*
X44015093Y-30185635D01*
X44015208Y-30185608D01*
X44015322Y-30185582D01*
X44015549Y-30185536D01*
X44016015Y-30185398D01*
X44016480Y-30185231D01*
X44016944Y-30185032D01*
X44017174Y-30184919D01*
X44017289Y-30184864D01*
X44017403Y-30184811D01*
X44017517Y-30184744D01*
X44017630Y-30184678D01*
X44017855Y-30184552D01*
X44017911Y-30184515D01*
X44017967Y-30184480D01*
X44018077Y-30184410D01*
X44018188Y-30184341D01*
X44018243Y-30184306D01*
X44018298Y-30184269D01*
X44018405Y-30184195D01*
X44018512Y-30184120D01*
X44018620Y-30184043D01*
X44018727Y-30183964D01*
X44018829Y-30183884D01*
X44018930Y-30183803D01*
X44019032Y-30183721D01*
X44019133Y-30183636D01*
X44019182Y-30183595D01*
X44019231Y-30183553D01*
X44019280Y-30183511D01*
X44019328Y-30183467D01*
X44019425Y-30183380D01*
X44019522Y-30183293D01*
X44019568Y-30183249D01*
X44019614Y-30183206D01*
X44019704Y-30183116D01*
X44019887Y-30182934D01*
X44019928Y-30182886D01*
X44019970Y-30182839D01*
X44020054Y-30182747D01*
X44020138Y-30182655D01*
X44020180Y-30182608D01*
X44020222Y-30182560D01*
X44020526Y-30182164D01*
X44020661Y-30181968D01*
X44020729Y-30181869D01*
X44020796Y-30181767D01*
X44020974Y-30181561D01*
X44021009Y-30181533D01*
X44021044Y-30181506D01*
X44021080Y-30181480D01*
X44021115Y-30181455D01*
X44021186Y-30181405D01*
X44021221Y-30181380D01*
X44021256Y-30181355D01*
X44022118Y-30180920D01*
X44023362Y-30180470D01*
X44024962Y-30180012D01*
X44026900Y-30179554D01*
X44029151Y-30179081D01*
X44031695Y-30178608D01*
X44034506Y-30178135D01*
X44037566Y-30177670D01*
X44040852Y-30177212D01*
X44048010Y-30176350D01*
X44055802Y-30175564D01*
X44064051Y-30174893D01*
X44081746Y-30173436D01*
X44089276Y-30172642D01*
X44096003Y-30171757D01*
X44101987Y-30170781D01*
X44107278Y-30169682D01*
X44111941Y-30168431D01*
X44116027Y-30167012D01*
X44119593Y-30165409D01*
X44121148Y-30164495D01*
X44122702Y-30163586D01*
X44124055Y-30162553D01*
X44125407Y-30161526D01*
X44127762Y-30159214D01*
X44128399Y-30158416D01*
X44129037Y-30157612D01*
X44129037Y-30203625D01*
X44105275Y-30203968D01*
X44094943Y-30204441D01*
X44085555Y-30205136D01*
X44077044Y-30206066D01*
X44069346Y-30207234D01*
X44062390Y-30208653D01*
X44056113Y-30210347D01*
X44050446Y-30212300D01*
X44045325Y-30214550D01*
X44040679Y-30217106D01*
X44036444Y-30219967D01*
X44032553Y-30223156D01*
X44028943Y-30226689D01*
X44027554Y-30228199D01*
X44026158Y-30229809D01*
X44024764Y-30231488D01*
X44023381Y-30233235D01*
X44022015Y-30235028D01*
X44020680Y-30236866D01*
X44019381Y-30238720D01*
X44018132Y-30240582D01*
X44017535Y-30241512D01*
X44016938Y-30242436D01*
X44015811Y-30244274D01*
X44015284Y-30245176D01*
X44014758Y-30246083D01*
X44013791Y-30247830D01*
X44013354Y-30248676D01*
X44012915Y-30249516D01*
X44012530Y-30250327D01*
X44012145Y-30251133D01*
X44011814Y-30251897D01*
X44011485Y-30252667D01*
X44011215Y-30253370D01*
X44010947Y-30254078D01*
X44009780Y-30258030D01*
X44008778Y-30262638D01*
X44007941Y-30267819D01*
X44007264Y-30273457D01*
X44006751Y-30279454D01*
X44006398Y-30285725D01*
X44006205Y-30292157D01*
X44006175Y-30298664D01*
X44006301Y-30305134D01*
X44006587Y-30311482D01*
X44007027Y-30317593D01*
X44007628Y-30323384D01*
X44008383Y-30328755D01*
X44009293Y-30333592D01*
X44009717Y-30335263D01*
X44009717Y-30701664D01*
X44010991Y-30740246D01*
X44011342Y-30748333D01*
X44011830Y-30755696D01*
X44012438Y-30762226D01*
X44013148Y-30767788D01*
X44013943Y-30772290D01*
X44014369Y-30774105D01*
X44014807Y-30775608D01*
X44015259Y-30776783D01*
X44015725Y-30777630D01*
X44015842Y-30777752D01*
X44015960Y-30777874D01*
X44016077Y-30777997D01*
X44016196Y-30778118D01*
X44016434Y-30778233D01*
X44016675Y-30778248D01*
X44023780Y-30777798D01*
X44039866Y-30777005D01*
X44089434Y-30774830D01*
X44157786Y-30771992D01*
X44098254Y-30797802D01*
X44073996Y-30808415D01*
X44051955Y-30818249D01*
X44034554Y-30826199D01*
X44024230Y-30831173D01*
X44009736Y-30838749D01*
X44011002Y-30879345D01*
X44012269Y-30919934D01*
X44142682Y-30921093D01*
X44142682Y-30957424D01*
X44118611Y-30957478D01*
X44099486Y-30957692D01*
X44084534Y-30958142D01*
X44072981Y-30958889D01*
X44068238Y-30959400D01*
X44066146Y-30959703D01*
X44064053Y-30960011D01*
X44062193Y-30960367D01*
X44060332Y-30960728D01*
X44056975Y-30961560D01*
X44053887Y-30962529D01*
X44052427Y-30963079D01*
X44050969Y-30963635D01*
X44045260Y-30966290D01*
X44043745Y-30967115D01*
X44042229Y-30967945D01*
X44040777Y-30968850D01*
X44039324Y-30969761D01*
X44036540Y-30971737D01*
X44035206Y-30972806D01*
X44033871Y-30973881D01*
X44031317Y-30976193D01*
X44028872Y-30978688D01*
X44026530Y-30981373D01*
X44024291Y-30984249D01*
X44022147Y-30987316D01*
X44020095Y-30990582D01*
X44018132Y-30994053D01*
X44016255Y-30997746D01*
X44014456Y-31001644D01*
X44012736Y-31005772D01*
X44011088Y-31010136D01*
X44009509Y-31014729D01*
X44008359Y-31019337D01*
X44007487Y-31025174D01*
X44006880Y-31032063D01*
X44006528Y-31039837D01*
X44006419Y-31048321D01*
X44006541Y-31057339D01*
X44007430Y-31076268D01*
X44009104Y-31095272D01*
X44010207Y-31104359D01*
X44011468Y-31112942D01*
X44012881Y-31120846D01*
X44014428Y-31127896D01*
X44016102Y-31133923D01*
X44017890Y-31138737D01*
X44020415Y-31144101D01*
X44023066Y-31149037D01*
X44024445Y-31151348D01*
X44025864Y-31153561D01*
X44026595Y-31154611D01*
X44027323Y-31155667D01*
X44028828Y-31157673D01*
X44030379Y-31159581D01*
X44031178Y-31160487D01*
X44031577Y-31160940D01*
X44031977Y-31161389D01*
X44033631Y-31163105D01*
X44034483Y-31163911D01*
X44035336Y-31164723D01*
X44037099Y-31166249D01*
X44038918Y-31167683D01*
X44039389Y-31168017D01*
X44039859Y-31168355D01*
X44040801Y-31169033D01*
X44042746Y-31170285D01*
X44043752Y-31170875D01*
X44044758Y-31171460D01*
X44045279Y-31171737D01*
X44045800Y-31172012D01*
X44046839Y-31172558D01*
X44048995Y-31173565D01*
X44051222Y-31174496D01*
X44053527Y-31175343D01*
X44055909Y-31176113D01*
X44057141Y-31176454D01*
X44057756Y-31176625D01*
X44058371Y-31176800D01*
X44059646Y-31177106D01*
X44060283Y-31177260D01*
X44060919Y-31177418D01*
X44063553Y-31177960D01*
X44066277Y-31178425D01*
X44071999Y-31179150D01*
X44078108Y-31179608D01*
X44084622Y-31179806D01*
X44113703Y-31180119D01*
X44114972Y-31139325D01*
X44116240Y-31098538D01*
X44095006Y-31098538D01*
X44089781Y-31098431D01*
X44084950Y-31098111D01*
X44080502Y-31097569D01*
X44076430Y-31096798D01*
X44072726Y-31095799D01*
X44071009Y-31095219D01*
X44070196Y-31094892D01*
X44069382Y-31094570D01*
X44067845Y-31093861D01*
X44066392Y-31093098D01*
X44066051Y-31092888D01*
X44065710Y-31092679D01*
X44065028Y-31092266D01*
X44063750Y-31091366D01*
X44062556Y-31090405D01*
X44061446Y-31089390D01*
X44060418Y-31088307D01*
X44059945Y-31087728D01*
X44059472Y-31087155D01*
X44058606Y-31085934D01*
X44058214Y-31085292D01*
X44057822Y-31084645D01*
X44057645Y-31084310D01*
X44057469Y-31083972D01*
X44057116Y-31083294D01*
X44056489Y-31081868D01*
X44055937Y-31080380D01*
X44055464Y-31078823D01*
X44055066Y-31077191D01*
X44054741Y-31075489D01*
X44054314Y-31071873D01*
X44054175Y-31067959D01*
X44054206Y-31066159D01*
X44054303Y-31064366D01*
X44054459Y-31062596D01*
X44054677Y-31060856D01*
X44054947Y-31059155D01*
X44055274Y-31057492D01*
X44055647Y-31055889D01*
X44056071Y-31054356D01*
X44056536Y-31052899D01*
X44057044Y-31051525D01*
X44057181Y-31051208D01*
X44057317Y-31050887D01*
X44057589Y-31050244D01*
X44057882Y-31049659D01*
X44058175Y-31049069D01*
X44058791Y-31048016D01*
X44059435Y-31047070D01*
X44059773Y-31046668D01*
X44059942Y-31046466D01*
X44060111Y-31046261D01*
X44060460Y-31045932D01*
X44060635Y-31045767D01*
X44060811Y-31045597D01*
X44061406Y-31045280D01*
X44061704Y-31045120D01*
X44062003Y-31044957D01*
X44063956Y-31044369D01*
X44069945Y-31043316D01*
X44078366Y-31042446D01*
X44088820Y-31041752D01*
X44114192Y-31040882D01*
X44142815Y-31040684D01*
X44171445Y-31041157D01*
X44196829Y-31042279D01*
X44207293Y-31043080D01*
X44215729Y-31044033D01*
X44221734Y-31045132D01*
X44222224Y-31045290D01*
X44222715Y-31045444D01*
X44223696Y-31045750D01*
X44224898Y-31046398D01*
X44225598Y-31047070D01*
X44226250Y-31047871D01*
X44226855Y-31048794D01*
X44227410Y-31049824D01*
X44227917Y-31050961D01*
X44228379Y-31052189D01*
X44229153Y-31054913D01*
X44229743Y-31057911D01*
X44230143Y-31061131D01*
X44230359Y-31064480D01*
X44230387Y-31067906D01*
X44230235Y-31071324D01*
X44229897Y-31074688D01*
X44229382Y-31077908D01*
X44228684Y-31080929D01*
X44227809Y-31083668D01*
X44227301Y-31084919D01*
X44226754Y-31086071D01*
X44226163Y-31087117D01*
X44225525Y-31088063D01*
X44224846Y-31088879D01*
X44224122Y-31089566D01*
X44223374Y-31090130D01*
X44222466Y-31090695D01*
X44221938Y-31090978D01*
X44221674Y-31091121D01*
X44221409Y-31091267D01*
X44220217Y-31091832D01*
X44218901Y-31092396D01*
X44218189Y-31092681D01*
X44217833Y-31092822D01*
X44217476Y-31092961D01*
X44215953Y-31093510D01*
X44214343Y-31094044D01*
X44212659Y-31094563D01*
X44211787Y-31094806D01*
X44211350Y-31094927D01*
X44210913Y-31095044D01*
X44209122Y-31095509D01*
X44207293Y-31095944D01*
X44206368Y-31096145D01*
X44205443Y-31096341D01*
X44203578Y-31096707D01*
X44201716Y-31097020D01*
X44200792Y-31097160D01*
X44200330Y-31097229D01*
X44199868Y-31097294D01*
X44182057Y-31099690D01*
X44182057Y-31183529D01*
X44207181Y-31180577D01*
X44211945Y-31179936D01*
X44216513Y-31179150D01*
X44220891Y-31178227D01*
X44225073Y-31177143D01*
X44229069Y-31175915D01*
X44232882Y-31174511D01*
X44236512Y-31172955D01*
X44238237Y-31172082D01*
X44239962Y-31171215D01*
X44243239Y-31169300D01*
X44246340Y-31167218D01*
X44247806Y-31166074D01*
X44249272Y-31164936D01*
X44252038Y-31162472D01*
X44254637Y-31159809D01*
X44257079Y-31156941D01*
X44259360Y-31153874D01*
X44261487Y-31150593D01*
X44263461Y-31147099D01*
X44265286Y-31143383D01*
X44266966Y-31139439D01*
X44268502Y-31135273D01*
X44269898Y-31130864D01*
X44270459Y-31128788D01*
X44270459Y-31128804D01*
X44271157Y-31126225D01*
X44272282Y-31121334D01*
X44273276Y-31116192D01*
X44274142Y-31110791D01*
X44274882Y-31105137D01*
X44275500Y-31099217D01*
X44276000Y-31093022D01*
X44276654Y-31079815D01*
X44276866Y-31065464D01*
X44276759Y-31054837D01*
X44276427Y-31045002D01*
X44275855Y-31035893D01*
X44275029Y-31027493D01*
X44273932Y-31019757D01*
X44272551Y-31012638D01*
X44270875Y-31006108D01*
X44268881Y-31000119D01*
X44266562Y-30994633D01*
X44263898Y-30989613D01*
X44260876Y-30985020D01*
X44257481Y-30980816D01*
X44253701Y-30976956D01*
X44249516Y-30973408D01*
X44244914Y-30970127D01*
X44239882Y-30967068D01*
X44236991Y-30965489D01*
X44234191Y-30964093D01*
X44231372Y-30962872D01*
X44229922Y-30962323D01*
X44228427Y-30961804D01*
X44226870Y-30961338D01*
X44225239Y-30960896D01*
X44223523Y-30960484D01*
X44222612Y-30960300D01*
X44221701Y-30960110D01*
X44219767Y-30959774D01*
X44217703Y-30959462D01*
X44213133Y-30958927D01*
X44207883Y-30958493D01*
X44201836Y-30958157D01*
X44194886Y-30957905D01*
X44186921Y-30957722D01*
X44177828Y-30957592D01*
X44167500Y-30957516D01*
X44142689Y-30957470D01*
X44142689Y-30921147D01*
X44143466Y-30921154D01*
X44274657Y-30922322D01*
X44274657Y-30841908D01*
X44214022Y-30844815D01*
X44189479Y-30846135D01*
X44167473Y-30847584D01*
X44150416Y-30848973D01*
X44144494Y-30849598D01*
X44140710Y-30850148D01*
X44140322Y-30850221D01*
X44139934Y-30850292D01*
X44139159Y-30850430D01*
X44137734Y-30850659D01*
X44137087Y-30850740D01*
X44136763Y-30850782D01*
X44136439Y-30850827D01*
X44135270Y-30850933D01*
X44134750Y-30850957D01*
X44134490Y-30850971D01*
X44134230Y-30850987D01*
X44133319Y-30850972D01*
X44132533Y-30850911D01*
X44132367Y-30850881D01*
X44132202Y-30850849D01*
X44131873Y-30850781D01*
X44131590Y-30850705D01*
X44131339Y-30850605D01*
X44131117Y-30850499D01*
X44131070Y-30850464D01*
X44131023Y-30850431D01*
X44130999Y-30850415D01*
X44130976Y-30850399D01*
X44130952Y-30850383D01*
X44130929Y-30850369D01*
X44130909Y-30850351D01*
X44130889Y-30850333D01*
X44130849Y-30850296D01*
X44130809Y-30850259D01*
X44130790Y-30850241D01*
X44130770Y-30850224D01*
X44130643Y-30850071D01*
X44130545Y-30849903D01*
X44130480Y-30849713D01*
X44130472Y-30849661D01*
X44130462Y-30849611D01*
X44130444Y-30849514D01*
X44130440Y-30849293D01*
X44130465Y-30849064D01*
X44130522Y-30848812D01*
X44130726Y-30848286D01*
X44130807Y-30848138D01*
X44130888Y-30847992D01*
X44131051Y-30847699D01*
X44131133Y-30847574D01*
X44131216Y-30847451D01*
X44131299Y-30847327D01*
X44131383Y-30847203D01*
X44131753Y-30846714D01*
X44131954Y-30846482D01*
X44132055Y-30846365D01*
X44132157Y-30846249D01*
X44132592Y-30845799D01*
X44132708Y-30845691D01*
X44132823Y-30845585D01*
X44132939Y-30845479D01*
X44133053Y-30845372D01*
X44133175Y-30845273D01*
X44133296Y-30845172D01*
X44133538Y-30844967D01*
X44134041Y-30844593D01*
X44134302Y-30844419D01*
X44134431Y-30844333D01*
X44134496Y-30844291D01*
X44134560Y-30844250D01*
X44134825Y-30844087D01*
X44134958Y-30844007D01*
X44135024Y-30843967D01*
X44135090Y-30843930D01*
X44135626Y-30843647D01*
X44135694Y-30843618D01*
X44135761Y-30843588D01*
X44135896Y-30843524D01*
X44136166Y-30843396D01*
X44136435Y-30843295D01*
X44136570Y-30843244D01*
X44136637Y-30843218D01*
X44136704Y-30843190D01*
X44136970Y-30843109D01*
X44137103Y-30843066D01*
X44137236Y-30843022D01*
X44137499Y-30842961D01*
X44137532Y-30842955D01*
X44137564Y-30842948D01*
X44137597Y-30842941D01*
X44137630Y-30842933D01*
X44137696Y-30842917D01*
X44137761Y-30842900D01*
X44138018Y-30842854D01*
X44138272Y-30842823D01*
X44138522Y-30842800D01*
X44138766Y-30842793D01*
X44139866Y-30842648D01*
X44141551Y-30842213D01*
X44143853Y-30841473D01*
X44145328Y-30840946D01*
X44146803Y-30840412D01*
X44154790Y-30837277D01*
X44165770Y-30832684D01*
X44180009Y-30826535D01*
X44197766Y-30818714D01*
X44219306Y-30809094D01*
X44244893Y-30797589D01*
X44274659Y-30784161D01*
X44274659Y-30701687D01*
X44009730Y-30701687D01*
X44009730Y-30335286D01*
X44010375Y-30337841D01*
X44011593Y-30341336D01*
X44012238Y-30342816D01*
X44012946Y-30344319D01*
X44013709Y-30345837D01*
X44014113Y-30346597D01*
X44014517Y-30347363D01*
X44015370Y-30348873D01*
X44016255Y-30350369D01*
X44017167Y-30351841D01*
X44017632Y-30352558D01*
X44018098Y-30353268D01*
X44019042Y-30354657D01*
X44019992Y-30355984D01*
X44020939Y-30357228D01*
X44021880Y-30358403D01*
X44022805Y-30359478D01*
X44023703Y-30360455D01*
X44024140Y-30360889D01*
X44024357Y-30361104D01*
X44024575Y-30361317D01*
X44025408Y-30362065D01*
X44026717Y-30363156D01*
X44027842Y-30364125D01*
X44028784Y-30364994D01*
X44028834Y-30365041D01*
X44028885Y-30365088D01*
X44028985Y-30365186D01*
X44029086Y-30365285D01*
X44029187Y-30365383D01*
X44029363Y-30365567D01*
X44029540Y-30365750D01*
X44029617Y-30365837D01*
X44029693Y-30365924D01*
X44029770Y-30366010D01*
X44029808Y-30366052D01*
X44029847Y-30366093D01*
X44029911Y-30366178D01*
X44029976Y-30366260D01*
X44030040Y-30366341D01*
X44030104Y-30366421D01*
X44030209Y-30366580D01*
X44030261Y-30366658D01*
X44030288Y-30366696D01*
X44030314Y-30366734D01*
X44030474Y-30367024D01*
X44030489Y-30367056D01*
X44030503Y-30367089D01*
X44030531Y-30367158D01*
X44030559Y-30367229D01*
X44030587Y-30367298D01*
X44030648Y-30367550D01*
X44030657Y-30367802D01*
X44030648Y-30367856D01*
X44030638Y-30367913D01*
X44030628Y-30367969D01*
X44030623Y-30367997D01*
X44030617Y-30368023D01*
X44030573Y-30368130D01*
X44030551Y-30368184D01*
X44030528Y-30368237D01*
X44030387Y-30368450D01*
X44030362Y-30368474D01*
X44030338Y-30368498D01*
X44030314Y-30368522D01*
X44030289Y-30368547D01*
X44030241Y-30368597D01*
X44030192Y-30368649D01*
X44029946Y-30368840D01*
X44029648Y-30369023D01*
X44029297Y-30369198D01*
X44028895Y-30369374D01*
X44028780Y-30369419D01*
X44028665Y-30369464D01*
X44028550Y-30369508D01*
X44028435Y-30369549D01*
X44028308Y-30369595D01*
X44028180Y-30369640D01*
X44028052Y-30369683D01*
X44027924Y-30369725D01*
X44027641Y-30369815D01*
X44027499Y-30369859D01*
X44027358Y-30369900D01*
X44026059Y-30370274D01*
X44025677Y-30370367D01*
X44025297Y-30370462D01*
X44024537Y-30370655D01*
X44022788Y-30371075D01*
X44022357Y-30371181D01*
X44021927Y-30371290D01*
X44021065Y-30371510D01*
X44020280Y-30371746D01*
X44019541Y-30371983D01*
X44018851Y-30372242D01*
X44018204Y-30372517D01*
X44017903Y-30372676D01*
X44017752Y-30372754D01*
X44017602Y-30372830D01*
X44017462Y-30372915D01*
X44017322Y-30373000D01*
X44017182Y-30373084D01*
X44017043Y-30373165D01*
X44016782Y-30373356D01*
X44016652Y-30373451D01*
X44016522Y-30373547D01*
X44016462Y-30373596D01*
X44016402Y-30373647D01*
X44016281Y-30373750D01*
X44016039Y-30373959D01*
X44015597Y-30374417D01*
X44015494Y-30374544D01*
X44015392Y-30374672D01*
X44015290Y-30374801D01*
X44015189Y-30374928D01*
X44014815Y-30375485D01*
X44014729Y-30375643D01*
X44014644Y-30375797D01*
X44014474Y-30376103D01*
X44014165Y-30376782D01*
X44013886Y-30377529D01*
X44013761Y-30377935D01*
X44013636Y-30378346D01*
X44013524Y-30378785D01*
X44013411Y-30379231D01*
X44013215Y-30380200D01*
X44013039Y-30381253D01*
X44012890Y-30382397D01*
X44012761Y-30383633D01*
X44012650Y-30384960D01*
X44012559Y-30386395D01*
X44012419Y-30389576D01*
X44012335Y-30393223D01*
X44012293Y-30397358D01*
X44012282Y-30402020D01*
X44012282Y-30430485D01*
X44097621Y-30430485D01*
X44097621Y-30468716D01*
X44056481Y-30468808D01*
X44027722Y-30469235D01*
X44019330Y-30469570D01*
X44017489Y-30469770D01*
X44015648Y-30469975D01*
X44015257Y-30470188D01*
X44014886Y-30470547D01*
X44014841Y-30470605D01*
X44014797Y-30470664D01*
X44014708Y-30470785D01*
X44014531Y-30471028D01*
X44014360Y-30471347D01*
X44014275Y-30471505D01*
X44014189Y-30471661D01*
X44013867Y-30472447D01*
X44013558Y-30473385D01*
X44013266Y-30474476D01*
X44012988Y-30475743D01*
X44012477Y-30478787D01*
X44012023Y-30482548D01*
X44011622Y-30487080D01*
X44011275Y-30492413D01*
X44010975Y-30498600D01*
X44010726Y-30505680D01*
X44010520Y-30513699D01*
X44010357Y-30522686D01*
X44010150Y-30543766D01*
X44010087Y-30569264D01*
X44010087Y-30666416D01*
X44063002Y-30666416D01*
X44063002Y-30551770D01*
X44120328Y-30551770D01*
X44120328Y-30657597D01*
X44173243Y-30657597D01*
X44173243Y-30551770D01*
X44221751Y-30551770D01*
X44221751Y-30657597D01*
X44274842Y-30657597D01*
X44272462Y-30470188D01*
X44146842Y-30469014D01*
X44097626Y-30468724D01*
X44097626Y-30430493D01*
X44153401Y-30430493D01*
X44154633Y-30374272D01*
X44155867Y-30318051D01*
X44107098Y-30318051D01*
X44107098Y-30333477D01*
X44107087Y-30336064D01*
X44107037Y-30338353D01*
X44106934Y-30340344D01*
X44106755Y-30342068D01*
X44106631Y-30342839D01*
X44106480Y-30343548D01*
X44106303Y-30344197D01*
X44106095Y-30344799D01*
X44105853Y-30345341D01*
X44105714Y-30345589D01*
X44105645Y-30345712D01*
X44105576Y-30345837D01*
X44105261Y-30346287D01*
X44105173Y-30346389D01*
X44105085Y-30346488D01*
X44104997Y-30346586D01*
X44104909Y-30346684D01*
X44104512Y-30347050D01*
X44104457Y-30347088D01*
X44104402Y-30347127D01*
X44104291Y-30347207D01*
X44104181Y-30347289D01*
X44104069Y-30347370D01*
X44103825Y-30347508D01*
X44103583Y-30347645D01*
X44103043Y-30347897D01*
X44102454Y-30348103D01*
X44101809Y-30348286D01*
X44101109Y-30348439D01*
X44100350Y-30348568D01*
X44098647Y-30348751D01*
X44097663Y-30348802D01*
X44096678Y-30348858D01*
X44094426Y-30348904D01*
X44091872Y-30348912D01*
X44090262Y-30348889D01*
X44088584Y-30348805D01*
X44086850Y-30348683D01*
X44085962Y-30348596D01*
X44085074Y-30348515D01*
X44081450Y-30348042D01*
X44079635Y-30347726D01*
X44077820Y-30347416D01*
X44074294Y-30346653D01*
X44072602Y-30346241D01*
X44070979Y-30345791D01*
X44069434Y-30345318D01*
X44067982Y-30344830D01*
X44066638Y-30344326D01*
X44065415Y-30343808D01*
X44063727Y-30342999D01*
X44063531Y-30342897D01*
X44063336Y-30342798D01*
X44062947Y-30342602D01*
X44062209Y-30342190D01*
X44061513Y-30341786D01*
X44060856Y-30341359D01*
X44060238Y-30340924D01*
X44060093Y-30340815D01*
X44059948Y-30340705D01*
X44059803Y-30340594D01*
X44059659Y-30340481D01*
X44059113Y-30340016D01*
X44058606Y-30339535D01*
X44058487Y-30339410D01*
X44058369Y-30339287D01*
X44058250Y-30339164D01*
X44058133Y-30339039D01*
X44057692Y-30338520D01*
X44057284Y-30337979D01*
X44057190Y-30337832D01*
X44057095Y-30337690D01*
X44056906Y-30337406D01*
X44056732Y-30337108D01*
X44056645Y-30336957D01*
X44056557Y-30336804D01*
X44056241Y-30336178D01*
X44056095Y-30335840D01*
X44055951Y-30335507D01*
X44055686Y-30334797D01*
X44055447Y-30334065D01*
X44055341Y-30333672D01*
X44055234Y-30333279D01*
X44055045Y-30332455D01*
X44054877Y-30331585D01*
X44054803Y-30331124D01*
X44054730Y-30330662D01*
X44054602Y-30329693D01*
X44054494Y-30328671D01*
X44054449Y-30328137D01*
X44054404Y-30327603D01*
X44054274Y-30325268D01*
X44054202Y-30322697D01*
X44054181Y-30319859D01*
X44054236Y-30314297D01*
X44054328Y-30311764D01*
X44054482Y-30309399D01*
X44054713Y-30307194D01*
X44055033Y-30305134D01*
X44055461Y-30303227D01*
X44056006Y-30301457D01*
X44056687Y-30299816D01*
X44057515Y-30298313D01*
X44058505Y-30296925D01*
X44059670Y-30295666D01*
X44060009Y-30295376D01*
X44060349Y-30295087D01*
X44061028Y-30294514D01*
X44062592Y-30293469D01*
X44063484Y-30292997D01*
X44063930Y-30292762D01*
X44064376Y-30292530D01*
X44066393Y-30291684D01*
X44068661Y-30290943D01*
X44071194Y-30290280D01*
X44072599Y-30289989D01*
X44074004Y-30289692D01*
X44077105Y-30289196D01*
X44078810Y-30288986D01*
X44080514Y-30288769D01*
X44082379Y-30288583D01*
X44084244Y-30288403D01*
X44086278Y-30288247D01*
X44088311Y-30288098D01*
X44092726Y-30287838D01*
X44102664Y-30287480D01*
X44114174Y-30287274D01*
X44127371Y-30287182D01*
X44142375Y-30287167D01*
X44170272Y-30287289D01*
X44181695Y-30287495D01*
X44191579Y-30287846D01*
X44200036Y-30288388D01*
X44207179Y-30289166D01*
X44213116Y-30290196D01*
X44217959Y-30291539D01*
X44219887Y-30292379D01*
X44221816Y-30293225D01*
X44223410Y-30294209D01*
X44224801Y-30295285D01*
X44226000Y-30296482D01*
X44227023Y-30297772D01*
X44227883Y-30299183D01*
X44228593Y-30300709D01*
X44229622Y-30304142D01*
X44230219Y-30308110D01*
X44230498Y-30312657D01*
X44230567Y-30317807D01*
X44230498Y-30321423D01*
X44230282Y-30324711D01*
X44230113Y-30326237D01*
X44229897Y-30327687D01*
X44229638Y-30329060D01*
X44229331Y-30330365D01*
X44228972Y-30331601D01*
X44228562Y-30332760D01*
X44228330Y-30333307D01*
X44228099Y-30333859D01*
X44227576Y-30334889D01*
X44226996Y-30335858D01*
X44226353Y-30336766D01*
X44226002Y-30337192D01*
X44225826Y-30337404D01*
X44225649Y-30337612D01*
X44225264Y-30338012D01*
X44225072Y-30338210D01*
X44224879Y-30338406D01*
X44224040Y-30339154D01*
X44223586Y-30339494D01*
X44223359Y-30339665D01*
X44223132Y-30339840D01*
X44222642Y-30340158D01*
X44222396Y-30340318D01*
X44222151Y-30340481D01*
X44221099Y-30341069D01*
X44219966Y-30341626D01*
X44218756Y-30342129D01*
X44217467Y-30342594D01*
X44216779Y-30342801D01*
X44216435Y-30342907D01*
X44216092Y-30343014D01*
X44214635Y-30343411D01*
X44213860Y-30343583D01*
X44213086Y-30343762D01*
X44209721Y-30344364D01*
X44205983Y-30344860D01*
X44201848Y-30345257D01*
X44184264Y-30346684D01*
X44182995Y-30387478D01*
X44181729Y-30428273D01*
X44202908Y-30428273D01*
X44208386Y-30428128D01*
X44213629Y-30427708D01*
X44218649Y-30427006D01*
X44223448Y-30426014D01*
X44228030Y-30424725D01*
X44232401Y-30423153D01*
X44236571Y-30421269D01*
X44240540Y-30419094D01*
X44244319Y-30416607D01*
X44247908Y-30413815D01*
X44251319Y-30410710D01*
X44254552Y-30407292D01*
X44257617Y-30403553D01*
X44260516Y-30399487D01*
X44263259Y-30395092D01*
X44265847Y-30390385D01*
X44267598Y-30386914D01*
X44269158Y-30383641D01*
X44270533Y-30380497D01*
X44271739Y-30377407D01*
X44272782Y-30374302D01*
X44273678Y-30371113D01*
X44274434Y-30367749D01*
X44275063Y-30364163D01*
X44275578Y-30360257D01*
X44275988Y-30355969D01*
X44276305Y-30351223D01*
X44276538Y-30345959D01*
X44276700Y-30340084D01*
X44276803Y-30333546D01*
X44276869Y-30318142D01*
X44276770Y-30307072D01*
X44276461Y-30296841D01*
X44275927Y-30287411D01*
X44275153Y-30278721D01*
X44274119Y-30270741D01*
X44272811Y-30263432D01*
X44271212Y-30256718D01*
X44269307Y-30250576D01*
X44267079Y-30244953D01*
X44264510Y-30239796D01*
X44261586Y-30235073D01*
X44258290Y-30230717D01*
X44254605Y-30226712D01*
X44250514Y-30222981D01*
X44246003Y-30219494D01*
X44241051Y-30216198D01*
X44238196Y-30214474D01*
X44235455Y-30212933D01*
X44234098Y-30212257D01*
X44232741Y-30211575D01*
X44232051Y-30211269D01*
X44231706Y-30211115D01*
X44231362Y-30210957D01*
X44229954Y-30210385D01*
X44228507Y-30209843D01*
X44228132Y-30209713D01*
X44227756Y-30209585D01*
X44227006Y-30209332D01*
X44226615Y-30209221D01*
X44226224Y-30209106D01*
X44225442Y-30208874D01*
X44223803Y-30208439D01*
X44222941Y-30208234D01*
X44222079Y-30208035D01*
X44220254Y-30207653D01*
X44219287Y-30207481D01*
X44218320Y-30207302D01*
X44216263Y-30206982D01*
X44211743Y-30206417D01*
X44206597Y-30205929D01*
X44200730Y-30205510D01*
X44194054Y-30205151D01*
X44186474Y-30204838D01*
X44177899Y-30204548D01*
X44157387Y-30204014D01*
X44129052Y-30203625D01*
X44129052Y-30157612D01*
X44129843Y-30156620D01*
X44131678Y-30153729D01*
X44133334Y-30150509D01*
X44134869Y-30146946D01*
X44141221Y-30131024D01*
X44148501Y-30145100D01*
X44150700Y-30149121D01*
X44151822Y-30150990D01*
X44152964Y-30152768D01*
X44154128Y-30154454D01*
X44155318Y-30156063D01*
X44156539Y-30157582D01*
X44157788Y-30159016D01*
X44159073Y-30160366D01*
X44160397Y-30161640D01*
X44161763Y-30162823D01*
X44163170Y-30163937D01*
X44164626Y-30164967D01*
X44166133Y-30165921D01*
X44167691Y-30166798D01*
X44169306Y-30167607D01*
X44170979Y-30168347D01*
X44171850Y-30168676D01*
X44172284Y-30168841D01*
X44172719Y-30169010D01*
X44174519Y-30169598D01*
X44176392Y-30170124D01*
X44178334Y-30170590D01*
X44180352Y-30170994D01*
X44181400Y-30171159D01*
X44182448Y-30171330D01*
X44184624Y-30171597D01*
X44186886Y-30171818D01*
X44188060Y-30171892D01*
X44189234Y-30171971D01*
X44191672Y-30172062D01*
X44194205Y-30172100D01*
X44199561Y-30172032D01*
X44205327Y-30171749D01*
X44210576Y-30171337D01*
X44215565Y-30170773D01*
X44220301Y-30170056D01*
X44224789Y-30169163D01*
X44229037Y-30168072D01*
X44233046Y-30166783D01*
X44236827Y-30165280D01*
X44240382Y-30163540D01*
X44243722Y-30161564D01*
X44246850Y-30159336D01*
X44249772Y-30156834D01*
X44251134Y-30155435D01*
X44252495Y-30154042D01*
X44255028Y-30150952D01*
X44257372Y-30147557D01*
X44259535Y-30143833D01*
X44261527Y-30139775D01*
X44263348Y-30135357D01*
X44265008Y-30130574D01*
X44266513Y-30125416D01*
X44267867Y-30119862D01*
X44269076Y-30113896D01*
X44270148Y-30107518D01*
X44271090Y-30100705D01*
X44271906Y-30093441D01*
X44272603Y-30085713D01*
X44273186Y-30077504D01*
X44274041Y-30059613D01*
X44274516Y-30039662D01*
X44274665Y-30017536D01*
X44274665Y-29951992D01*
X44009751Y-29951992D01*
X44009751Y-29947552D01*
X44391516Y-29947552D01*
X44392626Y-30261746D01*
X44393736Y-30575932D01*
X44437827Y-30577198D01*
X44481917Y-30578457D01*
X44481917Y-30340023D01*
X44550000Y-30340023D01*
X44550000Y-30431805D01*
X44550008Y-30431805D01*
X44550008Y-30431828D01*
X44548836Y-30431857D01*
X44547665Y-30431881D01*
X44545327Y-30432072D01*
X44542998Y-30432415D01*
X44540686Y-30432904D01*
X44538396Y-30433544D01*
X44537265Y-30433938D01*
X44536134Y-30434338D01*
X44533906Y-30435276D01*
X44533359Y-30435554D01*
X44532813Y-30435829D01*
X44531718Y-30436375D01*
X44529578Y-30437626D01*
X44528534Y-30438325D01*
X44527489Y-30439030D01*
X44526476Y-30439805D01*
X44525462Y-30440586D01*
X44523497Y-30442295D01*
X44522552Y-30443233D01*
X44521607Y-30444165D01*
X44519791Y-30446202D01*
X44517251Y-30449421D01*
X44516106Y-30451039D01*
X44515046Y-30452656D01*
X44514558Y-30453462D01*
X44514069Y-30454274D01*
X44513623Y-30455083D01*
X44513177Y-30455899D01*
X44512366Y-30457516D01*
X44512003Y-30458335D01*
X44511639Y-30459149D01*
X44510998Y-30460781D01*
X44510440Y-30462406D01*
X44509967Y-30464039D01*
X44509576Y-30465672D01*
X44509270Y-30467305D01*
X44509047Y-30468937D01*
X44508910Y-30470570D01*
X44508857Y-30472203D01*
X44508887Y-30473828D01*
X44509000Y-30475453D01*
X44509198Y-30477078D01*
X44509478Y-30478703D01*
X44509845Y-30480328D01*
X44510295Y-30481953D01*
X44510827Y-30483570D01*
X44511443Y-30485180D01*
X44511792Y-30485988D01*
X44512143Y-30486790D01*
X44512927Y-30488400D01*
X44513361Y-30489202D01*
X44513795Y-30490010D01*
X44514746Y-30491604D01*
X44515264Y-30492404D01*
X44515782Y-30493199D01*
X44516902Y-30494793D01*
X44519395Y-30497959D01*
X44530419Y-30511067D01*
X44530419Y-30946682D01*
X44567902Y-30945340D01*
X44568519Y-30828099D01*
X45465924Y-30828099D01*
X45466174Y-30853817D01*
X45467183Y-30878537D01*
X45468957Y-30900967D01*
X45470132Y-30910916D01*
X45471501Y-30919812D01*
X45474389Y-30934460D01*
X45477814Y-30948735D01*
X45481766Y-30962605D01*
X45486233Y-30976063D01*
X45491208Y-30989094D01*
X45496678Y-31001683D01*
X45502637Y-31013790D01*
X45509070Y-31025425D01*
X45515971Y-31036557D01*
X45523328Y-31047184D01*
X45531134Y-31057263D01*
X45539376Y-31066799D01*
X45548045Y-31075764D01*
X45557130Y-31084141D01*
X45566622Y-31091923D01*
X45576512Y-31099087D01*
X45603249Y-31117237D01*
X45593325Y-31124729D01*
X45592790Y-31125154D01*
X45592253Y-31125584D01*
X45591749Y-31126033D01*
X45591497Y-31126257D01*
X45591244Y-31126477D01*
X45590298Y-31127415D01*
X45589419Y-31128384D01*
X45588607Y-31129376D01*
X45587867Y-31130398D01*
X45587203Y-31131428D01*
X45587055Y-31131695D01*
X45586908Y-31131957D01*
X45586613Y-31132481D01*
X45586106Y-31133534D01*
X45585894Y-31134061D01*
X45585683Y-31134594D01*
X45585343Y-31135640D01*
X45585217Y-31136162D01*
X45585091Y-31136685D01*
X45585046Y-31136940D01*
X45585000Y-31137196D01*
X45584933Y-31137715D01*
X45584885Y-31138218D01*
X45584866Y-31138722D01*
X45584870Y-31139218D01*
X45584884Y-31139462D01*
X45584891Y-31139585D01*
X45584899Y-31139706D01*
X45584950Y-31140187D01*
X45585028Y-31140652D01*
X45585198Y-31141400D01*
X45585309Y-31141751D01*
X45585442Y-31142094D01*
X45585483Y-31142180D01*
X45585523Y-31142265D01*
X45585564Y-31142348D01*
X45585604Y-31142430D01*
X45585628Y-31142472D01*
X45585652Y-31142514D01*
X45585701Y-31142597D01*
X45585799Y-31142758D01*
X45585856Y-31142837D01*
X45585914Y-31142914D01*
X45585971Y-31142992D01*
X45586030Y-31143071D01*
X45586306Y-31143376D01*
X45586631Y-31143666D01*
X45587008Y-31143948D01*
X45587118Y-31144018D01*
X45587228Y-31144088D01*
X45587337Y-31144157D01*
X45587392Y-31144190D01*
X45587447Y-31144223D01*
X45587947Y-31144482D01*
X45588515Y-31144734D01*
X45589158Y-31144986D01*
X45589881Y-31145214D01*
X45590283Y-31145328D01*
X45590485Y-31145383D01*
X45590686Y-31145436D01*
X45591580Y-31145665D01*
X45592568Y-31145871D01*
X45593655Y-31146069D01*
X45593953Y-31146119D01*
X45594251Y-31146167D01*
X45594846Y-31146260D01*
X45596146Y-31146450D01*
X45596500Y-31146492D01*
X45596853Y-31146535D01*
X45597560Y-31146626D01*
X45598327Y-31146707D01*
X45598711Y-31146749D01*
X45599095Y-31146794D01*
X45599923Y-31146871D01*
X45600338Y-31146911D01*
X45600753Y-31146954D01*
X45601645Y-31147027D01*
X45602538Y-31147106D01*
X45604460Y-31147244D01*
X45606593Y-31147384D01*
X45608725Y-31147518D01*
X45613591Y-31147763D01*
X45619092Y-31147976D01*
X45625273Y-31148167D01*
X45632174Y-31148335D01*
X45639834Y-31148480D01*
X45648293Y-31148609D01*
X45657593Y-31148716D01*
X45667775Y-31148815D01*
X45678876Y-31148884D01*
X45690940Y-31148953D01*
X45718114Y-31149037D01*
X45749621Y-31149090D01*
X45785783Y-31149105D01*
X45826922Y-31149113D01*
X46067193Y-31149113D01*
X46065783Y-31105015D01*
X46065371Y-31095318D01*
X46064738Y-31084668D01*
X46063914Y-31073407D01*
X46062932Y-31061879D01*
X46061822Y-31050434D01*
X46060618Y-31039425D01*
X46059350Y-31029194D01*
X46058051Y-31020092D01*
X46056014Y-31008541D01*
X46053275Y-30995495D01*
X46045941Y-30965702D01*
X46036565Y-30932316D01*
X46025658Y-30896954D01*
X46013737Y-30861203D01*
X46001317Y-30826672D01*
X45988908Y-30794957D01*
X45977029Y-30767674D01*
X45967767Y-30746960D01*
X45963572Y-30736874D01*
X45959651Y-30726895D01*
X45955983Y-30716976D01*
X45952555Y-30707051D01*
X45949355Y-30697071D01*
X45946362Y-30686978D01*
X45943562Y-30676716D01*
X45940940Y-30666241D01*
X45938481Y-30655484D01*
X45936166Y-30644406D01*
X45931918Y-30621029D01*
X45928071Y-30595684D01*
X45926570Y-30586476D01*
X45924544Y-30576504D01*
X45922028Y-30565892D01*
X45919059Y-30554783D01*
X45915671Y-30543286D01*
X45911900Y-30531544D01*
X45907784Y-30519680D01*
X45903361Y-30507824D01*
X45895133Y-30487568D01*
X45885756Y-30466137D01*
X45875832Y-30444722D01*
X45865960Y-30424511D01*
X45856740Y-30406712D01*
X45848771Y-30392506D01*
X45845443Y-30387120D01*
X45842652Y-30383084D01*
X45840474Y-30380551D01*
X45839638Y-30379887D01*
X45838984Y-30379666D01*
X45838576Y-30379780D01*
X45838198Y-30380154D01*
X45837849Y-30380757D01*
X45837770Y-30380967D01*
X45837690Y-30381175D01*
X45837531Y-30381588D01*
X45836980Y-30383931D01*
X45836547Y-30387081D01*
X45836228Y-30390965D01*
X45836026Y-30395535D01*
X45835936Y-30400692D01*
X45835961Y-30406384D01*
X45836097Y-30412525D01*
X45836343Y-30419056D01*
X45836697Y-30425892D01*
X45837165Y-30432965D01*
X45837739Y-30440213D01*
X45838418Y-30447560D01*
X45839205Y-30454930D01*
X45840098Y-30462246D01*
X45841231Y-30470066D01*
X45842618Y-30478054D01*
X45844256Y-30486210D01*
X45846144Y-30494511D01*
X45848279Y-30502972D01*
X45850655Y-30511570D01*
X45853276Y-30520298D01*
X45856135Y-30529141D01*
X45859231Y-30538113D01*
X45862561Y-30547192D01*
X45869912Y-30565647D01*
X45878169Y-30584446D01*
X45887311Y-30603535D01*
X45892356Y-30613850D01*
X45896456Y-30622670D01*
X45899640Y-30630085D01*
X45900899Y-30633297D01*
X45901938Y-30636189D01*
X45902766Y-30638783D01*
X45903384Y-30641079D01*
X45903796Y-30643086D01*
X45904006Y-30644825D01*
X45904019Y-30646305D01*
X45903836Y-30647526D01*
X45903462Y-30648518D01*
X45903323Y-30648710D01*
X45903183Y-30648899D01*
X45903042Y-30649089D01*
X45902901Y-30649281D01*
X45902674Y-30649475D01*
X45902446Y-30649670D01*
X45902209Y-30649823D01*
X45901963Y-30649945D01*
X45901707Y-30650029D01*
X45901675Y-30650039D01*
X45901642Y-30650049D01*
X45901609Y-30650058D01*
X45901577Y-30650066D01*
X45901512Y-30650081D01*
X45901479Y-30650089D01*
X45901446Y-30650097D01*
X45901175Y-30650112D01*
X45900899Y-30650105D01*
X45900611Y-30650059D01*
X45900573Y-30650048D01*
X45900536Y-30650037D01*
X45900499Y-30650028D01*
X45900462Y-30650018D01*
X45900388Y-30650000D01*
X45900315Y-30649983D01*
X45899689Y-30649731D01*
X45899022Y-30649319D01*
X45898307Y-30648762D01*
X45897540Y-30648045D01*
X45897131Y-30647609D01*
X45896926Y-30647389D01*
X45896722Y-30647168D01*
X45895846Y-30646130D01*
X45894910Y-30644909D01*
X45893910Y-30643521D01*
X45892844Y-30641934D01*
X45892277Y-30641052D01*
X45891711Y-30640164D01*
X45890502Y-30638211D01*
X45889218Y-30636036D01*
X45887854Y-30633671D01*
X45887130Y-30632381D01*
X45886407Y-30631085D01*
X45885639Y-30629691D01*
X45884873Y-30628292D01*
X45881530Y-30622021D01*
X45877805Y-30614834D01*
X45873666Y-30606655D01*
X45869090Y-30597462D01*
X45864051Y-30587200D01*
X45858519Y-30575833D01*
X45847832Y-30553784D01*
X45840649Y-30575833D01*
X45839158Y-30580128D01*
X45837651Y-30583927D01*
X45836150Y-30587231D01*
X45834676Y-30590031D01*
X45833956Y-30591236D01*
X45833603Y-30591781D01*
X45833251Y-30592320D01*
X45832562Y-30593266D01*
X45832228Y-30593671D01*
X45831895Y-30594082D01*
X45831734Y-30594249D01*
X45831572Y-30594419D01*
X45831411Y-30594590D01*
X45831250Y-30594761D01*
X45830630Y-30595311D01*
X45830039Y-30595730D01*
X45829478Y-30595997D01*
X45829346Y-30596036D01*
X45829215Y-30596073D01*
X45829082Y-30596108D01*
X45828950Y-30596142D01*
X45828458Y-30596142D01*
X45828345Y-30596109D01*
X45828232Y-30596076D01*
X45828119Y-30596042D01*
X45828062Y-30596024D01*
X45828006Y-30596005D01*
X45827954Y-30595973D01*
X45827903Y-30595939D01*
X45827800Y-30595871D01*
X45827697Y-30595803D01*
X45827646Y-30595770D01*
X45827594Y-30595738D01*
X45827225Y-30595318D01*
X45826907Y-30594761D01*
X45826634Y-30594067D01*
X45826524Y-30593640D01*
X45826415Y-30593212D01*
X45826332Y-30592717D01*
X45826251Y-30592221D01*
X45826142Y-30591084D01*
X45826094Y-30589810D01*
X45826108Y-30588375D01*
X45826188Y-30586796D01*
X45826337Y-30585072D01*
X45826846Y-30581158D01*
X45827447Y-30576351D01*
X45827925Y-30570416D01*
X45828538Y-30555302D01*
X45828688Y-30536175D01*
X45828385Y-30513394D01*
X45827634Y-30487301D01*
X45826445Y-30458287D01*
X45824828Y-30426678D01*
X45822789Y-30392849D01*
X45815875Y-30286335D01*
X45813645Y-30255169D01*
X45811862Y-30235386D01*
X45810254Y-30224476D01*
X45809428Y-30221569D01*
X45808985Y-30220754D01*
X45808541Y-30219944D01*
X45807559Y-30219281D01*
X45806447Y-30219273D01*
X45803693Y-30219960D01*
X45803243Y-30220025D01*
X45803019Y-30220059D01*
X45802794Y-30220097D01*
X45801955Y-30220181D01*
X45801173Y-30220234D01*
X45800450Y-30220234D01*
X45799786Y-30220181D01*
X45799182Y-30220097D01*
X45799114Y-30220078D01*
X45799046Y-30220059D01*
X45798910Y-30220025D01*
X45798638Y-30219960D01*
X45798152Y-30219769D01*
X45797726Y-30219525D01*
X45797358Y-30219242D01*
X45797281Y-30219156D01*
X45797204Y-30219068D01*
X45797127Y-30218982D01*
X45797088Y-30218940D01*
X45797049Y-30218899D01*
X45796801Y-30218502D01*
X45796614Y-30218052D01*
X45796485Y-30217549D01*
X45796414Y-30216992D01*
X45796403Y-30216374D01*
X45796450Y-30215702D01*
X45796559Y-30214978D01*
X45796642Y-30214578D01*
X45796727Y-30214184D01*
X45796840Y-30213754D01*
X45796954Y-30213330D01*
X45797240Y-30212414D01*
X45797587Y-30211438D01*
X45797992Y-30210400D01*
X45798459Y-30209286D01*
X45798981Y-30208111D01*
X45799569Y-30206868D01*
X45800214Y-30205571D01*
X45800917Y-30204190D01*
X45802506Y-30201222D01*
X45804333Y-30197972D01*
X45805632Y-30195393D01*
X45807019Y-30192059D01*
X45808470Y-30188061D01*
X45809962Y-30183522D01*
X45812978Y-30173169D01*
X45815875Y-30161808D01*
X45818457Y-30150227D01*
X45820540Y-30139225D01*
X45821332Y-30134190D01*
X45821929Y-30129597D01*
X45822303Y-30125561D01*
X45822432Y-30122158D01*
X45822398Y-30121998D01*
X45822386Y-30121981D01*
X45822374Y-30121963D01*
X45822361Y-30121944D01*
X45822349Y-30121925D01*
X45822325Y-30121886D01*
X45822301Y-30121846D01*
X45822280Y-30121828D01*
X45822260Y-30121810D01*
X45822239Y-30121791D01*
X45822219Y-30121772D01*
X45822199Y-30121753D01*
X45822179Y-30121733D01*
X45822139Y-30121693D01*
X45822082Y-30121659D01*
X45822026Y-30121623D01*
X45821998Y-30121605D01*
X45821970Y-30121587D01*
X45821941Y-30121568D01*
X45821913Y-30121548D01*
X45821772Y-30121479D01*
X45821629Y-30121411D01*
X45821544Y-30121376D01*
X45821458Y-30121343D01*
X45821372Y-30121311D01*
X45821329Y-30121296D01*
X45821286Y-30121281D01*
X45820430Y-30121029D01*
X45819358Y-30120816D01*
X45818084Y-30120625D01*
X45817718Y-30120580D01*
X45817353Y-30120538D01*
X45816621Y-30120457D01*
X45816211Y-30120419D01*
X45815800Y-30120385D01*
X45814980Y-30120320D01*
X45814079Y-30120265D01*
X45813628Y-30120237D01*
X45813178Y-30120205D01*
X45811227Y-30120129D01*
X45810180Y-30120105D01*
X45809134Y-30120076D01*
X45806918Y-30120060D01*
X45804591Y-30120076D01*
X45803378Y-30120105D01*
X45802167Y-30120129D01*
X45799657Y-30120213D01*
X45798365Y-30120277D01*
X45797074Y-30120335D01*
X45771718Y-30121655D01*
X45770646Y-30141507D01*
X45769755Y-30155712D01*
X45768702Y-30168545D01*
X45767512Y-30179829D01*
X45766209Y-30189427D01*
X45764823Y-30197163D01*
X45764102Y-30200291D01*
X45763369Y-30202885D01*
X45762627Y-30204945D01*
X45761880Y-30206433D01*
X45761504Y-30206889D01*
X45761128Y-30207341D01*
X45760752Y-30207577D01*
X45760377Y-30207646D01*
X45760274Y-30207587D01*
X45760171Y-30207527D01*
X45760069Y-30207468D01*
X45759967Y-30207409D01*
X45759869Y-30207233D01*
X45759770Y-30207059D01*
X45759574Y-30206715D01*
X45758851Y-30204045D01*
X45758210Y-30199894D01*
X45757657Y-30194470D01*
X45756819Y-30180729D01*
X45756367Y-30164639D01*
X45756329Y-30148022D01*
X45756730Y-30132695D01*
X45757104Y-30126088D01*
X45757598Y-30120480D01*
X45758216Y-30116101D01*
X45758961Y-30113194D01*
X45759064Y-30112954D01*
X45759166Y-30112713D01*
X45759400Y-30112255D01*
X45759466Y-30112142D01*
X45759533Y-30112030D01*
X45759667Y-30111805D01*
X45759816Y-30111599D01*
X45759967Y-30111393D01*
X45760300Y-30110981D01*
X45760670Y-30110600D01*
X45760772Y-30110507D01*
X45760873Y-30110414D01*
X45760923Y-30110368D01*
X45760974Y-30110322D01*
X45761025Y-30110277D01*
X45761077Y-30110234D01*
X45761299Y-30110059D01*
X45761411Y-30109973D01*
X45761467Y-30109931D01*
X45761523Y-30109890D01*
X45761644Y-30109806D01*
X45761764Y-30109723D01*
X45761885Y-30109642D01*
X45762006Y-30109562D01*
X45762269Y-30109403D01*
X45762401Y-30109325D01*
X45762532Y-30109249D01*
X45763102Y-30108960D01*
X45763715Y-30108677D01*
X45764373Y-30108418D01*
X45765078Y-30108174D01*
X45765830Y-30107945D01*
X45766031Y-30107890D01*
X45766231Y-30107839D01*
X45766633Y-30107739D01*
X45767485Y-30107540D01*
X45767938Y-30107452D01*
X45768164Y-30107406D01*
X45768389Y-30107357D01*
X45768869Y-30107276D01*
X45769109Y-30107234D01*
X45769349Y-30107190D01*
X45769602Y-30107154D01*
X45769854Y-30107116D01*
X45770360Y-30107037D01*
X45770895Y-30106967D01*
X45771161Y-30106931D01*
X45771428Y-30106892D01*
X45772555Y-30106770D01*
X45772850Y-30106738D01*
X45773146Y-30106710D01*
X45773738Y-30106655D01*
X45774359Y-30106609D01*
X45774671Y-30106584D01*
X45774981Y-30106556D01*
X45776320Y-30106479D01*
X45776989Y-30106439D01*
X45777657Y-30106396D01*
X45780591Y-30106289D01*
X45782189Y-30106258D01*
X45783787Y-30106221D01*
X45787265Y-30106205D01*
X45793294Y-30106175D01*
X45798695Y-30106060D01*
X45803502Y-30105854D01*
X45807746Y-30105542D01*
X45809604Y-30105325D01*
X45811463Y-30105114D01*
X45813073Y-30104825D01*
X45814683Y-30104542D01*
X45817439Y-30103817D01*
X45819764Y-30102925D01*
X45820777Y-30102414D01*
X45821692Y-30101849D01*
X45822518Y-30101239D01*
X45823256Y-30100575D01*
X45823912Y-30099865D01*
X45824490Y-30099087D01*
X45824992Y-30098255D01*
X45825208Y-30097810D01*
X45825316Y-30097589D01*
X45825425Y-30097370D01*
X45825791Y-30096417D01*
X45825942Y-30095909D01*
X45826094Y-30095402D01*
X45826533Y-30093167D01*
X45826770Y-30090672D01*
X45826842Y-30087880D01*
X45826758Y-30084751D01*
X45826506Y-30081700D01*
X45826092Y-30078755D01*
X45825520Y-30075886D01*
X45824794Y-30073117D01*
X45823918Y-30070446D01*
X45822894Y-30067883D01*
X45821728Y-30065411D01*
X45820424Y-30063046D01*
X45818986Y-30060788D01*
X45817418Y-30058659D01*
X45816571Y-30057638D01*
X45815724Y-30056622D01*
X45814816Y-30055665D01*
X45813908Y-30054715D01*
X45812941Y-30053815D01*
X45811974Y-30052922D01*
X45811462Y-30052501D01*
X45810950Y-30052083D01*
X45809926Y-30051251D01*
X45808848Y-30050477D01*
X45807770Y-30049710D01*
X45806639Y-30048997D01*
X45805508Y-30048291D01*
X45804327Y-30047643D01*
X45803143Y-30047001D01*
X45801914Y-30046422D01*
X45800683Y-30045849D01*
X45798127Y-30044834D01*
X45795481Y-30043957D01*
X45792752Y-30043225D01*
X45789941Y-30042630D01*
X45788495Y-30042405D01*
X45787051Y-30042187D01*
X45785570Y-30042035D01*
X45784089Y-30041890D01*
X45782573Y-30041814D01*
X45781083Y-30041746D01*
X45781083Y-28751660D01*
X45781056Y-28751660D01*
X45781056Y-30041745D01*
X45781083Y-30041746D01*
X45781083Y-30041775D01*
X45777985Y-30041783D01*
X45774829Y-30041951D01*
X45771615Y-30042279D01*
X45768346Y-30042767D01*
X45765031Y-30043423D01*
X45761668Y-30044247D01*
X45757849Y-30045452D01*
X45755940Y-30046241D01*
X45754031Y-30047024D01*
X45750212Y-30048939D01*
X45746400Y-30051190D01*
X45742598Y-30053784D01*
X45738810Y-30056706D01*
X45735039Y-30059941D01*
X45733167Y-30061721D01*
X45731293Y-30063496D01*
X45727576Y-30067356D01*
X45723889Y-30071514D01*
X45720237Y-30075962D01*
X45716626Y-30080685D01*
X45713057Y-30085697D01*
X45709540Y-30090969D01*
X45706074Y-30096493D01*
X45702666Y-30102276D01*
X45699319Y-30108303D01*
X45696036Y-30114575D01*
X45689688Y-30127789D01*
X45683654Y-30141873D01*
X45677966Y-30156750D01*
X45672662Y-30172375D01*
X45667775Y-30188679D01*
X45663337Y-30205609D01*
X45659383Y-30223103D01*
X45658334Y-30229832D01*
X45657111Y-30240544D01*
X45655759Y-30254689D01*
X45654320Y-30271710D01*
X45651366Y-30312207D01*
X45648600Y-30357609D01*
X45645406Y-30409054D01*
X45643779Y-30430264D01*
X45642123Y-30448559D01*
X45640425Y-30464032D01*
X45638684Y-30476757D01*
X45636887Y-30486821D01*
X45635030Y-30494305D01*
X45632838Y-30500836D01*
X45630147Y-30507748D01*
X45627024Y-30514927D01*
X45623540Y-30522274D01*
X45619767Y-30529660D01*
X45615773Y-30536991D01*
X45611628Y-30544140D01*
X45607405Y-30551014D01*
X45603173Y-30557484D01*
X45599000Y-30563458D01*
X45594958Y-30568814D01*
X45591117Y-30573445D01*
X45587544Y-30577236D01*
X45584313Y-30580090D01*
X45582903Y-30580983D01*
X45581492Y-30581883D01*
X45581183Y-30581994D01*
X45580875Y-30582109D01*
X45580258Y-30582341D01*
X45579705Y-30582420D01*
X45579428Y-30582458D01*
X45579152Y-30582493D01*
X45578519Y-30582463D01*
X45577946Y-30582379D01*
X45577819Y-30582340D01*
X45577692Y-30582303D01*
X45577564Y-30582268D01*
X45577437Y-30582234D01*
X45577213Y-30582131D01*
X45576991Y-30582028D01*
X45576890Y-30581971D01*
X45576840Y-30581942D01*
X45576791Y-30581913D01*
X45576767Y-30581894D01*
X45576744Y-30581876D01*
X45576721Y-30581858D01*
X45576698Y-30581842D01*
X45576606Y-30581776D01*
X45576585Y-30581758D01*
X45576564Y-30581739D01*
X45576521Y-30581700D01*
X45576500Y-30581680D01*
X45576479Y-30581660D01*
X45576457Y-30581641D01*
X45576447Y-30581632D01*
X45576436Y-30581623D01*
X45576417Y-30581603D01*
X45576397Y-30581582D01*
X45576359Y-30581539D01*
X45576340Y-30581518D01*
X45576321Y-30581497D01*
X45576301Y-30581476D01*
X45576281Y-30581456D01*
X45576144Y-30581280D01*
X45576022Y-30581089D01*
X45575922Y-30580880D01*
X45575822Y-30580670D01*
X45575682Y-30580197D01*
X45575604Y-30579670D01*
X45575587Y-30579090D01*
X45575607Y-30578771D01*
X45575629Y-30578457D01*
X45575654Y-30578282D01*
X45575679Y-30578111D01*
X45575730Y-30577771D01*
X45575894Y-30577038D01*
X45576006Y-30576648D01*
X45576062Y-30576451D01*
X45576117Y-30576252D01*
X45576259Y-30575839D01*
X45576400Y-30575421D01*
X45576571Y-30574985D01*
X45576743Y-30574543D01*
X45577142Y-30573613D01*
X45577603Y-30572636D01*
X45578120Y-30571614D01*
X45578696Y-30570546D01*
X45579013Y-30569986D01*
X45579172Y-30569708D01*
X45579331Y-30569432D01*
X45580022Y-30568272D01*
X45580397Y-30567666D01*
X45580773Y-30567067D01*
X45581580Y-30565815D01*
X45582446Y-30564526D01*
X45583369Y-30563191D01*
X45583858Y-30562501D01*
X45584103Y-30562158D01*
X45584347Y-30561817D01*
X45585385Y-30560398D01*
X45586476Y-30558941D01*
X45587626Y-30557438D01*
X45588830Y-30555905D01*
X45591544Y-30552311D01*
X45594325Y-30548321D01*
X45597131Y-30544010D01*
X45599927Y-30539456D01*
X45602669Y-30534741D01*
X45605323Y-30529957D01*
X45610194Y-30520481D01*
X45612334Y-30515950D01*
X45614226Y-30511669D01*
X45615828Y-30507717D01*
X45617102Y-30504177D01*
X45618008Y-30501126D01*
X45618506Y-30498654D01*
X45618558Y-30496830D01*
X45618481Y-30496513D01*
X45618405Y-30496189D01*
X45618334Y-30496076D01*
X45618263Y-30495965D01*
X45618123Y-30495747D01*
X45618107Y-30495733D01*
X45618092Y-30495720D01*
X45618076Y-30495707D01*
X45618061Y-30495694D01*
X45618045Y-30495682D01*
X45618030Y-30495671D01*
X45617999Y-30495648D01*
X45617856Y-30495587D01*
X45617846Y-30495585D01*
X45617836Y-30495583D01*
X45617826Y-30495581D01*
X45617816Y-30495579D01*
X45617796Y-30495573D01*
X45617776Y-30495568D01*
X45617756Y-30495562D01*
X45617736Y-30495557D01*
X45617726Y-30495554D01*
X45617716Y-30495552D01*
X45617706Y-30495550D01*
X45617696Y-30495549D01*
X45617520Y-30495549D01*
X45617508Y-30495550D01*
X45617496Y-30495552D01*
X45617472Y-30495557D01*
X45617448Y-30495562D01*
X45617424Y-30495568D01*
X45617399Y-30495573D01*
X45617374Y-30495579D01*
X45617350Y-30495583D01*
X45617338Y-30495585D01*
X45617326Y-30495587D01*
X45617300Y-30495595D01*
X45617274Y-30495603D01*
X45617222Y-30495617D01*
X45617170Y-30495632D01*
X45617144Y-30495639D01*
X45617118Y-30495648D01*
X45617062Y-30495671D01*
X45617006Y-30495694D01*
X45616978Y-30495707D01*
X45616950Y-30495720D01*
X45616922Y-30495733D01*
X45616894Y-30495747D01*
X45616656Y-30495861D01*
X45616593Y-30495901D01*
X45616530Y-30495941D01*
X45616499Y-30495960D01*
X45616467Y-30495978D01*
X45616436Y-30495996D01*
X45616404Y-30496014D01*
X45616338Y-30496060D01*
X45616271Y-30496105D01*
X45616238Y-30496127D01*
X45616204Y-30496148D01*
X45616171Y-30496169D01*
X45616137Y-30496189D01*
X45615861Y-30496403D01*
X45615788Y-30496459D01*
X45615715Y-30496515D01*
X45615679Y-30496543D01*
X45615643Y-30496572D01*
X45615607Y-30496601D01*
X45615571Y-30496632D01*
X45615533Y-30496664D01*
X45615495Y-30496696D01*
X45615420Y-30496763D01*
X45615269Y-30496899D01*
X45614959Y-30497181D01*
X45614795Y-30497346D01*
X45614632Y-30497508D01*
X45614306Y-30497830D01*
X45613618Y-30498577D01*
X45613259Y-30498990D01*
X45612900Y-30499409D01*
X45612530Y-30499870D01*
X45612344Y-30500099D01*
X45612159Y-30500325D01*
X45611394Y-30501324D01*
X45611199Y-30501596D01*
X45611005Y-30501865D01*
X45610615Y-30502400D01*
X45609830Y-30503544D01*
X45609038Y-30504750D01*
X45608247Y-30506016D01*
X45607293Y-30507466D01*
X45606023Y-30509205D01*
X45605240Y-30510213D01*
X45604459Y-30511227D01*
X45602620Y-30513485D01*
X45598206Y-30518673D01*
X45592953Y-30524578D01*
X45587031Y-30531010D01*
X45580605Y-30537785D01*
X45573849Y-30544712D01*
X45566933Y-30551617D01*
X45558366Y-30560391D01*
X45550194Y-30569485D01*
X45542413Y-30578930D01*
X45535010Y-30588726D01*
X45527978Y-30598904D01*
X45521306Y-30609478D01*
X45514987Y-30620472D01*
X45509009Y-30631893D01*
X45503361Y-30643772D01*
X45498040Y-30656124D01*
X45493031Y-30668972D01*
X45488328Y-30682324D01*
X45483920Y-30696217D01*
X45479798Y-30710644D01*
X45475953Y-30725636D01*
X45472375Y-30741223D01*
X45470925Y-30748982D01*
X45469657Y-30757954D01*
X45467671Y-30778874D01*
X45466424Y-30802685D01*
X45465924Y-30828099D01*
X44568519Y-30828099D01*
X44569047Y-30727810D01*
X44569873Y-30606114D01*
X44570435Y-30567242D01*
X44571231Y-30539967D01*
X44572350Y-30522015D01*
X44573893Y-30511090D01*
X44575959Y-30504917D01*
X44578639Y-30501210D01*
X44579768Y-30499914D01*
X44580899Y-30498623D01*
X44582923Y-30495976D01*
X44584706Y-30493260D01*
X44586253Y-30490498D01*
X44587558Y-30487683D01*
X44588624Y-30484814D01*
X44589450Y-30481930D01*
X44589772Y-30480465D01*
X44590033Y-30479000D01*
X44590234Y-30477528D01*
X44590375Y-30476055D01*
X44590453Y-30474575D01*
X44590470Y-30473088D01*
X44590426Y-30471600D01*
X44590319Y-30470112D01*
X44590152Y-30468617D01*
X44589923Y-30467129D01*
X44589631Y-30465641D01*
X44589278Y-30464154D01*
X44588385Y-30461171D01*
X44587245Y-30458210D01*
X44585852Y-30455265D01*
X44584487Y-30452801D01*
X44583014Y-30450466D01*
X44581443Y-30448262D01*
X44579776Y-30446194D01*
X44578023Y-30444264D01*
X44576186Y-30442471D01*
X44574275Y-30440815D01*
X44572295Y-30439289D01*
X44570250Y-30437901D01*
X44568148Y-30436657D01*
X44565995Y-30435551D01*
X44563796Y-30434582D01*
X44563236Y-30434379D01*
X44562677Y-30434173D01*
X44561558Y-30433758D01*
X44559289Y-30433079D01*
X44556990Y-30432545D01*
X44554673Y-30432148D01*
X44552340Y-30431904D01*
X44550008Y-30431805D01*
X44550008Y-30340023D01*
X44550000Y-30340023D01*
X44550000Y-30340000D01*
X45187463Y-30340000D01*
X45187463Y-30600178D01*
X45200227Y-30600178D01*
X45207156Y-30599789D01*
X45214938Y-30598690D01*
X45223456Y-30596913D01*
X45232600Y-30594502D01*
X45242255Y-30591519D01*
X45252309Y-30588009D01*
X45262648Y-30584027D01*
X45273162Y-30579609D01*
X45283736Y-30574818D01*
X45294259Y-30569691D01*
X45304614Y-30564282D01*
X45314692Y-30558636D01*
X45324380Y-30552815D01*
X45333564Y-30546864D01*
X45342129Y-30540829D01*
X45349969Y-30534756D01*
X45359395Y-30526654D01*
X45368611Y-30517926D01*
X45377591Y-30508618D01*
X45386309Y-30498761D01*
X45394744Y-30488400D01*
X45402867Y-30477581D01*
X45410653Y-30466343D01*
X45418076Y-30454716D01*
X45425114Y-30442768D01*
X45431741Y-30430516D01*
X45437928Y-30418011D01*
X45443654Y-30405278D01*
X45448891Y-30392384D01*
X45453618Y-30379353D01*
X45457804Y-30366230D01*
X45461428Y-30353062D01*
X45464110Y-30341908D01*
X45465220Y-30336743D01*
X45466183Y-30331753D01*
X45467007Y-30326840D01*
X45467698Y-30321926D01*
X45468262Y-30316929D01*
X45468703Y-30311756D01*
X45469027Y-30306332D01*
X45469245Y-30300564D01*
X45469355Y-30294384D01*
X45469371Y-30287693D01*
X45469130Y-30272480D01*
X45468573Y-30254231D01*
X45467866Y-30236561D01*
X45467034Y-30221630D01*
X45466002Y-30208927D01*
X45464696Y-30197918D01*
X45463040Y-30188069D01*
X45460957Y-30178845D01*
X45458377Y-30169720D01*
X45455218Y-30160160D01*
X45450902Y-30148274D01*
X45446385Y-30136769D01*
X45441655Y-30125645D01*
X45436703Y-30114895D01*
X45431525Y-30104489D01*
X45426106Y-30094418D01*
X45420439Y-30084668D01*
X45414519Y-30075230D01*
X45408330Y-30066098D01*
X45401868Y-30057232D01*
X45395125Y-30048642D01*
X45388089Y-30040303D01*
X45380749Y-30032208D01*
X45373103Y-30024334D01*
X45365136Y-30016682D01*
X45356843Y-30009220D01*
X45348336Y-30002056D01*
X45339732Y-29995259D01*
X45331021Y-29988827D01*
X45322194Y-29982754D01*
X45313243Y-29977040D01*
X45304156Y-29971684D01*
X45294928Y-29966679D01*
X45285548Y-29962017D01*
X45276007Y-29957707D01*
X45266301Y-29953724D01*
X45256415Y-29950077D01*
X45246341Y-29946766D01*
X45236069Y-29943776D01*
X45225596Y-29941105D01*
X45214909Y-29938748D01*
X45203999Y-29936711D01*
X45187472Y-29933881D01*
X45187472Y-28514378D01*
X45187464Y-28514378D01*
X45187464Y-29933880D01*
X45187472Y-29933881D01*
X45187472Y-30172238D01*
X44481917Y-30172238D01*
X44481917Y-30064343D01*
X44508391Y-30064343D01*
X44508456Y-30066090D01*
X44508612Y-30067822D01*
X44508857Y-30069554D01*
X44509188Y-30071263D01*
X44509610Y-30072956D01*
X44510121Y-30074650D01*
X44510718Y-30076313D01*
X44511062Y-30077138D01*
X44511407Y-30077969D01*
X44512183Y-30079602D01*
X44513047Y-30081204D01*
X44513522Y-30082004D01*
X44513999Y-30082798D01*
X44514518Y-30083581D01*
X44515038Y-30084370D01*
X44516165Y-30085903D01*
X44517384Y-30087414D01*
X44518691Y-30088902D01*
X44520085Y-30090359D01*
X44522870Y-30093022D01*
X44525643Y-30095417D01*
X44528407Y-30097546D01*
X44529787Y-30098478D01*
X44531169Y-30099415D01*
X44533932Y-30101025D01*
X44535315Y-30101727D01*
X44536702Y-30102368D01*
X44538092Y-30102940D01*
X44539487Y-30103459D01*
X44540186Y-30103677D01*
X44540536Y-30103788D01*
X44540887Y-30103901D01*
X44542290Y-30104290D01*
X44543700Y-30104596D01*
X44544054Y-30104663D01*
X44544409Y-30104728D01*
X44545117Y-30104855D01*
X44546540Y-30105046D01*
X44547971Y-30105175D01*
X44549411Y-30105236D01*
X44550858Y-30105236D01*
X44552315Y-30105175D01*
X44553786Y-30105046D01*
X44555266Y-30104855D01*
X44556012Y-30104728D01*
X44556385Y-30104663D01*
X44556758Y-30104596D01*
X44558268Y-30104255D01*
X44559779Y-30103909D01*
X44562854Y-30102978D01*
X44565987Y-30101780D01*
X44567279Y-30101216D01*
X44568558Y-30100567D01*
X44569825Y-30099858D01*
X44571076Y-30099079D01*
X44572312Y-30098240D01*
X44573531Y-30097340D01*
X44574727Y-30096394D01*
X44575900Y-30095387D01*
X44576476Y-30094854D01*
X44577050Y-30094326D01*
X44577612Y-30093776D01*
X44577893Y-30093499D01*
X44578173Y-30093220D01*
X44579254Y-30092059D01*
X44580334Y-30090893D01*
X44582364Y-30088406D01*
X44584248Y-30085789D01*
X44585971Y-30083065D01*
X44587514Y-30080265D01*
X44588864Y-30077397D01*
X44589164Y-30076673D01*
X44589463Y-30075955D01*
X44590007Y-30074505D01*
X44590495Y-30073048D01*
X44590922Y-30071598D01*
X44591290Y-30070141D01*
X44591595Y-30068707D01*
X44591838Y-30067273D01*
X44592013Y-30065846D01*
X44592118Y-30064442D01*
X44592154Y-30063046D01*
X44592099Y-30062100D01*
X44591931Y-30061024D01*
X44591658Y-30059819D01*
X44591286Y-30058499D01*
X44590821Y-30057072D01*
X44590266Y-30055561D01*
X44589631Y-30053967D01*
X44588917Y-30052319D01*
X44588134Y-30050625D01*
X44587285Y-30048878D01*
X44587057Y-30048441D01*
X44586829Y-30048000D01*
X44586375Y-30047116D01*
X44585410Y-30045346D01*
X44584399Y-30043568D01*
X44583344Y-30041798D01*
X44582251Y-30040066D01*
X44581130Y-30038365D01*
X44570105Y-30022122D01*
X44570105Y-29590359D01*
X44530419Y-29590359D01*
X44530419Y-30023442D01*
X44519395Y-30036541D01*
X44518718Y-30037380D01*
X44518040Y-30038212D01*
X44516774Y-30039906D01*
X44515599Y-30041607D01*
X44514510Y-30043316D01*
X44513512Y-30045048D01*
X44512603Y-30046780D01*
X44511782Y-30048527D01*
X44511050Y-30050282D01*
X44510405Y-30052029D01*
X44509852Y-30053791D01*
X44509387Y-30055554D01*
X44509011Y-30057316D01*
X44508723Y-30059079D01*
X44508523Y-30060841D01*
X44508412Y-30062588D01*
X44508391Y-30064343D01*
X44481917Y-30064343D01*
X44481917Y-29947552D01*
X44391516Y-29947552D01*
X44009751Y-29947552D01*
X44009751Y-29916722D01*
X44010083Y-29916722D01*
X44062998Y-29916722D01*
X44062998Y-29806469D01*
X44120324Y-29806469D01*
X44120324Y-29907894D01*
X44173239Y-29907894D01*
X44173239Y-29806469D01*
X44221747Y-29806469D01*
X44221747Y-29912304D01*
X44274663Y-29912304D01*
X44274663Y-29722691D01*
X44010083Y-29722691D01*
X44010083Y-29916722D01*
X44009751Y-29916722D01*
X44009751Y-29613392D01*
X44010079Y-29613392D01*
X44010079Y-29722691D01*
X44010083Y-29722691D01*
X44010083Y-29613509D01*
X44010079Y-29613392D01*
X44009751Y-29613392D01*
X44009751Y-29603260D01*
X44010079Y-29613276D01*
X44010083Y-29613392D01*
X44010083Y-29613509D01*
X44012284Y-29680798D01*
X44272458Y-29680798D01*
X44274663Y-29576284D01*
X44274914Y-29564350D01*
X44256047Y-29559460D01*
X44245936Y-29556752D01*
X44232358Y-29552983D01*
X44217085Y-29548657D01*
X44201899Y-29544270D01*
X44186371Y-29539814D01*
X44170172Y-29535313D01*
X44155221Y-29531277D01*
X44143431Y-29528256D01*
X44138842Y-29527050D01*
X44134692Y-29525807D01*
X44132877Y-29525184D01*
X44131062Y-29524556D01*
X44129468Y-29523953D01*
X44128035Y-29523350D01*
X44126774Y-29522778D01*
X44125695Y-29522213D01*
X44124806Y-29521687D01*
X44124117Y-29521183D01*
X44123643Y-29520718D01*
X44123579Y-29520611D01*
X44123516Y-29520505D01*
X44123389Y-29520298D01*
X44123383Y-29520273D01*
X44123378Y-29520247D01*
X44123368Y-29520195D01*
X44123349Y-29520092D01*
X44123357Y-29520004D01*
X44123362Y-29519958D01*
X44123366Y-29519909D01*
X44123386Y-29519869D01*
X44123406Y-29519828D01*
X44123426Y-29519786D01*
X44123436Y-29519764D01*
X44123446Y-29519741D01*
X44123463Y-29519722D01*
X44123481Y-29519702D01*
X44123516Y-29519664D01*
X44123533Y-29519645D01*
X44123551Y-29519624D01*
X44123568Y-29519603D01*
X44123577Y-29519592D01*
X44123585Y-29519581D01*
X44123657Y-29519538D01*
X44123728Y-29519493D01*
X44123871Y-29519401D01*
X44124156Y-29519215D01*
X44125159Y-29518742D01*
X44126570Y-29518177D01*
X44127019Y-29518008D01*
X44127468Y-29517843D01*
X44128365Y-29517514D01*
X44133011Y-29515942D01*
X44138903Y-29514096D01*
X44145846Y-29512020D01*
X44153643Y-29509793D01*
X44162104Y-29507458D01*
X44171031Y-29505078D01*
X44210595Y-29494526D01*
X44243790Y-29485340D01*
X44272454Y-29477139D01*
X44273684Y-29419102D01*
X44274914Y-29361073D01*
X44009730Y-29361073D01*
X44009730Y-29321385D01*
X44010073Y-29321385D01*
X44062991Y-29321385D01*
X44062991Y-29211140D01*
X44120316Y-29211140D01*
X44120316Y-29312558D01*
X44173232Y-29312558D01*
X44173232Y-29211132D01*
X44221737Y-29211132D01*
X44221737Y-29316967D01*
X44274655Y-29316967D01*
X44274655Y-29127354D01*
X44010073Y-29127354D01*
X44010073Y-29321385D01*
X44009730Y-29321385D01*
X44009730Y-29127354D01*
X44010069Y-29127354D01*
X44010073Y-29127354D01*
X44010073Y-28752514D01*
X44010069Y-28752514D01*
X44010069Y-29127354D01*
X44009730Y-29127354D01*
X44009730Y-28752514D01*
X44010069Y-28752514D01*
X44010069Y-28752507D01*
X44010073Y-28752507D01*
X44120547Y-28752346D01*
X44159279Y-28752011D01*
X44185797Y-28751408D01*
X44202233Y-28750462D01*
X44210717Y-28749096D01*
X44211679Y-28748666D01*
X44212641Y-28748242D01*
X44213379Y-28747242D01*
X44213198Y-28746098D01*
X44212779Y-28745447D01*
X44212361Y-28744801D01*
X44208922Y-28741001D01*
X44201419Y-28733105D01*
X44176097Y-28706959D01*
X44140166Y-28670246D01*
X44097399Y-28626828D01*
X43988490Y-28516583D01*
X44189736Y-28515438D01*
X44274655Y-28514952D01*
X44274911Y-28514950D01*
X44390980Y-28514286D01*
X44507479Y-28633473D01*
X44530419Y-28656933D01*
X44530419Y-28656941D01*
X44623980Y-28752652D01*
X44844306Y-28752430D01*
X44929742Y-28752049D01*
X44999493Y-28751179D01*
X45046378Y-28749935D01*
X45059001Y-28749226D01*
X45063212Y-28748471D01*
X45062485Y-28747494D01*
X45061563Y-28746444D01*
X45060641Y-28745388D01*
X45053824Y-28738018D01*
X45029315Y-28712323D01*
X44993401Y-28675244D01*
X44949811Y-28630665D01*
X44837828Y-28516598D01*
X45038007Y-28515324D01*
X45187464Y-28514378D01*
X45187464Y-28514325D01*
X45187472Y-28514324D01*
X45238177Y-28513996D01*
X45355035Y-28633458D01*
G37*
G36*
X44226130Y-30053624D02*
G01*
X44226102Y-30056012D01*
X44225997Y-30058277D01*
X44225815Y-30060437D01*
X44225558Y-30062497D01*
X44225220Y-30064465D01*
X44224799Y-30066342D01*
X44224290Y-30068150D01*
X44223693Y-30069889D01*
X44223002Y-30071560D01*
X44222609Y-30072370D01*
X44222216Y-30073185D01*
X44221329Y-30074765D01*
X44220341Y-30076313D01*
X44219250Y-30077824D01*
X44218049Y-30079319D01*
X44216736Y-30080807D01*
X44215308Y-30082295D01*
X44213210Y-30084271D01*
X44211085Y-30086048D01*
X44208933Y-30087612D01*
X44206767Y-30088986D01*
X44205676Y-30089567D01*
X44205131Y-30089858D01*
X44204587Y-30090153D01*
X44202401Y-30091137D01*
X44201307Y-30091527D01*
X44200215Y-30091923D01*
X44198029Y-30092511D01*
X44195857Y-30092923D01*
X44194777Y-30093026D01*
X44193698Y-30093136D01*
X44191559Y-30093174D01*
X44190505Y-30093109D01*
X44189977Y-30093075D01*
X44189450Y-30093037D01*
X44188410Y-30092883D01*
X44187371Y-30092724D01*
X44185328Y-30092236D01*
X44184329Y-30091907D01*
X44183830Y-30091741D01*
X44183329Y-30091572D01*
X44182354Y-30091159D01*
X44181378Y-30090741D01*
X44179480Y-30089741D01*
X44178561Y-30089164D01*
X44177642Y-30088581D01*
X44177198Y-30088253D01*
X44176755Y-30087921D01*
X44175868Y-30087254D01*
X44174164Y-30085774D01*
X44173350Y-30084956D01*
X44172536Y-30084133D01*
X44171762Y-30083240D01*
X44170989Y-30082341D01*
X44170258Y-30081369D01*
X44169528Y-30080403D01*
X44168844Y-30079351D01*
X44168160Y-30078305D01*
X44166888Y-30076069D01*
X44165721Y-30073696D01*
X44164660Y-30071179D01*
X44163714Y-30068516D01*
X44162888Y-30065724D01*
X44162186Y-30062802D01*
X44161614Y-30059742D01*
X44161177Y-30056561D01*
X44158837Y-30035786D01*
X44226130Y-30035786D01*
X44226130Y-30053624D01*
G37*
G36*
X43644864Y-30451229D02*
G01*
X43801262Y-30452542D01*
X43816861Y-30463238D01*
X43820086Y-30465657D01*
X43823098Y-30468319D01*
X43825898Y-30471211D01*
X43828484Y-30474308D01*
X43829671Y-30475959D01*
X43830859Y-30477604D01*
X43833018Y-30481076D01*
X43834965Y-30484722D01*
X43836703Y-30488499D01*
X43838227Y-30492398D01*
X43839537Y-30496411D01*
X43840638Y-30500508D01*
X43841527Y-30504689D01*
X43842204Y-30508923D01*
X43842671Y-30513188D01*
X43842927Y-30517483D01*
X43842972Y-30521771D01*
X43842805Y-30526013D01*
X43842431Y-30530262D01*
X43841845Y-30534466D01*
X43841052Y-30538601D01*
X43840050Y-30542652D01*
X43838837Y-30546604D01*
X43837418Y-30550442D01*
X43835789Y-30554142D01*
X43833953Y-30557690D01*
X43831906Y-30561070D01*
X43829653Y-30564267D01*
X43827195Y-30567250D01*
X43824526Y-30570004D01*
X43823088Y-30571273D01*
X43821650Y-30572537D01*
X43820109Y-30573671D01*
X43818568Y-30574810D01*
X43815280Y-30576802D01*
X43813996Y-30577447D01*
X43812712Y-30578099D01*
X43811354Y-30578686D01*
X43810994Y-30578825D01*
X43810635Y-30578966D01*
X43809916Y-30579251D01*
X43808371Y-30579769D01*
X43806700Y-30580258D01*
X43805787Y-30580489D01*
X43805331Y-30580604D01*
X43804875Y-30580716D01*
X43802872Y-30581143D01*
X43801771Y-30581340D01*
X43801220Y-30581438D01*
X43800669Y-30581532D01*
X43798241Y-30581906D01*
X43796904Y-30582071D01*
X43795565Y-30582241D01*
X43794093Y-30582395D01*
X43792618Y-30582554D01*
X43785809Y-30583096D01*
X43777627Y-30583554D01*
X43767874Y-30583920D01*
X43756362Y-30584210D01*
X43742901Y-30584431D01*
X43727297Y-30584591D01*
X43688902Y-30584767D01*
X43639641Y-30584805D01*
X43581509Y-30584706D01*
X43536822Y-30584240D01*
X43503594Y-30583149D01*
X43490656Y-30582302D01*
X43479836Y-30581204D01*
X43470889Y-30579830D01*
X43463563Y-30578144D01*
X43457610Y-30576123D01*
X43452784Y-30573727D01*
X43448834Y-30570935D01*
X43445513Y-30567700D01*
X43442574Y-30564007D01*
X43439767Y-30559819D01*
X43438435Y-30557469D01*
X43437173Y-30554760D01*
X43435982Y-30551724D01*
X43434872Y-30548420D01*
X43433852Y-30544895D01*
X43432931Y-30541188D01*
X43432114Y-30537358D01*
X43431410Y-30533459D01*
X43430829Y-30529530D01*
X43430377Y-30525616D01*
X43430062Y-30521786D01*
X43429894Y-30518071D01*
X43429881Y-30514531D01*
X43430030Y-30511204D01*
X43430350Y-30508160D01*
X43430848Y-30505429D01*
X43431946Y-30500912D01*
X43433079Y-30496762D01*
X43434271Y-30492955D01*
X43435544Y-30489453D01*
X43436921Y-30486241D01*
X43438422Y-30483281D01*
X43440072Y-30480542D01*
X43441893Y-30478001D01*
X43443909Y-30475621D01*
X43446143Y-30473385D01*
X43447378Y-30472318D01*
X43448613Y-30471257D01*
X43449978Y-30470233D01*
X43451344Y-30469204D01*
X43454360Y-30467205D01*
X43457682Y-30465229D01*
X43461335Y-30463246D01*
X43465338Y-30461232D01*
X43488467Y-30449917D01*
X43644864Y-30451229D01*
G37*
G36*
X43828387Y-31107609D02*
G01*
X43827700Y-31123181D01*
X43826987Y-31135250D01*
X43826569Y-31140148D01*
X43826090Y-31144421D01*
X43825526Y-31148129D01*
X43824858Y-31151341D01*
X43824069Y-31154156D01*
X43823136Y-31156651D01*
X43822041Y-31158894D01*
X43820771Y-31160977D01*
X43819298Y-31162976D01*
X43817608Y-31164967D01*
X43813494Y-31169247D01*
X43811028Y-31171528D01*
X43808348Y-31173664D01*
X43805470Y-31175663D01*
X43803938Y-31176593D01*
X43802407Y-31177517D01*
X43799172Y-31179234D01*
X43795783Y-31180806D01*
X43792250Y-31182232D01*
X43790420Y-31182874D01*
X43788590Y-31183522D01*
X43780947Y-31185665D01*
X43772971Y-31187229D01*
X43764769Y-31188221D01*
X43756465Y-31188633D01*
X43748166Y-31188465D01*
X43739993Y-31187710D01*
X43732056Y-31186375D01*
X43724475Y-31184452D01*
X43722663Y-31183868D01*
X43720852Y-31183277D01*
X43719106Y-31182617D01*
X43717360Y-31181950D01*
X43714015Y-31180477D01*
X43712421Y-31179668D01*
X43710827Y-31178852D01*
X43707818Y-31177090D01*
X43704997Y-31175167D01*
X43703687Y-31174136D01*
X43702378Y-31173100D01*
X43701178Y-31172000D01*
X43699978Y-31170895D01*
X43698718Y-31169575D01*
X43698107Y-31168874D01*
X43697802Y-31168525D01*
X43697497Y-31168179D01*
X43695170Y-31165135D01*
X43693001Y-31161778D01*
X43690993Y-31158093D01*
X43689141Y-31154103D01*
X43687445Y-31149807D01*
X43685912Y-31145192D01*
X43684538Y-31140263D01*
X43683322Y-31135029D01*
X43682269Y-31129498D01*
X43681374Y-31123654D01*
X43680642Y-31117512D01*
X43680071Y-31111073D01*
X43679663Y-31104336D01*
X43679417Y-31097302D01*
X43679335Y-31089978D01*
X43679335Y-31058857D01*
X43830397Y-31058857D01*
X43828387Y-31107609D01*
G37*
D11*
X45642377Y-33517721D02*
X45594758Y-33660578D01*
X45594758Y-33660578D02*
X45547139Y-33708197D01*
X45547139Y-33708197D02*
X45451901Y-33755816D01*
X45451901Y-33755816D02*
X45309044Y-33755816D01*
X45309044Y-33755816D02*
X45213806Y-33708197D01*
X45213806Y-33708197D02*
X45166187Y-33660578D01*
X45166187Y-33660578D02*
X45118567Y-33565340D01*
X45118567Y-33565340D02*
X45118567Y-33184388D01*
X45118567Y-33184388D02*
X46118567Y-33184388D01*
X46118567Y-33184388D02*
X46118567Y-33517721D01*
X46118567Y-33517721D02*
X46070948Y-33612959D01*
X46070948Y-33612959D02*
X46023329Y-33660578D01*
X46023329Y-33660578D02*
X45928091Y-33708197D01*
X45928091Y-33708197D02*
X45832853Y-33708197D01*
X45832853Y-33708197D02*
X45737615Y-33660578D01*
X45737615Y-33660578D02*
X45689996Y-33612959D01*
X45689996Y-33612959D02*
X45642377Y-33517721D01*
X45642377Y-33517721D02*
X45642377Y-33184388D01*
X45404282Y-34136769D02*
X45404282Y-34612959D01*
X45118567Y-34041531D02*
X46118567Y-34374864D01*
X46118567Y-34374864D02*
X45118567Y-34708197D01*
X46118567Y-35041531D02*
X45309044Y-35041531D01*
X45309044Y-35041531D02*
X45213806Y-35089150D01*
X45213806Y-35089150D02*
X45166187Y-35136769D01*
X45166187Y-35136769D02*
X45118567Y-35232007D01*
X45118567Y-35232007D02*
X45118567Y-35422483D01*
X45118567Y-35422483D02*
X45166187Y-35517721D01*
X45166187Y-35517721D02*
X45213806Y-35565340D01*
X45213806Y-35565340D02*
X45309044Y-35612959D01*
X45309044Y-35612959D02*
X46118567Y-35612959D01*
X43812377Y-33517721D02*
X43812377Y-33184388D01*
X43288567Y-33184388D02*
X44288567Y-33184388D01*
X44288567Y-33184388D02*
X44288567Y-33660578D01*
X43383806Y-34041531D02*
X43336187Y-34089150D01*
X43336187Y-34089150D02*
X43288567Y-34041531D01*
X43288567Y-34041531D02*
X43336187Y-33993912D01*
X43336187Y-33993912D02*
X43383806Y-34041531D01*
X43383806Y-34041531D02*
X43288567Y-34041531D01*
X44288567Y-34803435D02*
X43574282Y-34803435D01*
X43574282Y-34803435D02*
X43431425Y-34755816D01*
X43431425Y-34755816D02*
X43336187Y-34660578D01*
X43336187Y-34660578D02*
X43288567Y-34517721D01*
X43288567Y-34517721D02*
X43288567Y-34422483D01*
X44193329Y-35993912D02*
X44240948Y-36041531D01*
X44240948Y-36041531D02*
X44288567Y-36136769D01*
X44288567Y-36136769D02*
X44288567Y-36374864D01*
X44288567Y-36374864D02*
X44240948Y-36470102D01*
X44240948Y-36470102D02*
X44193329Y-36517721D01*
X44193329Y-36517721D02*
X44098091Y-36565340D01*
X44098091Y-36565340D02*
X44002853Y-36565340D01*
X44002853Y-36565340D02*
X43859996Y-36517721D01*
X43859996Y-36517721D02*
X43288567Y-35946293D01*
X43288567Y-35946293D02*
X43288567Y-36565340D01*
X44288567Y-37184388D02*
X44288567Y-37279626D01*
X44288567Y-37279626D02*
X44240948Y-37374864D01*
X44240948Y-37374864D02*
X44193329Y-37422483D01*
X44193329Y-37422483D02*
X44098091Y-37470102D01*
X44098091Y-37470102D02*
X43907615Y-37517721D01*
X43907615Y-37517721D02*
X43669520Y-37517721D01*
X43669520Y-37517721D02*
X43479044Y-37470102D01*
X43479044Y-37470102D02*
X43383806Y-37422483D01*
X43383806Y-37422483D02*
X43336187Y-37374864D01*
X43336187Y-37374864D02*
X43288567Y-37279626D01*
X43288567Y-37279626D02*
X43288567Y-37184388D01*
X43288567Y-37184388D02*
X43336187Y-37089150D01*
X43336187Y-37089150D02*
X43383806Y-37041531D01*
X43383806Y-37041531D02*
X43479044Y-36993912D01*
X43479044Y-36993912D02*
X43669520Y-36946293D01*
X43669520Y-36946293D02*
X43907615Y-36946293D01*
X43907615Y-36946293D02*
X44098091Y-36993912D01*
X44098091Y-36993912D02*
X44193329Y-37041531D01*
X44193329Y-37041531D02*
X44240948Y-37089150D01*
X44240948Y-37089150D02*
X44288567Y-37184388D01*
X44193329Y-37898674D02*
X44240948Y-37946293D01*
X44240948Y-37946293D02*
X44288567Y-38041531D01*
X44288567Y-38041531D02*
X44288567Y-38279626D01*
X44288567Y-38279626D02*
X44240948Y-38374864D01*
X44240948Y-38374864D02*
X44193329Y-38422483D01*
X44193329Y-38422483D02*
X44098091Y-38470102D01*
X44098091Y-38470102D02*
X44002853Y-38470102D01*
X44002853Y-38470102D02*
X43859996Y-38422483D01*
X43859996Y-38422483D02*
X43288567Y-37851055D01*
X43288567Y-37851055D02*
X43288567Y-38470102D01*
X43955234Y-39327245D02*
X43288567Y-39327245D01*
X44336187Y-39089150D02*
X43621901Y-38851055D01*
X43621901Y-38851055D02*
X43621901Y-39470102D01*
X47055714Y-43794819D02*
X47150952Y-43794819D01*
X47150952Y-43794819D02*
X47246190Y-43842438D01*
X47246190Y-43842438D02*
X47293809Y-43890057D01*
X47293809Y-43890057D02*
X47341428Y-43985295D01*
X47341428Y-43985295D02*
X47389047Y-44175771D01*
X47389047Y-44175771D02*
X47389047Y-44413866D01*
X47389047Y-44413866D02*
X47341428Y-44604342D01*
X47341428Y-44604342D02*
X47293809Y-44699580D01*
X47293809Y-44699580D02*
X47246190Y-44747200D01*
X47246190Y-44747200D02*
X47150952Y-44794819D01*
X47150952Y-44794819D02*
X47055714Y-44794819D01*
X47055714Y-44794819D02*
X46960476Y-44747200D01*
X46960476Y-44747200D02*
X46912857Y-44699580D01*
X46912857Y-44699580D02*
X46865238Y-44604342D01*
X46865238Y-44604342D02*
X46817619Y-44413866D01*
X46817619Y-44413866D02*
X46817619Y-44175771D01*
X46817619Y-44175771D02*
X46865238Y-43985295D01*
X46865238Y-43985295D02*
X46912857Y-43890057D01*
X46912857Y-43890057D02*
X46960476Y-43842438D01*
X46960476Y-43842438D02*
X47055714Y-43794819D01*
X47865238Y-44747200D02*
X47865238Y-44794819D01*
X47865238Y-44794819D02*
X47817619Y-44890057D01*
X47817619Y-44890057D02*
X47770000Y-44937676D01*
X48817618Y-44794819D02*
X48246190Y-44794819D01*
X48531904Y-44794819D02*
X48531904Y-43794819D01*
X48531904Y-43794819D02*
X48436666Y-43937676D01*
X48436666Y-43937676D02*
X48341428Y-44032914D01*
X48341428Y-44032914D02*
X48246190Y-44080533D01*
X49674761Y-44128152D02*
X49674761Y-44794819D01*
X49246190Y-44128152D02*
X49246190Y-44651961D01*
X49246190Y-44651961D02*
X49293809Y-44747200D01*
X49293809Y-44747200D02*
X49389047Y-44794819D01*
X49389047Y-44794819D02*
X49531904Y-44794819D01*
X49531904Y-44794819D02*
X49627142Y-44747200D01*
X49627142Y-44747200D02*
X49674761Y-44699580D01*
X67206666Y-52104819D02*
X67206666Y-51104819D01*
X67206666Y-51485771D02*
X67301904Y-51438152D01*
X67301904Y-51438152D02*
X67492380Y-51438152D01*
X67492380Y-51438152D02*
X67587618Y-51485771D01*
X67587618Y-51485771D02*
X67635237Y-51533390D01*
X67635237Y-51533390D02*
X67682856Y-51628628D01*
X67682856Y-51628628D02*
X67682856Y-51914342D01*
X67682856Y-51914342D02*
X67635237Y-52009580D01*
X67635237Y-52009580D02*
X67587618Y-52057200D01*
X67587618Y-52057200D02*
X67492380Y-52104819D01*
X67492380Y-52104819D02*
X67301904Y-52104819D01*
X67301904Y-52104819D02*
X67206666Y-52057200D01*
X68539999Y-52104819D02*
X68539999Y-51581009D01*
X68539999Y-51581009D02*
X68492380Y-51485771D01*
X68492380Y-51485771D02*
X68397142Y-51438152D01*
X68397142Y-51438152D02*
X68206666Y-51438152D01*
X68206666Y-51438152D02*
X68111428Y-51485771D01*
X68539999Y-52057200D02*
X68444761Y-52104819D01*
X68444761Y-52104819D02*
X68206666Y-52104819D01*
X68206666Y-52104819D02*
X68111428Y-52057200D01*
X68111428Y-52057200D02*
X68063809Y-51961961D01*
X68063809Y-51961961D02*
X68063809Y-51866723D01*
X68063809Y-51866723D02*
X68111428Y-51771485D01*
X68111428Y-51771485D02*
X68206666Y-51723866D01*
X68206666Y-51723866D02*
X68444761Y-51723866D01*
X68444761Y-51723866D02*
X68539999Y-51676247D01*
X68873333Y-51438152D02*
X69254285Y-51438152D01*
X69016190Y-51104819D02*
X69016190Y-51961961D01*
X69016190Y-51961961D02*
X69063809Y-52057200D01*
X69063809Y-52057200D02*
X69159047Y-52104819D01*
X69159047Y-52104819D02*
X69254285Y-52104819D01*
X69349524Y-52200057D02*
X70111428Y-52200057D01*
X70349524Y-52104819D02*
X70349524Y-51438152D01*
X70349524Y-51104819D02*
X70301905Y-51152438D01*
X70301905Y-51152438D02*
X70349524Y-51200057D01*
X70349524Y-51200057D02*
X70397143Y-51152438D01*
X70397143Y-51152438D02*
X70349524Y-51104819D01*
X70349524Y-51104819D02*
X70349524Y-51200057D01*
X70825714Y-51438152D02*
X70825714Y-52104819D01*
X70825714Y-51533390D02*
X70873333Y-51485771D01*
X70873333Y-51485771D02*
X70968571Y-51438152D01*
X70968571Y-51438152D02*
X71111428Y-51438152D01*
X71111428Y-51438152D02*
X71206666Y-51485771D01*
X71206666Y-51485771D02*
X71254285Y-51581009D01*
X71254285Y-51581009D02*
X71254285Y-52104819D01*
X71730476Y-51723866D02*
X72492381Y-51723866D01*
X73111428Y-52104819D02*
X73016190Y-52057200D01*
X73016190Y-52057200D02*
X72968571Y-52009580D01*
X72968571Y-52009580D02*
X72920952Y-51914342D01*
X72920952Y-51914342D02*
X72920952Y-51628628D01*
X72920952Y-51628628D02*
X72968571Y-51533390D01*
X72968571Y-51533390D02*
X73016190Y-51485771D01*
X73016190Y-51485771D02*
X73111428Y-51438152D01*
X73111428Y-51438152D02*
X73254285Y-51438152D01*
X73254285Y-51438152D02*
X73349523Y-51485771D01*
X73349523Y-51485771D02*
X73397142Y-51533390D01*
X73397142Y-51533390D02*
X73444761Y-51628628D01*
X73444761Y-51628628D02*
X73444761Y-51914342D01*
X73444761Y-51914342D02*
X73397142Y-52009580D01*
X73397142Y-52009580D02*
X73349523Y-52057200D01*
X73349523Y-52057200D02*
X73254285Y-52104819D01*
X73254285Y-52104819D02*
X73111428Y-52104819D01*
X74301904Y-51438152D02*
X74301904Y-52104819D01*
X73873333Y-51438152D02*
X73873333Y-51961961D01*
X73873333Y-51961961D02*
X73920952Y-52057200D01*
X73920952Y-52057200D02*
X74016190Y-52104819D01*
X74016190Y-52104819D02*
X74159047Y-52104819D01*
X74159047Y-52104819D02*
X74254285Y-52057200D01*
X74254285Y-52057200D02*
X74301904Y-52009580D01*
X74635238Y-51438152D02*
X75016190Y-51438152D01*
X74778095Y-51104819D02*
X74778095Y-51961961D01*
X74778095Y-51961961D02*
X74825714Y-52057200D01*
X74825714Y-52057200D02*
X74920952Y-52104819D01*
X74920952Y-52104819D02*
X75016190Y-52104819D01*
X80904761Y-18174819D02*
X80333333Y-18174819D01*
X80619047Y-18174819D02*
X80619047Y-17174819D01*
X80619047Y-17174819D02*
X80523809Y-17317676D01*
X80523809Y-17317676D02*
X80428571Y-17412914D01*
X80428571Y-17412914D02*
X80333333Y-17460533D01*
X81523809Y-17174819D02*
X81619047Y-17174819D01*
X81619047Y-17174819D02*
X81714285Y-17222438D01*
X81714285Y-17222438D02*
X81761904Y-17270057D01*
X81761904Y-17270057D02*
X81809523Y-17365295D01*
X81809523Y-17365295D02*
X81857142Y-17555771D01*
X81857142Y-17555771D02*
X81857142Y-17793866D01*
X81857142Y-17793866D02*
X81809523Y-17984342D01*
X81809523Y-17984342D02*
X81761904Y-18079580D01*
X81761904Y-18079580D02*
X81714285Y-18127200D01*
X81714285Y-18127200D02*
X81619047Y-18174819D01*
X81619047Y-18174819D02*
X81523809Y-18174819D01*
X81523809Y-18174819D02*
X81428571Y-18127200D01*
X81428571Y-18127200D02*
X81380952Y-18079580D01*
X81380952Y-18079580D02*
X81333333Y-17984342D01*
X81333333Y-17984342D02*
X81285714Y-17793866D01*
X81285714Y-17793866D02*
X81285714Y-17555771D01*
X81285714Y-17555771D02*
X81333333Y-17365295D01*
X81333333Y-17365295D02*
X81380952Y-17270057D01*
X81380952Y-17270057D02*
X81428571Y-17222438D01*
X81428571Y-17222438D02*
X81523809Y-17174819D01*
X82285714Y-18174819D02*
X82285714Y-17174819D01*
X82380952Y-17793866D02*
X82666666Y-18174819D01*
X82666666Y-17508152D02*
X82285714Y-17889104D01*
X53217143Y-32054819D02*
X53883809Y-32054819D01*
X53883809Y-32054819D02*
X53455238Y-33054819D01*
X54693333Y-32388152D02*
X54693333Y-33054819D01*
X54455238Y-32007200D02*
X54217143Y-32721485D01*
X54217143Y-32721485D02*
X54836190Y-32721485D01*
X55693333Y-33054819D02*
X55217143Y-33054819D01*
X55217143Y-33054819D02*
X55217143Y-32054819D01*
X55979048Y-33007200D02*
X56121905Y-33054819D01*
X56121905Y-33054819D02*
X56360000Y-33054819D01*
X56360000Y-33054819D02*
X56455238Y-33007200D01*
X56455238Y-33007200D02*
X56502857Y-32959580D01*
X56502857Y-32959580D02*
X56550476Y-32864342D01*
X56550476Y-32864342D02*
X56550476Y-32769104D01*
X56550476Y-32769104D02*
X56502857Y-32673866D01*
X56502857Y-32673866D02*
X56455238Y-32626247D01*
X56455238Y-32626247D02*
X56360000Y-32578628D01*
X56360000Y-32578628D02*
X56169524Y-32531009D01*
X56169524Y-32531009D02*
X56074286Y-32483390D01*
X56074286Y-32483390D02*
X56026667Y-32435771D01*
X56026667Y-32435771D02*
X55979048Y-32340533D01*
X55979048Y-32340533D02*
X55979048Y-32245295D01*
X55979048Y-32245295D02*
X56026667Y-32150057D01*
X56026667Y-32150057D02*
X56074286Y-32102438D01*
X56074286Y-32102438D02*
X56169524Y-32054819D01*
X56169524Y-32054819D02*
X56407619Y-32054819D01*
X56407619Y-32054819D02*
X56550476Y-32102438D01*
X57169524Y-32054819D02*
X57264762Y-32054819D01*
X57264762Y-32054819D02*
X57360000Y-32102438D01*
X57360000Y-32102438D02*
X57407619Y-32150057D01*
X57407619Y-32150057D02*
X57455238Y-32245295D01*
X57455238Y-32245295D02*
X57502857Y-32435771D01*
X57502857Y-32435771D02*
X57502857Y-32673866D01*
X57502857Y-32673866D02*
X57455238Y-32864342D01*
X57455238Y-32864342D02*
X57407619Y-32959580D01*
X57407619Y-32959580D02*
X57360000Y-33007200D01*
X57360000Y-33007200D02*
X57264762Y-33054819D01*
X57264762Y-33054819D02*
X57169524Y-33054819D01*
X57169524Y-33054819D02*
X57074286Y-33007200D01*
X57074286Y-33007200D02*
X57026667Y-32959580D01*
X57026667Y-32959580D02*
X56979048Y-32864342D01*
X56979048Y-32864342D02*
X56931429Y-32673866D01*
X56931429Y-32673866D02*
X56931429Y-32435771D01*
X56931429Y-32435771D02*
X56979048Y-32245295D01*
X56979048Y-32245295D02*
X57026667Y-32150057D01*
X57026667Y-32150057D02*
X57074286Y-32102438D01*
X57074286Y-32102438D02*
X57169524Y-32054819D01*
X58360000Y-32388152D02*
X58360000Y-33054819D01*
X58121905Y-32007200D02*
X57883810Y-32721485D01*
X57883810Y-32721485D02*
X58502857Y-32721485D01*
X71024819Y-31584285D02*
X71024819Y-32060475D01*
X71024819Y-32060475D02*
X71501009Y-32108094D01*
X71501009Y-32108094D02*
X71453390Y-32060475D01*
X71453390Y-32060475D02*
X71405771Y-31965237D01*
X71405771Y-31965237D02*
X71405771Y-31727142D01*
X71405771Y-31727142D02*
X71453390Y-31631904D01*
X71453390Y-31631904D02*
X71501009Y-31584285D01*
X71501009Y-31584285D02*
X71596247Y-31536666D01*
X71596247Y-31536666D02*
X71834342Y-31536666D01*
X71834342Y-31536666D02*
X71929580Y-31584285D01*
X71929580Y-31584285D02*
X71977200Y-31631904D01*
X71977200Y-31631904D02*
X72024819Y-31727142D01*
X72024819Y-31727142D02*
X72024819Y-31965237D01*
X72024819Y-31965237D02*
X71977200Y-32060475D01*
X71977200Y-32060475D02*
X71929580Y-32108094D01*
X72024819Y-30584285D02*
X72024819Y-31155713D01*
X72024819Y-30869999D02*
X71024819Y-30869999D01*
X71024819Y-30869999D02*
X71167676Y-30965237D01*
X71167676Y-30965237D02*
X71262914Y-31060475D01*
X71262914Y-31060475D02*
X71310533Y-31155713D01*
X71024819Y-29965237D02*
X71024819Y-29869999D01*
X71024819Y-29869999D02*
X71072438Y-29774761D01*
X71072438Y-29774761D02*
X71120057Y-29727142D01*
X71120057Y-29727142D02*
X71215295Y-29679523D01*
X71215295Y-29679523D02*
X71405771Y-29631904D01*
X71405771Y-29631904D02*
X71643866Y-29631904D01*
X71643866Y-29631904D02*
X71834342Y-29679523D01*
X71834342Y-29679523D02*
X71929580Y-29727142D01*
X71929580Y-29727142D02*
X71977200Y-29774761D01*
X71977200Y-29774761D02*
X72024819Y-29869999D01*
X72024819Y-29869999D02*
X72024819Y-29965237D01*
X72024819Y-29965237D02*
X71977200Y-30060475D01*
X71977200Y-30060475D02*
X71929580Y-30108094D01*
X71929580Y-30108094D02*
X71834342Y-30155713D01*
X71834342Y-30155713D02*
X71643866Y-30203332D01*
X71643866Y-30203332D02*
X71405771Y-30203332D01*
X71405771Y-30203332D02*
X71215295Y-30155713D01*
X71215295Y-30155713D02*
X71120057Y-30108094D01*
X71120057Y-30108094D02*
X71072438Y-30060475D01*
X71072438Y-30060475D02*
X71024819Y-29965237D01*
X61649524Y-44234819D02*
X61744762Y-44234819D01*
X61744762Y-44234819D02*
X61840000Y-44282438D01*
X61840000Y-44282438D02*
X61887619Y-44330057D01*
X61887619Y-44330057D02*
X61935238Y-44425295D01*
X61935238Y-44425295D02*
X61982857Y-44615771D01*
X61982857Y-44615771D02*
X61982857Y-44853866D01*
X61982857Y-44853866D02*
X61935238Y-45044342D01*
X61935238Y-45044342D02*
X61887619Y-45139580D01*
X61887619Y-45139580D02*
X61840000Y-45187200D01*
X61840000Y-45187200D02*
X61744762Y-45234819D01*
X61744762Y-45234819D02*
X61649524Y-45234819D01*
X61649524Y-45234819D02*
X61554286Y-45187200D01*
X61554286Y-45187200D02*
X61506667Y-45139580D01*
X61506667Y-45139580D02*
X61459048Y-45044342D01*
X61459048Y-45044342D02*
X61411429Y-44853866D01*
X61411429Y-44853866D02*
X61411429Y-44615771D01*
X61411429Y-44615771D02*
X61459048Y-44425295D01*
X61459048Y-44425295D02*
X61506667Y-44330057D01*
X61506667Y-44330057D02*
X61554286Y-44282438D01*
X61554286Y-44282438D02*
X61649524Y-44234819D01*
X62459048Y-45187200D02*
X62459048Y-45234819D01*
X62459048Y-45234819D02*
X62411429Y-45330057D01*
X62411429Y-45330057D02*
X62363810Y-45377676D01*
X63316190Y-44568152D02*
X63316190Y-45234819D01*
X63078095Y-44187200D02*
X62840000Y-44901485D01*
X62840000Y-44901485D02*
X63459047Y-44901485D01*
X63744762Y-44234819D02*
X64411428Y-44234819D01*
X64411428Y-44234819D02*
X63982857Y-45234819D01*
X65220952Y-44568152D02*
X65220952Y-45234819D01*
X64792381Y-44568152D02*
X64792381Y-45091961D01*
X64792381Y-45091961D02*
X64840000Y-45187200D01*
X64840000Y-45187200D02*
X64935238Y-45234819D01*
X64935238Y-45234819D02*
X65078095Y-45234819D01*
X65078095Y-45234819D02*
X65173333Y-45187200D01*
X65173333Y-45187200D02*
X65220952Y-45139580D01*
X82862438Y-37345714D02*
X82814819Y-37440952D01*
X82814819Y-37440952D02*
X82814819Y-37583809D01*
X82814819Y-37583809D02*
X82862438Y-37726666D01*
X82862438Y-37726666D02*
X82957676Y-37821904D01*
X82957676Y-37821904D02*
X83052914Y-37869523D01*
X83052914Y-37869523D02*
X83243390Y-37917142D01*
X83243390Y-37917142D02*
X83386247Y-37917142D01*
X83386247Y-37917142D02*
X83576723Y-37869523D01*
X83576723Y-37869523D02*
X83671961Y-37821904D01*
X83671961Y-37821904D02*
X83767200Y-37726666D01*
X83767200Y-37726666D02*
X83814819Y-37583809D01*
X83814819Y-37583809D02*
X83814819Y-37488571D01*
X83814819Y-37488571D02*
X83767200Y-37345714D01*
X83767200Y-37345714D02*
X83719580Y-37298095D01*
X83719580Y-37298095D02*
X83386247Y-37298095D01*
X83386247Y-37298095D02*
X83386247Y-37488571D01*
X82910057Y-36917142D02*
X82862438Y-36869523D01*
X82862438Y-36869523D02*
X82814819Y-36774285D01*
X82814819Y-36774285D02*
X82814819Y-36536190D01*
X82814819Y-36536190D02*
X82862438Y-36440952D01*
X82862438Y-36440952D02*
X82910057Y-36393333D01*
X82910057Y-36393333D02*
X83005295Y-36345714D01*
X83005295Y-36345714D02*
X83100533Y-36345714D01*
X83100533Y-36345714D02*
X83243390Y-36393333D01*
X83243390Y-36393333D02*
X83814819Y-36964761D01*
X83814819Y-36964761D02*
X83814819Y-36345714D01*
X83814819Y-35345714D02*
X83338628Y-35679047D01*
X83814819Y-35917142D02*
X82814819Y-35917142D01*
X82814819Y-35917142D02*
X82814819Y-35536190D01*
X82814819Y-35536190D02*
X82862438Y-35440952D01*
X82862438Y-35440952D02*
X82910057Y-35393333D01*
X82910057Y-35393333D02*
X83005295Y-35345714D01*
X83005295Y-35345714D02*
X83148152Y-35345714D01*
X83148152Y-35345714D02*
X83243390Y-35393333D01*
X83243390Y-35393333D02*
X83291009Y-35440952D01*
X83291009Y-35440952D02*
X83338628Y-35536190D01*
X83338628Y-35536190D02*
X83338628Y-35917142D01*
X83814819Y-34440952D02*
X83814819Y-34917142D01*
X83814819Y-34917142D02*
X82814819Y-34917142D01*
X83433866Y-34107618D02*
X83433866Y-33345714D01*
X83814819Y-32345714D02*
X83814819Y-32917142D01*
X83814819Y-32631428D02*
X82814819Y-32631428D01*
X82814819Y-32631428D02*
X82957676Y-32726666D01*
X82957676Y-32726666D02*
X83052914Y-32821904D01*
X83052914Y-32821904D02*
X83100533Y-32917142D01*
X83433866Y-31917142D02*
X83433866Y-31155238D01*
X83291009Y-30679047D02*
X83291009Y-30345714D01*
X83814819Y-30202857D02*
X83814819Y-30679047D01*
X83814819Y-30679047D02*
X82814819Y-30679047D01*
X82814819Y-30679047D02*
X82814819Y-30202857D01*
X64764761Y-16422800D02*
X64669523Y-16375180D01*
X64669523Y-16375180D02*
X64479047Y-16375180D01*
X64479047Y-16375180D02*
X64383809Y-16422800D01*
X64383809Y-16422800D02*
X64336190Y-16518038D01*
X64336190Y-16518038D02*
X64336190Y-16565657D01*
X64336190Y-16565657D02*
X64383809Y-16660895D01*
X64383809Y-16660895D02*
X64479047Y-16708514D01*
X64479047Y-16708514D02*
X64621904Y-16708514D01*
X64621904Y-16708514D02*
X64717142Y-16756133D01*
X64717142Y-16756133D02*
X64764761Y-16851371D01*
X64764761Y-16851371D02*
X64764761Y-16898990D01*
X64764761Y-16898990D02*
X64717142Y-16994228D01*
X64717142Y-16994228D02*
X64621904Y-17041847D01*
X64621904Y-17041847D02*
X64479047Y-17041847D01*
X64479047Y-17041847D02*
X64383809Y-16994228D01*
X64050475Y-17041847D02*
X63669523Y-17041847D01*
X63907618Y-17375180D02*
X63907618Y-16518038D01*
X63907618Y-16518038D02*
X63859999Y-16422800D01*
X63859999Y-16422800D02*
X63764761Y-16375180D01*
X63764761Y-16375180D02*
X63669523Y-16375180D01*
X63193332Y-16375180D02*
X63288570Y-16422800D01*
X63288570Y-16422800D02*
X63336189Y-16470419D01*
X63336189Y-16470419D02*
X63383808Y-16565657D01*
X63383808Y-16565657D02*
X63383808Y-16851371D01*
X63383808Y-16851371D02*
X63336189Y-16946609D01*
X63336189Y-16946609D02*
X63288570Y-16994228D01*
X63288570Y-16994228D02*
X63193332Y-17041847D01*
X63193332Y-17041847D02*
X63050475Y-17041847D01*
X63050475Y-17041847D02*
X62955237Y-16994228D01*
X62955237Y-16994228D02*
X62907618Y-16946609D01*
X62907618Y-16946609D02*
X62859999Y-16851371D01*
X62859999Y-16851371D02*
X62859999Y-16565657D01*
X62859999Y-16565657D02*
X62907618Y-16470419D01*
X62907618Y-16470419D02*
X62955237Y-16422800D01*
X62955237Y-16422800D02*
X63050475Y-16375180D01*
X63050475Y-16375180D02*
X63193332Y-16375180D01*
X62431427Y-17041847D02*
X62431427Y-16041847D01*
X62431427Y-16994228D02*
X62336189Y-17041847D01*
X62336189Y-17041847D02*
X62145713Y-17041847D01*
X62145713Y-17041847D02*
X62050475Y-16994228D01*
X62050475Y-16994228D02*
X62002856Y-16946609D01*
X62002856Y-16946609D02*
X61955237Y-16851371D01*
X61955237Y-16851371D02*
X61955237Y-16565657D01*
X61955237Y-16565657D02*
X62002856Y-16470419D01*
X62002856Y-16470419D02*
X62050475Y-16422800D01*
X62050475Y-16422800D02*
X62145713Y-16375180D01*
X62145713Y-16375180D02*
X62336189Y-16375180D01*
X62336189Y-16375180D02*
X62431427Y-16422800D01*
X54489999Y-51494819D02*
X54013809Y-51494819D01*
X54013809Y-51494819D02*
X54013809Y-50494819D01*
X54728095Y-50494819D02*
X55394761Y-50494819D01*
X55394761Y-50494819D02*
X54966190Y-51494819D01*
X55918571Y-50923390D02*
X55823333Y-50875771D01*
X55823333Y-50875771D02*
X55775714Y-50828152D01*
X55775714Y-50828152D02*
X55728095Y-50732914D01*
X55728095Y-50732914D02*
X55728095Y-50685295D01*
X55728095Y-50685295D02*
X55775714Y-50590057D01*
X55775714Y-50590057D02*
X55823333Y-50542438D01*
X55823333Y-50542438D02*
X55918571Y-50494819D01*
X55918571Y-50494819D02*
X56109047Y-50494819D01*
X56109047Y-50494819D02*
X56204285Y-50542438D01*
X56204285Y-50542438D02*
X56251904Y-50590057D01*
X56251904Y-50590057D02*
X56299523Y-50685295D01*
X56299523Y-50685295D02*
X56299523Y-50732914D01*
X56299523Y-50732914D02*
X56251904Y-50828152D01*
X56251904Y-50828152D02*
X56204285Y-50875771D01*
X56204285Y-50875771D02*
X56109047Y-50923390D01*
X56109047Y-50923390D02*
X55918571Y-50923390D01*
X55918571Y-50923390D02*
X55823333Y-50971009D01*
X55823333Y-50971009D02*
X55775714Y-51018628D01*
X55775714Y-51018628D02*
X55728095Y-51113866D01*
X55728095Y-51113866D02*
X55728095Y-51304342D01*
X55728095Y-51304342D02*
X55775714Y-51399580D01*
X55775714Y-51399580D02*
X55823333Y-51447200D01*
X55823333Y-51447200D02*
X55918571Y-51494819D01*
X55918571Y-51494819D02*
X56109047Y-51494819D01*
X56109047Y-51494819D02*
X56204285Y-51447200D01*
X56204285Y-51447200D02*
X56251904Y-51399580D01*
X56251904Y-51399580D02*
X56299523Y-51304342D01*
X56299523Y-51304342D02*
X56299523Y-51113866D01*
X56299523Y-51113866D02*
X56251904Y-51018628D01*
X56251904Y-51018628D02*
X56204285Y-50971009D01*
X56204285Y-50971009D02*
X56109047Y-50923390D01*
X57204285Y-51494819D02*
X56728095Y-51494819D01*
X56728095Y-51494819D02*
X56728095Y-50494819D01*
X58061428Y-51494819D02*
X57490000Y-51494819D01*
X57775714Y-51494819D02*
X57775714Y-50494819D01*
X57775714Y-50494819D02*
X57680476Y-50637676D01*
X57680476Y-50637676D02*
X57585238Y-50732914D01*
X57585238Y-50732914D02*
X57490000Y-50780533D01*
X58680476Y-50494819D02*
X58775714Y-50494819D01*
X58775714Y-50494819D02*
X58870952Y-50542438D01*
X58870952Y-50542438D02*
X58918571Y-50590057D01*
X58918571Y-50590057D02*
X58966190Y-50685295D01*
X58966190Y-50685295D02*
X59013809Y-50875771D01*
X59013809Y-50875771D02*
X59013809Y-51113866D01*
X59013809Y-51113866D02*
X58966190Y-51304342D01*
X58966190Y-51304342D02*
X58918571Y-51399580D01*
X58918571Y-51399580D02*
X58870952Y-51447200D01*
X58870952Y-51447200D02*
X58775714Y-51494819D01*
X58775714Y-51494819D02*
X58680476Y-51494819D01*
X58680476Y-51494819D02*
X58585238Y-51447200D01*
X58585238Y-51447200D02*
X58537619Y-51399580D01*
X58537619Y-51399580D02*
X58490000Y-51304342D01*
X58490000Y-51304342D02*
X58442381Y-51113866D01*
X58442381Y-51113866D02*
X58442381Y-50875771D01*
X58442381Y-50875771D02*
X58490000Y-50685295D01*
X58490000Y-50685295D02*
X58537619Y-50590057D01*
X58537619Y-50590057D02*
X58585238Y-50542438D01*
X58585238Y-50542438D02*
X58680476Y-50494819D01*
X74395714Y-16342800D02*
X74300476Y-16295180D01*
X74300476Y-16295180D02*
X74110000Y-16295180D01*
X74110000Y-16295180D02*
X74014762Y-16342800D01*
X74014762Y-16342800D02*
X73967143Y-16438038D01*
X73967143Y-16438038D02*
X73967143Y-16485657D01*
X73967143Y-16485657D02*
X74014762Y-16580895D01*
X74014762Y-16580895D02*
X74110000Y-16628514D01*
X74110000Y-16628514D02*
X74252857Y-16628514D01*
X74252857Y-16628514D02*
X74348095Y-16676133D01*
X74348095Y-16676133D02*
X74395714Y-16771371D01*
X74395714Y-16771371D02*
X74395714Y-16818990D01*
X74395714Y-16818990D02*
X74348095Y-16914228D01*
X74348095Y-16914228D02*
X74252857Y-16961847D01*
X74252857Y-16961847D02*
X74110000Y-16961847D01*
X74110000Y-16961847D02*
X74014762Y-16914228D01*
X73681428Y-16961847D02*
X73300476Y-16961847D01*
X73538571Y-17295180D02*
X73538571Y-16438038D01*
X73538571Y-16438038D02*
X73490952Y-16342800D01*
X73490952Y-16342800D02*
X73395714Y-16295180D01*
X73395714Y-16295180D02*
X73300476Y-16295180D01*
X72538571Y-16295180D02*
X72538571Y-16818990D01*
X72538571Y-16818990D02*
X72586190Y-16914228D01*
X72586190Y-16914228D02*
X72681428Y-16961847D01*
X72681428Y-16961847D02*
X72871904Y-16961847D01*
X72871904Y-16961847D02*
X72967142Y-16914228D01*
X72538571Y-16342800D02*
X72633809Y-16295180D01*
X72633809Y-16295180D02*
X72871904Y-16295180D01*
X72871904Y-16295180D02*
X72967142Y-16342800D01*
X72967142Y-16342800D02*
X73014761Y-16438038D01*
X73014761Y-16438038D02*
X73014761Y-16533276D01*
X73014761Y-16533276D02*
X72967142Y-16628514D01*
X72967142Y-16628514D02*
X72871904Y-16676133D01*
X72871904Y-16676133D02*
X72633809Y-16676133D01*
X72633809Y-16676133D02*
X72538571Y-16723752D01*
X72062380Y-16295180D02*
X72062380Y-16961847D01*
X72062380Y-16771371D02*
X72014761Y-16866609D01*
X72014761Y-16866609D02*
X71967142Y-16914228D01*
X71967142Y-16914228D02*
X71871904Y-16961847D01*
X71871904Y-16961847D02*
X71776666Y-16961847D01*
X71586189Y-16961847D02*
X71205237Y-16961847D01*
X71443332Y-17295180D02*
X71443332Y-16438038D01*
X71443332Y-16438038D02*
X71395713Y-16342800D01*
X71395713Y-16342800D02*
X71300475Y-16295180D01*
X71300475Y-16295180D02*
X71205237Y-16295180D01*
X70490951Y-16342800D02*
X70586189Y-16295180D01*
X70586189Y-16295180D02*
X70776665Y-16295180D01*
X70776665Y-16295180D02*
X70871903Y-16342800D01*
X70871903Y-16342800D02*
X70919522Y-16438038D01*
X70919522Y-16438038D02*
X70919522Y-16818990D01*
X70919522Y-16818990D02*
X70871903Y-16914228D01*
X70871903Y-16914228D02*
X70776665Y-16961847D01*
X70776665Y-16961847D02*
X70586189Y-16961847D01*
X70586189Y-16961847D02*
X70490951Y-16914228D01*
X70490951Y-16914228D02*
X70443332Y-16818990D01*
X70443332Y-16818990D02*
X70443332Y-16723752D01*
X70443332Y-16723752D02*
X70919522Y-16628514D01*
X70014760Y-16295180D02*
X70014760Y-16961847D01*
X70014760Y-16771371D02*
X69967141Y-16866609D01*
X69967141Y-16866609D02*
X69919522Y-16914228D01*
X69919522Y-16914228D02*
X69824284Y-16961847D01*
X69824284Y-16961847D02*
X69729046Y-16961847D01*
X62585714Y-50614819D02*
X62680952Y-50614819D01*
X62680952Y-50614819D02*
X62776190Y-50662438D01*
X62776190Y-50662438D02*
X62823809Y-50710057D01*
X62823809Y-50710057D02*
X62871428Y-50805295D01*
X62871428Y-50805295D02*
X62919047Y-50995771D01*
X62919047Y-50995771D02*
X62919047Y-51233866D01*
X62919047Y-51233866D02*
X62871428Y-51424342D01*
X62871428Y-51424342D02*
X62823809Y-51519580D01*
X62823809Y-51519580D02*
X62776190Y-51567200D01*
X62776190Y-51567200D02*
X62680952Y-51614819D01*
X62680952Y-51614819D02*
X62585714Y-51614819D01*
X62585714Y-51614819D02*
X62490476Y-51567200D01*
X62490476Y-51567200D02*
X62442857Y-51519580D01*
X62442857Y-51519580D02*
X62395238Y-51424342D01*
X62395238Y-51424342D02*
X62347619Y-51233866D01*
X62347619Y-51233866D02*
X62347619Y-50995771D01*
X62347619Y-50995771D02*
X62395238Y-50805295D01*
X62395238Y-50805295D02*
X62442857Y-50710057D01*
X62442857Y-50710057D02*
X62490476Y-50662438D01*
X62490476Y-50662438D02*
X62585714Y-50614819D01*
X63395238Y-51567200D02*
X63395238Y-51614819D01*
X63395238Y-51614819D02*
X63347619Y-51710057D01*
X63347619Y-51710057D02*
X63300000Y-51757676D01*
X64347618Y-51614819D02*
X63776190Y-51614819D01*
X64061904Y-51614819D02*
X64061904Y-50614819D01*
X64061904Y-50614819D02*
X63966666Y-50757676D01*
X63966666Y-50757676D02*
X63871428Y-50852914D01*
X63871428Y-50852914D02*
X63776190Y-50900533D01*
X65204761Y-50948152D02*
X65204761Y-51614819D01*
X64776190Y-50948152D02*
X64776190Y-51471961D01*
X64776190Y-51471961D02*
X64823809Y-51567200D01*
X64823809Y-51567200D02*
X64919047Y-51614819D01*
X64919047Y-51614819D02*
X65061904Y-51614819D01*
X65061904Y-51614819D02*
X65157142Y-51567200D01*
X65157142Y-51567200D02*
X65204761Y-51519580D01*
X80974761Y-51054819D02*
X80403333Y-51054819D01*
X80689047Y-51054819D02*
X80689047Y-50054819D01*
X80689047Y-50054819D02*
X80593809Y-50197676D01*
X80593809Y-50197676D02*
X80498571Y-50292914D01*
X80498571Y-50292914D02*
X80403333Y-50340533D01*
X81593809Y-50054819D02*
X81689047Y-50054819D01*
X81689047Y-50054819D02*
X81784285Y-50102438D01*
X81784285Y-50102438D02*
X81831904Y-50150057D01*
X81831904Y-50150057D02*
X81879523Y-50245295D01*
X81879523Y-50245295D02*
X81927142Y-50435771D01*
X81927142Y-50435771D02*
X81927142Y-50673866D01*
X81927142Y-50673866D02*
X81879523Y-50864342D01*
X81879523Y-50864342D02*
X81831904Y-50959580D01*
X81831904Y-50959580D02*
X81784285Y-51007200D01*
X81784285Y-51007200D02*
X81689047Y-51054819D01*
X81689047Y-51054819D02*
X81593809Y-51054819D01*
X81593809Y-51054819D02*
X81498571Y-51007200D01*
X81498571Y-51007200D02*
X81450952Y-50959580D01*
X81450952Y-50959580D02*
X81403333Y-50864342D01*
X81403333Y-50864342D02*
X81355714Y-50673866D01*
X81355714Y-50673866D02*
X81355714Y-50435771D01*
X81355714Y-50435771D02*
X81403333Y-50245295D01*
X81403333Y-50245295D02*
X81450952Y-50150057D01*
X81450952Y-50150057D02*
X81498571Y-50102438D01*
X81498571Y-50102438D02*
X81593809Y-50054819D01*
X82355714Y-51054819D02*
X82355714Y-50054819D01*
X82450952Y-50673866D02*
X82736666Y-51054819D01*
X82736666Y-50388152D02*
X82355714Y-50769104D01*
X67406190Y-37589819D02*
X67406190Y-36589819D01*
X67406190Y-36589819D02*
X67787142Y-36589819D01*
X67787142Y-36589819D02*
X67882380Y-36637438D01*
X67882380Y-36637438D02*
X67929999Y-36685057D01*
X67929999Y-36685057D02*
X67977618Y-36780295D01*
X67977618Y-36780295D02*
X67977618Y-36923152D01*
X67977618Y-36923152D02*
X67929999Y-37018390D01*
X67929999Y-37018390D02*
X67882380Y-37066009D01*
X67882380Y-37066009D02*
X67787142Y-37113628D01*
X67787142Y-37113628D02*
X67406190Y-37113628D01*
X68929999Y-37589819D02*
X68358571Y-37589819D01*
X68644285Y-37589819D02*
X68644285Y-36589819D01*
X68644285Y-36589819D02*
X68549047Y-36732676D01*
X68549047Y-36732676D02*
X68453809Y-36827914D01*
X68453809Y-36827914D02*
X68358571Y-36875533D01*
X69787142Y-36589819D02*
X69596666Y-36589819D01*
X69596666Y-36589819D02*
X69501428Y-36637438D01*
X69501428Y-36637438D02*
X69453809Y-36685057D01*
X69453809Y-36685057D02*
X69358571Y-36827914D01*
X69358571Y-36827914D02*
X69310952Y-37018390D01*
X69310952Y-37018390D02*
X69310952Y-37399342D01*
X69310952Y-37399342D02*
X69358571Y-37494580D01*
X69358571Y-37494580D02*
X69406190Y-37542200D01*
X69406190Y-37542200D02*
X69501428Y-37589819D01*
X69501428Y-37589819D02*
X69691904Y-37589819D01*
X69691904Y-37589819D02*
X69787142Y-37542200D01*
X69787142Y-37542200D02*
X69834761Y-37494580D01*
X69834761Y-37494580D02*
X69882380Y-37399342D01*
X69882380Y-37399342D02*
X69882380Y-37161247D01*
X69882380Y-37161247D02*
X69834761Y-37066009D01*
X69834761Y-37066009D02*
X69787142Y-37018390D01*
X69787142Y-37018390D02*
X69691904Y-36970771D01*
X69691904Y-36970771D02*
X69501428Y-36970771D01*
X69501428Y-36970771D02*
X69406190Y-37018390D01*
X69406190Y-37018390D02*
X69358571Y-37066009D01*
X69358571Y-37066009D02*
X69310952Y-37161247D01*
X70310952Y-37589819D02*
X70310952Y-36589819D01*
X70310952Y-36589819D02*
X70882380Y-37589819D01*
X70882380Y-37589819D02*
X70882380Y-36589819D01*
X71691904Y-37066009D02*
X71358571Y-37066009D01*
X71358571Y-37589819D02*
X71358571Y-36589819D01*
X71358571Y-36589819D02*
X71834761Y-36589819D01*
X72406190Y-36589819D02*
X72501428Y-36589819D01*
X72501428Y-36589819D02*
X72596666Y-36637438D01*
X72596666Y-36637438D02*
X72644285Y-36685057D01*
X72644285Y-36685057D02*
X72691904Y-36780295D01*
X72691904Y-36780295D02*
X72739523Y-36970771D01*
X72739523Y-36970771D02*
X72739523Y-37208866D01*
X72739523Y-37208866D02*
X72691904Y-37399342D01*
X72691904Y-37399342D02*
X72644285Y-37494580D01*
X72644285Y-37494580D02*
X72596666Y-37542200D01*
X72596666Y-37542200D02*
X72501428Y-37589819D01*
X72501428Y-37589819D02*
X72406190Y-37589819D01*
X72406190Y-37589819D02*
X72310952Y-37542200D01*
X72310952Y-37542200D02*
X72263333Y-37494580D01*
X72263333Y-37494580D02*
X72215714Y-37399342D01*
X72215714Y-37399342D02*
X72168095Y-37208866D01*
X72168095Y-37208866D02*
X72168095Y-36970771D01*
X72168095Y-36970771D02*
X72215714Y-36780295D01*
X72215714Y-36780295D02*
X72263333Y-36685057D01*
X72263333Y-36685057D02*
X72310952Y-36637438D01*
X72310952Y-36637438D02*
X72406190Y-36589819D01*
X73596666Y-36589819D02*
X73406190Y-36589819D01*
X73406190Y-36589819D02*
X73310952Y-36637438D01*
X73310952Y-36637438D02*
X73263333Y-36685057D01*
X73263333Y-36685057D02*
X73168095Y-36827914D01*
X73168095Y-36827914D02*
X73120476Y-37018390D01*
X73120476Y-37018390D02*
X73120476Y-37399342D01*
X73120476Y-37399342D02*
X73168095Y-37494580D01*
X73168095Y-37494580D02*
X73215714Y-37542200D01*
X73215714Y-37542200D02*
X73310952Y-37589819D01*
X73310952Y-37589819D02*
X73501428Y-37589819D01*
X73501428Y-37589819D02*
X73596666Y-37542200D01*
X73596666Y-37542200D02*
X73644285Y-37494580D01*
X73644285Y-37494580D02*
X73691904Y-37399342D01*
X73691904Y-37399342D02*
X73691904Y-37161247D01*
X73691904Y-37161247D02*
X73644285Y-37066009D01*
X73644285Y-37066009D02*
X73596666Y-37018390D01*
X73596666Y-37018390D02*
X73501428Y-36970771D01*
X73501428Y-36970771D02*
X73310952Y-36970771D01*
X73310952Y-36970771D02*
X73215714Y-37018390D01*
X73215714Y-37018390D02*
X73168095Y-37066009D01*
X73168095Y-37066009D02*
X73120476Y-37161247D01*
X74596666Y-37589819D02*
X74120476Y-37589819D01*
X74120476Y-37589819D02*
X74120476Y-36589819D01*
X49247143Y-22224819D02*
X49247143Y-21224819D01*
X49247143Y-21224819D02*
X49818571Y-22224819D01*
X49818571Y-22224819D02*
X49818571Y-21224819D01*
X50247143Y-21939104D02*
X50723333Y-21939104D01*
X50151905Y-22224819D02*
X50485238Y-21224819D01*
X50485238Y-21224819D02*
X50818571Y-22224819D01*
X51628095Y-21224819D02*
X51151905Y-21224819D01*
X51151905Y-21224819D02*
X51104286Y-21701009D01*
X51104286Y-21701009D02*
X51151905Y-21653390D01*
X51151905Y-21653390D02*
X51247143Y-21605771D01*
X51247143Y-21605771D02*
X51485238Y-21605771D01*
X51485238Y-21605771D02*
X51580476Y-21653390D01*
X51580476Y-21653390D02*
X51628095Y-21701009D01*
X51628095Y-21701009D02*
X51675714Y-21796247D01*
X51675714Y-21796247D02*
X51675714Y-22034342D01*
X51675714Y-22034342D02*
X51628095Y-22129580D01*
X51628095Y-22129580D02*
X51580476Y-22177200D01*
X51580476Y-22177200D02*
X51485238Y-22224819D01*
X51485238Y-22224819D02*
X51247143Y-22224819D01*
X51247143Y-22224819D02*
X51151905Y-22177200D01*
X51151905Y-22177200D02*
X51104286Y-22129580D01*
X52580476Y-21224819D02*
X52104286Y-21224819D01*
X52104286Y-21224819D02*
X52056667Y-21701009D01*
X52056667Y-21701009D02*
X52104286Y-21653390D01*
X52104286Y-21653390D02*
X52199524Y-21605771D01*
X52199524Y-21605771D02*
X52437619Y-21605771D01*
X52437619Y-21605771D02*
X52532857Y-21653390D01*
X52532857Y-21653390D02*
X52580476Y-21701009D01*
X52580476Y-21701009D02*
X52628095Y-21796247D01*
X52628095Y-21796247D02*
X52628095Y-22034342D01*
X52628095Y-22034342D02*
X52580476Y-22129580D01*
X52580476Y-22129580D02*
X52532857Y-22177200D01*
X52532857Y-22177200D02*
X52437619Y-22224819D01*
X52437619Y-22224819D02*
X52199524Y-22224819D01*
X52199524Y-22224819D02*
X52104286Y-22177200D01*
X52104286Y-22177200D02*
X52056667Y-22129580D01*
X53532857Y-21224819D02*
X53056667Y-21224819D01*
X53056667Y-21224819D02*
X53009048Y-21701009D01*
X53009048Y-21701009D02*
X53056667Y-21653390D01*
X53056667Y-21653390D02*
X53151905Y-21605771D01*
X53151905Y-21605771D02*
X53390000Y-21605771D01*
X53390000Y-21605771D02*
X53485238Y-21653390D01*
X53485238Y-21653390D02*
X53532857Y-21701009D01*
X53532857Y-21701009D02*
X53580476Y-21796247D01*
X53580476Y-21796247D02*
X53580476Y-22034342D01*
X53580476Y-22034342D02*
X53532857Y-22129580D01*
X53532857Y-22129580D02*
X53485238Y-22177200D01*
X53485238Y-22177200D02*
X53390000Y-22224819D01*
X53390000Y-22224819D02*
X53151905Y-22224819D01*
X53151905Y-22224819D02*
X53056667Y-22177200D01*
X53056667Y-22177200D02*
X53009048Y-22129580D01*
X54009048Y-22224819D02*
X54009048Y-21224819D01*
X54009048Y-21224819D02*
X54390000Y-21224819D01*
X54390000Y-21224819D02*
X54485238Y-21272438D01*
X54485238Y-21272438D02*
X54532857Y-21320057D01*
X54532857Y-21320057D02*
X54580476Y-21415295D01*
X54580476Y-21415295D02*
X54580476Y-21558152D01*
X54580476Y-21558152D02*
X54532857Y-21653390D01*
X54532857Y-21653390D02*
X54485238Y-21701009D01*
X54485238Y-21701009D02*
X54390000Y-21748628D01*
X54390000Y-21748628D02*
X54009048Y-21748628D01*
X75254819Y-30879047D02*
X75254819Y-31450475D01*
X75254819Y-31164761D02*
X74254819Y-31164761D01*
X74254819Y-31164761D02*
X74397676Y-31259999D01*
X74397676Y-31259999D02*
X74492914Y-31355237D01*
X74492914Y-31355237D02*
X74540533Y-31450475D01*
X75254819Y-30450475D02*
X74254819Y-30450475D01*
X74873866Y-30355237D02*
X75254819Y-30069523D01*
X74588152Y-30069523D02*
X74969104Y-30450475D01*
X54369999Y-45064819D02*
X53893809Y-45064819D01*
X53893809Y-45064819D02*
X53893809Y-44064819D01*
X54608095Y-44064819D02*
X55274761Y-44064819D01*
X55274761Y-44064819D02*
X54846190Y-45064819D01*
X55798571Y-44493390D02*
X55703333Y-44445771D01*
X55703333Y-44445771D02*
X55655714Y-44398152D01*
X55655714Y-44398152D02*
X55608095Y-44302914D01*
X55608095Y-44302914D02*
X55608095Y-44255295D01*
X55608095Y-44255295D02*
X55655714Y-44160057D01*
X55655714Y-44160057D02*
X55703333Y-44112438D01*
X55703333Y-44112438D02*
X55798571Y-44064819D01*
X55798571Y-44064819D02*
X55989047Y-44064819D01*
X55989047Y-44064819D02*
X56084285Y-44112438D01*
X56084285Y-44112438D02*
X56131904Y-44160057D01*
X56131904Y-44160057D02*
X56179523Y-44255295D01*
X56179523Y-44255295D02*
X56179523Y-44302914D01*
X56179523Y-44302914D02*
X56131904Y-44398152D01*
X56131904Y-44398152D02*
X56084285Y-44445771D01*
X56084285Y-44445771D02*
X55989047Y-44493390D01*
X55989047Y-44493390D02*
X55798571Y-44493390D01*
X55798571Y-44493390D02*
X55703333Y-44541009D01*
X55703333Y-44541009D02*
X55655714Y-44588628D01*
X55655714Y-44588628D02*
X55608095Y-44683866D01*
X55608095Y-44683866D02*
X55608095Y-44874342D01*
X55608095Y-44874342D02*
X55655714Y-44969580D01*
X55655714Y-44969580D02*
X55703333Y-45017200D01*
X55703333Y-45017200D02*
X55798571Y-45064819D01*
X55798571Y-45064819D02*
X55989047Y-45064819D01*
X55989047Y-45064819D02*
X56084285Y-45017200D01*
X56084285Y-45017200D02*
X56131904Y-44969580D01*
X56131904Y-44969580D02*
X56179523Y-44874342D01*
X56179523Y-44874342D02*
X56179523Y-44683866D01*
X56179523Y-44683866D02*
X56131904Y-44588628D01*
X56131904Y-44588628D02*
X56084285Y-44541009D01*
X56084285Y-44541009D02*
X55989047Y-44493390D01*
X57084285Y-45064819D02*
X56608095Y-45064819D01*
X56608095Y-45064819D02*
X56608095Y-44064819D01*
X57608095Y-44064819D02*
X57703333Y-44064819D01*
X57703333Y-44064819D02*
X57798571Y-44112438D01*
X57798571Y-44112438D02*
X57846190Y-44160057D01*
X57846190Y-44160057D02*
X57893809Y-44255295D01*
X57893809Y-44255295D02*
X57941428Y-44445771D01*
X57941428Y-44445771D02*
X57941428Y-44683866D01*
X57941428Y-44683866D02*
X57893809Y-44874342D01*
X57893809Y-44874342D02*
X57846190Y-44969580D01*
X57846190Y-44969580D02*
X57798571Y-45017200D01*
X57798571Y-45017200D02*
X57703333Y-45064819D01*
X57703333Y-45064819D02*
X57608095Y-45064819D01*
X57608095Y-45064819D02*
X57512857Y-45017200D01*
X57512857Y-45017200D02*
X57465238Y-44969580D01*
X57465238Y-44969580D02*
X57417619Y-44874342D01*
X57417619Y-44874342D02*
X57370000Y-44683866D01*
X57370000Y-44683866D02*
X57370000Y-44445771D01*
X57370000Y-44445771D02*
X57417619Y-44255295D01*
X57417619Y-44255295D02*
X57465238Y-44160057D01*
X57465238Y-44160057D02*
X57512857Y-44112438D01*
X57512857Y-44112438D02*
X57608095Y-44064819D01*
X58846190Y-44064819D02*
X58370000Y-44064819D01*
X58370000Y-44064819D02*
X58322381Y-44541009D01*
X58322381Y-44541009D02*
X58370000Y-44493390D01*
X58370000Y-44493390D02*
X58465238Y-44445771D01*
X58465238Y-44445771D02*
X58703333Y-44445771D01*
X58703333Y-44445771D02*
X58798571Y-44493390D01*
X58798571Y-44493390D02*
X58846190Y-44541009D01*
X58846190Y-44541009D02*
X58893809Y-44636247D01*
X58893809Y-44636247D02*
X58893809Y-44874342D01*
X58893809Y-44874342D02*
X58846190Y-44969580D01*
X58846190Y-44969580D02*
X58798571Y-45017200D01*
X58798571Y-45017200D02*
X58703333Y-45064819D01*
X58703333Y-45064819D02*
X58465238Y-45064819D01*
X58465238Y-45064819D02*
X58370000Y-45017200D01*
X58370000Y-45017200D02*
X58322381Y-44969580D01*
X47189524Y-50864819D02*
X47284762Y-50864819D01*
X47284762Y-50864819D02*
X47380000Y-50912438D01*
X47380000Y-50912438D02*
X47427619Y-50960057D01*
X47427619Y-50960057D02*
X47475238Y-51055295D01*
X47475238Y-51055295D02*
X47522857Y-51245771D01*
X47522857Y-51245771D02*
X47522857Y-51483866D01*
X47522857Y-51483866D02*
X47475238Y-51674342D01*
X47475238Y-51674342D02*
X47427619Y-51769580D01*
X47427619Y-51769580D02*
X47380000Y-51817200D01*
X47380000Y-51817200D02*
X47284762Y-51864819D01*
X47284762Y-51864819D02*
X47189524Y-51864819D01*
X47189524Y-51864819D02*
X47094286Y-51817200D01*
X47094286Y-51817200D02*
X47046667Y-51769580D01*
X47046667Y-51769580D02*
X46999048Y-51674342D01*
X46999048Y-51674342D02*
X46951429Y-51483866D01*
X46951429Y-51483866D02*
X46951429Y-51245771D01*
X46951429Y-51245771D02*
X46999048Y-51055295D01*
X46999048Y-51055295D02*
X47046667Y-50960057D01*
X47046667Y-50960057D02*
X47094286Y-50912438D01*
X47094286Y-50912438D02*
X47189524Y-50864819D01*
X47999048Y-51817200D02*
X47999048Y-51864819D01*
X47999048Y-51864819D02*
X47951429Y-51960057D01*
X47951429Y-51960057D02*
X47903810Y-52007676D01*
X48856190Y-51198152D02*
X48856190Y-51864819D01*
X48618095Y-50817200D02*
X48380000Y-51531485D01*
X48380000Y-51531485D02*
X48999047Y-51531485D01*
X49284762Y-50864819D02*
X49951428Y-50864819D01*
X49951428Y-50864819D02*
X49522857Y-51864819D01*
X50760952Y-51198152D02*
X50760952Y-51864819D01*
X50332381Y-51198152D02*
X50332381Y-51721961D01*
X50332381Y-51721961D02*
X50380000Y-51817200D01*
X50380000Y-51817200D02*
X50475238Y-51864819D01*
X50475238Y-51864819D02*
X50618095Y-51864819D01*
X50618095Y-51864819D02*
X50713333Y-51817200D01*
X50713333Y-51817200D02*
X50760952Y-51769580D01*
X67734819Y-31144285D02*
X67734819Y-31620475D01*
X67734819Y-31620475D02*
X68211009Y-31668094D01*
X68211009Y-31668094D02*
X68163390Y-31620475D01*
X68163390Y-31620475D02*
X68115771Y-31525237D01*
X68115771Y-31525237D02*
X68115771Y-31287142D01*
X68115771Y-31287142D02*
X68163390Y-31191904D01*
X68163390Y-31191904D02*
X68211009Y-31144285D01*
X68211009Y-31144285D02*
X68306247Y-31096666D01*
X68306247Y-31096666D02*
X68544342Y-31096666D01*
X68544342Y-31096666D02*
X68639580Y-31144285D01*
X68639580Y-31144285D02*
X68687200Y-31191904D01*
X68687200Y-31191904D02*
X68734819Y-31287142D01*
X68734819Y-31287142D02*
X68734819Y-31525237D01*
X68734819Y-31525237D02*
X68687200Y-31620475D01*
X68687200Y-31620475D02*
X68639580Y-31668094D01*
X68734819Y-30144285D02*
X68734819Y-30715713D01*
X68734819Y-30429999D02*
X67734819Y-30429999D01*
X67734819Y-30429999D02*
X67877676Y-30525237D01*
X67877676Y-30525237D02*
X67972914Y-30620475D01*
X67972914Y-30620475D02*
X68020533Y-30715713D01*
X67734819Y-29525237D02*
X67734819Y-29429999D01*
X67734819Y-29429999D02*
X67782438Y-29334761D01*
X67782438Y-29334761D02*
X67830057Y-29287142D01*
X67830057Y-29287142D02*
X67925295Y-29239523D01*
X67925295Y-29239523D02*
X68115771Y-29191904D01*
X68115771Y-29191904D02*
X68353866Y-29191904D01*
X68353866Y-29191904D02*
X68544342Y-29239523D01*
X68544342Y-29239523D02*
X68639580Y-29287142D01*
X68639580Y-29287142D02*
X68687200Y-29334761D01*
X68687200Y-29334761D02*
X68734819Y-29429999D01*
X68734819Y-29429999D02*
X68734819Y-29525237D01*
X68734819Y-29525237D02*
X68687200Y-29620475D01*
X68687200Y-29620475D02*
X68639580Y-29668094D01*
X68639580Y-29668094D02*
X68544342Y-29715713D01*
X68544342Y-29715713D02*
X68353866Y-29763332D01*
X68353866Y-29763332D02*
X68115771Y-29763332D01*
X68115771Y-29763332D02*
X67925295Y-29715713D01*
X67925295Y-29715713D02*
X67830057Y-29668094D01*
X67830057Y-29668094D02*
X67782438Y-29620475D01*
X67782438Y-29620475D02*
X67734819Y-29525237D01*
D12*
%TO.C,C2*%
X48575000Y-43529889D02*
X48575000Y-43129889D01*
X48375000Y-43329889D02*
X48775000Y-43329889D01*
X47690000Y-41260088D02*
X51850000Y-41260088D01*
X47690000Y-41220088D02*
X51850000Y-41220088D01*
X47691000Y-41180088D02*
X51849000Y-41180088D01*
X47693000Y-41140088D02*
X51847000Y-41140088D01*
X47696000Y-41100088D02*
X51844000Y-41100088D01*
X47699000Y-41060088D02*
X48930000Y-41060088D01*
X50610000Y-41060088D02*
X51841000Y-41060088D01*
X47703000Y-41020088D02*
X48930000Y-41020088D01*
X50610000Y-41020088D02*
X51837000Y-41020088D01*
X47708000Y-40980088D02*
X48930000Y-40980088D01*
X50610000Y-40980088D02*
X51832000Y-40980088D01*
X47714000Y-40940088D02*
X48930000Y-40940088D01*
X50610000Y-40940088D02*
X51826000Y-40940088D01*
X47720000Y-40900088D02*
X48930000Y-40900088D01*
X50610000Y-40900088D02*
X51820000Y-40900088D01*
X47728000Y-40860088D02*
X48930000Y-40860088D01*
X50610000Y-40860088D02*
X51812000Y-40860088D01*
X47736000Y-40820088D02*
X48930000Y-40820088D01*
X50610000Y-40820088D02*
X51804000Y-40820088D01*
X47745000Y-40780088D02*
X48930000Y-40780088D01*
X50610000Y-40780088D02*
X51795000Y-40780088D01*
X47754000Y-40740088D02*
X48930000Y-40740088D01*
X50610000Y-40740088D02*
X51786000Y-40740088D01*
X47765000Y-40700088D02*
X48930000Y-40700088D01*
X50610000Y-40700088D02*
X51775000Y-40700088D01*
X47776000Y-40660088D02*
X48930000Y-40660088D01*
X50610000Y-40660088D02*
X51764000Y-40660088D01*
X47788000Y-40620088D02*
X48930000Y-40620088D01*
X50610000Y-40620088D02*
X51752000Y-40620088D01*
X47802000Y-40580088D02*
X48930000Y-40580088D01*
X50610000Y-40580088D02*
X51738000Y-40580088D01*
X47816000Y-40539088D02*
X48930000Y-40539088D01*
X50610000Y-40539088D02*
X51724000Y-40539088D01*
X47830000Y-40499088D02*
X48930000Y-40499088D01*
X50610000Y-40499088D02*
X51710000Y-40499088D01*
X47846000Y-40459088D02*
X48930000Y-40459088D01*
X50610000Y-40459088D02*
X51694000Y-40459088D01*
X47863000Y-40419088D02*
X48930000Y-40419088D01*
X50610000Y-40419088D02*
X51677000Y-40419088D01*
X47881000Y-40379088D02*
X48930000Y-40379088D01*
X50610000Y-40379088D02*
X51659000Y-40379088D01*
X47900000Y-40339088D02*
X48930000Y-40339088D01*
X50610000Y-40339088D02*
X51640000Y-40339088D01*
X47919000Y-40299088D02*
X48930000Y-40299088D01*
X50610000Y-40299088D02*
X51621000Y-40299088D01*
X47940000Y-40259088D02*
X48930000Y-40259088D01*
X50610000Y-40259088D02*
X51600000Y-40259088D01*
X47962000Y-40219088D02*
X48930000Y-40219088D01*
X50610000Y-40219088D02*
X51578000Y-40219088D01*
X47985000Y-40179088D02*
X48930000Y-40179088D01*
X50610000Y-40179088D02*
X51555000Y-40179088D01*
X48010000Y-40139088D02*
X48930000Y-40139088D01*
X50610000Y-40139088D02*
X51530000Y-40139088D01*
X48035000Y-40099088D02*
X48930000Y-40099088D01*
X50610000Y-40099088D02*
X51505000Y-40099088D01*
X48062000Y-40059088D02*
X48930000Y-40059088D01*
X50610000Y-40059088D02*
X51478000Y-40059088D01*
X48090000Y-40019088D02*
X48930000Y-40019088D01*
X50610000Y-40019088D02*
X51450000Y-40019088D01*
X48120000Y-39979088D02*
X48930000Y-39979088D01*
X50610000Y-39979088D02*
X51420000Y-39979088D01*
X48151000Y-39939088D02*
X48930000Y-39939088D01*
X50610000Y-39939088D02*
X51389000Y-39939088D01*
X48183000Y-39899088D02*
X48930000Y-39899088D01*
X50610000Y-39899088D02*
X51357000Y-39899088D01*
X48218000Y-39859088D02*
X48930000Y-39859088D01*
X50610000Y-39859088D02*
X51322000Y-39859088D01*
X48254000Y-39819088D02*
X48930000Y-39819088D01*
X50610000Y-39819088D02*
X51286000Y-39819088D01*
X48292000Y-39779088D02*
X48930000Y-39779088D01*
X50610000Y-39779088D02*
X51248000Y-39779088D01*
X48332000Y-39739088D02*
X48930000Y-39739088D01*
X50610000Y-39739088D02*
X51208000Y-39739088D01*
X48374000Y-39699088D02*
X48930000Y-39699088D01*
X50610000Y-39699088D02*
X51166000Y-39699088D01*
X48419000Y-39659088D02*
X48930000Y-39659088D01*
X50610000Y-39659088D02*
X51121000Y-39659088D01*
X48466000Y-39619088D02*
X48930000Y-39619088D01*
X50610000Y-39619088D02*
X51074000Y-39619088D01*
X48516000Y-39579088D02*
X48930000Y-39579088D01*
X50610000Y-39579088D02*
X51024000Y-39579088D01*
X48570000Y-39539088D02*
X48930000Y-39539088D01*
X50610000Y-39539088D02*
X50970000Y-39539088D01*
X48628000Y-39499088D02*
X48930000Y-39499088D01*
X50610000Y-39499088D02*
X50912000Y-39499088D01*
X48690000Y-39459088D02*
X48930000Y-39459088D01*
X50610000Y-39459088D02*
X50850000Y-39459088D01*
X48757000Y-39419088D02*
X50783000Y-39419088D01*
X48830000Y-39379088D02*
X50710000Y-39379088D01*
X48911000Y-39339088D02*
X50629000Y-39339088D01*
X49002000Y-39299088D02*
X50538000Y-39299088D01*
X49106000Y-39259088D02*
X50434000Y-39259088D01*
X49233000Y-39219088D02*
X50307000Y-39219088D01*
X49400000Y-39179088D02*
X50140000Y-39179088D01*
X51890000Y-41260088D02*
G75*
G03*
X47650000Y-41260088I-2120000J0D01*
G01*
X47650000Y-41260088D02*
G75*
G03*
X51890000Y-41260088I2120000J0D01*
G01*
D13*
%TO.C,bat_in-out1*%
X76130122Y-50750000D02*
X76130000Y-41550000D01*
X76130000Y-41550000D02*
X65970000Y-41550000D01*
X65970122Y-50750000D02*
X76130122Y-50750000D01*
X65970000Y-41550000D02*
X65970122Y-50750000D01*
D12*
%TO.C,R2*%
X84830000Y-19050000D02*
X78290000Y-19050000D01*
X84830000Y-18720000D02*
X84830000Y-19050000D01*
X84830000Y-16640000D02*
X84830000Y-16310000D01*
X84830000Y-16310000D02*
X78290000Y-16310000D01*
X78290000Y-19050000D02*
X78290000Y-18720000D01*
X78290000Y-16310000D02*
X78290000Y-16640000D01*
%TO.C,U2*%
X65140000Y-27610000D02*
X47120000Y-27610000D01*
X47120000Y-27610000D02*
X47120000Y-37890000D01*
X65080000Y-30100000D02*
X47180000Y-30100000D01*
X47180000Y-30100000D02*
X47180000Y-35400000D01*
X65080000Y-31750000D02*
X65080000Y-30100000D01*
X65080000Y-35400000D02*
X65080000Y-33750000D01*
X47180000Y-35400000D02*
X65080000Y-35400000D01*
X65140000Y-37890000D02*
X65140000Y-27610000D01*
X47120000Y-37890000D02*
X65140000Y-37890000D01*
X65080000Y-31750000D02*
G75*
G03*
X65080000Y-33750000I0J-1000000D01*
G01*
%TO.C,R4*%
X72930000Y-27500000D02*
X72930000Y-34040000D01*
X72600000Y-27500000D02*
X72930000Y-27500000D01*
X70520000Y-27500000D02*
X70190000Y-27500000D01*
X70190000Y-27500000D02*
X70190000Y-34040000D01*
X72930000Y-34040000D02*
X72600000Y-34040000D01*
X70190000Y-34040000D02*
X70520000Y-34040000D01*
%TO.C,C1*%
X60895000Y-44119888D02*
X60895000Y-43619888D01*
X60645000Y-43869888D02*
X61145000Y-43869888D01*
X59790000Y-41315113D02*
X64950000Y-41315113D01*
X59790000Y-41275113D02*
X64950000Y-41275113D01*
X59791000Y-41235113D02*
X64949000Y-41235113D01*
X59792000Y-41195113D02*
X64948000Y-41195113D01*
X59794000Y-41155113D02*
X64946000Y-41155113D01*
X59797000Y-41115113D02*
X64943000Y-41115113D01*
X59801000Y-41075113D02*
X61330000Y-41075113D01*
X63410000Y-41075113D02*
X64939000Y-41075113D01*
X59805000Y-41035113D02*
X61330000Y-41035113D01*
X63410000Y-41035113D02*
X64935000Y-41035113D01*
X59809000Y-40995113D02*
X61330000Y-40995113D01*
X63410000Y-40995113D02*
X64931000Y-40995113D01*
X59814000Y-40955113D02*
X61330000Y-40955113D01*
X63410000Y-40955113D02*
X64926000Y-40955113D01*
X59820000Y-40915113D02*
X61330000Y-40915113D01*
X63410000Y-40915113D02*
X64920000Y-40915113D01*
X59827000Y-40875113D02*
X61330000Y-40875113D01*
X63410000Y-40875113D02*
X64913000Y-40875113D01*
X59834000Y-40835113D02*
X61330000Y-40835113D01*
X63410000Y-40835113D02*
X64906000Y-40835113D01*
X59842000Y-40795113D02*
X61330000Y-40795113D01*
X63410000Y-40795113D02*
X64898000Y-40795113D01*
X59850000Y-40755113D02*
X61330000Y-40755113D01*
X63410000Y-40755113D02*
X64890000Y-40755113D01*
X59859000Y-40715113D02*
X61330000Y-40715113D01*
X63410000Y-40715113D02*
X64881000Y-40715113D01*
X59869000Y-40675113D02*
X61330000Y-40675113D01*
X63410000Y-40675113D02*
X64871000Y-40675113D01*
X59879000Y-40635113D02*
X61330000Y-40635113D01*
X63410000Y-40635113D02*
X64861000Y-40635113D01*
X59890000Y-40594113D02*
X61330000Y-40594113D01*
X63410000Y-40594113D02*
X64850000Y-40594113D01*
X59902000Y-40554113D02*
X61330000Y-40554113D01*
X63410000Y-40554113D02*
X64838000Y-40554113D01*
X59915000Y-40514113D02*
X61330000Y-40514113D01*
X63410000Y-40514113D02*
X64825000Y-40514113D01*
X59928000Y-40474113D02*
X61330000Y-40474113D01*
X63410000Y-40474113D02*
X64812000Y-40474113D01*
X59942000Y-40434113D02*
X61330000Y-40434113D01*
X63410000Y-40434113D02*
X64798000Y-40434113D01*
X59956000Y-40394113D02*
X61330000Y-40394113D01*
X63410000Y-40394113D02*
X64784000Y-40394113D01*
X59972000Y-40354113D02*
X61330000Y-40354113D01*
X63410000Y-40354113D02*
X64768000Y-40354113D01*
X59988000Y-40314113D02*
X61330000Y-40314113D01*
X63410000Y-40314113D02*
X64752000Y-40314113D01*
X60005000Y-40274113D02*
X61330000Y-40274113D01*
X63410000Y-40274113D02*
X64735000Y-40274113D01*
X60022000Y-40234113D02*
X61330000Y-40234113D01*
X63410000Y-40234113D02*
X64718000Y-40234113D01*
X60041000Y-40194113D02*
X61330000Y-40194113D01*
X63410000Y-40194113D02*
X64699000Y-40194113D01*
X60060000Y-40154113D02*
X61330000Y-40154113D01*
X63410000Y-40154113D02*
X64680000Y-40154113D01*
X60080000Y-40114113D02*
X61330000Y-40114113D01*
X63410000Y-40114113D02*
X64660000Y-40114113D01*
X60102000Y-40074113D02*
X61330000Y-40074113D01*
X63410000Y-40074113D02*
X64638000Y-40074113D01*
X60123000Y-40034113D02*
X61330000Y-40034113D01*
X63410000Y-40034113D02*
X64617000Y-40034113D01*
X60146000Y-39994113D02*
X61330000Y-39994113D01*
X63410000Y-39994113D02*
X64594000Y-39994113D01*
X60170000Y-39954113D02*
X61330000Y-39954113D01*
X63410000Y-39954113D02*
X64570000Y-39954113D01*
X60195000Y-39914113D02*
X61330000Y-39914113D01*
X63410000Y-39914113D02*
X64545000Y-39914113D01*
X60221000Y-39874113D02*
X61330000Y-39874113D01*
X63410000Y-39874113D02*
X64519000Y-39874113D01*
X60248000Y-39834113D02*
X61330000Y-39834113D01*
X63410000Y-39834113D02*
X64492000Y-39834113D01*
X60275000Y-39794113D02*
X61330000Y-39794113D01*
X63410000Y-39794113D02*
X64465000Y-39794113D01*
X60305000Y-39754113D02*
X61330000Y-39754113D01*
X63410000Y-39754113D02*
X64435000Y-39754113D01*
X60335000Y-39714113D02*
X61330000Y-39714113D01*
X63410000Y-39714113D02*
X64405000Y-39714113D01*
X60366000Y-39674113D02*
X61330000Y-39674113D01*
X63410000Y-39674113D02*
X64374000Y-39674113D01*
X60399000Y-39634113D02*
X61330000Y-39634113D01*
X63410000Y-39634113D02*
X64341000Y-39634113D01*
X60433000Y-39594113D02*
X61330000Y-39594113D01*
X63410000Y-39594113D02*
X64307000Y-39594113D01*
X60469000Y-39554113D02*
X61330000Y-39554113D01*
X63410000Y-39554113D02*
X64271000Y-39554113D01*
X60506000Y-39514113D02*
X61330000Y-39514113D01*
X63410000Y-39514113D02*
X64234000Y-39514113D01*
X60544000Y-39474113D02*
X61330000Y-39474113D01*
X63410000Y-39474113D02*
X64196000Y-39474113D01*
X60585000Y-39434113D02*
X61330000Y-39434113D01*
X63410000Y-39434113D02*
X64155000Y-39434113D01*
X60627000Y-39394113D02*
X61330000Y-39394113D01*
X63410000Y-39394113D02*
X64113000Y-39394113D01*
X60671000Y-39354113D02*
X61330000Y-39354113D01*
X63410000Y-39354113D02*
X64069000Y-39354113D01*
X60717000Y-39314113D02*
X61330000Y-39314113D01*
X63410000Y-39314113D02*
X64023000Y-39314113D01*
X60765000Y-39274113D02*
X61330000Y-39274113D01*
X63410000Y-39274113D02*
X63975000Y-39274113D01*
X60816000Y-39234113D02*
X61330000Y-39234113D01*
X63410000Y-39234113D02*
X63924000Y-39234113D01*
X60870000Y-39194113D02*
X61330000Y-39194113D01*
X63410000Y-39194113D02*
X63870000Y-39194113D01*
X60927000Y-39154113D02*
X61330000Y-39154113D01*
X63410000Y-39154113D02*
X63813000Y-39154113D01*
X60987000Y-39114113D02*
X61330000Y-39114113D01*
X63410000Y-39114113D02*
X63753000Y-39114113D01*
X61051000Y-39074113D02*
X61330000Y-39074113D01*
X63410000Y-39074113D02*
X63689000Y-39074113D01*
X61119000Y-39034113D02*
X61330000Y-39034113D01*
X63410000Y-39034113D02*
X63621000Y-39034113D01*
X61192000Y-38994113D02*
X63548000Y-38994113D01*
X61272000Y-38954113D02*
X63468000Y-38954113D01*
X61359000Y-38914113D02*
X63381000Y-38914113D01*
X61455000Y-38874113D02*
X63285000Y-38874113D01*
X61565000Y-38834113D02*
X63175000Y-38834113D01*
X61693000Y-38794113D02*
X63047000Y-38794113D01*
X61852000Y-38754113D02*
X62888000Y-38754113D01*
X62086000Y-38714113D02*
X62654000Y-38714113D01*
X64990000Y-41315113D02*
G75*
G03*
X59750000Y-41315113I-2620000J0D01*
G01*
X59750000Y-41315113D02*
G75*
G03*
X64990000Y-41315113I2620000J0D01*
G01*
%TO.C,K1*%
X76792500Y-19392500D02*
X78982500Y-19392500D01*
X76792500Y-21732500D02*
X76792500Y-19392500D01*
X77032500Y-19632500D02*
X77032500Y-48632500D01*
X77032500Y-48632500D02*
X89732500Y-48632500D01*
X83032500Y-21432500D02*
X83032500Y-22632500D01*
X83032500Y-22232500D02*
X83732500Y-21832500D01*
X83032500Y-22632500D02*
X83732500Y-22632500D01*
X83732500Y-21432500D02*
X83032500Y-21432500D01*
X83732500Y-22632500D02*
X83732500Y-21432500D01*
X89732500Y-19632500D02*
X77032500Y-19632500D01*
X89732500Y-48632500D02*
X89732500Y-19632500D01*
D13*
%TO.C,stop1*%
X67326700Y-25504300D02*
X67326700Y-17655700D01*
X67326700Y-17655700D02*
X59173300Y-17655700D01*
X59173300Y-25504300D02*
X67326700Y-25504300D01*
X59173300Y-17655700D02*
X59173300Y-25504300D01*
D12*
%TO.C,L78L10_TO92*%
X58400000Y-45867488D02*
X54550000Y-45867488D01*
X56460000Y-50167487D02*
G75*
G03*
X58816399Y-48666295I0J2599999D01*
G01*
X58782631Y-46445443D02*
G75*
G03*
X58400000Y-45867488I-2322631J-1122045D01*
G01*
X54103600Y-48666295D02*
G75*
G03*
X56460000Y-50167488I2356400J1098807D01*
G01*
X54550001Y-45867489D02*
G75*
G03*
X54157618Y-46455224I1909999J-1699999D01*
G01*
D13*
%TO.C,starter1*%
X76216700Y-25504300D02*
X76216700Y-17655700D01*
X76216700Y-17655700D02*
X68063300Y-17655700D01*
X68063300Y-25504300D02*
X76216700Y-25504300D01*
X68063300Y-17655700D02*
X68063300Y-25504300D01*
D12*
%TO.C,C4*%
X61435000Y-50259888D02*
X61435000Y-49859888D01*
X61235000Y-50059888D02*
X61635000Y-50059888D01*
X60550000Y-47990087D02*
X64710000Y-47990087D01*
X60550000Y-47950087D02*
X64710000Y-47950087D01*
X60551000Y-47910087D02*
X64709000Y-47910087D01*
X60553000Y-47870087D02*
X64707000Y-47870087D01*
X60556000Y-47830087D02*
X64704000Y-47830087D01*
X60559000Y-47790087D02*
X61790000Y-47790087D01*
X63470000Y-47790087D02*
X64701000Y-47790087D01*
X60563000Y-47750087D02*
X61790000Y-47750087D01*
X63470000Y-47750087D02*
X64697000Y-47750087D01*
X60568000Y-47710087D02*
X61790000Y-47710087D01*
X63470000Y-47710087D02*
X64692000Y-47710087D01*
X60574000Y-47670087D02*
X61790000Y-47670087D01*
X63470000Y-47670087D02*
X64686000Y-47670087D01*
X60580000Y-47630087D02*
X61790000Y-47630087D01*
X63470000Y-47630087D02*
X64680000Y-47630087D01*
X60588000Y-47590087D02*
X61790000Y-47590087D01*
X63470000Y-47590087D02*
X64672000Y-47590087D01*
X60596000Y-47550087D02*
X61790000Y-47550087D01*
X63470000Y-47550087D02*
X64664000Y-47550087D01*
X60605000Y-47510087D02*
X61790000Y-47510087D01*
X63470000Y-47510087D02*
X64655000Y-47510087D01*
X60614000Y-47470087D02*
X61790000Y-47470087D01*
X63470000Y-47470087D02*
X64646000Y-47470087D01*
X60625000Y-47430087D02*
X61790000Y-47430087D01*
X63470000Y-47430087D02*
X64635000Y-47430087D01*
X60636000Y-47390087D02*
X61790000Y-47390087D01*
X63470000Y-47390087D02*
X64624000Y-47390087D01*
X60648000Y-47350087D02*
X61790000Y-47350087D01*
X63470000Y-47350087D02*
X64612000Y-47350087D01*
X60662000Y-47310087D02*
X61790000Y-47310087D01*
X63470000Y-47310087D02*
X64598000Y-47310087D01*
X60676000Y-47269087D02*
X61790000Y-47269087D01*
X63470000Y-47269087D02*
X64584000Y-47269087D01*
X60690000Y-47229087D02*
X61790000Y-47229087D01*
X63470000Y-47229087D02*
X64570000Y-47229087D01*
X60706000Y-47189087D02*
X61790000Y-47189087D01*
X63470000Y-47189087D02*
X64554000Y-47189087D01*
X60723000Y-47149087D02*
X61790000Y-47149087D01*
X63470000Y-47149087D02*
X64537000Y-47149087D01*
X60741000Y-47109087D02*
X61790000Y-47109087D01*
X63470000Y-47109087D02*
X64519000Y-47109087D01*
X60760000Y-47069087D02*
X61790000Y-47069087D01*
X63470000Y-47069087D02*
X64500000Y-47069087D01*
X60779000Y-47029087D02*
X61790000Y-47029087D01*
X63470000Y-47029087D02*
X64481000Y-47029087D01*
X60800000Y-46989087D02*
X61790000Y-46989087D01*
X63470000Y-46989087D02*
X64460000Y-46989087D01*
X60822000Y-46949087D02*
X61790000Y-46949087D01*
X63470000Y-46949087D02*
X64438000Y-46949087D01*
X60845000Y-46909087D02*
X61790000Y-46909087D01*
X63470000Y-46909087D02*
X64415000Y-46909087D01*
X60870000Y-46869087D02*
X61790000Y-46869087D01*
X63470000Y-46869087D02*
X64390000Y-46869087D01*
X60895000Y-46829087D02*
X61790000Y-46829087D01*
X63470000Y-46829087D02*
X64365000Y-46829087D01*
X60922000Y-46789087D02*
X61790000Y-46789087D01*
X63470000Y-46789087D02*
X64338000Y-46789087D01*
X60950000Y-46749087D02*
X61790000Y-46749087D01*
X63470000Y-46749087D02*
X64310000Y-46749087D01*
X60980000Y-46709087D02*
X61790000Y-46709087D01*
X63470000Y-46709087D02*
X64280000Y-46709087D01*
X61011000Y-46669087D02*
X61790000Y-46669087D01*
X63470000Y-46669087D02*
X64249000Y-46669087D01*
X61043000Y-46629087D02*
X61790000Y-46629087D01*
X63470000Y-46629087D02*
X64217000Y-46629087D01*
X61078000Y-46589087D02*
X61790000Y-46589087D01*
X63470000Y-46589087D02*
X64182000Y-46589087D01*
X61114000Y-46549087D02*
X61790000Y-46549087D01*
X63470000Y-46549087D02*
X64146000Y-46549087D01*
X61152000Y-46509087D02*
X61790000Y-46509087D01*
X63470000Y-46509087D02*
X64108000Y-46509087D01*
X61192000Y-46469087D02*
X61790000Y-46469087D01*
X63470000Y-46469087D02*
X64068000Y-46469087D01*
X61234000Y-46429087D02*
X61790000Y-46429087D01*
X63470000Y-46429087D02*
X64026000Y-46429087D01*
X61279000Y-46389087D02*
X61790000Y-46389087D01*
X63470000Y-46389087D02*
X63981000Y-46389087D01*
X61326000Y-46349087D02*
X61790000Y-46349087D01*
X63470000Y-46349087D02*
X63934000Y-46349087D01*
X61376000Y-46309087D02*
X61790000Y-46309087D01*
X63470000Y-46309087D02*
X63884000Y-46309087D01*
X61430000Y-46269087D02*
X61790000Y-46269087D01*
X63470000Y-46269087D02*
X63830000Y-46269087D01*
X61488000Y-46229087D02*
X61790000Y-46229087D01*
X63470000Y-46229087D02*
X63772000Y-46229087D01*
X61550000Y-46189087D02*
X61790000Y-46189087D01*
X63470000Y-46189087D02*
X63710000Y-46189087D01*
X61617000Y-46149087D02*
X63643000Y-46149087D01*
X61690000Y-46109087D02*
X63570000Y-46109087D01*
X61771000Y-46069087D02*
X63489000Y-46069087D01*
X61862000Y-46029087D02*
X63398000Y-46029087D01*
X61966000Y-45989087D02*
X63294000Y-45989087D01*
X62093000Y-45949087D02*
X63167000Y-45949087D01*
X62260000Y-45909087D02*
X63000000Y-45909087D01*
X64750000Y-47990087D02*
G75*
G03*
X60510000Y-47990087I-2120000J0D01*
G01*
X60510000Y-47990087D02*
G75*
G03*
X64750000Y-47990087I2120000J0D01*
G01*
%TO.C,R1*%
X84790000Y-51950000D02*
X78250000Y-51950000D01*
X84790000Y-51620000D02*
X84790000Y-51950000D01*
X84790000Y-49540000D02*
X84790000Y-49210000D01*
X84790000Y-49210000D02*
X78250000Y-49210000D01*
X78250000Y-51950000D02*
X78250000Y-51620000D01*
X78250000Y-49210000D02*
X78250000Y-49540000D01*
%TO.C,P16NF06L1*%
X65720000Y-36082000D02*
X65720000Y-41023000D01*
X65720000Y-36082000D02*
X76220000Y-36082000D01*
X65720000Y-38842000D02*
X67327000Y-38842000D01*
X65720000Y-41023000D02*
X76220000Y-41023000D01*
X69120000Y-36082000D02*
X69120000Y-38100000D01*
X69533000Y-38842000D02*
X69868000Y-38842000D01*
X72073000Y-38842000D02*
X72408000Y-38842000D01*
X72821000Y-36082000D02*
X72821000Y-38100000D01*
X74613000Y-38842000D02*
X76220000Y-38842000D01*
X76220000Y-36082000D02*
X76220000Y-41023000D01*
%TO.C,NA555P1*%
X57450000Y-16590000D02*
X47050000Y-16590000D01*
X47050000Y-16590000D02*
X47050000Y-26870000D01*
X57390000Y-19080000D02*
X47110000Y-19080000D01*
X47110000Y-19080000D02*
X47110000Y-24380000D01*
X57390000Y-20730000D02*
X57390000Y-19080000D01*
X57390000Y-24380000D02*
X57390000Y-22730000D01*
X47110000Y-24380000D02*
X57390000Y-24380000D01*
X57450000Y-26870000D02*
X57450000Y-16590000D01*
X47050000Y-26870000D02*
X57450000Y-26870000D01*
X57390000Y-20730000D02*
G75*
G03*
X57390000Y-22730000I0J-1000000D01*
G01*
%TO.C,R3*%
X73470000Y-34060000D02*
X73470000Y-27520000D01*
X73800000Y-34060000D02*
X73470000Y-34060000D01*
X75880000Y-34060000D02*
X76210000Y-34060000D01*
X76210000Y-34060000D02*
X76210000Y-27520000D01*
X73470000Y-27520000D02*
X73800000Y-27520000D01*
X76210000Y-27520000D02*
X75880000Y-27520000D01*
%TO.C,L78L05_TO92*%
X54590000Y-43570001D02*
X58190000Y-43570001D01*
X56390000Y-39120001D02*
G75*
G03*
X54551522Y-43558479I0J-2600000D01*
G01*
X58228478Y-43558479D02*
G75*
G03*
X56390000Y-39120001I-1838478J1838478D01*
G01*
%TO.C,C3*%
X48285000Y-50657376D02*
X48285000Y-50157376D01*
X48035000Y-50407376D02*
X48535000Y-50407376D01*
X47180000Y-47852601D02*
X52340000Y-47852601D01*
X47180000Y-47812601D02*
X52340000Y-47812601D01*
X47181000Y-47772601D02*
X52339000Y-47772601D01*
X47182000Y-47732601D02*
X52338000Y-47732601D01*
X47184000Y-47692601D02*
X52336000Y-47692601D01*
X47187000Y-47652601D02*
X52333000Y-47652601D01*
X47191000Y-47612601D02*
X48720000Y-47612601D01*
X50800000Y-47612601D02*
X52329000Y-47612601D01*
X47195000Y-47572601D02*
X48720000Y-47572601D01*
X50800000Y-47572601D02*
X52325000Y-47572601D01*
X47199000Y-47532601D02*
X48720000Y-47532601D01*
X50800000Y-47532601D02*
X52321000Y-47532601D01*
X47204000Y-47492601D02*
X48720000Y-47492601D01*
X50800000Y-47492601D02*
X52316000Y-47492601D01*
X47210000Y-47452601D02*
X48720000Y-47452601D01*
X50800000Y-47452601D02*
X52310000Y-47452601D01*
X47217000Y-47412601D02*
X48720000Y-47412601D01*
X50800000Y-47412601D02*
X52303000Y-47412601D01*
X47224000Y-47372601D02*
X48720000Y-47372601D01*
X50800000Y-47372601D02*
X52296000Y-47372601D01*
X47232000Y-47332601D02*
X48720000Y-47332601D01*
X50800000Y-47332601D02*
X52288000Y-47332601D01*
X47240000Y-47292601D02*
X48720000Y-47292601D01*
X50800000Y-47292601D02*
X52280000Y-47292601D01*
X47249000Y-47252601D02*
X48720000Y-47252601D01*
X50800000Y-47252601D02*
X52271000Y-47252601D01*
X47259000Y-47212601D02*
X48720000Y-47212601D01*
X50800000Y-47212601D02*
X52261000Y-47212601D01*
X47269000Y-47172601D02*
X48720000Y-47172601D01*
X50800000Y-47172601D02*
X52251000Y-47172601D01*
X47280000Y-47131601D02*
X48720000Y-47131601D01*
X50800000Y-47131601D02*
X52240000Y-47131601D01*
X47292000Y-47091601D02*
X48720000Y-47091601D01*
X50800000Y-47091601D02*
X52228000Y-47091601D01*
X47305000Y-47051601D02*
X48720000Y-47051601D01*
X50800000Y-47051601D02*
X52215000Y-47051601D01*
X47318000Y-47011601D02*
X48720000Y-47011601D01*
X50800000Y-47011601D02*
X52202000Y-47011601D01*
X47332000Y-46971601D02*
X48720000Y-46971601D01*
X50800000Y-46971601D02*
X52188000Y-46971601D01*
X47346000Y-46931601D02*
X48720000Y-46931601D01*
X50800000Y-46931601D02*
X52174000Y-46931601D01*
X47362000Y-46891601D02*
X48720000Y-46891601D01*
X50800000Y-46891601D02*
X52158000Y-46891601D01*
X47378000Y-46851601D02*
X48720000Y-46851601D01*
X50800000Y-46851601D02*
X52142000Y-46851601D01*
X47395000Y-46811601D02*
X48720000Y-46811601D01*
X50800000Y-46811601D02*
X52125000Y-46811601D01*
X47412000Y-46771601D02*
X48720000Y-46771601D01*
X50800000Y-46771601D02*
X52108000Y-46771601D01*
X47431000Y-46731601D02*
X48720000Y-46731601D01*
X50800000Y-46731601D02*
X52089000Y-46731601D01*
X47450000Y-46691601D02*
X48720000Y-46691601D01*
X50800000Y-46691601D02*
X52070000Y-46691601D01*
X47470000Y-46651601D02*
X48720000Y-46651601D01*
X50800000Y-46651601D02*
X52050000Y-46651601D01*
X47492000Y-46611601D02*
X48720000Y-46611601D01*
X50800000Y-46611601D02*
X52028000Y-46611601D01*
X47513000Y-46571601D02*
X48720000Y-46571601D01*
X50800000Y-46571601D02*
X52007000Y-46571601D01*
X47536000Y-46531601D02*
X48720000Y-46531601D01*
X50800000Y-46531601D02*
X51984000Y-46531601D01*
X47560000Y-46491601D02*
X48720000Y-46491601D01*
X50800000Y-46491601D02*
X51960000Y-46491601D01*
X47585000Y-46451601D02*
X48720000Y-46451601D01*
X50800000Y-46451601D02*
X51935000Y-46451601D01*
X47611000Y-46411601D02*
X48720000Y-46411601D01*
X50800000Y-46411601D02*
X51909000Y-46411601D01*
X47638000Y-46371601D02*
X48720000Y-46371601D01*
X50800000Y-46371601D02*
X51882000Y-46371601D01*
X47665000Y-46331601D02*
X48720000Y-46331601D01*
X50800000Y-46331601D02*
X51855000Y-46331601D01*
X47695000Y-46291601D02*
X48720000Y-46291601D01*
X50800000Y-46291601D02*
X51825000Y-46291601D01*
X47725000Y-46251601D02*
X48720000Y-46251601D01*
X50800000Y-46251601D02*
X51795000Y-46251601D01*
X47756000Y-46211601D02*
X48720000Y-46211601D01*
X50800000Y-46211601D02*
X51764000Y-46211601D01*
X47789000Y-46171601D02*
X48720000Y-46171601D01*
X50800000Y-46171601D02*
X51731000Y-46171601D01*
X47823000Y-46131601D02*
X48720000Y-46131601D01*
X50800000Y-46131601D02*
X51697000Y-46131601D01*
X47859000Y-46091601D02*
X48720000Y-46091601D01*
X50800000Y-46091601D02*
X51661000Y-46091601D01*
X47896000Y-46051601D02*
X48720000Y-46051601D01*
X50800000Y-46051601D02*
X51624000Y-46051601D01*
X47934000Y-46011601D02*
X48720000Y-46011601D01*
X50800000Y-46011601D02*
X51586000Y-46011601D01*
X47975000Y-45971601D02*
X48720000Y-45971601D01*
X50800000Y-45971601D02*
X51545000Y-45971601D01*
X48017000Y-45931601D02*
X48720000Y-45931601D01*
X50800000Y-45931601D02*
X51503000Y-45931601D01*
X48061000Y-45891601D02*
X48720000Y-45891601D01*
X50800000Y-45891601D02*
X51459000Y-45891601D01*
X48107000Y-45851601D02*
X48720000Y-45851601D01*
X50800000Y-45851601D02*
X51413000Y-45851601D01*
X48155000Y-45811601D02*
X48720000Y-45811601D01*
X50800000Y-45811601D02*
X51365000Y-45811601D01*
X48206000Y-45771601D02*
X48720000Y-45771601D01*
X50800000Y-45771601D02*
X51314000Y-45771601D01*
X48260000Y-45731601D02*
X48720000Y-45731601D01*
X50800000Y-45731601D02*
X51260000Y-45731601D01*
X48317000Y-45691601D02*
X48720000Y-45691601D01*
X50800000Y-45691601D02*
X51203000Y-45691601D01*
X48377000Y-45651601D02*
X48720000Y-45651601D01*
X50800000Y-45651601D02*
X51143000Y-45651601D01*
X48441000Y-45611601D02*
X48720000Y-45611601D01*
X50800000Y-45611601D02*
X51079000Y-45611601D01*
X48509000Y-45571601D02*
X48720000Y-45571601D01*
X50800000Y-45571601D02*
X51011000Y-45571601D01*
X48582000Y-45531601D02*
X50938000Y-45531601D01*
X48662000Y-45491601D02*
X50858000Y-45491601D01*
X48749000Y-45451601D02*
X50771000Y-45451601D01*
X48845000Y-45411601D02*
X50675000Y-45411601D01*
X48955000Y-45371601D02*
X50565000Y-45371601D01*
X49083000Y-45331601D02*
X50437000Y-45331601D01*
X49242000Y-45291601D02*
X50278000Y-45291601D01*
X49476000Y-45251601D02*
X50044000Y-45251601D01*
X52380000Y-47852601D02*
G75*
G03*
X47140000Y-47852601I-2620000J0D01*
G01*
X47140000Y-47852601D02*
G75*
G03*
X52380000Y-47852601I2620000J0D01*
G01*
%TO.C,R5*%
X69700000Y-27500000D02*
X69700000Y-34040000D01*
X69370000Y-27500000D02*
X69700000Y-27500000D01*
X67290000Y-27500000D02*
X66960000Y-27500000D01*
X66960000Y-27500000D02*
X66960000Y-34040000D01*
X69700000Y-34040000D02*
X69370000Y-34040000D01*
X66960000Y-34040000D02*
X67290000Y-34040000D01*
%TD*%
M02*
