%TF.GenerationSoftware,KiCad,Pcbnew,7.0.11-7.0.11~ubuntu22.04.1*%
%TF.CreationDate,2024-09-17T11:44:18+02:00*%
%TF.ProjectId,BAU-Elec,4241552d-456c-4656-932e-6b696361645f,rev?*%
%TF.SameCoordinates,Original*%
%TF.FileFunction,Drillmap*%
%TF.FilePolarity,Positive*%
%FSLAX45Y45*%
G04 Gerber Fmt 4.5, Leading zero omitted, Abs format (unit mm)*
G04 Created by KiCad (PCBNEW 7.0.11-7.0.11~ubuntu22.04.1) date 2024-09-17 11:44:18*
%MOMM*%
%LPD*%
G01*
G04 APERTURE LIST*
%ADD10C,0.200000*%
%ADD11C,0.100000*%
%ADD12C,0.120000*%
%ADD13C,0.130000*%
G04 APERTURE END LIST*
D10*
X4597000Y-5051000D02*
G75*
G03*
X4297000Y-5051000I-150000J0D01*
G01*
X4297000Y-5051000D02*
G75*
G03*
X4597000Y-5051000I150000J0D01*
G01*
X4597000Y-1781000D02*
G75*
G03*
X4297000Y-1781000I-150000J0D01*
G01*
X4297000Y-1781000D02*
G75*
G03*
X4597000Y-1781000I150000J0D01*
G01*
X8969000Y-5051000D02*
G75*
G03*
X8669000Y-5051000I-150000J0D01*
G01*
X8669000Y-5051000D02*
G75*
G03*
X8969000Y-5051000I150000J0D01*
G01*
X4247000Y-1581000D02*
X9019000Y-1581000D01*
X9019000Y-5251000D01*
X4247000Y-5251000D01*
X4247000Y-1581000D01*
X8969000Y-1781000D02*
G75*
G03*
X8669000Y-1781000I-150000J0D01*
G01*
X8669000Y-1781000D02*
G75*
G03*
X8969000Y-1781000I150000J0D01*
G01*
D11*
X4947000Y-3996009D02*
X5007000Y-4056009D01*
X5007000Y-3996009D02*
X4947000Y-4056009D01*
X4947000Y-4196009D02*
X5007000Y-4256009D01*
X5007000Y-4196009D02*
X4947000Y-4256009D01*
X6233000Y-4669009D02*
X6293000Y-4729009D01*
X6293000Y-4669009D02*
X6233000Y-4729009D01*
X6233000Y-4869009D02*
X6293000Y-4929009D01*
X6293000Y-4869009D02*
X6233000Y-4929009D01*
X6160560Y-2402730D02*
G75*
G03*
X6089440Y-2402730I-35560J0D01*
G01*
X6089440Y-2402730D02*
G75*
G03*
X6160560Y-2402730I35560J0D01*
G01*
X6360560Y-2402730D02*
G75*
G03*
X6289440Y-2402730I-35560J0D01*
G01*
X6289440Y-2402730D02*
G75*
G03*
X6360560Y-2402730I35560J0D01*
G01*
X6560560Y-2402730D02*
G75*
G03*
X6489440Y-2402730I-35560J0D01*
G01*
X6489440Y-2402730D02*
G75*
G03*
X6560560Y-2402730I35560J0D01*
G01*
X7049560Y-2402730D02*
G75*
G03*
X6978440Y-2402730I-35560J0D01*
G01*
X6978440Y-2402730D02*
G75*
G03*
X7049560Y-2402730I35560J0D01*
G01*
X7249560Y-2402730D02*
G75*
G03*
X7178440Y-2402730I-35560J0D01*
G01*
X7178440Y-2402730D02*
G75*
G03*
X7249560Y-2402730I35560J0D01*
G01*
X7449560Y-2402730D02*
G75*
G03*
X7378440Y-2402730I-35560J0D01*
G01*
X7378440Y-2402730D02*
G75*
G03*
X7449560Y-2402730I35560J0D01*
G01*
X5512000Y-4134500D02*
X5512000Y-4209500D01*
X5474500Y-4172000D02*
X5549500Y-4172000D01*
X5639000Y-4134500D02*
X5639000Y-4209500D01*
X5601500Y-4172000D02*
X5676500Y-4172000D01*
X5766000Y-4134500D02*
X5766000Y-4209500D01*
X5728500Y-4172000D02*
X5803500Y-4172000D01*
X4872285Y-1820284D02*
X4872285Y-1763715D01*
X4815716Y-1763715D01*
X4815716Y-1820284D01*
X4872285Y-1820284D01*
X4872285Y-2582285D02*
X4872285Y-2525716D01*
X4815716Y-2525716D01*
X4815716Y-2582285D01*
X4872285Y-2582285D01*
X4879285Y-2922284D02*
X4879285Y-2865715D01*
X4822716Y-2865715D01*
X4822716Y-2922284D01*
X4879285Y-2922284D01*
X4879285Y-3684284D02*
X4879285Y-3627715D01*
X4822716Y-3627715D01*
X4822716Y-3684284D01*
X4879285Y-3684284D01*
X5004285Y-4688545D02*
X5004285Y-4631976D01*
X4947716Y-4631976D01*
X4947716Y-4688545D01*
X5004285Y-4688545D01*
X5004285Y-4938545D02*
X5004285Y-4881976D01*
X4947716Y-4881976D01*
X4947716Y-4938545D01*
X5004285Y-4938545D01*
X5126285Y-1820284D02*
X5126285Y-1763715D01*
X5069716Y-1763715D01*
X5069716Y-1820284D01*
X5126285Y-1820284D01*
X5126285Y-2582285D02*
X5126285Y-2525716D01*
X5069716Y-2525716D01*
X5069716Y-2582285D01*
X5126285Y-2582285D01*
X5133285Y-2922284D02*
X5133285Y-2865715D01*
X5076716Y-2865715D01*
X5076716Y-2922284D01*
X5133285Y-2922284D01*
X5133285Y-3684284D02*
X5133285Y-3627715D01*
X5076716Y-3627715D01*
X5076716Y-3684284D01*
X5133285Y-3684284D01*
X5380285Y-1820284D02*
X5380285Y-1763715D01*
X5323716Y-1763715D01*
X5323716Y-1820284D01*
X5380285Y-1820284D01*
X5380285Y-2582285D02*
X5380285Y-2525716D01*
X5323716Y-2525716D01*
X5323716Y-2582285D01*
X5380285Y-2582285D01*
X5387285Y-2922284D02*
X5387285Y-2865715D01*
X5330716Y-2865715D01*
X5330716Y-2922284D01*
X5387285Y-2922284D01*
X5387285Y-3684284D02*
X5387285Y-3627715D01*
X5330716Y-3627715D01*
X5330716Y-3684284D01*
X5387285Y-3684284D01*
X5420285Y-4785033D02*
X5420285Y-4728464D01*
X5363716Y-4728464D01*
X5363716Y-4785033D01*
X5420285Y-4785033D01*
X5634284Y-1820284D02*
X5634284Y-1763715D01*
X5577716Y-1763715D01*
X5577716Y-1820284D01*
X5634284Y-1820284D01*
X5634284Y-2582285D02*
X5634284Y-2525716D01*
X5577716Y-2525716D01*
X5577716Y-2582285D01*
X5634284Y-2582285D01*
X5641284Y-2922284D02*
X5641284Y-2865715D01*
X5584716Y-2865715D01*
X5584716Y-2922284D01*
X5641284Y-2922284D01*
X5641284Y-3684284D02*
X5641284Y-3627715D01*
X5584716Y-3627715D01*
X5584716Y-3684284D01*
X5641284Y-3684284D01*
X5674284Y-4785033D02*
X5674284Y-4728464D01*
X5617715Y-4728464D01*
X5617715Y-4785033D01*
X5674284Y-4785033D01*
X5895284Y-2922284D02*
X5895284Y-2865715D01*
X5838715Y-2865715D01*
X5838715Y-2922284D01*
X5895284Y-2922284D01*
X5895284Y-3684284D02*
X5895284Y-3627715D01*
X5838715Y-3627715D01*
X5838715Y-3684284D01*
X5895284Y-3684284D01*
X5928284Y-4785033D02*
X5928284Y-4728464D01*
X5871715Y-4728464D01*
X5871715Y-4785033D01*
X5928284Y-4785033D01*
X6149284Y-2922284D02*
X6149284Y-2865715D01*
X6092715Y-2865715D01*
X6092715Y-2922284D01*
X6149284Y-2922284D01*
X6149284Y-3684284D02*
X6149284Y-3627715D01*
X6092715Y-3627715D01*
X6092715Y-3684284D01*
X6149284Y-3684284D01*
X6265284Y-4034796D02*
X6265284Y-3978227D01*
X6208715Y-3978227D01*
X6208715Y-4034796D01*
X6265284Y-4034796D01*
X6265284Y-4284796D02*
X6265284Y-4228227D01*
X6208715Y-4228227D01*
X6208715Y-4284796D01*
X6265284Y-4284796D01*
X6403284Y-2922284D02*
X6403284Y-2865715D01*
X6346715Y-2865715D01*
X6346715Y-2922284D01*
X6403284Y-2922284D01*
X6403284Y-3684284D02*
X6403284Y-3627715D01*
X6346715Y-3627715D01*
X6346715Y-3684284D01*
X6403284Y-3684284D01*
X6861284Y-2724285D02*
X6861284Y-2667716D01*
X6804715Y-2667716D01*
X6804715Y-2724285D01*
X6861284Y-2724285D01*
X6861284Y-3486284D02*
X6861284Y-3429715D01*
X6804715Y-3429715D01*
X6804715Y-3486284D01*
X6861284Y-3486284D01*
X7184284Y-2724285D02*
X7184284Y-2667716D01*
X7127715Y-2667716D01*
X7127715Y-2724285D01*
X7184284Y-2724285D01*
X7184284Y-3486284D02*
X7184284Y-3429715D01*
X7127715Y-3429715D01*
X7127715Y-3486284D01*
X7184284Y-3486284D01*
X7512284Y-2726285D02*
X7512284Y-2669716D01*
X7455715Y-2669716D01*
X7455715Y-2726285D01*
X7512284Y-2726285D01*
X7512284Y-3488284D02*
X7512284Y-3431715D01*
X7455715Y-3431715D01*
X7455715Y-3488284D01*
X7512284Y-3488284D01*
X7799284Y-5086285D02*
X7799284Y-5029716D01*
X7742715Y-5029716D01*
X7742715Y-5086285D01*
X7799284Y-5086285D01*
X7803284Y-1796284D02*
X7803284Y-1739715D01*
X7746715Y-1739715D01*
X7746715Y-1796284D01*
X7803284Y-1796284D01*
X8561285Y-5086285D02*
X8561285Y-5029716D01*
X8504716Y-5029716D01*
X8504716Y-5086285D01*
X8561285Y-5086285D01*
X8565285Y-1796284D02*
X8565285Y-1739715D01*
X8508716Y-1739715D01*
X8508716Y-1796284D01*
X8565285Y-1796284D01*
X6854988Y-4344530D02*
X6904518Y-4295000D01*
X6854988Y-4245470D01*
X6805458Y-4295000D01*
X6854988Y-4344530D01*
X7105000Y-4344530D02*
X7154530Y-4295000D01*
X7105000Y-4245470D01*
X7055470Y-4295000D01*
X7105000Y-4344530D01*
X7355012Y-4344530D02*
X7404542Y-4295000D01*
X7355012Y-4245470D01*
X7305482Y-4295000D01*
X7355012Y-4344530D01*
D12*
X6783000Y-3865000D02*
X6903000Y-3985000D01*
X6903000Y-3865000D02*
X6783000Y-3985000D01*
X6903000Y-3925000D02*
G75*
G03*
X6783000Y-3925000I-60000J0D01*
G01*
X6783000Y-3925000D02*
G75*
G03*
X6903000Y-3925000I60000J0D01*
G01*
X7037000Y-3865000D02*
X7157000Y-3985000D01*
X7157000Y-3865000D02*
X7037000Y-3985000D01*
X7157000Y-3925000D02*
G75*
G03*
X7037000Y-3925000I-60000J0D01*
G01*
X7037000Y-3925000D02*
G75*
G03*
X7157000Y-3925000I60000J0D01*
G01*
X7291000Y-3865000D02*
X7411000Y-3985000D01*
X7411000Y-3865000D02*
X7291000Y-3985000D01*
X7411000Y-3925000D02*
G75*
G03*
X7291000Y-3925000I-60000J0D01*
G01*
X7291000Y-3925000D02*
G75*
G03*
X7411000Y-3925000I60000J0D01*
G01*
D13*
X7898250Y-2138250D02*
X8028250Y-2268250D01*
X8028250Y-2138250D02*
X7898250Y-2268250D01*
X7963250Y-2138250D02*
X7963250Y-2268250D01*
X7898250Y-2203250D02*
X8028250Y-2203250D01*
X7898250Y-3638250D02*
X8028250Y-3768250D01*
X8028250Y-3638250D02*
X7898250Y-3768250D01*
X7963250Y-3638250D02*
X7963250Y-3768250D01*
X7898250Y-3703250D02*
X8028250Y-3703250D01*
X7898250Y-4138250D02*
X8028250Y-4268250D01*
X8028250Y-4138250D02*
X7898250Y-4268250D01*
X7963250Y-4138250D02*
X7963250Y-4268250D01*
X7898250Y-4203250D02*
X8028250Y-4203250D01*
X7898250Y-4638250D02*
X8028250Y-4768250D01*
X8028250Y-4638250D02*
X7898250Y-4768250D01*
X7963250Y-4638250D02*
X7963250Y-4768250D01*
X7898250Y-4703250D02*
X8028250Y-4703250D01*
X8648250Y-2138250D02*
X8778250Y-2268250D01*
X8778250Y-2138250D02*
X8648250Y-2268250D01*
X8713250Y-2138250D02*
X8713250Y-2268250D01*
X8648250Y-2203250D02*
X8778250Y-2203250D01*
X8648250Y-3638250D02*
X8778250Y-3768250D01*
X8778250Y-3638250D02*
X8648250Y-3768250D01*
X8713250Y-3638250D02*
X8713250Y-3768250D01*
X8648250Y-3703250D02*
X8778250Y-3703250D01*
X8648250Y-4138250D02*
X8778250Y-4268250D01*
X8778250Y-4138250D02*
X8648250Y-4268250D01*
X8713250Y-4138250D02*
X8713250Y-4268250D01*
X8648250Y-4203250D02*
X8778250Y-4203250D01*
X8648250Y-4638250D02*
X8778250Y-4768250D01*
X8778250Y-4638250D02*
X8648250Y-4768250D01*
X8713250Y-4638250D02*
X8713250Y-4768250D01*
X8648250Y-4703250D02*
X8778250Y-4703250D01*
D10*
X4497777Y-5572484D02*
X4497777Y-5372484D01*
X4497777Y-5372484D02*
X4545396Y-5372484D01*
X4545396Y-5372484D02*
X4573967Y-5382008D01*
X4573967Y-5382008D02*
X4593015Y-5401055D01*
X4593015Y-5401055D02*
X4602539Y-5420103D01*
X4602539Y-5420103D02*
X4612063Y-5458198D01*
X4612063Y-5458198D02*
X4612063Y-5486770D01*
X4612063Y-5486770D02*
X4602539Y-5524865D01*
X4602539Y-5524865D02*
X4593015Y-5543912D01*
X4593015Y-5543912D02*
X4573967Y-5562960D01*
X4573967Y-5562960D02*
X4545396Y-5572484D01*
X4545396Y-5572484D02*
X4497777Y-5572484D01*
X4697777Y-5572484D02*
X4697777Y-5439150D01*
X4697777Y-5477246D02*
X4707301Y-5458198D01*
X4707301Y-5458198D02*
X4716824Y-5448674D01*
X4716824Y-5448674D02*
X4735872Y-5439150D01*
X4735872Y-5439150D02*
X4754920Y-5439150D01*
X4821586Y-5572484D02*
X4821586Y-5439150D01*
X4821586Y-5372484D02*
X4812063Y-5382008D01*
X4812063Y-5382008D02*
X4821586Y-5391531D01*
X4821586Y-5391531D02*
X4831110Y-5382008D01*
X4831110Y-5382008D02*
X4821586Y-5372484D01*
X4821586Y-5372484D02*
X4821586Y-5391531D01*
X4945396Y-5572484D02*
X4926348Y-5562960D01*
X4926348Y-5562960D02*
X4916824Y-5543912D01*
X4916824Y-5543912D02*
X4916824Y-5372484D01*
X5050158Y-5572484D02*
X5031110Y-5562960D01*
X5031110Y-5562960D02*
X5021586Y-5543912D01*
X5021586Y-5543912D02*
X5021586Y-5372484D01*
X5278729Y-5572484D02*
X5278729Y-5372484D01*
X5278729Y-5372484D02*
X5345396Y-5515341D01*
X5345396Y-5515341D02*
X5412063Y-5372484D01*
X5412063Y-5372484D02*
X5412063Y-5572484D01*
X5593015Y-5572484D02*
X5593015Y-5467722D01*
X5593015Y-5467722D02*
X5583491Y-5448674D01*
X5583491Y-5448674D02*
X5564444Y-5439150D01*
X5564444Y-5439150D02*
X5526348Y-5439150D01*
X5526348Y-5439150D02*
X5507301Y-5448674D01*
X5593015Y-5562960D02*
X5573967Y-5572484D01*
X5573967Y-5572484D02*
X5526348Y-5572484D01*
X5526348Y-5572484D02*
X5507301Y-5562960D01*
X5507301Y-5562960D02*
X5497777Y-5543912D01*
X5497777Y-5543912D02*
X5497777Y-5524865D01*
X5497777Y-5524865D02*
X5507301Y-5505817D01*
X5507301Y-5505817D02*
X5526348Y-5496293D01*
X5526348Y-5496293D02*
X5573967Y-5496293D01*
X5573967Y-5496293D02*
X5593015Y-5486770D01*
X5688253Y-5439150D02*
X5688253Y-5639150D01*
X5688253Y-5448674D02*
X5707301Y-5439150D01*
X5707301Y-5439150D02*
X5745396Y-5439150D01*
X5745396Y-5439150D02*
X5764443Y-5448674D01*
X5764443Y-5448674D02*
X5773967Y-5458198D01*
X5773967Y-5458198D02*
X5783491Y-5477246D01*
X5783491Y-5477246D02*
X5783491Y-5534389D01*
X5783491Y-5534389D02*
X5773967Y-5553436D01*
X5773967Y-5553436D02*
X5764443Y-5562960D01*
X5764443Y-5562960D02*
X5745396Y-5572484D01*
X5745396Y-5572484D02*
X5707301Y-5572484D01*
X5707301Y-5572484D02*
X5688253Y-5562960D01*
X5869205Y-5553436D02*
X5878729Y-5562960D01*
X5878729Y-5562960D02*
X5869205Y-5572484D01*
X5869205Y-5572484D02*
X5859682Y-5562960D01*
X5859682Y-5562960D02*
X5869205Y-5553436D01*
X5869205Y-5553436D02*
X5869205Y-5572484D01*
X5869205Y-5448674D02*
X5878729Y-5458198D01*
X5878729Y-5458198D02*
X5869205Y-5467722D01*
X5869205Y-5467722D02*
X5859682Y-5458198D01*
X5859682Y-5458198D02*
X5869205Y-5448674D01*
X5869205Y-5448674D02*
X5869205Y-5467722D01*
D11*
X4177000Y-5871000D02*
X4237000Y-5931000D01*
X4237000Y-5871000D02*
X4177000Y-5931000D01*
D10*
X4535872Y-5792484D02*
X4554920Y-5792484D01*
X4554920Y-5792484D02*
X4573967Y-5802008D01*
X4573967Y-5802008D02*
X4583491Y-5811531D01*
X4583491Y-5811531D02*
X4593015Y-5830579D01*
X4593015Y-5830579D02*
X4602539Y-5868674D01*
X4602539Y-5868674D02*
X4602539Y-5916293D01*
X4602539Y-5916293D02*
X4593015Y-5954388D01*
X4593015Y-5954388D02*
X4583491Y-5973436D01*
X4583491Y-5973436D02*
X4573967Y-5982960D01*
X4573967Y-5982960D02*
X4554920Y-5992484D01*
X4554920Y-5992484D02*
X4535872Y-5992484D01*
X4535872Y-5992484D02*
X4516824Y-5982960D01*
X4516824Y-5982960D02*
X4507301Y-5973436D01*
X4507301Y-5973436D02*
X4497777Y-5954388D01*
X4497777Y-5954388D02*
X4488253Y-5916293D01*
X4488253Y-5916293D02*
X4488253Y-5868674D01*
X4488253Y-5868674D02*
X4497777Y-5830579D01*
X4497777Y-5830579D02*
X4507301Y-5811531D01*
X4507301Y-5811531D02*
X4516824Y-5802008D01*
X4516824Y-5802008D02*
X4535872Y-5792484D01*
X4688253Y-5973436D02*
X4697777Y-5982960D01*
X4697777Y-5982960D02*
X4688253Y-5992484D01*
X4688253Y-5992484D02*
X4678729Y-5982960D01*
X4678729Y-5982960D02*
X4688253Y-5973436D01*
X4688253Y-5973436D02*
X4688253Y-5992484D01*
X4869205Y-5792484D02*
X4831110Y-5792484D01*
X4831110Y-5792484D02*
X4812063Y-5802008D01*
X4812063Y-5802008D02*
X4802539Y-5811531D01*
X4802539Y-5811531D02*
X4783491Y-5840103D01*
X4783491Y-5840103D02*
X4773967Y-5878198D01*
X4773967Y-5878198D02*
X4773967Y-5954388D01*
X4773967Y-5954388D02*
X4783491Y-5973436D01*
X4783491Y-5973436D02*
X4793015Y-5982960D01*
X4793015Y-5982960D02*
X4812063Y-5992484D01*
X4812063Y-5992484D02*
X4850158Y-5992484D01*
X4850158Y-5992484D02*
X4869205Y-5982960D01*
X4869205Y-5982960D02*
X4878729Y-5973436D01*
X4878729Y-5973436D02*
X4888253Y-5954388D01*
X4888253Y-5954388D02*
X4888253Y-5906769D01*
X4888253Y-5906769D02*
X4878729Y-5887722D01*
X4878729Y-5887722D02*
X4869205Y-5878198D01*
X4869205Y-5878198D02*
X4850158Y-5868674D01*
X4850158Y-5868674D02*
X4812063Y-5868674D01*
X4812063Y-5868674D02*
X4793015Y-5878198D01*
X4793015Y-5878198D02*
X4783491Y-5887722D01*
X4783491Y-5887722D02*
X4773967Y-5906769D01*
X5012063Y-5792484D02*
X5031110Y-5792484D01*
X5031110Y-5792484D02*
X5050158Y-5802008D01*
X5050158Y-5802008D02*
X5059682Y-5811531D01*
X5059682Y-5811531D02*
X5069205Y-5830579D01*
X5069205Y-5830579D02*
X5078729Y-5868674D01*
X5078729Y-5868674D02*
X5078729Y-5916293D01*
X5078729Y-5916293D02*
X5069205Y-5954388D01*
X5069205Y-5954388D02*
X5059682Y-5973436D01*
X5059682Y-5973436D02*
X5050158Y-5982960D01*
X5050158Y-5982960D02*
X5031110Y-5992484D01*
X5031110Y-5992484D02*
X5012063Y-5992484D01*
X5012063Y-5992484D02*
X4993015Y-5982960D01*
X4993015Y-5982960D02*
X4983491Y-5973436D01*
X4983491Y-5973436D02*
X4973967Y-5954388D01*
X4973967Y-5954388D02*
X4964444Y-5916293D01*
X4964444Y-5916293D02*
X4964444Y-5868674D01*
X4964444Y-5868674D02*
X4973967Y-5830579D01*
X4973967Y-5830579D02*
X4983491Y-5811531D01*
X4983491Y-5811531D02*
X4993015Y-5802008D01*
X4993015Y-5802008D02*
X5012063Y-5792484D01*
X5202539Y-5792484D02*
X5221586Y-5792484D01*
X5221586Y-5792484D02*
X5240634Y-5802008D01*
X5240634Y-5802008D02*
X5250158Y-5811531D01*
X5250158Y-5811531D02*
X5259682Y-5830579D01*
X5259682Y-5830579D02*
X5269205Y-5868674D01*
X5269205Y-5868674D02*
X5269205Y-5916293D01*
X5269205Y-5916293D02*
X5259682Y-5954388D01*
X5259682Y-5954388D02*
X5250158Y-5973436D01*
X5250158Y-5973436D02*
X5240634Y-5982960D01*
X5240634Y-5982960D02*
X5221586Y-5992484D01*
X5221586Y-5992484D02*
X5202539Y-5992484D01*
X5202539Y-5992484D02*
X5183491Y-5982960D01*
X5183491Y-5982960D02*
X5173967Y-5973436D01*
X5173967Y-5973436D02*
X5164444Y-5954388D01*
X5164444Y-5954388D02*
X5154920Y-5916293D01*
X5154920Y-5916293D02*
X5154920Y-5868674D01*
X5154920Y-5868674D02*
X5164444Y-5830579D01*
X5164444Y-5830579D02*
X5173967Y-5811531D01*
X5173967Y-5811531D02*
X5183491Y-5802008D01*
X5183491Y-5802008D02*
X5202539Y-5792484D01*
X5354920Y-5992484D02*
X5354920Y-5859150D01*
X5354920Y-5878198D02*
X5364444Y-5868674D01*
X5364444Y-5868674D02*
X5383491Y-5859150D01*
X5383491Y-5859150D02*
X5412063Y-5859150D01*
X5412063Y-5859150D02*
X5431110Y-5868674D01*
X5431110Y-5868674D02*
X5440634Y-5887722D01*
X5440634Y-5887722D02*
X5440634Y-5992484D01*
X5440634Y-5887722D02*
X5450158Y-5868674D01*
X5450158Y-5868674D02*
X5469205Y-5859150D01*
X5469205Y-5859150D02*
X5497777Y-5859150D01*
X5497777Y-5859150D02*
X5516825Y-5868674D01*
X5516825Y-5868674D02*
X5526348Y-5887722D01*
X5526348Y-5887722D02*
X5526348Y-5992484D01*
X5621586Y-5992484D02*
X5621586Y-5859150D01*
X5621586Y-5878198D02*
X5631110Y-5868674D01*
X5631110Y-5868674D02*
X5650158Y-5859150D01*
X5650158Y-5859150D02*
X5678729Y-5859150D01*
X5678729Y-5859150D02*
X5697777Y-5868674D01*
X5697777Y-5868674D02*
X5707301Y-5887722D01*
X5707301Y-5887722D02*
X5707301Y-5992484D01*
X5707301Y-5887722D02*
X5716824Y-5868674D01*
X5716824Y-5868674D02*
X5735872Y-5859150D01*
X5735872Y-5859150D02*
X5764443Y-5859150D01*
X5764443Y-5859150D02*
X5783491Y-5868674D01*
X5783491Y-5868674D02*
X5793015Y-5887722D01*
X5793015Y-5887722D02*
X5793015Y-5992484D01*
X6183491Y-5782960D02*
X6012063Y-6040103D01*
X6440634Y-5792484D02*
X6459682Y-5792484D01*
X6459682Y-5792484D02*
X6478729Y-5802008D01*
X6478729Y-5802008D02*
X6488253Y-5811531D01*
X6488253Y-5811531D02*
X6497777Y-5830579D01*
X6497777Y-5830579D02*
X6507301Y-5868674D01*
X6507301Y-5868674D02*
X6507301Y-5916293D01*
X6507301Y-5916293D02*
X6497777Y-5954388D01*
X6497777Y-5954388D02*
X6488253Y-5973436D01*
X6488253Y-5973436D02*
X6478729Y-5982960D01*
X6478729Y-5982960D02*
X6459682Y-5992484D01*
X6459682Y-5992484D02*
X6440634Y-5992484D01*
X6440634Y-5992484D02*
X6421586Y-5982960D01*
X6421586Y-5982960D02*
X6412063Y-5973436D01*
X6412063Y-5973436D02*
X6402539Y-5954388D01*
X6402539Y-5954388D02*
X6393015Y-5916293D01*
X6393015Y-5916293D02*
X6393015Y-5868674D01*
X6393015Y-5868674D02*
X6402539Y-5830579D01*
X6402539Y-5830579D02*
X6412063Y-5811531D01*
X6412063Y-5811531D02*
X6421586Y-5802008D01*
X6421586Y-5802008D02*
X6440634Y-5792484D01*
X6593015Y-5973436D02*
X6602539Y-5982960D01*
X6602539Y-5982960D02*
X6593015Y-5992484D01*
X6593015Y-5992484D02*
X6583491Y-5982960D01*
X6583491Y-5982960D02*
X6593015Y-5973436D01*
X6593015Y-5973436D02*
X6593015Y-5992484D01*
X6726348Y-5792484D02*
X6745396Y-5792484D01*
X6745396Y-5792484D02*
X6764444Y-5802008D01*
X6764444Y-5802008D02*
X6773967Y-5811531D01*
X6773967Y-5811531D02*
X6783491Y-5830579D01*
X6783491Y-5830579D02*
X6793015Y-5868674D01*
X6793015Y-5868674D02*
X6793015Y-5916293D01*
X6793015Y-5916293D02*
X6783491Y-5954388D01*
X6783491Y-5954388D02*
X6773967Y-5973436D01*
X6773967Y-5973436D02*
X6764444Y-5982960D01*
X6764444Y-5982960D02*
X6745396Y-5992484D01*
X6745396Y-5992484D02*
X6726348Y-5992484D01*
X6726348Y-5992484D02*
X6707301Y-5982960D01*
X6707301Y-5982960D02*
X6697777Y-5973436D01*
X6697777Y-5973436D02*
X6688253Y-5954388D01*
X6688253Y-5954388D02*
X6678729Y-5916293D01*
X6678729Y-5916293D02*
X6678729Y-5868674D01*
X6678729Y-5868674D02*
X6688253Y-5830579D01*
X6688253Y-5830579D02*
X6697777Y-5811531D01*
X6697777Y-5811531D02*
X6707301Y-5802008D01*
X6707301Y-5802008D02*
X6726348Y-5792484D01*
X6869206Y-5811531D02*
X6878729Y-5802008D01*
X6878729Y-5802008D02*
X6897777Y-5792484D01*
X6897777Y-5792484D02*
X6945396Y-5792484D01*
X6945396Y-5792484D02*
X6964444Y-5802008D01*
X6964444Y-5802008D02*
X6973967Y-5811531D01*
X6973967Y-5811531D02*
X6983491Y-5830579D01*
X6983491Y-5830579D02*
X6983491Y-5849627D01*
X6983491Y-5849627D02*
X6973967Y-5878198D01*
X6973967Y-5878198D02*
X6859682Y-5992484D01*
X6859682Y-5992484D02*
X6983491Y-5992484D01*
X7050158Y-5792484D02*
X7173967Y-5792484D01*
X7173967Y-5792484D02*
X7107301Y-5868674D01*
X7107301Y-5868674D02*
X7135872Y-5868674D01*
X7135872Y-5868674D02*
X7154920Y-5878198D01*
X7154920Y-5878198D02*
X7164444Y-5887722D01*
X7164444Y-5887722D02*
X7173967Y-5906769D01*
X7173967Y-5906769D02*
X7173967Y-5954388D01*
X7173967Y-5954388D02*
X7164444Y-5973436D01*
X7164444Y-5973436D02*
X7154920Y-5982960D01*
X7154920Y-5982960D02*
X7135872Y-5992484D01*
X7135872Y-5992484D02*
X7078729Y-5992484D01*
X7078729Y-5992484D02*
X7059682Y-5982960D01*
X7059682Y-5982960D02*
X7050158Y-5973436D01*
X7345396Y-5792484D02*
X7307301Y-5792484D01*
X7307301Y-5792484D02*
X7288253Y-5802008D01*
X7288253Y-5802008D02*
X7278729Y-5811531D01*
X7278729Y-5811531D02*
X7259682Y-5840103D01*
X7259682Y-5840103D02*
X7250158Y-5878198D01*
X7250158Y-5878198D02*
X7250158Y-5954388D01*
X7250158Y-5954388D02*
X7259682Y-5973436D01*
X7259682Y-5973436D02*
X7269206Y-5982960D01*
X7269206Y-5982960D02*
X7288253Y-5992484D01*
X7288253Y-5992484D02*
X7326348Y-5992484D01*
X7326348Y-5992484D02*
X7345396Y-5982960D01*
X7345396Y-5982960D02*
X7354920Y-5973436D01*
X7354920Y-5973436D02*
X7364444Y-5954388D01*
X7364444Y-5954388D02*
X7364444Y-5906769D01*
X7364444Y-5906769D02*
X7354920Y-5887722D01*
X7354920Y-5887722D02*
X7345396Y-5878198D01*
X7345396Y-5878198D02*
X7326348Y-5868674D01*
X7326348Y-5868674D02*
X7288253Y-5868674D01*
X7288253Y-5868674D02*
X7269206Y-5878198D01*
X7269206Y-5878198D02*
X7259682Y-5887722D01*
X7259682Y-5887722D02*
X7250158Y-5906769D01*
X7440634Y-5792484D02*
X7440634Y-5830579D01*
X7516825Y-5792484D02*
X7516825Y-5830579D01*
X7812063Y-6068674D02*
X7802539Y-6059150D01*
X7802539Y-6059150D02*
X7783491Y-6030579D01*
X7783491Y-6030579D02*
X7773968Y-6011531D01*
X7773968Y-6011531D02*
X7764444Y-5982960D01*
X7764444Y-5982960D02*
X7754920Y-5935341D01*
X7754920Y-5935341D02*
X7754920Y-5897246D01*
X7754920Y-5897246D02*
X7764444Y-5849627D01*
X7764444Y-5849627D02*
X7773968Y-5821055D01*
X7773968Y-5821055D02*
X7783491Y-5802008D01*
X7783491Y-5802008D02*
X7802539Y-5773436D01*
X7802539Y-5773436D02*
X7812063Y-5763912D01*
X7973968Y-5859150D02*
X7973968Y-5992484D01*
X7926348Y-5782960D02*
X7878729Y-5925817D01*
X7878729Y-5925817D02*
X8002539Y-5925817D01*
X8231110Y-5992484D02*
X8231110Y-5792484D01*
X8316825Y-5992484D02*
X8316825Y-5887722D01*
X8316825Y-5887722D02*
X8307301Y-5868674D01*
X8307301Y-5868674D02*
X8288253Y-5859150D01*
X8288253Y-5859150D02*
X8259682Y-5859150D01*
X8259682Y-5859150D02*
X8240634Y-5868674D01*
X8240634Y-5868674D02*
X8231110Y-5878198D01*
X8440634Y-5992484D02*
X8421587Y-5982960D01*
X8421587Y-5982960D02*
X8412063Y-5973436D01*
X8412063Y-5973436D02*
X8402539Y-5954388D01*
X8402539Y-5954388D02*
X8402539Y-5897246D01*
X8402539Y-5897246D02*
X8412063Y-5878198D01*
X8412063Y-5878198D02*
X8421587Y-5868674D01*
X8421587Y-5868674D02*
X8440634Y-5859150D01*
X8440634Y-5859150D02*
X8469206Y-5859150D01*
X8469206Y-5859150D02*
X8488253Y-5868674D01*
X8488253Y-5868674D02*
X8497777Y-5878198D01*
X8497777Y-5878198D02*
X8507301Y-5897246D01*
X8507301Y-5897246D02*
X8507301Y-5954388D01*
X8507301Y-5954388D02*
X8497777Y-5973436D01*
X8497777Y-5973436D02*
X8488253Y-5982960D01*
X8488253Y-5982960D02*
X8469206Y-5992484D01*
X8469206Y-5992484D02*
X8440634Y-5992484D01*
X8621587Y-5992484D02*
X8602539Y-5982960D01*
X8602539Y-5982960D02*
X8593015Y-5963912D01*
X8593015Y-5963912D02*
X8593015Y-5792484D01*
X8773968Y-5982960D02*
X8754920Y-5992484D01*
X8754920Y-5992484D02*
X8716825Y-5992484D01*
X8716825Y-5992484D02*
X8697777Y-5982960D01*
X8697777Y-5982960D02*
X8688253Y-5963912D01*
X8688253Y-5963912D02*
X8688253Y-5887722D01*
X8688253Y-5887722D02*
X8697777Y-5868674D01*
X8697777Y-5868674D02*
X8716825Y-5859150D01*
X8716825Y-5859150D02*
X8754920Y-5859150D01*
X8754920Y-5859150D02*
X8773968Y-5868674D01*
X8773968Y-5868674D02*
X8783492Y-5887722D01*
X8783492Y-5887722D02*
X8783492Y-5906769D01*
X8783492Y-5906769D02*
X8688253Y-5925817D01*
X8859682Y-5982960D02*
X8878730Y-5992484D01*
X8878730Y-5992484D02*
X8916825Y-5992484D01*
X8916825Y-5992484D02*
X8935873Y-5982960D01*
X8935873Y-5982960D02*
X8945396Y-5963912D01*
X8945396Y-5963912D02*
X8945396Y-5954388D01*
X8945396Y-5954388D02*
X8935873Y-5935341D01*
X8935873Y-5935341D02*
X8916825Y-5925817D01*
X8916825Y-5925817D02*
X8888253Y-5925817D01*
X8888253Y-5925817D02*
X8869206Y-5916293D01*
X8869206Y-5916293D02*
X8859682Y-5897246D01*
X8859682Y-5897246D02*
X8859682Y-5887722D01*
X8859682Y-5887722D02*
X8869206Y-5868674D01*
X8869206Y-5868674D02*
X8888253Y-5859150D01*
X8888253Y-5859150D02*
X8916825Y-5859150D01*
X8916825Y-5859150D02*
X8935873Y-5868674D01*
X9012063Y-6068674D02*
X9021587Y-6059150D01*
X9021587Y-6059150D02*
X9040634Y-6030579D01*
X9040634Y-6030579D02*
X9050158Y-6011531D01*
X9050158Y-6011531D02*
X9059682Y-5982960D01*
X9059682Y-5982960D02*
X9069206Y-5935341D01*
X9069206Y-5935341D02*
X9069206Y-5897246D01*
X9069206Y-5897246D02*
X9059682Y-5849627D01*
X9059682Y-5849627D02*
X9050158Y-5821055D01*
X9050158Y-5821055D02*
X9040634Y-5802008D01*
X9040634Y-5802008D02*
X9021587Y-5773436D01*
X9021587Y-5773436D02*
X9012063Y-5763912D01*
D11*
X4237000Y-6165000D02*
G75*
G03*
X4165880Y-6165000I-35560J0D01*
G01*
X4165880Y-6165000D02*
G75*
G03*
X4237000Y-6165000I35560J0D01*
G01*
D10*
X4535872Y-6056484D02*
X4554920Y-6056484D01*
X4554920Y-6056484D02*
X4573967Y-6066008D01*
X4573967Y-6066008D02*
X4583491Y-6075531D01*
X4583491Y-6075531D02*
X4593015Y-6094579D01*
X4593015Y-6094579D02*
X4602539Y-6132674D01*
X4602539Y-6132674D02*
X4602539Y-6180293D01*
X4602539Y-6180293D02*
X4593015Y-6218388D01*
X4593015Y-6218388D02*
X4583491Y-6237436D01*
X4583491Y-6237436D02*
X4573967Y-6246960D01*
X4573967Y-6246960D02*
X4554920Y-6256484D01*
X4554920Y-6256484D02*
X4535872Y-6256484D01*
X4535872Y-6256484D02*
X4516824Y-6246960D01*
X4516824Y-6246960D02*
X4507301Y-6237436D01*
X4507301Y-6237436D02*
X4497777Y-6218388D01*
X4497777Y-6218388D02*
X4488253Y-6180293D01*
X4488253Y-6180293D02*
X4488253Y-6132674D01*
X4488253Y-6132674D02*
X4497777Y-6094579D01*
X4497777Y-6094579D02*
X4507301Y-6075531D01*
X4507301Y-6075531D02*
X4516824Y-6066008D01*
X4516824Y-6066008D02*
X4535872Y-6056484D01*
X4688253Y-6237436D02*
X4697777Y-6246960D01*
X4697777Y-6246960D02*
X4688253Y-6256484D01*
X4688253Y-6256484D02*
X4678729Y-6246960D01*
X4678729Y-6246960D02*
X4688253Y-6237436D01*
X4688253Y-6237436D02*
X4688253Y-6256484D01*
X4764444Y-6056484D02*
X4897777Y-6056484D01*
X4897777Y-6056484D02*
X4812063Y-6256484D01*
X5078729Y-6256484D02*
X4964444Y-6256484D01*
X5021586Y-6256484D02*
X5021586Y-6056484D01*
X5021586Y-6056484D02*
X5002539Y-6085055D01*
X5002539Y-6085055D02*
X4983491Y-6104103D01*
X4983491Y-6104103D02*
X4964444Y-6113627D01*
X5269205Y-6256484D02*
X5154920Y-6256484D01*
X5212063Y-6256484D02*
X5212063Y-6056484D01*
X5212063Y-6056484D02*
X5193015Y-6085055D01*
X5193015Y-6085055D02*
X5173967Y-6104103D01*
X5173967Y-6104103D02*
X5154920Y-6113627D01*
X5354920Y-6256484D02*
X5354920Y-6123150D01*
X5354920Y-6142198D02*
X5364444Y-6132674D01*
X5364444Y-6132674D02*
X5383491Y-6123150D01*
X5383491Y-6123150D02*
X5412063Y-6123150D01*
X5412063Y-6123150D02*
X5431110Y-6132674D01*
X5431110Y-6132674D02*
X5440634Y-6151722D01*
X5440634Y-6151722D02*
X5440634Y-6256484D01*
X5440634Y-6151722D02*
X5450158Y-6132674D01*
X5450158Y-6132674D02*
X5469205Y-6123150D01*
X5469205Y-6123150D02*
X5497777Y-6123150D01*
X5497777Y-6123150D02*
X5516825Y-6132674D01*
X5516825Y-6132674D02*
X5526348Y-6151722D01*
X5526348Y-6151722D02*
X5526348Y-6256484D01*
X5621586Y-6256484D02*
X5621586Y-6123150D01*
X5621586Y-6142198D02*
X5631110Y-6132674D01*
X5631110Y-6132674D02*
X5650158Y-6123150D01*
X5650158Y-6123150D02*
X5678729Y-6123150D01*
X5678729Y-6123150D02*
X5697777Y-6132674D01*
X5697777Y-6132674D02*
X5707301Y-6151722D01*
X5707301Y-6151722D02*
X5707301Y-6256484D01*
X5707301Y-6151722D02*
X5716824Y-6132674D01*
X5716824Y-6132674D02*
X5735872Y-6123150D01*
X5735872Y-6123150D02*
X5764443Y-6123150D01*
X5764443Y-6123150D02*
X5783491Y-6132674D01*
X5783491Y-6132674D02*
X5793015Y-6151722D01*
X5793015Y-6151722D02*
X5793015Y-6256484D01*
X6183491Y-6046960D02*
X6012063Y-6304103D01*
X6440634Y-6056484D02*
X6459682Y-6056484D01*
X6459682Y-6056484D02*
X6478729Y-6066008D01*
X6478729Y-6066008D02*
X6488253Y-6075531D01*
X6488253Y-6075531D02*
X6497777Y-6094579D01*
X6497777Y-6094579D02*
X6507301Y-6132674D01*
X6507301Y-6132674D02*
X6507301Y-6180293D01*
X6507301Y-6180293D02*
X6497777Y-6218388D01*
X6497777Y-6218388D02*
X6488253Y-6237436D01*
X6488253Y-6237436D02*
X6478729Y-6246960D01*
X6478729Y-6246960D02*
X6459682Y-6256484D01*
X6459682Y-6256484D02*
X6440634Y-6256484D01*
X6440634Y-6256484D02*
X6421586Y-6246960D01*
X6421586Y-6246960D02*
X6412063Y-6237436D01*
X6412063Y-6237436D02*
X6402539Y-6218388D01*
X6402539Y-6218388D02*
X6393015Y-6180293D01*
X6393015Y-6180293D02*
X6393015Y-6132674D01*
X6393015Y-6132674D02*
X6402539Y-6094579D01*
X6402539Y-6094579D02*
X6412063Y-6075531D01*
X6412063Y-6075531D02*
X6421586Y-6066008D01*
X6421586Y-6066008D02*
X6440634Y-6056484D01*
X6593015Y-6237436D02*
X6602539Y-6246960D01*
X6602539Y-6246960D02*
X6593015Y-6256484D01*
X6593015Y-6256484D02*
X6583491Y-6246960D01*
X6583491Y-6246960D02*
X6593015Y-6237436D01*
X6593015Y-6237436D02*
X6593015Y-6256484D01*
X6726348Y-6056484D02*
X6745396Y-6056484D01*
X6745396Y-6056484D02*
X6764444Y-6066008D01*
X6764444Y-6066008D02*
X6773967Y-6075531D01*
X6773967Y-6075531D02*
X6783491Y-6094579D01*
X6783491Y-6094579D02*
X6793015Y-6132674D01*
X6793015Y-6132674D02*
X6793015Y-6180293D01*
X6793015Y-6180293D02*
X6783491Y-6218388D01*
X6783491Y-6218388D02*
X6773967Y-6237436D01*
X6773967Y-6237436D02*
X6764444Y-6246960D01*
X6764444Y-6246960D02*
X6745396Y-6256484D01*
X6745396Y-6256484D02*
X6726348Y-6256484D01*
X6726348Y-6256484D02*
X6707301Y-6246960D01*
X6707301Y-6246960D02*
X6697777Y-6237436D01*
X6697777Y-6237436D02*
X6688253Y-6218388D01*
X6688253Y-6218388D02*
X6678729Y-6180293D01*
X6678729Y-6180293D02*
X6678729Y-6132674D01*
X6678729Y-6132674D02*
X6688253Y-6094579D01*
X6688253Y-6094579D02*
X6697777Y-6075531D01*
X6697777Y-6075531D02*
X6707301Y-6066008D01*
X6707301Y-6066008D02*
X6726348Y-6056484D01*
X6869206Y-6075531D02*
X6878729Y-6066008D01*
X6878729Y-6066008D02*
X6897777Y-6056484D01*
X6897777Y-6056484D02*
X6945396Y-6056484D01*
X6945396Y-6056484D02*
X6964444Y-6066008D01*
X6964444Y-6066008D02*
X6973967Y-6075531D01*
X6973967Y-6075531D02*
X6983491Y-6094579D01*
X6983491Y-6094579D02*
X6983491Y-6113627D01*
X6983491Y-6113627D02*
X6973967Y-6142198D01*
X6973967Y-6142198D02*
X6859682Y-6256484D01*
X6859682Y-6256484D02*
X6983491Y-6256484D01*
X7097777Y-6142198D02*
X7078729Y-6132674D01*
X7078729Y-6132674D02*
X7069206Y-6123150D01*
X7069206Y-6123150D02*
X7059682Y-6104103D01*
X7059682Y-6104103D02*
X7059682Y-6094579D01*
X7059682Y-6094579D02*
X7069206Y-6075531D01*
X7069206Y-6075531D02*
X7078729Y-6066008D01*
X7078729Y-6066008D02*
X7097777Y-6056484D01*
X7097777Y-6056484D02*
X7135872Y-6056484D01*
X7135872Y-6056484D02*
X7154920Y-6066008D01*
X7154920Y-6066008D02*
X7164444Y-6075531D01*
X7164444Y-6075531D02*
X7173967Y-6094579D01*
X7173967Y-6094579D02*
X7173967Y-6104103D01*
X7173967Y-6104103D02*
X7164444Y-6123150D01*
X7164444Y-6123150D02*
X7154920Y-6132674D01*
X7154920Y-6132674D02*
X7135872Y-6142198D01*
X7135872Y-6142198D02*
X7097777Y-6142198D01*
X7097777Y-6142198D02*
X7078729Y-6151722D01*
X7078729Y-6151722D02*
X7069206Y-6161246D01*
X7069206Y-6161246D02*
X7059682Y-6180293D01*
X7059682Y-6180293D02*
X7059682Y-6218388D01*
X7059682Y-6218388D02*
X7069206Y-6237436D01*
X7069206Y-6237436D02*
X7078729Y-6246960D01*
X7078729Y-6246960D02*
X7097777Y-6256484D01*
X7097777Y-6256484D02*
X7135872Y-6256484D01*
X7135872Y-6256484D02*
X7154920Y-6246960D01*
X7154920Y-6246960D02*
X7164444Y-6237436D01*
X7164444Y-6237436D02*
X7173967Y-6218388D01*
X7173967Y-6218388D02*
X7173967Y-6180293D01*
X7173967Y-6180293D02*
X7164444Y-6161246D01*
X7164444Y-6161246D02*
X7154920Y-6151722D01*
X7154920Y-6151722D02*
X7135872Y-6142198D01*
X7297777Y-6056484D02*
X7316825Y-6056484D01*
X7316825Y-6056484D02*
X7335872Y-6066008D01*
X7335872Y-6066008D02*
X7345396Y-6075531D01*
X7345396Y-6075531D02*
X7354920Y-6094579D01*
X7354920Y-6094579D02*
X7364444Y-6132674D01*
X7364444Y-6132674D02*
X7364444Y-6180293D01*
X7364444Y-6180293D02*
X7354920Y-6218388D01*
X7354920Y-6218388D02*
X7345396Y-6237436D01*
X7345396Y-6237436D02*
X7335872Y-6246960D01*
X7335872Y-6246960D02*
X7316825Y-6256484D01*
X7316825Y-6256484D02*
X7297777Y-6256484D01*
X7297777Y-6256484D02*
X7278729Y-6246960D01*
X7278729Y-6246960D02*
X7269206Y-6237436D01*
X7269206Y-6237436D02*
X7259682Y-6218388D01*
X7259682Y-6218388D02*
X7250158Y-6180293D01*
X7250158Y-6180293D02*
X7250158Y-6132674D01*
X7250158Y-6132674D02*
X7259682Y-6094579D01*
X7259682Y-6094579D02*
X7269206Y-6075531D01*
X7269206Y-6075531D02*
X7278729Y-6066008D01*
X7278729Y-6066008D02*
X7297777Y-6056484D01*
X7440634Y-6056484D02*
X7440634Y-6094579D01*
X7516825Y-6056484D02*
X7516825Y-6094579D01*
X7812063Y-6332674D02*
X7802539Y-6323150D01*
X7802539Y-6323150D02*
X7783491Y-6294579D01*
X7783491Y-6294579D02*
X7773968Y-6275531D01*
X7773968Y-6275531D02*
X7764444Y-6246960D01*
X7764444Y-6246960D02*
X7754920Y-6199341D01*
X7754920Y-6199341D02*
X7754920Y-6161246D01*
X7754920Y-6161246D02*
X7764444Y-6113627D01*
X7764444Y-6113627D02*
X7773968Y-6085055D01*
X7773968Y-6085055D02*
X7783491Y-6066008D01*
X7783491Y-6066008D02*
X7802539Y-6037436D01*
X7802539Y-6037436D02*
X7812063Y-6027912D01*
X7973968Y-6056484D02*
X7935872Y-6056484D01*
X7935872Y-6056484D02*
X7916825Y-6066008D01*
X7916825Y-6066008D02*
X7907301Y-6075531D01*
X7907301Y-6075531D02*
X7888253Y-6104103D01*
X7888253Y-6104103D02*
X7878729Y-6142198D01*
X7878729Y-6142198D02*
X7878729Y-6218388D01*
X7878729Y-6218388D02*
X7888253Y-6237436D01*
X7888253Y-6237436D02*
X7897777Y-6246960D01*
X7897777Y-6246960D02*
X7916825Y-6256484D01*
X7916825Y-6256484D02*
X7954920Y-6256484D01*
X7954920Y-6256484D02*
X7973968Y-6246960D01*
X7973968Y-6246960D02*
X7983491Y-6237436D01*
X7983491Y-6237436D02*
X7993015Y-6218388D01*
X7993015Y-6218388D02*
X7993015Y-6170769D01*
X7993015Y-6170769D02*
X7983491Y-6151722D01*
X7983491Y-6151722D02*
X7973968Y-6142198D01*
X7973968Y-6142198D02*
X7954920Y-6132674D01*
X7954920Y-6132674D02*
X7916825Y-6132674D01*
X7916825Y-6132674D02*
X7897777Y-6142198D01*
X7897777Y-6142198D02*
X7888253Y-6151722D01*
X7888253Y-6151722D02*
X7878729Y-6170769D01*
X8231110Y-6256484D02*
X8231110Y-6056484D01*
X8316825Y-6256484D02*
X8316825Y-6151722D01*
X8316825Y-6151722D02*
X8307301Y-6132674D01*
X8307301Y-6132674D02*
X8288253Y-6123150D01*
X8288253Y-6123150D02*
X8259682Y-6123150D01*
X8259682Y-6123150D02*
X8240634Y-6132674D01*
X8240634Y-6132674D02*
X8231110Y-6142198D01*
X8440634Y-6256484D02*
X8421587Y-6246960D01*
X8421587Y-6246960D02*
X8412063Y-6237436D01*
X8412063Y-6237436D02*
X8402539Y-6218388D01*
X8402539Y-6218388D02*
X8402539Y-6161246D01*
X8402539Y-6161246D02*
X8412063Y-6142198D01*
X8412063Y-6142198D02*
X8421587Y-6132674D01*
X8421587Y-6132674D02*
X8440634Y-6123150D01*
X8440634Y-6123150D02*
X8469206Y-6123150D01*
X8469206Y-6123150D02*
X8488253Y-6132674D01*
X8488253Y-6132674D02*
X8497777Y-6142198D01*
X8497777Y-6142198D02*
X8507301Y-6161246D01*
X8507301Y-6161246D02*
X8507301Y-6218388D01*
X8507301Y-6218388D02*
X8497777Y-6237436D01*
X8497777Y-6237436D02*
X8488253Y-6246960D01*
X8488253Y-6246960D02*
X8469206Y-6256484D01*
X8469206Y-6256484D02*
X8440634Y-6256484D01*
X8621587Y-6256484D02*
X8602539Y-6246960D01*
X8602539Y-6246960D02*
X8593015Y-6227912D01*
X8593015Y-6227912D02*
X8593015Y-6056484D01*
X8773968Y-6246960D02*
X8754920Y-6256484D01*
X8754920Y-6256484D02*
X8716825Y-6256484D01*
X8716825Y-6256484D02*
X8697777Y-6246960D01*
X8697777Y-6246960D02*
X8688253Y-6227912D01*
X8688253Y-6227912D02*
X8688253Y-6151722D01*
X8688253Y-6151722D02*
X8697777Y-6132674D01*
X8697777Y-6132674D02*
X8716825Y-6123150D01*
X8716825Y-6123150D02*
X8754920Y-6123150D01*
X8754920Y-6123150D02*
X8773968Y-6132674D01*
X8773968Y-6132674D02*
X8783492Y-6151722D01*
X8783492Y-6151722D02*
X8783492Y-6170769D01*
X8783492Y-6170769D02*
X8688253Y-6189817D01*
X8859682Y-6246960D02*
X8878730Y-6256484D01*
X8878730Y-6256484D02*
X8916825Y-6256484D01*
X8916825Y-6256484D02*
X8935873Y-6246960D01*
X8935873Y-6246960D02*
X8945396Y-6227912D01*
X8945396Y-6227912D02*
X8945396Y-6218388D01*
X8945396Y-6218388D02*
X8935873Y-6199341D01*
X8935873Y-6199341D02*
X8916825Y-6189817D01*
X8916825Y-6189817D02*
X8888253Y-6189817D01*
X8888253Y-6189817D02*
X8869206Y-6180293D01*
X8869206Y-6180293D02*
X8859682Y-6161246D01*
X8859682Y-6161246D02*
X8859682Y-6151722D01*
X8859682Y-6151722D02*
X8869206Y-6132674D01*
X8869206Y-6132674D02*
X8888253Y-6123150D01*
X8888253Y-6123150D02*
X8916825Y-6123150D01*
X8916825Y-6123150D02*
X8935873Y-6132674D01*
X9012063Y-6332674D02*
X9021587Y-6323150D01*
X9021587Y-6323150D02*
X9040634Y-6294579D01*
X9040634Y-6294579D02*
X9050158Y-6275531D01*
X9050158Y-6275531D02*
X9059682Y-6246960D01*
X9059682Y-6246960D02*
X9069206Y-6199341D01*
X9069206Y-6199341D02*
X9069206Y-6161246D01*
X9069206Y-6161246D02*
X9059682Y-6113627D01*
X9059682Y-6113627D02*
X9050158Y-6085055D01*
X9050158Y-6085055D02*
X9040634Y-6066008D01*
X9040634Y-6066008D02*
X9021587Y-6037436D01*
X9021587Y-6037436D02*
X9012063Y-6027912D01*
D11*
X4199500Y-6391500D02*
X4199500Y-6466500D01*
X4162000Y-6429000D02*
X4237000Y-6429000D01*
D10*
X4535872Y-6320484D02*
X4554920Y-6320484D01*
X4554920Y-6320484D02*
X4573967Y-6330008D01*
X4573967Y-6330008D02*
X4583491Y-6339531D01*
X4583491Y-6339531D02*
X4593015Y-6358579D01*
X4593015Y-6358579D02*
X4602539Y-6396674D01*
X4602539Y-6396674D02*
X4602539Y-6444293D01*
X4602539Y-6444293D02*
X4593015Y-6482388D01*
X4593015Y-6482388D02*
X4583491Y-6501436D01*
X4583491Y-6501436D02*
X4573967Y-6510960D01*
X4573967Y-6510960D02*
X4554920Y-6520484D01*
X4554920Y-6520484D02*
X4535872Y-6520484D01*
X4535872Y-6520484D02*
X4516824Y-6510960D01*
X4516824Y-6510960D02*
X4507301Y-6501436D01*
X4507301Y-6501436D02*
X4497777Y-6482388D01*
X4497777Y-6482388D02*
X4488253Y-6444293D01*
X4488253Y-6444293D02*
X4488253Y-6396674D01*
X4488253Y-6396674D02*
X4497777Y-6358579D01*
X4497777Y-6358579D02*
X4507301Y-6339531D01*
X4507301Y-6339531D02*
X4516824Y-6330008D01*
X4516824Y-6330008D02*
X4535872Y-6320484D01*
X4688253Y-6501436D02*
X4697777Y-6510960D01*
X4697777Y-6510960D02*
X4688253Y-6520484D01*
X4688253Y-6520484D02*
X4678729Y-6510960D01*
X4678729Y-6510960D02*
X4688253Y-6501436D01*
X4688253Y-6501436D02*
X4688253Y-6520484D01*
X4764444Y-6320484D02*
X4897777Y-6320484D01*
X4897777Y-6320484D02*
X4812063Y-6520484D01*
X5069205Y-6320484D02*
X4973967Y-6320484D01*
X4973967Y-6320484D02*
X4964444Y-6415722D01*
X4964444Y-6415722D02*
X4973967Y-6406198D01*
X4973967Y-6406198D02*
X4993015Y-6396674D01*
X4993015Y-6396674D02*
X5040634Y-6396674D01*
X5040634Y-6396674D02*
X5059682Y-6406198D01*
X5059682Y-6406198D02*
X5069205Y-6415722D01*
X5069205Y-6415722D02*
X5078729Y-6434769D01*
X5078729Y-6434769D02*
X5078729Y-6482388D01*
X5078729Y-6482388D02*
X5069205Y-6501436D01*
X5069205Y-6501436D02*
X5059682Y-6510960D01*
X5059682Y-6510960D02*
X5040634Y-6520484D01*
X5040634Y-6520484D02*
X4993015Y-6520484D01*
X4993015Y-6520484D02*
X4973967Y-6510960D01*
X4973967Y-6510960D02*
X4964444Y-6501436D01*
X5202539Y-6320484D02*
X5221586Y-6320484D01*
X5221586Y-6320484D02*
X5240634Y-6330008D01*
X5240634Y-6330008D02*
X5250158Y-6339531D01*
X5250158Y-6339531D02*
X5259682Y-6358579D01*
X5259682Y-6358579D02*
X5269205Y-6396674D01*
X5269205Y-6396674D02*
X5269205Y-6444293D01*
X5269205Y-6444293D02*
X5259682Y-6482388D01*
X5259682Y-6482388D02*
X5250158Y-6501436D01*
X5250158Y-6501436D02*
X5240634Y-6510960D01*
X5240634Y-6510960D02*
X5221586Y-6520484D01*
X5221586Y-6520484D02*
X5202539Y-6520484D01*
X5202539Y-6520484D02*
X5183491Y-6510960D01*
X5183491Y-6510960D02*
X5173967Y-6501436D01*
X5173967Y-6501436D02*
X5164444Y-6482388D01*
X5164444Y-6482388D02*
X5154920Y-6444293D01*
X5154920Y-6444293D02*
X5154920Y-6396674D01*
X5154920Y-6396674D02*
X5164444Y-6358579D01*
X5164444Y-6358579D02*
X5173967Y-6339531D01*
X5173967Y-6339531D02*
X5183491Y-6330008D01*
X5183491Y-6330008D02*
X5202539Y-6320484D01*
X5354920Y-6520484D02*
X5354920Y-6387150D01*
X5354920Y-6406198D02*
X5364444Y-6396674D01*
X5364444Y-6396674D02*
X5383491Y-6387150D01*
X5383491Y-6387150D02*
X5412063Y-6387150D01*
X5412063Y-6387150D02*
X5431110Y-6396674D01*
X5431110Y-6396674D02*
X5440634Y-6415722D01*
X5440634Y-6415722D02*
X5440634Y-6520484D01*
X5440634Y-6415722D02*
X5450158Y-6396674D01*
X5450158Y-6396674D02*
X5469205Y-6387150D01*
X5469205Y-6387150D02*
X5497777Y-6387150D01*
X5497777Y-6387150D02*
X5516825Y-6396674D01*
X5516825Y-6396674D02*
X5526348Y-6415722D01*
X5526348Y-6415722D02*
X5526348Y-6520484D01*
X5621586Y-6520484D02*
X5621586Y-6387150D01*
X5621586Y-6406198D02*
X5631110Y-6396674D01*
X5631110Y-6396674D02*
X5650158Y-6387150D01*
X5650158Y-6387150D02*
X5678729Y-6387150D01*
X5678729Y-6387150D02*
X5697777Y-6396674D01*
X5697777Y-6396674D02*
X5707301Y-6415722D01*
X5707301Y-6415722D02*
X5707301Y-6520484D01*
X5707301Y-6415722D02*
X5716824Y-6396674D01*
X5716824Y-6396674D02*
X5735872Y-6387150D01*
X5735872Y-6387150D02*
X5764443Y-6387150D01*
X5764443Y-6387150D02*
X5783491Y-6396674D01*
X5783491Y-6396674D02*
X5793015Y-6415722D01*
X5793015Y-6415722D02*
X5793015Y-6520484D01*
X6183491Y-6310960D02*
X6012063Y-6568103D01*
X6440634Y-6320484D02*
X6459682Y-6320484D01*
X6459682Y-6320484D02*
X6478729Y-6330008D01*
X6478729Y-6330008D02*
X6488253Y-6339531D01*
X6488253Y-6339531D02*
X6497777Y-6358579D01*
X6497777Y-6358579D02*
X6507301Y-6396674D01*
X6507301Y-6396674D02*
X6507301Y-6444293D01*
X6507301Y-6444293D02*
X6497777Y-6482388D01*
X6497777Y-6482388D02*
X6488253Y-6501436D01*
X6488253Y-6501436D02*
X6478729Y-6510960D01*
X6478729Y-6510960D02*
X6459682Y-6520484D01*
X6459682Y-6520484D02*
X6440634Y-6520484D01*
X6440634Y-6520484D02*
X6421586Y-6510960D01*
X6421586Y-6510960D02*
X6412063Y-6501436D01*
X6412063Y-6501436D02*
X6402539Y-6482388D01*
X6402539Y-6482388D02*
X6393015Y-6444293D01*
X6393015Y-6444293D02*
X6393015Y-6396674D01*
X6393015Y-6396674D02*
X6402539Y-6358579D01*
X6402539Y-6358579D02*
X6412063Y-6339531D01*
X6412063Y-6339531D02*
X6421586Y-6330008D01*
X6421586Y-6330008D02*
X6440634Y-6320484D01*
X6593015Y-6501436D02*
X6602539Y-6510960D01*
X6602539Y-6510960D02*
X6593015Y-6520484D01*
X6593015Y-6520484D02*
X6583491Y-6510960D01*
X6583491Y-6510960D02*
X6593015Y-6501436D01*
X6593015Y-6501436D02*
X6593015Y-6520484D01*
X6726348Y-6320484D02*
X6745396Y-6320484D01*
X6745396Y-6320484D02*
X6764444Y-6330008D01*
X6764444Y-6330008D02*
X6773967Y-6339531D01*
X6773967Y-6339531D02*
X6783491Y-6358579D01*
X6783491Y-6358579D02*
X6793015Y-6396674D01*
X6793015Y-6396674D02*
X6793015Y-6444293D01*
X6793015Y-6444293D02*
X6783491Y-6482388D01*
X6783491Y-6482388D02*
X6773967Y-6501436D01*
X6773967Y-6501436D02*
X6764444Y-6510960D01*
X6764444Y-6510960D02*
X6745396Y-6520484D01*
X6745396Y-6520484D02*
X6726348Y-6520484D01*
X6726348Y-6520484D02*
X6707301Y-6510960D01*
X6707301Y-6510960D02*
X6697777Y-6501436D01*
X6697777Y-6501436D02*
X6688253Y-6482388D01*
X6688253Y-6482388D02*
X6678729Y-6444293D01*
X6678729Y-6444293D02*
X6678729Y-6396674D01*
X6678729Y-6396674D02*
X6688253Y-6358579D01*
X6688253Y-6358579D02*
X6697777Y-6339531D01*
X6697777Y-6339531D02*
X6707301Y-6330008D01*
X6707301Y-6330008D02*
X6726348Y-6320484D01*
X6869206Y-6339531D02*
X6878729Y-6330008D01*
X6878729Y-6330008D02*
X6897777Y-6320484D01*
X6897777Y-6320484D02*
X6945396Y-6320484D01*
X6945396Y-6320484D02*
X6964444Y-6330008D01*
X6964444Y-6330008D02*
X6973967Y-6339531D01*
X6973967Y-6339531D02*
X6983491Y-6358579D01*
X6983491Y-6358579D02*
X6983491Y-6377627D01*
X6983491Y-6377627D02*
X6973967Y-6406198D01*
X6973967Y-6406198D02*
X6859682Y-6520484D01*
X6859682Y-6520484D02*
X6983491Y-6520484D01*
X7078729Y-6520484D02*
X7116825Y-6520484D01*
X7116825Y-6520484D02*
X7135872Y-6510960D01*
X7135872Y-6510960D02*
X7145396Y-6501436D01*
X7145396Y-6501436D02*
X7164444Y-6472865D01*
X7164444Y-6472865D02*
X7173967Y-6434769D01*
X7173967Y-6434769D02*
X7173967Y-6358579D01*
X7173967Y-6358579D02*
X7164444Y-6339531D01*
X7164444Y-6339531D02*
X7154920Y-6330008D01*
X7154920Y-6330008D02*
X7135872Y-6320484D01*
X7135872Y-6320484D02*
X7097777Y-6320484D01*
X7097777Y-6320484D02*
X7078729Y-6330008D01*
X7078729Y-6330008D02*
X7069206Y-6339531D01*
X7069206Y-6339531D02*
X7059682Y-6358579D01*
X7059682Y-6358579D02*
X7059682Y-6406198D01*
X7059682Y-6406198D02*
X7069206Y-6425246D01*
X7069206Y-6425246D02*
X7078729Y-6434769D01*
X7078729Y-6434769D02*
X7097777Y-6444293D01*
X7097777Y-6444293D02*
X7135872Y-6444293D01*
X7135872Y-6444293D02*
X7154920Y-6434769D01*
X7154920Y-6434769D02*
X7164444Y-6425246D01*
X7164444Y-6425246D02*
X7173967Y-6406198D01*
X7354920Y-6320484D02*
X7259682Y-6320484D01*
X7259682Y-6320484D02*
X7250158Y-6415722D01*
X7250158Y-6415722D02*
X7259682Y-6406198D01*
X7259682Y-6406198D02*
X7278729Y-6396674D01*
X7278729Y-6396674D02*
X7326348Y-6396674D01*
X7326348Y-6396674D02*
X7345396Y-6406198D01*
X7345396Y-6406198D02*
X7354920Y-6415722D01*
X7354920Y-6415722D02*
X7364444Y-6434769D01*
X7364444Y-6434769D02*
X7364444Y-6482388D01*
X7364444Y-6482388D02*
X7354920Y-6501436D01*
X7354920Y-6501436D02*
X7345396Y-6510960D01*
X7345396Y-6510960D02*
X7326348Y-6520484D01*
X7326348Y-6520484D02*
X7278729Y-6520484D01*
X7278729Y-6520484D02*
X7259682Y-6510960D01*
X7259682Y-6510960D02*
X7250158Y-6501436D01*
X7440634Y-6320484D02*
X7440634Y-6358579D01*
X7516825Y-6320484D02*
X7516825Y-6358579D01*
X7812063Y-6596674D02*
X7802539Y-6587150D01*
X7802539Y-6587150D02*
X7783491Y-6558579D01*
X7783491Y-6558579D02*
X7773968Y-6539531D01*
X7773968Y-6539531D02*
X7764444Y-6510960D01*
X7764444Y-6510960D02*
X7754920Y-6463341D01*
X7754920Y-6463341D02*
X7754920Y-6425246D01*
X7754920Y-6425246D02*
X7764444Y-6377627D01*
X7764444Y-6377627D02*
X7773968Y-6349055D01*
X7773968Y-6349055D02*
X7783491Y-6330008D01*
X7783491Y-6330008D02*
X7802539Y-6301436D01*
X7802539Y-6301436D02*
X7812063Y-6291912D01*
X7869206Y-6320484D02*
X7993015Y-6320484D01*
X7993015Y-6320484D02*
X7926348Y-6396674D01*
X7926348Y-6396674D02*
X7954920Y-6396674D01*
X7954920Y-6396674D02*
X7973968Y-6406198D01*
X7973968Y-6406198D02*
X7983491Y-6415722D01*
X7983491Y-6415722D02*
X7993015Y-6434769D01*
X7993015Y-6434769D02*
X7993015Y-6482388D01*
X7993015Y-6482388D02*
X7983491Y-6501436D01*
X7983491Y-6501436D02*
X7973968Y-6510960D01*
X7973968Y-6510960D02*
X7954920Y-6520484D01*
X7954920Y-6520484D02*
X7897777Y-6520484D01*
X7897777Y-6520484D02*
X7878729Y-6510960D01*
X7878729Y-6510960D02*
X7869206Y-6501436D01*
X8231110Y-6520484D02*
X8231110Y-6320484D01*
X8316825Y-6520484D02*
X8316825Y-6415722D01*
X8316825Y-6415722D02*
X8307301Y-6396674D01*
X8307301Y-6396674D02*
X8288253Y-6387150D01*
X8288253Y-6387150D02*
X8259682Y-6387150D01*
X8259682Y-6387150D02*
X8240634Y-6396674D01*
X8240634Y-6396674D02*
X8231110Y-6406198D01*
X8440634Y-6520484D02*
X8421587Y-6510960D01*
X8421587Y-6510960D02*
X8412063Y-6501436D01*
X8412063Y-6501436D02*
X8402539Y-6482388D01*
X8402539Y-6482388D02*
X8402539Y-6425246D01*
X8402539Y-6425246D02*
X8412063Y-6406198D01*
X8412063Y-6406198D02*
X8421587Y-6396674D01*
X8421587Y-6396674D02*
X8440634Y-6387150D01*
X8440634Y-6387150D02*
X8469206Y-6387150D01*
X8469206Y-6387150D02*
X8488253Y-6396674D01*
X8488253Y-6396674D02*
X8497777Y-6406198D01*
X8497777Y-6406198D02*
X8507301Y-6425246D01*
X8507301Y-6425246D02*
X8507301Y-6482388D01*
X8507301Y-6482388D02*
X8497777Y-6501436D01*
X8497777Y-6501436D02*
X8488253Y-6510960D01*
X8488253Y-6510960D02*
X8469206Y-6520484D01*
X8469206Y-6520484D02*
X8440634Y-6520484D01*
X8621587Y-6520484D02*
X8602539Y-6510960D01*
X8602539Y-6510960D02*
X8593015Y-6491912D01*
X8593015Y-6491912D02*
X8593015Y-6320484D01*
X8773968Y-6510960D02*
X8754920Y-6520484D01*
X8754920Y-6520484D02*
X8716825Y-6520484D01*
X8716825Y-6520484D02*
X8697777Y-6510960D01*
X8697777Y-6510960D02*
X8688253Y-6491912D01*
X8688253Y-6491912D02*
X8688253Y-6415722D01*
X8688253Y-6415722D02*
X8697777Y-6396674D01*
X8697777Y-6396674D02*
X8716825Y-6387150D01*
X8716825Y-6387150D02*
X8754920Y-6387150D01*
X8754920Y-6387150D02*
X8773968Y-6396674D01*
X8773968Y-6396674D02*
X8783492Y-6415722D01*
X8783492Y-6415722D02*
X8783492Y-6434769D01*
X8783492Y-6434769D02*
X8688253Y-6453817D01*
X8859682Y-6510960D02*
X8878730Y-6520484D01*
X8878730Y-6520484D02*
X8916825Y-6520484D01*
X8916825Y-6520484D02*
X8935873Y-6510960D01*
X8935873Y-6510960D02*
X8945396Y-6491912D01*
X8945396Y-6491912D02*
X8945396Y-6482388D01*
X8945396Y-6482388D02*
X8935873Y-6463341D01*
X8935873Y-6463341D02*
X8916825Y-6453817D01*
X8916825Y-6453817D02*
X8888253Y-6453817D01*
X8888253Y-6453817D02*
X8869206Y-6444293D01*
X8869206Y-6444293D02*
X8859682Y-6425246D01*
X8859682Y-6425246D02*
X8859682Y-6415722D01*
X8859682Y-6415722D02*
X8869206Y-6396674D01*
X8869206Y-6396674D02*
X8888253Y-6387150D01*
X8888253Y-6387150D02*
X8916825Y-6387150D01*
X8916825Y-6387150D02*
X8935873Y-6396674D01*
X9012063Y-6596674D02*
X9021587Y-6587150D01*
X9021587Y-6587150D02*
X9040634Y-6558579D01*
X9040634Y-6558579D02*
X9050158Y-6539531D01*
X9050158Y-6539531D02*
X9059682Y-6510960D01*
X9059682Y-6510960D02*
X9069206Y-6463341D01*
X9069206Y-6463341D02*
X9069206Y-6425246D01*
X9069206Y-6425246D02*
X9059682Y-6377627D01*
X9059682Y-6377627D02*
X9050158Y-6349055D01*
X9050158Y-6349055D02*
X9040634Y-6330008D01*
X9040634Y-6330008D02*
X9021587Y-6301436D01*
X9021587Y-6301436D02*
X9012063Y-6291912D01*
D11*
X4225285Y-6721284D02*
X4225285Y-6664715D01*
X4168715Y-6664715D01*
X4168715Y-6721284D01*
X4225285Y-6721284D01*
D10*
X4535872Y-6584484D02*
X4554920Y-6584484D01*
X4554920Y-6584484D02*
X4573967Y-6594008D01*
X4573967Y-6594008D02*
X4583491Y-6603531D01*
X4583491Y-6603531D02*
X4593015Y-6622579D01*
X4593015Y-6622579D02*
X4602539Y-6660674D01*
X4602539Y-6660674D02*
X4602539Y-6708293D01*
X4602539Y-6708293D02*
X4593015Y-6746388D01*
X4593015Y-6746388D02*
X4583491Y-6765436D01*
X4583491Y-6765436D02*
X4573967Y-6774960D01*
X4573967Y-6774960D02*
X4554920Y-6784484D01*
X4554920Y-6784484D02*
X4535872Y-6784484D01*
X4535872Y-6784484D02*
X4516824Y-6774960D01*
X4516824Y-6774960D02*
X4507301Y-6765436D01*
X4507301Y-6765436D02*
X4497777Y-6746388D01*
X4497777Y-6746388D02*
X4488253Y-6708293D01*
X4488253Y-6708293D02*
X4488253Y-6660674D01*
X4488253Y-6660674D02*
X4497777Y-6622579D01*
X4497777Y-6622579D02*
X4507301Y-6603531D01*
X4507301Y-6603531D02*
X4516824Y-6594008D01*
X4516824Y-6594008D02*
X4535872Y-6584484D01*
X4688253Y-6765436D02*
X4697777Y-6774960D01*
X4697777Y-6774960D02*
X4688253Y-6784484D01*
X4688253Y-6784484D02*
X4678729Y-6774960D01*
X4678729Y-6774960D02*
X4688253Y-6765436D01*
X4688253Y-6765436D02*
X4688253Y-6784484D01*
X4812063Y-6670198D02*
X4793015Y-6660674D01*
X4793015Y-6660674D02*
X4783491Y-6651150D01*
X4783491Y-6651150D02*
X4773967Y-6632103D01*
X4773967Y-6632103D02*
X4773967Y-6622579D01*
X4773967Y-6622579D02*
X4783491Y-6603531D01*
X4783491Y-6603531D02*
X4793015Y-6594008D01*
X4793015Y-6594008D02*
X4812063Y-6584484D01*
X4812063Y-6584484D02*
X4850158Y-6584484D01*
X4850158Y-6584484D02*
X4869205Y-6594008D01*
X4869205Y-6594008D02*
X4878729Y-6603531D01*
X4878729Y-6603531D02*
X4888253Y-6622579D01*
X4888253Y-6622579D02*
X4888253Y-6632103D01*
X4888253Y-6632103D02*
X4878729Y-6651150D01*
X4878729Y-6651150D02*
X4869205Y-6660674D01*
X4869205Y-6660674D02*
X4850158Y-6670198D01*
X4850158Y-6670198D02*
X4812063Y-6670198D01*
X4812063Y-6670198D02*
X4793015Y-6679722D01*
X4793015Y-6679722D02*
X4783491Y-6689246D01*
X4783491Y-6689246D02*
X4773967Y-6708293D01*
X4773967Y-6708293D02*
X4773967Y-6746388D01*
X4773967Y-6746388D02*
X4783491Y-6765436D01*
X4783491Y-6765436D02*
X4793015Y-6774960D01*
X4793015Y-6774960D02*
X4812063Y-6784484D01*
X4812063Y-6784484D02*
X4850158Y-6784484D01*
X4850158Y-6784484D02*
X4869205Y-6774960D01*
X4869205Y-6774960D02*
X4878729Y-6765436D01*
X4878729Y-6765436D02*
X4888253Y-6746388D01*
X4888253Y-6746388D02*
X4888253Y-6708293D01*
X4888253Y-6708293D02*
X4878729Y-6689246D01*
X4878729Y-6689246D02*
X4869205Y-6679722D01*
X4869205Y-6679722D02*
X4850158Y-6670198D01*
X5012063Y-6584484D02*
X5031110Y-6584484D01*
X5031110Y-6584484D02*
X5050158Y-6594008D01*
X5050158Y-6594008D02*
X5059682Y-6603531D01*
X5059682Y-6603531D02*
X5069205Y-6622579D01*
X5069205Y-6622579D02*
X5078729Y-6660674D01*
X5078729Y-6660674D02*
X5078729Y-6708293D01*
X5078729Y-6708293D02*
X5069205Y-6746388D01*
X5069205Y-6746388D02*
X5059682Y-6765436D01*
X5059682Y-6765436D02*
X5050158Y-6774960D01*
X5050158Y-6774960D02*
X5031110Y-6784484D01*
X5031110Y-6784484D02*
X5012063Y-6784484D01*
X5012063Y-6784484D02*
X4993015Y-6774960D01*
X4993015Y-6774960D02*
X4983491Y-6765436D01*
X4983491Y-6765436D02*
X4973967Y-6746388D01*
X4973967Y-6746388D02*
X4964444Y-6708293D01*
X4964444Y-6708293D02*
X4964444Y-6660674D01*
X4964444Y-6660674D02*
X4973967Y-6622579D01*
X4973967Y-6622579D02*
X4983491Y-6603531D01*
X4983491Y-6603531D02*
X4993015Y-6594008D01*
X4993015Y-6594008D02*
X5012063Y-6584484D01*
X5202539Y-6584484D02*
X5221586Y-6584484D01*
X5221586Y-6584484D02*
X5240634Y-6594008D01*
X5240634Y-6594008D02*
X5250158Y-6603531D01*
X5250158Y-6603531D02*
X5259682Y-6622579D01*
X5259682Y-6622579D02*
X5269205Y-6660674D01*
X5269205Y-6660674D02*
X5269205Y-6708293D01*
X5269205Y-6708293D02*
X5259682Y-6746388D01*
X5259682Y-6746388D02*
X5250158Y-6765436D01*
X5250158Y-6765436D02*
X5240634Y-6774960D01*
X5240634Y-6774960D02*
X5221586Y-6784484D01*
X5221586Y-6784484D02*
X5202539Y-6784484D01*
X5202539Y-6784484D02*
X5183491Y-6774960D01*
X5183491Y-6774960D02*
X5173967Y-6765436D01*
X5173967Y-6765436D02*
X5164444Y-6746388D01*
X5164444Y-6746388D02*
X5154920Y-6708293D01*
X5154920Y-6708293D02*
X5154920Y-6660674D01*
X5154920Y-6660674D02*
X5164444Y-6622579D01*
X5164444Y-6622579D02*
X5173967Y-6603531D01*
X5173967Y-6603531D02*
X5183491Y-6594008D01*
X5183491Y-6594008D02*
X5202539Y-6584484D01*
X5354920Y-6784484D02*
X5354920Y-6651150D01*
X5354920Y-6670198D02*
X5364444Y-6660674D01*
X5364444Y-6660674D02*
X5383491Y-6651150D01*
X5383491Y-6651150D02*
X5412063Y-6651150D01*
X5412063Y-6651150D02*
X5431110Y-6660674D01*
X5431110Y-6660674D02*
X5440634Y-6679722D01*
X5440634Y-6679722D02*
X5440634Y-6784484D01*
X5440634Y-6679722D02*
X5450158Y-6660674D01*
X5450158Y-6660674D02*
X5469205Y-6651150D01*
X5469205Y-6651150D02*
X5497777Y-6651150D01*
X5497777Y-6651150D02*
X5516825Y-6660674D01*
X5516825Y-6660674D02*
X5526348Y-6679722D01*
X5526348Y-6679722D02*
X5526348Y-6784484D01*
X5621586Y-6784484D02*
X5621586Y-6651150D01*
X5621586Y-6670198D02*
X5631110Y-6660674D01*
X5631110Y-6660674D02*
X5650158Y-6651150D01*
X5650158Y-6651150D02*
X5678729Y-6651150D01*
X5678729Y-6651150D02*
X5697777Y-6660674D01*
X5697777Y-6660674D02*
X5707301Y-6679722D01*
X5707301Y-6679722D02*
X5707301Y-6784484D01*
X5707301Y-6679722D02*
X5716824Y-6660674D01*
X5716824Y-6660674D02*
X5735872Y-6651150D01*
X5735872Y-6651150D02*
X5764443Y-6651150D01*
X5764443Y-6651150D02*
X5783491Y-6660674D01*
X5783491Y-6660674D02*
X5793015Y-6679722D01*
X5793015Y-6679722D02*
X5793015Y-6784484D01*
X6183491Y-6574960D02*
X6012063Y-6832103D01*
X6440634Y-6584484D02*
X6459682Y-6584484D01*
X6459682Y-6584484D02*
X6478729Y-6594008D01*
X6478729Y-6594008D02*
X6488253Y-6603531D01*
X6488253Y-6603531D02*
X6497777Y-6622579D01*
X6497777Y-6622579D02*
X6507301Y-6660674D01*
X6507301Y-6660674D02*
X6507301Y-6708293D01*
X6507301Y-6708293D02*
X6497777Y-6746388D01*
X6497777Y-6746388D02*
X6488253Y-6765436D01*
X6488253Y-6765436D02*
X6478729Y-6774960D01*
X6478729Y-6774960D02*
X6459682Y-6784484D01*
X6459682Y-6784484D02*
X6440634Y-6784484D01*
X6440634Y-6784484D02*
X6421586Y-6774960D01*
X6421586Y-6774960D02*
X6412063Y-6765436D01*
X6412063Y-6765436D02*
X6402539Y-6746388D01*
X6402539Y-6746388D02*
X6393015Y-6708293D01*
X6393015Y-6708293D02*
X6393015Y-6660674D01*
X6393015Y-6660674D02*
X6402539Y-6622579D01*
X6402539Y-6622579D02*
X6412063Y-6603531D01*
X6412063Y-6603531D02*
X6421586Y-6594008D01*
X6421586Y-6594008D02*
X6440634Y-6584484D01*
X6593015Y-6765436D02*
X6602539Y-6774960D01*
X6602539Y-6774960D02*
X6593015Y-6784484D01*
X6593015Y-6784484D02*
X6583491Y-6774960D01*
X6583491Y-6774960D02*
X6593015Y-6765436D01*
X6593015Y-6765436D02*
X6593015Y-6784484D01*
X6726348Y-6584484D02*
X6745396Y-6584484D01*
X6745396Y-6584484D02*
X6764444Y-6594008D01*
X6764444Y-6594008D02*
X6773967Y-6603531D01*
X6773967Y-6603531D02*
X6783491Y-6622579D01*
X6783491Y-6622579D02*
X6793015Y-6660674D01*
X6793015Y-6660674D02*
X6793015Y-6708293D01*
X6793015Y-6708293D02*
X6783491Y-6746388D01*
X6783491Y-6746388D02*
X6773967Y-6765436D01*
X6773967Y-6765436D02*
X6764444Y-6774960D01*
X6764444Y-6774960D02*
X6745396Y-6784484D01*
X6745396Y-6784484D02*
X6726348Y-6784484D01*
X6726348Y-6784484D02*
X6707301Y-6774960D01*
X6707301Y-6774960D02*
X6697777Y-6765436D01*
X6697777Y-6765436D02*
X6688253Y-6746388D01*
X6688253Y-6746388D02*
X6678729Y-6708293D01*
X6678729Y-6708293D02*
X6678729Y-6660674D01*
X6678729Y-6660674D02*
X6688253Y-6622579D01*
X6688253Y-6622579D02*
X6697777Y-6603531D01*
X6697777Y-6603531D02*
X6707301Y-6594008D01*
X6707301Y-6594008D02*
X6726348Y-6584484D01*
X6859682Y-6584484D02*
X6983491Y-6584484D01*
X6983491Y-6584484D02*
X6916825Y-6660674D01*
X6916825Y-6660674D02*
X6945396Y-6660674D01*
X6945396Y-6660674D02*
X6964444Y-6670198D01*
X6964444Y-6670198D02*
X6973967Y-6679722D01*
X6973967Y-6679722D02*
X6983491Y-6698769D01*
X6983491Y-6698769D02*
X6983491Y-6746388D01*
X6983491Y-6746388D02*
X6973967Y-6765436D01*
X6973967Y-6765436D02*
X6964444Y-6774960D01*
X6964444Y-6774960D02*
X6945396Y-6784484D01*
X6945396Y-6784484D02*
X6888253Y-6784484D01*
X6888253Y-6784484D02*
X6869206Y-6774960D01*
X6869206Y-6774960D02*
X6859682Y-6765436D01*
X7173967Y-6784484D02*
X7059682Y-6784484D01*
X7116825Y-6784484D02*
X7116825Y-6584484D01*
X7116825Y-6584484D02*
X7097777Y-6613055D01*
X7097777Y-6613055D02*
X7078729Y-6632103D01*
X7078729Y-6632103D02*
X7059682Y-6641627D01*
X7354920Y-6584484D02*
X7259682Y-6584484D01*
X7259682Y-6584484D02*
X7250158Y-6679722D01*
X7250158Y-6679722D02*
X7259682Y-6670198D01*
X7259682Y-6670198D02*
X7278729Y-6660674D01*
X7278729Y-6660674D02*
X7326348Y-6660674D01*
X7326348Y-6660674D02*
X7345396Y-6670198D01*
X7345396Y-6670198D02*
X7354920Y-6679722D01*
X7354920Y-6679722D02*
X7364444Y-6698769D01*
X7364444Y-6698769D02*
X7364444Y-6746388D01*
X7364444Y-6746388D02*
X7354920Y-6765436D01*
X7354920Y-6765436D02*
X7345396Y-6774960D01*
X7345396Y-6774960D02*
X7326348Y-6784484D01*
X7326348Y-6784484D02*
X7278729Y-6784484D01*
X7278729Y-6784484D02*
X7259682Y-6774960D01*
X7259682Y-6774960D02*
X7250158Y-6765436D01*
X7440634Y-6584484D02*
X7440634Y-6622579D01*
X7516825Y-6584484D02*
X7516825Y-6622579D01*
X7812063Y-6860674D02*
X7802539Y-6851150D01*
X7802539Y-6851150D02*
X7783491Y-6822579D01*
X7783491Y-6822579D02*
X7773968Y-6803531D01*
X7773968Y-6803531D02*
X7764444Y-6774960D01*
X7764444Y-6774960D02*
X7754920Y-6727341D01*
X7754920Y-6727341D02*
X7754920Y-6689246D01*
X7754920Y-6689246D02*
X7764444Y-6641627D01*
X7764444Y-6641627D02*
X7773968Y-6613055D01*
X7773968Y-6613055D02*
X7783491Y-6594008D01*
X7783491Y-6594008D02*
X7802539Y-6565436D01*
X7802539Y-6565436D02*
X7812063Y-6555912D01*
X7869206Y-6584484D02*
X7993015Y-6584484D01*
X7993015Y-6584484D02*
X7926348Y-6660674D01*
X7926348Y-6660674D02*
X7954920Y-6660674D01*
X7954920Y-6660674D02*
X7973968Y-6670198D01*
X7973968Y-6670198D02*
X7983491Y-6679722D01*
X7983491Y-6679722D02*
X7993015Y-6698769D01*
X7993015Y-6698769D02*
X7993015Y-6746388D01*
X7993015Y-6746388D02*
X7983491Y-6765436D01*
X7983491Y-6765436D02*
X7973968Y-6774960D01*
X7973968Y-6774960D02*
X7954920Y-6784484D01*
X7954920Y-6784484D02*
X7897777Y-6784484D01*
X7897777Y-6784484D02*
X7878729Y-6774960D01*
X7878729Y-6774960D02*
X7869206Y-6765436D01*
X8088253Y-6784484D02*
X8126348Y-6784484D01*
X8126348Y-6784484D02*
X8145396Y-6774960D01*
X8145396Y-6774960D02*
X8154920Y-6765436D01*
X8154920Y-6765436D02*
X8173968Y-6736865D01*
X8173968Y-6736865D02*
X8183491Y-6698769D01*
X8183491Y-6698769D02*
X8183491Y-6622579D01*
X8183491Y-6622579D02*
X8173968Y-6603531D01*
X8173968Y-6603531D02*
X8164444Y-6594008D01*
X8164444Y-6594008D02*
X8145396Y-6584484D01*
X8145396Y-6584484D02*
X8107301Y-6584484D01*
X8107301Y-6584484D02*
X8088253Y-6594008D01*
X8088253Y-6594008D02*
X8078729Y-6603531D01*
X8078729Y-6603531D02*
X8069206Y-6622579D01*
X8069206Y-6622579D02*
X8069206Y-6670198D01*
X8069206Y-6670198D02*
X8078729Y-6689246D01*
X8078729Y-6689246D02*
X8088253Y-6698769D01*
X8088253Y-6698769D02*
X8107301Y-6708293D01*
X8107301Y-6708293D02*
X8145396Y-6708293D01*
X8145396Y-6708293D02*
X8164444Y-6698769D01*
X8164444Y-6698769D02*
X8173968Y-6689246D01*
X8173968Y-6689246D02*
X8183491Y-6670198D01*
X8421587Y-6784484D02*
X8421587Y-6584484D01*
X8507301Y-6784484D02*
X8507301Y-6679722D01*
X8507301Y-6679722D02*
X8497777Y-6660674D01*
X8497777Y-6660674D02*
X8478730Y-6651150D01*
X8478730Y-6651150D02*
X8450158Y-6651150D01*
X8450158Y-6651150D02*
X8431111Y-6660674D01*
X8431111Y-6660674D02*
X8421587Y-6670198D01*
X8631111Y-6784484D02*
X8612063Y-6774960D01*
X8612063Y-6774960D02*
X8602539Y-6765436D01*
X8602539Y-6765436D02*
X8593015Y-6746388D01*
X8593015Y-6746388D02*
X8593015Y-6689246D01*
X8593015Y-6689246D02*
X8602539Y-6670198D01*
X8602539Y-6670198D02*
X8612063Y-6660674D01*
X8612063Y-6660674D02*
X8631111Y-6651150D01*
X8631111Y-6651150D02*
X8659682Y-6651150D01*
X8659682Y-6651150D02*
X8678730Y-6660674D01*
X8678730Y-6660674D02*
X8688253Y-6670198D01*
X8688253Y-6670198D02*
X8697777Y-6689246D01*
X8697777Y-6689246D02*
X8697777Y-6746388D01*
X8697777Y-6746388D02*
X8688253Y-6765436D01*
X8688253Y-6765436D02*
X8678730Y-6774960D01*
X8678730Y-6774960D02*
X8659682Y-6784484D01*
X8659682Y-6784484D02*
X8631111Y-6784484D01*
X8812063Y-6784484D02*
X8793015Y-6774960D01*
X8793015Y-6774960D02*
X8783492Y-6755912D01*
X8783492Y-6755912D02*
X8783492Y-6584484D01*
X8964444Y-6774960D02*
X8945396Y-6784484D01*
X8945396Y-6784484D02*
X8907301Y-6784484D01*
X8907301Y-6784484D02*
X8888253Y-6774960D01*
X8888253Y-6774960D02*
X8878730Y-6755912D01*
X8878730Y-6755912D02*
X8878730Y-6679722D01*
X8878730Y-6679722D02*
X8888253Y-6660674D01*
X8888253Y-6660674D02*
X8907301Y-6651150D01*
X8907301Y-6651150D02*
X8945396Y-6651150D01*
X8945396Y-6651150D02*
X8964444Y-6660674D01*
X8964444Y-6660674D02*
X8973968Y-6679722D01*
X8973968Y-6679722D02*
X8973968Y-6698769D01*
X8973968Y-6698769D02*
X8878730Y-6717817D01*
X9050158Y-6774960D02*
X9069206Y-6784484D01*
X9069206Y-6784484D02*
X9107301Y-6784484D01*
X9107301Y-6784484D02*
X9126349Y-6774960D01*
X9126349Y-6774960D02*
X9135873Y-6755912D01*
X9135873Y-6755912D02*
X9135873Y-6746388D01*
X9135873Y-6746388D02*
X9126349Y-6727341D01*
X9126349Y-6727341D02*
X9107301Y-6717817D01*
X9107301Y-6717817D02*
X9078730Y-6717817D01*
X9078730Y-6717817D02*
X9059682Y-6708293D01*
X9059682Y-6708293D02*
X9050158Y-6689246D01*
X9050158Y-6689246D02*
X9050158Y-6679722D01*
X9050158Y-6679722D02*
X9059682Y-6660674D01*
X9059682Y-6660674D02*
X9078730Y-6651150D01*
X9078730Y-6651150D02*
X9107301Y-6651150D01*
X9107301Y-6651150D02*
X9126349Y-6660674D01*
X9202539Y-6860674D02*
X9212063Y-6851150D01*
X9212063Y-6851150D02*
X9231111Y-6822579D01*
X9231111Y-6822579D02*
X9240634Y-6803531D01*
X9240634Y-6803531D02*
X9250158Y-6774960D01*
X9250158Y-6774960D02*
X9259682Y-6727341D01*
X9259682Y-6727341D02*
X9259682Y-6689246D01*
X9259682Y-6689246D02*
X9250158Y-6641627D01*
X9250158Y-6641627D02*
X9240634Y-6613055D01*
X9240634Y-6613055D02*
X9231111Y-6594008D01*
X9231111Y-6594008D02*
X9212063Y-6565436D01*
X9212063Y-6565436D02*
X9202539Y-6555912D01*
D11*
X4187470Y-7006530D02*
X4237000Y-6957000D01*
X4187470Y-6907470D01*
X4137940Y-6957000D01*
X4187470Y-7006530D01*
D10*
X4535872Y-6848484D02*
X4554920Y-6848484D01*
X4554920Y-6848484D02*
X4573967Y-6858008D01*
X4573967Y-6858008D02*
X4583491Y-6867531D01*
X4583491Y-6867531D02*
X4593015Y-6886579D01*
X4593015Y-6886579D02*
X4602539Y-6924674D01*
X4602539Y-6924674D02*
X4602539Y-6972293D01*
X4602539Y-6972293D02*
X4593015Y-7010388D01*
X4593015Y-7010388D02*
X4583491Y-7029436D01*
X4583491Y-7029436D02*
X4573967Y-7038960D01*
X4573967Y-7038960D02*
X4554920Y-7048484D01*
X4554920Y-7048484D02*
X4535872Y-7048484D01*
X4535872Y-7048484D02*
X4516824Y-7038960D01*
X4516824Y-7038960D02*
X4507301Y-7029436D01*
X4507301Y-7029436D02*
X4497777Y-7010388D01*
X4497777Y-7010388D02*
X4488253Y-6972293D01*
X4488253Y-6972293D02*
X4488253Y-6924674D01*
X4488253Y-6924674D02*
X4497777Y-6886579D01*
X4497777Y-6886579D02*
X4507301Y-6867531D01*
X4507301Y-6867531D02*
X4516824Y-6858008D01*
X4516824Y-6858008D02*
X4535872Y-6848484D01*
X4688253Y-7029436D02*
X4697777Y-7038960D01*
X4697777Y-7038960D02*
X4688253Y-7048484D01*
X4688253Y-7048484D02*
X4678729Y-7038960D01*
X4678729Y-7038960D02*
X4688253Y-7029436D01*
X4688253Y-7029436D02*
X4688253Y-7048484D01*
X4793015Y-7048484D02*
X4831110Y-7048484D01*
X4831110Y-7048484D02*
X4850158Y-7038960D01*
X4850158Y-7038960D02*
X4859682Y-7029436D01*
X4859682Y-7029436D02*
X4878729Y-7000865D01*
X4878729Y-7000865D02*
X4888253Y-6962769D01*
X4888253Y-6962769D02*
X4888253Y-6886579D01*
X4888253Y-6886579D02*
X4878729Y-6867531D01*
X4878729Y-6867531D02*
X4869205Y-6858008D01*
X4869205Y-6858008D02*
X4850158Y-6848484D01*
X4850158Y-6848484D02*
X4812063Y-6848484D01*
X4812063Y-6848484D02*
X4793015Y-6858008D01*
X4793015Y-6858008D02*
X4783491Y-6867531D01*
X4783491Y-6867531D02*
X4773967Y-6886579D01*
X4773967Y-6886579D02*
X4773967Y-6934198D01*
X4773967Y-6934198D02*
X4783491Y-6953246D01*
X4783491Y-6953246D02*
X4793015Y-6962769D01*
X4793015Y-6962769D02*
X4812063Y-6972293D01*
X4812063Y-6972293D02*
X4850158Y-6972293D01*
X4850158Y-6972293D02*
X4869205Y-6962769D01*
X4869205Y-6962769D02*
X4878729Y-6953246D01*
X4878729Y-6953246D02*
X4888253Y-6934198D01*
X4983491Y-7048484D02*
X5021586Y-7048484D01*
X5021586Y-7048484D02*
X5040634Y-7038960D01*
X5040634Y-7038960D02*
X5050158Y-7029436D01*
X5050158Y-7029436D02*
X5069205Y-7000865D01*
X5069205Y-7000865D02*
X5078729Y-6962769D01*
X5078729Y-6962769D02*
X5078729Y-6886579D01*
X5078729Y-6886579D02*
X5069205Y-6867531D01*
X5069205Y-6867531D02*
X5059682Y-6858008D01*
X5059682Y-6858008D02*
X5040634Y-6848484D01*
X5040634Y-6848484D02*
X5002539Y-6848484D01*
X5002539Y-6848484D02*
X4983491Y-6858008D01*
X4983491Y-6858008D02*
X4973967Y-6867531D01*
X4973967Y-6867531D02*
X4964444Y-6886579D01*
X4964444Y-6886579D02*
X4964444Y-6934198D01*
X4964444Y-6934198D02*
X4973967Y-6953246D01*
X4973967Y-6953246D02*
X4983491Y-6962769D01*
X4983491Y-6962769D02*
X5002539Y-6972293D01*
X5002539Y-6972293D02*
X5040634Y-6972293D01*
X5040634Y-6972293D02*
X5059682Y-6962769D01*
X5059682Y-6962769D02*
X5069205Y-6953246D01*
X5069205Y-6953246D02*
X5078729Y-6934198D01*
X5269205Y-7048484D02*
X5154920Y-7048484D01*
X5212063Y-7048484D02*
X5212063Y-6848484D01*
X5212063Y-6848484D02*
X5193015Y-6877055D01*
X5193015Y-6877055D02*
X5173967Y-6896103D01*
X5173967Y-6896103D02*
X5154920Y-6905627D01*
X5354920Y-7048484D02*
X5354920Y-6915150D01*
X5354920Y-6934198D02*
X5364444Y-6924674D01*
X5364444Y-6924674D02*
X5383491Y-6915150D01*
X5383491Y-6915150D02*
X5412063Y-6915150D01*
X5412063Y-6915150D02*
X5431110Y-6924674D01*
X5431110Y-6924674D02*
X5440634Y-6943722D01*
X5440634Y-6943722D02*
X5440634Y-7048484D01*
X5440634Y-6943722D02*
X5450158Y-6924674D01*
X5450158Y-6924674D02*
X5469205Y-6915150D01*
X5469205Y-6915150D02*
X5497777Y-6915150D01*
X5497777Y-6915150D02*
X5516825Y-6924674D01*
X5516825Y-6924674D02*
X5526348Y-6943722D01*
X5526348Y-6943722D02*
X5526348Y-7048484D01*
X5621586Y-7048484D02*
X5621586Y-6915150D01*
X5621586Y-6934198D02*
X5631110Y-6924674D01*
X5631110Y-6924674D02*
X5650158Y-6915150D01*
X5650158Y-6915150D02*
X5678729Y-6915150D01*
X5678729Y-6915150D02*
X5697777Y-6924674D01*
X5697777Y-6924674D02*
X5707301Y-6943722D01*
X5707301Y-6943722D02*
X5707301Y-7048484D01*
X5707301Y-6943722D02*
X5716824Y-6924674D01*
X5716824Y-6924674D02*
X5735872Y-6915150D01*
X5735872Y-6915150D02*
X5764443Y-6915150D01*
X5764443Y-6915150D02*
X5783491Y-6924674D01*
X5783491Y-6924674D02*
X5793015Y-6943722D01*
X5793015Y-6943722D02*
X5793015Y-7048484D01*
X6183491Y-6838960D02*
X6012063Y-7096103D01*
X6440634Y-6848484D02*
X6459682Y-6848484D01*
X6459682Y-6848484D02*
X6478729Y-6858008D01*
X6478729Y-6858008D02*
X6488253Y-6867531D01*
X6488253Y-6867531D02*
X6497777Y-6886579D01*
X6497777Y-6886579D02*
X6507301Y-6924674D01*
X6507301Y-6924674D02*
X6507301Y-6972293D01*
X6507301Y-6972293D02*
X6497777Y-7010388D01*
X6497777Y-7010388D02*
X6488253Y-7029436D01*
X6488253Y-7029436D02*
X6478729Y-7038960D01*
X6478729Y-7038960D02*
X6459682Y-7048484D01*
X6459682Y-7048484D02*
X6440634Y-7048484D01*
X6440634Y-7048484D02*
X6421586Y-7038960D01*
X6421586Y-7038960D02*
X6412063Y-7029436D01*
X6412063Y-7029436D02*
X6402539Y-7010388D01*
X6402539Y-7010388D02*
X6393015Y-6972293D01*
X6393015Y-6972293D02*
X6393015Y-6924674D01*
X6393015Y-6924674D02*
X6402539Y-6886579D01*
X6402539Y-6886579D02*
X6412063Y-6867531D01*
X6412063Y-6867531D02*
X6421586Y-6858008D01*
X6421586Y-6858008D02*
X6440634Y-6848484D01*
X6593015Y-7029436D02*
X6602539Y-7038960D01*
X6602539Y-7038960D02*
X6593015Y-7048484D01*
X6593015Y-7048484D02*
X6583491Y-7038960D01*
X6583491Y-7038960D02*
X6593015Y-7029436D01*
X6593015Y-7029436D02*
X6593015Y-7048484D01*
X6726348Y-6848484D02*
X6745396Y-6848484D01*
X6745396Y-6848484D02*
X6764444Y-6858008D01*
X6764444Y-6858008D02*
X6773967Y-6867531D01*
X6773967Y-6867531D02*
X6783491Y-6886579D01*
X6783491Y-6886579D02*
X6793015Y-6924674D01*
X6793015Y-6924674D02*
X6793015Y-6972293D01*
X6793015Y-6972293D02*
X6783491Y-7010388D01*
X6783491Y-7010388D02*
X6773967Y-7029436D01*
X6773967Y-7029436D02*
X6764444Y-7038960D01*
X6764444Y-7038960D02*
X6745396Y-7048484D01*
X6745396Y-7048484D02*
X6726348Y-7048484D01*
X6726348Y-7048484D02*
X6707301Y-7038960D01*
X6707301Y-7038960D02*
X6697777Y-7029436D01*
X6697777Y-7029436D02*
X6688253Y-7010388D01*
X6688253Y-7010388D02*
X6678729Y-6972293D01*
X6678729Y-6972293D02*
X6678729Y-6924674D01*
X6678729Y-6924674D02*
X6688253Y-6886579D01*
X6688253Y-6886579D02*
X6697777Y-6867531D01*
X6697777Y-6867531D02*
X6707301Y-6858008D01*
X6707301Y-6858008D02*
X6726348Y-6848484D01*
X6859682Y-6848484D02*
X6983491Y-6848484D01*
X6983491Y-6848484D02*
X6916825Y-6924674D01*
X6916825Y-6924674D02*
X6945396Y-6924674D01*
X6945396Y-6924674D02*
X6964444Y-6934198D01*
X6964444Y-6934198D02*
X6973967Y-6943722D01*
X6973967Y-6943722D02*
X6983491Y-6962769D01*
X6983491Y-6962769D02*
X6983491Y-7010388D01*
X6983491Y-7010388D02*
X6973967Y-7029436D01*
X6973967Y-7029436D02*
X6964444Y-7038960D01*
X6964444Y-7038960D02*
X6945396Y-7048484D01*
X6945396Y-7048484D02*
X6888253Y-7048484D01*
X6888253Y-7048484D02*
X6869206Y-7038960D01*
X6869206Y-7038960D02*
X6859682Y-7029436D01*
X7078729Y-7048484D02*
X7116825Y-7048484D01*
X7116825Y-7048484D02*
X7135872Y-7038960D01*
X7135872Y-7038960D02*
X7145396Y-7029436D01*
X7145396Y-7029436D02*
X7164444Y-7000865D01*
X7164444Y-7000865D02*
X7173967Y-6962769D01*
X7173967Y-6962769D02*
X7173967Y-6886579D01*
X7173967Y-6886579D02*
X7164444Y-6867531D01*
X7164444Y-6867531D02*
X7154920Y-6858008D01*
X7154920Y-6858008D02*
X7135872Y-6848484D01*
X7135872Y-6848484D02*
X7097777Y-6848484D01*
X7097777Y-6848484D02*
X7078729Y-6858008D01*
X7078729Y-6858008D02*
X7069206Y-6867531D01*
X7069206Y-6867531D02*
X7059682Y-6886579D01*
X7059682Y-6886579D02*
X7059682Y-6934198D01*
X7059682Y-6934198D02*
X7069206Y-6953246D01*
X7069206Y-6953246D02*
X7078729Y-6962769D01*
X7078729Y-6962769D02*
X7097777Y-6972293D01*
X7097777Y-6972293D02*
X7135872Y-6972293D01*
X7135872Y-6972293D02*
X7154920Y-6962769D01*
X7154920Y-6962769D02*
X7164444Y-6953246D01*
X7164444Y-6953246D02*
X7173967Y-6934198D01*
X7297777Y-6848484D02*
X7316825Y-6848484D01*
X7316825Y-6848484D02*
X7335872Y-6858008D01*
X7335872Y-6858008D02*
X7345396Y-6867531D01*
X7345396Y-6867531D02*
X7354920Y-6886579D01*
X7354920Y-6886579D02*
X7364444Y-6924674D01*
X7364444Y-6924674D02*
X7364444Y-6972293D01*
X7364444Y-6972293D02*
X7354920Y-7010388D01*
X7354920Y-7010388D02*
X7345396Y-7029436D01*
X7345396Y-7029436D02*
X7335872Y-7038960D01*
X7335872Y-7038960D02*
X7316825Y-7048484D01*
X7316825Y-7048484D02*
X7297777Y-7048484D01*
X7297777Y-7048484D02*
X7278729Y-7038960D01*
X7278729Y-7038960D02*
X7269206Y-7029436D01*
X7269206Y-7029436D02*
X7259682Y-7010388D01*
X7259682Y-7010388D02*
X7250158Y-6972293D01*
X7250158Y-6972293D02*
X7250158Y-6924674D01*
X7250158Y-6924674D02*
X7259682Y-6886579D01*
X7259682Y-6886579D02*
X7269206Y-6867531D01*
X7269206Y-6867531D02*
X7278729Y-6858008D01*
X7278729Y-6858008D02*
X7297777Y-6848484D01*
X7440634Y-6848484D02*
X7440634Y-6886579D01*
X7516825Y-6848484D02*
X7516825Y-6886579D01*
X7812063Y-7124674D02*
X7802539Y-7115150D01*
X7802539Y-7115150D02*
X7783491Y-7086579D01*
X7783491Y-7086579D02*
X7773968Y-7067531D01*
X7773968Y-7067531D02*
X7764444Y-7038960D01*
X7764444Y-7038960D02*
X7754920Y-6991341D01*
X7754920Y-6991341D02*
X7754920Y-6953246D01*
X7754920Y-6953246D02*
X7764444Y-6905627D01*
X7764444Y-6905627D02*
X7773968Y-6877055D01*
X7773968Y-6877055D02*
X7783491Y-6858008D01*
X7783491Y-6858008D02*
X7802539Y-6829436D01*
X7802539Y-6829436D02*
X7812063Y-6819912D01*
X7869206Y-6848484D02*
X7993015Y-6848484D01*
X7993015Y-6848484D02*
X7926348Y-6924674D01*
X7926348Y-6924674D02*
X7954920Y-6924674D01*
X7954920Y-6924674D02*
X7973968Y-6934198D01*
X7973968Y-6934198D02*
X7983491Y-6943722D01*
X7983491Y-6943722D02*
X7993015Y-6962769D01*
X7993015Y-6962769D02*
X7993015Y-7010388D01*
X7993015Y-7010388D02*
X7983491Y-7029436D01*
X7983491Y-7029436D02*
X7973968Y-7038960D01*
X7973968Y-7038960D02*
X7954920Y-7048484D01*
X7954920Y-7048484D02*
X7897777Y-7048484D01*
X7897777Y-7048484D02*
X7878729Y-7038960D01*
X7878729Y-7038960D02*
X7869206Y-7029436D01*
X8231110Y-7048484D02*
X8231110Y-6848484D01*
X8316825Y-7048484D02*
X8316825Y-6943722D01*
X8316825Y-6943722D02*
X8307301Y-6924674D01*
X8307301Y-6924674D02*
X8288253Y-6915150D01*
X8288253Y-6915150D02*
X8259682Y-6915150D01*
X8259682Y-6915150D02*
X8240634Y-6924674D01*
X8240634Y-6924674D02*
X8231110Y-6934198D01*
X8440634Y-7048484D02*
X8421587Y-7038960D01*
X8421587Y-7038960D02*
X8412063Y-7029436D01*
X8412063Y-7029436D02*
X8402539Y-7010388D01*
X8402539Y-7010388D02*
X8402539Y-6953246D01*
X8402539Y-6953246D02*
X8412063Y-6934198D01*
X8412063Y-6934198D02*
X8421587Y-6924674D01*
X8421587Y-6924674D02*
X8440634Y-6915150D01*
X8440634Y-6915150D02*
X8469206Y-6915150D01*
X8469206Y-6915150D02*
X8488253Y-6924674D01*
X8488253Y-6924674D02*
X8497777Y-6934198D01*
X8497777Y-6934198D02*
X8507301Y-6953246D01*
X8507301Y-6953246D02*
X8507301Y-7010388D01*
X8507301Y-7010388D02*
X8497777Y-7029436D01*
X8497777Y-7029436D02*
X8488253Y-7038960D01*
X8488253Y-7038960D02*
X8469206Y-7048484D01*
X8469206Y-7048484D02*
X8440634Y-7048484D01*
X8621587Y-7048484D02*
X8602539Y-7038960D01*
X8602539Y-7038960D02*
X8593015Y-7019912D01*
X8593015Y-7019912D02*
X8593015Y-6848484D01*
X8773968Y-7038960D02*
X8754920Y-7048484D01*
X8754920Y-7048484D02*
X8716825Y-7048484D01*
X8716825Y-7048484D02*
X8697777Y-7038960D01*
X8697777Y-7038960D02*
X8688253Y-7019912D01*
X8688253Y-7019912D02*
X8688253Y-6943722D01*
X8688253Y-6943722D02*
X8697777Y-6924674D01*
X8697777Y-6924674D02*
X8716825Y-6915150D01*
X8716825Y-6915150D02*
X8754920Y-6915150D01*
X8754920Y-6915150D02*
X8773968Y-6924674D01*
X8773968Y-6924674D02*
X8783492Y-6943722D01*
X8783492Y-6943722D02*
X8783492Y-6962769D01*
X8783492Y-6962769D02*
X8688253Y-6981817D01*
X8859682Y-7038960D02*
X8878730Y-7048484D01*
X8878730Y-7048484D02*
X8916825Y-7048484D01*
X8916825Y-7048484D02*
X8935873Y-7038960D01*
X8935873Y-7038960D02*
X8945396Y-7019912D01*
X8945396Y-7019912D02*
X8945396Y-7010388D01*
X8945396Y-7010388D02*
X8935873Y-6991341D01*
X8935873Y-6991341D02*
X8916825Y-6981817D01*
X8916825Y-6981817D02*
X8888253Y-6981817D01*
X8888253Y-6981817D02*
X8869206Y-6972293D01*
X8869206Y-6972293D02*
X8859682Y-6953246D01*
X8859682Y-6953246D02*
X8859682Y-6943722D01*
X8859682Y-6943722D02*
X8869206Y-6924674D01*
X8869206Y-6924674D02*
X8888253Y-6915150D01*
X8888253Y-6915150D02*
X8916825Y-6915150D01*
X8916825Y-6915150D02*
X8935873Y-6924674D01*
X9012063Y-7124674D02*
X9021587Y-7115150D01*
X9021587Y-7115150D02*
X9040634Y-7086579D01*
X9040634Y-7086579D02*
X9050158Y-7067531D01*
X9050158Y-7067531D02*
X9059682Y-7038960D01*
X9059682Y-7038960D02*
X9069206Y-6991341D01*
X9069206Y-6991341D02*
X9069206Y-6953246D01*
X9069206Y-6953246D02*
X9059682Y-6905627D01*
X9059682Y-6905627D02*
X9050158Y-6877055D01*
X9050158Y-6877055D02*
X9040634Y-6858008D01*
X9040634Y-6858008D02*
X9021587Y-6829436D01*
X9021587Y-6829436D02*
X9012063Y-6819912D01*
D12*
X4117000Y-7161000D02*
X4237000Y-7281000D01*
X4237000Y-7161000D02*
X4117000Y-7281000D01*
X4237000Y-7221000D02*
G75*
G03*
X4117000Y-7221000I-60000J0D01*
G01*
X4117000Y-7221000D02*
G75*
G03*
X4237000Y-7221000I60000J0D01*
G01*
D10*
X4602539Y-7312484D02*
X4488253Y-7312484D01*
X4545396Y-7312484D02*
X4545396Y-7112484D01*
X4545396Y-7112484D02*
X4526348Y-7141055D01*
X4526348Y-7141055D02*
X4507301Y-7160103D01*
X4507301Y-7160103D02*
X4488253Y-7169627D01*
X4688253Y-7293436D02*
X4697777Y-7302960D01*
X4697777Y-7302960D02*
X4688253Y-7312484D01*
X4688253Y-7312484D02*
X4678729Y-7302960D01*
X4678729Y-7302960D02*
X4688253Y-7293436D01*
X4688253Y-7293436D02*
X4688253Y-7312484D01*
X4773967Y-7131531D02*
X4783491Y-7122008D01*
X4783491Y-7122008D02*
X4802539Y-7112484D01*
X4802539Y-7112484D02*
X4850158Y-7112484D01*
X4850158Y-7112484D02*
X4869205Y-7122008D01*
X4869205Y-7122008D02*
X4878729Y-7131531D01*
X4878729Y-7131531D02*
X4888253Y-7150579D01*
X4888253Y-7150579D02*
X4888253Y-7169627D01*
X4888253Y-7169627D02*
X4878729Y-7198198D01*
X4878729Y-7198198D02*
X4764444Y-7312484D01*
X4764444Y-7312484D02*
X4888253Y-7312484D01*
X5012063Y-7112484D02*
X5031110Y-7112484D01*
X5031110Y-7112484D02*
X5050158Y-7122008D01*
X5050158Y-7122008D02*
X5059682Y-7131531D01*
X5059682Y-7131531D02*
X5069205Y-7150579D01*
X5069205Y-7150579D02*
X5078729Y-7188674D01*
X5078729Y-7188674D02*
X5078729Y-7236293D01*
X5078729Y-7236293D02*
X5069205Y-7274388D01*
X5069205Y-7274388D02*
X5059682Y-7293436D01*
X5059682Y-7293436D02*
X5050158Y-7302960D01*
X5050158Y-7302960D02*
X5031110Y-7312484D01*
X5031110Y-7312484D02*
X5012063Y-7312484D01*
X5012063Y-7312484D02*
X4993015Y-7302960D01*
X4993015Y-7302960D02*
X4983491Y-7293436D01*
X4983491Y-7293436D02*
X4973967Y-7274388D01*
X4973967Y-7274388D02*
X4964444Y-7236293D01*
X4964444Y-7236293D02*
X4964444Y-7188674D01*
X4964444Y-7188674D02*
X4973967Y-7150579D01*
X4973967Y-7150579D02*
X4983491Y-7131531D01*
X4983491Y-7131531D02*
X4993015Y-7122008D01*
X4993015Y-7122008D02*
X5012063Y-7112484D01*
X5202539Y-7112484D02*
X5221586Y-7112484D01*
X5221586Y-7112484D02*
X5240634Y-7122008D01*
X5240634Y-7122008D02*
X5250158Y-7131531D01*
X5250158Y-7131531D02*
X5259682Y-7150579D01*
X5259682Y-7150579D02*
X5269205Y-7188674D01*
X5269205Y-7188674D02*
X5269205Y-7236293D01*
X5269205Y-7236293D02*
X5259682Y-7274388D01*
X5259682Y-7274388D02*
X5250158Y-7293436D01*
X5250158Y-7293436D02*
X5240634Y-7302960D01*
X5240634Y-7302960D02*
X5221586Y-7312484D01*
X5221586Y-7312484D02*
X5202539Y-7312484D01*
X5202539Y-7312484D02*
X5183491Y-7302960D01*
X5183491Y-7302960D02*
X5173967Y-7293436D01*
X5173967Y-7293436D02*
X5164444Y-7274388D01*
X5164444Y-7274388D02*
X5154920Y-7236293D01*
X5154920Y-7236293D02*
X5154920Y-7188674D01*
X5154920Y-7188674D02*
X5164444Y-7150579D01*
X5164444Y-7150579D02*
X5173967Y-7131531D01*
X5173967Y-7131531D02*
X5183491Y-7122008D01*
X5183491Y-7122008D02*
X5202539Y-7112484D01*
X5354920Y-7312484D02*
X5354920Y-7179150D01*
X5354920Y-7198198D02*
X5364444Y-7188674D01*
X5364444Y-7188674D02*
X5383491Y-7179150D01*
X5383491Y-7179150D02*
X5412063Y-7179150D01*
X5412063Y-7179150D02*
X5431110Y-7188674D01*
X5431110Y-7188674D02*
X5440634Y-7207722D01*
X5440634Y-7207722D02*
X5440634Y-7312484D01*
X5440634Y-7207722D02*
X5450158Y-7188674D01*
X5450158Y-7188674D02*
X5469205Y-7179150D01*
X5469205Y-7179150D02*
X5497777Y-7179150D01*
X5497777Y-7179150D02*
X5516825Y-7188674D01*
X5516825Y-7188674D02*
X5526348Y-7207722D01*
X5526348Y-7207722D02*
X5526348Y-7312484D01*
X5621586Y-7312484D02*
X5621586Y-7179150D01*
X5621586Y-7198198D02*
X5631110Y-7188674D01*
X5631110Y-7188674D02*
X5650158Y-7179150D01*
X5650158Y-7179150D02*
X5678729Y-7179150D01*
X5678729Y-7179150D02*
X5697777Y-7188674D01*
X5697777Y-7188674D02*
X5707301Y-7207722D01*
X5707301Y-7207722D02*
X5707301Y-7312484D01*
X5707301Y-7207722D02*
X5716824Y-7188674D01*
X5716824Y-7188674D02*
X5735872Y-7179150D01*
X5735872Y-7179150D02*
X5764443Y-7179150D01*
X5764443Y-7179150D02*
X5783491Y-7188674D01*
X5783491Y-7188674D02*
X5793015Y-7207722D01*
X5793015Y-7207722D02*
X5793015Y-7312484D01*
X6183491Y-7102960D02*
X6012063Y-7360103D01*
X6440634Y-7112484D02*
X6459682Y-7112484D01*
X6459682Y-7112484D02*
X6478729Y-7122008D01*
X6478729Y-7122008D02*
X6488253Y-7131531D01*
X6488253Y-7131531D02*
X6497777Y-7150579D01*
X6497777Y-7150579D02*
X6507301Y-7188674D01*
X6507301Y-7188674D02*
X6507301Y-7236293D01*
X6507301Y-7236293D02*
X6497777Y-7274388D01*
X6497777Y-7274388D02*
X6488253Y-7293436D01*
X6488253Y-7293436D02*
X6478729Y-7302960D01*
X6478729Y-7302960D02*
X6459682Y-7312484D01*
X6459682Y-7312484D02*
X6440634Y-7312484D01*
X6440634Y-7312484D02*
X6421586Y-7302960D01*
X6421586Y-7302960D02*
X6412063Y-7293436D01*
X6412063Y-7293436D02*
X6402539Y-7274388D01*
X6402539Y-7274388D02*
X6393015Y-7236293D01*
X6393015Y-7236293D02*
X6393015Y-7188674D01*
X6393015Y-7188674D02*
X6402539Y-7150579D01*
X6402539Y-7150579D02*
X6412063Y-7131531D01*
X6412063Y-7131531D02*
X6421586Y-7122008D01*
X6421586Y-7122008D02*
X6440634Y-7112484D01*
X6593015Y-7293436D02*
X6602539Y-7302960D01*
X6602539Y-7302960D02*
X6593015Y-7312484D01*
X6593015Y-7312484D02*
X6583491Y-7302960D01*
X6583491Y-7302960D02*
X6593015Y-7293436D01*
X6593015Y-7293436D02*
X6593015Y-7312484D01*
X6726348Y-7112484D02*
X6745396Y-7112484D01*
X6745396Y-7112484D02*
X6764444Y-7122008D01*
X6764444Y-7122008D02*
X6773967Y-7131531D01*
X6773967Y-7131531D02*
X6783491Y-7150579D01*
X6783491Y-7150579D02*
X6793015Y-7188674D01*
X6793015Y-7188674D02*
X6793015Y-7236293D01*
X6793015Y-7236293D02*
X6783491Y-7274388D01*
X6783491Y-7274388D02*
X6773967Y-7293436D01*
X6773967Y-7293436D02*
X6764444Y-7302960D01*
X6764444Y-7302960D02*
X6745396Y-7312484D01*
X6745396Y-7312484D02*
X6726348Y-7312484D01*
X6726348Y-7312484D02*
X6707301Y-7302960D01*
X6707301Y-7302960D02*
X6697777Y-7293436D01*
X6697777Y-7293436D02*
X6688253Y-7274388D01*
X6688253Y-7274388D02*
X6678729Y-7236293D01*
X6678729Y-7236293D02*
X6678729Y-7188674D01*
X6678729Y-7188674D02*
X6688253Y-7150579D01*
X6688253Y-7150579D02*
X6697777Y-7131531D01*
X6697777Y-7131531D02*
X6707301Y-7122008D01*
X6707301Y-7122008D02*
X6726348Y-7112484D01*
X6964444Y-7179150D02*
X6964444Y-7312484D01*
X6916825Y-7102960D02*
X6869206Y-7245817D01*
X6869206Y-7245817D02*
X6993015Y-7245817D01*
X7050158Y-7112484D02*
X7183491Y-7112484D01*
X7183491Y-7112484D02*
X7097777Y-7312484D01*
X7250158Y-7131531D02*
X7259682Y-7122008D01*
X7259682Y-7122008D02*
X7278729Y-7112484D01*
X7278729Y-7112484D02*
X7326348Y-7112484D01*
X7326348Y-7112484D02*
X7345396Y-7122008D01*
X7345396Y-7122008D02*
X7354920Y-7131531D01*
X7354920Y-7131531D02*
X7364444Y-7150579D01*
X7364444Y-7150579D02*
X7364444Y-7169627D01*
X7364444Y-7169627D02*
X7354920Y-7198198D01*
X7354920Y-7198198D02*
X7240634Y-7312484D01*
X7240634Y-7312484D02*
X7364444Y-7312484D01*
X7440634Y-7112484D02*
X7440634Y-7150579D01*
X7516825Y-7112484D02*
X7516825Y-7150579D01*
X7812063Y-7388674D02*
X7802539Y-7379150D01*
X7802539Y-7379150D02*
X7783491Y-7350579D01*
X7783491Y-7350579D02*
X7773968Y-7331531D01*
X7773968Y-7331531D02*
X7764444Y-7302960D01*
X7764444Y-7302960D02*
X7754920Y-7255341D01*
X7754920Y-7255341D02*
X7754920Y-7217246D01*
X7754920Y-7217246D02*
X7764444Y-7169627D01*
X7764444Y-7169627D02*
X7773968Y-7141055D01*
X7773968Y-7141055D02*
X7783491Y-7122008D01*
X7783491Y-7122008D02*
X7802539Y-7093436D01*
X7802539Y-7093436D02*
X7812063Y-7083912D01*
X7869206Y-7112484D02*
X7993015Y-7112484D01*
X7993015Y-7112484D02*
X7926348Y-7188674D01*
X7926348Y-7188674D02*
X7954920Y-7188674D01*
X7954920Y-7188674D02*
X7973968Y-7198198D01*
X7973968Y-7198198D02*
X7983491Y-7207722D01*
X7983491Y-7207722D02*
X7993015Y-7226769D01*
X7993015Y-7226769D02*
X7993015Y-7274388D01*
X7993015Y-7274388D02*
X7983491Y-7293436D01*
X7983491Y-7293436D02*
X7973968Y-7302960D01*
X7973968Y-7302960D02*
X7954920Y-7312484D01*
X7954920Y-7312484D02*
X7897777Y-7312484D01*
X7897777Y-7312484D02*
X7878729Y-7302960D01*
X7878729Y-7302960D02*
X7869206Y-7293436D01*
X8231110Y-7312484D02*
X8231110Y-7112484D01*
X8316825Y-7312484D02*
X8316825Y-7207722D01*
X8316825Y-7207722D02*
X8307301Y-7188674D01*
X8307301Y-7188674D02*
X8288253Y-7179150D01*
X8288253Y-7179150D02*
X8259682Y-7179150D01*
X8259682Y-7179150D02*
X8240634Y-7188674D01*
X8240634Y-7188674D02*
X8231110Y-7198198D01*
X8440634Y-7312484D02*
X8421587Y-7302960D01*
X8421587Y-7302960D02*
X8412063Y-7293436D01*
X8412063Y-7293436D02*
X8402539Y-7274388D01*
X8402539Y-7274388D02*
X8402539Y-7217246D01*
X8402539Y-7217246D02*
X8412063Y-7198198D01*
X8412063Y-7198198D02*
X8421587Y-7188674D01*
X8421587Y-7188674D02*
X8440634Y-7179150D01*
X8440634Y-7179150D02*
X8469206Y-7179150D01*
X8469206Y-7179150D02*
X8488253Y-7188674D01*
X8488253Y-7188674D02*
X8497777Y-7198198D01*
X8497777Y-7198198D02*
X8507301Y-7217246D01*
X8507301Y-7217246D02*
X8507301Y-7274388D01*
X8507301Y-7274388D02*
X8497777Y-7293436D01*
X8497777Y-7293436D02*
X8488253Y-7302960D01*
X8488253Y-7302960D02*
X8469206Y-7312484D01*
X8469206Y-7312484D02*
X8440634Y-7312484D01*
X8621587Y-7312484D02*
X8602539Y-7302960D01*
X8602539Y-7302960D02*
X8593015Y-7283912D01*
X8593015Y-7283912D02*
X8593015Y-7112484D01*
X8773968Y-7302960D02*
X8754920Y-7312484D01*
X8754920Y-7312484D02*
X8716825Y-7312484D01*
X8716825Y-7312484D02*
X8697777Y-7302960D01*
X8697777Y-7302960D02*
X8688253Y-7283912D01*
X8688253Y-7283912D02*
X8688253Y-7207722D01*
X8688253Y-7207722D02*
X8697777Y-7188674D01*
X8697777Y-7188674D02*
X8716825Y-7179150D01*
X8716825Y-7179150D02*
X8754920Y-7179150D01*
X8754920Y-7179150D02*
X8773968Y-7188674D01*
X8773968Y-7188674D02*
X8783492Y-7207722D01*
X8783492Y-7207722D02*
X8783492Y-7226769D01*
X8783492Y-7226769D02*
X8688253Y-7245817D01*
X8859682Y-7302960D02*
X8878730Y-7312484D01*
X8878730Y-7312484D02*
X8916825Y-7312484D01*
X8916825Y-7312484D02*
X8935873Y-7302960D01*
X8935873Y-7302960D02*
X8945396Y-7283912D01*
X8945396Y-7283912D02*
X8945396Y-7274388D01*
X8945396Y-7274388D02*
X8935873Y-7255341D01*
X8935873Y-7255341D02*
X8916825Y-7245817D01*
X8916825Y-7245817D02*
X8888253Y-7245817D01*
X8888253Y-7245817D02*
X8869206Y-7236293D01*
X8869206Y-7236293D02*
X8859682Y-7217246D01*
X8859682Y-7217246D02*
X8859682Y-7207722D01*
X8859682Y-7207722D02*
X8869206Y-7188674D01*
X8869206Y-7188674D02*
X8888253Y-7179150D01*
X8888253Y-7179150D02*
X8916825Y-7179150D01*
X8916825Y-7179150D02*
X8935873Y-7188674D01*
X9012063Y-7388674D02*
X9021587Y-7379150D01*
X9021587Y-7379150D02*
X9040634Y-7350579D01*
X9040634Y-7350579D02*
X9050158Y-7331531D01*
X9050158Y-7331531D02*
X9059682Y-7302960D01*
X9059682Y-7302960D02*
X9069206Y-7255341D01*
X9069206Y-7255341D02*
X9069206Y-7217246D01*
X9069206Y-7217246D02*
X9059682Y-7169627D01*
X9059682Y-7169627D02*
X9050158Y-7141055D01*
X9050158Y-7141055D02*
X9040634Y-7122008D01*
X9040634Y-7122008D02*
X9021587Y-7093436D01*
X9021587Y-7093436D02*
X9012063Y-7083912D01*
D13*
X4107000Y-7420000D02*
X4237000Y-7550000D01*
X4237000Y-7420000D02*
X4107000Y-7550000D01*
X4172000Y-7420000D02*
X4172000Y-7550000D01*
X4107000Y-7485000D02*
X4237000Y-7485000D01*
D10*
X4602539Y-7576484D02*
X4488253Y-7576484D01*
X4545396Y-7576484D02*
X4545396Y-7376484D01*
X4545396Y-7376484D02*
X4526348Y-7405055D01*
X4526348Y-7405055D02*
X4507301Y-7424103D01*
X4507301Y-7424103D02*
X4488253Y-7433627D01*
X4688253Y-7557436D02*
X4697777Y-7566960D01*
X4697777Y-7566960D02*
X4688253Y-7576484D01*
X4688253Y-7576484D02*
X4678729Y-7566960D01*
X4678729Y-7566960D02*
X4688253Y-7557436D01*
X4688253Y-7557436D02*
X4688253Y-7576484D01*
X4764444Y-7376484D02*
X4888253Y-7376484D01*
X4888253Y-7376484D02*
X4821586Y-7452674D01*
X4821586Y-7452674D02*
X4850158Y-7452674D01*
X4850158Y-7452674D02*
X4869205Y-7462198D01*
X4869205Y-7462198D02*
X4878729Y-7471722D01*
X4878729Y-7471722D02*
X4888253Y-7490769D01*
X4888253Y-7490769D02*
X4888253Y-7538388D01*
X4888253Y-7538388D02*
X4878729Y-7557436D01*
X4878729Y-7557436D02*
X4869205Y-7566960D01*
X4869205Y-7566960D02*
X4850158Y-7576484D01*
X4850158Y-7576484D02*
X4793015Y-7576484D01*
X4793015Y-7576484D02*
X4773967Y-7566960D01*
X4773967Y-7566960D02*
X4764444Y-7557436D01*
X5012063Y-7376484D02*
X5031110Y-7376484D01*
X5031110Y-7376484D02*
X5050158Y-7386008D01*
X5050158Y-7386008D02*
X5059682Y-7395531D01*
X5059682Y-7395531D02*
X5069205Y-7414579D01*
X5069205Y-7414579D02*
X5078729Y-7452674D01*
X5078729Y-7452674D02*
X5078729Y-7500293D01*
X5078729Y-7500293D02*
X5069205Y-7538388D01*
X5069205Y-7538388D02*
X5059682Y-7557436D01*
X5059682Y-7557436D02*
X5050158Y-7566960D01*
X5050158Y-7566960D02*
X5031110Y-7576484D01*
X5031110Y-7576484D02*
X5012063Y-7576484D01*
X5012063Y-7576484D02*
X4993015Y-7566960D01*
X4993015Y-7566960D02*
X4983491Y-7557436D01*
X4983491Y-7557436D02*
X4973967Y-7538388D01*
X4973967Y-7538388D02*
X4964444Y-7500293D01*
X4964444Y-7500293D02*
X4964444Y-7452674D01*
X4964444Y-7452674D02*
X4973967Y-7414579D01*
X4973967Y-7414579D02*
X4983491Y-7395531D01*
X4983491Y-7395531D02*
X4993015Y-7386008D01*
X4993015Y-7386008D02*
X5012063Y-7376484D01*
X5202539Y-7376484D02*
X5221586Y-7376484D01*
X5221586Y-7376484D02*
X5240634Y-7386008D01*
X5240634Y-7386008D02*
X5250158Y-7395531D01*
X5250158Y-7395531D02*
X5259682Y-7414579D01*
X5259682Y-7414579D02*
X5269205Y-7452674D01*
X5269205Y-7452674D02*
X5269205Y-7500293D01*
X5269205Y-7500293D02*
X5259682Y-7538388D01*
X5259682Y-7538388D02*
X5250158Y-7557436D01*
X5250158Y-7557436D02*
X5240634Y-7566960D01*
X5240634Y-7566960D02*
X5221586Y-7576484D01*
X5221586Y-7576484D02*
X5202539Y-7576484D01*
X5202539Y-7576484D02*
X5183491Y-7566960D01*
X5183491Y-7566960D02*
X5173967Y-7557436D01*
X5173967Y-7557436D02*
X5164444Y-7538388D01*
X5164444Y-7538388D02*
X5154920Y-7500293D01*
X5154920Y-7500293D02*
X5154920Y-7452674D01*
X5154920Y-7452674D02*
X5164444Y-7414579D01*
X5164444Y-7414579D02*
X5173967Y-7395531D01*
X5173967Y-7395531D02*
X5183491Y-7386008D01*
X5183491Y-7386008D02*
X5202539Y-7376484D01*
X5354920Y-7576484D02*
X5354920Y-7443150D01*
X5354920Y-7462198D02*
X5364444Y-7452674D01*
X5364444Y-7452674D02*
X5383491Y-7443150D01*
X5383491Y-7443150D02*
X5412063Y-7443150D01*
X5412063Y-7443150D02*
X5431110Y-7452674D01*
X5431110Y-7452674D02*
X5440634Y-7471722D01*
X5440634Y-7471722D02*
X5440634Y-7576484D01*
X5440634Y-7471722D02*
X5450158Y-7452674D01*
X5450158Y-7452674D02*
X5469205Y-7443150D01*
X5469205Y-7443150D02*
X5497777Y-7443150D01*
X5497777Y-7443150D02*
X5516825Y-7452674D01*
X5516825Y-7452674D02*
X5526348Y-7471722D01*
X5526348Y-7471722D02*
X5526348Y-7576484D01*
X5621586Y-7576484D02*
X5621586Y-7443150D01*
X5621586Y-7462198D02*
X5631110Y-7452674D01*
X5631110Y-7452674D02*
X5650158Y-7443150D01*
X5650158Y-7443150D02*
X5678729Y-7443150D01*
X5678729Y-7443150D02*
X5697777Y-7452674D01*
X5697777Y-7452674D02*
X5707301Y-7471722D01*
X5707301Y-7471722D02*
X5707301Y-7576484D01*
X5707301Y-7471722D02*
X5716824Y-7452674D01*
X5716824Y-7452674D02*
X5735872Y-7443150D01*
X5735872Y-7443150D02*
X5764443Y-7443150D01*
X5764443Y-7443150D02*
X5783491Y-7452674D01*
X5783491Y-7452674D02*
X5793015Y-7471722D01*
X5793015Y-7471722D02*
X5793015Y-7576484D01*
X6183491Y-7366960D02*
X6012063Y-7624103D01*
X6440634Y-7376484D02*
X6459682Y-7376484D01*
X6459682Y-7376484D02*
X6478729Y-7386008D01*
X6478729Y-7386008D02*
X6488253Y-7395531D01*
X6488253Y-7395531D02*
X6497777Y-7414579D01*
X6497777Y-7414579D02*
X6507301Y-7452674D01*
X6507301Y-7452674D02*
X6507301Y-7500293D01*
X6507301Y-7500293D02*
X6497777Y-7538388D01*
X6497777Y-7538388D02*
X6488253Y-7557436D01*
X6488253Y-7557436D02*
X6478729Y-7566960D01*
X6478729Y-7566960D02*
X6459682Y-7576484D01*
X6459682Y-7576484D02*
X6440634Y-7576484D01*
X6440634Y-7576484D02*
X6421586Y-7566960D01*
X6421586Y-7566960D02*
X6412063Y-7557436D01*
X6412063Y-7557436D02*
X6402539Y-7538388D01*
X6402539Y-7538388D02*
X6393015Y-7500293D01*
X6393015Y-7500293D02*
X6393015Y-7452674D01*
X6393015Y-7452674D02*
X6402539Y-7414579D01*
X6402539Y-7414579D02*
X6412063Y-7395531D01*
X6412063Y-7395531D02*
X6421586Y-7386008D01*
X6421586Y-7386008D02*
X6440634Y-7376484D01*
X6593015Y-7557436D02*
X6602539Y-7566960D01*
X6602539Y-7566960D02*
X6593015Y-7576484D01*
X6593015Y-7576484D02*
X6583491Y-7566960D01*
X6583491Y-7566960D02*
X6593015Y-7557436D01*
X6593015Y-7557436D02*
X6593015Y-7576484D01*
X6726348Y-7376484D02*
X6745396Y-7376484D01*
X6745396Y-7376484D02*
X6764444Y-7386008D01*
X6764444Y-7386008D02*
X6773967Y-7395531D01*
X6773967Y-7395531D02*
X6783491Y-7414579D01*
X6783491Y-7414579D02*
X6793015Y-7452674D01*
X6793015Y-7452674D02*
X6793015Y-7500293D01*
X6793015Y-7500293D02*
X6783491Y-7538388D01*
X6783491Y-7538388D02*
X6773967Y-7557436D01*
X6773967Y-7557436D02*
X6764444Y-7566960D01*
X6764444Y-7566960D02*
X6745396Y-7576484D01*
X6745396Y-7576484D02*
X6726348Y-7576484D01*
X6726348Y-7576484D02*
X6707301Y-7566960D01*
X6707301Y-7566960D02*
X6697777Y-7557436D01*
X6697777Y-7557436D02*
X6688253Y-7538388D01*
X6688253Y-7538388D02*
X6678729Y-7500293D01*
X6678729Y-7500293D02*
X6678729Y-7452674D01*
X6678729Y-7452674D02*
X6688253Y-7414579D01*
X6688253Y-7414579D02*
X6697777Y-7395531D01*
X6697777Y-7395531D02*
X6707301Y-7386008D01*
X6707301Y-7386008D02*
X6726348Y-7376484D01*
X6973967Y-7376484D02*
X6878729Y-7376484D01*
X6878729Y-7376484D02*
X6869206Y-7471722D01*
X6869206Y-7471722D02*
X6878729Y-7462198D01*
X6878729Y-7462198D02*
X6897777Y-7452674D01*
X6897777Y-7452674D02*
X6945396Y-7452674D01*
X6945396Y-7452674D02*
X6964444Y-7462198D01*
X6964444Y-7462198D02*
X6973967Y-7471722D01*
X6973967Y-7471722D02*
X6983491Y-7490769D01*
X6983491Y-7490769D02*
X6983491Y-7538388D01*
X6983491Y-7538388D02*
X6973967Y-7557436D01*
X6973967Y-7557436D02*
X6964444Y-7566960D01*
X6964444Y-7566960D02*
X6945396Y-7576484D01*
X6945396Y-7576484D02*
X6897777Y-7576484D01*
X6897777Y-7576484D02*
X6878729Y-7566960D01*
X6878729Y-7566960D02*
X6869206Y-7557436D01*
X7173967Y-7576484D02*
X7059682Y-7576484D01*
X7116825Y-7576484D02*
X7116825Y-7376484D01*
X7116825Y-7376484D02*
X7097777Y-7405055D01*
X7097777Y-7405055D02*
X7078729Y-7424103D01*
X7078729Y-7424103D02*
X7059682Y-7433627D01*
X7250158Y-7395531D02*
X7259682Y-7386008D01*
X7259682Y-7386008D02*
X7278729Y-7376484D01*
X7278729Y-7376484D02*
X7326348Y-7376484D01*
X7326348Y-7376484D02*
X7345396Y-7386008D01*
X7345396Y-7386008D02*
X7354920Y-7395531D01*
X7354920Y-7395531D02*
X7364444Y-7414579D01*
X7364444Y-7414579D02*
X7364444Y-7433627D01*
X7364444Y-7433627D02*
X7354920Y-7462198D01*
X7354920Y-7462198D02*
X7240634Y-7576484D01*
X7240634Y-7576484D02*
X7364444Y-7576484D01*
X7440634Y-7376484D02*
X7440634Y-7414579D01*
X7516825Y-7376484D02*
X7516825Y-7414579D01*
X7812063Y-7652674D02*
X7802539Y-7643150D01*
X7802539Y-7643150D02*
X7783491Y-7614579D01*
X7783491Y-7614579D02*
X7773968Y-7595531D01*
X7773968Y-7595531D02*
X7764444Y-7566960D01*
X7764444Y-7566960D02*
X7754920Y-7519341D01*
X7754920Y-7519341D02*
X7754920Y-7481246D01*
X7754920Y-7481246D02*
X7764444Y-7433627D01*
X7764444Y-7433627D02*
X7773968Y-7405055D01*
X7773968Y-7405055D02*
X7783491Y-7386008D01*
X7783491Y-7386008D02*
X7802539Y-7357436D01*
X7802539Y-7357436D02*
X7812063Y-7347912D01*
X7916825Y-7462198D02*
X7897777Y-7452674D01*
X7897777Y-7452674D02*
X7888253Y-7443150D01*
X7888253Y-7443150D02*
X7878729Y-7424103D01*
X7878729Y-7424103D02*
X7878729Y-7414579D01*
X7878729Y-7414579D02*
X7888253Y-7395531D01*
X7888253Y-7395531D02*
X7897777Y-7386008D01*
X7897777Y-7386008D02*
X7916825Y-7376484D01*
X7916825Y-7376484D02*
X7954920Y-7376484D01*
X7954920Y-7376484D02*
X7973968Y-7386008D01*
X7973968Y-7386008D02*
X7983491Y-7395531D01*
X7983491Y-7395531D02*
X7993015Y-7414579D01*
X7993015Y-7414579D02*
X7993015Y-7424103D01*
X7993015Y-7424103D02*
X7983491Y-7443150D01*
X7983491Y-7443150D02*
X7973968Y-7452674D01*
X7973968Y-7452674D02*
X7954920Y-7462198D01*
X7954920Y-7462198D02*
X7916825Y-7462198D01*
X7916825Y-7462198D02*
X7897777Y-7471722D01*
X7897777Y-7471722D02*
X7888253Y-7481246D01*
X7888253Y-7481246D02*
X7878729Y-7500293D01*
X7878729Y-7500293D02*
X7878729Y-7538388D01*
X7878729Y-7538388D02*
X7888253Y-7557436D01*
X7888253Y-7557436D02*
X7897777Y-7566960D01*
X7897777Y-7566960D02*
X7916825Y-7576484D01*
X7916825Y-7576484D02*
X7954920Y-7576484D01*
X7954920Y-7576484D02*
X7973968Y-7566960D01*
X7973968Y-7566960D02*
X7983491Y-7557436D01*
X7983491Y-7557436D02*
X7993015Y-7538388D01*
X7993015Y-7538388D02*
X7993015Y-7500293D01*
X7993015Y-7500293D02*
X7983491Y-7481246D01*
X7983491Y-7481246D02*
X7973968Y-7471722D01*
X7973968Y-7471722D02*
X7954920Y-7462198D01*
X8231110Y-7576484D02*
X8231110Y-7376484D01*
X8316825Y-7576484D02*
X8316825Y-7471722D01*
X8316825Y-7471722D02*
X8307301Y-7452674D01*
X8307301Y-7452674D02*
X8288253Y-7443150D01*
X8288253Y-7443150D02*
X8259682Y-7443150D01*
X8259682Y-7443150D02*
X8240634Y-7452674D01*
X8240634Y-7452674D02*
X8231110Y-7462198D01*
X8440634Y-7576484D02*
X8421587Y-7566960D01*
X8421587Y-7566960D02*
X8412063Y-7557436D01*
X8412063Y-7557436D02*
X8402539Y-7538388D01*
X8402539Y-7538388D02*
X8402539Y-7481246D01*
X8402539Y-7481246D02*
X8412063Y-7462198D01*
X8412063Y-7462198D02*
X8421587Y-7452674D01*
X8421587Y-7452674D02*
X8440634Y-7443150D01*
X8440634Y-7443150D02*
X8469206Y-7443150D01*
X8469206Y-7443150D02*
X8488253Y-7452674D01*
X8488253Y-7452674D02*
X8497777Y-7462198D01*
X8497777Y-7462198D02*
X8507301Y-7481246D01*
X8507301Y-7481246D02*
X8507301Y-7538388D01*
X8507301Y-7538388D02*
X8497777Y-7557436D01*
X8497777Y-7557436D02*
X8488253Y-7566960D01*
X8488253Y-7566960D02*
X8469206Y-7576484D01*
X8469206Y-7576484D02*
X8440634Y-7576484D01*
X8621587Y-7576484D02*
X8602539Y-7566960D01*
X8602539Y-7566960D02*
X8593015Y-7547912D01*
X8593015Y-7547912D02*
X8593015Y-7376484D01*
X8773968Y-7566960D02*
X8754920Y-7576484D01*
X8754920Y-7576484D02*
X8716825Y-7576484D01*
X8716825Y-7576484D02*
X8697777Y-7566960D01*
X8697777Y-7566960D02*
X8688253Y-7547912D01*
X8688253Y-7547912D02*
X8688253Y-7471722D01*
X8688253Y-7471722D02*
X8697777Y-7452674D01*
X8697777Y-7452674D02*
X8716825Y-7443150D01*
X8716825Y-7443150D02*
X8754920Y-7443150D01*
X8754920Y-7443150D02*
X8773968Y-7452674D01*
X8773968Y-7452674D02*
X8783492Y-7471722D01*
X8783492Y-7471722D02*
X8783492Y-7490769D01*
X8783492Y-7490769D02*
X8688253Y-7509817D01*
X8859682Y-7566960D02*
X8878730Y-7576484D01*
X8878730Y-7576484D02*
X8916825Y-7576484D01*
X8916825Y-7576484D02*
X8935873Y-7566960D01*
X8935873Y-7566960D02*
X8945396Y-7547912D01*
X8945396Y-7547912D02*
X8945396Y-7538388D01*
X8945396Y-7538388D02*
X8935873Y-7519341D01*
X8935873Y-7519341D02*
X8916825Y-7509817D01*
X8916825Y-7509817D02*
X8888253Y-7509817D01*
X8888253Y-7509817D02*
X8869206Y-7500293D01*
X8869206Y-7500293D02*
X8859682Y-7481246D01*
X8859682Y-7481246D02*
X8859682Y-7471722D01*
X8859682Y-7471722D02*
X8869206Y-7452674D01*
X8869206Y-7452674D02*
X8888253Y-7443150D01*
X8888253Y-7443150D02*
X8916825Y-7443150D01*
X8916825Y-7443150D02*
X8935873Y-7452674D01*
X9012063Y-7652674D02*
X9021587Y-7643150D01*
X9021587Y-7643150D02*
X9040634Y-7614579D01*
X9040634Y-7614579D02*
X9050158Y-7595531D01*
X9050158Y-7595531D02*
X9059682Y-7566960D01*
X9059682Y-7566960D02*
X9069206Y-7519341D01*
X9069206Y-7519341D02*
X9069206Y-7481246D01*
X9069206Y-7481246D02*
X9059682Y-7433627D01*
X9059682Y-7433627D02*
X9050158Y-7405055D01*
X9050158Y-7405055D02*
X9040634Y-7386008D01*
X9040634Y-7386008D02*
X9021587Y-7357436D01*
X9021587Y-7357436D02*
X9012063Y-7347912D01*
M02*
