%TF.GenerationSoftware,KiCad,Pcbnew,7.0.11-7.0.11~ubuntu22.04.1*%
%TF.CreationDate,2024-09-26T16:57:13+02:00*%
%TF.ProjectId,BAU-Elec,4241552d-456c-4656-932e-6b696361645f,rev?*%
%TF.SameCoordinates,Original*%
%TF.FileFunction,Soldermask,Bot*%
%TF.FilePolarity,Negative*%
%FSLAX46Y46*%
G04 Gerber Fmt 4.6, Leading zero omitted, Abs format (unit mm)*
G04 Created by KiCad (PCBNEW 7.0.11-7.0.11~ubuntu22.04.1) date 2024-09-26 16:57:13*
%MOMM*%
%LPD*%
G01*
G04 APERTURE LIST*
%ADD10R,1.200000X1.200000*%
%ADD11C,1.200000*%
%ADD12C,1.498600*%
%ADD13C,1.600000*%
%ADD14O,1.600000X1.600000*%
%ADD15R,1.600000X1.600000*%
%ADD16C,2.000000*%
%ADD17R,2.000000X2.000000*%
%ADD18C,1.219200*%
%ADD19R,1.500000X1.500000*%
%ADD20C,1.500000*%
%ADD21R,1.905000X2.000000*%
%ADD22O,1.905000X2.000000*%
%ADD23R,1.050000X1.500000*%
%ADD24O,1.050000X1.500000*%
G04 APERTURE END LIST*
D10*
%TO.C,C2*%
X49770000Y-42260088D03*
D11*
X49770000Y-40260088D03*
%TD*%
D12*
%TO.C,bat_in-out1*%
X73550122Y-42950000D03*
X71050000Y-42950000D03*
X68549878Y-42950000D03*
%TD*%
D13*
%TO.C,R2*%
X85370000Y-17680000D03*
D14*
X77750000Y-17680000D03*
%TD*%
D15*
%TO.C,U2*%
X63750000Y-28940000D03*
D14*
X61210000Y-28940000D03*
X58670000Y-28940000D03*
X56130000Y-28940000D03*
X53590000Y-28940000D03*
X51050000Y-28940000D03*
X48510000Y-28940000D03*
X48510000Y-36560000D03*
X51050000Y-36560000D03*
X53590000Y-36560000D03*
X56130000Y-36560000D03*
X58670000Y-36560000D03*
X61210000Y-36560000D03*
X63750000Y-36560000D03*
%TD*%
D13*
%TO.C,R4*%
X71560000Y-26960000D03*
D14*
X71560000Y-34580000D03*
%TD*%
D15*
%TO.C,C1*%
X62370000Y-42565113D03*
D13*
X62370000Y-40065113D03*
%TD*%
D16*
%TO.C,K1*%
X79632500Y-42032500D03*
X87132500Y-42032500D03*
X79632500Y-37032500D03*
X87132500Y-37032500D03*
X79632500Y-47032500D03*
X87132500Y-47032500D03*
D17*
X79632500Y-22032500D03*
D16*
X87132500Y-22032500D03*
%TD*%
D18*
%TO.C,stop1*%
X65250000Y-24027300D03*
X63250000Y-24027300D03*
X61249999Y-24027300D03*
%TD*%
D19*
%TO.C,L78L10_TO92*%
X59000000Y-47567488D03*
D20*
X56460000Y-47567488D03*
X53920000Y-47567488D03*
%TD*%
D18*
%TO.C,starter1*%
X74140000Y-24027300D03*
X72140000Y-24027300D03*
X70139999Y-24027300D03*
%TD*%
D10*
%TO.C,C4*%
X62630000Y-48990087D03*
D11*
X62630000Y-46990087D03*
%TD*%
D13*
%TO.C,R1*%
X85330000Y-50580000D03*
D14*
X77710000Y-50580000D03*
%TD*%
D21*
%TO.C,P16NF06L1*%
X68430000Y-39250000D03*
D22*
X70970000Y-39250000D03*
X73510000Y-39250000D03*
%TD*%
D15*
%TO.C,NA555P1*%
X56060000Y-17920000D03*
D14*
X53520000Y-17920000D03*
X50980000Y-17920000D03*
X48440000Y-17920000D03*
X48440000Y-25540000D03*
X50980000Y-25540000D03*
X53520000Y-25540000D03*
X56060000Y-25540000D03*
%TD*%
D13*
%TO.C,R3*%
X74840000Y-34600000D03*
D14*
X74840000Y-26980000D03*
%TD*%
D23*
%TO.C,L78L05_TO92*%
X55120000Y-41720001D03*
D24*
X56390000Y-41720001D03*
X57660000Y-41720001D03*
%TD*%
D15*
%TO.C,C3*%
X49760000Y-49102601D03*
D13*
X49760000Y-46602601D03*
%TD*%
%TO.C,R5*%
X68330000Y-26960000D03*
D14*
X68330000Y-34580000D03*
%TD*%
M02*
