%TF.GenerationSoftware,KiCad,Pcbnew,7.0.11-7.0.11~ubuntu22.04.1*%
%TF.CreationDate,2024-09-26T16:57:07+02:00*%
%TF.ProjectId,BAU-Elec,4241552d-456c-4656-932e-6b696361645f,rev?*%
%TF.SameCoordinates,Original*%
%TF.FileFunction,Drillmap*%
%TF.FilePolarity,Positive*%
%FSLAX45Y45*%
G04 Gerber Fmt 4.5, Leading zero omitted, Abs format (unit mm)*
G04 Created by KiCad (PCBNEW 7.0.11-7.0.11~ubuntu22.04.1) date 2024-09-26 16:57:07*
%MOMM*%
%LPD*%
G01*
G04 APERTURE LIST*
%ADD10C,0.200000*%
G04 APERTURE END LIST*
D10*
X4597000Y-5051000D02*
G75*
G03*
X4297000Y-5051000I-150000J0D01*
G01*
X4297000Y-5051000D02*
G75*
G03*
X4597000Y-5051000I150000J0D01*
G01*
X4597000Y-1781000D02*
G75*
G03*
X4297000Y-1781000I-150000J0D01*
G01*
X4297000Y-1781000D02*
G75*
G03*
X4597000Y-1781000I150000J0D01*
G01*
X8969000Y-1781000D02*
G75*
G03*
X8669000Y-1781000I-150000J0D01*
G01*
X8669000Y-1781000D02*
G75*
G03*
X8969000Y-1781000I150000J0D01*
G01*
X8969000Y-5051000D02*
G75*
G03*
X8669000Y-5051000I-150000J0D01*
G01*
X8669000Y-5051000D02*
G75*
G03*
X8969000Y-5051000I150000J0D01*
G01*
X4247000Y-1581000D02*
X9019000Y-1581000D01*
X9019000Y-5251000D01*
X4247000Y-5251000D01*
X4247000Y-1581000D01*
X4497777Y-5572484D02*
X4497777Y-5372484D01*
X4497777Y-5372484D02*
X4545396Y-5372484D01*
X4545396Y-5372484D02*
X4573967Y-5382008D01*
X4573967Y-5382008D02*
X4593015Y-5401055D01*
X4593015Y-5401055D02*
X4602539Y-5420103D01*
X4602539Y-5420103D02*
X4612063Y-5458198D01*
X4612063Y-5458198D02*
X4612063Y-5486770D01*
X4612063Y-5486770D02*
X4602539Y-5524865D01*
X4602539Y-5524865D02*
X4593015Y-5543912D01*
X4593015Y-5543912D02*
X4573967Y-5562960D01*
X4573967Y-5562960D02*
X4545396Y-5572484D01*
X4545396Y-5572484D02*
X4497777Y-5572484D01*
X4697777Y-5572484D02*
X4697777Y-5439150D01*
X4697777Y-5477246D02*
X4707301Y-5458198D01*
X4707301Y-5458198D02*
X4716824Y-5448674D01*
X4716824Y-5448674D02*
X4735872Y-5439150D01*
X4735872Y-5439150D02*
X4754920Y-5439150D01*
X4821586Y-5572484D02*
X4821586Y-5439150D01*
X4821586Y-5372484D02*
X4812063Y-5382008D01*
X4812063Y-5382008D02*
X4821586Y-5391531D01*
X4821586Y-5391531D02*
X4831110Y-5382008D01*
X4831110Y-5382008D02*
X4821586Y-5372484D01*
X4821586Y-5372484D02*
X4821586Y-5391531D01*
X4945396Y-5572484D02*
X4926348Y-5562960D01*
X4926348Y-5562960D02*
X4916824Y-5543912D01*
X4916824Y-5543912D02*
X4916824Y-5372484D01*
X5050158Y-5572484D02*
X5031110Y-5562960D01*
X5031110Y-5562960D02*
X5021586Y-5543912D01*
X5021586Y-5543912D02*
X5021586Y-5372484D01*
X5278729Y-5572484D02*
X5278729Y-5372484D01*
X5278729Y-5372484D02*
X5345396Y-5515341D01*
X5345396Y-5515341D02*
X5412063Y-5372484D01*
X5412063Y-5372484D02*
X5412063Y-5572484D01*
X5593015Y-5572484D02*
X5593015Y-5467722D01*
X5593015Y-5467722D02*
X5583491Y-5448674D01*
X5583491Y-5448674D02*
X5564444Y-5439150D01*
X5564444Y-5439150D02*
X5526348Y-5439150D01*
X5526348Y-5439150D02*
X5507301Y-5448674D01*
X5593015Y-5562960D02*
X5573967Y-5572484D01*
X5573967Y-5572484D02*
X5526348Y-5572484D01*
X5526348Y-5572484D02*
X5507301Y-5562960D01*
X5507301Y-5562960D02*
X5497777Y-5543912D01*
X5497777Y-5543912D02*
X5497777Y-5524865D01*
X5497777Y-5524865D02*
X5507301Y-5505817D01*
X5507301Y-5505817D02*
X5526348Y-5496293D01*
X5526348Y-5496293D02*
X5573967Y-5496293D01*
X5573967Y-5496293D02*
X5593015Y-5486770D01*
X5688253Y-5439150D02*
X5688253Y-5639150D01*
X5688253Y-5448674D02*
X5707301Y-5439150D01*
X5707301Y-5439150D02*
X5745396Y-5439150D01*
X5745396Y-5439150D02*
X5764443Y-5448674D01*
X5764443Y-5448674D02*
X5773967Y-5458198D01*
X5773967Y-5458198D02*
X5783491Y-5477246D01*
X5783491Y-5477246D02*
X5783491Y-5534389D01*
X5783491Y-5534389D02*
X5773967Y-5553436D01*
X5773967Y-5553436D02*
X5764443Y-5562960D01*
X5764443Y-5562960D02*
X5745396Y-5572484D01*
X5745396Y-5572484D02*
X5707301Y-5572484D01*
X5707301Y-5572484D02*
X5688253Y-5562960D01*
X5869205Y-5553436D02*
X5878729Y-5562960D01*
X5878729Y-5562960D02*
X5869205Y-5572484D01*
X5869205Y-5572484D02*
X5859682Y-5562960D01*
X5859682Y-5562960D02*
X5869205Y-5553436D01*
X5869205Y-5553436D02*
X5869205Y-5572484D01*
X5869205Y-5448674D02*
X5878729Y-5458198D01*
X5878729Y-5458198D02*
X5869205Y-5467722D01*
X5869205Y-5467722D02*
X5859682Y-5458198D01*
X5859682Y-5458198D02*
X5869205Y-5448674D01*
X5869205Y-5448674D02*
X5869205Y-5467722D01*
M02*
