%TF.GenerationSoftware,KiCad,Pcbnew,7.0.11-7.0.11~ubuntu22.04.1*%
%TF.CreationDate,2024-09-17T11:44:22+02:00*%
%TF.ProjectId,BAU-Elec,4241552d-456c-4656-932e-6b696361645f,rev?*%
%TF.SameCoordinates,Original*%
%TF.FileFunction,Copper,L2,Bot*%
%TF.FilePolarity,Positive*%
%FSLAX46Y46*%
G04 Gerber Fmt 4.6, Leading zero omitted, Abs format (unit mm)*
G04 Created by KiCad (PCBNEW 7.0.11-7.0.11~ubuntu22.04.1) date 2024-09-17 11:44:22*
%MOMM*%
%LPD*%
G01*
G04 APERTURE LIST*
%TA.AperFunction,ComponentPad*%
%ADD10C,1.498600*%
%TD*%
%TA.AperFunction,ComponentPad*%
%ADD11C,1.219200*%
%TD*%
%TA.AperFunction,ComponentPad*%
%ADD12O,1.600000X1.600000*%
%TD*%
%TA.AperFunction,ComponentPad*%
%ADD13C,1.600000*%
%TD*%
%TA.AperFunction,ComponentPad*%
%ADD14C,1.200000*%
%TD*%
%TA.AperFunction,ComponentPad*%
%ADD15R,1.200000X1.200000*%
%TD*%
%TA.AperFunction,ComponentPad*%
%ADD16R,1.600000X1.600000*%
%TD*%
%TA.AperFunction,ComponentPad*%
%ADD17C,2.000000*%
%TD*%
%TA.AperFunction,ComponentPad*%
%ADD18R,2.000000X2.000000*%
%TD*%
%TA.AperFunction,ComponentPad*%
%ADD19R,1.500000X1.500000*%
%TD*%
%TA.AperFunction,ComponentPad*%
%ADD20C,1.500000*%
%TD*%
%TA.AperFunction,ComponentPad*%
%ADD21R,1.905000X2.000000*%
%TD*%
%TA.AperFunction,ComponentPad*%
%ADD22O,1.905000X2.000000*%
%TD*%
%TA.AperFunction,ComponentPad*%
%ADD23O,1.050000X1.500000*%
%TD*%
%TA.AperFunction,ComponentPad*%
%ADD24R,1.050000X1.500000*%
%TD*%
%TA.AperFunction,Conductor*%
%ADD25C,0.250000*%
%TD*%
%TA.AperFunction,Conductor*%
%ADD26C,1.000000*%
%TD*%
%TA.AperFunction,Conductor*%
%ADD27C,1.500000*%
%TD*%
G04 APERTURE END LIST*
D10*
%TO.P,bat_in-out1,3,3*%
%TO.N,bat_out*%
X68549878Y-42950000D03*
%TO.P,bat_in-out1,2,2*%
%TO.N,bat_in*%
X71050000Y-42950000D03*
%TO.P,bat_in-out1,1,1*%
%TO.N,GND*%
X73550122Y-42950000D03*
%TD*%
D11*
%TO.P,stop1,1,1*%
%TO.N,GND*%
X65250000Y-24027300D03*
%TO.P,stop1,2,2*%
%TO.N,stop_button*%
X63250000Y-24027300D03*
%TO.P,stop1,3,3*%
%TO.N,red_led*%
X61249999Y-24027300D03*
%TD*%
%TO.P,starter1,1,1*%
%TO.N,GND*%
X74140000Y-24027300D03*
%TO.P,starter1,2,2*%
%TO.N,primer_button*%
X72140000Y-24027300D03*
%TO.P,starter1,3,3*%
%TO.N,green_led*%
X70139999Y-24027300D03*
%TD*%
D12*
%TO.P,R3,2*%
%TO.N,GND*%
X74840000Y-26980000D03*
D13*
%TO.P,R3,1*%
%TO.N,relay_control*%
X74840000Y-34600000D03*
%TD*%
D14*
%TO.P,C2,2*%
%TO.N,GND*%
X49770000Y-40260088D03*
D15*
%TO.P,C2,1*%
%TO.N,5V*%
X49770000Y-42260088D03*
%TD*%
D12*
%TO.P,R2,2*%
%TO.N,Net-(NA555P1-R)*%
X77750000Y-17680000D03*
D13*
%TO.P,R2,1*%
%TO.N,5V*%
X85370000Y-17680000D03*
%TD*%
D16*
%TO.P,U2,1*%
%TO.N,Net-(NA555P1-Q)*%
X63750000Y-28940000D03*
D12*
%TO.P,U2,2*%
%TO.N,relay_control*%
X61210000Y-28940000D03*
%TO.P,U2,3*%
%TO.N,N/C*%
X58670000Y-28940000D03*
%TO.P,U2,4*%
X56130000Y-28940000D03*
%TO.P,U2,5*%
X53590000Y-28940000D03*
%TO.P,U2,6*%
X51050000Y-28940000D03*
%TO.P,U2,7,GND*%
%TO.N,GND*%
X48510000Y-28940000D03*
%TO.P,U2,8*%
%TO.N,N/C*%
X48510000Y-36560000D03*
%TO.P,U2,9*%
X51050000Y-36560000D03*
%TO.P,U2,10*%
X53590000Y-36560000D03*
%TO.P,U2,11*%
X56130000Y-36560000D03*
%TO.P,U2,12*%
X58670000Y-36560000D03*
%TO.P,U2,13*%
X61210000Y-36560000D03*
%TO.P,U2,14,VCC*%
%TO.N,5V*%
X63750000Y-36560000D03*
%TD*%
%TO.P,R4,2*%
%TO.N,Net-(NA555P1-Q)*%
X71560000Y-34580000D03*
D13*
%TO.P,R4,1*%
%TO.N,green_led*%
X71560000Y-26960000D03*
%TD*%
%TO.P,C1,2*%
%TO.N,GND*%
X62370000Y-40065113D03*
D16*
%TO.P,C1,1*%
%TO.N,10V*%
X62370000Y-42565113D03*
%TD*%
D17*
%TO.P,K1,11*%
%TO.N,bat_in*%
X79632500Y-42032500D03*
X87132500Y-42032500D03*
%TO.P,K1,12*%
%TO.N,unconnected-(K1-Pad12)*%
X79632500Y-37032500D03*
X87132500Y-37032500D03*
%TO.P,K1,14*%
%TO.N,bat_out*%
X79632500Y-47032500D03*
X87132500Y-47032500D03*
D18*
%TO.P,K1,A1*%
%TO.N,10V*%
X79632500Y-22032500D03*
D17*
%TO.P,K1,A2*%
%TO.N,Net-(P16NF06L1-D)*%
X87132500Y-22032500D03*
%TD*%
D19*
%TO.P,L78L10_TO92,1,VO*%
%TO.N,10V*%
X59000000Y-47567488D03*
D20*
%TO.P,L78L10_TO92,2,GND*%
%TO.N,GND*%
X56460000Y-47567488D03*
%TO.P,L78L10_TO92,3,VI*%
%TO.N,bat_in*%
X53920000Y-47567488D03*
%TD*%
D14*
%TO.P,C4,2*%
%TO.N,GND*%
X62630000Y-46990087D03*
D15*
%TO.P,C4,1*%
%TO.N,10V*%
X62630000Y-48990087D03*
%TD*%
D13*
%TO.P,R1,1*%
%TO.N,5V*%
X85330000Y-50580000D03*
D12*
%TO.P,R1,2*%
%TO.N,Net-(NA555P1-TR)*%
X77710000Y-50580000D03*
%TD*%
D21*
%TO.P,P16NF06L1,1,G*%
%TO.N,relay_control*%
X68430000Y-39250000D03*
D22*
%TO.P,P16NF06L1,2,D*%
%TO.N,Net-(P16NF06L1-D)*%
X70970000Y-39250000D03*
%TO.P,P16NF06L1,3,S*%
%TO.N,GND*%
X73510000Y-39250000D03*
%TD*%
D16*
%TO.P,NA555P1,1,GND*%
%TO.N,GND*%
X56060000Y-17920000D03*
D12*
%TO.P,NA555P1,2,TR*%
%TO.N,Net-(NA555P1-TR)*%
X53520000Y-17920000D03*
%TO.P,NA555P1,3,Q*%
%TO.N,Net-(NA555P1-Q)*%
X50980000Y-17920000D03*
%TO.P,NA555P1,4,R*%
%TO.N,Net-(NA555P1-R)*%
X48440000Y-17920000D03*
%TO.P,NA555P1,5,CV*%
%TO.N,GND*%
X48440000Y-25540000D03*
%TO.P,NA555P1,6,THR*%
X50980000Y-25540000D03*
%TO.P,NA555P1,7,DIS*%
%TO.N,unconnected-(NA555P1-DIS-Pad7)*%
X53520000Y-25540000D03*
%TO.P,NA555P1,8,VCC*%
%TO.N,5V*%
X56060000Y-25540000D03*
%TD*%
D23*
%TO.P,L78L05_TO92,3,VI*%
%TO.N,10V*%
X57660000Y-41720001D03*
%TO.P,L78L05_TO92,2,GND*%
%TO.N,GND*%
X56390000Y-41720001D03*
D24*
%TO.P,L78L05_TO92,1,VO*%
%TO.N,5V*%
X55120000Y-41720001D03*
%TD*%
D13*
%TO.P,C3,2*%
%TO.N,GND*%
X49760000Y-46602601D03*
D16*
%TO.P,C3,1*%
%TO.N,bat_in*%
X49760000Y-49102601D03*
%TD*%
D12*
%TO.P,R5,2*%
%TO.N,relay_control*%
X68330000Y-34580000D03*
D13*
%TO.P,R5,1*%
%TO.N,red_led*%
X68330000Y-26960000D03*
%TD*%
D25*
%TO.N,Net-(NA555P1-Q)*%
X50980000Y-17920000D02*
X51730000Y-17920000D01*
X51730000Y-17920000D02*
X57870000Y-24060000D01*
X57870000Y-24060000D02*
X58870000Y-24060000D01*
X58870000Y-24060000D02*
X63750000Y-28940000D01*
D26*
%TO.N,10V*%
X64740000Y-43920000D02*
X64740000Y-39610000D01*
X64740000Y-39610000D02*
X68270000Y-36080000D01*
X75700000Y-36100000D02*
X79632500Y-32167500D01*
X79632500Y-32167500D02*
X79632500Y-22032500D01*
X68270000Y-36080000D02*
X74198679Y-36080000D01*
X74198679Y-36080000D02*
X74218679Y-36100000D01*
X74218679Y-36100000D02*
X75700000Y-36100000D01*
%TO.N,Net-(P16NF06L1-D)*%
X70970000Y-39250000D02*
X70970000Y-38880000D01*
X70970000Y-38880000D02*
X72450000Y-37400000D01*
X72450000Y-37400000D02*
X76510000Y-37400000D01*
X76510000Y-37400000D02*
X87132500Y-26777500D01*
X87132500Y-26777500D02*
X87132500Y-22032500D01*
%TO.N,bat_in*%
X49760000Y-49102601D02*
X49760000Y-49710000D01*
X49760000Y-49710000D02*
X50890000Y-50840000D01*
X50890000Y-50840000D02*
X64480000Y-50840000D01*
X64480000Y-50840000D02*
X66600000Y-48720000D01*
X67845714Y-41250000D02*
X69350000Y-41250000D01*
X66600000Y-48720000D02*
X66600000Y-42495714D01*
X66600000Y-42495714D02*
X67845714Y-41250000D01*
X69350000Y-41250000D02*
X71050000Y-42950000D01*
D25*
%TO.N,Net-(NA555P1-Q)*%
X71560000Y-34580000D02*
X65920000Y-28940000D01*
X65920000Y-28940000D02*
X63750000Y-28940000D01*
%TO.N,relay_control*%
X61210000Y-28940000D02*
X66850000Y-34580000D01*
X66850000Y-34580000D02*
X68330000Y-34580000D01*
D26*
%TO.N,5V*%
X46470000Y-35650000D02*
X46470000Y-24980000D01*
X46470000Y-24980000D02*
X47970000Y-23480000D01*
X47970000Y-23480000D02*
X54000000Y-23480000D01*
X54000000Y-23480000D02*
X56060000Y-25540000D01*
X49770000Y-42260088D02*
X48410088Y-42260088D01*
X48410088Y-42260088D02*
X46470000Y-40320000D01*
X46470000Y-40320000D02*
X46470000Y-35650000D01*
X46470000Y-35650000D02*
X47620000Y-34500000D01*
X47620000Y-34500000D02*
X61690000Y-34500000D01*
X61690000Y-34500000D02*
X63750000Y-36560000D01*
D25*
%TO.N,green_led*%
X70139999Y-24027300D02*
X70139999Y-25539999D01*
X70139999Y-25539999D02*
X71560000Y-26960000D01*
%TO.N,red_led*%
X61249999Y-24027300D02*
X64182699Y-26960000D01*
X64182699Y-26960000D02*
X68330000Y-26960000D01*
D26*
%TO.N,5V*%
X55120000Y-41720001D02*
X54579913Y-42260088D01*
X54579913Y-42260088D02*
X49770000Y-42260088D01*
%TO.N,bat_in*%
X49760000Y-49102601D02*
X50602601Y-48260000D01*
X50602601Y-48260000D02*
X53227488Y-48260000D01*
X53227488Y-48260000D02*
X53920000Y-47567488D01*
%TO.N,10V*%
X62370000Y-42565113D02*
X58505112Y-42565113D01*
X58505112Y-42565113D02*
X57660000Y-41720001D01*
X62370000Y-42565113D02*
X63385113Y-42565113D01*
X63385113Y-42565113D02*
X64740000Y-43920000D01*
X64740000Y-43920000D02*
X64740000Y-47970000D01*
X64740000Y-47970000D02*
X63719913Y-48990087D01*
X63719913Y-48990087D02*
X62630000Y-48990087D01*
X62630000Y-48990087D02*
X60422599Y-48990087D01*
X60422599Y-48990087D02*
X59000000Y-47567488D01*
D27*
%TO.N,bat_in*%
X71050000Y-42950000D02*
X72990000Y-44890000D01*
X72990000Y-44890000D02*
X76775000Y-44890000D01*
X76775000Y-44890000D02*
X79632500Y-42032500D01*
X79632500Y-42032500D02*
X87132500Y-42032500D01*
%TO.N,bat_out*%
X79632500Y-47032500D02*
X72632378Y-47032500D01*
X72632378Y-47032500D02*
X68549878Y-42950000D01*
X79632500Y-47032500D02*
X87132500Y-47032500D01*
%TD*%
%TA.AperFunction,Conductor*%
%TO.N,GND*%
G36*
X77117369Y-16330185D02*
G01*
X77163124Y-16382989D01*
X77173068Y-16452147D01*
X77144043Y-16515703D01*
X77102735Y-16546881D01*
X77100973Y-16547703D01*
X77097267Y-16549431D01*
X77097265Y-16549432D01*
X76910858Y-16679954D01*
X76749954Y-16840858D01*
X76619432Y-17027265D01*
X76619431Y-17027267D01*
X76523261Y-17233502D01*
X76523258Y-17233511D01*
X76464366Y-17453302D01*
X76464364Y-17453313D01*
X76444532Y-17679998D01*
X76444532Y-17680001D01*
X76464364Y-17906686D01*
X76464366Y-17906697D01*
X76523258Y-18126488D01*
X76523261Y-18126497D01*
X76619431Y-18332732D01*
X76619432Y-18332734D01*
X76749954Y-18519141D01*
X76910858Y-18680045D01*
X76925488Y-18690289D01*
X77097266Y-18810568D01*
X77303504Y-18906739D01*
X77523308Y-18965635D01*
X77685230Y-18979801D01*
X77749998Y-18985468D01*
X77750000Y-18985468D01*
X77750002Y-18985468D01*
X77806673Y-18980509D01*
X77976692Y-18965635D01*
X78196496Y-18906739D01*
X78402734Y-18810568D01*
X78589139Y-18680047D01*
X78750047Y-18519139D01*
X78880568Y-18332734D01*
X78976739Y-18126496D01*
X79035635Y-17906692D01*
X79055468Y-17680000D01*
X79035635Y-17453308D01*
X78976739Y-17233504D01*
X78880568Y-17027266D01*
X78750047Y-16840861D01*
X78750045Y-16840858D01*
X78589141Y-16679954D01*
X78402734Y-16549432D01*
X78402732Y-16549431D01*
X78401584Y-16548895D01*
X78397264Y-16546881D01*
X78344826Y-16500709D01*
X78325674Y-16433516D01*
X78345890Y-16366635D01*
X78399056Y-16321300D01*
X78449670Y-16310500D01*
X84670330Y-16310500D01*
X84737369Y-16330185D01*
X84783124Y-16382989D01*
X84793068Y-16452147D01*
X84764043Y-16515703D01*
X84722735Y-16546881D01*
X84720973Y-16547703D01*
X84717267Y-16549431D01*
X84717265Y-16549432D01*
X84530858Y-16679954D01*
X84369954Y-16840858D01*
X84239432Y-17027265D01*
X84239431Y-17027267D01*
X84143261Y-17233502D01*
X84143258Y-17233511D01*
X84084366Y-17453302D01*
X84084364Y-17453313D01*
X84064532Y-17679998D01*
X84064532Y-17680001D01*
X84084364Y-17906686D01*
X84084366Y-17906697D01*
X84143258Y-18126488D01*
X84143261Y-18126497D01*
X84239431Y-18332732D01*
X84239432Y-18332734D01*
X84369954Y-18519141D01*
X84530858Y-18680045D01*
X84545488Y-18690289D01*
X84717266Y-18810568D01*
X84923504Y-18906739D01*
X85143308Y-18965635D01*
X85305230Y-18979801D01*
X85369998Y-18985468D01*
X85370000Y-18985468D01*
X85370002Y-18985468D01*
X85426673Y-18980509D01*
X85596692Y-18965635D01*
X85816496Y-18906739D01*
X86022734Y-18810568D01*
X86209139Y-18680047D01*
X86209146Y-18680039D01*
X86213282Y-18676570D01*
X86214741Y-18678308D01*
X86267519Y-18649454D01*
X86337213Y-18654401D01*
X86393169Y-18696243D01*
X86402773Y-18711179D01*
X86502770Y-18894309D01*
X86502775Y-18894317D01*
X86674254Y-19123387D01*
X86674270Y-19123405D01*
X86876594Y-19325729D01*
X86876612Y-19325745D01*
X87105682Y-19497224D01*
X87105690Y-19497229D01*
X87356833Y-19634364D01*
X87356832Y-19634364D01*
X87356836Y-19634365D01*
X87356839Y-19634367D01*
X87624954Y-19734369D01*
X87624960Y-19734370D01*
X87624962Y-19734371D01*
X87904566Y-19795195D01*
X87904568Y-19795195D01*
X87904572Y-19795196D01*
X88158220Y-19813337D01*
X88189999Y-19815610D01*
X88190000Y-19815610D01*
X88190001Y-19815610D01*
X88218595Y-19813564D01*
X88475428Y-19795196D01*
X88755046Y-19734369D01*
X89023161Y-19634367D01*
X89274315Y-19497226D01*
X89387705Y-19412343D01*
X89491190Y-19334876D01*
X89556654Y-19310459D01*
X89624927Y-19325311D01*
X89674332Y-19374716D01*
X89689500Y-19434143D01*
X89689500Y-48885856D01*
X89669815Y-48952895D01*
X89617011Y-48998650D01*
X89547853Y-49008594D01*
X89491190Y-48985123D01*
X89274317Y-48822775D01*
X89274309Y-48822770D01*
X89023166Y-48685635D01*
X89023167Y-48685635D01*
X88808287Y-48605489D01*
X88755046Y-48585631D01*
X88755043Y-48585630D01*
X88755037Y-48585628D01*
X88475433Y-48524804D01*
X88190001Y-48504390D01*
X88189999Y-48504390D01*
X88040261Y-48515099D01*
X87971988Y-48500247D01*
X87922583Y-48450842D01*
X87907731Y-48382569D01*
X87932148Y-48317104D01*
X87955253Y-48293561D01*
X87956003Y-48292977D01*
X87956009Y-48292974D01*
X88152244Y-48140238D01*
X88320664Y-47957285D01*
X88456673Y-47749107D01*
X88556563Y-47521381D01*
X88617608Y-47280321D01*
X88618589Y-47268481D01*
X88638143Y-47032505D01*
X88638143Y-47032494D01*
X88617609Y-46784687D01*
X88617607Y-46784675D01*
X88556563Y-46543618D01*
X88456673Y-46315893D01*
X88320666Y-46107717D01*
X88299057Y-46084244D01*
X88152244Y-45924762D01*
X87956009Y-45772026D01*
X87956007Y-45772025D01*
X87956006Y-45772024D01*
X87737311Y-45653672D01*
X87737302Y-45653669D01*
X87502116Y-45572929D01*
X87256835Y-45532000D01*
X87008165Y-45532000D01*
X86762883Y-45572929D01*
X86527697Y-45653669D01*
X86527683Y-45653675D01*
X86318176Y-45767055D01*
X86259159Y-45782000D01*
X80505841Y-45782000D01*
X80446824Y-45767055D01*
X80237316Y-45653675D01*
X80237313Y-45653674D01*
X80237310Y-45653672D01*
X80237304Y-45653670D01*
X80237302Y-45653669D01*
X80002116Y-45572929D01*
X79756835Y-45532000D01*
X79508165Y-45532000D01*
X79262883Y-45572929D01*
X79027697Y-45653669D01*
X79027683Y-45653675D01*
X78818176Y-45767055D01*
X78759159Y-45782000D01*
X77950835Y-45782000D01*
X77883796Y-45762315D01*
X77838041Y-45709511D01*
X77828097Y-45640353D01*
X77857122Y-45576797D01*
X77863154Y-45570319D01*
X78135838Y-45297635D01*
X79901154Y-43532318D01*
X79962475Y-43498835D01*
X79968426Y-43497692D01*
X80002114Y-43492071D01*
X80237310Y-43411328D01*
X80390982Y-43328165D01*
X80446824Y-43297945D01*
X80505841Y-43283000D01*
X86259159Y-43283000D01*
X86318176Y-43297945D01*
X86374018Y-43328165D01*
X86527690Y-43411328D01*
X86762886Y-43492071D01*
X87008165Y-43533000D01*
X87256835Y-43533000D01*
X87502114Y-43492071D01*
X87737310Y-43411328D01*
X87956009Y-43292974D01*
X88152244Y-43140238D01*
X88320664Y-42957285D01*
X88456673Y-42749107D01*
X88556563Y-42521381D01*
X88617608Y-42280321D01*
X88617609Y-42280312D01*
X88638143Y-42032505D01*
X88638143Y-42032494D01*
X88617609Y-41784687D01*
X88617607Y-41784675D01*
X88556563Y-41543618D01*
X88456673Y-41315893D01*
X88320666Y-41107717D01*
X88266516Y-41048895D01*
X88152244Y-40924762D01*
X87956009Y-40772026D01*
X87956007Y-40772025D01*
X87956006Y-40772024D01*
X87737311Y-40653672D01*
X87737302Y-40653669D01*
X87502116Y-40572929D01*
X87256835Y-40532000D01*
X87008165Y-40532000D01*
X86762883Y-40572929D01*
X86527697Y-40653669D01*
X86527683Y-40653675D01*
X86318176Y-40767055D01*
X86259159Y-40782000D01*
X80505841Y-40782000D01*
X80446824Y-40767055D01*
X80237316Y-40653675D01*
X80237313Y-40653674D01*
X80237310Y-40653672D01*
X80237304Y-40653670D01*
X80237302Y-40653669D01*
X80002116Y-40572929D01*
X79756835Y-40532000D01*
X79508165Y-40532000D01*
X79262883Y-40572929D01*
X79027697Y-40653669D01*
X79027688Y-40653672D01*
X78808993Y-40772024D01*
X78612757Y-40924761D01*
X78444333Y-41107717D01*
X78308326Y-41315893D01*
X78208438Y-41543614D01*
X78208436Y-41543620D01*
X78167826Y-41703982D01*
X78135302Y-41761222D01*
X76293345Y-43603181D01*
X76232022Y-43636666D01*
X76205664Y-43639500D01*
X74801693Y-43639500D01*
X74734654Y-43619815D01*
X74688899Y-43567011D01*
X74678955Y-43497853D01*
X74689311Y-43463095D01*
X74728563Y-43378919D01*
X74728566Y-43378910D01*
X74785140Y-43167771D01*
X74785142Y-43167761D01*
X74804194Y-42950001D01*
X74804194Y-42949998D01*
X74785142Y-42732238D01*
X74785140Y-42732228D01*
X74728566Y-42521089D01*
X74728561Y-42521075D01*
X74658857Y-42371593D01*
X74045422Y-42985028D01*
X74045422Y-42878787D01*
X74005295Y-42742129D01*
X73928294Y-42622312D01*
X73820655Y-42529043D01*
X73691099Y-42469876D01*
X73585545Y-42454700D01*
X73514699Y-42454700D01*
X73409145Y-42469876D01*
X73279589Y-42529043D01*
X73171950Y-42622312D01*
X73094949Y-42742129D01*
X73054822Y-42878787D01*
X73054822Y-42985030D01*
X72441385Y-42371593D01*
X72430010Y-42373599D01*
X72406032Y-42400832D01*
X72338838Y-42419983D01*
X72271957Y-42399767D01*
X72252142Y-42383668D01*
X71894534Y-42026060D01*
X71894529Y-42026055D01*
X71892791Y-42024604D01*
X71884603Y-42017119D01*
X71856425Y-41988941D01*
X71856424Y-41988940D01*
X71856423Y-41988939D01*
X71821351Y-41964382D01*
X71813012Y-41958000D01*
X71765019Y-41917932D01*
X71717368Y-41890894D01*
X71707453Y-41884629D01*
X71677288Y-41863507D01*
X71677286Y-41863506D01*
X71635828Y-41844174D01*
X71630185Y-41841263D01*
X72971715Y-41841263D01*
X73550122Y-42419670D01*
X73550123Y-42419670D01*
X74128526Y-41841264D01*
X73979037Y-41771557D01*
X73979032Y-41771555D01*
X73767893Y-41714981D01*
X73767883Y-41714979D01*
X73550124Y-41695928D01*
X73550120Y-41695928D01*
X73332360Y-41714979D01*
X73332350Y-41714981D01*
X73121209Y-41771556D01*
X72971715Y-41841263D01*
X71630185Y-41841263D01*
X71627048Y-41839645D01*
X71589623Y-41818410D01*
X71569242Y-41806845D01*
X71521131Y-41790009D01*
X71509687Y-41785352D01*
X71479094Y-41771087D01*
X71432157Y-41758510D01*
X71423297Y-41755776D01*
X71356789Y-41732503D01*
X71356783Y-41732501D01*
X71310157Y-41725117D01*
X71297462Y-41722419D01*
X71267860Y-41714487D01*
X71262526Y-41713547D01*
X71262855Y-41711676D01*
X71205599Y-41689271D01*
X71193807Y-41678886D01*
X70402836Y-40887915D01*
X70369351Y-40826592D01*
X70374335Y-40756900D01*
X70416207Y-40700967D01*
X70481671Y-40676550D01*
X70530778Y-40682952D01*
X70612087Y-40710866D01*
X70849601Y-40750500D01*
X70849602Y-40750500D01*
X71090398Y-40750500D01*
X71090399Y-40750500D01*
X71327913Y-40710866D01*
X71555664Y-40632679D01*
X71767439Y-40518072D01*
X71957463Y-40370171D01*
X72120551Y-40193010D01*
X72136489Y-40168613D01*
X72189631Y-40123258D01*
X72258862Y-40113831D01*
X72322199Y-40143330D01*
X72344106Y-40168611D01*
X72359847Y-40192704D01*
X72359851Y-40192710D01*
X72522873Y-40369797D01*
X72522883Y-40369806D01*
X72712831Y-40517649D01*
X72712840Y-40517655D01*
X72924531Y-40632215D01*
X72924545Y-40632221D01*
X73135000Y-40704470D01*
X73135000Y-39718535D01*
X73207412Y-39774099D01*
X73353369Y-39834556D01*
X73470677Y-39850000D01*
X73549323Y-39850000D01*
X73666631Y-39834556D01*
X73812588Y-39774099D01*
X73885000Y-39718535D01*
X73885000Y-40704470D01*
X74095454Y-40632221D01*
X74095468Y-40632215D01*
X74307159Y-40517655D01*
X74307168Y-40517649D01*
X74497116Y-40369806D01*
X74497126Y-40369797D01*
X74660148Y-40192710D01*
X74660156Y-40192699D01*
X74791813Y-39991184D01*
X74888508Y-39770740D01*
X74925415Y-39625000D01*
X73978536Y-39625000D01*
X74034099Y-39552589D01*
X74094556Y-39406631D01*
X74115177Y-39250000D01*
X74094556Y-39093369D01*
X74034099Y-38947412D01*
X73978536Y-38875000D01*
X74925415Y-38875000D01*
X74888508Y-38729259D01*
X74820542Y-38574310D01*
X74811639Y-38505010D01*
X74841617Y-38441897D01*
X74900956Y-38405011D01*
X74934098Y-38400500D01*
X76495721Y-38400500D01*
X76498863Y-38400540D01*
X76586358Y-38402757D01*
X76586358Y-38402756D01*
X76586363Y-38402757D01*
X76644425Y-38392349D01*
X76653754Y-38391041D01*
X76712438Y-38385074D01*
X76741471Y-38375964D01*
X76756700Y-38372226D01*
X76786653Y-38366858D01*
X76786657Y-38366856D01*
X76786659Y-38366856D01*
X76841423Y-38344980D01*
X76850292Y-38341821D01*
X76906588Y-38324159D01*
X76933200Y-38309387D01*
X76947362Y-38302662D01*
X76975617Y-38291377D01*
X77024879Y-38258909D01*
X77032910Y-38254043D01*
X77084502Y-38225409D01*
X77084509Y-38225402D01*
X77084512Y-38225401D01*
X77107583Y-38205594D01*
X77120125Y-38196137D01*
X77145519Y-38179402D01*
X77187237Y-38137682D01*
X77194122Y-38131301D01*
X77238895Y-38092866D01*
X77257520Y-38068802D01*
X77267880Y-38057039D01*
X77972309Y-37352610D01*
X78033630Y-37319127D01*
X78103322Y-37324111D01*
X78159255Y-37365983D01*
X78180194Y-37409853D01*
X78208436Y-37521381D01*
X78308326Y-37749106D01*
X78444333Y-37957282D01*
X78444336Y-37957285D01*
X78612756Y-38140238D01*
X78808991Y-38292974D01*
X78808993Y-38292975D01*
X79007755Y-38400540D01*
X79027690Y-38411328D01*
X79262886Y-38492071D01*
X79508165Y-38533000D01*
X79756835Y-38533000D01*
X80002114Y-38492071D01*
X80237310Y-38411328D01*
X80456009Y-38292974D01*
X80652244Y-38140238D01*
X80820664Y-37957285D01*
X80956673Y-37749107D01*
X81056563Y-37521381D01*
X81117608Y-37280321D01*
X81117609Y-37280312D01*
X81138143Y-37032505D01*
X85626857Y-37032505D01*
X85647390Y-37280312D01*
X85647392Y-37280324D01*
X85708436Y-37521381D01*
X85808326Y-37749106D01*
X85944333Y-37957282D01*
X85944336Y-37957285D01*
X86112756Y-38140238D01*
X86308991Y-38292974D01*
X86308993Y-38292975D01*
X86507755Y-38400540D01*
X86527690Y-38411328D01*
X86762886Y-38492071D01*
X87008165Y-38533000D01*
X87256835Y-38533000D01*
X87502114Y-38492071D01*
X87737310Y-38411328D01*
X87956009Y-38292974D01*
X88152244Y-38140238D01*
X88320664Y-37957285D01*
X88456673Y-37749107D01*
X88556563Y-37521381D01*
X88617608Y-37280321D01*
X88617609Y-37280312D01*
X88638143Y-37032505D01*
X88638143Y-37032494D01*
X88617609Y-36784687D01*
X88617607Y-36784675D01*
X88556563Y-36543618D01*
X88456673Y-36315893D01*
X88320666Y-36107717D01*
X88237812Y-36017714D01*
X88152244Y-35924762D01*
X87956009Y-35772026D01*
X87956007Y-35772025D01*
X87956006Y-35772024D01*
X87737311Y-35653672D01*
X87737302Y-35653669D01*
X87502116Y-35572929D01*
X87256835Y-35532000D01*
X87008165Y-35532000D01*
X86762883Y-35572929D01*
X86527697Y-35653669D01*
X86527688Y-35653672D01*
X86308993Y-35772024D01*
X86112757Y-35924761D01*
X85944333Y-36107717D01*
X85808326Y-36315893D01*
X85708436Y-36543618D01*
X85647392Y-36784675D01*
X85647390Y-36784687D01*
X85626857Y-37032494D01*
X85626857Y-37032505D01*
X81138143Y-37032505D01*
X81138143Y-37032494D01*
X81117609Y-36784687D01*
X81117607Y-36784675D01*
X81056563Y-36543618D01*
X80956673Y-36315893D01*
X80820666Y-36107717D01*
X80737812Y-36017714D01*
X80652244Y-35924762D01*
X80456009Y-35772026D01*
X80456007Y-35772025D01*
X80456006Y-35772024D01*
X80237311Y-35653672D01*
X80237302Y-35653669D01*
X80003794Y-35573505D01*
X79946779Y-35533119D01*
X79920648Y-35468320D01*
X79933700Y-35399680D01*
X79956373Y-35368546D01*
X87829909Y-27495010D01*
X87832078Y-27492895D01*
X87895553Y-27432559D01*
X87929256Y-27384135D01*
X87934905Y-27376642D01*
X87972198Y-27330907D01*
X87986288Y-27303930D01*
X87994409Y-27290526D01*
X88011795Y-27265549D01*
X88035063Y-27211325D01*
X88039082Y-27202861D01*
X88066409Y-27150549D01*
X88074778Y-27121297D01*
X88080038Y-27106523D01*
X88092040Y-27078558D01*
X88103915Y-27020768D01*
X88106149Y-27011662D01*
X88122387Y-26954918D01*
X88124697Y-26924577D01*
X88126876Y-26909035D01*
X88133000Y-26879241D01*
X88133000Y-26820258D01*
X88133358Y-26810842D01*
X88137837Y-26752026D01*
X88133993Y-26721838D01*
X88133000Y-26706174D01*
X88133000Y-23209527D01*
X88152685Y-23142488D01*
X88165765Y-23125549D01*
X88320664Y-22957285D01*
X88456673Y-22749107D01*
X88556563Y-22521381D01*
X88617608Y-22280321D01*
X88638143Y-22032500D01*
X88617608Y-21784679D01*
X88556563Y-21543619D01*
X88456673Y-21315893D01*
X88320666Y-21107717D01*
X88299057Y-21084244D01*
X88152244Y-20924762D01*
X87956009Y-20772026D01*
X87956007Y-20772025D01*
X87956006Y-20772024D01*
X87737311Y-20653672D01*
X87737302Y-20653669D01*
X87502116Y-20572929D01*
X87256835Y-20532000D01*
X87008165Y-20532000D01*
X86762883Y-20572929D01*
X86527697Y-20653669D01*
X86527688Y-20653672D01*
X86308993Y-20772024D01*
X86112757Y-20924761D01*
X85944333Y-21107717D01*
X85808326Y-21315893D01*
X85708436Y-21543618D01*
X85647392Y-21784675D01*
X85647390Y-21784687D01*
X85626857Y-22032494D01*
X85626857Y-22032505D01*
X85647390Y-22280312D01*
X85647392Y-22280324D01*
X85708436Y-22521381D01*
X85808326Y-22749106D01*
X85944333Y-22957282D01*
X85944336Y-22957285D01*
X86099230Y-23125545D01*
X86130152Y-23188198D01*
X86132000Y-23209527D01*
X86132000Y-26311718D01*
X86112315Y-26378757D01*
X86095681Y-26399399D01*
X80844681Y-31650399D01*
X80783358Y-31683884D01*
X80713666Y-31678900D01*
X80657733Y-31637028D01*
X80633316Y-31571564D01*
X80633000Y-31562718D01*
X80633000Y-23649476D01*
X80652685Y-23582437D01*
X80705489Y-23536682D01*
X80732635Y-23529236D01*
X80732432Y-23528376D01*
X80739979Y-23526592D01*
X80739981Y-23526591D01*
X80739983Y-23526591D01*
X80874831Y-23476296D01*
X80990046Y-23390046D01*
X81076296Y-23274831D01*
X81126591Y-23139983D01*
X81133000Y-23080373D01*
X81132999Y-20984628D01*
X81126591Y-20925017D01*
X81076296Y-20790169D01*
X81076295Y-20790168D01*
X81076293Y-20790164D01*
X80990047Y-20674955D01*
X80990044Y-20674952D01*
X80874835Y-20588706D01*
X80874828Y-20588702D01*
X80739982Y-20538408D01*
X80739983Y-20538408D01*
X80680383Y-20532001D01*
X80680381Y-20532000D01*
X80680373Y-20532000D01*
X80680364Y-20532000D01*
X78584629Y-20532000D01*
X78584623Y-20532001D01*
X78525016Y-20538408D01*
X78390171Y-20588702D01*
X78390164Y-20588706D01*
X78274955Y-20674952D01*
X78274952Y-20674955D01*
X78188706Y-20790164D01*
X78188702Y-20790171D01*
X78138408Y-20925017D01*
X78132001Y-20984616D01*
X78132001Y-20984623D01*
X78132000Y-20984635D01*
X78132000Y-23080370D01*
X78132001Y-23080376D01*
X78138408Y-23139983D01*
X78188702Y-23274828D01*
X78188706Y-23274835D01*
X78274952Y-23390044D01*
X78274955Y-23390047D01*
X78390164Y-23476293D01*
X78390171Y-23476297D01*
X78525017Y-23526591D01*
X78532562Y-23528374D01*
X78532023Y-23530651D01*
X78585787Y-23552908D01*
X78625647Y-23610293D01*
X78632000Y-23649475D01*
X78632000Y-31701717D01*
X78612315Y-31768756D01*
X78595681Y-31789398D01*
X76244380Y-34140698D01*
X76183057Y-34174183D01*
X76113365Y-34169199D01*
X76057432Y-34127327D01*
X76044320Y-34105428D01*
X75970568Y-33947266D01*
X75840047Y-33760861D01*
X75840045Y-33760858D01*
X75679141Y-33599954D01*
X75492734Y-33469432D01*
X75492732Y-33469431D01*
X75286497Y-33373261D01*
X75286488Y-33373258D01*
X75066697Y-33314366D01*
X75066693Y-33314365D01*
X75066692Y-33314365D01*
X75066691Y-33314364D01*
X75066686Y-33314364D01*
X74840002Y-33294532D01*
X74839998Y-33294532D01*
X74613313Y-33314364D01*
X74613302Y-33314366D01*
X74393511Y-33373258D01*
X74393502Y-33373261D01*
X74187267Y-33469431D01*
X74187265Y-33469432D01*
X74000858Y-33599954D01*
X73839954Y-33760858D01*
X73709432Y-33947265D01*
X73709431Y-33947267D01*
X73613261Y-34153502D01*
X73613258Y-34153511D01*
X73554366Y-34373302D01*
X73554364Y-34373313D01*
X73534532Y-34599998D01*
X73534532Y-34600001D01*
X73554364Y-34826686D01*
X73554366Y-34826697D01*
X73580279Y-34923407D01*
X73578616Y-34993257D01*
X73539453Y-35051119D01*
X73475224Y-35078623D01*
X73460504Y-35079500D01*
X72934137Y-35079500D01*
X72867098Y-35059815D01*
X72821343Y-35007011D01*
X72811399Y-34937853D01*
X72814362Y-34923407D01*
X72828263Y-34871524D01*
X72845635Y-34806692D01*
X72865468Y-34580000D01*
X72845635Y-34353308D01*
X72786739Y-34133504D01*
X72690568Y-33927266D01*
X72560047Y-33740861D01*
X72560045Y-33740858D01*
X72399141Y-33579954D01*
X72212734Y-33449432D01*
X72212732Y-33449431D01*
X72006497Y-33353261D01*
X72006488Y-33353258D01*
X71786697Y-33294366D01*
X71786693Y-33294365D01*
X71786692Y-33294365D01*
X71786691Y-33294364D01*
X71786686Y-33294364D01*
X71560002Y-33274532D01*
X71559999Y-33274532D01*
X71333313Y-33294364D01*
X71333296Y-33294367D01*
X71264949Y-33312680D01*
X71195099Y-33311016D01*
X71145177Y-33280586D01*
X66420803Y-28556212D01*
X66410980Y-28543950D01*
X66410759Y-28544134D01*
X66405786Y-28538122D01*
X66356776Y-28492099D01*
X66353977Y-28489386D01*
X66334477Y-28469885D01*
X66334471Y-28469880D01*
X66331286Y-28467409D01*
X66322434Y-28459848D01*
X66290582Y-28429938D01*
X66290580Y-28429936D01*
X66290577Y-28429935D01*
X66273029Y-28420288D01*
X66256763Y-28409604D01*
X66240932Y-28397324D01*
X66200849Y-28379978D01*
X66190363Y-28374841D01*
X66152094Y-28353803D01*
X66152092Y-28353802D01*
X66132693Y-28348822D01*
X66114281Y-28342518D01*
X66095898Y-28334562D01*
X66095892Y-28334560D01*
X66052760Y-28327729D01*
X66041322Y-28325361D01*
X65999020Y-28314500D01*
X65999019Y-28314500D01*
X65978984Y-28314500D01*
X65959586Y-28312973D01*
X65952162Y-28311797D01*
X65939805Y-28309840D01*
X65939804Y-28309840D01*
X65896325Y-28313950D01*
X65884656Y-28314500D01*
X65174499Y-28314500D01*
X65107460Y-28294815D01*
X65061705Y-28242011D01*
X65050499Y-28190500D01*
X65050499Y-28092129D01*
X65050498Y-28092123D01*
X65044091Y-28032516D01*
X64993797Y-27897671D01*
X64993793Y-27897664D01*
X64908562Y-27783811D01*
X64884144Y-27718347D01*
X64898995Y-27650074D01*
X64948400Y-27600668D01*
X65007828Y-27585500D01*
X67115812Y-27585500D01*
X67182851Y-27605185D01*
X67217387Y-27638377D01*
X67329954Y-27799141D01*
X67490858Y-27960045D01*
X67490861Y-27960047D01*
X67677266Y-28090568D01*
X67883504Y-28186739D01*
X68103308Y-28245635D01*
X68265230Y-28259801D01*
X68329998Y-28265468D01*
X68330000Y-28265468D01*
X68330002Y-28265468D01*
X68386673Y-28260509D01*
X68556692Y-28245635D01*
X68776496Y-28186739D01*
X68982734Y-28090568D01*
X69169139Y-27960047D01*
X69330047Y-27799139D01*
X69460568Y-27612734D01*
X69556739Y-27406496D01*
X69615635Y-27186692D01*
X69635468Y-26960000D01*
X69635023Y-26954918D01*
X69625448Y-26845468D01*
X69615635Y-26733308D01*
X69556739Y-26513504D01*
X69460568Y-26307266D01*
X69330047Y-26120861D01*
X69330045Y-26120858D01*
X69169141Y-25959954D01*
X68982734Y-25829432D01*
X68982732Y-25829431D01*
X68776497Y-25733261D01*
X68776488Y-25733258D01*
X68556697Y-25674366D01*
X68556693Y-25674365D01*
X68556692Y-25674365D01*
X68556691Y-25674364D01*
X68556686Y-25674364D01*
X68330002Y-25654532D01*
X68329998Y-25654532D01*
X68103313Y-25674364D01*
X68103302Y-25674366D01*
X67883511Y-25733258D01*
X67883502Y-25733261D01*
X67677267Y-25829431D01*
X67677265Y-25829432D01*
X67490858Y-25959954D01*
X67329954Y-26120858D01*
X67217387Y-26281623D01*
X67162811Y-26325248D01*
X67115812Y-26334500D01*
X64493152Y-26334500D01*
X64426113Y-26314815D01*
X64405471Y-26298181D01*
X63428070Y-25320780D01*
X63394585Y-25259457D01*
X63399569Y-25189765D01*
X63441441Y-25133832D01*
X63492964Y-25111211D01*
X63555095Y-25099597D01*
X63726826Y-25033068D01*
X64774559Y-25033068D01*
X64945040Y-25099112D01*
X65147182Y-25136900D01*
X65352818Y-25136900D01*
X65554959Y-25099112D01*
X65725439Y-25033068D01*
X65250001Y-24557630D01*
X65250000Y-24557630D01*
X64774559Y-25033068D01*
X63726826Y-25033068D01*
X63746934Y-25025278D01*
X63875187Y-24945867D01*
X63921848Y-24916976D01*
X63921848Y-24916975D01*
X63921851Y-24916974D01*
X64073889Y-24778374D01*
X64197870Y-24614196D01*
X64253418Y-24502639D01*
X64276734Y-24470233D01*
X64689897Y-24057071D01*
X64890714Y-24057071D01*
X64919848Y-24172118D01*
X64984759Y-24271472D01*
X65078413Y-24344365D01*
X65190661Y-24382900D01*
X65279466Y-24382900D01*
X65367060Y-24368283D01*
X65471434Y-24311799D01*
X65551813Y-24224484D01*
X65599485Y-24115802D01*
X65606819Y-24027300D01*
X65780330Y-24027300D01*
X66253792Y-24500762D01*
X66289104Y-24429848D01*
X66289105Y-24429847D01*
X66345379Y-24232063D01*
X66345380Y-24232061D01*
X66364354Y-24027300D01*
X69025143Y-24027300D01*
X69044125Y-24232149D01*
X69044125Y-24232151D01*
X69044126Y-24232154D01*
X69053365Y-24264625D01*
X69100426Y-24430030D01*
X69100430Y-24430040D01*
X69177299Y-24584414D01*
X69192129Y-24614196D01*
X69245974Y-24685499D01*
X69316111Y-24778376D01*
X69472385Y-24920837D01*
X69470917Y-24922446D01*
X69506853Y-24970852D01*
X69514499Y-25013721D01*
X69514499Y-25457254D01*
X69512774Y-25472871D01*
X69513060Y-25472898D01*
X69512325Y-25480664D01*
X69514438Y-25547871D01*
X69514499Y-25551766D01*
X69514499Y-25579356D01*
X69515002Y-25583334D01*
X69515917Y-25594966D01*
X69517289Y-25638623D01*
X69517290Y-25638626D01*
X69522879Y-25657866D01*
X69526823Y-25676910D01*
X69528816Y-25692680D01*
X69529335Y-25696791D01*
X69545413Y-25737402D01*
X69549196Y-25748451D01*
X69561380Y-25790387D01*
X69571579Y-25807633D01*
X69580137Y-25825102D01*
X69587513Y-25843731D01*
X69613180Y-25879059D01*
X69619592Y-25888820D01*
X69641827Y-25926416D01*
X69641832Y-25926423D01*
X69655989Y-25940579D01*
X69668627Y-25955375D01*
X69680404Y-25971585D01*
X69680405Y-25971586D01*
X69714056Y-25999424D01*
X69722697Y-26007287D01*
X70260586Y-26545176D01*
X70294071Y-26606499D01*
X70292681Y-26664948D01*
X70274365Y-26733307D01*
X70274364Y-26733313D01*
X70254532Y-26959999D01*
X70254532Y-26960001D01*
X70274364Y-27186686D01*
X70274366Y-27186697D01*
X70333258Y-27406488D01*
X70333261Y-27406497D01*
X70429431Y-27612732D01*
X70429432Y-27612734D01*
X70559954Y-27799141D01*
X70720858Y-27960045D01*
X70720861Y-27960047D01*
X70907266Y-28090568D01*
X71113504Y-28186739D01*
X71333308Y-28245635D01*
X71495230Y-28259801D01*
X71559998Y-28265468D01*
X71560000Y-28265468D01*
X71560002Y-28265468D01*
X71616673Y-28260509D01*
X71786692Y-28245635D01*
X72006496Y-28186739D01*
X72212734Y-28090568D01*
X72399139Y-27960047D01*
X72560047Y-27799139D01*
X72690568Y-27612734D01*
X72786739Y-27406496D01*
X72800537Y-27355000D01*
X73594621Y-27355000D01*
X73613732Y-27426321D01*
X73613733Y-27426324D01*
X73709865Y-27632482D01*
X73840342Y-27818820D01*
X74001179Y-27979657D01*
X74187517Y-28110134D01*
X74393676Y-28206267D01*
X74465000Y-28225377D01*
X74465000Y-27355000D01*
X73594621Y-27355000D01*
X72800537Y-27355000D01*
X72845635Y-27186692D01*
X72863718Y-26980000D01*
X74435014Y-26980000D01*
X74454835Y-27105148D01*
X74512359Y-27218045D01*
X74601955Y-27307641D01*
X74714852Y-27365165D01*
X74808519Y-27380000D01*
X74871481Y-27380000D01*
X74965148Y-27365165D01*
X74985098Y-27355000D01*
X75215000Y-27355000D01*
X75215000Y-28225376D01*
X75286323Y-28206267D01*
X75286324Y-28206267D01*
X75492482Y-28110134D01*
X75678820Y-27979657D01*
X75839657Y-27818820D01*
X75970134Y-27632482D01*
X76066266Y-27426324D01*
X76066267Y-27426321D01*
X76085379Y-27355000D01*
X75215000Y-27355000D01*
X74985098Y-27355000D01*
X75078045Y-27307641D01*
X75167641Y-27218045D01*
X75225165Y-27105148D01*
X75244986Y-26980000D01*
X75225165Y-26854852D01*
X75167641Y-26741955D01*
X75078045Y-26652359D01*
X74965148Y-26594835D01*
X74871481Y-26580000D01*
X74808519Y-26580000D01*
X74714852Y-26594835D01*
X74601955Y-26652359D01*
X74512359Y-26741955D01*
X74454835Y-26854852D01*
X74435014Y-26980000D01*
X72863718Y-26980000D01*
X72865468Y-26960000D01*
X72865023Y-26954918D01*
X72855448Y-26845468D01*
X72845635Y-26733308D01*
X72811255Y-26604999D01*
X73594620Y-26604999D01*
X73594621Y-26605000D01*
X74465000Y-26605000D01*
X74465000Y-25734621D01*
X74464999Y-25734620D01*
X75215000Y-25734620D01*
X75215000Y-26605000D01*
X76085379Y-26605000D01*
X76085379Y-26604999D01*
X76066267Y-26533678D01*
X76066266Y-26533675D01*
X75970134Y-26327517D01*
X75839657Y-26141179D01*
X75678820Y-25980342D01*
X75492482Y-25849865D01*
X75286324Y-25753733D01*
X75286321Y-25753732D01*
X75215000Y-25734620D01*
X74464999Y-25734620D01*
X74393678Y-25753732D01*
X74393675Y-25753733D01*
X74187517Y-25849865D01*
X74001179Y-25980342D01*
X73840342Y-26141179D01*
X73709865Y-26327517D01*
X73613733Y-26533675D01*
X73613732Y-26533678D01*
X73594620Y-26604999D01*
X72811255Y-26604999D01*
X72786739Y-26513504D01*
X72690568Y-26307266D01*
X72560047Y-26120861D01*
X72560045Y-26120858D01*
X72399141Y-25959954D01*
X72212734Y-25829432D01*
X72212732Y-25829431D01*
X72006497Y-25733261D01*
X72006488Y-25733258D01*
X71786697Y-25674366D01*
X71786693Y-25674365D01*
X71786692Y-25674365D01*
X71786691Y-25674364D01*
X71786686Y-25674364D01*
X71560002Y-25654532D01*
X71559999Y-25654532D01*
X71333313Y-25674364D01*
X71333296Y-25674367D01*
X71264949Y-25692680D01*
X71195099Y-25691016D01*
X71145177Y-25660586D01*
X70801818Y-25317227D01*
X70768333Y-25255904D01*
X70765499Y-25229546D01*
X70765499Y-25013721D01*
X70785184Y-24946682D01*
X70808375Y-24921672D01*
X70807613Y-24920837D01*
X70904047Y-24832926D01*
X70963888Y-24778374D01*
X71041046Y-24676199D01*
X71097153Y-24634565D01*
X71166865Y-24629872D01*
X71228047Y-24663614D01*
X71238953Y-24676200D01*
X71316109Y-24778372D01*
X71316112Y-24778375D01*
X71468146Y-24916972D01*
X71468151Y-24916976D01*
X71643062Y-25025276D01*
X71643063Y-25025276D01*
X71643066Y-25025278D01*
X71834905Y-25099597D01*
X72037134Y-25137400D01*
X72037136Y-25137400D01*
X72242864Y-25137400D01*
X72242866Y-25137400D01*
X72445095Y-25099597D01*
X72616826Y-25033068D01*
X73664559Y-25033068D01*
X73835040Y-25099112D01*
X74037182Y-25136900D01*
X74242818Y-25136900D01*
X74444959Y-25099112D01*
X74615439Y-25033068D01*
X74140001Y-24557630D01*
X74140000Y-24557630D01*
X73664559Y-25033068D01*
X72616826Y-25033068D01*
X72636934Y-25025278D01*
X72765187Y-24945867D01*
X72811848Y-24916976D01*
X72811848Y-24916975D01*
X72811851Y-24916974D01*
X72963889Y-24778374D01*
X73087870Y-24614196D01*
X73143418Y-24502639D01*
X73166734Y-24470233D01*
X73579897Y-24057071D01*
X73780714Y-24057071D01*
X73809848Y-24172118D01*
X73874759Y-24271472D01*
X73968413Y-24344365D01*
X74080661Y-24382900D01*
X74169466Y-24382900D01*
X74257060Y-24368283D01*
X74361434Y-24311799D01*
X74441813Y-24224484D01*
X74489485Y-24115802D01*
X74496819Y-24027300D01*
X74670330Y-24027300D01*
X75143792Y-24500762D01*
X75179104Y-24429848D01*
X75179105Y-24429847D01*
X75235379Y-24232063D01*
X75235380Y-24232061D01*
X75254354Y-24027300D01*
X75254354Y-24027299D01*
X75235380Y-23822538D01*
X75235379Y-23822536D01*
X75179105Y-23624753D01*
X75179102Y-23624747D01*
X75143792Y-23553836D01*
X74670330Y-24027299D01*
X74670330Y-24027300D01*
X74496819Y-24027300D01*
X74499286Y-23997529D01*
X74470152Y-23882482D01*
X74405241Y-23783128D01*
X74311587Y-23710235D01*
X74199339Y-23671700D01*
X74110534Y-23671700D01*
X74022940Y-23686317D01*
X73918566Y-23742801D01*
X73838187Y-23830116D01*
X73790515Y-23938798D01*
X73780714Y-24057071D01*
X73579897Y-24057071D01*
X73609669Y-24027299D01*
X73166734Y-23584364D01*
X73143416Y-23551957D01*
X73087870Y-23440404D01*
X73082258Y-23432973D01*
X72963890Y-23276227D01*
X72963888Y-23276224D01*
X72811853Y-23137627D01*
X72811848Y-23137623D01*
X72636937Y-23029323D01*
X72636931Y-23029321D01*
X72616820Y-23021530D01*
X73664560Y-23021530D01*
X74140000Y-23496970D01*
X74140001Y-23496970D01*
X74615438Y-23021530D01*
X74615438Y-23021529D01*
X74444961Y-22955487D01*
X74242818Y-22917700D01*
X74037182Y-22917700D01*
X73835038Y-22955487D01*
X73664560Y-23021529D01*
X73664560Y-23021530D01*
X72616820Y-23021530D01*
X72445095Y-22955003D01*
X72242866Y-22917200D01*
X72037134Y-22917200D01*
X71834905Y-22955003D01*
X71713588Y-23002001D01*
X71643068Y-23029321D01*
X71643062Y-23029323D01*
X71468151Y-23137623D01*
X71468146Y-23137627D01*
X71316112Y-23276224D01*
X71238953Y-23378399D01*
X71182844Y-23420035D01*
X71113132Y-23424726D01*
X71051950Y-23390984D01*
X71041045Y-23378398D01*
X70963889Y-23276227D01*
X70963887Y-23276224D01*
X70811852Y-23137627D01*
X70811847Y-23137623D01*
X70636936Y-23029323D01*
X70636930Y-23029321D01*
X70445094Y-22955003D01*
X70242865Y-22917200D01*
X70037133Y-22917200D01*
X69834904Y-22955003D01*
X69713587Y-23002001D01*
X69643067Y-23029321D01*
X69643061Y-23029323D01*
X69468150Y-23137623D01*
X69468145Y-23137627D01*
X69316111Y-23276223D01*
X69192128Y-23440405D01*
X69100430Y-23624559D01*
X69100426Y-23624569D01*
X69044125Y-23822450D01*
X69025143Y-24027300D01*
X66364354Y-24027300D01*
X66364354Y-24027299D01*
X66345380Y-23822538D01*
X66345379Y-23822536D01*
X66289105Y-23624753D01*
X66289102Y-23624747D01*
X66253792Y-23553836D01*
X65780330Y-24027299D01*
X65780330Y-24027300D01*
X65606819Y-24027300D01*
X65609286Y-23997529D01*
X65580152Y-23882482D01*
X65515241Y-23783128D01*
X65421587Y-23710235D01*
X65309339Y-23671700D01*
X65220534Y-23671700D01*
X65132940Y-23686317D01*
X65028566Y-23742801D01*
X64948187Y-23830116D01*
X64900515Y-23938798D01*
X64890714Y-24057071D01*
X64689897Y-24057071D01*
X64719669Y-24027299D01*
X64276734Y-23584364D01*
X64253416Y-23551957D01*
X64197870Y-23440404D01*
X64192258Y-23432973D01*
X64073890Y-23276227D01*
X64073888Y-23276224D01*
X63921853Y-23137627D01*
X63921848Y-23137623D01*
X63746937Y-23029323D01*
X63746931Y-23029321D01*
X63726820Y-23021530D01*
X64774560Y-23021530D01*
X65250000Y-23496970D01*
X65250001Y-23496970D01*
X65725438Y-23021530D01*
X65725438Y-23021529D01*
X65554961Y-22955487D01*
X65352818Y-22917700D01*
X65147182Y-22917700D01*
X64945038Y-22955487D01*
X64774560Y-23021529D01*
X64774560Y-23021530D01*
X63726820Y-23021530D01*
X63555095Y-22955003D01*
X63352866Y-22917200D01*
X63147134Y-22917200D01*
X62944905Y-22955003D01*
X62823588Y-23002001D01*
X62753068Y-23029321D01*
X62753062Y-23029323D01*
X62578151Y-23137623D01*
X62578146Y-23137627D01*
X62426112Y-23276224D01*
X62348953Y-23378399D01*
X62292844Y-23420035D01*
X62223132Y-23424726D01*
X62161950Y-23390984D01*
X62151045Y-23378398D01*
X62073889Y-23276227D01*
X62073887Y-23276224D01*
X61921852Y-23137627D01*
X61921847Y-23137623D01*
X61746936Y-23029323D01*
X61746930Y-23029321D01*
X61555094Y-22955003D01*
X61352865Y-22917200D01*
X61147133Y-22917200D01*
X60944904Y-22955003D01*
X60823587Y-23002001D01*
X60753067Y-23029321D01*
X60753061Y-23029323D01*
X60578150Y-23137623D01*
X60578145Y-23137627D01*
X60426111Y-23276223D01*
X60302128Y-23440405D01*
X60210430Y-23624559D01*
X60210426Y-23624569D01*
X60154125Y-23822450D01*
X60135143Y-24027300D01*
X60145660Y-24140795D01*
X60132245Y-24209364D01*
X60083888Y-24259796D01*
X60015942Y-24276079D01*
X59949980Y-24253042D01*
X59934508Y-24239917D01*
X59370803Y-23676212D01*
X59360980Y-23663950D01*
X59360759Y-23664134D01*
X59355786Y-23658122D01*
X59306776Y-23612099D01*
X59303977Y-23609386D01*
X59284477Y-23589885D01*
X59284471Y-23589880D01*
X59281286Y-23587409D01*
X59272434Y-23579848D01*
X59240582Y-23549938D01*
X59240580Y-23549936D01*
X59240577Y-23549935D01*
X59223029Y-23540288D01*
X59206763Y-23529604D01*
X59205177Y-23528374D01*
X59190936Y-23517327D01*
X59190935Y-23517326D01*
X59190932Y-23517324D01*
X59150849Y-23499978D01*
X59140363Y-23494841D01*
X59102094Y-23473803D01*
X59102092Y-23473802D01*
X59082693Y-23468822D01*
X59064281Y-23462518D01*
X59045898Y-23454562D01*
X59045892Y-23454560D01*
X59002760Y-23447729D01*
X58991322Y-23445361D01*
X58949020Y-23434500D01*
X58949019Y-23434500D01*
X58928984Y-23434500D01*
X58909586Y-23432973D01*
X58902162Y-23431797D01*
X58889805Y-23429840D01*
X58889804Y-23429840D01*
X58846325Y-23433950D01*
X58834656Y-23434500D01*
X58180453Y-23434500D01*
X58113414Y-23414815D01*
X58092772Y-23398181D01*
X54006356Y-19311765D01*
X53972871Y-19250442D01*
X53977855Y-19180750D01*
X54019727Y-19124817D01*
X54041629Y-19111703D01*
X54172734Y-19050568D01*
X54359139Y-18920047D01*
X54520047Y-18759139D01*
X54537710Y-18733912D01*
X54592285Y-18690289D01*
X54661783Y-18683094D01*
X54724138Y-18714615D01*
X54759553Y-18774844D01*
X54762574Y-18791778D01*
X54766401Y-18827373D01*
X54766403Y-18827379D01*
X54816645Y-18962086D01*
X54816649Y-18962093D01*
X54902809Y-19077187D01*
X54902812Y-19077190D01*
X55017906Y-19163350D01*
X55017913Y-19163354D01*
X55152620Y-19213596D01*
X55152627Y-19213598D01*
X55212155Y-19219999D01*
X55212172Y-19220000D01*
X55685000Y-19220000D01*
X55685000Y-18065097D01*
X55732359Y-18158045D01*
X55821955Y-18247641D01*
X55934852Y-18305165D01*
X56028519Y-18320000D01*
X56091481Y-18320000D01*
X56185148Y-18305165D01*
X56205098Y-18295000D01*
X56435000Y-18295000D01*
X56435000Y-19220000D01*
X56907828Y-19220000D01*
X56907844Y-19219999D01*
X56967372Y-19213598D01*
X56967379Y-19213596D01*
X57102086Y-19163354D01*
X57102093Y-19163350D01*
X57217187Y-19077190D01*
X57217190Y-19077187D01*
X57303350Y-18962093D01*
X57303354Y-18962086D01*
X57353596Y-18827379D01*
X57353598Y-18827372D01*
X57359999Y-18767844D01*
X57360000Y-18767827D01*
X57360000Y-18295000D01*
X56435000Y-18295000D01*
X56205098Y-18295000D01*
X56298045Y-18247641D01*
X56387641Y-18158045D01*
X56445165Y-18045148D01*
X56464986Y-17920000D01*
X56445165Y-17794852D01*
X56387641Y-17681955D01*
X56298045Y-17592359D01*
X56185148Y-17534835D01*
X56091481Y-17520000D01*
X56028519Y-17520000D01*
X55934852Y-17534835D01*
X55821955Y-17592359D01*
X55732359Y-17681955D01*
X55685000Y-17774902D01*
X55685000Y-16620000D01*
X56435000Y-16620000D01*
X56435000Y-17545000D01*
X57360000Y-17545000D01*
X57360000Y-17072172D01*
X57359999Y-17072155D01*
X57353598Y-17012627D01*
X57353596Y-17012620D01*
X57303354Y-16877913D01*
X57303350Y-16877906D01*
X57217190Y-16762812D01*
X57217187Y-16762809D01*
X57102093Y-16676649D01*
X57102086Y-16676645D01*
X56967379Y-16626403D01*
X56967372Y-16626401D01*
X56907844Y-16620000D01*
X56435000Y-16620000D01*
X55685000Y-16620000D01*
X55212155Y-16620000D01*
X55152627Y-16626401D01*
X55152620Y-16626403D01*
X55017913Y-16676645D01*
X55017906Y-16676649D01*
X54902812Y-16762809D01*
X54902809Y-16762812D01*
X54816649Y-16877906D01*
X54816645Y-16877913D01*
X54766403Y-17012620D01*
X54766401Y-17012626D01*
X54762574Y-17048221D01*
X54735835Y-17112772D01*
X54678441Y-17152618D01*
X54608616Y-17155110D01*
X54548528Y-17119456D01*
X54537710Y-17106086D01*
X54520045Y-17080858D01*
X54359141Y-16919954D01*
X54172734Y-16789432D01*
X54172732Y-16789431D01*
X53966497Y-16693261D01*
X53966488Y-16693258D01*
X53746697Y-16634366D01*
X53746693Y-16634365D01*
X53746692Y-16634365D01*
X53746691Y-16634364D01*
X53746686Y-16634364D01*
X53520002Y-16614532D01*
X53519998Y-16614532D01*
X53293313Y-16634364D01*
X53293302Y-16634366D01*
X53073511Y-16693258D01*
X53073502Y-16693261D01*
X52867267Y-16789431D01*
X52867265Y-16789432D01*
X52680858Y-16919954D01*
X52519954Y-17080858D01*
X52389432Y-17267265D01*
X52389431Y-17267267D01*
X52362382Y-17325275D01*
X52316209Y-17377714D01*
X52249016Y-17396866D01*
X52182135Y-17376650D01*
X52137618Y-17325275D01*
X52110568Y-17267267D01*
X52110567Y-17267265D01*
X52094950Y-17244962D01*
X51980047Y-17080861D01*
X51980045Y-17080858D01*
X51819141Y-16919954D01*
X51632734Y-16789432D01*
X51632732Y-16789431D01*
X51426497Y-16693261D01*
X51426488Y-16693258D01*
X51206697Y-16634366D01*
X51206693Y-16634365D01*
X51206692Y-16634365D01*
X51206691Y-16634364D01*
X51206686Y-16634364D01*
X50980002Y-16614532D01*
X50979998Y-16614532D01*
X50753313Y-16634364D01*
X50753302Y-16634366D01*
X50533511Y-16693258D01*
X50533502Y-16693261D01*
X50327267Y-16789431D01*
X50327265Y-16789432D01*
X50140858Y-16919954D01*
X49979954Y-17080858D01*
X49849432Y-17267265D01*
X49849431Y-17267267D01*
X49822382Y-17325275D01*
X49776209Y-17377714D01*
X49709016Y-17396866D01*
X49642135Y-17376650D01*
X49597618Y-17325275D01*
X49570568Y-17267267D01*
X49570567Y-17267265D01*
X49554950Y-17244962D01*
X49440047Y-17080861D01*
X49440045Y-17080858D01*
X49279141Y-16919954D01*
X49092734Y-16789432D01*
X49092732Y-16789431D01*
X48886497Y-16693261D01*
X48886488Y-16693258D01*
X48666697Y-16634366D01*
X48666693Y-16634365D01*
X48666692Y-16634365D01*
X48666691Y-16634364D01*
X48666686Y-16634364D01*
X48440002Y-16614532D01*
X48439998Y-16614532D01*
X48213313Y-16634364D01*
X48213302Y-16634366D01*
X47993511Y-16693258D01*
X47993502Y-16693261D01*
X47787267Y-16789431D01*
X47787265Y-16789432D01*
X47600858Y-16919954D01*
X47439954Y-17080858D01*
X47309432Y-17267265D01*
X47309431Y-17267267D01*
X47213261Y-17473502D01*
X47213258Y-17473511D01*
X47154366Y-17693302D01*
X47154364Y-17693313D01*
X47134532Y-17919998D01*
X47134532Y-17920001D01*
X47154364Y-18146686D01*
X47154366Y-18146697D01*
X47213258Y-18366488D01*
X47213261Y-18366497D01*
X47309431Y-18572732D01*
X47309432Y-18572734D01*
X47439954Y-18759141D01*
X47600858Y-18920045D01*
X47600861Y-18920047D01*
X47787266Y-19050568D01*
X47993504Y-19146739D01*
X48213308Y-19205635D01*
X48375230Y-19219801D01*
X48439998Y-19225468D01*
X48440000Y-19225468D01*
X48440002Y-19225468D01*
X48502511Y-19219999D01*
X48666692Y-19205635D01*
X48886496Y-19146739D01*
X49092734Y-19050568D01*
X49279139Y-18920047D01*
X49440047Y-18759139D01*
X49570568Y-18572734D01*
X49597618Y-18514724D01*
X49643790Y-18462285D01*
X49710983Y-18443133D01*
X49777865Y-18463348D01*
X49822381Y-18514724D01*
X49824440Y-18519139D01*
X49849429Y-18572728D01*
X49849432Y-18572734D01*
X49979954Y-18759141D01*
X50140858Y-18920045D01*
X50140861Y-18920047D01*
X50327266Y-19050568D01*
X50533504Y-19146739D01*
X50753308Y-19205635D01*
X50915230Y-19219801D01*
X50979998Y-19225468D01*
X50980000Y-19225468D01*
X50980002Y-19225468D01*
X51042511Y-19219999D01*
X51206692Y-19205635D01*
X51426496Y-19146739D01*
X51632734Y-19050568D01*
X51749389Y-18968885D01*
X51815592Y-18946560D01*
X51883359Y-18963570D01*
X51908190Y-18982781D01*
X57369197Y-24443788D01*
X57379022Y-24456051D01*
X57379243Y-24455869D01*
X57384211Y-24461874D01*
X57384213Y-24461876D01*
X57384214Y-24461877D01*
X57425622Y-24500762D01*
X57433222Y-24507899D01*
X57436021Y-24510612D01*
X57455522Y-24530114D01*
X57455526Y-24530117D01*
X57455529Y-24530120D01*
X57458702Y-24532581D01*
X57467574Y-24540159D01*
X57499418Y-24570062D01*
X57516976Y-24579714D01*
X57533235Y-24590395D01*
X57549064Y-24602673D01*
X57589155Y-24620021D01*
X57599626Y-24625151D01*
X57610007Y-24630858D01*
X57637902Y-24646194D01*
X57637904Y-24646195D01*
X57637908Y-24646197D01*
X57657316Y-24651180D01*
X57675719Y-24657481D01*
X57694101Y-24665436D01*
X57694102Y-24665436D01*
X57694104Y-24665437D01*
X57737250Y-24672270D01*
X57748672Y-24674636D01*
X57790981Y-24685500D01*
X57811016Y-24685500D01*
X57830414Y-24687026D01*
X57850194Y-24690159D01*
X57850195Y-24690160D01*
X57850195Y-24690159D01*
X57850196Y-24690160D01*
X57893675Y-24686050D01*
X57905344Y-24685500D01*
X58559548Y-24685500D01*
X58626587Y-24705185D01*
X58647229Y-24721819D01*
X61352590Y-27427181D01*
X61386075Y-27488504D01*
X61381091Y-27558196D01*
X61339219Y-27614129D01*
X61273755Y-27638546D01*
X61254102Y-27638390D01*
X61210002Y-27634532D01*
X61209998Y-27634532D01*
X60983313Y-27654364D01*
X60983302Y-27654366D01*
X60763511Y-27713258D01*
X60763502Y-27713261D01*
X60557267Y-27809431D01*
X60557265Y-27809432D01*
X60370858Y-27939954D01*
X60209954Y-28100858D01*
X60079432Y-28287265D01*
X60079431Y-28287267D01*
X60066989Y-28313950D01*
X60053668Y-28342518D01*
X60052382Y-28345275D01*
X60006209Y-28397714D01*
X59939016Y-28416866D01*
X59872135Y-28396650D01*
X59827618Y-28345275D01*
X59800568Y-28287266D01*
X59670047Y-28100861D01*
X59670045Y-28100858D01*
X59509141Y-27939954D01*
X59322734Y-27809432D01*
X59322732Y-27809431D01*
X59116497Y-27713261D01*
X59116488Y-27713258D01*
X58896697Y-27654366D01*
X58896693Y-27654365D01*
X58896692Y-27654365D01*
X58896691Y-27654364D01*
X58896686Y-27654364D01*
X58670002Y-27634532D01*
X58669998Y-27634532D01*
X58443313Y-27654364D01*
X58443302Y-27654366D01*
X58223511Y-27713258D01*
X58223502Y-27713261D01*
X58017267Y-27809431D01*
X58017265Y-27809432D01*
X57830858Y-27939954D01*
X57669954Y-28100858D01*
X57539432Y-28287265D01*
X57539431Y-28287267D01*
X57526989Y-28313950D01*
X57513668Y-28342518D01*
X57512382Y-28345275D01*
X57466209Y-28397714D01*
X57399016Y-28416866D01*
X57332135Y-28396650D01*
X57287618Y-28345275D01*
X57260568Y-28287266D01*
X57130047Y-28100861D01*
X57130045Y-28100858D01*
X56969141Y-27939954D01*
X56782734Y-27809432D01*
X56782732Y-27809431D01*
X56576497Y-27713261D01*
X56576488Y-27713258D01*
X56356697Y-27654366D01*
X56356693Y-27654365D01*
X56356692Y-27654365D01*
X56356691Y-27654364D01*
X56356686Y-27654364D01*
X56130002Y-27634532D01*
X56129998Y-27634532D01*
X55903313Y-27654364D01*
X55903302Y-27654366D01*
X55683511Y-27713258D01*
X55683502Y-27713261D01*
X55477267Y-27809431D01*
X55477265Y-27809432D01*
X55290858Y-27939954D01*
X55129954Y-28100858D01*
X54999432Y-28287265D01*
X54999431Y-28287267D01*
X54986989Y-28313950D01*
X54973668Y-28342518D01*
X54972382Y-28345275D01*
X54926209Y-28397714D01*
X54859016Y-28416866D01*
X54792135Y-28396650D01*
X54747618Y-28345275D01*
X54720568Y-28287266D01*
X54590047Y-28100861D01*
X54590045Y-28100858D01*
X54429141Y-27939954D01*
X54242734Y-27809432D01*
X54242732Y-27809431D01*
X54036497Y-27713261D01*
X54036488Y-27713258D01*
X53816697Y-27654366D01*
X53816693Y-27654365D01*
X53816692Y-27654365D01*
X53816691Y-27654364D01*
X53816686Y-27654364D01*
X53590002Y-27634532D01*
X53589998Y-27634532D01*
X53363313Y-27654364D01*
X53363302Y-27654366D01*
X53143511Y-27713258D01*
X53143502Y-27713261D01*
X52937267Y-27809431D01*
X52937265Y-27809432D01*
X52750858Y-27939954D01*
X52589954Y-28100858D01*
X52459432Y-28287265D01*
X52459431Y-28287267D01*
X52446989Y-28313950D01*
X52433668Y-28342518D01*
X52432382Y-28345275D01*
X52386209Y-28397714D01*
X52319016Y-28416866D01*
X52252135Y-28396650D01*
X52207618Y-28345275D01*
X52180568Y-28287266D01*
X52050047Y-28100861D01*
X52050045Y-28100858D01*
X51889141Y-27939954D01*
X51702734Y-27809432D01*
X51702732Y-27809431D01*
X51496497Y-27713261D01*
X51496488Y-27713258D01*
X51276697Y-27654366D01*
X51276693Y-27654365D01*
X51276692Y-27654365D01*
X51276691Y-27654364D01*
X51276686Y-27654364D01*
X51050002Y-27634532D01*
X51049998Y-27634532D01*
X50823313Y-27654364D01*
X50823302Y-27654366D01*
X50603511Y-27713258D01*
X50603502Y-27713261D01*
X50397267Y-27809431D01*
X50397265Y-27809432D01*
X50210858Y-27939954D01*
X50049954Y-28100858D01*
X49948583Y-28245633D01*
X49919432Y-28287266D01*
X49893668Y-28342518D01*
X49892106Y-28345867D01*
X49845933Y-28398306D01*
X49778739Y-28417457D01*
X49711858Y-28397241D01*
X49667342Y-28345865D01*
X49640135Y-28287520D01*
X49640134Y-28287518D01*
X49509657Y-28101179D01*
X49348820Y-27940342D01*
X49162482Y-27809865D01*
X48956324Y-27713733D01*
X48956321Y-27713732D01*
X48885000Y-27694620D01*
X48885000Y-28794902D01*
X48837641Y-28701955D01*
X48748045Y-28612359D01*
X48635148Y-28554835D01*
X48541481Y-28540000D01*
X48478519Y-28540000D01*
X48384852Y-28554835D01*
X48271955Y-28612359D01*
X48182359Y-28701955D01*
X48135000Y-28794902D01*
X48135000Y-27694621D01*
X48134999Y-27694620D01*
X48063678Y-27713732D01*
X48063675Y-27713733D01*
X47857517Y-27809865D01*
X47666750Y-27943444D01*
X47665481Y-27941632D01*
X47610144Y-27965822D01*
X47541157Y-27954753D01*
X47489106Y-27908144D01*
X47470500Y-27842813D01*
X47470500Y-26686357D01*
X47490185Y-26619318D01*
X47542989Y-26573563D01*
X47612147Y-26563619D01*
X47665624Y-26584783D01*
X47787510Y-26670129D01*
X47787516Y-26670133D01*
X47993676Y-26766267D01*
X48065000Y-26785377D01*
X48065000Y-25685097D01*
X48112359Y-25778045D01*
X48201955Y-25867641D01*
X48314852Y-25925165D01*
X48408519Y-25940000D01*
X48471481Y-25940000D01*
X48565148Y-25925165D01*
X48585098Y-25915000D01*
X48815000Y-25915000D01*
X48815000Y-26785376D01*
X48886323Y-26766267D01*
X48886324Y-26766267D01*
X49092482Y-26670134D01*
X49278820Y-26539657D01*
X49439657Y-26378820D01*
X49570134Y-26192481D01*
X49570135Y-26192479D01*
X49597618Y-26133543D01*
X49643790Y-26081103D01*
X49710983Y-26061951D01*
X49777864Y-26082166D01*
X49822382Y-26133543D01*
X49849864Y-26192479D01*
X49849865Y-26192481D01*
X49980342Y-26378820D01*
X50141179Y-26539657D01*
X50327517Y-26670134D01*
X50533676Y-26766267D01*
X50605000Y-26785377D01*
X50605000Y-25915000D01*
X48815000Y-25915000D01*
X48585098Y-25915000D01*
X48678045Y-25867641D01*
X48767641Y-25778045D01*
X48825165Y-25665148D01*
X48844986Y-25540000D01*
X48825165Y-25414852D01*
X48767641Y-25301955D01*
X48678045Y-25212359D01*
X48585098Y-25165000D01*
X50834902Y-25165000D01*
X50741955Y-25212359D01*
X50652359Y-25301955D01*
X50594835Y-25414852D01*
X50575014Y-25540000D01*
X50594835Y-25665148D01*
X50652359Y-25778045D01*
X50741955Y-25867641D01*
X50854852Y-25925165D01*
X50948519Y-25940000D01*
X51011481Y-25940000D01*
X51105148Y-25925165D01*
X51218045Y-25867641D01*
X51307641Y-25778045D01*
X51355000Y-25685097D01*
X51355000Y-26785376D01*
X51426323Y-26766267D01*
X51426324Y-26766267D01*
X51632482Y-26670134D01*
X51818820Y-26539657D01*
X51979657Y-26378820D01*
X52110132Y-26192484D01*
X52137341Y-26134134D01*
X52183513Y-26081695D01*
X52250707Y-26062542D01*
X52317588Y-26082757D01*
X52362105Y-26134132D01*
X52384088Y-26181275D01*
X52389431Y-26192732D01*
X52389432Y-26192734D01*
X52519954Y-26379141D01*
X52680858Y-26540045D01*
X52680861Y-26540047D01*
X52867266Y-26670568D01*
X53073504Y-26766739D01*
X53293308Y-26825635D01*
X53455230Y-26839801D01*
X53519998Y-26845468D01*
X53520000Y-26845468D01*
X53520002Y-26845468D01*
X53576673Y-26840509D01*
X53746692Y-26825635D01*
X53966496Y-26766739D01*
X54172734Y-26670568D01*
X54359139Y-26540047D01*
X54520047Y-26379139D01*
X54650568Y-26192734D01*
X54677618Y-26134724D01*
X54723790Y-26082285D01*
X54790983Y-26063133D01*
X54857865Y-26083348D01*
X54902381Y-26134724D01*
X54916517Y-26165038D01*
X54929429Y-26192728D01*
X54929432Y-26192734D01*
X55059954Y-26379141D01*
X55220858Y-26540045D01*
X55220861Y-26540047D01*
X55407266Y-26670568D01*
X55613504Y-26766739D01*
X55833308Y-26825635D01*
X55995230Y-26839801D01*
X56059998Y-26845468D01*
X56060000Y-26845468D01*
X56060002Y-26845468D01*
X56116673Y-26840509D01*
X56286692Y-26825635D01*
X56506496Y-26766739D01*
X56712734Y-26670568D01*
X56899139Y-26540047D01*
X57060047Y-26379139D01*
X57190568Y-26192734D01*
X57286739Y-25986496D01*
X57345635Y-25766692D01*
X57364439Y-25551766D01*
X57365468Y-25540001D01*
X57365468Y-25539998D01*
X57348675Y-25348054D01*
X57345635Y-25313308D01*
X57286739Y-25093504D01*
X57190568Y-24887266D01*
X57060047Y-24700861D01*
X57060045Y-24700858D01*
X56899141Y-24539954D01*
X56712734Y-24409432D01*
X56712732Y-24409431D01*
X56506497Y-24313261D01*
X56506488Y-24313258D01*
X56286697Y-24254366D01*
X56286688Y-24254364D01*
X56224903Y-24248958D01*
X56159835Y-24223504D01*
X56148032Y-24213111D01*
X54717566Y-22782646D01*
X54715373Y-22780397D01*
X54655061Y-22716949D01*
X54655060Y-22716948D01*
X54655059Y-22716947D01*
X54606640Y-22683246D01*
X54599120Y-22677575D01*
X54553413Y-22640305D01*
X54553406Y-22640301D01*
X54526441Y-22626216D01*
X54513026Y-22618089D01*
X54488049Y-22600705D01*
X54488046Y-22600703D01*
X54488045Y-22600703D01*
X54488041Y-22600701D01*
X54433845Y-22577443D01*
X54425336Y-22573402D01*
X54373057Y-22546094D01*
X54373046Y-22546090D01*
X54343806Y-22537723D01*
X54329021Y-22532459D01*
X54301058Y-22520459D01*
X54243273Y-22508583D01*
X54234127Y-22506338D01*
X54177423Y-22490113D01*
X54153699Y-22488306D01*
X54147072Y-22487801D01*
X54131533Y-22485622D01*
X54101742Y-22479500D01*
X54101741Y-22479500D01*
X54042759Y-22479500D01*
X54033344Y-22479142D01*
X54030643Y-22478936D01*
X53974524Y-22474662D01*
X53944349Y-22478506D01*
X53928682Y-22479500D01*
X47984237Y-22479500D01*
X47981097Y-22479460D01*
X47943444Y-22478506D01*
X47893636Y-22477244D01*
X47893635Y-22477244D01*
X47893626Y-22477244D01*
X47835582Y-22487648D01*
X47826253Y-22488957D01*
X47767564Y-22494925D01*
X47738527Y-22504035D01*
X47723288Y-22507775D01*
X47693349Y-22513141D01*
X47638567Y-22535022D01*
X47629698Y-22538179D01*
X47573414Y-22555840D01*
X47573410Y-22555842D01*
X47546811Y-22570605D01*
X47532638Y-22577336D01*
X47504382Y-22588623D01*
X47504378Y-22588625D01*
X47455122Y-22621086D01*
X47447069Y-22625965D01*
X47395501Y-22654588D01*
X47372413Y-22674408D01*
X47359887Y-22683852D01*
X47334485Y-22700594D01*
X47334478Y-22700600D01*
X47292774Y-22742303D01*
X47285869Y-22748703D01*
X47241102Y-22787136D01*
X47222480Y-22811193D01*
X47212108Y-22822969D01*
X45772645Y-24262433D01*
X45770398Y-24264625D01*
X45706946Y-24324942D01*
X45673245Y-24373361D01*
X45667574Y-24380882D01*
X45630302Y-24426592D01*
X45630298Y-24426598D01*
X45616209Y-24453568D01*
X45608082Y-24466983D01*
X45590702Y-24491955D01*
X45567438Y-24546165D01*
X45563398Y-24554672D01*
X45536090Y-24606951D01*
X45536090Y-24606952D01*
X45527720Y-24636201D01*
X45522459Y-24650979D01*
X45510459Y-24678943D01*
X45498588Y-24736711D01*
X45496342Y-24745860D01*
X45480113Y-24802577D01*
X45477802Y-24832926D01*
X45475622Y-24848466D01*
X45469500Y-24878258D01*
X45469500Y-24937240D01*
X45469142Y-24946656D01*
X45464662Y-25005474D01*
X45468506Y-25035649D01*
X45469500Y-25051317D01*
X45469500Y-35607240D01*
X45469142Y-35616656D01*
X45464662Y-35675474D01*
X45468506Y-35705649D01*
X45469500Y-35721317D01*
X45469500Y-40305721D01*
X45469460Y-40308861D01*
X45467243Y-40396362D01*
X45467243Y-40396371D01*
X45477648Y-40454420D01*
X45478956Y-40463748D01*
X45484925Y-40522430D01*
X45484927Y-40522444D01*
X45494033Y-40551468D01*
X45497772Y-40566701D01*
X45503142Y-40596653D01*
X45503142Y-40596655D01*
X45525020Y-40651424D01*
X45528177Y-40660292D01*
X45545841Y-40716588D01*
X45545842Y-40716589D01*
X45545844Y-40716595D01*
X45560603Y-40743185D01*
X45567336Y-40757361D01*
X45578622Y-40785614D01*
X45578627Y-40785624D01*
X45611080Y-40834866D01*
X45615962Y-40842923D01*
X45644588Y-40894498D01*
X45644589Y-40894500D01*
X45644591Y-40894502D01*
X45664410Y-40917588D01*
X45673855Y-40930115D01*
X45690599Y-40955521D01*
X45732299Y-40997220D01*
X45738704Y-41004131D01*
X45753504Y-41021370D01*
X45777134Y-41048895D01*
X45801187Y-41067513D01*
X45812968Y-41077889D01*
X47692537Y-42957458D01*
X47694730Y-42959707D01*
X47755026Y-43023138D01*
X47755029Y-43023141D01*
X47803436Y-43056834D01*
X47810957Y-43062505D01*
X47856675Y-43099782D01*
X47856678Y-43099783D01*
X47856681Y-43099786D01*
X47883653Y-43113874D01*
X47897068Y-43122003D01*
X47922039Y-43139383D01*
X47965121Y-43157871D01*
X47976251Y-43162647D01*
X47984751Y-43166683D01*
X48037039Y-43193997D01*
X48066287Y-43202365D01*
X48081063Y-43207626D01*
X48109030Y-43219628D01*
X48109033Y-43219628D01*
X48109034Y-43219629D01*
X48166801Y-43231500D01*
X48175954Y-43233746D01*
X48232670Y-43249975D01*
X48263002Y-43252284D01*
X48278551Y-43254465D01*
X48308343Y-43260588D01*
X48308347Y-43260588D01*
X48367330Y-43260588D01*
X48376744Y-43260945D01*
X48385098Y-43261582D01*
X48435564Y-43265425D01*
X48435564Y-43265424D01*
X48435565Y-43265425D01*
X48465740Y-43261581D01*
X48481407Y-43260588D01*
X48828561Y-43260588D01*
X48895600Y-43280273D01*
X48902872Y-43285321D01*
X48913096Y-43292975D01*
X48927668Y-43303883D01*
X48927671Y-43303885D01*
X49062517Y-43354179D01*
X49062516Y-43354179D01*
X49069444Y-43354923D01*
X49122127Y-43360588D01*
X50417872Y-43360587D01*
X50477483Y-43354179D01*
X50612331Y-43303884D01*
X50637128Y-43285321D01*
X50702592Y-43260904D01*
X50711439Y-43260588D01*
X54565634Y-43260588D01*
X54568776Y-43260628D01*
X54656271Y-43262845D01*
X54656271Y-43262844D01*
X54656276Y-43262845D01*
X54714338Y-43252437D01*
X54723667Y-43251129D01*
X54782351Y-43245162D01*
X54811384Y-43236052D01*
X54826613Y-43232314D01*
X54856566Y-43226946D01*
X54856570Y-43226944D01*
X54856572Y-43226944D01*
X54911336Y-43205068D01*
X54920205Y-43201909D01*
X54976501Y-43184247D01*
X55003113Y-43169475D01*
X55017275Y-43162750D01*
X55045530Y-43151465D01*
X55094792Y-43118997D01*
X55102823Y-43114131D01*
X55154415Y-43085497D01*
X55154422Y-43085490D01*
X55154425Y-43085489D01*
X55177496Y-43065682D01*
X55190038Y-43056225D01*
X55215432Y-43039490D01*
X55233709Y-43021213D01*
X55248102Y-43006820D01*
X55309424Y-42973334D01*
X55335784Y-42970500D01*
X55692871Y-42970500D01*
X55692872Y-42970500D01*
X55752483Y-42964092D01*
X55887331Y-42913797D01*
X55887335Y-42913793D01*
X55895118Y-42909545D01*
X55896167Y-42911466D01*
X55950219Y-42891301D01*
X55995067Y-42896322D01*
X56015000Y-42902367D01*
X56015000Y-42852181D01*
X56034685Y-42785142D01*
X56039721Y-42777886D01*
X56088796Y-42712332D01*
X56139091Y-42577484D01*
X56145500Y-42517874D01*
X56145499Y-42004898D01*
X56209052Y-42054364D01*
X56327424Y-42095001D01*
X56421073Y-42095001D01*
X56513446Y-42079587D01*
X56623514Y-42020020D01*
X56635630Y-42006857D01*
X56649337Y-42146032D01*
X56649338Y-42146034D01*
X56707977Y-42339342D01*
X56750358Y-42418632D01*
X56765000Y-42477084D01*
X56765000Y-42902367D01*
X56784149Y-42896559D01*
X56966014Y-42799349D01*
X57034417Y-42785107D01*
X57082921Y-42799349D01*
X57265654Y-42897022D01*
X57265656Y-42897022D01*
X57265659Y-42897024D01*
X57458967Y-42955663D01*
X57458971Y-42955663D01*
X57460500Y-42956127D01*
X57512186Y-42987107D01*
X57787544Y-43262465D01*
X57789737Y-43264714D01*
X57850052Y-43328165D01*
X57850060Y-43328171D01*
X57898474Y-43361868D01*
X57905983Y-43367529D01*
X57951705Y-43404811D01*
X57978677Y-43418899D01*
X57992094Y-43427029D01*
X58017063Y-43444408D01*
X58071275Y-43467672D01*
X58079775Y-43471708D01*
X58132063Y-43499022D01*
X58161311Y-43507390D01*
X58176087Y-43512651D01*
X58204054Y-43524653D01*
X58204057Y-43524653D01*
X58204058Y-43524654D01*
X58261825Y-43536525D01*
X58270978Y-43538771D01*
X58327694Y-43555000D01*
X58358026Y-43557309D01*
X58373575Y-43559490D01*
X58403367Y-43565613D01*
X58403371Y-43565613D01*
X58462353Y-43565613D01*
X58471767Y-43565970D01*
X58480121Y-43566607D01*
X58530587Y-43570450D01*
X58530587Y-43570449D01*
X58530588Y-43570450D01*
X58560763Y-43566606D01*
X58576430Y-43565613D01*
X61032820Y-43565613D01*
X61099859Y-43585298D01*
X61132085Y-43615300D01*
X61212454Y-43722659D01*
X61258643Y-43757236D01*
X61327664Y-43808906D01*
X61327671Y-43808910D01*
X61462517Y-43859204D01*
X61462516Y-43859204D01*
X61469444Y-43859948D01*
X61522127Y-43865613D01*
X63217872Y-43865612D01*
X63219329Y-43865612D01*
X63286368Y-43885297D01*
X63307010Y-43901931D01*
X63703181Y-44298102D01*
X63736666Y-44359425D01*
X63739500Y-44385783D01*
X63739500Y-46396326D01*
X63719815Y-46463365D01*
X63667011Y-46509120D01*
X63636976Y-46513438D01*
X62630000Y-47520417D01*
X62630000Y-47520418D01*
X62297147Y-47853269D01*
X62235824Y-47886753D01*
X62209467Y-47889587D01*
X61982130Y-47889587D01*
X61982123Y-47889588D01*
X61922516Y-47895995D01*
X61787671Y-47946289D01*
X61787668Y-47946291D01*
X61762872Y-47964854D01*
X61697408Y-47989271D01*
X61688561Y-47989587D01*
X60888381Y-47989587D01*
X60821342Y-47969902D01*
X60800700Y-47953268D01*
X60286818Y-47439386D01*
X60253333Y-47378063D01*
X60250499Y-47351705D01*
X60250499Y-46990087D01*
X61525287Y-46990087D01*
X61544096Y-47193076D01*
X61544097Y-47193079D01*
X61599881Y-47389143D01*
X61599886Y-47389154D01*
X61633365Y-47456391D01*
X62099670Y-46990087D01*
X62099670Y-46990086D01*
X62071511Y-46961927D01*
X62326105Y-46961927D01*
X62336454Y-47073608D01*
X62386448Y-47174009D01*
X62469334Y-47249571D01*
X62573920Y-47290087D01*
X62657802Y-47290087D01*
X62740250Y-47274675D01*
X62835610Y-47215630D01*
X62903201Y-47126125D01*
X62933895Y-47018247D01*
X62923546Y-46906566D01*
X62873552Y-46806165D01*
X62790666Y-46730603D01*
X62686080Y-46690087D01*
X62602198Y-46690087D01*
X62519750Y-46705499D01*
X62424390Y-46764544D01*
X62356799Y-46854049D01*
X62326105Y-46961927D01*
X62071511Y-46961927D01*
X61633365Y-46523781D01*
X61599888Y-46591014D01*
X61599881Y-46591030D01*
X61544097Y-46787094D01*
X61544096Y-46787097D01*
X61525287Y-46990086D01*
X61525287Y-46990087D01*
X60250499Y-46990087D01*
X60250499Y-46769617D01*
X60250498Y-46769611D01*
X60250497Y-46769604D01*
X60244091Y-46710005D01*
X60242410Y-46705499D01*
X60193797Y-46575159D01*
X60193793Y-46575152D01*
X60107547Y-46459943D01*
X60107544Y-46459940D01*
X59992335Y-46373694D01*
X59992328Y-46373690D01*
X59857482Y-46323396D01*
X59857483Y-46323396D01*
X59797883Y-46316989D01*
X59797881Y-46316988D01*
X59797873Y-46316988D01*
X59797864Y-46316988D01*
X58202129Y-46316988D01*
X58202123Y-46316989D01*
X58142516Y-46323396D01*
X58007671Y-46373690D01*
X58007664Y-46373694D01*
X57892455Y-46459940D01*
X57892452Y-46459943D01*
X57806206Y-46575152D01*
X57806202Y-46575159D01*
X57755908Y-46710005D01*
X57753694Y-46730603D01*
X57749501Y-46769611D01*
X57749500Y-46769623D01*
X57749500Y-46872558D01*
X57729815Y-46939597D01*
X57677011Y-46985352D01*
X57607853Y-46995296D01*
X57603968Y-46994674D01*
X57569262Y-46988554D01*
X56990330Y-47567487D01*
X56990330Y-47567488D01*
X57569261Y-48146419D01*
X57603967Y-48140300D01*
X57673406Y-48148044D01*
X57727636Y-48192100D01*
X57749438Y-48258481D01*
X57749500Y-48262415D01*
X57749500Y-48365357D01*
X57749501Y-48365364D01*
X57755908Y-48424971D01*
X57806202Y-48559816D01*
X57806206Y-48559823D01*
X57892452Y-48675032D01*
X57892455Y-48675035D01*
X58007664Y-48761281D01*
X58007671Y-48761285D01*
X58052618Y-48778049D01*
X58142517Y-48811579D01*
X58202127Y-48817988D01*
X58784217Y-48817987D01*
X58851256Y-48837671D01*
X58871898Y-48854306D01*
X59645411Y-49627819D01*
X59678896Y-49689142D01*
X59673912Y-49758834D01*
X59632040Y-49814767D01*
X59566576Y-49839184D01*
X59557730Y-49839500D01*
X51355783Y-49839500D01*
X51288744Y-49819815D01*
X51268102Y-49803181D01*
X51096818Y-49631898D01*
X51063333Y-49570575D01*
X51060499Y-49544216D01*
X51060500Y-49384499D01*
X51080185Y-49317460D01*
X51132989Y-49271705D01*
X51184500Y-49260500D01*
X53213209Y-49260500D01*
X53216351Y-49260540D01*
X53303846Y-49262757D01*
X53303846Y-49262756D01*
X53303851Y-49262757D01*
X53361913Y-49252349D01*
X53371242Y-49251041D01*
X53429926Y-49245074D01*
X53458959Y-49235964D01*
X53474188Y-49232226D01*
X53504141Y-49226858D01*
X53504145Y-49226856D01*
X53504147Y-49226856D01*
X53558911Y-49204980D01*
X53567780Y-49201821D01*
X53624076Y-49184159D01*
X53650688Y-49169387D01*
X53664850Y-49162662D01*
X53693105Y-49151377D01*
X53742367Y-49118909D01*
X53750398Y-49114043D01*
X53801990Y-49085409D01*
X53801997Y-49085402D01*
X53802000Y-49085401D01*
X53825071Y-49065594D01*
X53837613Y-49056137D01*
X53863007Y-49039402D01*
X53904707Y-48997701D01*
X53911619Y-48991295D01*
X53949630Y-48958663D01*
X53956383Y-48952866D01*
X53975012Y-48928798D01*
X53985372Y-48917035D01*
X54063037Y-48839370D01*
X54124358Y-48805887D01*
X54132878Y-48804593D01*
X54137969Y-48803695D01*
X54137977Y-48803695D01*
X54349330Y-48747063D01*
X54500119Y-48676749D01*
X55881067Y-48676749D01*
X56030840Y-48746589D01*
X56030849Y-48746593D01*
X56242105Y-48803198D01*
X56242115Y-48803200D01*
X56459999Y-48822263D01*
X56460001Y-48822263D01*
X56677884Y-48803200D01*
X56677894Y-48803198D01*
X56889150Y-48746593D01*
X56889159Y-48746589D01*
X57038932Y-48676749D01*
X56460001Y-48097818D01*
X56460000Y-48097818D01*
X55881067Y-48676749D01*
X54500119Y-48676749D01*
X54547639Y-48654590D01*
X54726877Y-48529086D01*
X54881598Y-48374365D01*
X55007102Y-48195127D01*
X55077895Y-48043310D01*
X55124065Y-47990873D01*
X55191258Y-47971721D01*
X55258139Y-47991936D01*
X55302657Y-48043312D01*
X55350737Y-48146420D01*
X55929670Y-47567488D01*
X56055014Y-47567488D01*
X56074835Y-47692636D01*
X56132359Y-47805533D01*
X56221955Y-47895129D01*
X56334852Y-47952653D01*
X56428519Y-47967488D01*
X56491481Y-47967488D01*
X56585148Y-47952653D01*
X56698045Y-47895129D01*
X56787641Y-47805533D01*
X56845165Y-47692636D01*
X56864986Y-47567488D01*
X56845165Y-47442340D01*
X56787641Y-47329443D01*
X56698045Y-47239847D01*
X56585148Y-47182323D01*
X56491481Y-47167488D01*
X56428519Y-47167488D01*
X56334852Y-47182323D01*
X56221955Y-47239847D01*
X56132359Y-47329443D01*
X56074835Y-47442340D01*
X56055014Y-47567488D01*
X55929670Y-47567488D01*
X55350736Y-46988554D01*
X55350735Y-46988555D01*
X55302657Y-47091662D01*
X55256485Y-47144102D01*
X55189292Y-47163254D01*
X55122411Y-47143039D01*
X55077894Y-47091665D01*
X55007102Y-46939850D01*
X55007100Y-46939847D01*
X55007099Y-46939845D01*
X54881599Y-46760612D01*
X54811074Y-46690087D01*
X54726877Y-46605890D01*
X54547639Y-46480386D01*
X54547640Y-46480386D01*
X54547638Y-46480385D01*
X54500113Y-46458224D01*
X55881066Y-46458224D01*
X56460000Y-47037158D01*
X56460001Y-47037158D01*
X57038932Y-46458225D01*
X57038932Y-46458224D01*
X56889164Y-46388387D01*
X56889150Y-46388382D01*
X56677894Y-46331777D01*
X56677884Y-46331775D01*
X56460001Y-46312713D01*
X56459999Y-46312713D01*
X56242115Y-46331775D01*
X56242105Y-46331777D01*
X56030847Y-46388383D01*
X55881066Y-46458224D01*
X54500113Y-46458224D01*
X54448484Y-46434149D01*
X54349330Y-46387913D01*
X54349326Y-46387912D01*
X54349322Y-46387910D01*
X54137977Y-46331281D01*
X53920002Y-46312211D01*
X53919998Y-46312211D01*
X53792151Y-46323396D01*
X53702023Y-46331281D01*
X53702020Y-46331281D01*
X53490677Y-46387910D01*
X53490668Y-46387914D01*
X53292361Y-46480386D01*
X53292357Y-46480388D01*
X53113121Y-46605890D01*
X52958402Y-46760609D01*
X52832900Y-46939845D01*
X52832898Y-46939849D01*
X52740424Y-47138158D01*
X52732537Y-47167595D01*
X52696172Y-47227255D01*
X52633324Y-47257783D01*
X52612763Y-47259500D01*
X51082716Y-47259500D01*
X51015677Y-47239815D01*
X50969922Y-47187011D01*
X50959978Y-47117853D01*
X50970333Y-47083096D01*
X50986267Y-47048923D01*
X50986269Y-47048918D01*
X51045139Y-46829211D01*
X51045141Y-46829200D01*
X51064966Y-46602603D01*
X51064966Y-46602598D01*
X51045141Y-46376001D01*
X51045139Y-46375990D01*
X50986269Y-46156283D01*
X50986265Y-46156274D01*
X50909541Y-45991737D01*
X62161980Y-45991737D01*
X62630000Y-46459757D01*
X62630001Y-46459757D01*
X63098018Y-45991737D01*
X63098018Y-45991736D01*
X62932323Y-45927547D01*
X62932320Y-45927546D01*
X62731928Y-45890087D01*
X62528072Y-45890087D01*
X62327679Y-45927546D01*
X62327676Y-45927547D01*
X62161980Y-45991736D01*
X62161980Y-45991737D01*
X50909541Y-45991737D01*
X50906886Y-45986044D01*
X50124370Y-46768559D01*
X50145165Y-46727749D01*
X50164986Y-46602601D01*
X50145165Y-46477453D01*
X50087641Y-46364556D01*
X49998045Y-46274960D01*
X49885148Y-46217436D01*
X49791481Y-46202601D01*
X49728519Y-46202601D01*
X49634852Y-46217436D01*
X49521955Y-46274960D01*
X49432359Y-46364556D01*
X49374835Y-46477453D01*
X49355014Y-46602601D01*
X49374835Y-46727749D01*
X49432359Y-46840646D01*
X49521955Y-46930242D01*
X49634852Y-46987766D01*
X49728519Y-47002601D01*
X49791481Y-47002601D01*
X49885148Y-46987766D01*
X49925959Y-46966971D01*
X49760000Y-47132931D01*
X49127147Y-47765782D01*
X49065824Y-47799267D01*
X49039467Y-47802101D01*
X48912130Y-47802101D01*
X48912123Y-47802102D01*
X48852516Y-47808509D01*
X48717671Y-47858803D01*
X48717664Y-47858807D01*
X48602455Y-47945053D01*
X48602452Y-47945056D01*
X48516206Y-48060265D01*
X48516202Y-48060272D01*
X48465908Y-48195118D01*
X48459501Y-48254717D01*
X48459500Y-48254736D01*
X48459500Y-49950471D01*
X48459501Y-49950477D01*
X48465908Y-50010084D01*
X48516202Y-50144929D01*
X48516206Y-50144936D01*
X48602452Y-50260145D01*
X48602455Y-50260148D01*
X48717664Y-50346394D01*
X48717671Y-50346398D01*
X48852516Y-50396692D01*
X48878419Y-50399476D01*
X48912127Y-50403101D01*
X48979945Y-50403100D01*
X49046984Y-50422784D01*
X49065379Y-50437226D01*
X49067130Y-50438890D01*
X49067134Y-50438895D01*
X49067138Y-50438898D01*
X49091187Y-50457513D01*
X49102968Y-50467889D01*
X50172450Y-51537371D01*
X50174643Y-51539620D01*
X50234940Y-51603052D01*
X50234947Y-51603058D01*
X50283352Y-51636748D01*
X50290869Y-51642415D01*
X50336593Y-51679698D01*
X50363565Y-51693786D01*
X50376980Y-51701915D01*
X50401951Y-51719295D01*
X50430105Y-51731377D01*
X50456163Y-51742559D01*
X50464675Y-51746602D01*
X50520173Y-51775592D01*
X50570480Y-51824078D01*
X50586587Y-51892066D01*
X50563380Y-51957969D01*
X50508227Y-52000864D01*
X50462761Y-52009500D01*
X46094143Y-52009500D01*
X46027104Y-51989815D01*
X45981349Y-51937011D01*
X45971405Y-51867853D01*
X45994876Y-51811190D01*
X46121214Y-51642421D01*
X46157226Y-51594315D01*
X46294367Y-51343161D01*
X46394369Y-51075046D01*
X46455196Y-50795428D01*
X46475610Y-50510000D01*
X46455196Y-50224572D01*
X46437872Y-50144936D01*
X46394371Y-49944962D01*
X46394370Y-49944960D01*
X46394369Y-49944954D01*
X46294367Y-49676839D01*
X46277139Y-49645289D01*
X46157229Y-49425690D01*
X46157224Y-49425682D01*
X45985745Y-49196612D01*
X45985729Y-49196594D01*
X45783405Y-48994270D01*
X45783387Y-48994254D01*
X45554317Y-48822775D01*
X45554309Y-48822770D01*
X45303166Y-48685635D01*
X45303167Y-48685635D01*
X45088287Y-48605489D01*
X45035046Y-48585631D01*
X45035043Y-48585630D01*
X45035037Y-48585628D01*
X44755433Y-48524804D01*
X44470001Y-48504390D01*
X44469999Y-48504390D01*
X44184566Y-48524804D01*
X43904962Y-48585628D01*
X43636833Y-48685635D01*
X43385690Y-48822770D01*
X43385682Y-48822775D01*
X43168810Y-48985123D01*
X43103346Y-49009540D01*
X43035073Y-48994688D01*
X42985668Y-48945282D01*
X42970500Y-48885856D01*
X42970500Y-46602603D01*
X48455034Y-46602603D01*
X48474858Y-46829200D01*
X48474860Y-46829211D01*
X48533730Y-47048918D01*
X48533734Y-47048927D01*
X48613113Y-47219157D01*
X49229670Y-46602601D01*
X48613112Y-45986043D01*
X48533735Y-46156269D01*
X48533730Y-46156283D01*
X48474860Y-46375990D01*
X48474858Y-46376001D01*
X48455034Y-46602598D01*
X48455034Y-46602603D01*
X42970500Y-46602603D01*
X42970500Y-45455713D01*
X49143442Y-45455713D01*
X49760000Y-46072271D01*
X49760001Y-46072271D01*
X50376556Y-45455714D01*
X50206326Y-45376335D01*
X50206317Y-45376331D01*
X49986610Y-45317461D01*
X49986599Y-45317459D01*
X49760002Y-45297635D01*
X49759998Y-45297635D01*
X49533400Y-45317459D01*
X49533389Y-45317461D01*
X49313682Y-45376331D01*
X49313668Y-45376336D01*
X49143442Y-45455713D01*
X42970500Y-45455713D01*
X42970500Y-19434143D01*
X42990185Y-19367104D01*
X43042989Y-19321349D01*
X43112147Y-19311405D01*
X43168810Y-19334876D01*
X43385682Y-19497224D01*
X43385690Y-19497229D01*
X43636833Y-19634364D01*
X43636832Y-19634364D01*
X43636836Y-19634365D01*
X43636839Y-19634367D01*
X43904954Y-19734369D01*
X43904960Y-19734370D01*
X43904962Y-19734371D01*
X44184566Y-19795195D01*
X44184568Y-19795195D01*
X44184572Y-19795196D01*
X44438220Y-19813337D01*
X44469999Y-19815610D01*
X44470000Y-19815610D01*
X44470001Y-19815610D01*
X44498595Y-19813564D01*
X44755428Y-19795196D01*
X45035046Y-19734369D01*
X45303161Y-19634367D01*
X45554315Y-19497226D01*
X45783395Y-19325739D01*
X45985739Y-19123395D01*
X46157226Y-18894315D01*
X46294367Y-18643161D01*
X46394369Y-18375046D01*
X46403574Y-18332732D01*
X46455195Y-18095433D01*
X46455195Y-18095432D01*
X46455196Y-18095428D01*
X46475610Y-17810000D01*
X46455196Y-17524572D01*
X46454201Y-17520000D01*
X46394371Y-17244962D01*
X46394370Y-17244960D01*
X46394369Y-17244954D01*
X46294367Y-16976839D01*
X46263305Y-16919954D01*
X46157229Y-16725690D01*
X46157224Y-16725682D01*
X45994876Y-16508810D01*
X45970459Y-16443346D01*
X45985311Y-16375073D01*
X46034716Y-16325668D01*
X46094143Y-16310500D01*
X77050330Y-16310500D01*
X77117369Y-16330185D01*
G37*
%TD.AperFunction*%
%TA.AperFunction,Conductor*%
G36*
X48885000Y-30185376D02*
G01*
X48956323Y-30166267D01*
X48956324Y-30166267D01*
X49162482Y-30070134D01*
X49348820Y-29939657D01*
X49509657Y-29778820D01*
X49640132Y-29592484D01*
X49667341Y-29534134D01*
X49713513Y-29481695D01*
X49780707Y-29462542D01*
X49847588Y-29482757D01*
X49892105Y-29534132D01*
X49911958Y-29576706D01*
X49919431Y-29592732D01*
X49919432Y-29592734D01*
X50049954Y-29779141D01*
X50210858Y-29940045D01*
X50210861Y-29940047D01*
X50397266Y-30070568D01*
X50603504Y-30166739D01*
X50823308Y-30225635D01*
X50980791Y-30239413D01*
X51049998Y-30245468D01*
X51050000Y-30245468D01*
X51050002Y-30245468D01*
X51106807Y-30240498D01*
X51276692Y-30225635D01*
X51496496Y-30166739D01*
X51702734Y-30070568D01*
X51889139Y-29940047D01*
X52050047Y-29779139D01*
X52180568Y-29592734D01*
X52207618Y-29534724D01*
X52253790Y-29482285D01*
X52320983Y-29463133D01*
X52387865Y-29483348D01*
X52432382Y-29534725D01*
X52459429Y-29592728D01*
X52459432Y-29592734D01*
X52589954Y-29779141D01*
X52750858Y-29940045D01*
X52750861Y-29940047D01*
X52937266Y-30070568D01*
X53143504Y-30166739D01*
X53363308Y-30225635D01*
X53520791Y-30239413D01*
X53589998Y-30245468D01*
X53590000Y-30245468D01*
X53590002Y-30245468D01*
X53646807Y-30240498D01*
X53816692Y-30225635D01*
X54036496Y-30166739D01*
X54242734Y-30070568D01*
X54429139Y-29940047D01*
X54590047Y-29779139D01*
X54720568Y-29592734D01*
X54747618Y-29534724D01*
X54793790Y-29482285D01*
X54860983Y-29463133D01*
X54927865Y-29483348D01*
X54972382Y-29534725D01*
X54999429Y-29592728D01*
X54999432Y-29592734D01*
X55129954Y-29779141D01*
X55290858Y-29940045D01*
X55290861Y-29940047D01*
X55477266Y-30070568D01*
X55683504Y-30166739D01*
X55903308Y-30225635D01*
X56060791Y-30239413D01*
X56129998Y-30245468D01*
X56130000Y-30245468D01*
X56130002Y-30245468D01*
X56186807Y-30240498D01*
X56356692Y-30225635D01*
X56576496Y-30166739D01*
X56782734Y-30070568D01*
X56969139Y-29940047D01*
X57130047Y-29779139D01*
X57260568Y-29592734D01*
X57287618Y-29534724D01*
X57333790Y-29482285D01*
X57400983Y-29463133D01*
X57467865Y-29483348D01*
X57512382Y-29534725D01*
X57539429Y-29592728D01*
X57539432Y-29592734D01*
X57669954Y-29779141D01*
X57830858Y-29940045D01*
X57830861Y-29940047D01*
X58017266Y-30070568D01*
X58223504Y-30166739D01*
X58443308Y-30225635D01*
X58600791Y-30239413D01*
X58669998Y-30245468D01*
X58670000Y-30245468D01*
X58670002Y-30245468D01*
X58726807Y-30240498D01*
X58896692Y-30225635D01*
X59116496Y-30166739D01*
X59322734Y-30070568D01*
X59509139Y-29940047D01*
X59670047Y-29779139D01*
X59800568Y-29592734D01*
X59827618Y-29534724D01*
X59873790Y-29482285D01*
X59940983Y-29463133D01*
X60007865Y-29483348D01*
X60052382Y-29534725D01*
X60079429Y-29592728D01*
X60079432Y-29592734D01*
X60209954Y-29779141D01*
X60370858Y-29940045D01*
X60370861Y-29940047D01*
X60557266Y-30070568D01*
X60763504Y-30166739D01*
X60983308Y-30225635D01*
X61140791Y-30239413D01*
X61209998Y-30245468D01*
X61210000Y-30245468D01*
X61210002Y-30245468D01*
X61266807Y-30240498D01*
X61436692Y-30225635D01*
X61505048Y-30207319D01*
X61574897Y-30208982D01*
X61624822Y-30239413D01*
X66349197Y-34963788D01*
X66359022Y-34976051D01*
X66359243Y-34975869D01*
X66364211Y-34981874D01*
X66364213Y-34981876D01*
X66364214Y-34981877D01*
X66390979Y-35007011D01*
X66413222Y-35027899D01*
X66416021Y-35030612D01*
X66435522Y-35050114D01*
X66435526Y-35050117D01*
X66435529Y-35050120D01*
X66438702Y-35052581D01*
X66447574Y-35060159D01*
X66479418Y-35090062D01*
X66496976Y-35099714D01*
X66513235Y-35110395D01*
X66529064Y-35122673D01*
X66569155Y-35140021D01*
X66579626Y-35145151D01*
X66602180Y-35157550D01*
X66617902Y-35166194D01*
X66617904Y-35166195D01*
X66617908Y-35166197D01*
X66637316Y-35171180D01*
X66655719Y-35177481D01*
X66674101Y-35185436D01*
X66674102Y-35185436D01*
X66674104Y-35185437D01*
X66717250Y-35192270D01*
X66728672Y-35194636D01*
X66770981Y-35205500D01*
X66791016Y-35205500D01*
X66810415Y-35207027D01*
X66830196Y-35210160D01*
X66870939Y-35206308D01*
X66873672Y-35206050D01*
X66885342Y-35205500D01*
X67115812Y-35205500D01*
X67182851Y-35225185D01*
X67217387Y-35258377D01*
X67329954Y-35419141D01*
X67335265Y-35424452D01*
X67368750Y-35485775D01*
X67363766Y-35555467D01*
X67335265Y-35599814D01*
X64042646Y-38892432D01*
X64040399Y-38894624D01*
X63976946Y-38954942D01*
X63943245Y-39003361D01*
X63937574Y-39010882D01*
X63900302Y-39056592D01*
X63900298Y-39056598D01*
X63886209Y-39083568D01*
X63878082Y-39096983D01*
X63860702Y-39121955D01*
X63837438Y-39176165D01*
X63833398Y-39184672D01*
X63806090Y-39236951D01*
X63806090Y-39236952D01*
X63797720Y-39266201D01*
X63792459Y-39280979D01*
X63780459Y-39308943D01*
X63768588Y-39366711D01*
X63766342Y-39375862D01*
X63749904Y-39433310D01*
X63712536Y-39492348D01*
X63649183Y-39521811D01*
X63579957Y-39512346D01*
X63526838Y-39466957D01*
X63518305Y-39451602D01*
X63516885Y-39448556D01*
X62900330Y-40065112D01*
X62900330Y-40065113D01*
X63516886Y-40681669D01*
X63531362Y-40679116D01*
X63549290Y-40658755D01*
X63616483Y-40639603D01*
X63683364Y-40659818D01*
X63728699Y-40712983D01*
X63739500Y-40763599D01*
X63739500Y-41320159D01*
X63719815Y-41387198D01*
X63667011Y-41432953D01*
X63597853Y-41442897D01*
X63534297Y-41413872D01*
X63527819Y-41407840D01*
X63527544Y-41407565D01*
X63412335Y-41321319D01*
X63412328Y-41321315D01*
X63277482Y-41271021D01*
X63277483Y-41271021D01*
X63217883Y-41264614D01*
X63217881Y-41264613D01*
X63217873Y-41264613D01*
X63217865Y-41264613D01*
X63090532Y-41264613D01*
X63023493Y-41244928D01*
X63002851Y-41228294D01*
X62370001Y-40595443D01*
X62370000Y-40595443D01*
X61737147Y-41228294D01*
X61675824Y-41261779D01*
X61649467Y-41264613D01*
X61522130Y-41264613D01*
X61522123Y-41264614D01*
X61462516Y-41271021D01*
X61327671Y-41321315D01*
X61327664Y-41321319D01*
X61212456Y-41407565D01*
X61212455Y-41407566D01*
X61212454Y-41407567D01*
X61132087Y-41514924D01*
X61076153Y-41556795D01*
X61032820Y-41564613D01*
X58970894Y-41564613D01*
X58903855Y-41544928D01*
X58883213Y-41528294D01*
X58702106Y-41347187D01*
X58671126Y-41295501D01*
X58670662Y-41293972D01*
X58670662Y-41293968D01*
X58612023Y-41100660D01*
X58612021Y-41100657D01*
X58612021Y-41100655D01*
X58516801Y-40922512D01*
X58516799Y-40922510D01*
X58516798Y-40922507D01*
X58477824Y-40875017D01*
X58388647Y-40766353D01*
X58232495Y-40638204D01*
X58232488Y-40638199D01*
X58054345Y-40542979D01*
X57861031Y-40484338D01*
X57660000Y-40464539D01*
X57458968Y-40484338D01*
X57265654Y-40542979D01*
X57082922Y-40640652D01*
X57014519Y-40654894D01*
X56966016Y-40640652D01*
X56784152Y-40543443D01*
X56784146Y-40543440D01*
X56765001Y-40537632D01*
X56765000Y-40537634D01*
X56765000Y-40962917D01*
X56750358Y-41021370D01*
X56707978Y-41100655D01*
X56649337Y-41293969D01*
X56635370Y-41435780D01*
X56570948Y-41385638D01*
X56452576Y-41345001D01*
X56358927Y-41345001D01*
X56266554Y-41360415D01*
X56156486Y-41419982D01*
X56145499Y-41431916D01*
X56145499Y-40922129D01*
X56139091Y-40862518D01*
X56128777Y-40834866D01*
X56088797Y-40727672D01*
X56088795Y-40727669D01*
X56087838Y-40726391D01*
X56054360Y-40681669D01*
X56039733Y-40662130D01*
X56015316Y-40596665D01*
X56015000Y-40587819D01*
X56015000Y-40537634D01*
X56014998Y-40537633D01*
X55995071Y-40543678D01*
X55925204Y-40544301D01*
X55895564Y-40529629D01*
X55895114Y-40530455D01*
X55887328Y-40526203D01*
X55752482Y-40475909D01*
X55752483Y-40475909D01*
X55692883Y-40469502D01*
X55692881Y-40469501D01*
X55692873Y-40469501D01*
X55692864Y-40469501D01*
X54547129Y-40469501D01*
X54547123Y-40469502D01*
X54487516Y-40475909D01*
X54352671Y-40526203D01*
X54352664Y-40526207D01*
X54237455Y-40612453D01*
X54237452Y-40612456D01*
X54151206Y-40727665D01*
X54151202Y-40727672D01*
X54100908Y-40862518D01*
X54097470Y-40894500D01*
X54094501Y-40922124D01*
X54094500Y-40922136D01*
X54094500Y-41135588D01*
X54074815Y-41202627D01*
X54022011Y-41248382D01*
X53970500Y-41259588D01*
X50711439Y-41259588D01*
X50644400Y-41239903D01*
X50637128Y-41234855D01*
X50612331Y-41216292D01*
X50612328Y-41216290D01*
X50477482Y-41165996D01*
X50477483Y-41165996D01*
X50417883Y-41159589D01*
X50417881Y-41159588D01*
X50417873Y-41159588D01*
X50417865Y-41159588D01*
X50190532Y-41159588D01*
X50123493Y-41139903D01*
X50102851Y-41123269D01*
X49770001Y-40790418D01*
X49770000Y-40790418D01*
X49437147Y-41123269D01*
X49375824Y-41156754D01*
X49349467Y-41159588D01*
X49122130Y-41159588D01*
X49122123Y-41159589D01*
X49062516Y-41165996D01*
X48927671Y-41216290D01*
X48919886Y-41220542D01*
X48918890Y-41218719D01*
X48864451Y-41239019D01*
X48796179Y-41224161D01*
X48767935Y-41203015D01*
X47825008Y-40260088D01*
X48665287Y-40260088D01*
X48684096Y-40463077D01*
X48684097Y-40463080D01*
X48739881Y-40659144D01*
X48739886Y-40659155D01*
X48773365Y-40726392D01*
X49239670Y-40260088D01*
X49239670Y-40260087D01*
X49211511Y-40231928D01*
X49466105Y-40231928D01*
X49476454Y-40343609D01*
X49526448Y-40444010D01*
X49609334Y-40519572D01*
X49713920Y-40560088D01*
X49797802Y-40560088D01*
X49880250Y-40544676D01*
X49975610Y-40485631D01*
X50043201Y-40396126D01*
X50073895Y-40288248D01*
X50071286Y-40260088D01*
X50300330Y-40260088D01*
X50766633Y-40726391D01*
X50800112Y-40659157D01*
X50800115Y-40659151D01*
X50855902Y-40463079D01*
X50855903Y-40463077D01*
X50874713Y-40260088D01*
X50874713Y-40260087D01*
X50856646Y-40065115D01*
X61065034Y-40065115D01*
X61084858Y-40291712D01*
X61084860Y-40291723D01*
X61143730Y-40511430D01*
X61143734Y-40511439D01*
X61223113Y-40681669D01*
X61839670Y-40065113D01*
X61965014Y-40065113D01*
X61984835Y-40190261D01*
X62042359Y-40303158D01*
X62131955Y-40392754D01*
X62244852Y-40450278D01*
X62338519Y-40465113D01*
X62401481Y-40465113D01*
X62495148Y-40450278D01*
X62608045Y-40392754D01*
X62697641Y-40303158D01*
X62755165Y-40190261D01*
X62774986Y-40065113D01*
X62755165Y-39939965D01*
X62697641Y-39827068D01*
X62608045Y-39737472D01*
X62495148Y-39679948D01*
X62401481Y-39665113D01*
X62338519Y-39665113D01*
X62244852Y-39679948D01*
X62131955Y-39737472D01*
X62042359Y-39827068D01*
X61984835Y-39939965D01*
X61965014Y-40065113D01*
X61839670Y-40065113D01*
X61223112Y-39448555D01*
X61143735Y-39618781D01*
X61143730Y-39618795D01*
X61084860Y-39838502D01*
X61084858Y-39838513D01*
X61065034Y-40065110D01*
X61065034Y-40065115D01*
X50856646Y-40065115D01*
X50855903Y-40057098D01*
X50855902Y-40057095D01*
X50800116Y-39861024D01*
X50800113Y-39861018D01*
X50766634Y-39793782D01*
X50300330Y-40260087D01*
X50300330Y-40260088D01*
X50071286Y-40260088D01*
X50063546Y-40176567D01*
X50013552Y-40076166D01*
X49930666Y-40000604D01*
X49826080Y-39960088D01*
X49742198Y-39960088D01*
X49659750Y-39975500D01*
X49564390Y-40034545D01*
X49496799Y-40124050D01*
X49466105Y-40231928D01*
X49211511Y-40231928D01*
X48773365Y-39793782D01*
X48739888Y-39861015D01*
X48739881Y-39861031D01*
X48684097Y-40057095D01*
X48684096Y-40057098D01*
X48665287Y-40260087D01*
X48665287Y-40260088D01*
X47825008Y-40260088D01*
X47506819Y-39941899D01*
X47473334Y-39880576D01*
X47470500Y-39854218D01*
X47470500Y-39261738D01*
X49301980Y-39261738D01*
X49770000Y-39729758D01*
X49770001Y-39729758D01*
X50238018Y-39261738D01*
X50238018Y-39261737D01*
X50072323Y-39197548D01*
X50072320Y-39197547D01*
X49871928Y-39160088D01*
X49668072Y-39160088D01*
X49467679Y-39197547D01*
X49467676Y-39197548D01*
X49301980Y-39261737D01*
X49301980Y-39261738D01*
X47470500Y-39261738D01*
X47470500Y-38918225D01*
X61753442Y-38918225D01*
X62370000Y-39534783D01*
X62370001Y-39534783D01*
X62986556Y-38918226D01*
X62816326Y-38838847D01*
X62816317Y-38838843D01*
X62596610Y-38779973D01*
X62596599Y-38779971D01*
X62370002Y-38760147D01*
X62369998Y-38760147D01*
X62143400Y-38779971D01*
X62143389Y-38779973D01*
X61923682Y-38838843D01*
X61923668Y-38838848D01*
X61753442Y-38918225D01*
X47470500Y-38918225D01*
X47470500Y-37657843D01*
X47490185Y-37590804D01*
X47542989Y-37545049D01*
X47612147Y-37535105D01*
X47665126Y-37558798D01*
X47666426Y-37556942D01*
X47774587Y-37632676D01*
X47857266Y-37690568D01*
X48063504Y-37786739D01*
X48063509Y-37786740D01*
X48063511Y-37786741D01*
X48071528Y-37788889D01*
X48283308Y-37845635D01*
X48445230Y-37859801D01*
X48509998Y-37865468D01*
X48510000Y-37865468D01*
X48510002Y-37865468D01*
X48566673Y-37860509D01*
X48736692Y-37845635D01*
X48956496Y-37786739D01*
X49162734Y-37690568D01*
X49349139Y-37560047D01*
X49510047Y-37399139D01*
X49640568Y-37212734D01*
X49667618Y-37154724D01*
X49713790Y-37102285D01*
X49780983Y-37083133D01*
X49847865Y-37103348D01*
X49892382Y-37154725D01*
X49919429Y-37212728D01*
X49919432Y-37212734D01*
X50049954Y-37399141D01*
X50210858Y-37560045D01*
X50210861Y-37560047D01*
X50397266Y-37690568D01*
X50603504Y-37786739D01*
X50603509Y-37786740D01*
X50603511Y-37786741D01*
X50611528Y-37788889D01*
X50823308Y-37845635D01*
X50985230Y-37859801D01*
X51049998Y-37865468D01*
X51050000Y-37865468D01*
X51050002Y-37865468D01*
X51106673Y-37860509D01*
X51276692Y-37845635D01*
X51496496Y-37786739D01*
X51702734Y-37690568D01*
X51889139Y-37560047D01*
X52050047Y-37399139D01*
X52180568Y-37212734D01*
X52207618Y-37154724D01*
X52253790Y-37102285D01*
X52320983Y-37083133D01*
X52387865Y-37103348D01*
X52432382Y-37154725D01*
X52459429Y-37212728D01*
X52459432Y-37212734D01*
X52589954Y-37399141D01*
X52750858Y-37560045D01*
X52750861Y-37560047D01*
X52937266Y-37690568D01*
X53143504Y-37786739D01*
X53143509Y-37786740D01*
X53143511Y-37786741D01*
X53151528Y-37788889D01*
X53363308Y-37845635D01*
X53525230Y-37859801D01*
X53589998Y-37865468D01*
X53590000Y-37865468D01*
X53590002Y-37865468D01*
X53646673Y-37860509D01*
X53816692Y-37845635D01*
X54036496Y-37786739D01*
X54242734Y-37690568D01*
X54429139Y-37560047D01*
X54590047Y-37399139D01*
X54720568Y-37212734D01*
X54747618Y-37154724D01*
X54793790Y-37102285D01*
X54860983Y-37083133D01*
X54927865Y-37103348D01*
X54972382Y-37154725D01*
X54999429Y-37212728D01*
X54999432Y-37212734D01*
X55129954Y-37399141D01*
X55290858Y-37560045D01*
X55290861Y-37560047D01*
X55477266Y-37690568D01*
X55683504Y-37786739D01*
X55683509Y-37786740D01*
X55683511Y-37786741D01*
X55691528Y-37788889D01*
X55903308Y-37845635D01*
X56065230Y-37859801D01*
X56129998Y-37865468D01*
X56130000Y-37865468D01*
X56130002Y-37865468D01*
X56186673Y-37860509D01*
X56356692Y-37845635D01*
X56576496Y-37786739D01*
X56782734Y-37690568D01*
X56969139Y-37560047D01*
X57130047Y-37399139D01*
X57260568Y-37212734D01*
X57287618Y-37154724D01*
X57333790Y-37102285D01*
X57400983Y-37083133D01*
X57467865Y-37103348D01*
X57512382Y-37154725D01*
X57539429Y-37212728D01*
X57539432Y-37212734D01*
X57669954Y-37399141D01*
X57830858Y-37560045D01*
X57830861Y-37560047D01*
X58017266Y-37690568D01*
X58223504Y-37786739D01*
X58223509Y-37786740D01*
X58223511Y-37786741D01*
X58231528Y-37788889D01*
X58443308Y-37845635D01*
X58605230Y-37859801D01*
X58669998Y-37865468D01*
X58670000Y-37865468D01*
X58670002Y-37865468D01*
X58726673Y-37860509D01*
X58896692Y-37845635D01*
X59116496Y-37786739D01*
X59322734Y-37690568D01*
X59509139Y-37560047D01*
X59670047Y-37399139D01*
X59800568Y-37212734D01*
X59827618Y-37154724D01*
X59873790Y-37102285D01*
X59940983Y-37083133D01*
X60007865Y-37103348D01*
X60052382Y-37154725D01*
X60079429Y-37212728D01*
X60079432Y-37212734D01*
X60209954Y-37399141D01*
X60370858Y-37560045D01*
X60370861Y-37560047D01*
X60557266Y-37690568D01*
X60763504Y-37786739D01*
X60763509Y-37786740D01*
X60763511Y-37786741D01*
X60771528Y-37788889D01*
X60983308Y-37845635D01*
X61145230Y-37859801D01*
X61209998Y-37865468D01*
X61210000Y-37865468D01*
X61210002Y-37865468D01*
X61266673Y-37860509D01*
X61436692Y-37845635D01*
X61656496Y-37786739D01*
X61862734Y-37690568D01*
X62049139Y-37560047D01*
X62210047Y-37399139D01*
X62340568Y-37212734D01*
X62367618Y-37154724D01*
X62413790Y-37102285D01*
X62480983Y-37083133D01*
X62547865Y-37103348D01*
X62592382Y-37154725D01*
X62619429Y-37212728D01*
X62619432Y-37212734D01*
X62749954Y-37399141D01*
X62910858Y-37560045D01*
X62910861Y-37560047D01*
X63097266Y-37690568D01*
X63303504Y-37786739D01*
X63303509Y-37786740D01*
X63303511Y-37786741D01*
X63311528Y-37788889D01*
X63523308Y-37845635D01*
X63685230Y-37859801D01*
X63749998Y-37865468D01*
X63750000Y-37865468D01*
X63750002Y-37865468D01*
X63806673Y-37860509D01*
X63976692Y-37845635D01*
X64196496Y-37786739D01*
X64402734Y-37690568D01*
X64589139Y-37560047D01*
X64750047Y-37399139D01*
X64880568Y-37212734D01*
X64976739Y-37006496D01*
X65035635Y-36786692D01*
X65055468Y-36560000D01*
X65035635Y-36333308D01*
X64976739Y-36113504D01*
X64880568Y-35907266D01*
X64750047Y-35720861D01*
X64750045Y-35720858D01*
X64589141Y-35559954D01*
X64402734Y-35429432D01*
X64402732Y-35429431D01*
X64196497Y-35333261D01*
X64196488Y-35333258D01*
X63976697Y-35274366D01*
X63976688Y-35274364D01*
X63914903Y-35268958D01*
X63849835Y-35243504D01*
X63838032Y-35233111D01*
X62407566Y-33802646D01*
X62405373Y-33800397D01*
X62345061Y-33736949D01*
X62345060Y-33736948D01*
X62345059Y-33736947D01*
X62296640Y-33703246D01*
X62289120Y-33697575D01*
X62243413Y-33660305D01*
X62243406Y-33660301D01*
X62216441Y-33646216D01*
X62203026Y-33638089D01*
X62178049Y-33620705D01*
X62178046Y-33620703D01*
X62178045Y-33620703D01*
X62178041Y-33620701D01*
X62123845Y-33597443D01*
X62115336Y-33593402D01*
X62063057Y-33566094D01*
X62063046Y-33566090D01*
X62033806Y-33557723D01*
X62019021Y-33552459D01*
X61991058Y-33540459D01*
X61933273Y-33528583D01*
X61924127Y-33526338D01*
X61867423Y-33510113D01*
X61843699Y-33508306D01*
X61837072Y-33507801D01*
X61821533Y-33505622D01*
X61791742Y-33499500D01*
X61791741Y-33499500D01*
X61732759Y-33499500D01*
X61723344Y-33499142D01*
X61720643Y-33498936D01*
X61664524Y-33494662D01*
X61634349Y-33498506D01*
X61618682Y-33499500D01*
X47634278Y-33499500D01*
X47631137Y-33499460D01*
X47591359Y-33498452D01*
X47524839Y-33477076D01*
X47480437Y-33423130D01*
X47470500Y-33374492D01*
X47470500Y-30037186D01*
X47490185Y-29970147D01*
X47542989Y-29924392D01*
X47612147Y-29914448D01*
X47665518Y-29938315D01*
X47666750Y-29936556D01*
X47857517Y-30070134D01*
X48063676Y-30166267D01*
X48135000Y-30185377D01*
X48135000Y-29085097D01*
X48182359Y-29178045D01*
X48271955Y-29267641D01*
X48384852Y-29325165D01*
X48478519Y-29340000D01*
X48541481Y-29340000D01*
X48635148Y-29325165D01*
X48748045Y-29267641D01*
X48837641Y-29178045D01*
X48885000Y-29085097D01*
X48885000Y-30185376D01*
G37*
%TD.AperFunction*%
%TA.AperFunction,Conductor*%
G36*
X48201955Y-25212359D02*
G01*
X48112359Y-25301955D01*
X48065000Y-25394902D01*
X48065000Y-25289000D01*
X48084685Y-25221961D01*
X48137489Y-25176206D01*
X48189000Y-25165000D01*
X48294902Y-25165000D01*
X48201955Y-25212359D01*
G37*
%TD.AperFunction*%
%TA.AperFunction,Conductor*%
G36*
X51298039Y-25184685D02*
G01*
X51343794Y-25237489D01*
X51355000Y-25289000D01*
X51355000Y-25394902D01*
X51307641Y-25301955D01*
X51218045Y-25212359D01*
X51125098Y-25165000D01*
X51231000Y-25165000D01*
X51298039Y-25184685D01*
G37*
%TD.AperFunction*%
%TD*%
M02*
