%TF.GenerationSoftware,KiCad,Pcbnew,7.0.11-7.0.11~ubuntu22.04.1*%
%TF.CreationDate,2024-09-26T16:57:11+02:00*%
%TF.ProjectId,BAU-Elec,4241552d-456c-4656-932e-6b696361645f,rev?*%
%TF.SameCoordinates,Original*%
%TF.FileFunction,Copper,L1,Top*%
%TF.FilePolarity,Positive*%
%FSLAX46Y46*%
G04 Gerber Fmt 4.6, Leading zero omitted, Abs format (unit mm)*
G04 Created by KiCad (PCBNEW 7.0.11-7.0.11~ubuntu22.04.1) date 2024-09-26 16:57:11*
%MOMM*%
%LPD*%
G01*
G04 APERTURE LIST*
%TA.AperFunction,ComponentPad*%
%ADD10R,1.200000X1.200000*%
%TD*%
%TA.AperFunction,ComponentPad*%
%ADD11C,1.200000*%
%TD*%
%TA.AperFunction,ComponentPad*%
%ADD12C,1.498600*%
%TD*%
%TA.AperFunction,ComponentPad*%
%ADD13C,1.600000*%
%TD*%
%TA.AperFunction,ComponentPad*%
%ADD14O,1.600000X1.600000*%
%TD*%
%TA.AperFunction,ComponentPad*%
%ADD15R,1.600000X1.600000*%
%TD*%
%TA.AperFunction,ComponentPad*%
%ADD16C,2.000000*%
%TD*%
%TA.AperFunction,ComponentPad*%
%ADD17R,2.000000X2.000000*%
%TD*%
%TA.AperFunction,ComponentPad*%
%ADD18C,1.219200*%
%TD*%
%TA.AperFunction,ComponentPad*%
%ADD19R,1.500000X1.500000*%
%TD*%
%TA.AperFunction,ComponentPad*%
%ADD20C,1.500000*%
%TD*%
%TA.AperFunction,ComponentPad*%
%ADD21R,1.905000X2.000000*%
%TD*%
%TA.AperFunction,ComponentPad*%
%ADD22O,1.905000X2.000000*%
%TD*%
%TA.AperFunction,ComponentPad*%
%ADD23R,1.050000X1.500000*%
%TD*%
%TA.AperFunction,ComponentPad*%
%ADD24O,1.050000X1.500000*%
%TD*%
%TA.AperFunction,Conductor*%
%ADD25C,0.250000*%
%TD*%
%TA.AperFunction,Conductor*%
%ADD26C,1.000000*%
%TD*%
G04 APERTURE END LIST*
D10*
%TO.P,C2,1*%
%TO.N,5V*%
X49770000Y-42260088D03*
D11*
%TO.P,C2,2*%
%TO.N,GND*%
X49770000Y-40260088D03*
%TD*%
D12*
%TO.P,bat_in-out1,1,1*%
%TO.N,GND*%
X73550122Y-42950000D03*
%TO.P,bat_in-out1,2,2*%
%TO.N,bat_in*%
X71050000Y-42950000D03*
%TO.P,bat_in-out1,3,3*%
%TO.N,bat_out*%
X68549878Y-42950000D03*
%TD*%
D13*
%TO.P,R2,1*%
%TO.N,5V*%
X85370000Y-17680000D03*
D14*
%TO.P,R2,2*%
%TO.N,primer_button*%
X77750000Y-17680000D03*
%TD*%
D15*
%TO.P,U2,1*%
%TO.N,Net-(NA555P1-Q)*%
X63750000Y-28940000D03*
D14*
%TO.P,U2,2*%
%TO.N,relay_control*%
X61210000Y-28940000D03*
%TO.P,U2,3*%
%TO.N,N/C*%
X58670000Y-28940000D03*
%TO.P,U2,4*%
X56130000Y-28940000D03*
%TO.P,U2,5*%
X53590000Y-28940000D03*
%TO.P,U2,6*%
X51050000Y-28940000D03*
%TO.P,U2,7,GND*%
%TO.N,GND*%
X48510000Y-28940000D03*
%TO.P,U2,8*%
%TO.N,N/C*%
X48510000Y-36560000D03*
%TO.P,U2,9*%
X51050000Y-36560000D03*
%TO.P,U2,10*%
X53590000Y-36560000D03*
%TO.P,U2,11*%
X56130000Y-36560000D03*
%TO.P,U2,12*%
X58670000Y-36560000D03*
%TO.P,U2,13*%
X61210000Y-36560000D03*
%TO.P,U2,14,VCC*%
%TO.N,5V*%
X63750000Y-36560000D03*
%TD*%
D13*
%TO.P,R4,1*%
%TO.N,green_led*%
X71560000Y-26960000D03*
D14*
%TO.P,R4,2*%
%TO.N,Net-(NA555P1-Q)*%
X71560000Y-34580000D03*
%TD*%
D15*
%TO.P,C1,1*%
%TO.N,10V*%
X62370000Y-42565113D03*
D13*
%TO.P,C1,2*%
%TO.N,GND*%
X62370000Y-40065113D03*
%TD*%
D16*
%TO.P,K1,11*%
%TO.N,bat_in*%
X79632500Y-42032500D03*
X87132500Y-42032500D03*
%TO.P,K1,12*%
%TO.N,unconnected-(K1-Pad12)*%
X79632500Y-37032500D03*
X87132500Y-37032500D03*
%TO.P,K1,14*%
%TO.N,bat_out*%
X79632500Y-47032500D03*
X87132500Y-47032500D03*
D17*
%TO.P,K1,A1*%
%TO.N,10V*%
X79632500Y-22032500D03*
D16*
%TO.P,K1,A2*%
%TO.N,Net-(P16NF06L1-D)*%
X87132500Y-22032500D03*
%TD*%
D18*
%TO.P,stop1,1,1*%
%TO.N,GND*%
X65250000Y-24027300D03*
%TO.P,stop1,2,2*%
%TO.N,stop_button*%
X63250000Y-24027300D03*
%TO.P,stop1,3,3*%
%TO.N,red_led*%
X61249999Y-24027300D03*
%TD*%
D19*
%TO.P,L78L10_TO92,1,VO*%
%TO.N,10V*%
X59000000Y-47567488D03*
D20*
%TO.P,L78L10_TO92,2,GND*%
%TO.N,GND*%
X56460000Y-47567488D03*
%TO.P,L78L10_TO92,3,VI*%
%TO.N,bat_in*%
X53920000Y-47567488D03*
%TD*%
D18*
%TO.P,starter1,1,1*%
%TO.N,GND*%
X74140000Y-24027300D03*
%TO.P,starter1,2,2*%
%TO.N,primer_button*%
X72140000Y-24027300D03*
%TO.P,starter1,3,3*%
%TO.N,green_led*%
X70139999Y-24027300D03*
%TD*%
D10*
%TO.P,C4,1*%
%TO.N,10V*%
X62630000Y-48990087D03*
D11*
%TO.P,C4,2*%
%TO.N,GND*%
X62630000Y-46990087D03*
%TD*%
D13*
%TO.P,R1,1*%
%TO.N,5V*%
X85330000Y-50580000D03*
D14*
%TO.P,R1,2*%
%TO.N,stop_button*%
X77710000Y-50580000D03*
%TD*%
D21*
%TO.P,P16NF06L1,1,G*%
%TO.N,relay_control*%
X68430000Y-39250000D03*
D22*
%TO.P,P16NF06L1,2,D*%
%TO.N,Net-(P16NF06L1-D)*%
X70970000Y-39250000D03*
%TO.P,P16NF06L1,3,S*%
%TO.N,GND*%
X73510000Y-39250000D03*
%TD*%
D15*
%TO.P,NA555P1,1,GND*%
%TO.N,GND*%
X56060000Y-17920000D03*
D14*
%TO.P,NA555P1,2,TR*%
%TO.N,stop_button*%
X53520000Y-17920000D03*
%TO.P,NA555P1,3,Q*%
%TO.N,Net-(NA555P1-Q)*%
X50980000Y-17920000D03*
%TO.P,NA555P1,4,R*%
%TO.N,primer_button*%
X48440000Y-17920000D03*
%TO.P,NA555P1,5,CV*%
%TO.N,GND*%
X48440000Y-25540000D03*
%TO.P,NA555P1,6,THR*%
X50980000Y-25540000D03*
%TO.P,NA555P1,7,DIS*%
%TO.N,unconnected-(NA555P1-DIS-Pad7)*%
X53520000Y-25540000D03*
%TO.P,NA555P1,8,VCC*%
%TO.N,5V*%
X56060000Y-25540000D03*
%TD*%
D13*
%TO.P,R3,1*%
%TO.N,relay_control*%
X74840000Y-34600000D03*
D14*
%TO.P,R3,2*%
%TO.N,GND*%
X74840000Y-26980000D03*
%TD*%
D23*
%TO.P,L78L05_TO92,1,VO*%
%TO.N,5V*%
X55120000Y-41720001D03*
D24*
%TO.P,L78L05_TO92,2,GND*%
%TO.N,GND*%
X56390000Y-41720001D03*
%TO.P,L78L05_TO92,3,VI*%
%TO.N,10V*%
X57660000Y-41720001D03*
%TD*%
D15*
%TO.P,C3,1*%
%TO.N,bat_in*%
X49760000Y-49102601D03*
D13*
%TO.P,C3,2*%
%TO.N,GND*%
X49760000Y-46602601D03*
%TD*%
%TO.P,R5,1*%
%TO.N,red_led*%
X68330000Y-26960000D03*
D14*
%TO.P,R5,2*%
%TO.N,relay_control*%
X68330000Y-34580000D03*
%TD*%
D25*
%TO.N,stop_button*%
X53520000Y-17920000D02*
X56800000Y-21200000D01*
X56800000Y-21200000D02*
X60422700Y-21200000D01*
X60422700Y-21200000D02*
X63250000Y-24027300D01*
%TO.N,primer_button*%
X72140000Y-24027300D02*
X77750000Y-18417300D01*
X77750000Y-18417300D02*
X77750000Y-17680000D01*
D26*
%TO.N,GND*%
X73510000Y-42909878D02*
X73550122Y-42950000D01*
D25*
%TO.N,5V*%
X85330000Y-50580000D02*
X85330000Y-49460000D01*
X85322110Y-17958495D02*
X85322110Y-17727890D01*
X85370000Y-17680000D02*
X83530000Y-19520000D01*
X88190000Y-48375271D02*
X88452941Y-48397059D01*
X77570000Y-20560000D02*
X78610000Y-19520000D01*
X87179822Y-48630000D02*
X87496854Y-48490936D01*
X87838636Y-48404386D02*
X88190000Y-48375271D01*
X86619429Y-19255814D02*
X85322110Y-17958495D01*
X86953187Y-19543187D02*
X86878822Y-19494602D01*
X77570000Y-28060000D02*
X77570000Y-20560000D01*
X88452941Y-48397059D02*
X89110000Y-47740000D01*
X87496854Y-48490936D02*
X87838636Y-48404386D01*
X69340000Y-30970000D02*
X74660000Y-30970000D01*
X86160000Y-48630000D02*
X87179822Y-48630000D01*
X74660000Y-30970000D02*
X77570000Y-28060000D01*
X78610000Y-19520000D02*
X83530000Y-19520000D01*
X63750000Y-36560000D02*
X69340000Y-30970000D01*
X86878822Y-19494602D02*
X86619429Y-19255814D01*
X89110000Y-47740000D02*
X89110000Y-21700000D01*
X85330000Y-49460000D02*
X86160000Y-48630000D01*
X89110000Y-21700000D02*
X86953187Y-19543187D01*
%TO.N,stop_button*%
X51820000Y-19620000D02*
X48740000Y-19620000D01*
X50005000Y-51885000D02*
X76405000Y-51885000D01*
X76405000Y-51885000D02*
X77710000Y-50580000D01*
X45170000Y-23190000D02*
X45170000Y-47050000D01*
X45170000Y-47050000D02*
X50005000Y-51885000D01*
X53520000Y-17920000D02*
X51820000Y-19620000D01*
X48740000Y-19620000D02*
X45170000Y-23190000D01*
%TO.N,primer_button*%
X49680000Y-16680000D02*
X48440000Y-17920000D01*
X77750000Y-17680000D02*
X76750000Y-16680000D01*
X76750000Y-16680000D02*
X49680000Y-16680000D01*
%TO.N,relay_control*%
X74840000Y-34600000D02*
X73430000Y-33190000D01*
X69720000Y-33190000D02*
X68330000Y-34580000D01*
X68330000Y-39150000D02*
X68430000Y-39250000D01*
X68330000Y-34580000D02*
X68330000Y-39150000D01*
X73430000Y-33190000D02*
X69720000Y-33190000D01*
%TD*%
M02*
