<?xml version="1.0" encoding="UTF-8" standalone="no"?>
<svg
   width="129.46913mm"
   height="149.40314mm"
   viewBox="0 0 1529.163 1764.604"
   version="1.2"
   id="svg34"
   sodipodi:docname="EdgeCut_MobileBase_HARP2.svg"
   inkscape:version="1.3.2 (091e20e, 2023-11-25)"
   xmlns:inkscape="http://www.inkscape.org/namespaces/inkscape"
   xmlns:sodipodi="http://sodipodi.sourceforge.net/DTD/sodipodi-0.dtd"
   xmlns="http://www.w3.org/2000/svg"
   xmlns:svg="http://www.w3.org/2000/svg">
  <sodipodi:namedview
     id="namedview34"
     pagecolor="#ffffff"
     bordercolor="#666666"
     borderopacity="1.0"
     inkscape:showpageshadow="2"
     inkscape:pageopacity="0.0"
     inkscape:pagecheckerboard="0"
     inkscape:deskcolor="#d1d1d1"
     inkscape:document-units="mm"
     showgrid="false"
     inkscape:zoom="0.79071971"
     inkscape:cx="239.65508"
     inkscape:cy="293.40359"
     inkscape:window-width="1850"
     inkscape:window-height="1016"
     inkscape:window-x="0"
     inkscape:window-y="0"
     inkscape:window-maximized="1"
     inkscape:current-layer="g34" />
  <defs
     id="defs1" />
  <g
     fill="none"
     stroke="#000000"
     stroke-width="1"
     fill-rule="evenodd"
     stroke-linecap="square"
     stroke-linejoin="bevel"
     id="g34"
     transform="translate(-902.937,-360.226)">
    <g
       fill="none"
       stroke="#000000"
       stroke-opacity="1"
       stroke-width="1"
       stroke-linecap="square"
       stroke-linejoin="bevel"
       font-family="Arial"
       font-size="12px"
       font-weight="400"
       font-style="normal"
       id="g2" />
    <g
       fill="#000000"
       fill-opacity="1"
       stroke="#000000"
       stroke-opacity="1"
       stroke-width="1"
       stroke-linecap="butt"
       stroke-linejoin="miter"
       stroke-miterlimit="2"
       font-family="Arial"
       font-size="12px"
       font-weight="400"
       font-style="normal"
       id="g3" />
    <g
       fill="#000000"
       fill-opacity="1"
       stroke="#000000"
       stroke-opacity="1"
       stroke-width="5"
       stroke-linecap="round"
       stroke-linejoin="bevel"
       font-family="Arial"
       font-size="12px"
       font-weight="400"
       font-style="normal"
       id="g32">
      <polyline
         fill="none"
         vector-effect="none"
         points="2008.58,1206.53 2008.6,1205.66 2008.63,1204.79 2008.68,1203.92 2008.76,1203.06 2008.85,1202.19 2008.97,1201.33 2009.11,1200.47 2009.27,1199.62 2009.45,1198.77 2009.65,1197.92 2009.87,1197.08 2010.11,1196.24 2010.37,1195.42 2010.66,1194.59 2010.96,1193.78 2011.28,1192.97 2011.62,1192.17 2011.99,1191.38 2012.37,1190.6 2012.77,1189.83 2013.19,1189.07 2013.63,1188.31 2014.08,1187.57 2014.56,1186.85 2015.05,1186.13 2015.56,1185.42 2016.08,1184.73 2016.63,1184.05 2017.19,1183.39 2017.76,1182.74 2018.36,1182.1 2018.96,1181.48 2019.59,1180.87 2020.22,1180.28 2020.87,1179.7 2021.54,1179.14 2022.22,1178.6 2022.91,1178.07 2023.62,1177.56 2024.33,1177.07 2025.06,1176.59 2025.8,1176.14 2026.55,1175.7 2027.31,1175.28 2028.09,1174.88 2028.87,1174.5 2029.66,1174.14 2030.46,1173.79 2031.27,1173.47 2032.08,1173.17 2032.9,1172.89 2033.73,1172.62 2034.57,1172.38 2035.41,1172.16 2036.25,1171.96 2037.11,1171.78 2037.96,1171.62 2038.82,1171.48 2039.68,1171.36 2040.54,1171.27 2041.41,1171.19 2042.28,1171.14 2043.15,1171.11 2044.02,1171.1 2044.89,1171.11 2045.76,1171.14 2046.62,1171.19 2047.49,1171.27 2048.36,1171.36 2049.22,1171.48 2050.08,1171.62 2050.93,1171.78 2051.78,1171.96 2052.63,1172.16 2053.47,1172.38 2054.3,1172.62 2055.13,1172.89 2055.95,1173.17 2056.77,1173.47 2057.58,1173.79 2058.38,1174.14 2059.17,1174.5 2059.95,1174.88 2060.72,1175.28 2061.48,1175.7 2062.23,1176.14 2062.97,1176.59 2063.7,1177.07 2064.42,1177.56 2065.13,1178.07 2065.82,1178.6 2066.5,1179.14 2067.16,1179.7 2067.81,1180.28 2068.45,1180.87 2069.07,1181.48 2069.68,1182.1 2070.27,1182.74 2070.85,1183.39 2071.41,1184.05 2071.95,1184.73 2072.48,1185.42 2072.99,1186.13 2073.48,1186.85 2073.95,1187.57 2074.41,1188.31 2074.85,1189.07 2075.27,1189.83 2075.67,1190.6 2076.05,1191.38 2076.41,1192.17 2076.75,1192.97 2077.08,1193.78 2077.38,1194.59 2077.66,1195.42 2077.93,1196.24 2078.17,1197.08 2078.39,1197.92 2078.59,1198.77 2078.77,1199.62 2078.93,1200.47 2079.07,1201.33 2079.18,1202.19 2079.28,1203.06 2079.35,1203.92 2079.41,1204.79 2079.44,1205.66 2079.45,1206.53 2079.44,1207.4 2079.41,1208.27 2079.35,1209.14 2079.28,1210 2079.18,1210.87 2079.07,1211.73 2078.93,1212.59 2078.77,1213.44 2078.59,1214.29 2078.39,1215.14 2078.17,1215.98 2077.93,1216.82 2077.66,1217.65 2077.38,1218.47 2077.08,1219.28 2076.75,1220.09 2076.41,1220.89 2076.05,1221.68 2075.67,1222.46 2075.27,1223.23 2074.85,1224 2074.41,1224.75 2073.95,1225.49 2073.48,1226.22 2072.99,1226.93 2072.48,1227.64 2071.95,1228.33 2071.41,1229.01 2070.85,1229.67 2070.27,1230.33 2069.68,1230.96 2069.07,1231.59 2068.45,1232.19 2067.81,1232.78 2067.16,1233.36 2066.5,1233.92 2065.82,1234.46 2065.13,1234.99 2064.42,1235.5 2063.7,1235.99 2062.97,1236.47 2062.23,1236.92 2061.48,1237.36 2060.72,1237.78 2059.95,1238.18 2059.17,1238.56 2058.38,1238.92 2057.58,1239.27 2056.77,1239.59 2055.95,1239.89 2055.13,1240.18 2054.3,1240.44 2053.47,1240.68 2052.63,1240.9 2051.78,1241.1 2050.93,1241.28 2050.08,1241.44 2049.22,1241.58 2048.36,1241.7 2047.49,1241.79 2046.62,1241.87 2045.76,1241.92 2044.89,1241.95 2044.02,1241.96 2043.15,1241.95 2042.28,1241.92 2041.41,1241.87 2040.54,1241.79 2039.68,1241.7 2038.82,1241.58 2037.96,1241.44 2037.11,1241.28 2036.25,1241.1 2035.41,1240.9 2034.57,1240.68 2033.73,1240.44 2032.9,1240.18 2032.08,1239.89 2031.27,1239.59 2030.46,1239.27 2029.66,1238.92 2028.87,1238.56 2028.09,1238.18 2027.31,1237.78 2026.55,1237.36 2025.8,1236.92 2025.06,1236.47 2024.33,1235.99 2023.62,1235.5 2022.91,1234.99 2022.22,1234.46 2021.54,1233.92 2020.87,1233.36 2020.22,1232.78 2019.59,1232.19 2018.96,1231.59 2018.36,1230.96 2017.76,1230.33 2017.19,1229.67 2016.63,1229.01 2016.08,1228.33 2015.56,1227.64 2015.05,1226.93 2014.56,1226.22 2014.08,1225.49 2013.63,1224.75 2013.19,1224 2012.77,1223.23 2012.37,1222.46 2011.99,1221.68 2011.62,1220.89 2011.28,1220.09 2010.96,1219.28 2010.66,1218.47 2010.37,1217.65 2010.11,1216.82 2009.87,1215.98 2009.65,1215.14 2009.45,1214.29 2009.27,1213.44 2009.11,1212.59 2008.97,1211.73 2008.85,1210.87 2008.76,1210 2008.68,1209.14 2008.63,1208.27 2008.6,1207.4 2008.58,1206.53 "
         id="polyline3" />
      <polyline
         fill="none"
         vector-effect="none"
         points="1379.27,832.09 1379.28,831.221 1379.32,830.352 1379.37,829.484 1379.44,828.617 1379.54,827.753 1379.66,826.891 1379.79,826.032 1379.95,825.177 1380.13,824.327 1380.33,823.481 1380.56,822.64 1380.8,821.804 1381.06,820.975 1381.34,820.153 1381.65,819.338 1381.97,818.53 1382.31,817.731 1382.67,816.941 1383.06,816.159 1383.46,815.387 1383.88,814.625 1384.31,813.874 1384.77,813.134 1385.24,812.405 1385.74,811.687 1386.25,810.983 1386.77,810.291 1387.32,809.612 1387.88,808.946 1388.45,808.295 1389.04,807.658 1389.65,807.035 1390.27,806.428 1390.91,805.836 1391.56,805.26 1392.23,804.7 1392.91,804.157 1393.6,803.63 1394.3,803.121 1395.02,802.629 1395.75,802.154 1396.49,801.698 1397.24,801.26 1398,800.841 1398.77,800.44 1399.56,800.059 1400.35,799.697 1401.15,799.354 1401.95,799.031 1402.77,798.728 1403.59,798.445 1404.42,798.183 1405.26,797.941 1406.1,797.719 1406.94,797.518 1407.79,797.338 1408.65,797.179 1409.51,797.041 1410.37,796.924 1411.23,796.828 1412.1,796.753 1412.97,796.7 1413.84,796.668 1414.71,796.657 1415.58,796.668 1416.44,796.7 1417.31,796.753 1418.18,796.828 1419.04,796.924 1419.91,797.041 1420.76,797.179 1421.62,797.338 1422.47,797.518 1423.32,797.719 1424.16,797.941 1424.99,798.183 1425.82,798.445 1426.64,798.728 1427.46,799.031 1428.27,799.354 1429.07,799.697 1429.86,800.059 1430.64,800.44 1431.41,800.841 1432.17,801.26 1432.92,801.698 1433.66,802.154 1434.39,802.629 1435.11,803.121 1435.81,803.63 1436.51,804.157 1437.18,804.7 1437.85,805.26 1438.5,805.836 1439.14,806.428 1439.76,807.035 1440.37,807.658 1440.96,808.295 1441.54,808.946 1442.1,809.612 1442.64,810.291 1443.17,810.983 1443.68,811.687 1444.17,812.405 1444.64,813.134 1445.1,813.874 1445.54,814.625 1445.96,815.387 1446.36,816.159 1446.74,816.941 1447.1,817.731 1447.44,818.53 1447.76,819.338 1448.07,820.153 1448.35,820.975 1448.61,821.804 1448.86,822.64 1449.08,823.481 1449.28,824.327 1449.46,825.177 1449.62,826.032 1449.76,826.891 1449.87,827.753 1449.97,828.617 1450.04,829.484 1450.1,830.352 1450.13,831.221 1450.14,832.09 1450.13,832.96 1450.1,833.829 1450.04,834.697 1449.97,835.563 1449.87,836.428 1449.76,837.289 1449.62,838.148 1449.46,839.003 1449.28,839.854 1449.08,840.7 1448.86,841.541 1448.61,842.376 1448.35,843.205 1448.07,844.027 1447.76,844.842 1447.44,845.65 1447.1,846.449 1446.74,847.24 1446.36,848.021 1445.96,848.793 1445.54,849.555 1445.1,850.306 1444.64,851.047 1444.17,851.776 1443.68,852.493 1443.17,853.198 1442.64,853.89 1442.1,854.569 1441.54,855.234 1440.96,855.886 1440.37,856.523 1439.76,857.145 1439.14,857.752 1438.5,858.344 1437.85,858.92 1437.18,859.48 1436.51,860.024 1435.81,860.55 1435.11,861.06 1434.39,861.552 1433.66,862.026 1432.92,862.482 1432.17,862.92 1431.41,863.339 1430.64,863.74 1429.86,864.121 1429.07,864.483 1428.27,864.826 1427.46,865.149 1426.64,865.452 1425.82,865.735 1424.99,865.997 1424.16,866.24 1423.32,866.461 1422.47,866.662 1421.62,866.842 1420.76,867.002 1419.91,867.14 1419.04,867.257 1418.18,867.353 1417.31,867.427 1416.44,867.481 1415.58,867.513 1414.71,867.523 1413.84,867.513 1412.97,867.481 1412.1,867.427 1411.23,867.353 1410.37,867.257 1409.51,867.14 1408.65,867.002 1407.79,866.842 1406.94,866.662 1406.1,866.461 1405.26,866.24 1404.42,865.997 1403.59,865.735 1402.77,865.452 1401.95,865.149 1401.15,864.826 1400.35,864.483 1399.56,864.121 1398.77,863.74 1398,863.339 1397.24,862.92 1396.49,862.482 1395.75,862.026 1395.02,861.552 1394.3,861.06 1393.6,860.55 1392.91,860.024 1392.23,859.48 1391.56,858.92 1390.91,858.344 1390.27,857.752 1389.65,857.145 1389.04,856.523 1388.45,855.886 1387.88,855.234 1387.32,854.569 1386.77,853.89 1386.25,853.198 1385.74,852.493 1385.24,851.776 1384.77,851.047 1384.31,850.306 1383.88,849.555 1383.46,848.793 1383.06,848.021 1382.67,847.24 1382.31,846.449 1381.97,845.65 1381.65,844.842 1381.34,844.027 1381.06,843.205 1380.8,842.376 1380.56,841.541 1380.33,840.7 1380.13,839.854 1379.95,839.003 1379.79,838.148 1379.66,837.289 1379.54,836.428 1379.44,835.563 1379.37,834.697 1379.32,833.829 1379.28,832.96 1379.27,832.09 "
         id="polyline4" />
      <polyline
         fill="none"
         vector-effect="none"
         points="1095.93,1446.89 1095.94,1446.02 1095.97,1445.15 1096.03,1444.28 1096.1,1443.41 1096.2,1442.55 1096.31,1441.69 1096.45,1440.83 1096.61,1439.97 1096.79,1439.12 1096.99,1438.28 1097.21,1437.44 1097.46,1436.6 1097.72,1435.77 1098,1434.95 1098.3,1434.14 1098.63,1433.33 1098.97,1432.53 1099.33,1431.74 1099.71,1430.96 1100.11,1430.18 1100.53,1429.42 1100.97,1428.67 1101.43,1427.93 1101.9,1427.2 1102.39,1426.48 1102.9,1425.78 1103.43,1425.09 1103.97,1424.41 1104.53,1423.74 1105.11,1423.09 1105.7,1422.45 1106.31,1421.83 1106.93,1421.22 1107.57,1420.63 1108.22,1420.06 1108.89,1419.5 1109.56,1418.95 1110.26,1418.43 1110.96,1417.92 1111.68,1417.43 1112.41,1416.95 1113.15,1416.5 1113.9,1416.06 1114.66,1415.64 1115.43,1415.24 1116.21,1414.86 1117,1414.49 1117.8,1414.15 1118.61,1413.83 1119.43,1413.53 1120.25,1413.24 1121.08,1412.98 1121.91,1412.74 1122.75,1412.52 1123.6,1412.32 1124.45,1412.13 1125.31,1411.98 1126.16,1411.84 1127.03,1411.72 1127.89,1411.62 1128.76,1411.55 1129.62,1411.5 1130.49,1411.46 1131.36,1411.45 1132.23,1411.46 1133.1,1411.5 1133.97,1411.55 1134.84,1411.62 1135.7,1411.72 1136.56,1411.84 1137.42,1411.98 1138.28,1412.13 1139.13,1412.32 1139.97,1412.52 1140.81,1412.74 1141.65,1412.98 1142.48,1413.24 1143.3,1413.53 1144.12,1413.83 1144.92,1414.15 1145.72,1414.49 1146.51,1414.86 1147.29,1415.24 1148.07,1415.64 1148.83,1416.06 1149.58,1416.5 1150.32,1416.95 1151.05,1417.43 1151.77,1417.92 1152.47,1418.43 1153.16,1418.95 1153.84,1419.5 1154.51,1420.06 1155.16,1420.63 1155.8,1421.22 1156.42,1421.83 1157.03,1422.45 1157.62,1423.09 1158.19,1423.74 1158.75,1424.41 1159.3,1425.09 1159.82,1425.78 1160.33,1426.48 1160.83,1427.2 1161.3,1427.93 1161.76,1428.67 1162.19,1429.42 1162.61,1430.18 1163.01,1430.96 1163.39,1431.74 1163.76,1432.53 1164.1,1433.33 1164.42,1434.14 1164.73,1434.95 1165.01,1435.77 1165.27,1436.6 1165.51,1437.44 1165.73,1438.28 1165.94,1439.12 1166.12,1439.97 1166.27,1440.83 1166.41,1441.69 1166.53,1442.55 1166.63,1443.41 1166.7,1444.28 1166.75,1445.15 1166.79,1446.02 1166.8,1446.89 1166.79,1447.76 1166.75,1448.63 1166.7,1449.49 1166.63,1450.36 1166.53,1451.22 1166.41,1452.09 1166.27,1452.94 1166.12,1453.8 1165.94,1454.65 1165.73,1455.5 1165.51,1456.34 1165.27,1457.17 1165.01,1458 1164.73,1458.82 1164.42,1459.64 1164.1,1460.45 1163.76,1461.25 1163.39,1462.04 1163.01,1462.82 1162.61,1463.59 1162.19,1464.35 1161.76,1465.1 1161.3,1465.84 1160.83,1466.57 1160.33,1467.29 1159.82,1467.99 1159.3,1468.69 1158.75,1469.37 1158.19,1470.03 1157.62,1470.68 1157.03,1471.32 1156.42,1471.94 1155.8,1472.55 1155.16,1473.14 1154.51,1473.72 1153.84,1474.28 1153.16,1474.82 1152.47,1475.35 1151.77,1475.86 1151.05,1476.35 1150.32,1476.82 1149.58,1477.28 1148.83,1477.72 1148.07,1478.14 1147.29,1478.54 1146.51,1478.92 1145.72,1479.28 1144.92,1479.62 1144.12,1479.95 1143.3,1480.25 1142.48,1480.53 1141.65,1480.79 1140.81,1481.04 1139.97,1481.26 1139.13,1481.46 1138.28,1481.64 1137.42,1481.8 1136.56,1481.94 1135.7,1482.05 1134.84,1482.15 1133.97,1482.22 1133.1,1482.28 1132.23,1482.31 1131.36,1482.32 1130.49,1482.31 1129.62,1482.28 1128.76,1482.22 1127.89,1482.15 1127.03,1482.05 1126.16,1481.94 1125.31,1481.8 1124.45,1481.64 1123.6,1481.46 1122.75,1481.26 1121.91,1481.04 1121.08,1480.79 1120.25,1480.53 1119.43,1480.25 1118.61,1479.95 1117.8,1479.62 1117,1479.28 1116.21,1478.92 1115.43,1478.54 1114.66,1478.14 1113.9,1477.72 1113.15,1477.28 1112.41,1476.82 1111.68,1476.35 1110.96,1475.86 1110.26,1475.35 1109.56,1474.82 1108.89,1474.28 1108.22,1473.72 1107.57,1473.14 1106.93,1472.55 1106.31,1471.94 1105.7,1471.32 1105.11,1470.68 1104.53,1470.03 1103.97,1469.37 1103.43,1468.69 1102.9,1467.99 1102.39,1467.29 1101.9,1466.57 1101.43,1465.84 1100.97,1465.1 1100.53,1464.35 1100.11,1463.59 1099.71,1462.82 1099.33,1462.04 1098.97,1461.25 1098.63,1460.45 1098.3,1459.64 1098,1458.82 1097.72,1458 1097.46,1457.17 1097.21,1456.34 1096.99,1455.5 1096.79,1454.65 1096.61,1453.8 1096.45,1452.94 1096.31,1452.09 1096.2,1451.22 1096.1,1450.36 1096.03,1449.49 1095.97,1448.63 1095.94,1447.76 1095.93,1446.89 "
         id="polyline5" />
      <polyline
         fill="none"
         vector-effect="none"
         points="1603.44,1748.86 1603.45,1747.99 1603.48,1747.12 1603.54,1746.25 1603.61,1745.38 1603.71,1744.52 1603.82,1743.66 1603.96,1742.8 1604.12,1741.94 1604.3,1741.09 1604.5,1740.25 1604.72,1739.4 1604.97,1738.57 1605.23,1737.74 1605.51,1736.92 1605.81,1736.1 1606.14,1735.3 1606.48,1734.5 1606.84,1733.71 1607.22,1732.92 1607.62,1732.15 1608.04,1731.39 1608.48,1730.64 1608.94,1729.9 1609.41,1729.17 1609.9,1728.45 1610.41,1727.75 1610.94,1727.06 1611.48,1726.38 1612.04,1725.71 1612.62,1725.06 1613.21,1724.42 1613.82,1723.8 1614.44,1723.19 1615.08,1722.6 1615.73,1722.03 1616.39,1721.47 1617.07,1720.92 1617.77,1720.4 1618.47,1719.89 1619.19,1719.39 1619.92,1718.92 1620.66,1718.46 1621.41,1718.03 1622.17,1717.61 1622.94,1717.21 1623.72,1716.82 1624.51,1716.46 1625.31,1716.12 1626.12,1715.8 1626.94,1715.49 1627.76,1715.21 1628.59,1714.95 1629.42,1714.71 1630.26,1714.48 1631.11,1714.28 1631.96,1714.1 1632.82,1713.94 1633.67,1713.81 1634.54,1713.69 1635.4,1713.59 1636.27,1713.52 1637.13,1713.46 1638,1713.43 1638.87,1713.42 1639.74,1713.43 1640.61,1713.46 1641.48,1713.52 1642.35,1713.59 1643.21,1713.69 1644.07,1713.81 1644.93,1713.94 1645.79,1714.1 1646.64,1714.28 1647.48,1714.48 1648.32,1714.71 1649.16,1714.95 1649.99,1715.21 1650.81,1715.49 1651.63,1715.8 1652.43,1716.12 1653.23,1716.46 1654.02,1716.82 1654.8,1717.21 1655.58,1717.61 1656.34,1718.03 1657.09,1718.46 1657.83,1718.92 1658.56,1719.39 1659.28,1719.89 1659.98,1720.4 1660.67,1720.92 1661.35,1721.47 1662.02,1722.03 1662.67,1722.6 1663.31,1723.19 1663.93,1723.8 1664.54,1724.42 1665.13,1725.06 1665.7,1725.71 1666.26,1726.38 1666.81,1727.06 1667.33,1727.75 1667.84,1728.45 1668.33,1729.17 1668.81,1729.9 1669.27,1730.64 1669.7,1731.39 1670.12,1732.15 1670.52,1732.92 1670.9,1733.71 1671.27,1734.5 1671.61,1735.3 1671.93,1736.1 1672.23,1736.92 1672.52,1737.74 1672.78,1738.57 1673.02,1739.4 1673.24,1740.25 1673.45,1741.09 1673.63,1741.94 1673.78,1742.8 1673.92,1743.66 1674.04,1744.52 1674.14,1745.38 1674.21,1746.25 1674.26,1747.12 1674.3,1747.99 1674.31,1748.86 1674.3,1749.72 1674.26,1750.59 1674.21,1751.46 1674.14,1752.33 1674.04,1753.19 1673.92,1754.05 1673.78,1754.91 1673.63,1755.77 1673.45,1756.62 1673.24,1757.46 1673.02,1758.31 1672.78,1759.14 1672.52,1759.97 1672.23,1760.79 1671.93,1761.61 1671.61,1762.41 1671.27,1763.21 1670.9,1764 1670.52,1764.79 1670.12,1765.56 1669.7,1766.32 1669.27,1767.07 1668.81,1767.81 1668.33,1768.54 1667.84,1769.26 1667.33,1769.96 1666.81,1770.65 1666.26,1771.33 1665.7,1772 1665.13,1772.65 1664.54,1773.29 1663.93,1773.91 1663.31,1774.52 1662.67,1775.11 1662.02,1775.69 1661.35,1776.25 1660.67,1776.79 1659.98,1777.32 1659.28,1777.82 1658.56,1778.32 1657.83,1778.79 1657.09,1779.25 1656.34,1779.69 1655.58,1780.1 1654.8,1780.51 1654.02,1780.89 1653.23,1781.25 1652.43,1781.59 1651.63,1781.91 1650.81,1782.22 1649.99,1782.5 1649.16,1782.76 1648.32,1783 1647.48,1783.23 1646.64,1783.43 1645.79,1783.61 1644.93,1783.77 1644.07,1783.9 1643.21,1784.02 1642.35,1784.12 1641.48,1784.19 1640.61,1784.25 1639.74,1784.28 1638.87,1784.29 1638,1784.28 1637.13,1784.25 1636.27,1784.19 1635.4,1784.12 1634.54,1784.02 1633.67,1783.9 1632.82,1783.77 1631.96,1783.61 1631.11,1783.43 1630.26,1783.23 1629.42,1783 1628.59,1782.76 1627.76,1782.5 1626.94,1782.22 1626.12,1781.91 1625.31,1781.59 1624.51,1781.25 1623.72,1780.89 1622.94,1780.51 1622.17,1780.1 1621.41,1779.69 1620.66,1779.25 1619.92,1778.79 1619.19,1778.32 1618.47,1777.82 1617.77,1777.32 1617.07,1776.79 1616.39,1776.25 1615.73,1775.69 1615.08,1775.11 1614.44,1774.52 1613.82,1773.91 1613.21,1773.29 1612.62,1772.65 1612.04,1772 1611.48,1771.33 1610.94,1770.65 1610.41,1769.96 1609.9,1769.26 1609.41,1768.54 1608.94,1767.81 1608.48,1767.07 1608.04,1766.32 1607.62,1765.56 1607.22,1764.79 1606.84,1764 1606.48,1763.21 1606.14,1762.41 1605.81,1761.61 1605.51,1760.79 1605.23,1759.97 1604.97,1759.14 1604.72,1758.31 1604.5,1757.46 1604.3,1756.62 1604.12,1755.77 1603.96,1754.91 1603.82,1754.05 1603.71,1753.19 1603.61,1752.33 1603.54,1751.46 1603.48,1750.59 1603.45,1749.72 1603.44,1748.86 "
         id="polyline6" />
      <polyline
         fill="none"
         vector-effect="none"
         points="2054.04,1450.65 2054.03,1450.17 2054.01,1449.68 2053.98,1449.2 2053.93,1448.72 2053.87,1448.24 2053.8,1447.76 2053.72,1447.28 2053.62,1446.81 2053.51,1446.34 2053.38,1445.87 2053.24,1445.41 2053.1,1444.95 2052.93,1444.49 2052.76,1444.04 2052.57,1443.59 2052.37,1443.15 2052.16,1442.72 2051.94,1442.29 2051.71,1441.86 2051.46,1441.45 2051.2,1441.04 2050.93,1440.63 2050.66,1440.24 2050.37,1439.85 2050.07,1439.47 2049.75,1439.1 2049.43,1438.74 2049.1,1438.38 2048.76,1438.04 2048.41,1437.7 2048.06,1437.38 2047.69,1437.06 2047.31,1436.76 2046.93,1436.46 2046.54,1436.18 2046.14,1435.9 2045.73,1435.64 2045.32,1435.39 2044.9,1435.15 2044.47,1434.92 2044.04,1434.7 2043.6,1434.5 2043.16,1434.31 2042.71,1434.13 2042.26,1433.96 2041.8,1433.8 2041.33,1433.66 2040.87,1433.53 2040.4,1433.41 2039.93,1433.31 2039.45,1433.21 2038.97,1433.13 2038.49,1433.07 2038.01,1433.02 2037.53,1432.98 2037.05,1432.95 2036.56,1432.94 2036.08,1432.94 2035.6,1432.95 2035.11,1432.98 2034.63,1433.02 2034.15,1433.07 2033.67,1433.13 2033.19,1433.21 2032.72,1433.31 2032.25,1433.41 2031.78,1433.53 2031.31,1433.66 2030.85,1433.8 2030.39,1433.96 2029.94,1434.13 2029.49,1434.31 2029.04,1434.5 2028.6,1434.7 2028.17,1434.92 2027.74,1435.15 2027.32,1435.39 2026.91,1435.64 2026.5,1435.9 2026.11,1436.18 2025.71,1436.46 2025.33,1436.76 2024.95,1437.06 2024.59,1437.38 2024.23,1437.7 2023.88,1438.04 2023.54,1438.38 2023.21,1438.74 2022.89,1439.1 2022.58,1439.47 2022.28,1439.85 2021.99,1440.24 2021.71,1440.63 2021.44,1441.04 2021.18,1441.45 2020.94,1441.86 2020.7,1442.29 2020.48,1442.72 2020.27,1443.15 2020.07,1443.59 2019.89,1444.04 2019.71,1444.49 2019.55,1444.95 2019.4,1445.41 2019.26,1445.87 2019.14,1446.34 2019.03,1446.81 2018.93,1447.28 2018.84,1447.76 2018.77,1448.24 2018.71,1448.72 2018.67,1449.2 2018.63,1449.68 2018.61,1450.17 2018.61,1450.65 2018.61,1451.14 2018.63,1451.62 2018.67,1452.1 2018.71,1452.58 2018.77,1453.06 2018.84,1453.54 2018.93,1454.02 2019.03,1454.49 2019.14,1454.96 2019.26,1455.43 2019.4,1455.9 2019.55,1456.36 2019.71,1456.81 2019.89,1457.26 2020.07,1457.71 2020.27,1458.15 2020.48,1458.59 2020.7,1459.02 2020.94,1459.44 2021.18,1459.86 2021.44,1460.27 2021.71,1460.67 2021.99,1461.06 2022.28,1461.45 2022.58,1461.83 2022.89,1462.2 2023.21,1462.57 2023.54,1462.92 2023.88,1463.26 2024.23,1463.6 2024.59,1463.92 2024.95,1464.24 2025.33,1464.55 2025.71,1464.84 2026.11,1465.12 2026.5,1465.4 2026.91,1465.66 2027.32,1465.91 2027.74,1466.15 2028.17,1466.38 2028.6,1466.6 2029.04,1466.8 2029.49,1467 2029.94,1467.18 2030.39,1467.34 2030.85,1467.5 2031.31,1467.64 2031.78,1467.77 2032.25,1467.89 2032.72,1468 2033.19,1468.09 2033.67,1468.17 2034.15,1468.23 2034.63,1468.29 2035.11,1468.33 2035.6,1468.35 2036.08,1468.37 2036.56,1468.37 2037.05,1468.35 2037.53,1468.33 2038.01,1468.29 2038.49,1468.23 2038.97,1468.17 2039.45,1468.09 2039.93,1468 2040.4,1467.89 2040.87,1467.77 2041.33,1467.64 2041.8,1467.5 2042.26,1467.34 2042.71,1467.18 2043.16,1467 2043.6,1466.8 2044.04,1466.6 2044.47,1466.38 2044.9,1466.15 2045.32,1465.91 2045.73,1465.66 2046.14,1465.4 2046.54,1465.12 2046.93,1464.84 2047.31,1464.55 2047.69,1464.24 2048.06,1463.92 2048.41,1463.6 2048.76,1463.26 2049.1,1462.92 2049.43,1462.57 2049.75,1462.2 2050.07,1461.83 2050.37,1461.45 2050.66,1461.06 2050.93,1460.67 2051.2,1460.27 2051.46,1459.86 2051.71,1459.44 2051.94,1459.02 2052.16,1458.59 2052.37,1458.15 2052.57,1457.71 2052.76,1457.26 2052.93,1456.81 2053.1,1456.36 2053.24,1455.9 2053.38,1455.43 2053.51,1454.96 2053.62,1454.49 2053.72,1454.02 2053.8,1453.54 2053.87,1453.06 2053.93,1452.58 2053.98,1452.1 2054.01,1451.62 2054.03,1451.14 2054.04,1450.65 "
         id="polyline7" />
      <polyline
         fill="none"
         vector-effect="none"
         points="2054.04,1034.23 2054.03,1033.74 2054.01,1033.26 2053.98,1032.78 2053.93,1032.3 2053.87,1031.82 2053.8,1031.34 2053.72,1030.86 2053.62,1030.39 2053.51,1029.92 2053.38,1029.45 2053.24,1028.98 2053.1,1028.52 2052.93,1028.07 2052.76,1027.62 2052.57,1027.17 2052.37,1026.73 2052.16,1026.29 2051.94,1025.86 2051.71,1025.44 2051.46,1025.02 2051.2,1024.61 2050.93,1024.21 2050.66,1023.81 2050.37,1023.43 2050.07,1023.05 2049.75,1022.68 2049.43,1022.31 2049.1,1021.96 2048.76,1021.62 2048.41,1021.28 2048.06,1020.96 2047.69,1020.64 2047.31,1020.33 2046.93,1020.04 2046.54,1019.75 2046.14,1019.48 2045.73,1019.22 2045.32,1018.97 2044.9,1018.73 2044.47,1018.5 2044.04,1018.28 2043.6,1018.08 2043.16,1017.88 2042.71,1017.7 2042.26,1017.53 2041.8,1017.38 2041.33,1017.24 2040.87,1017.11 2040.4,1016.99 2039.93,1016.88 2039.45,1016.79 2038.97,1016.71 2038.49,1016.65 2038.01,1016.59 2037.53,1016.55 2037.05,1016.53 2036.56,1016.51 2036.08,1016.51 2035.6,1016.53 2035.11,1016.55 2034.63,1016.59 2034.15,1016.65 2033.67,1016.71 2033.19,1016.79 2032.72,1016.88 2032.25,1016.99 2031.78,1017.11 2031.31,1017.24 2030.85,1017.38 2030.39,1017.53 2029.94,1017.7 2029.49,1017.88 2029.04,1018.08 2028.6,1018.28 2028.17,1018.5 2027.74,1018.73 2027.32,1018.97 2026.91,1019.22 2026.5,1019.48 2026.11,1019.75 2025.71,1020.04 2025.33,1020.33 2024.95,1020.64 2024.59,1020.96 2024.23,1021.28 2023.88,1021.62 2023.54,1021.96 2023.21,1022.31 2022.89,1022.68 2022.58,1023.05 2022.28,1023.43 2021.99,1023.81 2021.71,1024.21 2021.44,1024.61 2021.18,1025.02 2020.94,1025.44 2020.7,1025.86 2020.48,1026.29 2020.27,1026.73 2020.07,1027.17 2019.89,1027.62 2019.71,1028.07 2019.55,1028.52 2019.4,1028.98 2019.26,1029.45 2019.14,1029.92 2019.03,1030.39 2018.93,1030.86 2018.84,1031.34 2018.77,1031.82 2018.71,1032.3 2018.67,1032.78 2018.63,1033.26 2018.61,1033.74 2018.61,1034.23 2018.61,1034.71 2018.63,1035.2 2018.67,1035.68 2018.71,1036.16 2018.77,1036.64 2018.84,1037.12 2018.93,1037.6 2019.03,1038.07 2019.14,1038.54 2019.26,1039.01 2019.4,1039.47 2019.55,1039.93 2019.71,1040.39 2019.89,1040.84 2020.07,1041.29 2020.27,1041.73 2020.48,1042.16 2020.7,1042.59 2020.94,1043.02 2021.18,1043.43 2021.44,1043.84 2021.71,1044.25 2021.99,1044.64 2022.28,1045.03 2022.58,1045.41 2022.89,1045.78 2023.21,1046.14 2023.54,1046.5 2023.88,1046.84 2024.23,1047.18 2024.59,1047.5 2024.95,1047.82 2025.33,1048.12 2025.71,1048.42 2026.11,1048.7 2026.5,1048.98 2026.91,1049.24 2027.32,1049.49 2027.74,1049.73 2028.17,1049.96 2028.6,1050.18 2029.04,1050.38 2029.49,1050.57 2029.94,1050.75 2030.39,1050.92 2030.85,1051.08 2031.31,1051.22 2031.78,1051.35 2032.25,1051.47 2032.72,1051.57 2033.19,1051.67 2033.67,1051.75 2034.15,1051.81 2034.63,1051.86 2035.11,1051.9 2035.6,1051.93 2036.08,1051.94 2036.56,1051.94 2037.05,1051.93 2037.53,1051.9 2038.01,1051.86 2038.49,1051.81 2038.97,1051.75 2039.45,1051.67 2039.93,1051.57 2040.4,1051.47 2040.87,1051.35 2041.33,1051.22 2041.8,1051.08 2042.26,1050.92 2042.71,1050.75 2043.16,1050.57 2043.6,1050.38 2044.04,1050.18 2044.47,1049.96 2044.9,1049.73 2045.32,1049.49 2045.73,1049.24 2046.14,1048.98 2046.54,1048.7 2046.93,1048.42 2047.31,1048.12 2047.69,1047.82 2048.06,1047.5 2048.41,1047.18 2048.76,1046.84 2049.1,1046.5 2049.43,1046.14 2049.75,1045.78 2050.07,1045.41 2050.37,1045.03 2050.66,1044.64 2050.93,1044.25 2051.2,1043.84 2051.46,1043.43 2051.71,1043.02 2051.94,1042.59 2052.16,1042.16 2052.37,1041.73 2052.57,1041.29 2052.76,1040.84 2052.93,1040.39 2053.1,1039.93 2053.24,1039.47 2053.38,1039.01 2053.51,1038.54 2053.62,1038.07 2053.72,1037.6 2053.8,1037.12 2053.87,1036.64 2053.93,1036.16 2053.98,1035.68 2054.01,1035.2 2054.03,1034.71 2054.04,1034.23 "
         id="polyline8" />
      <polyline
         fill="none"
         vector-effect="none"
         points="1574.77,757.52 1574.76,757.036 1574.74,756.552 1574.71,756.069 1574.66,755.588 1574.6,755.107 1574.53,754.629 1574.44,754.153 1574.34,753.679 1574.23,753.208 1574.11,752.74 1573.97,752.276 1573.82,751.815 1573.66,751.359 1573.49,750.908 1573.3,750.462 1573.1,750.02 1572.89,749.585 1572.67,749.155 1572.43,748.731 1572.19,748.315 1571.93,747.905 1571.66,747.502 1571.38,747.106 1571.09,746.719 1570.79,746.339 1570.48,745.968 1570.16,745.605 1569.83,745.252 1569.49,744.907 1569.14,744.572 1568.78,744.246 1568.42,743.931 1568.04,743.625 1567.66,743.33 1567.27,743.046 1566.87,742.772 1566.46,742.51 1566.05,742.258 1565.63,742.018 1565.2,741.79 1564.77,741.573 1564.33,741.368 1563.88,741.175 1563.44,740.994 1562.98,740.826 1562.52,740.67 1562.06,740.527 1561.6,740.397 1561.13,740.279 1560.65,740.174 1560.18,740.082 1559.7,740.003 1559.22,739.937 1558.74,739.884 1558.26,739.845 1557.77,739.818 1557.29,739.805 1556.81,739.805 1556.32,739.818 1555.84,739.845 1555.36,739.884 1554.88,739.937 1554.4,740.003 1553.92,740.082 1553.44,740.174 1552.97,740.279 1552.5,740.397 1552.04,740.527 1551.57,740.67 1551.12,740.826 1550.66,740.994 1550.21,741.175 1549.77,741.368 1549.33,741.573 1548.9,741.79 1548.47,742.018 1548.05,742.258 1547.64,742.51 1547.23,742.772 1546.83,743.046 1546.44,743.33 1546.06,743.625 1545.68,743.931 1545.31,744.246 1544.96,744.572 1544.61,744.907 1544.27,745.252 1543.94,745.605 1543.62,745.968 1543.31,746.339 1543.01,746.719 1542.72,747.106 1542.44,747.502 1542.17,747.905 1541.91,748.315 1541.67,748.731 1541.43,749.155 1541.21,749.585 1541,750.02 1540.8,750.462 1540.61,750.908 1540.44,751.359 1540.28,751.815 1540.13,752.276 1539.99,752.74 1539.86,753.208 1539.75,753.679 1539.66,754.153 1539.57,754.629 1539.5,755.107 1539.44,755.588 1539.39,756.069 1539.36,756.552 1539.34,757.036 1539.33,757.52 1539.34,758.004 1539.36,758.487 1539.39,758.97 1539.44,759.452 1539.5,759.932 1539.57,760.411 1539.66,760.887 1539.75,761.361 1539.86,761.832 1539.99,762.3 1540.13,762.764 1540.28,763.224 1540.44,763.68 1540.61,764.132 1540.8,764.578 1541,765.019 1541.21,765.455 1541.43,765.885 1541.67,766.308 1541.91,766.725 1542.17,767.135 1542.44,767.538 1542.72,767.933 1543.01,768.321 1543.31,768.7 1543.62,769.072 1543.94,769.434 1544.27,769.788 1544.61,770.133 1544.96,770.468 1545.31,770.793 1545.68,771.109 1546.06,771.414 1546.44,771.709 1546.83,771.994 1547.23,772.267 1547.64,772.53 1548.05,772.781 1548.47,773.022 1548.9,773.25 1549.33,773.467 1549.77,773.672 1550.21,773.864 1550.66,774.045 1551.12,774.213 1551.57,774.369 1552.04,774.512 1552.5,774.643 1552.97,774.761 1553.44,774.866 1553.92,774.958 1554.4,775.037 1554.88,775.103 1555.36,775.155 1555.84,775.195 1556.32,775.221 1556.81,775.235 1557.29,775.235 1557.77,775.221 1558.26,775.195 1558.74,775.155 1559.22,775.103 1559.7,775.037 1560.18,774.958 1560.65,774.866 1561.13,774.761 1561.6,774.643 1562.06,774.512 1562.52,774.369 1562.98,774.213 1563.44,774.045 1563.88,773.864 1564.33,773.672 1564.77,773.467 1565.2,773.25 1565.63,773.022 1566.05,772.781 1566.46,772.53 1566.87,772.267 1567.27,771.994 1567.66,771.709 1568.04,771.414 1568.42,771.109 1568.78,770.793 1569.14,770.468 1569.49,770.133 1569.83,769.788 1570.16,769.434 1570.48,769.072 1570.79,768.7 1571.09,768.321 1571.38,767.933 1571.66,767.538 1571.93,767.135 1572.19,766.725 1572.43,766.308 1572.67,765.885 1572.89,765.455 1573.1,765.019 1573.3,764.578 1573.49,764.132 1573.66,763.68 1573.82,763.224 1573.97,762.764 1574.11,762.3 1574.23,761.832 1574.34,761.361 1574.44,760.887 1574.53,760.411 1574.6,759.932 1574.66,759.452 1574.71,758.97 1574.74,758.487 1574.76,758.004 1574.77,757.52 "
         id="polyline9" />
      <polyline
         fill="none"
         vector-effect="none"
         points="1214.13,965.731 1214.13,965.247 1214.11,964.764 1214.07,964.281 1214.03,963.799 1213.97,963.319 1213.9,962.84 1213.81,962.364 1213.71,961.89 1213.6,961.419 1213.48,960.951 1213.34,960.487 1213.19,960.027 1213.03,959.571 1212.85,959.119 1212.67,958.673 1212.47,958.232 1212.26,957.796 1212.03,957.366 1211.8,956.943 1211.55,956.526 1211.3,956.116 1211.03,955.713 1210.75,955.318 1210.46,954.93 1210.16,954.55 1209.85,954.179 1209.53,953.817 1209.2,953.463 1208.86,953.118 1208.51,952.783 1208.15,952.458 1207.78,952.142 1207.41,951.837 1207.02,951.542 1206.63,951.257 1206.23,950.984 1205.83,950.721 1205.41,950.469 1204.99,950.229 1204.57,950.001 1204.13,949.784 1203.7,949.579 1203.25,949.386 1202.8,949.206 1202.35,949.037 1201.89,948.882 1201.43,948.738 1200.96,948.608 1200.49,948.49 1200.02,948.385 1199.55,948.293 1199.07,948.214 1198.59,948.148 1198.11,948.095 1197.63,948.056 1197.14,948.029 1196.66,948.016 1196.17,948.016 1195.69,948.029 1195.21,948.056 1194.72,948.095 1194.24,948.148 1193.76,948.214 1193.29,948.293 1192.81,948.385 1192.34,948.49 1191.87,948.608 1191.4,948.738 1190.94,948.882 1190.48,949.037 1190.03,949.206 1189.58,949.386 1189.14,949.579 1188.7,949.784 1188.27,950.001 1187.84,950.229 1187.42,950.469 1187.01,950.721 1186.6,950.984 1186.2,951.257 1185.81,951.542 1185.42,951.837 1185.05,952.142 1184.68,952.458 1184.32,952.783 1183.97,953.118 1183.63,953.463 1183.3,953.817 1182.98,954.179 1182.67,954.55 1182.37,954.93 1182.08,955.318 1181.8,955.713 1181.54,956.116 1181.28,956.526 1181.03,956.943 1180.8,957.366 1180.58,957.796 1180.37,958.232 1180.17,958.673 1179.98,959.119 1179.81,959.571 1179.64,960.027 1179.49,960.487 1179.36,960.951 1179.23,961.419 1179.12,961.89 1179.02,962.364 1178.94,962.84 1178.86,963.319 1178.81,963.799 1178.76,964.281 1178.73,964.764 1178.71,965.247 1178.7,965.731 1178.71,966.215 1178.73,966.699 1178.76,967.181 1178.81,967.663 1178.86,968.143 1178.94,968.622 1179.02,969.098 1179.12,969.572 1179.23,970.043 1179.36,970.511 1179.49,970.975 1179.64,971.435 1179.81,971.891 1179.98,972.343 1180.17,972.789 1180.37,973.231 1180.58,973.666 1180.8,974.096 1181.03,974.519 1181.28,974.936 1181.54,975.346 1181.8,975.749 1182.08,976.145 1182.37,976.532 1182.67,976.912 1182.98,977.283 1183.3,977.646 1183.63,977.999 1183.97,978.344 1184.32,978.679 1184.68,979.004 1185.05,979.32 1185.42,979.625 1185.81,979.921 1186.2,980.205 1186.6,980.479 1187.01,980.741 1187.42,980.993 1187.84,981.233 1188.27,981.461 1188.7,981.678 1189.14,981.883 1189.58,982.076 1190.03,982.256 1190.48,982.425 1190.94,982.581 1191.4,982.724 1191.87,982.854 1192.34,982.972 1192.81,983.077 1193.29,983.169 1193.76,983.248 1194.24,983.314 1194.72,983.367 1195.21,983.406 1195.69,983.433 1196.17,983.446 1196.66,983.446 1197.14,983.433 1197.63,983.406 1198.11,983.367 1198.59,983.314 1199.07,983.248 1199.55,983.169 1200.02,983.077 1200.49,982.972 1200.96,982.854 1201.43,982.724 1201.89,982.581 1202.35,982.425 1202.8,982.256 1203.25,982.076 1203.7,981.883 1204.13,981.678 1204.57,981.461 1204.99,981.233 1205.41,980.993 1205.83,980.741 1206.23,980.479 1206.63,980.205 1207.02,979.921 1207.41,979.625 1207.78,979.32 1208.15,979.004 1208.51,978.679 1208.86,978.344 1209.2,977.999 1209.53,977.646 1209.85,977.283 1210.16,976.912 1210.46,976.532 1210.75,976.145 1211.03,975.749 1211.3,975.346 1211.55,974.936 1211.8,974.519 1212.03,974.096 1212.26,973.666 1212.47,973.231 1212.67,972.789 1212.85,972.343 1213.03,971.891 1213.19,971.435 1213.34,970.975 1213.48,970.511 1213.6,970.043 1213.71,969.572 1213.81,969.098 1213.9,968.622 1213.97,968.143 1214.03,967.663 1214.07,967.181 1214.11,966.699 1214.13,966.215 1214.13,965.731 "
         id="polyline10" />
      <polyline
         fill="none"
         vector-effect="none"
         points="1474.1,1637.26 1464.87,1634.28 1455.72,1631.08 1446.65,1627.67 1437.66,1624.05 1428.76,1620.22 1419.95,1616.18 1411.23,1611.94 1402.62,1607.49 1394.11,1602.84 1385.72,1597.99 1377.44,1592.95 1369.28,1587.72 1361.25,1582.29 1353.35,1576.68 1345.58,1570.89 1337.95,1564.91 1330.46,1558.76 1323.11,1552.43 1315.92,1545.94 "
         id="polyline11" />
      <polyline
         fill="none"
         vector-effect="none"
         points="1999.77,1333.76 1474.1,1637.26 "
         id="polyline12" />
      <polyline
         fill="none"
         vector-effect="none"
         points="1999.77,1151.12 2001.8,1160.59 2003.61,1170.12 2005.19,1179.68 2006.55,1189.28 2007.68,1198.9 2008.59,1208.55 2009.27,1218.22 2009.73,1227.9 2009.95,1237.59 2009.95,1247.29 2009.73,1256.98 2009.27,1266.66 2008.59,1276.33 2007.68,1285.98 2006.55,1295.6 2005.19,1305.2 2003.61,1314.76 2001.8,1324.28 1999.77,1333.76 "
         id="polyline13" />
      <polyline
         fill="none"
         vector-effect="none"
         points="1474.1,847.621 1999.77,1151.12 "
         id="polyline14" />
      <polyline
         fill="none"
         vector-effect="none"
         points="1224.55,1242.44 1224.56,1241.96 1224.57,1241.47 1224.61,1240.99 1224.65,1240.51 1224.71,1240.03 1224.79,1239.55 1224.87,1239.07 1224.97,1238.6 1225.08,1238.13 1225.21,1237.66 1225.34,1237.2 1225.49,1236.74 1225.65,1236.28 1225.83,1235.83 1226.02,1235.38 1226.21,1234.94 1226.42,1234.5 1226.65,1234.07 1226.88,1233.65 1227.13,1233.23 1227.38,1232.82 1227.65,1232.42 1227.93,1232.03 1228.22,1231.64 1228.52,1231.26 1228.83,1230.89 1229.15,1230.53 1229.48,1230.17 1229.82,1229.83 1230.17,1229.49 1230.53,1229.17 1230.9,1228.85 1231.27,1228.55 1231.66,1228.25 1232.05,1227.97 1232.45,1227.69 1232.85,1227.43 1233.27,1227.18 1233.69,1226.94 1234.11,1226.71 1234.55,1226.49 1234.99,1226.29 1235.43,1226.1 1235.88,1225.91 1236.33,1225.75 1236.79,1225.59 1237.25,1225.45 1237.72,1225.32 1238.19,1225.2 1238.66,1225.09 1239.14,1225 1239.61,1224.92 1240.09,1224.86 1240.57,1224.8 1241.06,1224.76 1241.54,1224.74 1242.02,1224.72 1242.51,1224.72 1242.99,1224.74 1243.47,1224.76 1243.96,1224.8 1244.44,1224.86 1244.92,1224.92 1245.39,1225 1245.87,1225.09 1246.34,1225.2 1246.81,1225.32 1247.28,1225.45 1247.74,1225.59 1248.2,1225.75 1248.65,1225.91 1249.1,1226.1 1249.54,1226.29 1249.98,1226.49 1250.42,1226.71 1250.84,1226.94 1251.26,1227.18 1251.68,1227.43 1252.08,1227.69 1252.48,1227.97 1252.87,1228.25 1253.26,1228.55 1253.63,1228.85 1254,1229.17 1254.36,1229.49 1254.71,1229.83 1255.05,1230.17 1255.38,1230.53 1255.7,1230.89 1256.01,1231.26 1256.31,1231.64 1256.6,1232.03 1256.88,1232.42 1257.15,1232.82 1257.4,1233.23 1257.65,1233.65 1257.88,1234.07 1258.11,1234.5 1258.32,1234.94 1258.51,1235.38 1258.7,1235.83 1258.88,1236.28 1259.04,1236.74 1259.19,1237.2 1259.32,1237.66 1259.45,1238.13 1259.56,1238.6 1259.66,1239.07 1259.74,1239.55 1259.82,1240.03 1259.88,1240.51 1259.92,1240.99 1259.96,1241.47 1259.97,1241.96 1259.98,1242.44 1259.97,1242.92 1259.96,1243.41 1259.92,1243.89 1259.88,1244.37 1259.82,1244.85 1259.74,1245.33 1259.66,1245.81 1259.56,1246.28 1259.45,1246.75 1259.32,1247.22 1259.19,1247.68 1259.04,1248.14 1258.88,1248.6 1258.7,1249.05 1258.51,1249.5 1258.32,1249.94 1258.11,1250.37 1257.88,1250.8 1257.65,1251.23 1257.4,1251.65 1257.15,1252.06 1256.88,1252.46 1256.6,1252.85 1256.31,1253.24 1256.01,1253.62 1255.7,1253.99 1255.38,1254.35 1255.05,1254.71 1254.71,1255.05 1254.36,1255.39 1254,1255.71 1253.63,1256.03 1253.26,1256.33 1252.87,1256.63 1252.48,1256.91 1252.08,1257.19 1251.68,1257.45 1251.26,1257.7 1250.84,1257.94 1250.42,1258.17 1249.98,1258.39 1249.54,1258.59 1249.1,1258.78 1248.65,1258.97 1248.2,1259.13 1247.74,1259.29 1247.28,1259.43 1246.81,1259.56 1246.34,1259.68 1245.87,1259.79 1245.39,1259.88 1244.92,1259.96 1244.44,1260.02 1243.96,1260.08 1243.47,1260.12 1242.99,1260.14 1242.51,1260.15 1242.02,1260.15 1241.54,1260.14 1241.06,1260.12 1240.57,1260.08 1240.09,1260.02 1239.61,1259.96 1239.14,1259.88 1238.66,1259.79 1238.19,1259.68 1237.72,1259.56 1237.25,1259.43 1236.79,1259.29 1236.33,1259.13 1235.88,1258.97 1235.43,1258.78 1234.99,1258.59 1234.55,1258.39 1234.11,1258.17 1233.69,1257.94 1233.27,1257.7 1232.85,1257.45 1232.45,1257.19 1232.05,1256.91 1231.66,1256.63 1231.27,1256.33 1230.9,1256.03 1230.53,1255.71 1230.17,1255.39 1229.82,1255.05 1229.48,1254.71 1229.15,1254.35 1228.83,1253.99 1228.52,1253.62 1228.22,1253.24 1227.93,1252.85 1227.65,1252.46 1227.38,1252.06 1227.13,1251.65 1226.88,1251.23 1226.65,1250.8 1226.42,1250.37 1226.21,1249.94 1226.02,1249.5 1225.83,1249.05 1225.65,1248.6 1225.49,1248.14 1225.34,1247.68 1225.21,1247.22 1225.08,1246.75 1224.97,1246.28 1224.87,1245.81 1224.79,1245.33 1224.71,1244.85 1224.65,1244.37 1224.61,1243.89 1224.57,1243.41 1224.56,1242.92 1224.55,1242.44 "
         id="polyline15" />
      <polyline
         fill="none"
         vector-effect="none"
         points="1756.04,935.58 1756.05,935.096 1756.07,934.613 1756.1,934.13 1756.15,933.648 1756.21,933.168 1756.28,932.689 1756.37,932.213 1756.47,931.739 1756.58,931.268 1756.7,930.801 1756.84,930.336 1756.99,929.876 1757.15,929.42 1757.32,928.969 1757.51,928.522 1757.71,928.081 1757.92,927.645 1758.14,927.216 1758.38,926.792 1758.62,926.375 1758.88,925.965 1759.15,925.562 1759.43,925.167 1759.72,924.779 1760.02,924.4 1760.33,924.029 1760.65,923.666 1760.98,923.312 1761.32,922.968 1761.67,922.633 1762.03,922.307 1762.39,921.991 1762.77,921.686 1763.15,921.391 1763.54,921.107 1763.94,920.833 1764.35,920.57 1764.76,920.319 1765.18,920.079 1765.61,919.85 1766.04,919.633 1766.48,919.429 1766.93,919.236 1767.37,919.055 1767.83,918.887 1768.29,918.731 1768.75,918.588 1769.21,918.457 1769.68,918.339 1770.16,918.234 1770.63,918.142 1771.11,918.063 1771.59,917.998 1772.07,917.945 1772.55,917.905 1773.04,917.879 1773.52,917.866 1774,917.866 1774.49,917.879 1774.97,917.905 1775.45,917.945 1775.93,917.998 1776.41,918.063 1776.89,918.142 1777.37,918.234 1777.84,918.339 1778.31,918.457 1778.77,918.588 1779.24,918.731 1779.69,918.887 1780.15,919.055 1780.6,919.236 1781.04,919.429 1781.48,919.633 1781.91,919.85 1782.34,920.079 1782.76,920.319 1783.17,920.57 1783.58,920.833 1783.98,921.107 1784.37,921.391 1784.75,921.686 1785.13,921.991 1785.5,922.307 1785.85,922.633 1786.2,922.968 1786.54,923.312 1786.87,923.666 1787.19,924.029 1787.5,924.4 1787.8,924.779 1788.09,925.167 1788.37,925.562 1788.64,925.965 1788.9,926.375 1789.14,926.792 1789.38,927.216 1789.6,927.645 1789.81,928.081 1790.01,928.522 1790.2,928.969 1790.37,929.42 1790.53,929.876 1790.68,930.336 1790.82,930.801 1790.94,931.268 1791.06,931.739 1791.15,932.213 1791.24,932.689 1791.31,933.168 1791.37,933.648 1791.42,934.13 1791.45,934.613 1791.47,935.096 1791.48,935.58 1791.47,936.064 1791.45,936.548 1791.42,937.031 1791.37,937.512 1791.31,937.993 1791.24,938.471 1791.15,938.948 1791.06,939.422 1790.94,939.893 1790.82,940.36 1790.68,940.824 1790.53,941.285 1790.37,941.741 1790.2,942.192 1790.01,942.639 1789.81,943.08 1789.6,943.516 1789.38,943.945 1789.14,944.369 1788.9,944.786 1788.64,945.196 1788.37,945.599 1788.09,945.994 1787.8,946.382 1787.5,946.761 1787.19,947.132 1786.87,947.495 1786.54,947.849 1786.2,948.193 1785.85,948.528 1785.5,948.854 1785.13,949.169 1784.75,949.475 1784.37,949.77 1783.98,950.054 1783.58,950.328 1783.17,950.591 1782.76,950.842 1782.34,951.082 1781.91,951.311 1781.48,951.527 1781.04,951.732 1780.6,951.925 1780.15,952.106 1779.69,952.274 1779.24,952.43 1778.77,952.573 1778.31,952.704 1777.84,952.821 1777.37,952.926 1776.89,953.018 1776.41,953.097 1775.93,953.163 1775.45,953.216 1774.97,953.256 1774.49,953.282 1774,953.295 1773.52,953.295 1773.04,953.282 1772.55,953.256 1772.07,953.216 1771.59,953.163 1771.11,953.097 1770.63,953.018 1770.16,952.926 1769.68,952.821 1769.21,952.704 1768.75,952.573 1768.29,952.43 1767.83,952.274 1767.37,952.106 1766.93,951.925 1766.48,951.732 1766.04,951.527 1765.61,951.311 1765.18,951.082 1764.76,950.842 1764.35,950.591 1763.94,950.328 1763.54,950.054 1763.15,949.77 1762.77,949.475 1762.39,949.169 1762.03,948.854 1761.67,948.528 1761.32,948.193 1760.98,947.849 1760.65,947.495 1760.33,947.132 1760.02,946.761 1759.72,946.382 1759.43,945.994 1759.15,945.599 1758.88,945.196 1758.62,944.786 1758.38,944.369 1758.14,943.945 1757.92,943.516 1757.71,943.08 1757.51,942.639 1757.32,942.192 1757.15,941.741 1756.99,941.285 1756.84,940.824 1756.7,940.36 1756.58,939.893 1756.47,939.422 1756.37,938.948 1756.28,938.471 1756.21,937.993 1756.15,937.512 1756.1,937.031 1756.07,936.548 1756.05,936.064 1756.04,935.58 "
         id="polyline16" />
      <polyline
         fill="none"
         vector-effect="none"
         points="1756.04,1549.3 1756.05,1548.82 1756.07,1548.33 1756.1,1547.85 1756.15,1547.37 1756.21,1546.89 1756.28,1546.41 1756.37,1545.93 1756.47,1545.46 1756.58,1544.99 1756.7,1544.52 1756.84,1544.06 1756.99,1543.59 1757.15,1543.14 1757.32,1542.69 1757.51,1542.24 1757.71,1541.8 1757.92,1541.36 1758.14,1540.93 1758.38,1540.51 1758.62,1540.09 1758.88,1539.68 1759.15,1539.28 1759.43,1538.89 1759.72,1538.5 1760.02,1538.12 1760.33,1537.75 1760.65,1537.38 1760.98,1537.03 1761.32,1536.69 1761.67,1536.35 1762.03,1536.03 1762.39,1535.71 1762.77,1535.4 1763.15,1535.11 1763.54,1534.83 1763.94,1534.55 1764.35,1534.29 1764.76,1534.04 1765.18,1533.8 1765.61,1533.57 1766.04,1533.35 1766.48,1533.15 1766.93,1532.95 1767.37,1532.77 1767.83,1532.61 1768.29,1532.45 1768.75,1532.31 1769.21,1532.18 1769.68,1532.06 1770.16,1531.95 1770.63,1531.86 1771.11,1531.78 1771.59,1531.72 1772.07,1531.66 1772.55,1531.62 1773.04,1531.6 1773.52,1531.58 1774,1531.58 1774.49,1531.6 1774.97,1531.62 1775.45,1531.66 1775.93,1531.72 1776.41,1531.78 1776.89,1531.86 1777.37,1531.95 1777.84,1532.06 1778.31,1532.18 1778.77,1532.31 1779.24,1532.45 1779.69,1532.61 1780.15,1532.77 1780.6,1532.95 1781.04,1533.15 1781.48,1533.35 1781.91,1533.57 1782.34,1533.8 1782.76,1534.04 1783.17,1534.29 1783.58,1534.55 1783.98,1534.83 1784.37,1535.11 1784.75,1535.4 1785.13,1535.71 1785.5,1536.03 1785.85,1536.35 1786.2,1536.69 1786.54,1537.03 1786.87,1537.38 1787.19,1537.75 1787.5,1538.12 1787.8,1538.5 1788.09,1538.89 1788.37,1539.28 1788.64,1539.68 1788.9,1540.09 1789.14,1540.51 1789.38,1540.93 1789.6,1541.36 1789.81,1541.8 1790.01,1542.24 1790.2,1542.69 1790.37,1543.14 1790.53,1543.59 1790.68,1544.06 1790.82,1544.52 1790.94,1544.99 1791.06,1545.46 1791.15,1545.93 1791.24,1546.41 1791.31,1546.89 1791.37,1547.37 1791.42,1547.85 1791.45,1548.33 1791.47,1548.82 1791.48,1549.3 1791.47,1549.78 1791.45,1550.27 1791.42,1550.75 1791.37,1551.23 1791.31,1551.71 1791.24,1552.19 1791.15,1552.67 1791.06,1553.14 1790.94,1553.61 1790.82,1554.08 1790.68,1554.54 1790.53,1555 1790.37,1555.46 1790.2,1555.91 1790.01,1556.36 1789.81,1556.8 1789.6,1557.23 1789.38,1557.66 1789.14,1558.09 1788.9,1558.5 1788.64,1558.91 1788.37,1559.32 1788.09,1559.71 1787.8,1560.1 1787.5,1560.48 1787.19,1560.85 1786.87,1561.21 1786.54,1561.57 1786.2,1561.91 1785.85,1562.25 1785.5,1562.57 1785.13,1562.89 1784.75,1563.19 1784.37,1563.49 1783.98,1563.77 1783.58,1564.05 1783.17,1564.31 1782.76,1564.56 1782.34,1564.8 1781.91,1565.03 1781.48,1565.25 1781.04,1565.45 1780.6,1565.64 1780.15,1565.82 1779.69,1565.99 1779.24,1566.15 1778.77,1566.29 1778.31,1566.42 1777.84,1566.54 1777.37,1566.65 1776.89,1566.74 1776.41,1566.82 1775.93,1566.88 1775.45,1566.93 1774.97,1566.97 1774.49,1567 1774,1567.01 1773.52,1567.01 1773.04,1567 1772.55,1566.97 1772.07,1566.93 1771.59,1566.88 1771.11,1566.82 1770.63,1566.74 1770.16,1566.65 1769.68,1566.54 1769.21,1566.42 1768.75,1566.29 1768.29,1566.15 1767.83,1565.99 1767.37,1565.82 1766.93,1565.64 1766.48,1565.45 1766.04,1565.25 1765.61,1565.03 1765.18,1564.8 1764.76,1564.56 1764.35,1564.31 1763.94,1564.05 1763.54,1563.77 1763.15,1563.49 1762.77,1563.19 1762.39,1562.89 1762.03,1562.57 1761.67,1562.25 1761.32,1561.91 1760.98,1561.57 1760.65,1561.21 1760.33,1560.85 1760.02,1560.48 1759.72,1560.1 1759.43,1559.71 1759.15,1559.32 1758.88,1558.91 1758.62,1558.5 1758.38,1558.09 1758.14,1557.66 1757.92,1557.23 1757.71,1556.8 1757.51,1556.36 1757.32,1555.91 1757.15,1555.46 1756.99,1555 1756.84,1554.54 1756.7,1554.08 1756.58,1553.61 1756.47,1553.14 1756.37,1552.67 1756.28,1552.19 1756.21,1551.71 1756.15,1551.23 1756.1,1550.75 1756.07,1550.27 1756.05,1549.78 1756.04,1549.3 "
         id="polyline17" />
      <polyline
         fill="none"
         vector-effect="none"
         points="2429.6,1559.41 2086.95,1559.41 "
         id="polyline18" />
      <polyline
         fill="none"
         vector-effect="none"
         points="2086.95,1559.41 1625.93,1825.59 "
         id="polyline19" />
      <polyline
         fill="none"
         vector-effect="none"
         points="905.739,1805.44 1454.6,2122.33 "
         id="polyline20" />
      <polyline
         fill="none"
         vector-effect="none"
         points="1076.91,1508.96 905.739,1805.44 "
         id="polyline21" />
      <polyline
         fill="none"
         vector-effect="none"
         points="1076.91,1508.96 1076.91,975.571 "
         id="polyline22" />
      <polyline
         fill="none"
         vector-effect="none"
         points="1076.91,975.571 1076.46,975.831 "
         id="polyline23" />
      <polyline
         fill="none"
         vector-effect="none"
         points="1076.46,975.831 905.437,679.613 "
         id="polyline24" />
      <polyline
         fill="none"
         vector-effect="none"
         points="1454.3,362.726 905.437,679.613 "
         id="polyline25" />
      <polyline
         fill="none"
         vector-effect="none"
         points="1454.3,362.726 1625.32,658.945 "
         id="polyline26" />
      <polyline
         fill="none"
         vector-effect="none"
         points="1625.32,658.945 2087.25,925.641 "
         id="polyline27" />
      <polyline
         fill="none"
         vector-effect="none"
         points="2429.6,925.641 2087.25,925.641 "
         id="polyline28" />
      <polyline
         fill="none"
         vector-effect="none"
         points="2429.6,1559.41 2429.6,925.641 "
         id="polyline29" />
      <polyline
         fill="none"
         vector-effect="none"
         points="1315.92,938.944 1315.92,1545.94 "
         id="polyline30" />
      <polyline
         fill="none"
         vector-effect="none"
         points="1315.92,938.944 1323.11,932.447 1330.46,926.12 1337.95,919.967 1345.58,913.992 1353.35,908.197 1361.25,902.586 1369.28,897.161 1377.44,891.927 1385.72,886.885 1394.11,882.039 1402.62,877.39 1411.23,872.943 1419.95,868.699 1428.76,864.66 1437.66,860.828 1446.65,857.207 1455.72,853.797 1464.87,850.601 1474.1,847.621 "
         id="polyline31" />
      <polyline
         fill="none"
         vector-effect="none"
         points="1454.6,2122.33 1625.93,1825.59 "
         id="polyline32" />
    </g>
    <g
       fill="none"
       stroke="#000000"
       stroke-opacity="1"
       stroke-width="1"
       stroke-linecap="square"
       stroke-linejoin="bevel"
       font-family="Arial"
       font-size="12px"
       font-weight="400"
       font-style="normal"
       id="g33" />
  </g>
</svg>
